<svg width="1233" height="1111" viewBox="0 0 1233 1111" fill="none" xmlns="http://www.w3.org/2000/svg">
<path d="M484.986 190.661C493.693 191.403 515.974 196.008 522.327 191.394C530.01 185.813 529.691 161.519 526.484 153.536C490.506 63.9594 531.114 15.6007 625.767 0C618.591 12.8292 600.862 40.8264 606.325 54.5929C626.436 105.27 656.434 134.441 670.617 189.751C716.631 178.732 761.391 170.112 806.72 159.623C806.417 173.818 806.076 185.912 804.805 200.095C828.685 202.922 864.346 206.712 886.721 215.701L868.617 235.106C885.441 241.306 931.128 260.247 944.867 269.69C993.368 257.483 1011.79 258.985 1011.32 316.19C1050.18 333.181 1086.99 335.1 1097.57 383.995C1115.62 401.278 1134.1 422.157 1143.23 439.693C1159.98 471.859 1180.69 495.123 1157.59 525.672C1154.24 530.103 1168.1 567.239 1131.55 565.31C1118.84 566.037 1099.97 555.631 1089.03 556.462C1088.98 565.307 1090.18 577.827 1082.91 584.008C1067.81 596.858 1037.77 589.944 1026.18 574.995C1017.17 563.381 1010.56 552.291 1000.52 541.66C958.073 536.783 952.729 533.499 920.445 505.046C946.41 549.517 943.016 566.668 980.539 608.165C1018.24 615.87 1037.56 627.639 1021.28 668.313C1053.42 680.561 1136.25 721.179 1167.11 739.177C1143.38 746.506 1114.2 753.041 1089.37 754.99C1103.31 770.941 1119.98 789.149 1132.61 805.807C1125.64 809.93 1117.95 814.703 1110.79 818.293C1124.57 830.777 1137.71 845.721 1149.12 860.421C1176.93 855.451 1212.14 856.497 1200.98 894.531C1198.91 901.583 1195.98 908.415 1193.59 915.36C1179.72 946.073 1224.87 939 1230.58 960.902C1233.42 971.803 1224.85 982.72 1218.96 991.645C1223.45 1003.76 1236.49 1033.83 1231.26 1046.46C1224.07 1058.33 1200.93 1063.11 1189.35 1065.77C1152.46 1074.23 1113.83 1075.03 1076.61 1069C1063.44 1066.86 1040.08 1061.22 1037.86 1045.71C1036.5 1036.14 1037.49 1025.07 1038.07 1015.34C987.496 1004.52 963.276 1003.61 923.696 967.257C871.196 985.436 779.263 1001.19 728.602 976.496C725.515 974.991 722.459 973.426 719.435 971.799L687.983 996.517C675.43 987.358 665.007 979.877 653.403 969.504C631.983 991.179 613.446 1007.84 588.87 1026.19C597.224 1052.37 610.511 1091.73 571.845 1098.92C486.242 1114.83 354.842 1116.84 272.454 1088.64C296.168 1050.23 328.91 1033.87 364.693 1009.64C367.615 1007.66 366.074 1003.52 365.539 1000.8C357.543 990.736 339.687 987.306 326.933 984.281C275.782 1014.14 202.965 1054.36 149.341 1079.24C122.985 1091.47 30.4201 1091.04 0 1083.24C6.0764 1050.98 21.6499 990.107 49.7913 974.641C110.923 941.04 187.313 916.275 249.223 884.573C239.148 854.606 249.056 852.793 272.693 837.642C264.066 828.255 258.343 821.375 252.575 809.842C254.175 795.673 255.078 789.742 259.376 775.922C244.066 746.55 238.919 731.533 235.66 698.028C221.33 693.899 207.109 690.447 199.954 675.97C187.273 650.315 211.942 620.439 230.285 606.026C234.057 564.705 235.462 542.139 249.518 503.084L223.532 502.979C232.855 484.7 242.539 467.866 254.803 451.319C228.325 446.206 214.026 442.882 189.563 429.452C214.777 420.076 230.176 412.85 252.852 397.938C234.918 384.789 220.895 367.984 218.081 345.408C207.43 259.879 294.031 231.42 301.427 146.236C300.852 125.402 298.746 115.041 294.252 95.2213C306.042 100.181 317.02 106.889 326.815 115.117C366.054 146.007 380.458 190.084 368.137 238.029C373.62 235.828 389.941 229.398 394.061 226.363C408.819 215.497 418.688 203.511 435.247 194.543C445.656 198.94 454.517 202.701 464.623 207.912C471.002 202.169 478.007 195.515 484.986 190.661Z" fill="#020101"/>
<path d="M289.064 222.82C302.108 221.262 310.52 219.652 323.621 222.633C334.477 226.087 347.408 233.338 352.665 234.869L356.883 241.061C352.239 250.185 329.284 263.07 319.605 268.235C317.278 269.478 313.112 267.996 310.645 267.09L308.944 269.12L313.609 272.007C309.633 279.031 287.412 297.503 279.996 304.025L278.787 305.731L277.018 309.183C269.281 322.148 265.915 328.378 261.575 342.878C251.799 347.95 241.274 353.687 231.305 358.187C211.729 301.203 250.762 264.132 280.464 222.738L289.064 222.82Z" fill="#F9F1DB"/>
<path d="M323.614 222.633C334.471 226.087 347.401 233.338 352.658 234.868L356.876 241.06C352.232 250.185 329.277 263.069 319.599 268.235C317.271 269.477 313.105 267.996 310.638 267.089L300.719 264.255C310.341 251.336 317.242 237.318 323.614 222.633Z" fill="#CBC4C5"/>
<path d="M297.952 266.746L308.944 269.121L313.608 272.008C309.633 279.032 287.412 297.504 279.996 304.026C285.126 291.355 291.665 278.889 297.952 266.746Z" fill="#C4B9BA"/>
<path d="M297.956 266.745C282.241 264.138 259.496 270.584 254.176 267.61C268.134 260.19 285.792 261.974 300.729 264.255L310.649 267.09L308.949 269.12L297.956 266.745Z" fill="#63615B"/>
<path d="M277.013 309.184C265.089 303.635 244.347 309.876 234.355 310.825L235.211 308.234C245.593 302.749 267.203 303.3 278.783 305.731L277.013 309.184Z" fill="#63615B"/>
<path d="M294.245 95.2227C306.035 100.183 317.013 106.89 326.808 115.119L324.926 121.3L325.718 123.14C332.322 142.598 333.714 151.163 334.9 171.939L342.341 176.135L341.573 179.107C345.204 181.767 349.928 185.6 353.829 187.446C356.923 191.826 358.531 195.09 363.299 197.411C365.438 212.535 360.83 226.533 356.876 241.062L352.658 234.87C347.401 233.34 334.47 226.089 323.614 222.635C310.513 219.654 302.102 221.264 289.057 222.822L280.457 222.74C290.275 206.024 303.602 182.358 304.699 162.987L303.854 147.94L301.42 146.237C300.845 125.403 298.739 115.042 294.245 95.2227Z" fill="#F9F1DB"/>
<path d="M336.009 175.77L341.578 179.106C345.209 181.766 349.933 185.599 353.834 187.445C356.928 191.825 358.536 195.089 363.304 197.41C365.443 212.534 360.835 226.532 356.881 241.061L352.663 234.869C347.304 226.396 334.572 223.136 325.078 219.675C333.984 209.664 335.277 188.359 336.009 175.77Z" fill="#C4B9BA"/>
<path d="M294.254 95.2227C306.044 100.183 317.022 106.89 326.817 115.119L324.935 121.3C316.623 114.401 306.72 105.706 297.914 99.791C304.4 119.491 309.579 142.257 304.708 162.987L303.863 147.94L301.429 146.237C300.854 125.403 298.748 115.042 294.254 95.2227Z" fill="#0F0709"/>
<path d="M289.062 222.82L291.225 219.911C304.235 215.384 311.566 217.317 325.079 219.674C334.572 223.135 347.305 226.395 352.663 234.868C347.406 233.338 334.476 226.087 323.619 222.633C310.518 219.652 302.107 221.262 289.062 222.82Z" fill="#63615B"/>
<path d="M336.004 175.771C330.513 174.451 310.101 171.644 307.848 169.269C319.018 167.359 324.44 168.955 334.9 171.939L342.341 176.135L341.572 179.107L336.004 175.771Z" fill="#63615B"/>
<path d="M325.719 123.138C344.405 141.58 362.5 170.693 363.299 197.409C358.532 195.088 356.924 191.824 353.829 187.443C349.928 185.597 345.204 181.764 341.573 179.104L342.342 176.132L334.9 171.937C333.715 151.161 332.323 142.595 325.719 123.138Z" fill="#C4B9BA"/>
<path d="M342.343 176.134C348.789 179.162 351.651 180.235 353.83 187.445C349.929 185.599 345.205 181.766 341.574 179.106L342.343 176.134Z" fill="#887774"/>
<path d="M231.309 358.189C241.277 353.688 251.802 347.951 261.578 342.88C260.476 361.413 260.226 375.364 260.616 393.927C247.747 383.838 236.571 374.644 231.309 358.189Z" fill="#C4B9BA"/>
<path d="M487.875 199.562L513.856 204.152C499.303 232.222 509.121 249.524 525.47 273.786C551.23 304.228 570.266 306.455 605.479 316.471L610.27 315.16C616.087 312.754 622.578 310.495 628.537 308.284C644.736 303.43 687.363 300.85 702.21 307.021C702.505 311.791 702.349 311.753 701.093 316.462L694.047 335.366C681.479 353.296 672.73 360.958 651.392 366.512C625.765 373.181 594.582 350.079 587.001 349.495C585.464 356.927 599.168 364.906 604.762 368.992C597.288 387.529 597.368 415.588 613.672 429.412C619.892 430.948 616.982 431.3 622.683 428.239C626.398 422.384 626.889 417.509 628.316 410.724L630.788 408.584L636.513 410.662C634.425 399.168 632.217 387.698 629.893 376.249C638.38 377.312 649.085 377.099 657.829 377.17C660.075 385.199 661.208 390.029 664.994 397.505C681.99 445.506 696.916 509.825 719.52 554.591C713.597 568.62 689.778 590.128 678.401 601.123C640.244 637.563 585.186 678.634 534.429 695.294C522.766 688.823 511.229 682.123 499.83 675.198C507.604 685.78 511.579 690.186 520.904 699.483L480.668 708.177C457.377 666.85 434.322 662.102 387.754 663.128C385.204 651.628 379.031 626.972 387.502 617.31C395.754 619.266 398.466 631.828 401.189 639.358C402.523 637.542 404.624 633.638 405.851 631.529C394.474 581.285 360.588 591.163 334.421 562.988C336.163 559.195 335.768 561.265 334.64 556.486C315.798 541.985 299.228 500.519 294.681 476.427C282.11 441.506 282.057 429.735 276.974 393.204L276.327 391.172C271.052 338.072 277.299 323.807 317.116 288.823C321.454 285.012 324.857 282.635 326.039 277.266C328.915 274.943 331.925 272.791 335.052 270.816C344.659 264.738 384.805 241.698 394.666 244.055L395.272 249.872C398.089 249.099 410.756 230.403 415.432 225.606C423.799 217.018 427.135 213.749 436.684 206.086L468.642 218.132L487.875 199.562Z" fill="#C93330"/>
<path d="M487.875 199.562L513.856 204.152C499.303 232.222 509.121 249.524 525.47 273.786C526.893 287.344 529.844 302.301 520.529 313.604C518.437 316.143 516.006 318.346 514.331 320.995L505.053 326.779C499.836 320.768 494.088 319.668 486.67 315.952L488.87 311.416L487.364 308.487C449.948 344.977 442.217 366.458 419.041 412.165C400.299 398.724 397.371 391.616 390.234 369.707L387.426 374.751L386.44 374.918C381.377 378.584 380.811 378.573 374.668 380.301C377.771 387.507 391.369 415.383 391.782 420.865C387.988 426.292 385.764 427.03 387.645 433.94C392.779 452.797 387.317 462.572 372.226 474.588L375.824 478.193L376.015 485.042C342.696 507.404 323.038 495.725 294.681 476.427C282.11 441.506 282.057 429.735 276.974 393.204L276.327 391.172C271.052 338.072 277.299 323.807 317.116 288.823C321.454 285.012 324.857 282.635 326.039 277.266C328.915 274.943 331.925 272.791 335.052 270.816C344.659 264.738 384.805 241.698 394.666 244.055L395.272 249.872C398.089 249.099 410.756 230.403 415.432 225.606C423.799 217.018 427.135 213.749 436.684 206.086L468.642 218.132L487.875 199.562Z" fill="#E9463F"/>
<path d="M370.725 366.765C371.994 371.22 373.239 375.921 374.677 380.302C377.78 387.508 391.378 415.384 391.791 420.865C387.997 426.292 385.773 427.03 387.654 433.94C392.788 452.798 387.326 462.573 372.235 474.589L375.833 478.194L376.024 485.042C342.705 507.404 323.047 495.726 294.69 476.428C282.119 441.507 282.066 429.736 276.983 393.205L276.336 391.172L277.264 390.578C288.106 384.171 289.319 395.767 300.228 379.026L297.143 375.281L301.029 372.761C320.83 385.27 340.561 397.89 360.22 410.619C366.864 409.582 371.86 408.75 378.476 407.105C373.482 394.222 370.555 383.071 366.907 369.796L370.725 366.765Z" fill="#020101"/>
<path d="M276.977 393.205C282.634 395.236 288.275 396.05 291.268 400.122C293.331 426.838 293.817 454.116 314.793 473.913C329.335 487.639 356.321 483.873 372.228 474.589L375.827 478.194L376.017 485.042C342.698 507.405 323.041 495.726 294.684 476.428C282.112 441.507 282.06 429.736 276.977 393.205Z" fill="#C32E29"/>
<path d="M300.222 379.024C311.481 386.734 319.916 395.013 329.881 404.248C312.145 397.521 296.221 389.782 277.258 390.576C288.1 384.17 289.313 395.766 300.222 379.024Z" fill="#C32E29"/>
<path d="M378.467 407.104L385.874 426.122C376.272 420.866 369.2 417.058 360.211 410.618C366.855 409.58 371.851 408.748 378.467 407.104Z" fill="#D14229"/>
<path d="M300.41 404.222C321.877 412.352 359.276 422.43 377.388 434.887C380.293 436.885 382.668 438.27 383.207 441.862C384.298 449.122 378.343 455.661 374.264 461.071C366.926 467.282 357.882 471.655 348.278 472.819C338.817 473.965 330.426 471.61 322.986 465.597C304.607 450.738 302.653 425.978 300.41 404.222Z" fill="#FDF287"/>
<path d="M389.989 352.572C389.974 358.338 389.878 363.947 390.235 369.707L387.427 374.751L386.441 374.918L385.961 352.92L389.989 352.572Z" fill="#5A1612"/>
<path d="M366.903 369.798C366.111 363.431 365.947 360.34 366.038 353.925L367.622 354.708L370.72 366.766L366.903 369.798Z" fill="#5A1612"/>
<path d="M297.134 375.281C292.639 371.807 292.068 371.292 289.133 366.445C293.882 366.641 296.523 369.638 301.021 372.761L297.134 375.281Z" fill="#1E0708"/>
<path d="M487.367 308.488C490.554 305.589 493.273 301.931 496.725 301.854C493.808 306.793 493.092 307.503 488.874 311.416L487.367 308.488Z" fill="#5A1612"/>
<path d="M385.961 352.92L388.223 342.3L389.389 342.285L389.989 352.571L385.961 352.92Z" fill="#931C17"/>
<path d="M461.113 252.039C465.458 233.871 493.821 232.652 494.01 244.788C486.871 241.254 485.742 240.619 477.49 240.975C479.587 250.313 480.943 249.879 478.545 257.928C473.315 262.45 475.795 261.509 469.296 261.805C464.779 259.705 461.701 257.326 461.113 252.039Z" fill="#EE5B49"/>
<path d="M461.113 252.039C465.458 233.871 493.821 232.652 494.01 244.788C486.871 241.254 485.742 240.619 477.49 240.975C471.455 244.666 466.555 247.43 461.113 252.039Z" fill="#3A1817"/>
<path d="M426.56 243.624L428.138 244.135L427.964 245.929L412.265 255.791C411.243 256.086 412.024 255.927 409.91 255.392C414.643 250.213 420.569 247.127 426.56 243.624Z" fill="#5A1612"/>
<path d="M487.364 308.487L488.871 311.416L486.67 315.952C494.088 319.668 499.836 320.768 505.053 326.779L514.331 320.995C526.159 315.659 533.539 312.395 546.629 313.086L549.116 315.145C545.987 320.783 536.412 325.272 530.348 328.222C539.381 352.447 544.256 380.461 533.258 404.992C525.624 421.956 511.412 435.077 493.896 441.332C473.288 448.73 448.529 447.258 430.461 434.355C416.307 432.217 404.758 426.569 391.782 420.865C391.369 415.383 377.771 387.507 374.668 380.301C380.811 378.573 381.377 378.584 386.44 374.918L387.426 374.751L390.234 369.707C397.371 391.616 400.299 398.724 419.041 412.165C442.217 366.457 449.949 344.976 487.364 308.487Z" fill="#020101"/>
<path d="M386.44 374.919L387.426 374.752C390.729 396.793 394.536 411.388 417.295 418.991C428.609 422.771 427.72 422.302 430.461 434.356C416.307 432.218 404.758 426.57 391.782 420.866C391.369 415.384 377.771 387.508 374.668 380.302C380.811 378.574 381.377 378.585 386.44 374.919Z" fill="#D73A35"/>
<path d="M486.673 315.953C494.091 319.668 499.839 320.769 505.056 326.78C483.14 341.434 467.151 359.015 448.848 377.689C456.604 363.775 477.176 325.554 486.673 315.953Z" fill="#C32E29"/>
<path d="M520.421 331.005C520.804 331.382 521.203 331.745 521.571 332.135C528.32 339.308 530.263 362.87 529.552 372.629C528.238 390.67 521.66 408.103 507.471 419.899C489.893 434.514 469.388 435.966 447.559 433.917C443.065 431.754 440.288 429.825 437.087 425.979C435.972 422.605 435.531 419.803 436.416 416.291C443.587 387.825 495.634 345.828 520.421 331.005Z" fill="#FDF287"/>
<path d="M628.537 308.285C644.736 303.431 687.363 300.851 702.209 307.021C702.505 311.792 702.349 311.754 701.093 316.463L694.047 335.367C679.035 331.793 619.344 320.091 610.27 315.161C616.087 312.755 622.578 310.495 628.537 308.285Z" fill="#D73A35"/>
<path d="M628.543 308.285C644.742 303.431 687.369 300.851 702.216 307.021C702.511 311.792 702.355 311.754 701.099 316.463C691.12 316.358 637.426 310.697 628.543 308.285Z" fill="#EE5B49"/>
<path d="M656.309 402.402L664.997 397.506C681.994 445.507 696.92 509.825 719.523 554.592L712.394 555.039C708.21 535.206 692.999 507.602 685.61 487.588C675.236 459.485 665.336 430.952 656.309 402.402Z" fill="#E45E4C"/>
<path d="M629.898 376.249C638.386 377.312 649.09 377.099 657.835 377.17C660.081 385.199 661.214 390.029 664.999 397.505L656.31 402.401C649.698 403.977 646.157 404.049 641.665 408.997C639.522 413.971 639.319 414.689 638.989 420.091L636.519 410.662C634.43 399.168 632.222 387.698 629.898 376.249Z" fill="#AB2422"/>
<path d="M712.392 555.039L719.522 554.591C713.599 568.62 689.78 590.128 678.403 601.123C674.362 599.809 668.55 599.109 664.207 598.396C669.711 591.482 672.219 590.101 679.423 585.1C683.043 578.386 705.605 560.603 712.392 555.039Z" fill="#EE5B49"/>
<path d="M664.207 598.395C669.711 591.481 672.219 590.099 679.423 585.099C677.821 595.345 674.848 597.309 664.207 598.395Z" fill="#E45E4C"/>
<path d="M628.32 410.723L630.793 408.583L636.518 410.661L638.988 420.09C643.279 433.778 646.497 446.767 649.976 460.664C641.697 445.776 636.396 426.973 628.32 410.723Z" fill="#1E0708"/>
<path d="M375.828 478.193C389.962 486.967 397.77 491.584 410.499 502.26C398.256 497.939 385.289 494.336 376.018 485.042L375.828 478.193Z" fill="#020101"/>
<path d="M405.85 631.529C406.118 637.083 407.054 641.544 404.461 646.216C401.862 643.103 402.027 643.342 401.188 639.359C402.522 637.542 404.623 633.638 405.85 631.529Z" fill="#0F0709"/>
<path d="M505.089 495.586C515.982 466.828 531.73 427.788 574.248 446.27C603.981 462.525 626.329 493.513 639.105 523.937C644.268 536.232 638.882 554.803 629.581 553.846C587.18 549.489 582.197 541.861 572.218 595.397C548.365 599.66 535.957 601.994 511.541 599.423L511.262 601.064C497.135 599.675 487.484 598.65 473.192 599.056C467.313 610.674 464.989 618.014 461.929 630.646C459.951 638.813 460.209 656.265 455.842 660.978L452.02 661.424L449.84 658.985C450.76 653.747 449.638 655.855 452.662 652.133C441.655 651.166 434.431 649.937 423.542 647.817C420.009 638.062 411.837 613.899 406.043 606.832C371.978 565.273 321.584 580.449 347.462 507.125C356.257 530.738 361.663 539.881 375.987 560.738C381.453 542.802 384.803 532.753 393.18 516.146C402.816 520.138 436.267 532.559 445 529.418L448.458 516.751C451.342 504.211 454.87 494.177 461.51 483.031L505.089 495.586Z" fill="#140C10"/>
<path d="M347.462 507.125C356.257 530.738 361.663 539.881 375.987 560.738C381.453 542.802 384.803 532.753 393.18 516.146C402.816 520.138 436.267 532.559 445 529.418L448.458 516.751C451.273 521.4 448.398 529.469 449.098 536.827C458.285 535.194 496.921 544.675 514.934 545.442C514.013 566.25 515.141 572.954 524.286 591.9C469.452 583.895 450.748 570.464 449.058 639.761L454.937 638.209L452.662 652.133C441.655 651.166 434.431 649.937 423.542 647.817C420.009 638.062 411.837 613.9 406.043 606.832C371.978 565.273 321.584 580.449 347.462 507.125Z" fill="#3A1817"/>
<path d="M347.462 507.125C356.257 530.738 361.663 539.881 375.987 560.738C381.453 542.802 384.803 532.753 393.18 516.146C402.816 520.138 436.267 532.559 445 529.418L448.458 516.751C451.273 521.4 448.398 529.469 449.098 536.827C437.777 540.561 406.989 530.008 395.092 525.857C390 540.459 385.12 555.135 380.456 569.878C371.122 564.383 367.438 562.136 360.479 553.652L355.53 556.97C362.288 568.736 375.496 573.652 386.826 580.513C410.91 595.095 417.804 614.815 428.971 639.248C435.294 640.942 440.651 643.114 446.89 641.848L449.058 639.761L454.937 638.209L452.662 652.133C441.655 651.166 434.431 649.937 423.542 647.817C420.009 638.062 411.837 613.9 406.043 606.832C371.978 565.273 321.584 580.449 347.462 507.125Z" fill="#020101"/>
<path d="M355.529 556.968C353.446 551.898 353.198 551.011 352.629 545.562C356.035 546.242 357.864 550.168 360.478 553.649L355.529 556.968Z" fill="#5A1612"/>
<path d="M467.536 591.6C481.473 592.017 497.989 595.91 511.541 599.422L511.262 601.063C497.135 599.674 487.484 598.649 473.192 599.056C467.313 610.673 464.989 618.013 461.929 630.645C459.951 638.812 460.209 656.264 455.842 660.977L452.021 661.423L449.84 658.984C450.761 653.746 449.639 655.854 452.662 652.132L454.937 638.208C457.686 620.272 460.258 608.196 467.536 591.6Z" fill="#E45E4C"/>
<path d="M565.82 517.403C585.963 494.462 632.084 498.698 629.675 541.123C617.534 559.7 573.675 511.53 565.581 587.571C554.804 587.834 545.946 589.504 535.411 591.253C524.09 571.13 515.735 551.644 531.325 530.068C536.451 522.973 552.964 514.353 561.525 513.291L565.82 517.403Z" fill="#7D5694"/>
<path d="M561.527 513.292L565.821 517.404L555.867 542.026C557.879 532.526 560.058 522.873 561.527 513.292Z" fill="#292429"/>
<path d="M413.153 482.748C412.769 483.557 412.383 484.367 411.999 485.178C404.905 480.249 403.065 477.921 399.168 470.378C400.68 454.989 416.694 445.708 430.13 456.068C434.379 464.03 433.038 462.5 432.855 472.467L435.28 473.644C427.868 479.631 426.49 480.422 417.705 484.131L413.153 482.748Z" fill="#EE5B49"/>
<path d="M432.85 472.465L435.275 473.642C427.863 479.629 426.485 480.419 417.7 484.129L413.148 482.746C419.854 478.331 425.024 474.271 432.85 472.465Z" fill="#1E0708"/>
<path d="M417.46 454.023C422.407 454.357 424.865 454.865 428.942 457.751L429.243 461.407C425.562 467.117 419.025 468.451 412.925 470.44C409.654 472.449 409.196 472.981 405.422 472.81L404.688 469.135C407.704 461.604 411.119 458.702 417.46 454.023Z" fill="#FB857F"/>
<path d="M658.073 531.167L660.019 530.782L662.189 533.915C664.207 545.77 662.396 553.377 656.412 563.725L654.695 562.896C655.979 559.761 657.152 556.599 658.388 553.447C661.2 546.287 659.16 538.579 658.073 531.167Z" fill="#5A1612"/>
<path d="M544.357 410.816C544.584 416.022 540.77 419.475 537.835 423.683C537.77 423.38 537.666 423.083 537.643 422.775C537.309 418.354 541.763 414.077 544.357 410.816Z" fill="#C32E29"/>
<path d="M556.519 885.185C595.134 895.038 675.683 894.659 715.348 890.933C805.013 882.514 929.233 835.944 987.865 764.276C1000.2 749.203 1025.14 710.08 1024.47 688.27C1024.35 684.337 1024.13 685.672 1024.94 681.181L1027.92 681.518C1066.02 699.617 1103.8 718.39 1141.24 737.825C1118.11 742.148 1097.95 747.958 1074.46 750.387C1090.31 767.662 1106.46 785.15 1119.06 804.99C1084.44 818.664 1061.25 827.868 1023.57 830.087L1023.32 833.837C1025.67 847.623 1024.37 887.437 1022.34 901.912C973.963 904.909 942.636 904.992 894.152 896.508C893.122 915.248 883.702 945.385 878.459 964.121C865.311 961.28 751.565 929.543 752.258 929.357L755.711 933.503L752.229 936.7L747.405 936.298C730.523 950.662 706.003 974.475 689.55 986.166C673.098 974.921 653.589 956.007 640.638 940.649C624.697 946.977 608.866 953.581 593.155 960.46C587.579 954.569 581.091 947.335 575.373 941.784C569.058 935.904 553.537 916.042 547.578 908.74C551.095 901.092 553.72 893.129 556.519 885.185Z" fill="#4A3A42"/>
<path d="M556.519 885.185C595.134 895.038 675.683 894.659 715.348 890.933C805.013 882.514 929.233 835.944 987.865 764.276C1000.2 749.203 1025.14 710.08 1024.47 688.27C1024.35 684.337 1024.13 685.672 1024.94 681.181L1027.92 681.518C1024.11 695.103 1027.25 714.585 1021.9 730.214C964.538 897.537 731.598 928.499 586.792 905.54C582.438 917.69 579.026 929.431 575.373 941.784C569.058 935.904 553.537 916.042 547.578 908.74C551.095 901.092 553.72 893.129 556.519 885.185Z" fill="#322429"/>
<path d="M1023.31 833.837C1009.36 831.641 1000.48 829.405 987.145 824.696C995.026 824.461 1014.72 828.519 1023.57 830.087L1023.31 833.837Z" fill="#292429"/>
<path d="M752.259 929.357L755.712 933.504L752.23 936.701L747.406 936.298L752.259 929.357Z" fill="#0F0709"/>
<path d="M789.012 279.352C785.418 276.191 785.543 276.006 783.313 272.001C784.879 269.281 832.205 238.843 838.805 234.225L842.772 235.135C853.353 239.953 883.708 253.546 892.106 261C921.065 276.964 963.899 311.438 978.582 341.217C983.468 348.493 984.527 350.908 987.913 358.988C1015.84 429.837 965.099 484.558 893.442 482.602C886.947 482.426 878.855 482.825 872.84 480.319L875.951 475.237L874.142 474.109C862.484 481.536 852.535 487.583 840.424 494.322C822.701 485.829 811.072 478.343 795.502 466.856C804.495 458.278 809.914 451.384 817.645 441.803C805.911 422.918 773.379 384.135 758.145 365.294C769.268 357.632 791.164 335.253 802.878 324.541L813.61 312.488L789.012 279.352Z" fill="#E9463F"/>
<path d="M802.878 324.542C796.918 338.399 780.717 350.061 787.161 364.569C804.365 403.295 878.389 419.043 916.017 411.166L915.409 416.084L917.202 415.638L919.236 410.537C951.5 402.541 979.344 394.365 987.913 358.989C1015.84 429.839 965.099 484.56 893.442 482.603C886.947 482.427 878.855 482.826 872.84 480.32L875.951 475.238L874.142 474.11C862.484 481.537 852.535 487.584 840.424 494.324C822.701 485.831 811.072 478.344 795.502 466.857C804.495 458.279 809.914 451.385 817.645 441.804C805.911 422.92 773.379 384.137 758.145 365.296C769.268 357.633 791.164 335.254 802.878 324.542Z" fill="#AB2422"/>
<path d="M915.412 416.084L917.205 415.638C917.172 420.357 917.807 423.572 914.984 427.162C913.106 422.114 914.112 422.395 915.412 416.084Z" fill="#931C17"/>
<path d="M892.106 261.001C921.065 276.964 963.899 311.439 978.582 341.217C965.355 336.563 942.998 308.866 930.691 298.212C919.113 288.19 901.549 275.505 891.586 264.859L892.106 261.001Z" fill="#EE5B49"/>
<path d="M789.012 279.352C785.417 276.191 785.542 276.006 783.312 272.001C784.879 269.281 832.205 238.843 838.805 234.225L842.771 235.135C837.942 246.203 800.536 272.371 789.012 279.352Z" fill="#C32E29"/>
<path d="M916.011 411.165C915.862 390.067 915.614 376.228 904.337 358.484C901.692 354.323 897.234 345.752 896.07 340.918C915.059 348.254 919.127 393.173 919.23 410.536L917.196 415.637L915.403 416.083L916.011 411.165Z" fill="#3A1817"/>
<path d="M857.209 281.934C875.114 280.662 892.181 289.912 905.719 301.161C911.77 306.189 919.121 313.973 919.182 322.301C919.222 327.793 916.688 329.284 913.034 332.687C897.125 327.655 879.891 319.889 865.68 311.085C858.237 306.472 851.104 301.125 849.066 292.162C850.634 286.686 853.084 285.449 857.209 281.934Z" fill="#FB857F"/>
<path d="M835.679 318.206C837.34 318.19 839 318.206 840.659 318.255C850.364 318.565 857.815 322.966 864.15 330.213C868.523 335.214 871.15 341.68 870.343 348.389C869.536 355.102 865.766 358.006 860.61 361.85C851.276 361.475 842.869 358.706 835.578 352.815C830.361 348.598 826.403 342.438 826.215 335.57C825.995 327.599 830.484 323.408 835.679 318.206Z" fill="#FB857F"/>
<path d="M924.761 351.859C930.904 352.583 933.273 353.114 937.862 357.042C939.828 362.539 938.953 366.541 937.921 372.055C932.768 371.234 930.348 369.863 926.53 366.332C923.78 361.011 923.921 357.711 924.761 351.859Z" fill="#FB857F"/>
<path d="M297.611 873.607C308.796 874.182 340.932 893.054 345.288 903.614L348.968 907.034C355.652 922.064 361.91 935.9 367.471 951.389L287.704 994.061C280.337 997.996 256.349 1011.41 250.127 1013.8C225.925 1027.96 184.652 1051.99 159.369 1062.98C153.842 1065.77 149.123 1068.17 143.339 1070.51L139.44 1070.44C87.7467 1077.16 62.4368 1079.69 8.9112 1078.01C6.85733 1077.45 7.85616 1077.95 6.35156 1075.42C19.5612 1027.43 26.3573 1021.41 47.1515 979.133C57.2505 975.515 67.3149 971.802 77.3432 967.991C146.645 934.359 225.889 906 297.611 873.607Z" fill="#F9EADC"/>
<path d="M329.228 913.392C333.709 911.162 340.81 906.411 345.294 903.615L348.974 907.035C355.658 922.065 361.916 935.901 367.477 951.39L287.71 994.062C280.343 997.996 256.355 1011.41 250.133 1013.8C225.931 1027.96 184.658 1051.99 159.375 1062.99C153.848 1065.77 149.129 1068.17 143.345 1070.51C141.686 1053.46 149.32 1031.45 145.7 1014.68L143.258 1010L145.738 1008.13L144.848 1005.52C205.726 973.661 267.197 942.944 329.228 913.392Z" fill="#8F879F"/>
<path d="M329.224 913.392C333.705 911.162 340.806 906.411 345.291 903.615L348.97 907.035C336.727 916.857 344.261 924.126 350.479 937.435C337.405 946.808 248.719 998.578 237.416 998.083C246.932 990.698 263.504 983.768 274.495 977.357C298.96 963.09 323.563 949.997 348.514 936.666L337.584 914.148C293.844 936.643 251.094 959.48 206.291 980.038C187.214 988.791 164.976 1000.69 145.734 1008.13L144.844 1005.52C205.722 973.661 267.193 942.944 329.224 913.392Z" fill="#342F34"/>
<path d="M159.368 1062.99C158.269 1060.16 158.618 1061.21 158.786 1057.95C165.026 1050.78 223.219 1017.92 235.172 1012.81C240.796 1010.4 244.764 1011.28 250.126 1013.8C225.924 1027.96 184.651 1051.99 159.368 1062.99Z" fill="#A9A3B0"/>
<path d="M47.1515 979.133C60.3557 990.908 97.0806 1009.73 114.122 1020.15L121.674 1018.04C125.149 1015.5 137.89 1008.98 142.329 1006.58L143.933 1005.55L144.842 1005.52L145.732 1008.12L143.252 1010L145.694 1014.68C149.314 1031.45 141.68 1053.46 143.339 1070.51L139.44 1070.44C87.7467 1077.16 62.4368 1079.69 8.9112 1078.01C6.85733 1077.45 7.85616 1077.95 6.35156 1075.42C19.5612 1027.43 26.3573 1021.41 47.1515 979.133Z" fill="#C4B9BA"/>
<path d="M47.1515 979.133C60.3557 990.908 97.0806 1009.73 114.122 1020.15C79.7868 1040.29 44.7967 1060.85 8.9112 1078.01C6.85733 1077.45 7.85616 1077.95 6.35156 1075.42C19.5612 1027.43 26.3573 1021.41 47.1515 979.133Z" fill="#F9EADC"/>
<path d="M145.695 1014.68C149.316 1031.45 141.682 1053.46 143.341 1070.51L139.441 1070.44C140.654 1056.25 142.36 1026.96 145.695 1014.68Z" fill="#483F41"/>
<path d="M143.943 1005.55L144.851 1005.52L145.741 1008.12L143.261 1010C136.88 1013.31 129.75 1017.74 122.862 1018.71L121.684 1018.04C125.159 1015.5 137.899 1008.98 142.338 1006.58L143.943 1005.55Z" fill="#63615B"/>
<path d="M47.1484 979.131C57.2474 975.514 67.3118 971.801 77.3401 967.989C77.2712 975.492 76.0639 974.267 79.7547 978.749L82.9633 979.313C100.917 987.737 126.624 996.756 142.326 1006.58C137.887 1008.98 125.146 1015.5 121.671 1018.04L114.119 1020.15C97.0775 1009.73 60.3526 990.906 47.1484 979.131Z" fill="#FAF7F6"/>
<path d="M297.617 873.607C308.802 874.182 340.939 893.054 345.295 903.614C340.81 906.41 333.709 911.161 329.228 913.391C317.463 894.389 309.335 889.876 297.617 873.607Z" fill="#9996AD"/>
<path d="M82.9688 979.314C94.9838 978.161 135.74 996.553 143.936 1005.55L142.331 1006.58C126.629 996.758 100.922 987.739 82.9688 979.314Z" fill="#B9B8B7"/>
<path d="M245.848 911.974C251.578 913.388 253.88 913.542 258.068 917.948L254.002 918.748L245.848 911.974Z" fill="#E9CFC6"/>
<path d="M691.737 452.432C705.599 475.456 726.703 503.065 745.873 521.85C753.51 528.699 759.895 534.837 768.694 540.247L764.642 544.541C769.231 553.38 774.932 548.1 776.592 555.879C827.138 583.639 849.681 566.477 885.021 531.573C892.452 533.401 904.813 538.312 912.378 541.061C911.123 581.621 897.009 611.354 867.281 639.316C854.003 651.587 839.428 662.378 823.815 671.495L814.354 676.466C777.348 696.404 663.138 732.779 624.378 728.391L619.88 729.439C592.118 731.532 564.25 731.853 536.446 730.4C525.016 729.742 493.851 726.576 486.305 718.107C490.523 713.882 503.314 715.664 511.754 714.011C588.675 698.943 687.886 621.109 731.329 559.921C728.113 545.525 722.561 532.67 716.459 519.292C706.404 497.24 698.81 475.568 691.737 452.432Z" fill="#403239"/>
<path d="M814.348 676.467C815.513 662.524 831.279 612.856 839.286 599.93C833.472 616.747 826.174 653.699 823.809 671.495L814.348 676.467Z" fill="#931C17"/>
<path d="M745.872 521.851C753.509 528.699 759.894 534.837 768.693 540.247L764.642 544.541C769.23 553.381 774.931 548.1 776.591 555.879C763.666 550.062 745.707 537.475 745.872 521.851Z" fill="#322429"/>
<path d="M596.664 688.028C607.354 697.488 622.799 713.667 624.378 728.392L619.88 729.44C619.017 720.443 602.443 697.938 596.664 688.028Z" fill="#0F0709"/>
<path d="M738.582 597.373C738.08 599.09 737.67 600.443 736.78 602.008C728.229 617.05 715.513 629.577 698.602 633.567C701.029 627.567 731.471 602.851 738.582 597.373Z" fill="#020101"/>
<path d="M1095.21 823.343C1103.58 822.904 1104.6 822.514 1110.03 829.676C1127.11 845.641 1141.27 861.793 1150.44 883.742C1159.75 899.238 1166.88 889.53 1173.58 913.234C1183.56 939.426 1222.83 1017.66 1222.63 1036.46L1220.61 1036.06C1219.41 1034.18 1214.69 1027.12 1214.12 1025.53C1207.63 1018.98 1202.56 1015.44 1195.11 1009.96C1193.31 1009.56 1191.5 1009.21 1189.68 1008.89C1164.11 1004.51 1164.66 1025.1 1163.06 1043.56C1152.24 1030.96 1131.94 1014.26 1114.44 1023.97C1104.1 1029.7 1102.84 1041.32 1100.46 1051.85C1083.86 1023.99 1072.18 1005.02 1049.64 1043.6C1049.64 1028.5 1049.65 1021.89 1047.09 1006.76C1003.08 998.84 975.296 995.24 937.556 968.519C927.173 959.317 916.575 950.358 905.773 941.649C909.177 948.833 913.439 954.623 917.926 961.161L886.441 970.751C893.524 951.983 898.598 928.206 903.384 908.384C930.956 914.705 952.334 915.941 980.225 914.937L982.596 919.446C992.505 910.524 1015.81 911.24 1031.44 908.805C1032.21 901.802 1032.73 894.299 1033.35 887.236C1033.51 869.728 1033.29 856.664 1031.98 839.235C1050.72 836.581 1079.19 832.577 1095.21 823.343Z" fill="#AB2422"/>
<path d="M1095.2 823.343C1103.58 822.904 1104.6 822.514 1110.03 829.676C1127.11 845.641 1141.27 861.793 1150.44 883.742C1159.75 899.238 1166.88 889.53 1173.57 913.234C1183.56 939.426 1222.83 1017.66 1222.63 1036.46L1220.61 1036.06C1219.4 1034.18 1214.69 1027.12 1214.12 1025.53C1207.63 1018.98 1202.56 1015.44 1195.11 1009.96C1178.03 987.75 1136.62 969.232 1111.81 957.618L1103 954.49C1105.77 948.338 1107.43 941.85 1109.34 935.361L1106.54 937.39L1109.01 934.34C1106.9 936.073 1100.29 948.418 1098.12 952.068C1086.75 950.604 1067.17 940.786 1059.54 931.872C1045.39 915.357 1045.27 905.969 1046.1 885.762L1033.35 887.236C1033.5 869.728 1033.28 856.664 1031.98 839.235C1050.72 836.581 1079.19 832.577 1095.2 823.343Z" fill="#E9463F"/>
<path d="M1031.98 839.234C1050.72 836.579 1079.19 832.576 1095.2 823.341C1112.74 876.526 1079.3 866.14 1046.1 885.761L1033.35 887.235C1033.5 869.726 1033.28 856.662 1031.98 839.234Z" fill="#931C17"/>
<path d="M1214.12 1025.53C1204.06 990.93 1175.67 954.042 1168.77 919.501C1168.26 916.962 1171.1 915.445 1173.58 913.234C1183.56 939.426 1222.83 1017.66 1222.63 1036.46L1220.61 1036.06C1219.4 1034.18 1214.69 1027.12 1214.12 1025.53Z" fill="#E45E4C"/>
<path d="M1110.03 829.675C1127.11 845.64 1141.27 861.792 1150.44 883.741C1142.19 881.168 1116.78 848.106 1109.5 839.513C1107.13 836.712 1108.99 833.254 1110.03 829.675Z" fill="#E45E4C"/>
<path d="M1111.81 957.617C1108.89 955.022 1108.6 950.565 1111.15 947.609C1113.7 944.654 1118.15 944.299 1121.14 946.81C1123.11 948.465 1124.04 951.055 1123.57 953.588C1123.1 956.119 1121.3 958.2 1118.86 959.034C1116.43 959.869 1113.73 959.326 1111.81 957.617Z" fill="#FB857F"/>
<path d="M1119.42 883.182C1123.73 883.225 1127.47 883.356 1131.3 885.566C1136.48 888.554 1140.27 892.697 1141.69 898.601C1143.29 905.23 1141.32 909.185 1137.72 914.67C1135.2 914.652 1132.89 914.634 1130.46 913.872C1125.33 912.264 1120.62 908.766 1118.36 903.791C1115.06 896.498 1116.86 890.206 1119.42 883.182Z" fill="#FB857F"/>
<path d="M1149.02 903.596C1150 904.653 1150.41 905.008 1151.19 906.091C1154.99 911.365 1154.56 916.388 1153.71 922.526L1151.97 922.216C1148.8 916.348 1149.2 910.103 1149.02 903.596Z" fill="#5A1612"/>
<path d="M903.384 908.383C930.956 914.704 952.334 915.94 980.225 914.936C974.352 924.328 973.184 926.14 970.137 936.694C962.242 937.57 941.569 955.367 935.605 961.334C934.958 965.989 934.752 963.591 937.556 968.518C927.173 959.316 916.575 950.357 905.773 941.648C909.177 948.832 913.439 954.621 917.926 961.16L886.441 970.75C893.524 951.981 898.598 928.205 903.384 908.383Z" fill="#931C17"/>
<path d="M1098.11 952.066C1100.29 948.416 1106.9 936.071 1109.01 934.338L1106.54 937.388L1109.34 935.359C1107.43 941.848 1105.77 948.336 1102.99 954.488C1087.2 975.49 1071.74 978.762 1047.45 984.406C1069.85 973.65 1080.38 969.53 1098.11 952.066Z" fill="#1E0708"/>
<path d="M980.221 914.936L982.592 919.445C979.869 925.332 976.557 932.079 974.094 937.978C976.091 943.417 985.302 963.015 985.077 965.564C975.983 959.363 973.204 947.169 970.133 936.694C973.18 926.139 974.348 924.328 980.221 914.936Z" fill="#3A1817"/>
<path d="M1101.07 976.499L1102.33 976.731L1103.11 978.624C1094.95 984.595 1083.42 987.424 1073.93 990.805L1072.16 990.272C1078.78 983.62 1092.31 980.055 1101.07 976.499Z" fill="#5A1612"/>
<path d="M680.824 196.567C698.023 193.602 713.599 190.15 730.628 186.27L734.377 190.743C733.115 194.521 733.407 194.465 730.294 196.857C733.358 198.233 736.304 199.118 738.352 201.664C746.838 208.411 827.051 214.195 845.465 217.245C832.767 227.979 784.125 259.967 768.914 267.92C781.101 283.691 790.964 295.9 804.719 310.163C788.39 324.962 759.455 349.79 745.523 365.293C750.309 371.065 754.903 377.108 759.092 383.329C772.951 403.911 790.999 422.175 805.374 442.235L786.452 460.933C775.351 449.428 767.605 439.513 757.361 428.337C771.955 461.297 788.347 476.43 819.72 495.066C828.798 500.459 840.09 506.388 848.117 513.126L850.724 515.191C843.418 520.865 830.555 519.358 821.977 525.476L824.359 527.978C836.015 528.125 852.935 523.004 868.284 522.314C862.077 516.114 854.592 509.035 849.257 502.245C856.53 490.436 888.393 497.173 898.115 503.429C908.237 509.944 910.27 529.94 912.376 541.064C904.811 538.315 892.45 533.403 885.02 531.575C849.68 566.48 827.136 583.642 776.591 555.882C774.93 548.103 769.229 553.383 764.641 544.544L768.692 540.25C778.753 545.066 789.657 547.871 800.793 548.509C808.131 548.921 830.379 547.952 835.981 542.93C831.485 536.157 812.946 532.09 806.413 526.406C801.04 521.732 806.474 520.063 799.662 512.401L799.965 512.658C797.031 520.373 801.993 531.436 805.912 538.272L807.031 540.197C763.794 530.642 741.046 509.074 719.507 470.795C704.555 444.614 689.982 421.633 676.51 394.45C675.966 391.929 670.473 377.416 669.293 374.12C693.606 360.657 703.076 348.969 711.204 322.22C712.569 315.341 714.993 308.135 712.638 301.98C707.912 297.071 701.261 297.24 694.045 296.228C677.953 292.747 668.91 292.826 652.82 292.894C665.983 273.117 676.734 246.29 675.964 221.939C675.716 214.086 672.955 205.272 674.862 198.11L680.824 196.567Z" fill="#483F41"/>
<path d="M747.364 459.513C734.077 439.756 717.3 411.88 711.281 388.693L711.807 386.783C720.084 398.973 725.408 415.465 732.882 427.825C768.759 487.148 787.535 496.243 848.111 513.124L850.718 515.189C843.412 520.863 830.549 519.356 821.971 525.474L824.353 527.976C836.009 528.123 852.929 523.002 868.278 522.312C862.071 516.112 854.586 509.033 849.251 502.243C856.524 490.434 888.387 497.171 898.109 503.427C908.231 509.942 910.263 529.938 912.37 541.062C904.805 538.313 892.444 533.401 885.013 531.573C849.673 566.478 827.13 583.64 776.584 555.88C774.924 548.101 769.223 553.381 764.635 544.542L768.686 540.248C778.747 545.064 789.651 547.869 800.787 548.507C808.125 548.919 830.373 547.95 835.974 542.928C831.479 536.155 812.94 532.088 806.406 526.404C801.033 521.73 806.468 520.061 799.656 512.399L799.958 512.656C797.025 520.371 801.987 531.434 805.906 538.27L807.024 540.195C763.788 530.64 741.04 509.072 719.5 470.793C728.82 467.11 738.108 463.35 747.364 459.513Z" fill="#292429"/>
<path d="M652.82 292.891C665.983 273.115 676.734 246.288 675.964 221.937C675.716 214.084 672.955 205.27 674.862 198.107L680.824 196.564L685.499 200.115C708.059 230.176 708.75 259.864 691.22 292.991L694.045 296.226C677.953 292.744 668.91 292.824 652.82 292.891Z" fill="#292429"/>
<path d="M711.2 322.219C731.639 328.752 752.274 321.49 770.958 313.23C736.006 335.225 710.724 376.707 676.506 394.448C675.962 391.927 670.469 377.414 669.289 374.118C693.602 360.655 703.072 348.967 711.2 322.219Z" fill="#292429"/>
<path d="M680.828 196.567C698.028 193.602 713.603 190.15 730.632 186.27L734.381 190.743C733.119 194.521 733.411 194.465 730.299 196.857C715.436 199.216 700.609 201.549 685.503 200.117L680.828 196.567Z" fill="#625153"/>
<path d="M717.211 255.201C718.989 255.781 720.657 256.449 722.363 257.216C730.127 260.712 735.431 264.242 738.614 272.505C736.044 272.526 733.877 272.523 731.452 271.549C724.043 268.575 720.042 262.316 717.211 255.201Z" fill="#5A1612"/>
<path d="M616.151 6.7373C601.912 27.5718 597.777 39.4919 600.679 65.1182L602.796 70.6396C604.499 79.469 607.577 85.9106 611.05 94.1652L613.232 97.4504C638.229 127.922 664.864 187.365 658.958 226.093C649.836 285.911 597.572 329.511 544.179 283.022C524.057 264.103 518.771 253.22 512.23 227.166C514.21 221.35 516.987 214.945 519.32 209.192C560.401 146.926 497.226 123.347 526.035 61.1329C536.453 38.6371 566.516 21.7703 589.712 14.4681C598.834 11.4863 606.866 9.1904 616.151 6.7373Z" fill="#F9F1DB"/>
<path d="M613.232 97.4482C638.229 127.92 664.864 187.362 658.958 226.091C649.836 285.909 597.572 329.509 544.179 283.02C524.057 264.101 518.771 253.218 512.23 227.164C514.21 221.347 516.987 214.943 519.32 209.19C523.178 208.329 528.156 207.382 531.854 206.316L531.941 204.635C547.425 206.412 583.358 222.258 598.219 229.287C609.62 214.727 614.681 188.34 614.92 170.079C621.044 172.369 625.215 174.364 631.764 174.884C625.862 170.11 618.582 168.055 611.396 165.439L612.725 161.477C610.823 147.407 595.389 113.467 586.358 102.955C594.157 100.646 604.986 98.9661 613.232 97.4482Z" fill="#C4B9BA"/>
<path d="M531.854 206.316C552.715 213.649 575.065 222.447 594.797 232.361C582.805 251.846 566.026 273.978 544.179 283.021C524.057 264.102 518.771 253.219 512.23 227.165C514.21 221.348 516.987 214.944 519.32 209.19C523.178 208.329 528.156 207.383 531.854 206.316Z" fill="#F9EADC"/>
<path d="M531.852 206.316L531.939 204.635C547.423 206.412 583.356 222.257 598.217 229.287C610.464 235.953 621.339 241.472 632.518 249.903C624.486 248.502 603.349 236.837 594.795 232.361C575.063 222.446 552.713 213.648 531.852 206.316Z" fill="#413D3E"/>
<path d="M616.152 6.7373C601.912 27.5718 597.777 39.4919 600.68 65.1181L599.278 67.259C589.765 63.5566 584.361 61.7481 574.496 59.2321C578.22 38.7764 579.164 34.5008 591.62 16.8169L589.712 14.4681C598.834 11.4863 606.867 9.1904 616.152 6.7373Z" fill="#C4B9BA"/>
<path d="M575.895 62.9072C584.659 65.4909 593.999 68.4283 602.798 70.6397C604.5 79.4691 607.578 85.9107 611.051 94.1654C600.168 95.6275 595.52 96.5564 585.02 99.6353C579.54 89.5496 577.33 74.1421 575.895 62.9072Z" fill="#C4B9BA"/>
<path d="M614.923 170.08C589.608 160.519 564.904 168.042 542.746 166.811C555.205 156.28 596.77 162.06 611.399 165.44C618.585 168.057 625.865 170.111 631.767 174.885C625.218 174.365 621.047 172.37 614.923 170.08Z" fill="#413D3E"/>
<path d="M585.017 99.635C595.517 96.5561 600.164 95.6272 611.048 94.165L613.231 97.4502C604.985 98.968 594.155 100.648 586.357 102.957C567.952 109.754 557.757 117.853 540.891 126.754C546.992 116.787 573.925 103.989 585.017 99.635Z" fill="#413D3E"/>
<path d="M575.897 62.9044C567.529 59.8435 551.097 61.6584 538.422 58.5385C553.441 56.7678 559.72 56.3716 574.5 59.2294C584.365 61.7454 589.769 63.5539 599.282 67.2563L600.683 65.1154L602.801 70.6368C594.001 68.4254 584.662 65.488 575.897 62.9044Z" fill="#63615B"/>
<path d="M503.011 935.466C507.073 934.307 511.993 932.904 517.772 931.254C537.179 935.574 531.388 938.026 549.936 929.972C563.403 946.309 575.179 958.745 591.432 972.627C603.543 967.347 629.29 954.06 640.554 956.421C645.532 969.665 586.171 1015.92 575.275 1026.17C581.119 1035.15 581.065 1039.69 585.006 1048.49C607.464 1098.68 536.565 1098.14 501.691 1100.57C492.081 1077.02 482.967 1056.4 458.611 1045.68C457.021 1046.89 453.41 1049.46 452.153 1050.71C443.202 1058.97 440.911 1060.99 434.593 1071.22L426.999 1072.46C422.315 1022.22 391.685 1035.58 364.6 1059.38C360.632 1045.3 357.953 1040.95 347.684 1030.63C356.269 1026.14 368.875 1019.92 374.364 1012.25C374.652 1010.82 376.507 1002.59 377.663 1002.08C397.615 993.271 415.26 986.422 432.325 972.531C436.078 965.01 433.694 966.116 441.433 962.696C463.675 952.869 489.957 957.672 503.011 935.466Z" fill="#AB2422"/>
<path d="M432.325 972.53C436.118 976.603 443.278 985.375 447.933 986.759C451.193 989.772 457.472 994.526 458.587 998.053C452.34 997.921 439.379 996.729 434.803 999.629L436.025 1001.53C447.982 1002.88 459.327 1004.09 471.206 1006.2C469.188 1022.49 469.507 1042.62 450.536 1046.98L458.611 1045.68C457.021 1046.89 453.41 1049.46 452.153 1050.71C443.202 1058.97 440.911 1060.98 434.593 1071.22L426.999 1072.46C422.315 1022.22 391.685 1035.58 364.6 1059.38C360.632 1045.3 357.953 1040.95 347.684 1030.63C356.269 1026.14 368.875 1019.92 374.364 1012.25C374.652 1010.82 376.507 1002.59 377.663 1002.08C397.615 993.27 415.26 986.421 432.325 972.53Z" fill="#C32E29"/>
<path d="M450.541 1046.98L458.615 1045.68C457.025 1046.89 453.414 1049.46 452.158 1050.71C443.206 1058.97 440.915 1060.98 434.598 1071.22L427.004 1072.46C434.92 1059.67 437.821 1054.76 450.541 1046.98Z" fill="#0F0709"/>
<path d="M399.684 1002.04C418.573 997.569 439.378 993.837 458.58 998.053C452.334 997.921 439.372 996.73 434.797 999.629L436.019 1001.53C428.615 1002.23 407.941 1001.94 399.684 1002.04Z" fill="#5A1612"/>
<path d="M447.927 986.76C472.586 997.815 496.832 1005.27 520.243 1017.86C505.709 1014.09 485.572 1008.3 471.199 1006.2C459.32 1004.09 447.976 1002.88 436.019 1001.53L434.797 999.63C439.372 996.731 452.334 997.922 458.58 998.054C457.466 994.528 451.186 989.773 447.927 986.76Z" fill="#0F0709"/>
<path d="M509.825 970.037C514.208 969.455 520.435 967.944 524.671 969.415C527.349 970.345 527.042 971.128 528.226 973.511L525.831 980.305C523.484 980.503 520.841 980.814 518.508 980.439C513.704 979.663 511.614 978.084 508.719 974.43L509.825 970.037Z" fill="#D14229"/>
<path d="M555.493 1057.61C556.941 1062.86 555.562 1066.55 554.077 1071.61L552.096 1071.18C550.83 1066.57 553.781 1062.03 555.493 1057.61Z" fill="#3A1817"/>
<path d="M920.825 535.409C932.949 552.332 939.029 560.107 941.309 581.704C942.031 596.052 942.025 596.895 939.839 609.996C937.377 624.728 918.022 650.417 918.298 658.62C931.208 647.986 939.973 626.403 946.026 611.111L949.153 615.111C947.21 619.876 945.062 625.515 942.812 630.082C888.503 740.362 722.155 773.977 614.09 781.335C580.525 779.699 558.868 781.717 525.187 775.602L528.825 772.381C542.21 775.288 555.915 776.452 569.599 775.85C575.362 774.671 582.669 776.155 587.604 772.755C578.883 768.769 564.054 770.748 551.521 767.295C529.771 761.306 523.57 757.304 511.805 738.639C621.477 748.26 735.306 734.632 832.561 679.264C882.391 650.894 908.306 616.436 918.912 560.591L920.825 535.409Z" fill="#322429"/>
<path d="M946.023 611.11L949.15 615.11C947.207 619.875 945.059 625.514 942.809 630.082C888.5 740.361 722.152 773.977 614.087 781.335C580.522 779.699 558.865 781.717 525.184 775.601L528.822 772.381C542.207 775.287 555.912 776.452 569.596 775.85C573.343 777.514 584.969 777.623 589.965 777.592C694.376 776.932 806.928 748.686 891.825 686.123C900.439 679.777 913.511 667.106 918.295 658.62C931.205 647.986 939.97 626.403 946.023 611.11Z" fill="#C4B9BA"/>
<path d="M920.827 535.409C932.95 552.332 939.03 560.107 941.311 581.704C934.089 574.248 927.175 569.452 918.914 560.591L920.827 535.409Z" fill="#4A3A42"/>
<path d="M369.999 677.789C392.907 674.896 439.55 672.721 455.917 692.305C463.382 699.721 465.715 704.439 468.4 714.99C473.789 733.445 475.341 742.141 477.919 761.265L476.514 763.37C457.19 754.509 448.086 748.112 426.093 749.92C380.506 753.668 341.876 787.455 320.273 826.202C285.845 823.511 282.051 842.365 263.184 807.116C264.594 792.226 269.69 757.894 278.03 745.586C291.798 708.642 333.733 686.18 369.999 677.789Z" fill="#43383D"/>
<path d="M278.035 745.586C291.803 708.642 333.738 686.18 370.004 677.788L374.275 680.24C371.837 687.284 359.202 687.376 352.843 690.695C341.627 696.548 330.914 703.122 320.532 710.341C306.356 718.125 287.855 743.693 278.035 745.586Z" fill="#625153"/>
<path d="M455.92 692.305C463.385 699.721 465.718 704.439 468.403 714.99C460.276 714.636 448.577 703.014 445.23 696.238L447.393 695.917L455.496 703.907L459.56 701.739C456.823 698.112 456.841 696.676 455.92 692.305Z" fill="#625153"/>
<path d="M394.254 690.657C403.133 690.893 412.806 691.743 420.851 695.819C426.839 698.853 431.911 703.846 433.608 710.497C434.824 715.262 433.377 720.225 430.676 724.229C424.159 733.89 412.124 735.3 401.639 737.534C391.109 737.536 378.373 737.206 368.993 732.009C363.754 729.106 358.612 724.524 357.06 718.523C355.823 713.741 357.082 709.127 359.958 705.203C367.791 694.521 382.087 692.34 394.254 690.657Z" fill="#020101"/>
<path d="M363.195 723.039C352.822 694.201 402.536 690.306 423.887 703.449C426.957 709.641 427.942 710.877 426.517 717.505C417.074 735.167 382.155 734.126 366.473 725.042C365.367 724.397 364.274 723.728 363.195 723.039Z" fill="#F9EADC"/>
<path d="M423.887 703.448C426.958 709.64 427.942 710.877 426.517 717.504C417.074 735.167 382.155 734.126 366.473 725.042C365.367 724.396 364.274 723.727 363.195 723.038C387.12 721.171 404.603 718.113 423.887 703.448Z" fill="#A9A3B0"/>
<path d="M312.205 739.361C317.036 739.39 322.201 739.432 326.209 742.531C330.799 746.077 333.144 752.737 333.781 758.309C335.137 770.159 330.322 783.368 323.171 792.684C315.715 802.396 307.144 803.981 295.765 805.458C291.853 805.252 286.547 805.063 282.954 803.382C279.119 801.589 276.428 797.732 275.303 793.743C272.817 784.933 276.399 774.501 280.603 766.714C287.974 753.064 297.081 743.72 312.205 739.361Z" fill="#020101"/>
<path d="M281.486 782.674C285.779 764.083 301.655 739.155 323.945 747.991C325.197 763.842 325.478 774.901 314.712 787.542C306.97 796.636 296.969 802.958 285.507 797.223C281.731 791.773 280.839 790.585 281.486 782.674Z" fill="#A9A3B0"/>
<path d="M281.48 782.674C285.773 764.083 301.649 739.155 323.939 747.991C316.693 760.935 300.306 788.42 281.48 782.674Z" fill="#F9EADC"/>
<path d="M254.569 514.24C256.007 508.887 256.266 505.149 260.446 501.812C268.286 501.08 265.428 500.438 271.917 503.466C279.23 514.49 275.146 537.29 276.027 553.338L294.938 557.068C314.53 558.504 321.288 562.669 336.042 575.755L379.168 601.35C372.745 606.406 351.008 620.427 348.03 623.236L344.551 627.644L345.735 631.64C353.577 634.135 361.464 636.523 369.138 639.488C370.53 647.37 374.562 659.32 373.257 665.001C369.702 667.286 368.719 667.349 364.755 668.359C312.71 682.388 285.049 702.745 263.428 752.454L261.148 746.808C240.729 695.414 238.847 670.804 261.037 619.606C248.649 635.551 246.368 640.686 240.053 659.997C238.932 648.873 237.022 630.552 238.724 619.912C239.213 581.822 243.21 550.443 254.569 514.24Z" fill="#E9463F"/>
<path d="M294.941 557.067C314.534 558.503 321.292 562.668 336.046 575.754L379.172 601.35C372.749 606.405 351.012 620.426 348.034 623.235L344.555 627.643L337.179 633.509C337.759 595.223 323.574 579.346 294.941 557.067Z" fill="#AB2422"/>
<path d="M336.039 575.755L379.165 601.35C372.742 606.405 351.005 620.427 348.027 623.236C347.331 604.543 342.714 592.835 336.039 575.755Z" fill="#931C17"/>
<path d="M254.572 514.241C260.558 524.179 249.886 581.49 246.726 594.07C245.974 597.094 245.169 600.106 244.31 603.101L244.223 601.821C240.198 613.725 243.471 613.141 241.808 622.06C239.047 620.987 239.774 621.908 238.727 619.913C239.216 581.823 243.213 550.444 254.572 514.241Z" fill="#FB857F"/>
<path d="M345.737 631.639C353.579 634.134 361.466 636.522 369.14 639.486C370.532 647.368 374.564 659.319 373.258 665C369.704 667.285 368.721 667.348 364.756 668.358C356.847 656.387 350.566 644.717 336.992 639.432L345.737 631.639Z" fill="#AB2422"/>
<path d="M337.178 633.507L344.554 627.642L345.738 631.638L336.993 639.431C331.608 644.111 327.978 647.89 321.418 650.736C324.284 644.92 332.197 638.242 337.178 633.507Z" fill="#3A1817"/>
<path d="M273.667 642.586C275.378 647.532 270.119 663.231 269.13 669.405C268.04 667.53 267.224 665.976 266.891 663.802C265.627 655.559 269.264 649.117 273.667 642.586Z" fill="#5A1612"/>
<path d="M955.868 596.592C970.645 616.465 993.626 637.744 1005.19 656.747C942.635 598.006 941.576 698.855 981.388 705.19C1012.42 710.128 1004.77 670.924 1010.23 665.953C1024.44 676.116 1003.02 720.895 995.145 732.331C991.469 737.846 988.713 744.249 983.579 746.39C979.829 742.918 979.668 739.126 978.496 733.962C974.035 734.735 967.75 735.623 963.558 736.865C961.161 731.616 957.102 721.141 953.154 717.901L948.918 717.975C951.455 708.452 953.972 708.179 951.843 698.917C942.154 686.141 906.327 715.185 895.912 722.164L896.598 724.327C901.356 739.059 915.436 759.358 912.901 768.649C907.673 772.84 910.126 771.837 903.667 772.655C891.478 762.97 896.98 729.87 876.066 731.888C861.76 733.27 862.978 743.603 857.037 749.759C841.502 751.91 831.276 743.424 817.945 759.726C815.648 762.535 809.222 775.668 807.293 779.465C776.621 764.303 770.126 760.676 747.479 790.642C744.53 794.545 717.59 779.291 711.646 783.102C695.639 786.553 692.567 806.991 680.552 799.35C647.746 778.488 628.944 793.244 620.5 827.111L618.174 828.382C600.54 828.487 600.679 798.874 576.526 791.329C574.391 788.729 574.324 787.391 573.383 784.145C576.793 784.885 580.25 785.4 583.726 785.69C695.311 794.565 945.515 736.051 955.868 596.592Z" fill="#4A3A42"/>
<path d="M978.5 733.964C980.202 732.274 982.836 730.582 984.852 729.144C991.452 728.736 988.889 728.326 995.148 732.332C991.472 737.847 988.717 744.25 983.583 746.391C979.832 742.919 979.671 739.128 978.5 733.964Z" fill="#625153"/>
<path d="M1102.3 412.319L1103.05 408.322C1119.32 411.709 1147.79 462.253 1153.82 477.846C1158.92 488.078 1162.58 502.894 1157.34 513.65L1154.29 514.569C1144.72 509.213 1143.91 503.577 1135.61 499.277L1134.4 500.626C1142.68 513.739 1155.94 534.979 1149.06 550.714C1134.24 564.719 1106.66 556.543 1091.83 545.988L1091.13 543.512C1094.73 541.831 1097.35 541.287 1099.46 538.418C1056.96 539.321 1089.12 558.309 1080.36 578.737C1067.98 589.388 1032.87 581.765 1030.25 565.981L1032.77 565.37L1039.05 558.862L1027.95 554.628C1024.89 552.87 1014.58 544.355 1011.24 541.697C1064.15 529.673 1080.66 502.129 1098.95 455.17C1102.53 462.728 1101.83 467.97 1101.72 476.341C1105.11 468.135 1106.54 463.781 1108.87 455.203L1109.97 442.374L1109.35 426.38C1107.12 421.218 1104.95 417.216 1102.3 412.319Z" fill="#C32E29"/>
<path d="M1102.3 412.319L1103.04 408.322C1119.31 411.709 1147.78 462.253 1153.81 477.846C1158.91 488.078 1162.58 502.894 1157.33 513.65L1154.28 514.569C1144.71 509.213 1143.91 503.577 1135.6 499.276L1134.4 500.626C1142.68 513.739 1155.94 534.979 1149.06 550.714C1145.73 546.884 1142.49 538.681 1139.59 533.584C1124.17 506.455 1107.53 487.788 1108.86 455.203L1109.96 442.374L1109.34 426.38C1107.12 421.218 1104.95 417.216 1102.3 412.319Z" fill="#D73A35"/>
<path d="M1102.3 412.319L1103.04 408.322C1119.31 411.709 1147.78 462.253 1153.81 477.846L1145.62 475.173C1143.92 469.748 1114.12 432.563 1109.34 426.38C1107.12 421.218 1104.95 417.216 1102.3 412.319Z" fill="#FB857F"/>
<path d="M1145.62 475.172L1153.81 477.845C1158.91 488.076 1162.58 502.892 1157.33 513.648L1154.28 514.567C1144.71 509.211 1143.91 503.576 1135.6 499.275L1142.12 495.752C1145.71 490.553 1144.18 483.681 1145.35 476.699L1145.62 475.172Z" fill="#C32E29"/>
<path d="M1011.24 541.696C1064.15 529.673 1080.66 502.128 1098.95 455.17C1102.53 462.727 1101.83 467.969 1101.72 476.341C1091.75 511.753 1072.13 529.544 1041.42 548.449C1037.36 550.955 1031.19 552.635 1027.95 554.628C1024.89 552.869 1014.58 544.354 1011.24 541.696Z" fill="#AB2422"/>
<path d="M1039.05 558.861L1042.62 560.763C1039.33 564.384 1038.32 563.681 1032.76 565.369L1039.05 558.861Z" fill="#0F0709"/>
<path d="M332.73 828.66C354.226 790.086 400.401 757.301 446.126 765.778C470.561 774.159 488.656 789.77 505.589 809.121L507.991 811.489C500.769 816.412 464.526 820.687 456.845 814.483L457.094 806.465L452.455 805.591C447.698 824.963 443.563 844.236 424.759 855.062C410.255 863.414 398.412 858.551 390.5 845.494C386.938 829.569 393.221 821.536 401.603 808.92L399.777 805.277L394.707 811.397L392.256 811.266L391.321 809.46L387.576 806.256C387.402 816.116 387.068 817.485 383.711 826.78L381.871 831.324C375.599 835.717 345.166 829.588 332.73 828.66Z" fill="#E9463F"/>
<path d="M455.102 784.362L458.216 787.185L458.661 789.865C458.452 794.683 458.487 802.115 457.092 806.467L452.454 805.593C447.697 824.966 443.562 844.238 424.758 855.065C410.254 863.416 398.411 858.553 390.499 845.497C386.937 829.571 393.22 821.539 401.602 808.922L409.953 800.913C418.678 802.834 427.45 804.531 436.26 806.003C440.33 798.681 447.362 787.8 455.102 784.362Z" fill="#C32E29"/>
<path d="M409.953 800.913C418.678 802.833 427.45 804.53 436.26 806.003C427.691 832.517 417.233 838.677 390.499 845.496C386.937 829.571 393.22 821.538 401.602 808.922L409.953 800.913Z" fill="#EE5B49"/>
<path d="M452.449 805.593C454.026 798.785 454.954 793.468 458.212 787.186L458.656 789.865C458.448 794.683 458.482 802.116 457.088 806.467L452.449 805.593Z" fill="#3A1817"/>
<path d="M446.117 765.778C470.551 774.159 488.646 789.771 505.579 809.121L507.981 811.489C500.759 816.412 464.517 820.688 456.836 814.483L457.084 806.465C458.478 802.113 458.444 794.681 458.652 789.863L458.208 787.183L455.094 784.36C456.756 778.396 456.934 780.948 454.322 775.187C445.415 768.195 434.735 769.615 423.562 769.805C429.797 767.744 439.312 766.741 446.117 765.778Z" fill="#AB2422"/>
<path d="M446.117 765.778C470.551 774.159 488.646 789.771 505.579 809.121C496.285 809.078 475.312 794.605 458.652 789.863L458.208 787.183L455.094 784.36C456.756 778.396 456.934 780.948 454.322 775.187C445.415 768.195 434.735 769.615 423.562 769.805C429.797 767.744 439.312 766.741 446.117 765.778Z" fill="#D73A35"/>
<path d="M332.73 828.66C354.226 790.086 400.401 757.301 446.126 765.778C439.321 766.741 429.806 767.744 423.572 769.805C400.568 773.419 358.506 794.55 353.008 818.952C356.414 832.02 372.334 827.612 383.711 826.78L381.871 831.324C375.599 835.717 345.166 829.589 332.73 828.66Z" fill="#C32E29"/>
<path d="M399.77 805.279C403.982 801.478 404.708 800.867 409.843 798.503L409.946 800.913L401.595 808.922L399.77 805.279Z" fill="#5A1612"/>
<path d="M387.574 806.256L389.184 801.265L390.902 802.403L391.319 809.46L387.574 806.256Z" fill="#5A1612"/>
<path d="M255.797 869.063C255.768 856.938 291.827 832.458 304.812 832.871C320.185 837.932 373.159 839.069 379.874 845.72C381.121 855.794 394.379 879.547 399.522 889.801C411.751 914.172 418.71 937.098 426.893 963.178C410.923 975.411 399.223 983.616 379.631 989.79C365.817 986.641 346.83 981.799 333.294 980.285C344.804 974.218 357.905 966.519 369.854 962.121C372.787 961.042 379.19 967.047 386.225 964.275C400.541 935.39 348.951 849.767 302.129 861.393L302.943 861.741L300.659 862.166C283.367 865.469 265.938 877.835 259.46 877.077C256.727 873.322 256.906 873.33 255.797 869.063Z" fill="#342F34"/>
<path d="M304.819 832.871C320.191 837.932 373.165 839.069 379.88 845.719C367.531 855.467 345.155 851.078 329.983 849.29C309.894 846.923 308.999 846.171 289.309 848.253C298.539 844.885 304.623 843.382 304.819 832.871Z" fill="#483F41"/>
<path d="M255.797 869.063C255.768 856.938 291.827 832.458 304.812 832.871C304.617 843.383 298.533 844.886 289.302 848.253C279.252 855.096 266.605 863.834 255.797 869.063Z" fill="#625153"/>
<path d="M1009.14 325.734C1023.5 333.546 1043.38 340.325 1059.07 346.175C1053.96 347.27 1045.04 348.525 1042.86 353.446C1031.35 379.443 1049.16 424.475 1082.14 418.195L1091.75 411.632C1103.78 426.873 1075.53 478.597 1064.74 492.236L1058.45 486.983C1059.32 470.242 1060.74 464.171 1047.25 452.795C1037.31 451.629 1031.4 455.58 1025.66 452.853C1021.38 441.637 1029.28 403.443 1028.51 382.909C1024.75 359.632 1021.34 346.775 1009.14 325.734Z" fill="#342F34"/>
<path d="M1028.51 382.907C1041.33 407.777 1047.96 423.063 1047.25 452.794C1037.31 451.628 1031.4 455.579 1025.66 452.852C1021.38 441.635 1029.28 403.442 1028.51 382.907Z" fill="#322429"/>
<path d="M503.963 770.211L503.152 768.316C510.701 768.311 521.164 770.768 528.817 772.382L525.179 775.602C558.861 781.718 580.518 779.7 614.083 781.335C608.034 784.704 583.81 782.71 573.381 784.146C574.322 787.391 574.389 788.73 576.524 791.33C600.677 798.874 600.538 828.488 618.172 828.383L620.498 827.112C620.939 842.832 621.927 850.168 628.42 864.514C636.304 873.185 638.111 874.587 647.916 881.071C631.444 880.735 614.676 880.826 598.377 878.636C586.788 878.795 569.949 875.309 558.114 873.289C585.405 853.459 592.315 819.833 563.189 796.499C548.448 784.686 531.323 788.396 514.045 791.332L503.963 770.211Z" fill="#292429"/>
<path d="M576.523 791.329C600.677 798.874 600.537 828.487 618.172 828.382L620.498 827.111C620.938 842.832 621.926 850.168 628.419 864.514C636.303 873.185 638.11 874.586 647.916 881.07C631.443 880.735 614.675 880.826 598.376 878.635L603.836 874.581C615.583 849.646 608.798 827.648 591.292 807.586C585.83 801.327 581.041 798.709 576.523 791.329Z" fill="#342F34"/>
<path d="M603.839 874.581C614.416 872.305 620.825 872.164 628.422 864.514C636.306 873.184 638.113 874.586 647.918 881.07C631.446 880.735 614.678 880.825 598.379 878.635L603.839 874.581Z" fill="#51455A"/>
<path d="M503.963 770.211L503.152 768.316C510.701 768.311 521.164 770.768 528.817 772.382L525.179 775.602L503.963 770.211Z" fill="#483F41"/>
<path d="M812.527 785.36C819.347 759.963 841.965 739.035 862.873 765.838C868.469 767.439 865.805 767.495 871.143 766.059L875.073 774.449C876.841 779.89 881.442 792.086 880.929 797.126C880.338 799.563 879.31 803.242 878.969 805.601C861.206 836.435 832.618 837.276 814.335 805.012L812.93 803.496L813.862 801.382C812.935 796.113 812.817 790.717 812.527 785.36Z" fill="#E26E39"/>
<path d="M812.527 785.36C819.347 759.963 841.965 739.035 862.873 765.838L854.953 774.008L852.776 772.842L846.236 778.704C842.81 780.102 836.742 782.349 833.668 783.917L830.597 782.622L830.218 788.82C823.861 787.099 818.957 786.367 812.527 785.36Z" fill="#D56130"/>
<path d="M830.594 782.621C833.721 776.349 834.185 774.742 839.906 770.871C847.636 769.807 844.532 769.704 852.773 772.84L846.233 778.702C842.806 780.1 836.739 782.347 833.665 783.915L830.594 782.621Z" fill="#020101"/>
<path d="M846.236 778.704C848.515 780.554 852.779 783.821 854.749 785.701C847.895 787.58 847.141 787.948 842.301 793.134C853.961 804.43 850.574 791.886 858.056 801.235C854.818 815.369 839.114 813.112 832.932 800.441L830.219 788.82L830.598 782.622L833.668 783.917C836.743 782.349 842.81 780.102 846.236 778.704Z" fill="#1E0708"/>
<path d="M862.868 765.838C868.464 767.439 865.799 767.495 871.138 766.059L875.068 774.449L872.053 778.762L854.743 785.702C852.773 783.821 848.509 780.554 846.23 778.704L852.771 772.842L854.948 774.008L862.868 765.838Z" fill="#0F0709"/>
<path d="M812.527 785.36C818.957 786.367 823.861 787.099 830.218 788.82L832.932 800.441C825.472 802.501 821.435 801.851 813.862 801.382C812.935 796.113 812.817 790.717 812.527 785.36Z" fill="#F47852"/>
<path d="M875.065 774.448C876.833 779.89 881.434 792.085 880.921 797.126C880.33 799.563 879.302 803.242 878.961 805.601C877.009 793.779 876.148 789.938 872.051 778.762L875.065 774.448Z" fill="#1E0708"/>
<path d="M752.154 832.02C748.873 890.039 675.685 858.053 692.228 810.608C704.395 775.715 737.46 787.136 749.705 815.589C750.184 819.888 750.824 828.278 752.154 832.02Z" fill="#E47C3C"/>
<path d="M715.322 803.52C718.886 804.829 722.514 806.199 725.247 808.946C730.026 813.75 732.812 821.595 732.712 828.301C732.565 838.039 729.545 842.837 723.095 849.488C719.774 848.777 716.789 847.526 714.392 845.038C709.773 840.242 707.351 832.741 707.127 826.177C706.793 816.404 708.662 810.754 715.322 803.52Z" fill="#020101"/>
<path d="M716.784 810.191C721.209 811.965 723.678 813.47 725.563 818.032C728.895 826.088 727.183 835.468 724.169 843.312C722.244 843.254 721.406 842.604 719.751 841.692C715.712 832.064 716.171 820.423 716.784 810.191Z" fill="#4A3A42"/>
<path d="M751.662 805.484C754.344 783.067 772.407 767.408 794.76 778.857C788.508 784.181 790.594 781.8 787.328 790.801C793.254 800.768 794.026 805.147 796.959 816.528C803.967 815.943 807.553 815.5 814.706 816.289C809.326 847.219 785.087 864.952 759.449 840.056L754.587 832.156L752.16 832.019C750.829 828.276 750.19 819.886 749.711 815.587L752.376 808.093L751.662 805.484Z" fill="#0F0709"/>
<path d="M796.955 816.528C803.963 815.943 807.549 815.5 814.702 816.289C809.322 847.219 785.083 864.952 759.445 840.056C761.423 839.962 763.399 839.813 765.368 839.61C771.482 838.936 775.581 838.357 779.312 833.723C784.38 834.756 784.097 834.717 789.012 832.974C794.499 826.871 794.823 824.198 796.955 816.528Z" fill="#E47C3C"/>
<path d="M751.662 805.485C757.169 804.035 760.805 802.55 766.407 803.398C768.368 806.281 768.348 806.115 769.247 809.465C771.334 816.823 773.389 827.373 779.442 832.062L779.315 833.724C775.585 838.359 771.486 838.937 765.372 839.612C763.403 839.815 761.427 839.964 759.449 840.058L754.587 832.158L752.16 832.02C750.829 828.278 750.19 819.888 749.711 815.589L752.376 808.095L751.662 805.485Z" fill="#F47852"/>
<path d="M749.711 815.587L752.376 808.093C752.644 817.489 752.613 823.008 754.587 832.156L752.16 832.018C750.829 828.276 750.19 819.886 749.711 815.587Z" fill="#931C17"/>
<path d="M751.656 805.484C754.339 783.067 772.401 767.408 794.755 778.857C788.503 784.181 790.589 781.8 787.322 790.801C778.957 789.154 782.136 788.757 774.842 791.499C769.983 797.072 769.566 802.095 769.242 809.464C768.343 806.113 768.363 806.28 766.401 803.397C760.8 802.548 757.163 804.033 751.656 805.484Z" fill="#D56130"/>
<path d="M779.435 832.061C779.005 824.092 776.56 809.68 778.36 803.57L777.031 800.116C781.21 796.288 778.902 797.028 783.818 796.917C793.134 807.187 786.151 827.178 789.008 832.974C784.094 834.717 784.377 834.757 779.308 833.723L779.435 832.061Z" fill="#4A3A42"/>
<path d="M509.384 824.985L532.271 824.307C529.124 833.026 524.943 841.576 521.256 850.092C518.229 849.508 514.939 848.718 511.846 848.576C505.259 848.277 502.101 848.867 497.346 853.55C496.436 854.444 495.555 855.371 494.599 856.216C488.496 861.61 481.468 858.116 474.262 857.978C460.795 857.719 460.962 868.398 453.383 875.479C447.832 875.508 442.856 874.275 437.408 873.825C430.877 873.287 426.178 876.83 421.371 880.736C419.627 884.36 418.581 887.535 414.778 889.421C408.567 884.812 405.226 873.572 401.793 866.393C414.841 867.287 428.125 867.539 439.656 860.322C451.345 853.008 454.947 841.639 457.706 829.041C475.09 828.528 492.112 827.001 509.384 824.985Z" fill="#292429"/>
<path d="M348.844 1093.8C358.163 1073.76 388.683 1032.88 414.79 1046.98C422.71 1069.43 419.694 1077.39 412.283 1099.87C402.56 1099.45 353.62 1098.19 348.878 1094.31L348.844 1093.8Z" fill="#C4B9BA"/>
<path d="M348.844 1093.8C358.163 1073.76 388.683 1032.88 414.79 1046.98C397.518 1060.03 381.191 1074.36 364.735 1088.42C358.725 1093.55 356.796 1094.36 348.844 1093.8Z" fill="#F9EADC"/>
<path d="M418.93 901.167C425.985 886.313 428.505 882.226 445.246 880.273C459.175 889.434 461.104 895.78 464.818 911.89C464.028 926.249 462.115 958.038 439.896 953.125C430.452 945.576 423.587 915.18 418.93 901.167Z" fill="#D73A35"/>
<path d="M445.247 880.273C459.176 889.434 461.105 895.78 464.819 911.89C438.871 918.121 425.656 900.021 445.247 880.273Z" fill="#FB857F"/>
<path d="M452.157 1050.71L461.54 1053.11C478.635 1066.04 486.774 1082.03 493.915 1101.71C472.392 1101.98 450.869 1102.41 429.353 1103.01L426.735 1102.76L425.207 1100.72C426.307 1091.7 431.294 1080 434.597 1071.22C440.915 1060.99 443.206 1058.97 452.157 1050.71Z" fill="#C4B9BA"/>
<path d="M452.157 1050.71L461.54 1053.11C457.364 1059.65 433.29 1099.88 429.353 1103.01L426.735 1102.76L425.207 1100.72C426.307 1091.7 431.294 1080 434.597 1071.22C440.915 1060.99 443.206 1058.97 452.157 1050.71Z" fill="#E9CFC6"/>
<path d="M289.859 1086.43C286.618 1086.12 287.682 1086.25 284.605 1084.75C288.362 1071.16 331.901 1037.13 345.442 1037.57C359.359 1049.88 360.584 1060.27 350.121 1074.85L348.196 1077.35L337.836 1092.66C323.444 1090.74 303.926 1087.54 289.859 1086.43Z" fill="#CBC4C5"/>
<path d="M289.859 1086.43C286.618 1086.12 287.682 1086.25 284.605 1084.75C288.362 1071.16 331.901 1037.13 345.442 1037.57C342.873 1045.04 341.035 1046.63 335.954 1052.33C319.766 1063.33 305.367 1074.47 289.859 1086.43Z" fill="#F9EADC"/>
<path d="M345.445 1037.57C359.362 1049.88 360.587 1060.27 350.124 1074.85L341.631 1061.31L335.957 1052.33C341.038 1046.63 342.876 1045.04 345.445 1037.57Z" fill="#E9CFC6"/>
<path d="M348.2 1077.35C341.863 1069.64 342.233 1070.01 341.633 1061.31L350.126 1074.85L348.2 1077.35Z" fill="#8F8B86"/>
<path d="M646.541 799.564C658.691 794.745 666.99 797.182 677.79 804.016C680.538 811.131 680.812 808.942 679.675 815.582C669.906 821.858 647.484 804.864 644.199 829.769C641.634 849.217 651.579 858.082 670.466 852.283L670.847 846.92C677.195 849.204 683.054 847.877 689.93 847.174C687.8 859.647 683.926 863.94 672.462 869.541C624.669 880.566 610.364 815.317 646.541 799.564Z" fill="#D56130"/>
<path d="M689.932 847.175C687.802 859.648 683.928 863.941 672.464 869.542L669.562 867.626C666.924 862.248 669.003 859.49 670.468 852.284L670.849 846.921C677.197 849.206 683.056 847.878 689.932 847.175Z" fill="#D56130"/>
<path d="M471.365 908.342C464.643 889.653 455.349 855.868 490.703 870.545C496.827 881.392 497.768 884.125 501.096 896.228C501.526 918.336 499.35 938.595 473.553 943.812L470.433 942.583C471.048 928.349 473.384 922.809 471.365 908.342Z" fill="#FB857F"/>
<path d="M490.915 905.703L501.104 896.229C501.534 918.338 499.359 938.597 473.561 943.814L470.441 942.584C471.056 928.351 473.393 922.811 471.373 908.343L490.915 905.703Z" fill="#C32E29"/>
<path d="M471.365 908.342C464.643 889.653 455.349 855.868 490.703 870.545C470.522 879.601 471.347 901.038 490.906 905.702L471.365 908.342Z" fill="#D73A35"/>
<path d="M1010.83 379.244C1013.86 393.558 1017.36 407.095 1016.43 421.679L1021.04 422.295L1017.75 434.349C1009.89 460.686 997.822 474.142 974.65 489.417C963.92 496.486 923.173 511.17 915.363 496.265C920.51 490.862 958.438 490.35 978.866 469.649C1006 442.152 1009.2 415.893 1010.83 379.244Z" fill="#342F34"/>
<path d="M1016.43 421.677L1021.05 422.293L1017.75 434.347C1015.59 428.56 1015.87 428.019 1016.43 421.677Z" fill="#51455A"/>
<path d="M1048.7 483.131C1041.11 500.339 1010.72 517.689 994.495 505.253C987.144 486.016 1017.95 466.165 1032.87 459.511C1039.75 459.623 1041.99 459.074 1047.79 462.78C1051.49 469.005 1051.75 471.306 1049.68 479.53C1049.37 480.736 1049.05 481.937 1048.7 483.131Z" fill="#9996AD"/>
<path d="M1032.87 459.511C1039.75 459.623 1041.99 459.074 1047.79 462.78C1051.49 469.005 1051.75 471.306 1049.68 479.53C1049.37 480.736 1049.04 481.937 1048.7 483.131C1041.91 477.672 1033.62 468.468 1032.87 459.511Z" fill="#F9EADC"/>
<path d="M1058.45 486.983L1064.74 492.236C1060.65 500.205 1048.16 512.574 1040.48 517.234C1004.16 539.254 970.124 528.645 937.539 508.159C962.64 503.133 968.449 499.871 989.236 486.089C987.678 490.694 983.777 500.908 986.252 504.805C1001.68 529.093 1050.22 509.597 1058.45 486.983Z" fill="#342F34"/>
<path d="M1043.16 363.518C1047.05 355.861 1044.86 358.008 1051.19 353.725C1061.87 352.175 1069.07 358.949 1075.58 366.419C1086.6 379.056 1088.07 385.616 1086.22 401.831C1072.38 430.451 1051.79 399.211 1046.54 383.208C1044.26 376.243 1043.73 370.708 1043.16 363.518Z" fill="#F9EADC"/>
<path d="M1043.16 363.517C1052.69 372.378 1076.38 394.862 1086.22 401.83C1072.38 430.449 1051.79 399.21 1046.54 383.206C1044.26 376.242 1043.73 370.706 1043.16 363.517Z" fill="#A9A3B0"/>
<path d="M537.439 820.63C528.04 817.725 515.94 811.385 516.558 800.494C532.773 781.285 562.339 805.12 570.997 822.621C572.11 839.274 571.728 839.997 563.677 854.708L560.717 856.204C559.339 852.332 561.168 848.229 562.37 844.091L559.216 845.506C556.441 848.989 558.146 848.095 554.345 848.913C545.424 839.662 547.631 830.759 537.439 820.63Z" fill="#413D3E"/>
<path d="M537.438 820.628C554.354 814.971 560.862 831.411 559.214 845.504C556.439 848.987 558.145 848.093 554.343 848.911C545.423 839.66 547.629 830.757 537.438 820.628Z" fill="#E47C3C"/>
<path d="M562.364 844.089C562.014 837.741 561.722 834.082 562.429 827.631C565.913 822.596 563.889 824.12 570.991 822.619C572.104 839.272 571.721 839.995 563.671 854.706L560.711 856.202C559.333 852.33 561.162 848.227 562.364 844.089Z" fill="#63615B"/>
<path d="M964.113 647.775C983.145 639.849 992.773 651.746 999.741 668.237C1005.25 716.606 948.353 702.991 964.113 647.775Z" fill="#A9A3B0"/>
<path d="M964.121 647.775C983.153 639.849 992.781 651.746 999.749 668.237C999.438 673.227 999.401 674.21 998.036 678.969C984.04 684.601 969.668 658.262 964.121 647.775Z" fill="#F9EADC"/>
<path d="M326.043 277.267C324.861 282.636 321.459 285.013 317.121 288.824C277.303 323.808 271.057 338.073 276.332 391.172L276.979 393.205C282.062 429.736 282.115 441.507 294.686 476.428C299.232 500.52 315.803 541.986 334.645 556.487C335.772 561.266 336.168 559.195 334.426 562.989C300.465 534.026 288.526 485.717 279.156 443.737C262.198 367.76 258.775 326.666 326.043 277.267Z" fill="#F47852"/>
<path d="M534.74 878.649C534.45 894.917 526.254 920.447 508.628 925.09C506.118 920.576 509.578 904.959 508.837 898.61C507.367 886.027 495.589 871.209 501.135 859.554C506.836 855.295 508.206 855.369 515.376 854.633C525.5 859.811 529.515 860.903 533.008 872.04C533.701 874.21 534.279 876.417 534.74 878.649Z" fill="#D73A35"/>
<path d="M515.372 854.633C525.496 859.811 529.511 860.903 533.004 872.04C533.697 874.21 534.275 876.417 534.736 878.649C532.053 884.261 533.825 882.475 528.427 885.405C512.696 884.384 504.167 868.932 515.372 854.633Z" fill="#FB857F"/>
<path d="M1148.3 1061.72C1136.75 1063.16 1111 1068.18 1103.89 1058.82C1101.66 1045.49 1111.59 1028.54 1126.05 1025.88C1138.9 1030.21 1161.28 1043.01 1161.35 1058.05L1158.64 1061.18C1155.12 1061.41 1151.84 1061.67 1148.3 1061.72Z" fill="#C4B9BA"/>
<path d="M1126.05 1025.88C1138.9 1030.21 1161.28 1043.01 1161.35 1058.05L1158.64 1061.18C1155.12 1061.41 1151.84 1061.67 1148.3 1061.72C1140.79 1049.83 1133.37 1037.89 1126.05 1025.88Z" fill="#F9EADC"/>
<path d="M1169.69 1062.37C1169.08 1048.98 1166.41 1025.97 1176.46 1016.2C1181.9 1013.76 1182.91 1014.15 1188.82 1015.44C1200.26 1019.24 1218.81 1031.01 1216.87 1044.68L1211.2 1047.91L1169.69 1062.37Z" fill="#C4B9BA"/>
<path d="M1188.83 1015.44C1200.26 1019.24 1218.81 1031.01 1216.87 1044.68L1211.21 1047.91C1205.24 1040.96 1187.79 1023.05 1188.83 1015.44Z" fill="#E9CFC6"/>
<path d="M754.971 842.406C779.245 867.227 807.635 864.699 818.912 828.359C825.495 826.761 835.929 834.723 843.028 835.284C849.65 835.808 859.053 833.847 865.638 832.663L866.657 835.708C826.038 854.235 791.612 863.303 748.824 872.05L747.832 866.612C750.256 860.92 753.207 848.857 754.971 842.406Z" fill="#483F41"/>
<path d="M800.569 954.382C826.455 960.594 851.464 968.634 877.784 973.181C865.674 974.608 853.594 976.278 841.55 978.186C818.294 981.016 794.543 980.545 771.137 980.851L800.569 954.382Z" fill="#931C17"/>
<path d="M950.005 275.742C973.952 266.009 997.888 260.575 1003.88 292.535C1004.41 299.673 1004.71 301.98 1003.45 309.285L1001.59 309.901C992.119 305.258 954.024 284.359 947.145 278.029L950.005 275.742Z" fill="#C4B9BA"/>
<path d="M950.004 275.742C973.951 266.009 997.886 260.575 1003.88 292.535C984.164 283.907 961.729 281.481 950.004 275.742Z" fill="#E9CFC6"/>
<path d="M901.785 725.096C913.412 717.051 932.107 704.298 946.024 703.711L947.579 706.333C942.757 715.921 931.495 721.932 922.451 727.709L931.353 742.058C932.232 744.865 933.032 748.182 934.448 750.646L941.305 764.181C936.066 767.467 936.483 767.926 928.748 766.174C926.865 765.73 924.989 765.259 923.12 764.76C918.359 758.894 905.369 732.438 901.785 725.096Z" fill="#E47C3C"/>
<path d="M207.424 669.089C203.684 654.754 215.28 627.295 227.748 620.455L230.081 621.318L230.361 629.751C233.247 649.084 233.482 669.267 235.217 688.922C221.536 682.958 216.602 680.752 207.424 669.089Z" fill="#A9A3B0"/>
<path d="M207.424 669.089C203.684 654.754 215.28 627.295 227.748 620.455L230.081 621.318L230.361 629.751C223.452 647.932 220.615 654.834 207.424 669.089Z" fill="#D8AD8E"/>
<path d="M267.934 427.922C269.348 434.647 271.104 444.58 272.841 450.946C276.343 464.4 280.02 477.807 283.872 491.165C270.503 492.657 248.365 494.568 236.027 497.299C238.181 494.534 242.628 488.006 245.265 486.73L264.243 446.627C265.512 440.399 266.743 434.165 267.934 427.922Z" fill="#342F34"/>
<path d="M267.93 427.922C269.344 434.647 271.101 444.58 272.838 450.946C267.122 459.207 252.594 481.805 245.262 486.73L264.24 446.627C265.509 440.399 266.739 434.165 267.93 427.922Z" fill="#625153"/>
<path d="M794.189 171.415C793.892 181.825 793.559 190.688 792.538 201.037C775.58 199.05 765.859 198.771 748.751 198.851L738.351 201.661C736.302 199.115 733.357 198.231 730.293 196.854C733.405 194.463 733.114 194.519 734.375 190.74L730.627 186.267C746.176 183.79 777.015 175.165 794.189 171.415Z" fill="#4A3A42"/>
<path d="M794.185 171.415C793.888 181.825 793.554 190.688 792.534 201.037C775.575 199.05 765.855 198.771 748.746 198.851C759.418 193.42 787.197 179.984 794.185 171.415Z" fill="#292429"/>
<path d="M215.691 429.687C233.738 420.449 246.082 412.108 262.93 400.65C265.369 410.668 266.507 417.678 267.937 427.923C266.746 434.166 265.515 440.4 264.246 446.628C242.658 442.492 234.939 439.836 215.691 429.687Z" fill="#342F34"/>
<path d="M871.142 766.058C868.494 758.615 864.458 750.002 865.648 742.57C869.864 738.876 868.597 740.022 874.974 738.941C889.748 744.457 892.408 771.128 898.705 786.333C895.089 793.949 892.058 797.791 884.509 801.996L880.927 797.125C881.44 792.085 876.84 779.889 875.072 774.448L871.142 766.058Z" fill="#E47C3C"/>
<path d="M1183.55 914.152C1177.44 900.096 1157.06 877.893 1156.74 868.575C1162.63 865.454 1161.19 866.504 1168.93 866.943C1176.63 867.337 1186.24 866.474 1190.9 873.487C1198.81 885.104 1189.29 903.496 1183.55 914.152Z" fill="#B2A1A2"/>
<path d="M1168.94 866.944C1176.63 867.338 1186.24 866.475 1190.9 873.488L1189.86 877.769C1181.04 879.972 1174.14 875.126 1167.34 870.261L1168.94 866.944Z" fill="#E9CFC6"/>
<path d="M993.922 336.483C997.404 335.125 1004.33 333.883 1008.25 333.032C1021.31 363.01 1029.33 389.073 1021.04 422.293L1016.42 421.676C1017.36 407.093 1013.85 393.555 1010.82 379.242C1005.87 359.877 1003.13 353.529 993.922 336.483Z" fill="#483F41"/>
<path d="M1068.73 1027.23C1071.03 1027.95 1073.33 1028.68 1075.47 1029.83C1082.65 1033.71 1092.6 1046.65 1094.66 1054.65C1095.59 1058.24 1095.3 1058.67 1093.42 1061.6L1085.4 1061.13C1074.34 1060.04 1063.46 1056.99 1052.67 1054.42C1056.87 1044.52 1061.18 1035.03 1068.73 1027.23Z" fill="#A9A3B0"/>
<path d="M941.311 764.182C950.668 755.808 959.926 745.693 972.439 743.961L974.796 745.983C972.246 762.951 946.252 777.07 932.976 785.654C930.287 779.716 926.205 770.048 923.125 764.76C924.994 765.259 926.87 765.73 928.754 766.175C936.489 767.926 936.072 767.467 941.311 764.182Z" fill="#E47C3C"/>
<path d="M752.228 936.7L755.71 933.503C769.366 940.239 779.106 944.148 793.307 949.543C786.049 956.424 777.946 964.509 770.566 971.06C764.537 963.713 754.626 953.619 751.164 945.719C751.485 942.736 751.751 939.65 752.228 936.7Z" fill="#342F34"/>
<path d="M921.289 774.555C924.458 780.109 927.25 782.68 926.969 788.176C918.565 795.853 899.007 808.299 888.206 807.945C886.247 805.475 885.46 804.951 884.512 801.996C892.06 797.791 895.091 793.949 898.708 786.333C907.014 782.767 913.424 779.019 921.289 774.555Z" fill="#E47C3C"/>
<path d="M982.594 614.695C995.972 618.586 1000.38 619.598 1012.44 626.508C1019.84 633.729 1021.57 643.99 1016.27 653.037C1008.03 656.261 1006.44 649.583 1002.14 642.708C995.396 634.474 988.596 623.68 982.594 614.695Z" fill="#F7A38F"/>
<path d="M1012.43 626.508C1019.83 633.728 1021.57 643.989 1016.27 653.037C1008.03 656.261 1006.43 649.583 1002.14 642.707C1009.1 637.324 1009.44 634.662 1012.43 626.508Z" fill="#D8AD8E"/>
<path d="M787.328 790.801C790.595 781.8 788.508 784.181 794.76 778.857C806.232 786.984 808.119 790.204 812.932 803.495L814.337 805.011L814.706 816.289C807.553 815.501 803.967 815.943 796.959 816.529C794.026 805.147 793.254 800.768 787.328 790.801Z" fill="#E47C3C"/>
<path d="M283.268 497.486C292.843 506.435 296.788 534.588 307.768 548.922C299.686 547.596 291.415 547.023 283.264 546.218C282.4 530.204 281.321 513.424 283.268 497.486Z" fill="#4A3A42"/>
<path d="M676.383 881.173C686.453 874.618 688.931 872.302 694.21 861.956L695.205 859.985C698.241 860.769 702.512 864.946 705.875 866.896C720.009 875.095 733.307 870.614 747.835 866.611L748.826 872.049C727.994 876.428 698.002 878.914 676.383 881.173Z" fill="#342F34"/>
<path d="M670.851 846.919C667.387 844.444 665.707 845.414 660.392 845.36C657.361 840.403 657.812 842.999 658.978 837.316C666.914 828.499 674.578 826.947 685.223 831.676C690.045 838.105 688.689 838.118 689.934 847.173C683.059 847.877 677.2 849.204 670.851 846.919Z" fill="#E47C3C"/>
<path d="M1197.45 946.274L1200.41 947.243C1209.57 950.271 1217.31 951.676 1221.97 960.891C1223.34 967.36 1220.71 972.058 1218.16 977.806L1215.98 980.399L1213.21 979.271C1206.25 969.425 1202.11 957.348 1197.45 946.274Z" fill="#E9CFC6"/>
<path d="M968.934 300.669C983.546 309.033 1000.37 318.041 1008.26 333.033C1004.33 333.883 997.407 335.125 993.924 336.483C985.515 324.6 977.183 312.662 968.934 300.669Z" fill="#4A3A42"/>
<path d="M537.244 847.079C542.838 851.851 546.136 858.435 547.553 865.61C549.569 875.82 546.97 884.946 541.203 893.427C540.922 873.583 531.267 863.635 531.01 855.32C530.9 851.737 534.853 849.366 537.244 847.079Z" fill="#D14229"/>
<path d="M742.143 956.226C743.404 957.036 742.848 956.585 744.004 957.765C750.19 964.082 757.2 968.713 762.495 975.912L761.858 978.068L753.608 977.502L726.504 968.086L742.143 956.226Z" fill="#931C17"/>
<path d="M865.637 832.663L867.375 831.575C875.81 826.231 878.286 823.524 880.924 813.383C885.396 811.758 900.913 812.315 905.373 814.679C900.409 820.213 876.075 829.999 866.656 835.707L865.637 832.663Z" fill="#342F34"/>
<path d="M1102.09 437.477L1109.97 442.372L1108.86 455.201C1106.54 463.779 1105.1 468.133 1101.72 476.339C1101.83 467.968 1102.52 462.725 1098.95 455.168L1102.09 437.477Z" fill="#AB2422"/>
<path d="M613.182 386.313L616.777 387.864C623.664 396.852 620.377 410.58 619.219 421.162C617.641 419.25 616.226 417.316 615.035 415.133C610.169 406.206 610.095 395.742 613.182 386.313Z" fill="#5A1612"/>
<path d="M931.359 742.057C937.323 737.426 941.674 732.857 948.9 732.119L950.849 734.066C948.298 742.09 941.583 745.444 934.454 750.645C933.038 748.181 932.239 744.864 931.359 742.057Z" fill="#F47852"/>
<path d="M1102.3 412.317C1104.95 417.215 1107.12 421.217 1109.35 426.379L1109.97 442.373L1102.09 437.478L1102.3 412.317Z" fill="#C32E29"/>
<path d="M369.23 921.496C369.74 921.801 370.269 922.076 370.762 922.41C377.986 927.317 380.122 947.323 381.07 955.479C374.148 949.439 372.328 930.734 369.23 921.496Z" fill="#413D3E"/>
<path d="M946.027 611.109C946.977 605.875 947.726 597.505 950.936 593.82C952.149 602.259 950.802 606.77 949.154 615.109L946.027 611.109Z" fill="#887774"/>
<path d="M317.602 869.27L319.998 868.429L322.879 870.061C320.382 870.639 319.938 870.104 317.602 869.27Z" fill="#342F34"/>
</svg>
