<svg width="2596" height="2826" viewBox="0 0 2596 2826" fill="none" xmlns="http://www.w3.org/2000/svg">
<path d="M910.579 1102.73C915.724 1102.04 920.783 1104.63 923.204 1109.27L1204.54 1647.68L1403.19 1744.84C1407.94 1747.16 1410.69 1752.24 1410.04 1757.49L1396.37 1867.44C1390.44 1934.08 1361.76 2030.12 1294.19 2102.27C1226.01 2175.07 1119.39 2222.26 961.05 2192.15C960.649 2192.12 960.217 2192.06 959.764 2191.98C958.31 2191.7 952.597 2190.27 950.35 2183.92C948.399 2178.4 950.991 2174.08 951.417 2173.37L951.676 2172.96C953.51 2170.16 956.362 2168.27 959.531 2167.62C959.801 2167.51 960.169 2167.35 960.647 2167.14C962.189 2166.46 964.338 2165.47 967.039 2164.17C972.426 2161.59 979.785 2157.89 988.451 2153.32C1005.79 2144.18 1028.17 2131.64 1050.25 2117.61C1072.43 2103.52 1093.89 2088.19 1109.66 2073.49C1117.55 2066.13 1123.68 2059.24 1127.76 2053.04C1131.92 2046.72 1133.28 2042.13 1133.28 2039.1C1133.28 2033.31 1128.41 2025.18 1111.41 2016.21C1095.26 2007.69 1072 2000.59 1044.84 1995.24C990.653 1984.57 924.318 1981.53 876.686 1986.08C848.979 1988.73 827.934 1980.85 812.182 1966.56C796.943 1952.73 787.571 1933.74 780.942 1915.63C774.476 1897.98 769.719 1878.23 765.646 1865.06C763.46 1857.99 761.452 1852.62 759.405 1848.84C757.835 1845.94 756.753 1844.95 756.404 1844.67C756.085 1844.63 755.302 1844.56 753.875 1844.61C751.503 1844.7 748.299 1845.09 744.124 1845.83C735.72 1847.31 725.043 1849.87 711.929 1852.9C686.103 1858.89 652.426 1866.34 615.896 1868.5C542.434 1872.86 455.959 1855.78 396.366 1762.63C396.306 1762.54 396.248 1762.44 396.19 1762.35C378.885 1733.62 370.375 1707.95 364.475 1685.42C358.376 1662.15 355.559 1644.95 349.109 1629.08C343.143 1614.41 334.357 1602.08 316.903 1591.18C299.032 1580.01 271.634 1570.09 227.926 1561.68C223.215 1561.35 218.89 1559.46 215.55 1557.64C211.593 1555.49 207.502 1552.59 203.465 1549.35C195.371 1542.85 186.387 1534.1 177.524 1524.73C159.743 1505.92 141.413 1483.48 129.938 1468.53C127.718 1465.64 126.886 1461.92 127.664 1458.35C128.442 1454.79 130.752 1451.75 133.977 1450.05L730.297 1135.17C731.434 1134.57 732.658 1134.15 733.924 1133.93L910.081 1102.81L910.579 1102.73Z" fill="#A7120B" stroke="#232323" stroke-width="24.7548" stroke-linejoin="round"/>
<path d="M1190.37 1808.6C1053.39 1981.4 1081.02 2091.94 1285.81 2075.96C1490.61 2059.99 1628.62 1994.41 1560.83 1875.97C1493.04 1757.52 1190.37 1808.6 1190.37 1808.6Z" fill="#FF814A"/>
<path d="M1373.43 2080.51C1346.76 2084.97 1318.08 2088.39 1286.96 2090.85C1189.08 2098.54 1126.31 2078.42 1101.61 2031.83C1073.5 1978.49 1099.83 1898.23 1178.84 1799.56C1181.13 1796.89 1184.47 1794.96 1188.02 1794.37C1202.69 1791.92 1502.17 1743.66 1573.9 1869.21C1596.52 1908.84 1599.43 1945.37 1582.48 1977.91C1556.35 2026.61 1483.23 2062.14 1373.43 2080.51ZM1198.19 1822.37C1131.18 1908.07 1106.25 1977.59 1127.61 2017.88C1146.23 2052.7 1200.4 2067.86 1284.28 2061.14C1430.02 2050.02 1528.7 2014.32 1555.87 1963.62C1568.01 1940.57 1565.4 1914.05 1547.97 1883.6C1491 1783.45 1239.16 1815.98 1198.19 1822.37Z" fill="#232323"/>
<path d="M1379.87 1950.09C1485.46 1955.73 1558.83 1970.88 1558.83 1970.88L1579.63 1934.04L1564.36 1919.23L1379.87 1950.09Z" fill="#232323"/>
<path d="M1589.04 217.776C1559.4 249.383 1516.21 278.348 1458.72 297.474L1313.45 345.629C1265.4 161.051 1361.36 76.5954 1430.13 174.022C1430.13 174.022 1433.61 82.6822 1544.19 53.3589C1549.85 52.0416 1555 50.7619 1561.18 49.4071C1652.93 31.8729 1667.41 134.145 1589.04 217.776Z" fill="#F4D93B"/>
<path d="M1588.96 217.783C1578.05 217.214 1572.7 211.711 1578.49 197.243C1600.07 139.031 1628.01 50.9016 1524.96 71.9747L1544.1 53.3652C1549.77 52.048 1554.91 50.7682 1561.09 49.4134C1652.85 31.8793 1667.32 134.151 1588.96 217.783Z" fill="white"/>
<path d="M1313.88 360.595C1306.12 361.158 1298.72 356.71 1296.97 350.04C1263.53 220.594 1298.5 141.924 1345.11 123.134C1370.21 113.156 1397.36 119.343 1421.3 139.811C1434.75 104.394 1468.96 52.0634 1558.14 35.1691C1606.07 25.7997 1642.92 44.4247 1653.42 83.5412C1670.88 147.077 1614.7 261.727 1463.77 311.199C1455.05 314.098 1445.08 310.289 1442.27 302.79C1439.45 295.29 1444.36 286.323 1453.09 283.424C1582.97 240.918 1634.47 142.922 1619.97 91.8595C1615.32 74.9768 1601.8 56.4714 1563.14 63.8086C1452.32 84.9926 1446.58 170.151 1446.69 173.769C1446.36 180.137 1441.36 186.391 1433.64 188.31C1426.44 190.192 1418.6 188.042 1414.8 182.427C1395.84 155.253 1374.23 143.227 1356.8 149.929C1327.6 161.565 1300.07 228.819 1329.37 341.344C1331.68 349.333 1325.71 357.471 1316.45 359.955C1316.46 360.408 1314.91 360.52 1313.88 360.595Z" fill="#232323"/>
<path d="M1969.06 1730.53C2147.47 1860.12 2150.59 1974.01 1949.04 2013.71C1747.5 2053.41 1596.94 2027.36 1630.37 1895.05C1663.81 1762.73 1969.06 1730.53 1969.06 1730.53Z" fill="#FF814A"/>
<path d="M1866.33 2041.63C1755.18 2053.52 1675.65 2038.91 1637.34 1998.59C1612.27 1971.81 1604.8 1935.89 1616.38 1891.59C1651.69 1751.37 1953.11 1717.31 1967.9 1715.72C1971.49 1715.34 1975.21 1716.3 1978.14 1718.26C2080.38 1792.54 2127.77 1862.71 2114.99 1921.19C2103.73 1972.71 2049.13 2008.93 1952.34 2027.9C1921.76 2034.34 1893.22 2038.75 1866.33 2041.63ZM1965.24 1745.93C1924.55 1751.19 1672.79 1787.64 1644.82 1898.97C1636.26 1933.43 1640.84 1959.23 1658.73 1978.17C1698.53 2019.7 1803.17 2027.54 1946.54 1999.05C2029.08 1982.51 2077.68 1953.74 2085.8 1915.25C2095.49 1870.25 2052.83 1810.44 1965.24 1745.93Z" fill="#232323"/>
<path d="M1653.13 1993.67C1802.88 1901.95 2096.32 1848.34 2096.32 1848.34L2054.36 1812.03L1960.54 1858.79L1793.13 1912.51L1625.98 1939.01L1653.13 1993.67Z" fill="#232323"/>
<path d="M877.975 1411.92C619.26 1412.37 425.901 1553.44 935.667 1837.85C1377.37 2084.39 877.975 1411.92 877.975 1411.92Z" fill="#EFA33F"/>
<path d="M1078.98 1907.26C1045.18 1907.26 995.599 1888.78 928.441 1850.92C806.296 1782.86 717.053 1718.86 663.417 1660.26C613.387 1605.72 593.555 1556.14 604.823 1512.88C626.909 1427.24 760.773 1396.59 878.411 1396.59C883.369 1396.59 887.876 1398.84 890.581 1402.9C891.482 1403.8 965.4 1503.86 1030.75 1611.58C1153.8 1813.96 1141.18 1868.04 1120.9 1891.03C1110.98 1901.85 1097.01 1907.26 1078.98 1907.26ZM870.298 1427.24C740.49 1429.04 648.092 1465.1 633.669 1520.99C622.401 1563.81 648.092 1660.26 942.864 1824.77C1064.56 1892.38 1092.05 1877.51 1097.46 1871.2C1105.12 1862.64 1120.9 1819.37 1004.16 1627.81C949.174 1536.31 887.426 1450.68 870.298 1427.24Z" fill="#232323"/>
<path d="M1869.36 1062.76C2164.84 993.631 2322.18 802.393 2432.3 874.133C2542.43 945.874 2367.64 1388.13 2123.38 1434.3C1879.17 1480.03 1869.36 1062.76 1869.36 1062.76Z" fill="#EFA33F"/>
<path d="M2068.65 1451.43C2035.91 1448.15 2006.36 1435.67 1979.95 1414.45C1861.35 1318.76 1854.28 1072.99 1853.97 1062.54C1853.75 1055.72 1858.46 1049.4 1865.41 1047.83C1997.14 1017.1 2101.96 961.021 2186.16 916.463C2294.3 858.905 2372.3 817.351 2439.92 861.274C2477.77 885.906 2489.55 944.616 2473.2 1026.33C2456.59 1110.73 2412.03 1207.27 2354.47 1284.4C2306.82 1348.47 2228.09 1428.91 2126.06 1448.13C2106.14 1452.47 2087.04 1453.27 2068.65 1451.43ZM1884.51 1074.21C1887.68 1123.9 1905.12 1315.9 1998.97 1391.9C2033.32 1419.8 2073.19 1428.78 2120.77 1419.51C2286.54 1388.12 2415.49 1168.21 2444.73 1021.21C2458.24 954.16 2450.63 903.569 2424.26 886.431C2371.13 851.659 2299.81 889.807 2200.28 942.793C2116.98 987.441 2014.09 1042.35 1884.51 1074.21Z" fill="#232323"/>
<path d="M2210.22 1623.32C2209.32 1626.48 2208.87 1629.63 2207.97 1632.79C2113.32 1970.38 1701.81 1975.79 1409.29 1971.73H1408.39C1347.54 1970.83 1287.6 1966.32 1230.35 1957.31H1229.9C979.303 1918.54 780.535 1796.4 799.014 1506.58C803.071 1407.88 819.297 1309.17 840.931 1215.42C856.256 1149.61 882.398 1094.17 896.37 1030.62C904.483 994.565 906.286 954 906.737 914.787C901.779 761.091 936.484 624.072 1000.49 512.744C1136.6 275.213 1404.78 153.068 1708.57 235.099C2017.31 321.187 2118.73 594.324 2105.21 892.702V893.603C2101.6 1011.69 2133.15 1080.65 2175.52 1187.92C2228.7 1325.39 2245.38 1479.99 2210.22 1623.32Z" fill="#F4D93B"/>
<path d="M1945.69 449.621C2062.88 616.388 2082.26 725.462 2097.59 855.721C2112.46 985.979 2104.8 784.507 2104.8 784.507L2091.28 668.672L2049.81 517.229L2013.75 459.537L1945.69 449.621Z" fill="white"/>
<path d="M1229.9 1957.72C979.303 1918.96 780.535 1796.82 799.014 1507C803.071 1408.29 819.297 1309.59 840.931 1215.84C856.256 1150.03 882.398 1094.59 896.37 1031.04C904.483 994.983 906.286 954.418 906.737 915.205C901.779 761.509 916.755 583.5 1002.25 505.5C1028.07 481.947 1137.75 457 1137.75 457C1065.64 637.289 1041.05 1011.66 1041.05 1011.66C1041.05 1011.66 719.687 1539.45 974.345 1551.17C974.345 1551.17 969.387 1901.38 1229.9 1957.72Z" fill="#EC2F2F" fill-opacity="0.14"/>
<path opacity="0.32" d="M2192.58 1668.08C2191.51 1671.23 2190.97 1674.39 2189.9 1677.54C2077.25 2015.02 1620.9 1968.56 1272.75 1964.5H1239.33L1139.76 1943C1019.06 1796.57 1082.16 1331.06 1502.19 1228.78C1872.33 1138.66 2113.26 1241 2188.82 1381.97C2221.26 1480 2199.02 1552.73 2192.58 1668.08Z" fill="#FFF4C5"/>
<path d="M1484.18 1987.48C1458.94 1987.48 1433.7 1987.03 1408.91 1987.03C1159.66 1982.98 982.075 1924.83 880.212 1814.41C808.548 1736.43 776.096 1632.77 784.209 1506.11C787.814 1415.97 802.238 1317.26 826.576 1212.69C834.239 1179.34 844.605 1148.69 854.972 1118.94C865.338 1088.29 875.254 1059.45 882.015 1028.35C890.579 990.938 891.931 948.57 891.931 916.119C884.269 672.278 975.315 457.284 1142.08 325.223C1298.48 201.274 1500.86 164.315 1712.24 221.557C1990.79 299.532 2135.47 537.963 2119.7 893.582V894.033V894.484C2116.54 1000.4 2142.68 1066.66 2179.19 1158.16C2182.35 1166.27 2185.5 1174.38 2189.11 1182.95C2247.7 1333.04 2259.42 1494.39 2222.46 1636.82C2178.74 1792.32 2069.22 1892.83 1887.12 1944.67C1760.47 1980.72 1620.75 1987.48 1484.18 1987.48ZM1521.59 224.712C1387.72 224.712 1263.33 266.629 1160.56 348.209C1001.46 473.961 914.467 680.842 921.679 915.217V915.668C921.679 949.923 920.326 994.093 910.861 1034.66C903.65 1067.56 892.833 1098.21 882.917 1128.41C873.001 1157.71 862.634 1187.45 855.423 1219.45C831.534 1322.22 817.562 1419.12 813.505 1507.92C805.843 1626.46 835.591 1722.91 901.847 1794.57C997.851 1898.69 1168.22 1953.23 1409.36 1957.74C1742.89 1961.79 2106.63 1940.61 2193.61 1629.16C2229.22 1493.04 2217.95 1338.44 2161.61 1194.21C2158.46 1185.65 2154.85 1177.54 2151.7 1169.42C2113.84 1074.32 2086.79 1005.81 2090.4 894.033V893.582V893.132C2098.96 695.716 2060.65 350.012 1704.58 250.403C1642.38 232.825 1581.08 224.712 1521.59 224.712Z" fill="#232323"/>
<path d="M521.896 493.723C635.773 416.461 739.167 402.381 822.511 417.249C898.069 430.728 956.372 467.86 990.513 501.684C992.908 500.112 995.308 498.816 997.708 497.867C1004.02 495.371 1013.25 494.42 1020.54 501.368C1026.43 506.986 1027.56 514.833 1027.73 519.966C1027.93 525.776 1027.02 532.268 1025.49 538.82C1019.62 563.894 1002.22 599.497 977.045 624.911C924.125 771.587 811.345 831.948 712.734 854.986C663.207 866.558 617.029 868.809 583.241 867.994C566.331 867.586 552.421 866.408 542.625 865.212C537.746 864.616 533.778 864.003 530.907 863.454C529.518 863.189 528.144 862.893 526.969 862.567C526.459 862.425 525.51 862.149 524.486 861.71C524.055 861.525 522.912 861.024 521.651 860.118C521.026 859.669 519.843 858.75 518.7 857.274C517.579 855.825 515.756 852.86 515.756 848.667C515.756 846.764 516.144 844.88 516.896 843.132C560.198 742.536 620.849 686.546 685.748 652.562C717.733 635.813 750.724 624.467 782.688 615.678C689.824 614.555 628.143 596.355 587.602 575.089C561.187 561.234 543.977 546.191 533.122 534.065C527.705 528.013 523.907 522.728 521.353 518.738C518.98 515.032 517.195 511.545 517.601 512.254C513.972 505.903 515.843 497.829 521.896 493.723Z" fill="#E82117" stroke="#232323" stroke-width="28" stroke-linejoin="round"/>
<path d="M1014.71 492.544C1164.74 420.668 1508.53 309.03 1982.38 439.205C1984.09 439.515 1985.4 440.061 1986.11 440.397C1988.03 441.312 1989.36 442.46 1989.98 443.019C1991.32 444.235 1992.4 445.593 1993.1 446.522C1994.64 448.557 1996.38 451.258 1998.2 454.26C2001.9 460.385 2006.73 469.136 2012.24 479.713C2023.28 500.925 2037.39 530.145 2051.22 561.838C2065.04 593.506 2078.68 627.88 2088.71 659.349C2098.59 690.333 2105.52 720.16 2104.68 742.025C2104.21 754.266 2100.48 764.938 2093.65 773.639C2086.91 782.222 2077.81 788.047 2067.88 791.872C2048.39 799.374 2023.67 799.966 1999.36 797.226C1974.71 794.446 1948.85 788.045 1926.1 780.13C1903.55 772.283 1883.06 762.601 1869.65 752.784C1846.18 735.601 1816.87 710.764 1754.3 707.121C1690.67 703.416 1591.39 721.699 1429.53 796.918C1429.51 796.924 1429.5 796.929 1429.49 796.935C1296.45 858.283 1182.95 876.014 1095.4 870.91C1008.46 865.843 945.676 838.096 916.057 806.59C913.712 804.096 912.363 800.83 912.263 797.409C911.42 768.562 921.51 714.581 938.363 658.348C955.304 601.821 979.81 540.553 1009.17 497.305C1010.57 495.256 1012.48 493.614 1014.71 492.544Z" fill="#E82117" stroke="#232323" stroke-width="28" stroke-linejoin="round"/>
<path d="M2080.26 789C2108.76 729.5 1976.76 446.882 1930.76 426.291L2006.26 451L2037.76 505L2080.26 643L2108.76 753.5C2106.42 760.167 2097.46 776.6 2080.26 789Z" fill="white"/>
<path d="M1014.32 494.99C1161.77 424.819 1507.29 316.073 1968.77 434.849C1988.32 439.879 2007.28 451.832 2017.13 471.909L2018.48 474.678C2032.67 503.952 2054.18 553.772 2072.13 604.061C2081.39 630.029 2089.78 656.333 2095.72 680.133C2101.59 703.654 2105.34 725.794 2104.68 743.016C2104.21 755.217 2100.47 765.852 2093.62 774.515C2086.87 783.055 2077.77 788.84 2067.84 792.637C2048.36 800.085 2023.65 800.675 1999.34 797.952C1974.68 795.191 1948.82 788.832 1926.07 780.968C1903.51 773.171 1883.02 763.552 1869.61 753.798C1846.13 736.727 1816.79 712.032 1754.17 708.41C1690.49 704.727 1591.16 722.903 1429.23 797.653C1429.22 797.659 1429.21 797.664 1429.2 797.67C1296.11 858.632 1182.58 876.247 1095.01 871.177C1008.06 866.142 945.267 838.578 915.632 807.264C913.269 804.767 911.907 801.489 911.806 798.053C910.962 769.355 921.064 715.689 937.924 659.804C954.874 603.622 979.394 542.722 1008.78 499.732C1010.18 497.689 1012.09 496.053 1014.32 494.99Z" stroke="#232323" stroke-width="28" stroke-linejoin="round"/>
<path d="M1377.27 637.917C1383.87 626.954 1392.34 617.749 1402.33 610.319C1404.73 608.351 1407.51 606.826 1409.94 605.319C1411.32 604.326 1412.72 603.794 1414.12 603.263C1415.5 602.27 1416.9 601.738 1418.3 601.206C1423.89 598.619 1429.54 597.415 1435.6 597.117C1447.33 596.076 1459.6 598.709 1470.6 604.642C1476.1 607.608 1481.29 611.515 1485.77 615.457C1488.38 617.641 1490.63 619.843 1492.55 622.523C1493.68 623.855 1494.82 625.187 1495.96 626.518C1496.71 627.406 1497.09 627.85 1497.49 628.755C1498.25 629.642 1498.63 630.086 1499.41 631.435C1502.49 635.909 1502.12 642.865 1498.74 646.732C1496.71 649.144 1493.89 649.746 1491.35 648.946L1487.36 647.755C1487.01 647.772 1486.63 647.328 1485.89 646.902L1484.4 645.588C1483.29 644.718 1482.19 644.309 1481.44 643.422C1479.23 642.143 1477.38 640.846 1475.18 639.567C1471.12 636.992 1466.74 634.896 1462.73 633.243C1454.35 629.956 1446.05 628.053 1437.5 628.474C1433.22 628.684 1428.97 629.356 1424.74 630.49C1423.7 631.004 1422.63 631.057 1421.58 631.571C1420.54 632.085 1419.47 632.137 1418.42 632.651C1416.33 633.68 1414.22 634.246 1412.13 635.274C1403.76 639.387 1395.46 644.883 1387.21 651.303L1386.85 651.32C1383.43 654.264 1378.71 652.647 1376.68 647.659C1375.12 644.961 1375.27 640.791 1377.27 637.917Z" fill="#232323"/>
<path d="M1813.72 617.365C1820.75 606.671 1829.57 597.806 1839.85 590.776C1842.32 588.903 1845.16 587.489 1847.65 586.079C1849.06 585.141 1850.49 584.665 1851.91 584.189C1853.32 583.251 1854.75 582.775 1856.17 582.299C1861.85 579.933 1867.55 578.953 1873.61 578.894C1885.37 578.316 1897.53 581.43 1908.29 587.792C1913.67 590.972 1918.7 595.081 1923.02 599.196C1925.54 601.481 1927.7 603.769 1929.51 606.523C1930.6 607.899 1931.68 609.274 1932.76 610.649C1933.49 611.566 1933.85 612.025 1934.21 612.945C1934.93 613.862 1935.3 614.32 1936.02 615.699C1938.92 620.29 1938.28 627.226 1934.75 630.957C1932.63 633.287 1929.78 633.777 1927.28 632.878L1923.34 631.531C1922.98 631.535 1922.62 631.076 1921.9 630.621L1920.46 629.249C1919.39 628.336 1918.31 627.885 1917.59 626.968C1915.44 625.603 1913.64 624.235 1911.49 622.87C1907.54 620.137 1903.24 617.87 1899.29 616.061C1891.06 612.446 1882.83 610.217 1874.27 610.301C1870 610.344 1865.72 610.848 1861.45 611.814C1860.39 612.286 1859.32 612.297 1858.25 612.769C1857.19 613.242 1856.12 613.252 1855.05 613.725C1852.92 614.67 1850.79 615.153 1848.65 616.097C1840.13 619.877 1831.63 625.043 1823.13 631.132L1822.77 631.136C1819.23 633.942 1814.58 632.14 1812.74 627.077C1811.29 624.319 1811.61 620.158 1813.72 617.365Z" fill="#232323"/>
<path d="M1364.14 2801.5C1359.5 2808.02 1351.03 2810.68 1343.45 2807.89C1340.7 2806.87 1338.86 2805.38 1338.7 2805.26C1338.12 2804.81 1337.68 2804.41 1337.48 2804.22C1337.04 2803.82 1336.7 2803.47 1336.55 2803.32C1336.22 2802.96 1335.91 2802.62 1335.71 2802.39C1335.26 2801.88 1334.72 2801.24 1334.13 2800.55C1332.94 2799.12 1331.27 2797.11 1329.23 2794.62C1325.13 2789.63 1319.37 2782.54 1312.5 2774.04C1298.75 2757.03 1280.5 2734.27 1262.11 2711.14C1243.73 2688.02 1225.17 2664.47 1210.82 2645.89C1203.65 2636.6 1197.47 2628.48 1192.87 2622.24C1190.58 2619.13 1188.61 2616.39 1187.08 2614.15C1185.85 2612.36 1184.06 2609.71 1182.96 2607.33C1181.96 2605.15 1181.33 2602.47 1181.15 2601.78C1180.78 2600.28 1180.34 2598.36 1179.85 2596.12C1178.86 2591.62 1177.56 2585.38 1176 2577.65C1172.86 2562.15 1168.6 2540.34 1163.49 2513.73C1153.26 2460.48 1139.57 2387.8 1124.58 2307.54C1094.6 2147.01 1059.38 1956.01 1036.09 1829.1C1034.72 1821.67 1038.2 1814.18 1044.76 1810.42L1132.76 1759.99C1140.27 1755.69 1149.78 1757.39 1155.32 1764.03L1206.58 1825.47C1208.2 1827.41 1209.39 1829.67 1210.07 1832.11L1210.56 1833.89L1419.9 2530.18L1420.05 2530.68C1420.72 2533.18 1420.84 2535.8 1420.4 2538.36C1413.53 2577.98 1402.62 2638.35 1392.21 2690.75C1387 2716.93 1381.89 2741.27 1377.44 2760.09C1375.22 2769.48 1373.13 2777.69 1371.23 2784.15C1370.28 2787.37 1369.32 2790.35 1368.37 2792.91C1367.53 2795.17 1366.3 2798.2 1364.58 2800.85L1364.14 2801.5Z" fill="white" stroke="#232323" stroke-width="33.1901" stroke-linejoin="round"/>
<path d="M1141.81 1901.92C1209.93 2172.46 1352.51 2661.09 1351.74 2798.9L1185.37 2620.4L1047.66 1894.1L1110.13 1894.73L1141.81 1901.92Z" fill="black" fill-opacity="0.08"/>
<path d="M1364.14 2801.5C1359.5 2808.02 1351.03 2810.68 1343.45 2807.89C1340.7 2806.87 1338.86 2805.38 1338.7 2805.26C1338.12 2804.81 1337.68 2804.41 1337.48 2804.22C1337.04 2803.82 1336.7 2803.47 1336.55 2803.32C1336.22 2802.96 1335.91 2802.62 1335.71 2802.39C1335.26 2801.88 1334.72 2801.24 1334.13 2800.55C1332.94 2799.12 1331.27 2797.11 1329.23 2794.62C1325.13 2789.63 1319.37 2782.54 1312.5 2774.04C1298.75 2757.03 1280.5 2734.27 1262.11 2711.14C1243.73 2688.02 1225.17 2664.47 1210.82 2645.89C1203.65 2636.6 1197.47 2628.48 1192.87 2622.24C1190.58 2619.13 1188.61 2616.39 1187.08 2614.15C1185.85 2612.36 1184.06 2609.71 1182.96 2607.33C1181.96 2605.15 1181.33 2602.47 1181.15 2601.78C1180.78 2600.28 1180.34 2598.36 1179.85 2596.12C1178.86 2591.62 1177.56 2585.38 1176 2577.65C1172.86 2562.15 1168.6 2540.34 1163.49 2513.73C1153.26 2460.48 1139.57 2387.8 1124.58 2307.54C1094.6 2147.01 1059.38 1956.01 1036.09 1829.1C1034.72 1821.67 1038.2 1814.18 1044.76 1810.42L1132.76 1759.99C1140.27 1755.69 1149.78 1757.39 1155.32 1764.03L1206.58 1825.47C1208.2 1827.41 1209.39 1829.67 1210.07 1832.11L1210.56 1833.89L1419.9 2530.18L1420.05 2530.68C1420.72 2533.18 1420.84 2535.8 1420.4 2538.36C1413.53 2577.98 1402.62 2638.35 1392.21 2690.75C1387 2716.93 1381.89 2741.27 1377.44 2760.09C1375.22 2769.48 1373.13 2777.69 1371.23 2784.15C1370.28 2787.37 1369.32 2790.35 1368.37 2792.91C1367.53 2795.17 1366.3 2798.2 1364.58 2800.85L1364.14 2801.5Z" stroke="#232323" stroke-width="33.1901" stroke-linejoin="round"/>
<path d="M1172.43 1753.28C1174.52 1762.35 1169.24 1771.59 1160.23 1774.32L1070.29 1801.65C1065.54 1803.09 1060.41 1802.49 1056.12 1799.98C1051.83 1797.48 1048.78 1793.3 1047.7 1788.45C1029.75 1707.6 993.274 1543.92 989.906 1531.14C987.417 1521.7 985.4 1509.12 989.601 1496.35C994.061 1482.8 1004.38 1472.29 1019.94 1465.06C1031.28 1459.52 1042.32 1457.13 1052.88 1458.13C1063.57 1459.14 1072.34 1463.5 1079.18 1469.14C1092.18 1479.85 1098.57 1495.38 1101.35 1504.11C1105.34 1516.64 1150.34 1675.19 1172.21 1752.4L1172.43 1753.28Z" fill="#FF6802" stroke="#232323" stroke-width="33.1901" stroke-linejoin="round"/>
<path d="M1013.43 1486.6C1065.18 1509.85 1113.3 1665.98 1130.89 1741.14L1160.3 1736.3L1177.38 1728.41L1153.31 1662.06L1117 1562.09L1092.16 1491.73L1057.85 1455.2C1042.97 1458.42 1013.27 1469.23 1013.43 1486.6Z" fill="black" fill-opacity="0.3"/>
<path d="M1172.43 1753.28C1174.52 1762.35 1169.24 1771.59 1160.23 1774.32L1070.29 1801.65C1065.54 1803.09 1060.41 1802.49 1056.12 1799.98C1051.83 1797.48 1048.78 1793.3 1047.7 1788.45C1029.75 1707.6 993.274 1543.92 989.906 1531.14C987.417 1521.7 985.4 1509.12 989.601 1496.35C994.061 1482.8 1004.38 1472.29 1019.94 1465.06C1031.28 1459.52 1042.32 1457.13 1052.88 1458.13C1063.57 1459.14 1072.34 1463.5 1079.18 1469.14C1092.18 1479.85 1098.57 1495.38 1101.35 1504.11C1105.34 1516.64 1150.34 1675.19 1172.21 1752.4L1172.43 1753.28Z" stroke="#232323" stroke-width="33.1901" stroke-linejoin="round"/>
<path d="M1310.19 1836.95C1302.64 1842.41 1292.96 1844.93 1284.8 1846.42C1276.15 1847.99 1266.39 1848.86 1257.02 1849.56C1239.32 1850.88 1223.3 1851.68 1211.08 1854.3C1156.99 1908.21 1095.52 1906.84 1056.45 1893.65C1042.59 1892.21 1021.55 1896.57 1000.73 1902.73C990.429 1905.78 980.998 1909.01 973.631 1911.56C970.032 1912.81 966.722 1913.97 964.197 1914.8C962.936 1915.21 961.646 1915.62 960.479 1915.95C960.256 1916.01 959.807 1916.14 959.206 1916.28C952.288 1918.95 944.587 1919.55 937.011 1916.63C929.135 1913.6 923.936 1907.75 920.601 1902.51C914.179 1892.42 911.005 1878.82 909.192 1867.45C907.281 1855.47 906.488 1843.19 906.132 1834.08C905.953 1829.48 905.884 1825.59 905.846 1822.87C905.824 1821.44 905.815 1820.51 905.801 1819.81C905.801 1819.75 905.8 1819.69 905.801 1819.65C905.499 1815.78 906.464 1811.85 908.65 1808.51C912.009 1803.37 917.78 1800.32 923.92 1800.44C972.33 1801.38 1001.52 1795.53 1017.79 1790.04C1025.93 1787.29 1030.7 1784.68 1032.99 1783.18C1033.11 1783.1 1033.22 1783.02 1033.32 1782.95C1060.7 1740.55 1096.2 1729.23 1125.82 1730.14C1151.65 1730.93 1173.37 1741.51 1175.28 1742.66C1197.14 1748.57 1218.18 1743.77 1234.99 1736.61C1243.44 1733.01 1250.49 1728.95 1255.56 1725.76C1258.11 1724.15 1260.11 1722.81 1261.72 1721.73C1262.42 1721.26 1263.35 1720.64 1264.16 1720.14C1264.51 1719.93 1265.33 1719.43 1266.33 1718.96C1266.78 1718.74 1267.87 1718.24 1269.3 1717.84C1269.72 1717.72 1274.64 1716.13 1280.41 1718.26C1281.39 1718.62 1282.33 1719.06 1283.23 1719.59C1316.31 1738.88 1325.26 1766.99 1324.97 1790.13C1324.69 1811.83 1316.12 1829.58 1316.46 1828.67C1315.23 1831.99 1313.05 1834.87 1310.19 1836.95ZM907.139 1825.18C907.056 1824.98 906.979 1824.78 906.904 1824.58C906.975 1824.77 907.053 1824.97 907.139 1825.18Z" fill="#58BF43" stroke="#232323" stroke-width="33.1901" stroke-linejoin="round"/>
<path d="M1200.97 1838.62C1277.13 1806.97 1277.45 1750.6 1262.76 1733.74L1265.73 1723.64L1272.1 1718.52L1287.94 1736.3L1332.15 1754.09L1320.66 1823.75L1308.35 1849.07L1257.7 1852.81L1214.6 1856.33L1148.87 1903.03C1147.12 1897.66 1196.27 1861.52 1200.97 1838.62Z" fill="black" fill-opacity="0.3"/>
<path d="M1310.19 1836.95C1302.64 1842.41 1292.96 1844.93 1284.8 1846.42C1276.15 1847.99 1266.39 1848.86 1257.02 1849.56C1239.32 1850.88 1223.3 1851.68 1211.08 1854.3C1156.99 1908.21 1095.52 1906.84 1056.45 1893.65C1042.59 1892.21 1021.55 1896.57 1000.73 1902.73C990.429 1905.78 980.998 1909.01 973.631 1911.56C970.032 1912.81 966.722 1913.97 964.197 1914.8C962.936 1915.21 961.646 1915.62 960.479 1915.95C960.256 1916.01 959.807 1916.14 959.206 1916.28C952.288 1918.95 944.587 1919.55 937.011 1916.63C929.135 1913.6 923.936 1907.75 920.601 1902.51C914.179 1892.42 911.005 1878.82 909.192 1867.45C907.281 1855.47 906.488 1843.19 906.132 1834.08C905.953 1829.48 905.884 1825.59 905.846 1822.87C905.824 1821.44 905.815 1820.51 905.801 1819.81C905.801 1819.75 905.8 1819.69 905.801 1819.65C905.499 1815.78 906.464 1811.85 908.65 1808.51C912.009 1803.37 917.78 1800.32 923.92 1800.44C972.33 1801.38 1001.52 1795.53 1017.79 1790.04C1025.93 1787.29 1030.7 1784.68 1032.99 1783.18C1033.11 1783.1 1033.22 1783.02 1033.32 1782.95C1060.7 1740.55 1096.2 1729.23 1125.82 1730.14C1151.65 1730.93 1173.37 1741.51 1175.28 1742.66C1197.14 1748.57 1218.18 1743.77 1234.99 1736.61C1243.44 1733.01 1250.49 1728.95 1255.56 1725.76C1258.11 1724.15 1260.11 1722.81 1261.72 1721.73C1262.42 1721.26 1263.35 1720.64 1264.16 1720.14C1264.51 1719.93 1265.33 1719.43 1266.33 1718.96C1266.78 1718.74 1267.87 1718.24 1269.3 1717.84C1269.72 1717.72 1274.64 1716.13 1280.41 1718.26C1281.39 1718.62 1282.33 1719.06 1283.23 1719.59C1316.31 1738.88 1325.26 1766.99 1324.97 1790.13C1324.69 1811.83 1316.12 1829.58 1316.46 1828.67C1315.23 1831.99 1313.05 1834.87 1310.19 1836.95ZM907.139 1825.18C907.056 1824.98 906.979 1824.78 906.904 1824.58C906.975 1824.77 907.053 1824.97 907.139 1825.18Z" stroke="#232323" stroke-width="33.1901" stroke-linejoin="round"/>
<path d="M1108.02 1772.65C1074.3 1782.16 1052.76 1810.44 1059.92 1835.8C1067.08 1861.17 1100.22 1874.01 1133.94 1864.5C1167.66 1854.98 1189.2 1826.71 1182.04 1801.34C1174.88 1775.98 1141.74 1763.13 1108.02 1772.65Z" fill="#F4D93B"/>
<path d="M1252.93 1447.16C1177.82 1534 1112.45 1594.37 1056.48 1633.27C712.071 1871.27 716.539 1293.89 972.543 1048.07L1036.7 1139.32L1252.93 1447.16Z" fill="#F4D93B"/>
<path d="M1056.56 1633.26C712.149 1871.26 716.617 1293.88 972.621 1048.06L1036.78 1139.31C978.322 1281.9 852.137 1638.39 1055.66 1625.19C1055.61 1624.75 1055.96 1627.88 1056.56 1633.26Z" fill="#EC2F2F" fill-opacity="0.14"/>
<path d="M835.969 1745.38C1067.22 1734.98 1189.17 1524.99 1189.17 1524.99L1068.42 1627.36L941.756 1686.5L829.548 1672.73L829.548 1712.54L835.969 1745.38Z" fill="#232323"/>
<path d="M1543.75 743.883C1656 664.625 1714.07 656.099 1838.63 725.818C1867.68 741.928 1860.7 770.336 1837.22 781.759C1781.07 809.115 1617.55 822.172 1551.29 804.453C1520.56 795.979 1513.13 765.535 1543.69 743.832L1543.75 743.883Z" fill="#FF814A"/>
<path d="M1535.54 732.24C1575.57 705.233 1620.26 678.454 1669.13 669.63C1719.07 660.343 1770.62 677.208 1814.6 698.138C1823.89 702.245 1832.8 707.098 1841.86 711.664C1848.16 714.818 1855.02 718.874 1860.1 724.325C1881.35 744.407 1873.46 778.684 1849.45 792.853C1840.39 798.461 1828.46 802.72 1818.37 806.243C1749.71 828.556 1601.95 843.444 1535.19 815.255C1498.23 795.881 1503.29 752.624 1535.54 732.296L1535.54 732.24ZM1551.98 755.533C1534.46 768.309 1534.63 785.05 1557.59 789.255L1568.12 791.23C1628.11 798.273 1692.33 793.852 1752.67 786.163C1775.16 782.881 1797.77 778.873 1819.4 771.891C1820.04 771.46 1830.67 767.734 1831.24 767.141C1836.54 764.671 1841.62 759.893 1842.72 754.177C1844.11 746.395 1835.18 739.608 1828.3 736.107C1819.84 731.389 1811.36 726.23 1802.71 721.967C1699.29 666.145 1641.01 689.006 1551.92 755.481L1551.98 755.533Z" fill="#232323"/>
<path d="M2065.06 955.264C2077.76 952.974 2090.11 952.89 2100.8 956.819L2101.83 957.212L2102.35 957.432C2102.52 957.51 2102.69 957.591 2102.85 957.677C2107 959.83 2109.33 963.654 2110.51 965.897C2111.93 968.588 2113.06 971.714 2113.98 974.899C2115.82 981.316 2117.12 989.258 2117.62 997.43C2118.11 1005.6 2117.83 1014.46 2116.26 1022.66C2115.74 1025.36 2115.05 1028.12 2114.15 1030.85C2117.49 1031.81 2121.2 1033.23 2124.87 1035.39C2131.97 1039.57 2138.49 1046.31 2142.27 1056.82C2145.6 1066.07 2146.6 1077.64 2144.79 1092.08C2145.1 1092.44 2145.43 1092.82 2145.79 1093.24C2146.65 1094.24 2147.64 1095.4 2148.72 1096.68C2153.03 1101.83 2158.83 1109.11 2164.31 1118.08C2175.2 1135.89 2185.52 1161.4 2179.6 1190.69C2178.87 1194.32 2176.37 1197.34 2172.95 1198.74C2169.52 1200.14 2165.62 1199.74 2162.56 1197.67C2148.53 1188.18 2137.86 1180.34 2129.29 1174.12C2120.58 1167.8 2114.44 1163.43 2108.97 1160.33C2103.74 1157.38 2099.41 1155.77 2094.55 1155.01C2089.52 1154.22 2083.35 1154.24 2074.29 1155.28C2055.06 1157.5 1977.9 1161.53 1904.03 1167.4C1866.78 1170.35 1830.1 1173.78 1801.22 1177.71C1786.75 1179.67 1774.46 1181.73 1765.11 1183.87C1760.42 1184.94 1756.67 1185.98 1753.84 1186.98C1752.43 1187.48 1751.36 1187.92 1750.58 1188.3C1749.78 1188.69 1749.47 1188.92 1749.47 1188.92C1744.74 1192.62 1737.93 1191.88 1734.11 1187.25C1730.29 1182.62 1730.86 1175.78 1735.39 1171.85C1777.58 1135.23 1850.26 1075.2 1920.83 1027.53C1956.07 1003.72 1991.16 982.73 2021.87 969.321C2037.22 962.618 2051.84 957.65 2065.06 955.264Z" fill="#E82117" stroke="#232323" stroke-width="22.1312" stroke-linejoin="round"/>
<path d="M984.005 1072.02C951.276 1104.98 923.082 1142.76 899.226 1183.61C887.737 1203.99 876.735 1224.75 867.634 1246.64C858.046 1268.13 849.822 1289.92 842.574 1312.49C828.027 1357.18 818.062 1403.14 813.507 1449.82C811.229 1473.16 810.267 1496.36 811.498 1519.31C812.728 1542.26 815.762 1565.46 822.108 1586.5C828.503 1607.99 837.432 1628.31 851.182 1644.09C864.883 1659.43 882.919 1669.85 903.241 1672.91C913.621 1674.41 923.806 1674.16 934.769 1672.94C945.684 1671.28 956.062 1668.79 967.171 1664.88C988.559 1657.61 1009.17 1647.32 1029.14 1635.32C1069.08 1611.32 1106.1 1580.99 1141.61 1549.05C1177.12 1517.12 1210.58 1482.75 1243.55 1447.98C1246.32 1445.01 1250.32 1445.01 1252.85 1447.83C1255.34 1450.22 1255.78 1454.17 1253.4 1456.65C1223.45 1494.63 1191.11 1531.1 1157.21 1565.52C1140.02 1582.53 1122.39 1599.6 1103.25 1615.06C1084.1 1630.51 1064.96 1645.97 1044.26 1659.38C1023.56 1672.79 1001.34 1684.6 977.078 1693.97C965.142 1698.41 952.181 1701.63 939.562 1703.93C926.454 1705.84 912.761 1706.48 899.262 1704.88C892.488 1703.86 885.665 1702.4 878.793 1700.5C871.922 1698.61 865.39 1695.78 859.249 1692.47C846.526 1685.9 835.752 1676.89 826.585 1666.37C822.002 1661.11 817.857 1655.8 814.151 1650.44C810.395 1644.65 807.079 1638.8 804.249 1633.34C801.371 1627.45 798.493 1621.55 796.053 1615.61C793.613 1609.67 791.563 1603.24 789.562 1597.24C782.337 1572.3 778.669 1547.4 777.193 1522.25C775.718 1497.11 776.484 1472.16 779.053 1447.45C783.754 1398.09 794.741 1349.35 810.358 1302.32C817.947 1278.83 826.95 1256.06 837.317 1233.59C847.684 1211.12 859.027 1189.43 871.734 1168.03C897.197 1125.67 927.827 1085.85 964.453 1052.01C970.493 1046.45 979.411 1046.79 984.969 1052.82C989.942 1057.6 989.606 1066.52 984.005 1072.02Z" fill="#232323"/>
<path d="M1528.79 1210.22C1528.71 1210.18 1528.63 1210.14 1528.54 1210.1C1528.62 1210.14 1528.71 1210.18 1528.79 1210.22ZM1528.79 1210.22C1528.96 1210.31 1529.09 1210.38 1529.18 1210.43C1529.05 1210.36 1528.92 1210.29 1528.79 1210.22ZM974.337 972.123C1082.08 947.945 1192.74 972.932 1286.51 1013.06C1380.36 1053.22 1458.6 1109.09 1502.24 1148.61C1503.32 1149.59 1504.22 1150.75 1504.9 1152.05C1510.74 1163.21 1519.24 1179.84 1525.75 1193.43C1528.97 1200.16 1531.83 1206.42 1533.63 1210.94C1534.44 1212.99 1535.37 1215.52 1535.81 1217.74C1535.94 1218.36 1536.09 1219.29 1536.13 1220.39C1536.15 1221.22 1536.18 1223.51 1535.08 1226.07C1533.65 1229.39 1530.28 1233.01 1524.95 1233.64C1521.64 1234.03 1519.06 1233.02 1517.76 1232.38C1220.19 1094.07 989.597 1128.01 831.573 1196.06C752.34 1230.18 691.07 1273.01 648.577 1307.5C627.337 1324.74 610.796 1339.9 598.99 1350.89C593.165 1356.31 588.257 1360.95 584.638 1364.18C582.833 1365.79 581.092 1367.29 579.549 1368.45C578.783 1369.03 577.851 1369.69 576.834 1370.28C576.076 1370.72 574.116 1371.82 571.518 1372.22C571.018 1372.3 570.513 1372.35 570.008 1372.36C399.277 1377.5 275.875 1475.83 194.167 1574.97C153.37 1624.47 123.246 1673.85 103.125 1711.19C93.0724 1729.85 85.5325 1745.48 80.418 1756.57C77.8614 1762.11 75.9078 1766.54 74.54 1769.66C73.872 1771.18 73.2962 1772.51 72.8965 1773.41C72.6944 1773.87 72.4982 1774.31 72.3271 1774.68C72.2937 1774.75 71.8755 1775.69 71.334 1776.56C68.8436 1780.54 64.3102 1782.78 59.6328 1782.32C54.9556 1781.86 50.9402 1778.79 49.2686 1774.4C1.75745 1649.57 3.49382 1548.91 35.3975 1468.14C67.2116 1387.6 128.358 1328.52 196.581 1285.37C332.643 1199.31 500.328 1174.47 533.482 1169.2C547.719 1166.94 568.403 1157.57 596.35 1142.44C624.264 1127.33 656.184 1108.35 694.496 1087.15C770.004 1045.36 864.939 998.056 974.192 972.156L974.337 972.123Z" fill="#E82117" stroke="#232323" stroke-width="24.7548" stroke-linejoin="round"/>
<path d="M1751.29 1079.01L1535.01 1091.22C1529.78 1091.52 1525.03 1094.36 1522.28 1098.82L1485.87 1158C1481.69 1164.8 1483.16 1173.64 1489.31 1178.72L1628.54 1293.74C1650.04 1311.49 1681.9 1308.24 1699.36 1286.5L1804.7 1155.4C1809.39 1149.57 1809.41 1141.28 1804.76 1135.42L1764.72 1085.03C1761.48 1080.97 1756.48 1078.72 1751.29 1079.01Z" fill="#58BF43" stroke="#E82117" stroke-width="29" stroke-linejoin="round"/>
<path d="M1639.08 1196.15C1639.66 1195.96 1640.24 1195.96 1640.81 1195.96C1646.21 1195.57 1651.99 1195.38 1657.38 1195C1663.54 1194.61 1668.93 1194.42 1674.91 1194.04C1676.64 1193.85 1678.56 1193.46 1680.11 1192.89C1688.58 1190.01 1691.28 1181.75 1688.97 1172.91C1685.5 1159.85 1674.91 1148.91 1661.62 1146.03C1643.9 1141.99 1624.44 1150.06 1616.55 1166.58C1613.66 1172.53 1612.31 1180.21 1612.89 1187.32C1614.24 1208.63 1631.57 1224.19 1652.95 1224C1661.42 1224 1669.9 1222.27 1676.83 1217.66C1681.84 1214.4 1687.42 1210.17 1685.88 1203.45C1684.54 1198.07 1679.72 1194.61 1674.33 1196.54C1672.59 1197.11 1671.05 1198.07 1669.51 1199.03C1667.39 1200.18 1665.27 1201.53 1662.96 1202.3C1656.99 1204.6 1647.36 1204.99 1641.58 1201.72C1640.43 1200.95 1638.31 1199.61 1637.93 1198.26C1637.54 1197.5 1638.12 1196.54 1639.08 1196.15ZM1637.73 1177.14C1636.96 1176.95 1636.38 1176.37 1636.38 1175.6C1636.38 1175.03 1636.58 1174.26 1636.77 1173.68C1639.27 1167.92 1645.24 1164.85 1651.79 1164.85C1657.57 1164.65 1663.54 1166.96 1666.62 1172.53C1666.82 1172.91 1667.01 1173.3 1667.01 1173.68C1667.01 1174.07 1667.01 1174.45 1666.82 1174.83C1666.43 1175.6 1665.66 1175.99 1664.7 1175.99C1657.96 1176.37 1646.01 1176.95 1638.89 1177.33C1638.5 1177.33 1638.12 1177.33 1637.73 1177.14Z" fill="white"/>
<path d="M1750.33 1055.2C1763 1054.48 1775.24 1059.97 1783.14 1069.91L1823.78 1121.06C1835.15 1135.36 1835.09 1155.63 1823.65 1169.87L1716.48 1303.25C1691.5 1334.34 1645.92 1339 1615.17 1313.6L1473.64 1196.69C1458.6 1184.27 1455.02 1162.67 1465.24 1146.06L1502.19 1086L1502.51 1085.49C1509.26 1074.89 1520.71 1068.16 1533.28 1067.45L1750.33 1055.2ZM1540.44 1114.79L1509.74 1164.69L1645.53 1276.85C1655.78 1285.33 1670.99 1283.77 1679.32 1273.4L1782.21 1145.35L1748.58 1103.03L1540.44 1114.79Z" fill="#E82117" stroke="#232323" stroke-width="20" stroke-linejoin="round"/>
<path d="M2306.69 1331.06C2274.72 1328.29 2229.71 1250.8 2201.29 1214.97L2219.38 1285.56L2221.17 1340.17L2211.14 1368.73L2263.36 1363.16C2274.54 1361.62 2295.78 1339.74 2306.69 1331.06Z" fill="#232323"/>
<path d="M334.113 1590.53C337.208 1598.18 340.304 1605.82 343.399 1613.47C347.403 1611.63 351.519 1609.71 355.647 1607.76C427.746 1571.83 502.266 1536.63 560.206 1479.67C563.113 1476.35 565.98 1472.69 568.256 1469C565.64 1472.46 562.485 1475.81 559.314 1478.81C497.287 1529.46 420.455 1557.43 346.558 1586.07C342.351 1587.61 338.167 1589.11 334.113 1590.53Z" fill="#232323"/>
<path d="M727.387 1835.42C730.3 1843.14 733.212 1850.86 736.125 1858.58C737.617 1857.8 739.148 1856.99 740.678 1856.17C767.345 1841.16 794.724 1826.54 815.884 1804.14C816.928 1802.85 817.969 1801.42 818.756 1800C817.636 1801.18 816.321 1802.29 815.025 1803.25C790.004 1819.2 760.467 1826.57 732.122 1834.26C730.519 1834.67 728.925 1835.06 727.387 1835.42Z" fill="#232323"/>
</svg>
