<svg width="2388" height="2249" viewBox="0 0 2388 2249" fill="none" xmlns="http://www.w3.org/2000/svg">
<path d="M1263.86 95.1435C1304.68 26.8328 1390.75 -29.1489 1467.87 16.6868C1490.78 30.3424 1507.14 52.7639 1513.11 78.7527C1526.46 136.139 1495.06 189.262 1461.32 232.848C1644.74 273.448 1776.66 328.383 1884.19 493.696C1997.12 667.305 1994.48 835.323 1993.98 1034.63C2041.77 1078.73 2062 1095.89 2064.89 1164.06C2120.75 1130.28 2212.63 1078.23 2279.33 1095.67C2368.77 1119.06 2403.54 1245.53 2379.94 1325.98C2339.97 1462.33 2152.68 1557.93 2022.95 1592.78C1995.22 1702.69 1967.04 1779.84 1882.91 1863.13C1909.98 1901.73 2008.98 2039.73 2006.34 2078.95C1997.12 2095.96 1985.58 2099.71 1967.82 2104.94C1956 2108.36 1944.09 2111.45 1932.14 2114.25C1905.9 2149.35 1888.31 2169.78 1852.8 2197.54C1799.9 2219.83 1786.46 2234.49 1720.26 2244.13C1614.21 2259.58 1579.89 2231.61 1499.39 2172.99L1371.71 2069.88C1186.2 2076.97 965.5 2035.12 811.367 1926.86C739.849 1933.25 722.727 1930.86 656.013 1897.24C642.381 1933.82 623.516 1977.86 586.35 1993.88C545.719 2011.35 520.543 1982.47 490.917 1962.62C484.967 1958.62 462.835 1959.16 455.102 1957.43C391.343 1937.28 385.863 1776.88 383.235 1728.39C343.156 1704.21 334.624 1694.74 307.474 1655.73C272.047 1604.81 253.54 1480.08 173.157 1496.35C109.661 1509.2 53.6012 1614 16.0071 1615.69C4.85042 1606.58 0.438064 1596.49 0.104352 1582.07C-5.84479 1325.52 243.71 1177.84 458.876 1112.33C499.267 1100.03 550.103 1085.54 587.483 1070.29C609.178 1019.93 633.58 996.245 683.266 973.514C686.896 936.366 691.284 886.238 699.758 850.169C608.189 932.951 508.842 947.455 388.113 946.788C357.605 946.619 272.714 930.78 249.321 912.342C226.777 876.006 268.149 835.847 291.254 809.372C341.331 752.002 412.783 706.253 487.687 689.833C370.554 678.427 293.371 669.813 233.373 556.738C296.165 463.954 436.657 433.146 542.745 440.792C627.52 446.9 725.084 485.152 789.618 541.323C867.883 418.353 955.958 343.662 1090.54 285.254C1079.58 216.309 1080.3 153.732 1121.18 93.2648C1161.56 33.6006 1224.1 37.543 1263.86 95.1435Z" fill="#010000"/>
<path d="M795.472 609.376C1028.7 491.292 1395.61 454.832 1652.82 477.921C1702.67 482.398 1778.52 487.037 1826.27 500.915C1859.97 509.845 1861.16 511.6 1881.89 548.748C1911.51 601.867 1949.33 707.029 1957.82 765.911C1965.85 783.208 1971.04 822.531 1949.49 832.919C1844.77 883.431 1813.29 748.729 1700.9 754.232C1604.86 758.932 1549.29 802.346 1465.08 841.541C1295.75 919.78 1123.87 951.029 938.969 924.599C863.34 913.786 792.189 886.734 746.61 824.17C754.479 739.625 769.711 689.679 795.472 609.376Z" fill="#E72305"/>
<path d="M1826.26 500.902C1859.96 509.833 1861.16 511.588 1881.88 548.736C1911.5 601.855 1949.33 707.017 1957.81 765.898C1943.52 746.488 1903.64 644.234 1889.42 615.144C1868.9 573.04 1850.28 541.474 1826.26 500.902Z" fill="white"/>
<path d="M1420.95 651.566C1431.83 650.887 1442.83 650.648 1453.62 652.419C1477.02 656.258 1503.51 674.091 1515.96 694.465C1521.89 704.178 1522.71 708.508 1520.03 719.181C1501.95 723.815 1470.22 697.377 1448.27 693.27L1443.82 692.471C1439.78 693.077 1435.91 693.855 1431.91 694.555C1404.35 699.375 1379.79 731.172 1352.89 726.385C1352.44 723.176 1351.98 721.858 1352.93 718.32C1361.62 685.921 1392.28 663.965 1420.95 651.566Z" fill="#010000"/>
<path d="M1830.1 654.616C1837.97 654.542 1846.45 654.221 1854.2 655.523C1875.25 659.057 1891.44 672.321 1903.43 689.379L1901.08 694.368C1881.8 695.484 1862.69 684.618 1843.2 681.878L1839 681.305C1819.14 688.185 1802.82 702.434 1786.3 715.113L1780.82 711.327L1781.11 697.865C1791.08 675.761 1809.38 665.067 1830.1 654.616Z" fill="#010000"/>
<path d="M632.581 1230.44C673.388 1221.95 696.344 1222.24 737.065 1224.87C818.928 1234.43 900.91 1254.7 985.664 1265.61C1162.3 1288.35 1328.99 1291.86 1505.37 1299.15C1715.32 1500.62 1703.78 1450.45 1890.74 1282.96C1903.22 1271.75 1948.05 1258.53 1966.34 1247.57L1980.6 1241.02C1991.02 1250.74 1996.42 1352.86 1997.03 1373.17C2000.78 1504.12 1983.23 1682.49 1900.92 1789.72C1893.95 1801.37 1873.6 1822.84 1860.58 1829.01C1651.46 1728.79 1405.83 1654.03 1195.55 1546.76C1213.68 1525.87 1264.27 1487.77 1265.79 1467.13C1254.59 1427.5 1166.83 1377.04 1126.91 1378.61C1096.73 1379.8 1048.08 1448.35 1030.58 1470.39L995.186 1453.25C1004.16 1431.79 1015.29 1407.61 1012.34 1384.05C1008.86 1356.16 984.049 1314.47 952.178 1317.64C939.451 1344.91 974.854 1356.65 976.358 1378.28C981.03 1445.55 885.102 1505.77 828.115 1513.6C739.381 1521.8 670.294 1468.49 642.419 1386.15C623.974 1331.73 628.218 1286.17 632.581 1230.44Z" fill="#FCEA2B"/>
<path d="M632.581 1230.44C673.388 1221.95 696.344 1222.24 737.065 1224.87C724.055 1232.12 718.884 1242.51 711.654 1255.11C661.898 1341.74 714.311 1434.3 789.693 1484.47C803.73 1493.78 815.537 1502.35 828.115 1513.6C739.381 1521.8 670.294 1468.49 642.419 1386.15C623.974 1331.73 628.218 1286.17 632.581 1230.44Z" fill="#FBB41F"/>
<path d="M1966.34 1247.57L1980.6 1241.02C1991.02 1250.74 1996.42 1352.86 1997.03 1373.16C2000.78 1504.12 1983.23 1682.48 1900.92 1789.71C1893.17 1779.99 1925.1 1721.53 1929.3 1700.48C1959.09 1552.44 1961.27 1396.93 1966.34 1247.57Z" fill="#F9F5C5"/>
<path d="M1475.66 868.125C1568.44 957.972 1738.31 931.303 1832.16 857.32C1872.7 874.712 1898.2 885.67 1942.2 872.162L1955.22 865.015L1960 867.569C1962.59 924.02 1955.59 1037.56 1959.05 1098.85C1957.44 1101.48 1955.84 1104.12 1954.19 1106.75C1944.47 1110.16 1868.29 1165.73 1853.46 1175.67C1823.34 1137.28 1815.27 1132.75 1764.22 1134.69C1696.37 1137.27 1625.3 1133.56 1558.43 1146.03C1532.31 1150.91 1513.89 1190.34 1501.58 1212.03C1404.18 1172.94 1304.56 1139.66 1203.21 1112.38C1054.83 1072.44 867.449 1033.07 723.99 986.428C724.279 948.724 731.163 897.031 735.262 858.433C760.575 883.396 799.376 907.436 832.566 919.502C1050.46 998.712 1271.11 955.986 1475.66 868.125Z" fill="#FCEA2B"/>
<path d="M1942.2 872.151L1955.22 865.004L1960 867.558C1962.59 924.009 1955.59 1037.55 1959.05 1098.84C1957.44 1101.47 1955.84 1104.11 1954.19 1106.74C1917.52 1063.55 1934.45 927.449 1942.2 872.151Z" fill="#F9F5C5"/>
<path d="M1175.57 1578.94C1237.45 1602.25 1305.47 1634.75 1367.31 1661.53C1467.87 1704.54 1568.73 1746.88 1669.87 1788.57C1713.21 1806.45 1781.27 1836.6 1823.63 1850.44C1862.52 1903.05 1913.36 1972.29 1942.98 2030.41C1948.21 2036.47 1960 2059.58 1964.65 2068.15C1901.37 2080.14 1804.51 2097.93 1741.81 2087.18C1661.67 2073.46 1155.59 1791.99 1070.84 1735.22C1110.19 1712.82 1128.02 1698.97 1150.72 1660.21C1160.03 1632.16 1167.74 1607.61 1175.57 1578.94Z" fill="#D2D2D2"/>
<path d="M1175.57 1578.94C1237.45 1602.25 1305.47 1634.75 1367.31 1661.53C1467.88 1704.54 1568.73 1746.88 1669.88 1788.57C1713.22 1806.45 1781.28 1836.6 1823.63 1850.44C1862.52 1903.05 1913.36 1972.29 1942.99 2030.41C1941.79 2030.79 1940.6 2031.28 1939.36 2031.49C1920.37 2034.9 1214.71 1695.97 1150.73 1660.21C1160.04 1632.16 1167.74 1607.61 1175.57 1578.94Z" fill="white"/>
<path d="M685.064 1009.08C753.331 1019.49 823.505 1042.72 890.606 1059.57C993.875 1085.5 1417.53 1181.22 1486.25 1245.05C1491.36 1249.75 1490.57 1250.78 1490.9 1257.7C1456.01 1280.97 1003.97 1232.16 943.081 1224.17C856.958 1212.88 760.998 1185.24 674.34 1191.11C637.022 1193.63 603.354 1210.07 569.814 1225.2C369.088 1295.89 187.079 1411.31 37.5596 1562.69C38.1446 1547.08 38.944 1531.14 41.2553 1515.69C71.759 1311.95 296.211 1198.83 470.347 1138.82C514.793 1123.51 606.242 1101.47 641.582 1075.43C638.369 1071.74 635.065 1068.19 631.662 1064.67C644.66 1040.45 662.775 1024.57 685.064 1009.08Z" fill="#E72305"/>
<path d="M582.204 1514.18C624.025 1506.6 594.226 1453.13 612.815 1431.26C627.474 1439.21 641.135 1469.03 655.155 1482.63C670.457 1497.5 684.472 1507.92 701.529 1520.73L761.618 1547.26C783.029 1600.52 874.626 1629.93 927.184 1667.46L924.906 1671.7C909.563 1699.84 853.524 1751.7 861.781 1778.1C873.3 1814.89 959.155 1873.84 998.978 1857.48C1026.86 1846.03 1037.46 1788.65 1050.68 1761.13C1182.98 1840.64 1317.54 1916.39 1454.2 1988.23C1471.71 1997.58 1481.47 2002.57 1497.33 2014.68C1432.24 2028.52 1307.2 2041.86 1242.43 2031.2C1131.69 2037.37 948.702 1981.68 855.593 1917.05C769.001 1868.4 667.066 1738.15 621.743 1650.32C602.124 1612.3 589.48 1576.01 570.99 1539.51L569.058 1532.26C574.825 1518.79 571.225 1522.54 582.204 1514.18Z" fill="#FCD323"/>
<path d="M582.204 1514.18C624.025 1506.6 594.226 1453.13 612.815 1431.26C627.474 1439.21 641.135 1469.03 655.155 1482.63C670.457 1497.5 684.472 1507.92 701.529 1520.73C691.695 1539.02 700.313 1567.03 706.155 1586.31C745.702 1716.81 828.269 1813.74 916.312 1914.08C909.057 1925.86 914.07 1922.2 900.99 1925.78C874.474 1916.93 874.787 1910.33 855.593 1917.05C769.001 1868.4 667.066 1738.15 621.743 1650.32C602.124 1612.3 589.48 1576.01 570.99 1539.51L569.058 1532.26C574.825 1518.79 571.225 1522.54 582.204 1514.18Z" fill="#FBB41F"/>
<path d="M1454.2 1988.22C1471.71 1997.57 1481.47 2002.55 1497.33 2014.66C1432.24 2028.51 1307.2 2041.85 1242.43 2031.18C1278.07 2030.98 1290.93 2022.37 1324.21 2012.81C1355.57 2003.83 1432.77 2007 1454.2 1988.22Z" fill="#FB9326"/>
<path d="M271.068 557.334C277.298 551.324 283.68 545.478 290.214 539.798C414.511 432.856 658.364 454.376 766.746 581.127C756.381 606.671 735.74 653.846 736.428 679.731C728.72 706.243 719.977 734.09 714.564 761.034C672.487 915.9 409.955 935.475 278.41 893.042C342.396 764.799 475.741 710.635 608.991 695.101C630.967 692.538 683.681 685.569 700.902 674.022C681.155 659.448 450.33 662.529 401.727 649.891C331.248 631.568 312.881 618.115 271.068 557.334Z" fill="#E72305"/>
<path d="M714.563 761.049C701.952 737.994 695.966 707.156 714.072 685.369C727.726 678.49 723.379 678.23 736.427 679.746C728.719 706.258 719.976 734.105 714.563 761.049Z" fill="white"/>
<path d="M815.115 571.083C922.402 393.581 1088.03 287.781 1294.68 268.379C1367.31 261.561 1455.56 262.319 1526.01 281.964C1624.27 302.367 1705.55 348.615 1779.09 415.908C1794.71 430.198 1822.19 453.431 1827.34 473.624C1816.87 477.298 1817.57 475.173 1804.43 471.861C1462.89 416.493 1138.04 442.161 815.115 571.083Z" fill="#FCD323"/>
<path d="M1526.01 281.953C1624.27 302.356 1705.55 348.604 1779.09 415.897C1794.71 430.187 1822.19 453.42 1827.34 473.613C1816.87 477.287 1817.57 475.162 1804.43 471.85C1751.98 418.278 1712.35 375.206 1645.9 337.762C1621.14 323.822 1536.27 296.688 1526.01 281.953Z" fill="white"/>
<path d="M2173.78 1140.32C2215.76 1127.33 2253.99 1115.07 2294.99 1136.89C2370.05 1176.82 2372.19 1288.36 2334.12 1354.27C2306.32 1402.43 2274.96 1429.33 2229.81 1457.63C2159.07 1504.26 2108.48 1522.96 2030.69 1553.19C2042.06 1419.89 2034.57 1353.37 2015.7 1223.61L2058.87 1197.05C2121.29 1166.28 2142.26 1151.25 2212.96 1172.89C2260.91 1187.57 2268.37 1255.16 2283.74 1255.16C2295.4 1179.71 2237.51 1150.95 2173.78 1140.32Z" fill="#FCD323"/>
<path d="M2298.2 1141.37C2209.8 1112.57 2115.7 1165.7 2079.7 1195.87L2090.7 1234.37L2175.2 1285.37H2298.2L2331.7 1234.37C2333.03 1221.54 2328.2 1184.97 2298.2 1141.37Z" fill="#FCD323"/>
<path d="M2058.87 1197.04C2046.47 1275.29 2041.98 1360.77 2124.22 1399.33C2203.44 1392.74 2227.58 1371.89 2287.9 1322.38C2280.32 1352.2 2274.92 1372.92 2258.73 1399.94C2249.3 1415.64 2225.11 1441.06 2229.81 1457.62C2159.07 1504.25 2108.48 1522.95 2030.69 1553.18C2042.06 1419.88 2034.57 1353.36 2015.7 1223.6L2058.87 1197.04Z" fill="#FB9326"/>
<path d="M530.659 1941.05C535.871 1930.96 540.572 1920.58 544.737 1909.99C553.677 1887.33 561.975 1849.35 552.108 1826.86C531.945 1844.7 514.678 1965.07 465.932 1921.61C396.12 1859.41 418.837 1432.27 524.158 1440.88C550.097 1451.88 567.681 1489.41 582.203 1514.17C571.224 1522.53 574.825 1518.78 569.057 1532.25L570.989 1539.5C568.966 1542.84 566.663 1549.01 565.069 1552.85C580.008 1686.27 675.614 1806.8 764.921 1900.27C719.52 1889.93 703.011 1887.21 663.753 1860.19C663.983 1842.68 666.62 1828.72 655.208 1816.23C624.873 1829.5 628.82 1911.23 563.511 1965.35C550.348 1957.28 542.442 1950.65 530.659 1941.05Z" fill="#FB9326"/>
<path d="M1694.39 1163.44C1732.17 1161.65 1769.99 1161.58 1807.81 1161.33C1833.52 1188.22 1853.95 1219.7 1868.04 1254.14C1865.82 1257.68 1863.47 1261.18 1860.96 1264.52C1832.98 1302.71 1739.75 1401.98 1694.47 1408.78C1688.45 1407.5 1682.65 1405.77 1677.17 1402.97C1643.42 1385.75 1527.2 1296.53 1518.39 1258.22C1512.12 1231.03 1549.08 1187.49 1564.2 1166.05L1694.39 1163.44Z" fill="#E72305"/>
<path d="M1753.96 1188.01C1768.01 1186.62 1782.92 1188.2 1797.05 1188.73C1815.3 1207.2 1828.04 1229.05 1841.63 1251.01C1800.1 1298.59 1752.56 1351.93 1699.91 1387.15L1659.61 1359.1C1618.21 1327.54 1573.63 1296.61 1539.97 1256.53C1548.01 1234.94 1561.89 1214.43 1573.38 1194.45C1632.55 1188.17 1694.39 1189.95 1753.96 1188.01Z" fill="#010000"/>
<path d="M1601.2 1216.64C1663.24 1217.78 1725.41 1215.39 1787.42 1213.97C1795.33 1225.56 1802.29 1237.92 1809.54 1249.91C1785.48 1275.36 1760.35 1299.42 1734.89 1323.48C1722.86 1334.43 1711.86 1347.16 1700.57 1358.94C1654.84 1324.05 1609.39 1289.74 1567.21 1250.48C1577.09 1234.91 1583.89 1223.5 1601.2 1216.64Z" fill="#47C332"/>
<path d="M1718.9 1293.55C1729.7 1294.66 1735.63 1296.59 1739.75 1306.03C1721.04 1332.31 1662.83 1331.32 1643.84 1304.83C1635.8 1280.86 1650.72 1244.61 1672.1 1231.63C1700.12 1214.64 1753.22 1245.68 1740.57 1280.65C1725.78 1289.22 1704.89 1282.26 1677.99 1289.14C1689.94 1289.84 1708.11 1290.13 1718.9 1293.55Z" fill="white"/>
<path d="M1677.99 1289.11C1689.94 1289.81 1708.11 1290.1 1718.9 1293.52C1704.15 1301.88 1696.78 1303.82 1681.16 1297.55L1677.99 1289.11Z" fill="#47C332"/>
<path d="M516.182 1275.08C542.722 1264.95 577.375 1252.8 602.383 1240.69C579.385 1267.09 560.413 1289.17 539.941 1317.39C517.496 1348.37 501.812 1395 473.862 1417.16C418.726 1460.87 392.865 1574.15 387.744 1643.06C386.549 1659.91 385.581 1676.8 384.839 1693.69C336.398 1655.71 317.78 1612.33 299.141 1554C272.803 1495.3 244.149 1474.95 181.885 1465.15C260.093 1393.84 418.297 1312.57 516.182 1275.08Z" fill="#E72305"/>
<path d="M181.885 1465.16C260.093 1393.85 418.297 1312.58 516.182 1275.09C505.4 1294.99 469.891 1325.39 450.811 1339.44C384.197 1388.46 322.369 1472.74 299.141 1554.01C272.803 1495.31 244.149 1474.96 181.885 1465.16Z" fill="#A30E03"/>
<path d="M1374.52 40.2544C1553.49 10.0392 1470.8 213.653 1404.55 235.593C1321.41 228.355 1201.48 244.985 1123.45 273.927C1102.02 172.378 1141.87 -6.78414 1258.91 147.637C1297.81 134.995 1282.19 67.7344 1374.52 40.2544Z" fill="#FCD323"/>
<path d="M1374.52 40.2544C1553.49 10.0392 1470.8 213.653 1404.55 235.593C1408.59 220.351 1423.79 197.847 1431.41 182.655C1475.74 94.3206 1468.58 66.7128 1374.52 40.2544Z" fill="white"/>
<path d="M962.379 1661.15C966.252 1567.93 1002.05 1536.29 1065.48 1474.29C1088.62 1451.68 1101.47 1430.3 1129.96 1410.69C1170.66 1427.58 1187.02 1434.5 1218.99 1465.44C1170.66 1510.63 1147.14 1534.81 1124.77 1597.71C1114.19 1650.39 1093.89 1671.32 1048.04 1696.41L1029.29 1683.06C1008.3 1683.35 1000.74 1676.96 985.022 1665.1C969.774 1666.21 975.175 1667.78 962.379 1661.15Z" fill="#47C332"/>
<path d="M985.022 1665.11C964.443 1579.51 1092.56 1464.25 1111.29 1575.55C1125.63 1587.17 1108.34 1588.08 1124.77 1597.72C1114.19 1650.4 1093.9 1671.33 1048.04 1696.41L1029.29 1683.07C1008.3 1683.36 1000.74 1676.97 985.022 1665.11Z" fill="#FCEA2B"/>
<path d="M1111.29 1575.53C1125.64 1587.15 1108.34 1588.05 1124.77 1597.69C1114.2 1650.38 1093.9 1671.31 1048.04 1696.39L1029.29 1683.05C1079.1 1665.7 1101.58 1625.13 1111.29 1575.53Z" fill="#47C332"/>
<path d="M1547.88 2043.62C1572.85 2032.83 1736.16 2152.54 1753.88 2151.22C1749.1 2143.64 1745.8 2137.62 1743.74 2128.89C1755.73 2119.79 1858.69 2120.69 1881.97 2119.66C1850.12 2148.5 1820.5 2171.49 1781.19 2189.98C1752.6 2199.74 1724.05 2207.45 1693.89 2210.41C1587.27 2220.84 1499.56 2128.73 1423.75 2065.5C1465.61 2061.09 1507.06 2053.76 1547.88 2043.62Z" fill="#FB9326"/>
<path d="M1659.82 783.338C1677 781.814 1694.18 780.434 1711.44 781.579C1753.51 784.38 1782.76 804.989 1809.5 836.107C1767.43 869.852 1725.66 880.002 1673.71 888.97C1633.41 892.307 1585.54 892.158 1547.1 878.511C1534.16 873.922 1528.77 869.391 1523.17 857.226C1524.03 853.198 1524.77 849.569 1527 846.026C1545.54 816.804 1627.19 791.709 1659.82 783.338Z" fill="#FB9326"/>
<path d="M962.38 1661.16C975.176 1667.79 969.775 1666.23 985.023 1665.12C1000.74 1676.98 1008.3 1683.36 1029.29 1683.08L1048.04 1696.42C1014.06 1718.79 997.572 1783.34 981.838 1823.21C939.943 1806.82 927.489 1800.35 895.357 1768.84C924.069 1735.64 953.926 1704.62 962.38 1661.16Z" fill="#47AB2D"/>
<path d="M2005.28 1094.25C2013.47 1099.45 2018.17 1107.22 2022.78 1115.64C2029.95 1128.74 2033.29 1138.95 2028.43 1153.49C2012.44 1201.21 1935.81 1229.3 1894.33 1248.17C1887.45 1231.2 1877.64 1214.92 1868.95 1198.76C1917.03 1166.67 1965.72 1136.94 2005.28 1094.25Z" fill="#E72305"/>
<path d="M842.056 1559.58C871.464 1547.79 897.823 1537.25 924.578 1519.66C944.634 1506.44 958.513 1487.78 982.318 1485.1L993.78 1490.04L993.174 1489.42C994.83 1507.22 946.212 1541.94 936.035 1601.76C932.735 1616.75 935.652 1614.53 926.288 1622.97C900.353 1622.56 850.708 1585.4 836.737 1564.35L842.056 1559.58Z" fill="#FB9326"/>
<path d="M936.035 1601.75C932.735 1616.74 935.652 1614.52 926.288 1622.96C900.353 1622.55 850.708 1585.39 836.737 1564.34L842.056 1559.57C884.78 1569.12 895.747 1588.28 936.035 1601.75Z" fill="#DD7418"/>
<path d="M587.448 1292.11C591.576 1345.46 591.515 1381.79 575.13 1432.87L548.985 1410.26C538.689 1404.69 526.671 1401.19 515.684 1397.16C541.866 1363.38 564.706 1328.28 587.448 1292.11Z" fill="#A30E03"/>
</svg>
