<svg width="2514" height="2232" viewBox="0 0 2514 2232" fill="none" xmlns="http://www.w3.org/2000/svg">
<path d="M1394.83 92.3119C1510.72 -85.3709 1743.95 16.3064 1609.19 204.003C1604.45 210.59 1599.67 217.123 1594.77 223.611C1761.7 252.158 1904.91 317.325 2004.74 459.59C2137.52 648.811 2126.11 805.3 2124.63 1019.67C2173.49 1068.05 2184.16 1077.16 2192.85 1146.4C2244.85 1110.13 2329.51 1067.6 2394.36 1079.23C2488.91 1096.2 2526.98 1213.36 2508.81 1297.31C2490.14 1383.49 2421.63 1445.24 2349.82 1490.05C2278.67 1535.2 2218.81 1558.19 2140.24 1584.35C2125.16 1678.93 2091.91 1744.51 2032.09 1818.86C2048.04 1838.8 2139.99 1944.04 2129.94 1967.53C2091.42 2057.49 1991.84 2137.86 1906.19 2182.14C1786.09 2230.96 1745.22 2268.73 1646.02 2165.75C1614.58 2133.82 1573.51 2090.53 1540.09 2061.16C1372.33 2078.25 1152.16 2054.73 999.028 1981.41C941.226 2009.71 880.251 2003.16 819.771 1993.93C797.4 2158.54 624.57 2160.6 545.839 2033.15C491.91 1945.86 472.134 1898.28 471.269 1795.87C449.062 1797.81 426.032 1800.4 403.826 1799.46C361.02 1711.34 292.712 1621.05 184.029 1673.94C119.635 1705.25 105.957 1761.93 66.2826 1813.92C63.0278 1813.79 59.7732 1813.63 56.5597 1813.46C-36.2205 1761.52 3.53636 1601.89 46.0949 1529.56C170.392 1318.28 445.767 1193.02 670.013 1125.66C686.039 1067.51 711.871 1015.25 766.295 983.922C776.883 977.945 787.677 972.285 798.636 966.955L817.258 837.62C742.111 914.297 629.349 933.341 525.898 937.691C489.808 939.211 349.732 932.006 354.058 879.699C357.024 843.606 423.56 776.354 451.081 753.763C495.865 717.159 548.311 691.096 604.506 677.498C486.883 671.579 405.309 655.213 343.923 545.379C459.857 402.262 697.039 399.123 847.004 487.017C869.498 500.207 889.192 512.717 910.492 527.571C977.934 418.162 1094.49 316.926 1216.23 273.99C1205.11 210.433 1207.33 153.476 1244.86 98.3714C1286.43 37.3107 1348.89 36.4415 1394.83 92.3119Z" fill="#010000"/>
<path d="M916.669 595.995C1186.81 465.508 1666.57 419.865 1958.63 489.037C1991.3 497.074 1994.56 498.021 2014.7 532.616C2046.59 587.394 2082.89 691.489 2092.2 753.563C2133.61 852.262 2010.67 843.027 1964.98 800.396C1953.81 789.966 1932.31 772.673 1919.41 765.353C1893.54 750.742 1864.58 742.429 1834.91 741.094C1743.04 737.428 1648.82 807.036 1566.83 840.357C1491.07 871.145 1397.67 902.79 1316.42 911.474C1180.42 926.007 959.145 933.627 867.807 814.682C868.507 736.835 891.62 668.45 916.669 595.995Z" fill="#E72305"/>
<path d="M1958.64 489.059C1991.31 497.095 1994.56 498.043 2014.71 532.637C2046.6 587.416 2082.89 691.511 2092.2 753.585C2081.66 739.015 2042.11 643.335 2032.46 621.499C2008.12 566.424 1991.92 539.759 1958.64 489.059Z" fill="white"/>
<path d="M1548.95 639.265C1577.25 636.987 1605.27 640.191 1627.64 659.462C1640.25 670.295 1650.67 686.624 1651.33 703.444L1646.26 707.102C1624.72 705.025 1604.4 686.876 1582.78 680.301L1578.24 678.954C1545.33 681.142 1506.68 717.284 1486.21 712.868C1484.56 705.515 1484.15 704.004 1486.62 696.857C1497.29 665.974 1520.94 652.29 1548.95 639.265Z" fill="#010000"/>
<path d="M1964.2 642.633C1970.67 642.695 1977.17 642.814 1983.6 643.519C2004.94 645.842 2024.22 662.265 2036.91 678.594L2035.72 683.608C2016.73 685.202 1997.98 672.906 1978.58 670.047L1974.5 669.47C1952.5 677.054 1939.07 693.395 1918.8 702.73C1913.48 695.875 1914.59 693.988 1914.8 685.573C1925.68 663.666 1942.98 653.071 1964.2 642.633Z" fill="#010000"/>
<path d="M2091.5 1232.22L2104.03 1229.09C2119.06 1245.24 2118.07 1409.4 2117 1441.86C2113.62 1542.37 2096.69 1643.95 2047.71 1733.05C2037.2 1755.46 2021.92 1773.38 2006.71 1792.91C1991.26 1775.11 1975.44 1757.6 1959.33 1740.34C1890.82 1722.26 1794.37 1687.66 1724.87 1664.84C1572.1 1616.31 1420.49 1564.08 1270.28 1508.18C1283.59 1482.8 1323.47 1434.07 1320.58 1412.07C1303.07 1371.17 1210.79 1339.16 1168.89 1350.57C1142.69 1357.66 1115.25 1414.92 1102.31 1437.74C1082 1416.81 1010.19 1357.78 983.206 1360.25C971.134 1406.18 1054.19 1418.5 1057.24 1465.01C1059.92 1505.25 1015.59 1574.38 991.404 1603.87C976.572 1617.92 967.798 1621.5 949.67 1630.73C841.687 1605.64 729.543 1516.25 699.056 1406.39C689.251 1370.96 691.929 1340.85 694.936 1305.01C735.929 1290.1 777.788 1277.62 820.264 1267.53C1049.08 1227.82 1370.02 1262.58 1606.79 1283.59C1823.71 1493.18 1801.91 1461.67 2002.96 1273.66C2013.59 1263.7 2070.53 1245.94 2091.5 1232.22Z" fill="#FCEA2B"/>
<path d="M694.936 1305.02C735.929 1290.11 777.788 1277.62 820.264 1267.53C811.983 1288.7 802.095 1295.05 791.342 1313.09C703.712 1459.9 871.474 1572.03 991.404 1603.87C976.572 1617.92 967.798 1621.5 949.67 1630.73C841.687 1605.64 729.543 1516.26 699.056 1406.39C689.251 1370.97 691.929 1340.86 694.936 1305.02Z" fill="#FCD323"/>
<path d="M2091.5 1232.22L2104.02 1229.09C2119.06 1245.24 2118.07 1409.4 2117 1441.86C2113.62 1542.37 2096.69 1643.95 2047.7 1733.05C2041.98 1719.99 2067.19 1620.1 2070.61 1596.78C2088.37 1475.31 2087.96 1354.53 2091.5 1232.22Z" fill="#F9F5C5"/>
<path d="M1968.07 843.746C2005.56 864.277 2034.81 872.779 2076.88 859.198L2089.57 853.579C2096.49 864.058 2089.49 1078.84 2080.87 1091.23C2039.92 1118.14 2011.12 1140.68 1967.58 1165.08C1950.07 1143.43 1943.6 1136.78 1919.79 1122.87C1854.82 1119.46 1736.74 1121.62 1670.9 1127.72C1640.29 1130.55 1617.76 1174.82 1601.65 1201.04C1471.29 1144.25 1306.33 1095.42 1170.75 1055.88C1065.73 1025.26 949.797 993.393 842.432 973.723C842.226 930.487 849.106 889.149 855.245 846.489C998 982.954 1316.14 957.229 1487.28 900.976C1523 889.232 1568.73 869.945 1604.7 855.746C1700.98 949.452 1868.25 914.528 1968.07 843.746Z" fill="#FCEA2B"/>
<path d="M2076.88 859.189L2089.57 853.57C2096.49 864.05 2089.49 1078.84 2080.88 1091.22C2051.71 1042.3 2061.64 914.503 2076.88 859.189Z" fill="#F9F5C5"/>
<path d="M802.305 1001.04C929.486 993.033 1444.93 1157.27 1572.03 1219.7C1583.97 1225.55 1589.91 1229.01 1594.36 1241.74C1592.25 1243.1 1590.48 1245.2 1588.05 1245.78C1566.46 1250.97 1357.79 1225.76 1315.19 1222.54C1235.59 1216.53 1155.05 1211.55 1075.21 1210.39C986.547 1209.12 895.373 1210.19 808.526 1230.12C664 1263.28 535.417 1336.77 412.232 1417.1C274.092 1509 146.54 1629.78 56.8082 1769.84C45.8493 1747.39 38.8458 1723.99 36.4974 1699.07C11.4896 1430.78 396.082 1248.74 601.624 1176.73C632.894 1165.76 787.02 1126.53 797.567 1113.76L795.466 1108.51C768.851 1102.76 731.483 1114.89 704.58 1120.27C726.045 1068.12 752.619 1029.19 802.305 1001.04Z" fill="#E72305"/>
<path d="M1257.35 1540.86C1417.45 1599.19 1578.49 1655.05 1740.32 1708.39C1784.36 1723.02 1892.06 1762.35 1932.43 1770.18C1966.88 1809.03 2045.77 1896.93 2070.24 1939.36C2073.17 1941.83 2087.1 1964.53 2090.19 1969.35C2029.42 2001.19 1937.75 2008.65 1868.12 2020.14C1659.24 1940.19 1374.81 1815 1179.89 1712.59C1214.99 1681.9 1228.34 1669.42 1244.33 1626.54C1252.2 1594.9 1254.01 1573.11 1257.35 1540.86Z" fill="#D2D2D2"/>
<path d="M1257.35 1540.86C1417.44 1599.19 1578.49 1655.05 1740.32 1708.39C1784.36 1723.02 1892.06 1762.35 1932.43 1770.18C1966.87 1809.03 2045.77 1896.93 2070.24 1939.36C2036.54 1949.78 1331.05 1664.81 1244.33 1626.54C1252.2 1594.9 1254.01 1573.11 1257.35 1540.86Z" fill="white"/>
<path d="M658.806 1631.74C669.106 1652.79 689.623 1686.45 683.485 1707.87C634.499 1700.62 539.453 1467.8 652.915 1448.64C674.092 1459.06 689.5 1487.77 704.867 1506.35C733.707 1541.12 763.988 1570.53 798.512 1599.65C840.989 1626.43 882.682 1655.27 932.821 1665.44C964.668 1671.87 1017.4 1635.41 1029.43 1679.2C1022.14 1715.24 968.623 1766.73 991.118 1797.46C1019.38 1836.19 1153.73 1892.66 1160.12 1806.07C1161.48 1787.54 1166.01 1759.77 1170.21 1743.38C1332.7 1826.63 1490.12 1895.13 1655.08 1971.34C1668.64 1977.15 1681.65 1982.67 1694.92 1989.22C1598.19 2013.61 1516.32 2032.31 1415.63 2031.69C1369.94 2035.44 1312.06 2029.51 1266.53 2023.74C1127.16 2006.11 1032.93 1975.05 918.072 1896.08C853.184 1863.37 748.909 1746.63 708.74 1687.15C698.316 1671.74 681.301 1635.16 670.26 1626.72L658.806 1631.74Z" fill="#FCD323"/>
<path d="M658.806 1631.74C669.106 1652.79 689.623 1686.45 683.485 1707.87C634.499 1700.62 539.453 1467.8 652.915 1448.64C674.092 1459.06 689.5 1487.77 704.867 1506.35C733.707 1541.12 763.988 1570.53 798.513 1599.65C776.512 1666.02 1003.81 1895.34 1050.65 1931.96C1022.39 1923.23 935.87 1886.9 918.072 1896.08C853.184 1863.37 748.909 1746.63 708.74 1687.15C698.316 1671.74 681.301 1635.16 670.26 1626.72L658.806 1631.74Z" fill="#FB9326"/>
<path d="M658.806 1631.74C669.106 1652.79 689.623 1686.45 683.485 1707.87C634.499 1700.62 539.453 1467.8 652.915 1448.64C627.454 1499.93 621.068 1540.71 637.095 1598.13C639.855 1608.06 648.548 1629.03 658.806 1631.74Z" fill="#FCEA2B"/>
<path d="M1655.08 1971.31C1668.64 1977.12 1681.66 1982.64 1694.92 1989.19C1598.19 2013.57 1516.32 2032.27 1415.63 2031.66L1410.28 2017.28C1414.81 1995.04 1623.73 2001.21 1655.08 1971.31Z" fill="#FB9326"/>
<path d="M380.594 545.101C389.493 538.473 398.433 531.948 407.455 525.53C535.914 434.612 789.288 432.343 885.405 569.108C871.933 601.128 864.599 622.396 854.464 655.638C846.719 686.826 838.067 718.574 833.371 750.301C820.681 789.595 770.336 839.616 733.545 858.095C623.132 913.516 504.932 917.767 389.534 884.813C456.935 762.304 567.431 706.006 700.339 686.991C724.317 683.563 797.61 674.023 811.618 661.776C792.913 646.914 579.75 651.173 531.423 641.019C450.756 624.072 430.445 611.047 380.594 545.101Z" fill="#E72305"/>
<path d="M854.461 655.66C846.716 686.848 838.064 718.595 833.367 750.322C806.67 704.458 814.333 685.966 854.461 655.66Z" fill="white"/>
<path d="M935.783 557.994C996.305 462.075 1062.97 393.291 1161.8 335.629C1292.69 259.281 1510.84 228.897 1656.73 270.082C1754.45 287.89 1841.46 336.852 1913.64 404.088C1929.42 418.798 1956.32 441.602 1962.59 461.75C1953.93 466.31 1952.29 463.221 1939.39 459.888C1591.63 405.179 1265 426.126 935.783 557.994Z" fill="#FCD323"/>
<path d="M1656.73 270.074C1754.45 287.882 1841.46 336.844 1913.64 404.08C1929.42 418.79 1956.33 441.594 1962.59 461.742C1953.94 466.302 1952.29 463.213 1939.39 459.88C1890.94 411.202 1855.22 373.498 1796.97 335.143C1767.8 315.934 1665.87 284.092 1656.73 270.074Z" fill="white"/>
<path d="M2297.87 1123.7C2328.6 1113.89 2350.48 1105.61 2383.4 1109.49C2489.98 1122.08 2504.11 1265.2 2458.17 1341.41C2429.33 1389.23 2399.83 1416.71 2352.25 1445.54C2301.53 1485.38 2213.2 1520.8 2152.43 1541.07C2162.78 1411.64 2155.48 1340.25 2138.51 1213.21L2185.64 1183.09C2213.08 1164.66 2235.7 1154.98 2266.97 1144.08C2306.81 1150.39 2351.75 1153.25 2377.05 1187.95C2392.87 1209.67 2390.52 1228.37 2401.81 1249.96L2406.51 1246.87C2421.59 1165.52 2365.31 1139.61 2297.87 1123.7Z" fill="#FCD323"/>
<path d="M2138.51 1213.21L2185.64 1183.08C2170.31 1233.93 2169.74 1296.62 2196.15 1343.21C2252.38 1442.32 2364.73 1342.02 2415.08 1300.74C2404.98 1353.76 2352.74 1431.65 2352.25 1445.54C2301.53 1485.37 2213.2 1520.8 2152.43 1541.06C2162.78 1411.63 2155.48 1340.25 2138.51 1213.21Z" fill="#FB9326"/>
<path d="M649.986 1318.72C655.836 1325.97 658.844 1403.17 661.151 1419.73C647.926 1420.96 634.371 1422.49 622.176 1428.21C600.877 1438.22 584.851 1458.78 577.723 1480.86C555.393 1549.98 589.341 1632.61 620.817 1693.5C596.839 1694.69 572.079 1696.05 548.925 1702.85C513.617 1713.23 495.284 1735.19 478.104 1766.49L425.822 1768.22C404.522 1728.84 386.189 1698.03 351.252 1669.36C297.24 1633.48 254.105 1629.77 191.317 1636.36C289.371 1499.64 498.332 1385.99 649.986 1318.72Z" fill="#A30E03"/>
<path d="M602.245 1727.7C636.646 1728.73 670.099 1731.28 704.253 1735.69C773.179 1835.99 850.057 1898.44 950.459 1965.42C909.589 1970.41 851.293 1976.71 813.596 1958.67C807.375 1955.7 802.925 1954.13 796.127 1952.78C787.476 1962.78 789.041 1991.25 787.97 2005.21C740.797 1994.71 733.875 1981.98 701.987 1950.26L700.298 1948.57C699.021 1961.22 697.991 1975.55 703.841 1987.25C717.231 2014.03 752.827 2022.84 779.071 2032.44C749.366 2072.03 730.085 2083.11 681.8 2094.03C659.882 2088.79 642.867 2083.4 625.028 2069.43C560.469 2018.97 515.603 1923.82 507.281 1843.32C504.068 1812.31 506.292 1778.36 527.921 1753.85C549.221 1729.71 572.458 1729.47 602.245 1727.7Z" fill="#FB9326"/>
<path d="M1695.87 1150.91C1769.28 1149.03 1842.74 1148.38 1916.16 1148.94C1943.68 1177.05 1963 1206.9 1980.84 1241.83C1954.84 1288.54 1905.65 1325.7 1866.39 1361.74C1851.93 1375.17 1829.97 1399.81 1809.7 1401.91C1790.21 1403.93 1761.83 1381.93 1747.37 1370.72C1713.79 1344.69 1624.84 1279.48 1619.4 1236.72C1622.82 1214.73 1643.01 1184.68 1657.55 1167.87C1668.84 1154.82 1679.51 1152.54 1695.87 1150.91Z" fill="#E72305"/>
<path d="M1680.38 1179.18C1755.48 1173.73 1833.39 1177.15 1908.87 1176.01C1925.76 1196.51 1939.52 1218.05 1953.44 1240.55C1926.83 1272.84 1896.34 1301.47 1866.35 1330.55C1850.61 1345.84 1827.29 1374.3 1805.04 1376.36C1760.76 1361.65 1669.62 1278.4 1643.34 1238.9C1654.59 1218.47 1667.93 1198.91 1680.38 1179.18Z" fill="#010000"/>
<path d="M1783.21 1203.37L1896.79 1202.58L1920.81 1238.18C1888.6 1274.39 1861.03 1298.49 1825.27 1331.11C1817.65 1341.16 1817.07 1343.47 1805.83 1347.63C1791.82 1345.08 1781.35 1332.47 1770.23 1322.22C1735.91 1294.99 1702.62 1266.44 1670.53 1236.62C1678.56 1225.53 1688.49 1214.54 1697.47 1204.03L1783.21 1203.37Z" fill="#47C332"/>
<path d="M1806.98 1212.49C1828.44 1224.56 1840.76 1232.34 1849.54 1257.14C1846.49 1271.35 1850.07 1265.75 1838.33 1274.4C1828.94 1274.48 1821.73 1274.28 1812.33 1273.7C1797.3 1275.39 1793.96 1272.84 1786.34 1282.06C1802.41 1294.01 1811.26 1290.38 1827.83 1281.36C1841.22 1283.63 1837.96 1280.99 1844.39 1289.52C1840.39 1304.31 1842.2 1299.36 1829.89 1311.35L1825.27 1331.08C1817.65 1341.13 1817.07 1343.44 1805.83 1347.6C1791.82 1345.05 1781.35 1332.44 1770.23 1322.19L1772 1309.29C1734.22 1268.26 1754.66 1223.16 1806.98 1212.49Z" fill="white"/>
<path d="M1772.01 1309.31C1796.64 1321.46 1804.3 1318.62 1829.89 1311.37L1825.28 1331.1C1817.65 1341.16 1817.08 1343.46 1805.83 1347.62C1791.82 1345.07 1781.36 1332.46 1770.23 1322.21L1772.01 1309.31Z" fill="#47AB2D"/>
<path d="M1507.22 38.6593C1680.09 1.95207 1610.01 201.274 1536.93 222.929C1478.42 214.624 1387 228.342 1328.09 238.986C1304.32 243.286 1275.97 255.451 1252.49 256.987C1219.36 221.153 1261.22 64.6647 1332.21 89.5907C1365.91 101.421 1376.42 132.407 1390.34 161.551C1425.48 102.978 1434.55 58.3538 1507.22 38.6593Z" fill="#FCD323"/>
<path d="M1507.22 38.6593C1680.09 1.95207 1610.01 201.273 1536.92 222.929C1548.34 184.092 1608.65 129.573 1586.57 80.5115C1570.13 43.9361 1536.22 51.6187 1507.22 38.6593Z" fill="white"/>
<path d="M1743.82 2014.46C1745.51 2014.01 1748.19 2013.14 1750.13 2013.06C1779.26 2011.99 1824.86 2043.33 1846.99 2060.35C1910.97 2038.68 1983.73 2038.06 2049.89 2021.46C2003.71 2076 1950.36 2115.63 1887.03 2148.13C1839.2 2172.35 1789.56 2187.14 1736.74 2195.3C1682.48 2164.32 1634.48 2102.2 1591.14 2057.3C1642.56 2044.41 1693.48 2031.35 1743.82 2014.46Z" fill="#FB9326"/>
<path d="M1061.45 1647.01C1055.43 1609.36 1073.31 1540.24 1094.08 1509.8C1159.21 1414.27 1151.88 1339.87 1275.76 1419.54C1238.23 1465.55 1220.02 1512.31 1211.82 1570.18C1204.53 1613.64 1199.55 1634.78 1167.16 1665.26L1148.13 1659.24C1123.37 1672.84 1111.13 1671.07 1085.38 1660.93C1072.2 1658.83 1071.5 1656.94 1061.45 1647.01Z" fill="#47C332"/>
<path d="M1085.38 1660.94C1046.49 1536.95 1190.07 1443.85 1196.29 1572.91L1211.82 1570.19C1204.53 1613.65 1199.54 1634.78 1167.16 1665.27L1148.13 1659.25C1123.37 1672.85 1111.13 1671.07 1085.38 1660.94Z" fill="#FCEA2B"/>
<path d="M1196.29 1572.91L1211.82 1570.19C1204.53 1613.65 1199.54 1634.78 1167.16 1665.27L1148.12 1659.25C1173.13 1635.61 1186.11 1605 1196.29 1572.91Z" fill="#47C332"/>
<path d="M1815.51 767.608C1819.46 767.459 1823.38 767.369 1827.33 767.34C1877.02 767.006 1909.44 788.546 1943.68 822.502C1891.11 863.122 1836.85 875.151 1771.55 879.245C1719.39 878.491 1681.82 873.878 1640.87 840.235C1691.71 804.875 1753.96 775.368 1815.51 767.608Z" fill="#FB9326"/>
<path d="M2132.16 1075.67C2138.75 1083.12 2144.81 1093.13 2149.3 1102.02C2155.69 1114.66 2158.32 1127.74 2153.59 1141.43C2136.57 1190.58 2049.48 1219.81 2006.51 1239.13C1996.29 1225.78 1988.01 1205.14 1978.7 1190.33C2032.3 1156.82 2090.8 1124.26 2132.16 1075.67Z" fill="#E72305"/>
<path d="M1061.45 1647C1071.5 1656.93 1072.2 1658.83 1085.38 1660.93C1111.13 1671.06 1123.37 1672.83 1148.13 1659.24L1167.16 1665.25C1122.42 1710.57 1123.53 1751.35 1113.98 1814.33C1071.46 1804.57 1058.07 1800.49 1022.31 1775.86C1050.61 1724.16 1063.63 1706.28 1061.45 1647Z" fill="#47AB2D"/>
</svg>
