<svg width="2420" height="2245" viewBox="0 0 2420 2245" fill="none" xmlns="http://www.w3.org/2000/svg">
<path d="M1309.73 90.871C1431.98 -87.7592 1666.97 17.6049 1509.18 228.143C1685.95 262.058 1825.09 324.09 1929.19 478.676C2050.87 659.37 2045.42 821.366 2046.08 1026.4C2089.37 1072.19 2104.51 1081.34 2114.74 1143.36C2170.62 1110.2 2244.98 1068.2 2311.92 1083.86C2399.27 1104.3 2436.27 1228.99 2412.42 1306.85C2373.59 1433.6 2224.93 1501.94 2111.57 1548.28C2096.66 1554.37 2080.97 1560.76 2065.83 1565.54C2049.18 1695.83 2003.32 1782.3 1908.76 1873.83C1926.09 1901.76 1950.27 1937.8 1962.62 1958.03C1996.17 2013.06 2038.43 2060.64 1952.89 2087.17C1945.85 2089.35 1902.1 2143.85 1893.16 2151.31C1875.22 2169.55 1858.83 2180.92 1837.18 2194.39C1777.31 2228.75 1658.39 2262.24 1589.97 2234.93C1562.98 2224.14 1521.54 2185.66 1498.25 2165.64L1403.39 2084.16C1231.53 2088.69 1072.62 2076.29 910.44 2012.2C830.736 2050.59 780.309 2057.1 692.905 2035.76C616.522 2072.67 520.112 2115.26 434.558 2090.67C399.659 2080.62 424.337 2056.31 380.748 2042.06C269.363 2005.61 356.87 1790.95 400.281 1730.85C342.157 1696.45 344.889 1661.6 319.189 1603.89C287.416 1532.5 229.066 1500.54 152.288 1518.12C81.829 1531.8 56.5988 1619.71 19.1159 1609.9C3.29961 1594.21 -0.470125 1571.92 0.0448626 1550.46C7.47716 1239.66 394.336 1130.65 628.099 1067.78C656.337 1013.97 668.977 997.088 723.903 967.771C729.869 927.575 735.9 884.763 743.238 844.9C668.392 921.94 558.464 938.874 457.247 944.559C418.194 946.75 266.681 935.978 280.528 884.697C305.276 793.063 440.446 705.107 523.684 686.269C408.665 673.285 330.605 663.424 271.25 551.613C312.152 499.676 347.451 478.318 410.082 456.568C569.127 401.319 701.792 443.501 833.896 533.558C908.936 410.876 1005.03 338.104 1133.95 278.592C1127.66 239.195 1125.24 214.863 1131.9 172.78C1143.81 97.4826 1206.52 8.82646 1288.81 70.468C1295.49 75.4771 1303.61 84.5107 1309.73 90.871Z" fill="#010000"/>
<path d="M839.734 601.797C1135.34 470.403 1560.86 426.396 1878.19 495.465C1903.77 500.799 1906.7 501.022 1923.18 526.331C1953.81 573.382 1996.59 683.87 2003.29 739.024C2012.23 761.668 2016.46 787.171 2020.14 811.046C1924.17 910.013 1859.41 735.786 1744.5 748.309C1671.65 756.164 1596.06 790.388 1532.08 828.578C1369.9 925.374 913.184 999.703 790.419 818.914C798.028 733.965 813.21 681.72 839.734 601.797Z" fill="#E72305"/>
<path d="M1878.19 495.453C1903.77 500.788 1906.7 501.01 1923.18 526.319C1953.81 573.37 1996.58 683.859 2003.29 739.012C1987.87 727.515 1943.38 608.553 1926.17 582.77C1918.28 570.956 1881.69 508.606 1878.19 495.453Z" fill="white"/>
<path d="M1471.19 646.951C1498.71 645.773 1525.9 649.225 1546.88 669.183C1557.99 679.749 1569.13 696.239 1569.79 711.81C1554.03 721.42 1516.73 691.79 1495.71 689.178C1494.39 689.013 1493.06 688.882 1491.74 688.737C1461.42 692.873 1447.27 709.981 1420.85 719.245C1411.78 722.421 1409.87 724.102 1401.26 720.04C1401.26 716.184 1401.64 713.017 1403.32 709.478C1419.32 675.7 1436.87 660.396 1471.19 646.951Z" fill="#010000"/>
<path d="M1878.55 651.057C1898.63 650.27 1916.2 652.416 1933.85 663.213C1943.86 669.338 1951.9 677.462 1954.95 688.905L1949.73 694.656C1930.99 687.459 1913.19 680.065 1893.01 678.454C1891.75 678.351 1890.48 678.306 1889.21 678.232C1866.29 685.194 1853.69 702.519 1833.64 713.815C1829.21 706.284 1829.06 701.902 1831.58 693.206C1837.64 672.242 1860.55 660.214 1878.55 651.057Z" fill="#010000"/>
<path d="M661.78 1226.14C702.975 1218.6 723.645 1217.69 764.312 1218.35C842.66 1222.68 959.571 1248.67 1044.82 1259.3C1214.3 1279.19 1384.79 1289.29 1555.44 1289.45C1770.91 1490.6 1750.46 1454.1 1940.7 1282.24C1955.92 1268.52 1987.33 1255.01 2006.55 1246.49L2022.76 1238.58L2028.55 1241.67C2054.1 1396.97 2044.12 1676.63 1928.69 1799.46C1917.86 1814.01 1899.03 1831.55 1885.7 1844.74C1874.66 1829.16 1860.99 1813.51 1848.66 1798.76C1769.6 1773.97 1646.93 1721.94 1566.12 1689.4C1454.17 1644.33 1303.33 1589.17 1199.57 1535.21C1219.32 1512.31 1262.49 1475.4 1266.74 1450.89C1253.97 1409.57 1170.4 1363.15 1128.18 1365.86C1099.66 1367.72 1051.24 1433.13 1033.83 1453.98L1013.77 1442.61C1007.32 1422.18 1022.74 1398.57 1020.38 1375.3C1017.58 1347.7 986.383 1308.19 957.177 1312.48L954.474 1319.56C955.401 1343.46 975.198 1351.53 980.253 1369.08C998.187 1431.36 901.418 1485.9 856.862 1501.31C835.055 1504.31 808.189 1504.81 786.597 1500.57C742.098 1492 703.099 1465.47 678.795 1427.2C638.981 1365.08 647.698 1293.9 661.78 1226.14Z" fill="#FCEA2B"/>
<path d="M661.78 1226.14C702.975 1218.6 723.645 1217.69 764.312 1218.35C730.018 1261.32 711.124 1280.88 715.273 1340.08C719.726 1403.6 790.066 1500.65 856.862 1501.31C835.055 1504.31 808.189 1504.81 786.597 1500.57C742.098 1492 703.099 1465.47 678.795 1427.2C638.981 1365.08 647.698 1293.9 661.78 1226.14Z" fill="#FCD323"/>
<path d="M2006.55 1246.5L2022.76 1238.59L2028.55 1241.68C2054.1 1396.97 2044.12 1676.63 1928.69 1799.47C1928.94 1785.38 1941.92 1758.16 1947.43 1743.78C2006.02 1591.12 2004.69 1408.96 2006.55 1246.5Z" fill="#F9F5C5"/>
<path d="M1887.6 852.016C1926.28 873.461 1952.15 878.408 1995 867.904L2008.23 861.816L2012.69 864.798C2014.14 894.787 2013.17 1084.11 2003.27 1099.47C1971.45 1120.44 1943.54 1144.85 1906.86 1168.52C1893.74 1153.27 1885.27 1146.19 1869.89 1133.09C1812.05 1128.11 1669.22 1134.32 1608.68 1137.88C1580.34 1160.88 1572.34 1174.63 1555.83 1207.27C1335.5 1114.52 1006.15 1043.98 765.451 982.137C767.874 940.025 772.756 898.09 780.073 856.547C808.57 882 840.619 900.797 876.384 914.189C1090.87 994.495 1323.24 950.764 1526.57 863.463C1619.98 960.976 1788.31 920.779 1887.6 852.016Z" fill="#FCEA2B"/>
<path d="M1995 867.905L2008.23 861.816L2012.69 864.799C2014.14 894.787 2013.17 1084.11 2003.26 1099.47C1972.25 1062.3 1983.43 916.097 1995 867.905Z" fill="#F9F5C5"/>
<path d="M530.243 1449.42C563.705 1440.28 600.512 1457.17 622.611 1482.46C636.022 1493.95 647.627 1506.18 664.54 1510.51L671.103 1507.42C671.716 1494.98 671.741 1494.2 668.536 1482.13C680.006 1485.13 731.686 1519.49 764.262 1532.05C786.509 1582.52 877.506 1622.68 929.363 1653.24C915.714 1683.4 854.595 1741.56 867.185 1765.33C895.526 1818.76 1014.78 1895.71 1036.28 1790.66C1038.1 1781.93 1051.14 1755.94 1055.11 1747.12C1142.44 1800.14 1231.26 1850.68 1321.45 1898.63C1380.74 1930.47 1455.29 1966.93 1511.51 1999.93L1549.45 2020.77C1467.95 2041.37 1418.47 2044.17 1334.25 2050.26C1134.5 2055.54 951.408 2023.65 783.197 1912.35C773.939 1908.27 742.113 1886.27 733.045 1879.4C635.758 1805.62 558.798 1723.89 511.642 1610.9C488.418 1558.99 477.224 1486.37 530.243 1449.42Z" fill="#FCD323"/>
<path d="M530.243 1449.42C563.705 1440.28 600.512 1457.17 622.611 1482.46C615.505 1494.44 614.45 1494.2 618.875 1509.56C665.174 1670.5 754.7 1810.27 884.967 1916.35C900.544 1929.03 918.647 1941.43 933.433 1954.9C880.13 1944.56 849.568 1928.46 799.322 1909.59C794.481 1907.78 787.77 1909.3 783.197 1912.35C773.939 1908.27 742.113 1886.27 733.045 1879.4C635.758 1805.62 558.798 1723.89 511.642 1610.9C488.418 1558.99 477.224 1486.37 530.243 1449.42Z" fill="#FB9326"/>
<path d="M511.642 1610.87C488.418 1558.97 477.224 1486.34 530.243 1449.39C529.835 1467.07 523.598 1491.49 519.882 1509.91C514.237 1537.92 527.623 1592.62 511.642 1610.87Z" fill="#FCD323"/>
<path d="M1511.51 1999.89L1549.44 2020.73C1467.95 2041.33 1418.47 2044.13 1334.25 2050.23C1335.98 2043.93 1336.32 2032.52 1336.81 2025.47C1377.81 2012.66 1476.64 2023.95 1511.51 1999.89Z" fill="#FBB41F"/>
<path d="M725.04 1005.25C802.717 1015.08 880.986 1039.35 957.233 1057.81C1119.82 1097.16 1373.33 1149.12 1518.86 1224.03C1531.62 1230.62 1540.38 1235.6 1544.97 1249.69C1529.34 1263.04 1469.31 1254.3 1447.74 1253.64C1292.11 1248.62 1136.78 1236.47 982.266 1217.15C895.641 1206.85 806.185 1181.33 718.699 1186.12C671.395 1188.71 627.221 1212.62 583.571 1229.67C379.974 1309.5 192.444 1407.09 36.9834 1563.58C37.3871 1522.76 39.9703 1488.49 54.2911 1449.81C120.469 1271.07 332.405 1181.96 500.757 1130.58C565.863 1110.72 635.259 1097.92 697.062 1069.07L697.206 1063.57C688.913 1063.69 681.839 1065.65 675.02 1060.63C682.448 1038.57 707.221 1019.38 725.04 1005.25Z" fill="#E72305"/>
<path d="M1180.5 1568.41C1385.65 1644.37 1616.7 1759.46 1824.64 1831.18C1852.24 1867.43 1923.91 1963.37 1943.27 2004.85C1946.49 2008.64 1961.19 2036.9 1964.46 2042.99C1906.94 2063.67 1804.13 2068.29 1740.3 2073.02C1547.62 1981.66 1246.69 1835.54 1074.02 1721.19C1113.02 1697.22 1131.49 1683.05 1154.55 1644.49C1161.41 1622.2 1170.62 1588.51 1180.5 1568.41Z" fill="#D2D2D2"/>
<path d="M1180.5 1568.41C1385.65 1644.37 1616.7 1759.46 1824.64 1831.18C1852.24 1867.43 1923.91 1963.37 1943.27 2004.85L1939.42 2004.97C1909.49 2005.47 1178.69 1667.52 1154.55 1644.49C1161.41 1622.2 1170.62 1588.51 1180.5 1568.41Z" fill="white"/>
<path d="M307.84 551.312L313.155 547.193C395.717 483.43 475.124 459.703 580.375 466.763C666.523 472.539 754.923 505.32 808.635 575.324C797.021 605.42 786.449 637.863 775.898 668.491C770.064 700.411 763.283 729.732 755.883 761.274C695.247 914.999 453.87 936.794 316.45 890.295C390.988 756.034 502.897 711.142 647.06 690.253C670.284 686.887 721.099 680 739.474 669.022C730.525 656.734 535.081 655.449 499.551 651.741C401.362 641.505 365.881 631.952 307.84 551.312Z" fill="#E72305"/>
<path d="M755.884 761.284C737.085 727.666 736.182 687.095 775.898 668.5C770.064 700.421 763.283 729.742 755.884 761.284Z" fill="white"/>
<path d="M858.749 565.613C921.664 465.176 980.158 403.641 1082.83 341.407C1205.25 267.193 1429.21 236.372 1566.17 273.846C1664.56 294.339 1746.52 334.923 1820.68 403.003C1839.09 419.905 1868.73 442.956 1876.9 466.383C1868.34 471.095 1869.49 469.114 1857.08 466.984C1817.78 457.258 1756.01 450.709 1714.73 446.215C1423.95 416.42 1130.27 457.386 858.749 565.613Z" fill="#FCD323"/>
<path d="M1566.17 273.832C1664.56 294.326 1746.52 334.909 1820.68 402.989C1839.09 419.891 1868.73 442.942 1876.9 466.369C1868.34 471.082 1869.49 469.1 1857.08 466.97C1800.73 417.753 1768.83 372.461 1698.86 332.862C1670.24 316.661 1575.87 288.917 1566.17 273.832Z" fill="white"/>
<path d="M2212.16 1125.55C2287.17 1102.01 2358.15 1105.76 2383.45 1193.87C2396.95 1240.34 2391.31 1290.3 2367.78 1332.61C2343.65 1375.94 2299.76 1419.2 2254.45 1440.04C2234.95 1462.61 2106.54 1513.73 2075.2 1525.72C2078.33 1395.18 2075.22 1349.54 2059.06 1219.66L2088.27 1194.3C2129.18 1164.15 2160.8 1144.16 2213.69 1150.59C2281.72 1158.86 2280.66 1190.78 2313.6 1241.16L2316.8 1239.06C2320.26 1162.62 2276.22 1144.58 2212.16 1125.55Z" fill="#FCC31E"/>
<path d="M2328.57 1124.3C2240.17 1095.5 2146.07 1148.63 2110.07 1178.8L2121.07 1217.3L2205.57 1268.3H2328.57L2362.07 1217.3C2363.4 1204.46 2358.57 1167.9 2328.57 1124.3Z" fill="#FCC31E"/>
<path d="M2088.27 1194.3C2094.48 1249.68 2084.17 1327.17 2130.73 1366.05C2187.18 1413.26 2290.16 1335.07 2323.21 1291.62C2326.75 1286.92 2330.24 1282.22 2333.68 1277.45C2323.1 1322.55 2321.3 1332.4 2297.7 1373.63C2286.15 1393.82 2255.67 1424.75 2254.45 1440.04C2234.95 1462.61 2106.54 1513.73 2075.2 1525.72C2078.33 1395.18 2075.22 1349.53 2059.06 1219.65L2088.27 1194.3Z" fill="#FB9326"/>
<path d="M458.642 1738.48C493.315 1736.84 522.558 1744.21 555.414 1754.06C659.643 1880.19 718.055 1920.23 858.425 1999.57C796.268 2016.74 747.925 2016.21 686.003 2000.64C661.02 2014.77 636.391 2027.78 610.015 2039.2C587.273 2046.24 563.893 2054.56 540.521 2059.05C520.737 2062.84 470.614 2069.14 453.953 2058.02C463.52 2039.2 508.517 2021.77 526.208 2006.12C537.538 1996.11 542.712 1988.73 543.615 1973.86C538.588 1967.07 538.411 1964.51 529.867 1962.86C520.164 1975.14 510.367 1986.76 498.053 1996.52C474.52 2015.14 439.328 2024.86 409.537 2019.92C396.275 2017.73 384.85 2011.35 377.57 1999.81C356.147 1965.87 368.811 1905.56 377.752 1869.69C391.137 1815.97 410.027 1768.1 458.642 1738.48Z" fill="#FB9326"/>
<path d="M606.888 1247.27C611.568 1247.27 614.736 1248.38 619.169 1249.74C617.966 1266.47 612.231 1282.37 610.74 1299.13C606.191 1350.17 619.733 1398.2 636.353 1445.78C622.646 1438.04 608.688 1429.71 594.042 1423.86C569.153 1413.94 536.767 1407.76 511.631 1419.79C491.11 1429.63 479.513 1449.12 472.929 1470.08C447.208 1551.98 491.436 1641.9 528.342 1713.21C491.905 1703.4 467.066 1699.82 429.501 1706.99L392.982 1688.65C385.352 1678.15 379.947 1666.53 374.138 1654.96C361.585 1613.52 347.499 1574.1 317.477 1541.76C275.343 1496.41 223.914 1485.82 164.41 1483.22C272.908 1375.63 465.072 1301.15 606.888 1247.27Z" fill="#A30E03"/>
<path d="M1778.71 1159.2C1806.06 1157.59 1833.89 1158.38 1861.31 1158.14C1888.97 1185.13 1906.77 1214.38 1924.35 1248.28C1893.5 1299.28 1821.69 1366.1 1769.61 1394.4C1752.34 1403.79 1741.7 1400.62 1723.88 1395.14C1688.23 1372.23 1651.49 1340.64 1619.96 1312.22C1600.22 1294.38 1572.79 1269.25 1571.76 1240.75C1571.03 1220.48 1607.43 1176.01 1621.26 1161.29C1673.75 1161.64 1726.24 1160.95 1778.71 1159.2Z" fill="#E72305"/>
<path d="M1819.23 1183.99L1853.52 1184.52C1869.11 1204.51 1883.15 1224.15 1895.84 1246.15C1862.87 1296.78 1802.87 1350.16 1752.49 1382.75C1738.62 1375.08 1726 1365.28 1713.18 1356.01C1669.59 1323.1 1630.34 1289.15 1594.12 1248.25C1604.81 1226.91 1618.39 1206.69 1630.92 1186.36L1819.23 1183.99Z" fill="#010000"/>
<path d="M1647.37 1211.92L1843.32 1210.93L1865.72 1244.79C1845.5 1267.36 1824.64 1289.53 1801.34 1308.93C1783.68 1322.28 1768.52 1339.74 1753.07 1355.6C1706.41 1321.33 1661.27 1282.94 1619.27 1243.14L1647.37 1211.92Z" fill="#47C332"/>
<path d="M1730.59 1223C1740.47 1222.67 1752.34 1221.64 1761.76 1224.98C1776.23 1230.17 1792.57 1243.19 1799.4 1256.78C1800.72 1267.37 1798.07 1271.9 1792.73 1280.92L1781.49 1282.73L1779.21 1286.19L1791.17 1299.66C1790.14 1310.33 1786.11 1311.69 1778.52 1318.98C1774.02 1320.09 1769.5 1321.08 1764.89 1321.62C1746.81 1323.72 1729.68 1321.25 1715.72 1308.68C1706.28 1300.11 1701 1287.92 1701.24 1275.15C1701.49 1251.79 1714.65 1237.79 1730.59 1223Z" fill="white"/>
<path d="M1732.42 1282.48C1745.29 1281.08 1758.03 1277.95 1769.91 1284.21L1770.12 1296L1746.07 1297.6C1735.84 1292.62 1736.39 1292.37 1732.42 1282.48Z" fill="#47C332"/>
<path d="M1732.88 1248.53C1738.59 1248.29 1744.94 1247.67 1750.6 1248.49C1761.18 1250.1 1763.78 1254.92 1769.07 1262.99C1756.94 1263.03 1747.2 1263.07 1735.62 1258.87L1732.88 1248.53Z" fill="#47C332"/>
<path d="M1420.89 38.0592C1449.99 34.8132 1479.61 29.2273 1504.43 48.9383C1552.42 87.0461 1523.86 160.93 1488.87 197.535C1478.13 208.756 1464.4 224.718 1449.07 228.693C1377.33 216.648 1185.8 264.008 1169.33 259.744C1148.2 222.135 1163.94 127.601 1200.01 99.4C1251.3 59.2901 1275.62 106.176 1301.21 143.279L1308.59 144.618C1351.01 114.353 1336.85 57.7084 1420.89 38.0592Z" fill="#FCD323"/>
<path d="M1420.89 38.0592C1449.99 34.8132 1479.61 29.2273 1504.43 48.9383C1552.42 87.0461 1523.86 160.93 1488.87 197.535C1478.14 208.756 1464.4 224.718 1449.07 228.693C1459.35 189.218 1521.75 135.934 1501.43 85.9546C1486.01 48.0445 1451.9 51.3028 1420.89 38.0592Z" fill="white"/>
<path d="M1137.67 1396.68C1174.56 1414.18 1191.57 1422.5 1221.9 1451.05C1194.19 1477.5 1172.01 1498.51 1153 1532.74C1115.86 1599.63 1125.43 1638.44 1056.48 1678.19C1015.77 1706.82 1000.57 1763.87 983.526 1809.72C941.853 1790.98 931.141 1786.36 900.885 1753.04C928.744 1719.47 953.484 1691 965.567 1648.7C973.432 1561.74 996.499 1530.8 1057.84 1470.49C1085.21 1443.6 1103.98 1417.97 1137.67 1396.68Z" fill="#47C332"/>
<path d="M986.178 1650.02C981.535 1611.22 993.581 1588.6 1012.09 1558.12C1035.21 1520.1 1115.64 1499.54 1117.79 1555.81C1119.71 1606.03 1074.83 1654.43 1030.94 1669.1C1028.7 1668.89 1026.45 1668.68 1024.2 1668.48L1021.15 1668.02C1005.11 1665.97 999.065 1659.7 986.178 1650.02Z" fill="#FCEA2B"/>
<path d="M965.567 1648.7C979.097 1654.22 972.447 1653.93 986.179 1650.02C999.066 1659.7 1005.11 1665.96 1021.15 1668.02L1024.21 1668.48C1026.45 1668.68 1028.7 1668.89 1030.95 1669.09L1056.48 1678.2C1015.77 1706.83 1000.57 1763.88 983.526 1809.73C941.853 1790.98 931.141 1786.37 900.885 1753.05C928.744 1719.47 953.484 1691.01 965.567 1648.7Z" fill="#47AB2D"/>
<path d="M1606.3 2048.09C1668.04 2063.91 1716.79 2126.27 1745.63 2136.24L1750.55 2132.45C1745.4 2126.07 1740.83 2119.68 1736.33 2112.8C1747 2100.9 1872 2099.33 1898.43 2094.6C1863.97 2131.88 1825.17 2158.16 1779.41 2179.87C1724.38 2198.65 1671.81 2206.27 1613.94 2206.93C1557.3 2171.59 1507.97 2122.98 1458.51 2078.41C1508.15 2073.26 1557.81 2059.71 1606.3 2048.09Z" fill="#FB9326"/>
<path d="M1742.75 775.617L1746.8 775.658C1796.7 776.367 1828.4 795.806 1862.61 830.94C1809.42 872.359 1753.23 883.634 1687.55 889.417C1636.79 885.875 1601.9 881.006 1559.72 849.963C1614.69 812.765 1676.33 783.11 1742.75 775.617Z" fill="#FB9326"/>
<path d="M2053.82 1085.52C2060.55 1089.91 2065.29 1098.04 2069.14 1104.93C2077.12 1119.25 2081.59 1132.48 2075.88 1148.45C2059.32 1194.76 1989.28 1222.94 1948.13 1242.38C1941.15 1224.75 1931.26 1207.98 1922.29 1191.23C1968.51 1162.01 2020.18 1129.13 2053.82 1085.52Z" fill="#E72305"/>
<path d="M864.507 1544.07L868.923 1542.75C912.891 1529.2 974.376 1477.42 994.72 1480.84C993.752 1491.39 978.014 1510.79 970.973 1520.1C947.597 1551.08 940.3 1579.21 933.173 1617.07C928.493 1614.18 903.749 1599.44 900.997 1597.09C884.723 1588.03 844.014 1569.61 846.235 1550.38L864.507 1544.07Z" fill="#FB9326"/>
<path d="M900.997 1597.07C884.723 1588 844.014 1569.59 846.235 1550.35L864.507 1544.05C878.844 1561.56 892.876 1576.06 900.997 1597.07Z" fill="#DD7418"/>
</svg>
