<svg width="2196" height="2282" viewBox="0 0 2196 2282" fill="none" xmlns="http://www.w3.org/2000/svg">
<path d="M1705.23 1289.77C1708.78 1285.21 1715.25 1284.15 1720.07 1287.34C1799.3 1339.8 1917.43 1430.53 2014.63 1532.51C2063.23 1583.5 2106.88 1637.6 2137.79 1691.38C2168.63 1745.05 2187.35 1799.36 2184.66 1850.48C2184.57 1852.08 2184.14 1853.65 2183.39 1855.07C2182.31 1857.11 2180.53 1858.93 2178.13 1860.03C2175.9 1861.04 2173.85 1861.1 2172.54 1860.99C2170.2 1860.79 2168.51 1859.9 2168.04 1859.65C2166.8 1859 2165.78 1858.19 2165.35 1857.85C2164.28 1856.99 2162.89 1855.74 2161.57 1854.56C2158.73 1852.02 2154.8 1848.53 2149.75 1844.6C2139.64 1836.73 2125.21 1827.29 2107.12 1821.2C2071.85 1809.31 2020.17 1809.24 1956.2 1865.59C1890.38 1923.58 1839.34 1975.2 1770.73 2003.45C1701.35 2032.02 1615.17 2036.48 1478.62 2005.12C1477.07 2004.77 1475.61 2004.08 1474.35 2003.11C1431.5 1970.16 1417.36 1918.7 1420.91 1859.98C1424.46 1801.36 1445.66 1733.63 1475.79 1664.8C1536.13 1527 1633.75 1381.6 1705.23 1289.77Z" fill="#E82117" stroke="#232323" stroke-width="22.1312" stroke-linejoin="round"/>
<path d="M761.86 1100.09C763.376 1099.7 764.952 1099.6 766.504 1099.8C862.18 1112.11 1000.15 1130.92 1103.03 1147.32C1154.34 1155.5 1197.37 1163.15 1222.03 1169.16C1228.21 1170.66 1233.52 1172.13 1237.63 1173.55C1239.67 1174.25 1241.67 1175.04 1243.44 1175.92C1244.84 1176.61 1247.58 1178.06 1249.72 1180.61C1250.89 1182.02 1252.6 1184.6 1252.9 1188.24C1253.23 1192.24 1251.72 1195.57 1249.86 1197.8C1246.97 1201.3 1242.99 1202.5 1241.67 1202.89C1237.93 1204 1232.82 1204.55 1227.15 1204.89C1227.07 1204.89 1226.98 1204.9 1226.9 1204.9C1209.71 1205.56 1187.66 1216.86 1161.32 1239.82C1135.39 1262.42 1107.09 1294.73 1077.51 1333.9C1018.4 1412.2 955.404 1516.32 897.534 1620.69C839.712 1724.98 787.211 1829.15 749.07 1907.36C730.004 1946.46 714.534 1979.06 703.79 2001.92C698.418 2013.34 694.228 2022.34 691.356 2028.51C689.924 2031.59 688.809 2033.98 688.043 2035.61C687.663 2036.42 687.351 2037.09 687.123 2037.56C687.013 2037.79 686.895 2038.03 686.785 2038.25C686.737 2038.35 686.643 2038.53 686.53 2038.74C686.467 2038.85 686.308 2039.13 686.204 2039.3C685.997 2039.63 685.12 2040.81 684.383 2041.62C682.047 2043.96 678.874 2045.26 675.57 2045.24C586.279 2044.81 536.859 2069.5 510.066 2092.72C496.571 2104.42 488.504 2116.01 483.91 2124.45C481.607 2128.68 480.19 2132.09 479.405 2134.29C479.118 2135.09 478.931 2135.7 478.82 2136.08C478.683 2137.17 478.4 2138.26 477.962 2139.31C476.038 2143.92 471.534 2146.92 466.541 2146.92C462.694 2146.92 459.685 2145.2 457.737 2143.24V2143.24C430.016 2115.19 395.298 2100.57 362.659 2093.81C330.178 2087.09 300.52 2088.33 283.5 2091.39L227.388 2105.86C223.838 2106.77 220.064 2106.07 217.085 2103.93C214.106 2101.79 212.226 2098.44 211.954 2094.79L173.938 1583.78C173.767 1581.49 174.236 1579.21 175.29 1577.17L368.023 1204.96L368.18 1204.67C369.828 1201.69 372.638 1199.51 375.951 1198.66L761.86 1100.09Z" fill="#A7120B" stroke="#232323" stroke-width="24.7548" stroke-linejoin="round"/>
<path d="M1199.06 199.651C1165.82 227.446 1119.44 250.98 1060.06 263.02L910.035 293.271C884.636 104.239 990.102 31.9968 1046.59 137.017C1046.59 137.017 1061.08 46.7674 1174.4 31.0192C1180.18 30.3957 1185.44 29.7471 1191.74 29.1489C1284.94 22.8287 1286.95 126.1 1199.06 199.651Z" fill="#F4D93B"/>
<path d="M1198.97 199.647C1188.22 197.765 1183.57 191.656 1191.06 177.993C1219.52 122.815 1257.9 38.7068 1153.06 47.1749L1174.31 31.0144C1180.09 30.391 1185.35 29.7424 1191.65 29.1442C1284.85 22.824 1286.86 126.096 1198.97 199.647Z" fill="white"/>
<path d="M908.649 308.179C900.878 307.801 894.078 302.492 893.141 295.658C875.59 163.121 919.804 89.2524 968.345 76.2315C994.47 69.3589 1020.67 78.7804 1041.96 101.991C1059.6 68.4589 1099.87 20.644 1190.44 14.6481C1239.15 11.1384 1273.48 34.079 1279.18 74.1782C1288.84 139.358 1219.22 246.381 1063.42 277.255C1054.4 279.078 1044.97 274.094 1043.08 266.309C1041.19 258.524 1047.15 250.217 1056.17 248.393C1190.24 221.891 1253.19 130.834 1244.97 78.3944C1242.39 61.0731 1231.21 41.0703 1191.95 43.6827C1079.37 51.3217 1063.39 135.163 1063.06 138.768C1061.96 145.049 1056.25 150.654 1048.36 151.627C1040.98 152.625 1033.46 149.543 1030.36 143.51C1014.83 114.245 994.821 99.6946 976.713 104.243C946.321 112.265 910.865 175.7 926.354 290.941C927.686 299.151 920.769 306.507 911.28 307.855C911.239 308.305 909.685 308.23 908.649 308.179Z" fill="#232323"/>
<path d="M1485.35 1801.82C1648.96 1949.66 1639.95 2063.24 1435.32 2081.27C1230.69 2099.3 1083.76 2057.38 1131.08 1929.38C1178.41 1801.37 1485.35 1801.82 1485.35 1801.82Z" fill="#FF814A"/>
<path d="M1350.11 2100.23C1238.33 2100.23 1160.8 2077.25 1127 2033.08C1104.91 2003.78 1101.31 1967.27 1117.53 1924.45C1167.56 1788.79 1470.9 1786.98 1485.77 1786.98C1489.38 1786.98 1492.98 1788.33 1495.69 1790.59C1589.44 1875.32 1629.1 1950.14 1610.17 2006.93C1593.49 2056.96 1535.35 2087.16 1437.09 2095.73C1405.99 2098.88 1377.15 2100.23 1350.11 2100.23ZM1479.91 1816.73C1438.9 1817.63 1184.69 1827.1 1145.03 1934.82C1132.86 1968.17 1134.66 1994.31 1150.44 2015.05C1185.59 2060.57 1288.81 2079.5 1434.39 2066.43C1518.22 2058.77 1569.61 2035.33 1581.78 1997.92C1596.2 1954.2 1560.14 1890.2 1479.91 1816.73Z" fill="#232323"/>
<path d="M1143.22 2029.86C1301.88 1954.59 1599.35 1932.51 1599.35 1932.51L1561.49 1891.94L1463.23 1928.45L1291.06 1964.06L1122.04 1972.62L1143.22 2029.86Z" fill="#232323"/>
<path d="M461.781 1411.92C203.067 1412.37 9.70746 1553.44 519.473 1837.85C961.181 2084.39 461.781 1411.92 461.781 1411.92Z" fill="#EFA33F"/>
<path d="M662.79 1907.26C628.986 1907.26 579.406 1888.78 512.249 1850.92C390.103 1782.86 300.86 1718.86 247.225 1660.26C197.195 1605.72 177.363 1556.15 188.631 1512.88C210.716 1427.24 344.581 1396.59 462.219 1396.59C467.177 1396.59 471.684 1398.84 474.388 1402.9C475.29 1403.8 549.208 1503.86 614.563 1611.58C737.61 1813.96 724.989 1868.04 704.707 1891.03C694.791 1901.85 680.819 1907.26 662.79 1907.26ZM454.106 1427.24C324.298 1429.04 231.9 1465.1 217.477 1520.99C206.209 1563.81 231.9 1660.26 526.672 1824.78C648.367 1892.38 675.861 1877.51 681.269 1871.2C688.932 1862.64 704.707 1819.37 587.97 1627.81C532.982 1536.31 471.233 1450.68 454.106 1427.24Z" fill="#232323"/>
<path d="M1699.04 1033.7C1848.25 1297.93 2075.94 1395.33 2037.96 1521.15C1999.98 1646.98 1526.45 1603.22 1413.63 1381.71C1301.26 1160.12 1699.04 1033.7 1699.04 1033.7Z" fill="#EFA33F"/>
<path d="M1381.84 1333.98C1375.81 1301.64 1379.5 1269.77 1392.46 1238.47C1451.06 1097.79 1684.99 1022.09 1694.93 1018.86C1701.41 1016.73 1708.8 1019.48 1712.25 1025.72C1778.69 1143.54 1861.92 1228.43 1928.3 1296.75C2013.87 1384.42 2075.63 1447.64 2052.44 1524.86C2039.41 1568.09 1986.35 1595.87 1903.34 1603.09C1817.67 1610.81 1712.5 1595.11 1622.33 1561.49C1547.46 1533.72 1448.17 1480.71 1401.11 1388.16C1391.36 1370.26 1385.23 1352.15 1381.84 1333.98ZM1692.29 1051.44C1645.48 1068.42 1466.08 1139.01 1419.45 1250.4C1402.29 1291.2 1404.85 1331.98 1427.1 1375.06C1503.72 1525.37 1750.96 1587.48 1900.27 1574.32C1968.41 1568.49 2014.84 1547 2023.9 1516.88C2042.37 1456.13 1985.76 1398.37 1906.98 1317.69C1840.77 1250.26 1759.21 1166.89 1692.29 1051.44Z" fill="#232323"/>
<path d="M716.018 1801.82C552.407 1949.66 561.421 2063.24 766.049 2081.27C970.676 2099.3 1117.61 2057.38 1070.29 1929.37C1022.96 1801.37 716.018 1801.82 716.018 1801.82Z" fill="#FF814A"/>
<path d="M851.715 2100.2C824.672 2100.2 795.826 2098.85 764.726 2096.14C666.919 2087.58 608.326 2057.38 591.649 2007.35C572.719 1950.11 611.931 1875.29 706.132 1791C708.836 1788.75 712.442 1787.4 716.048 1787.4C730.922 1787.4 1034.26 1789.2 1084.29 1924.87C1100.06 1967.69 1096.91 2004.2 1074.82 2033.49C1041.02 2077.21 963.043 2100.2 851.715 2100.2ZM721.457 1816.7C641.228 1890.16 605.171 1954.62 619.594 1997.89C632.214 2035.3 683.145 2059.18 766.98 2066.4C912.563 2079.47 1015.78 2060.54 1050.93 2015.01C1066.71 1994.28 1068.51 1967.69 1056.34 1934.78C1016.68 1826.61 762.923 1817.15 721.457 1816.7Z" fill="#232323"/>
<path d="M1794.03 1623.32C1793.13 1626.48 1792.68 1629.63 1791.78 1632.79C1697.13 1970.38 1285.62 1975.79 993.1 1971.73H992.198C931.351 1970.83 871.405 1966.32 814.163 1957.31H813.713C563.111 1918.54 364.343 1796.4 382.823 1506.58C386.879 1407.88 403.105 1309.17 424.74 1215.42C440.064 1149.61 466.206 1094.17 480.179 1030.62C488.292 994.565 490.095 954 490.545 914.787C485.587 761.091 520.293 624.072 584.295 512.743C720.413 275.213 988.592 153.068 1292.38 235.099C1601.12 321.187 1702.54 594.324 1689.01 892.702V893.603C1685.41 1011.69 1716.96 1080.65 1759.33 1187.92C1812.51 1325.39 1829.19 1479.99 1794.03 1623.32Z" fill="#F4D93B"/>
<path d="M1529.5 449.621C1646.69 616.388 1666.07 725.463 1681.39 855.721C1696.27 985.98 1688.6 784.507 1688.6 784.507L1675.08 668.672L1633.62 517.229L1597.56 459.537L1529.5 449.621Z" fill="white"/>
<path d="M813.713 1957.72C563.111 1918.96 364.343 1796.82 382.823 1507C386.879 1408.29 403.105 1309.59 424.74 1215.84C440.064 1150.03 466.206 1094.59 480.179 1031.04C488.292 994.983 490.095 954.418 490.545 915.205C485.587 761.509 500.563 583.5 586.063 505.5C611.881 481.947 721.563 457 721.563 457C649.448 637.289 624.86 1011.66 624.86 1011.66C624.86 1011.66 303.496 1539.45 558.153 1551.17C558.153 1551.17 553.196 1901.38 813.713 1957.72Z" fill="#EC2F2F" fill-opacity="0.14"/>
<path opacity="0.32" d="M1776.39 1668.08C1775.32 1671.23 1774.78 1674.39 1773.71 1677.54C1661.05 2015.02 1204.71 1968.56 856.563 1964.5H823.141L723.564 1943C602.866 1796.57 665.965 1331.06 1085.99 1228.78C1456.14 1138.66 1697.06 1241 1772.63 1381.97C1805.06 1480 1782.83 1552.73 1776.39 1668.08Z" fill="#FFF4C5"/>
<path d="M1067.99 1987.48C1042.75 1987.48 1017.51 1987.03 992.717 1987.03C743.468 1982.98 565.884 1924.83 464.021 1814.41C392.356 1736.43 359.904 1632.77 368.017 1506.11C371.623 1415.97 386.046 1317.26 410.385 1212.69C418.047 1179.34 428.414 1148.69 438.78 1118.94C449.147 1088.29 459.063 1059.45 465.824 1028.35C474.387 990.939 475.74 948.571 475.74 916.119C468.077 672.278 559.123 457.284 725.89 325.223C882.291 201.274 1084.66 164.315 1296.05 221.557C1574.6 299.532 1719.28 537.963 1703.5 893.583V894.033V894.484C1700.35 1000.4 1726.49 1066.66 1763 1158.16C1766.16 1166.27 1769.31 1174.38 1772.92 1182.95C1831.51 1333.04 1843.23 1494.39 1806.27 1636.82C1762.55 1792.32 1653.02 1892.83 1470.93 1944.67C1344.28 1980.72 1204.56 1987.48 1067.99 1987.48ZM1105.4 224.712C971.533 224.712 847.134 266.629 744.37 348.21C585.265 473.961 498.276 680.842 505.487 915.217V915.668C505.487 949.923 504.135 994.094 494.67 1034.66C487.458 1067.56 476.641 1098.21 466.725 1128.41C456.809 1157.71 446.443 1187.45 439.231 1219.45C415.343 1322.22 401.371 1419.12 397.314 1507.92C389.652 1626.46 419.399 1722.91 485.655 1794.58C581.659 1898.69 752.032 1953.23 993.168 1957.74C1326.7 1961.79 1690.43 1940.61 1777.42 1629.16C1813.03 1493.04 1801.76 1338.44 1745.42 1194.21C1742.27 1185.65 1738.66 1177.54 1735.51 1169.42C1697.65 1074.32 1670.6 1005.81 1674.21 894.033V893.583V893.132C1682.77 695.716 1644.46 350.013 1288.39 250.403C1226.19 232.825 1164.89 224.712 1105.4 224.712Z" fill="#232323"/>
<path d="M105.703 493.723C219.581 416.461 322.974 402.381 406.318 417.249C481.877 430.728 540.179 467.86 574.32 501.684C576.715 500.112 579.115 498.816 581.516 497.867C587.829 495.371 597.056 494.42 604.344 501.368C610.236 506.986 611.365 514.832 611.54 519.966C611.738 525.776 610.83 532.268 609.296 538.82C603.426 563.894 586.023 599.497 560.853 624.911C507.932 771.587 395.152 831.948 296.542 854.986C247.014 866.557 200.837 868.809 167.049 867.994C150.138 867.586 136.229 866.408 126.433 865.212C121.554 864.616 117.585 864.003 114.715 863.454C113.326 863.189 111.951 862.893 110.776 862.566C110.266 862.425 109.318 862.148 108.294 861.71C107.863 861.525 106.72 861.024 105.459 860.118C104.834 859.669 103.65 858.749 102.508 857.273C101.387 855.825 99.5635 852.86 99.5635 848.667C99.5635 846.764 99.9516 844.88 100.704 843.132C144.006 742.536 204.656 686.546 269.556 652.562C301.54 635.813 334.532 624.467 366.495 615.678C273.632 614.554 211.95 596.354 171.409 575.089C144.995 561.233 127.784 546.191 116.93 534.064C111.513 528.013 107.714 522.728 105.16 518.738C102.787 515.031 101.003 511.545 101.408 512.254C97.7794 505.903 99.6504 497.829 105.703 493.723Z" fill="#E82117" stroke="#232323" stroke-width="28" stroke-linejoin="round"/>
<path d="M598.516 492.543C748.543 420.667 1092.34 309.029 1566.19 439.204C1567.9 439.514 1569.21 440.06 1569.92 440.396C1571.84 441.311 1573.17 442.459 1573.78 443.018C1575.12 444.234 1576.21 445.592 1576.91 446.521C1578.45 448.556 1580.19 451.257 1582.01 454.259C1585.71 460.384 1590.54 469.135 1596.05 479.712C1607.09 500.924 1621.2 530.144 1635.03 561.837C1648.85 593.505 1662.49 627.879 1672.52 659.348C1682.4 690.332 1689.33 720.159 1688.49 742.024C1688.02 754.265 1684.29 764.937 1677.46 773.638C1670.72 782.221 1661.62 788.046 1651.68 791.871C1632.2 799.373 1607.48 799.965 1583.17 797.225C1558.52 794.445 1532.65 788.044 1509.91 780.129C1487.36 772.282 1466.87 762.6 1453.46 752.783C1429.99 735.6 1400.68 710.763 1338.11 707.12C1274.47 703.415 1175.19 721.698 1013.33 796.917C1013.32 796.923 1013.31 796.928 1013.3 796.934C880.258 858.282 766.756 876.013 679.203 870.909C592.269 865.842 529.484 838.095 499.864 806.589C497.52 804.095 496.17 800.829 496.07 797.408C495.228 768.561 505.318 714.58 522.171 658.347C539.112 601.82 563.617 540.552 592.982 497.304C594.373 495.255 596.283 493.613 598.516 492.543Z" fill="#E82117" stroke="#232323" stroke-width="28" stroke-linejoin="round"/>
<path d="M1664.06 789C1692.56 729.5 1560.56 446.882 1514.56 426.291L1590.06 451L1621.56 505L1664.06 643L1692.56 753.5C1690.23 760.167 1681.26 776.6 1664.06 789Z" fill="white"/>
<path d="M598.129 494.99C745.576 424.819 1091.1 316.073 1552.58 434.849C1572.12 439.879 1591.08 451.832 1600.94 471.909L1602.29 474.678C1616.48 503.952 1637.99 553.772 1655.93 604.061C1665.2 630.029 1673.59 656.333 1679.53 680.133C1685.4 703.654 1689.15 725.794 1688.49 743.016C1688.01 755.217 1684.27 765.852 1677.43 774.515C1670.67 783.055 1661.57 788.84 1651.64 792.637C1632.17 800.085 1607.46 800.675 1583.15 797.952C1558.49 795.191 1532.62 788.832 1509.87 780.968C1487.32 773.171 1466.83 763.552 1453.41 753.798C1429.94 736.727 1400.6 712.032 1337.98 708.41C1274.3 704.727 1174.96 722.903 1013.04 797.653C1013.03 797.659 1013.02 797.664 1013 797.67C879.92 858.632 766.387 876.247 678.818 871.177C591.872 866.142 529.075 838.578 499.439 807.264C497.077 804.767 495.714 801.489 495.613 798.053C494.769 769.355 504.871 715.689 521.731 659.804C538.681 603.622 563.201 542.722 592.587 499.731C593.983 497.689 595.895 496.053 598.129 494.99Z" stroke="#232323" stroke-width="28" stroke-linejoin="round"/>
<path d="M961.076 637.918C967.676 626.954 976.149 617.749 986.136 610.319C988.539 608.351 991.32 606.826 993.745 605.319C995.124 604.326 996.526 603.794 997.928 603.263C999.307 602.27 1000.71 601.738 1002.11 601.207C1007.7 598.619 1013.35 597.415 1019.4 597.117C1031.13 596.076 1043.4 598.709 1054.41 604.642C1059.91 607.609 1065.1 611.516 1069.58 615.457C1072.19 617.642 1074.44 619.843 1076.35 622.524C1077.49 623.855 1078.63 625.187 1079.76 626.518C1080.52 627.406 1080.9 627.85 1081.3 628.755C1082.06 629.643 1082.44 630.086 1083.22 631.436C1086.3 635.909 1085.92 642.865 1082.54 646.732C1080.52 649.144 1077.69 649.746 1075.16 648.946L1071.17 647.755C1070.81 647.773 1070.44 647.329 1069.7 646.902L1068.21 645.588C1067.09 644.718 1066 644.31 1065.24 643.422C1063.04 642.143 1061.19 640.846 1058.98 639.568C1054.93 636.992 1050.54 634.896 1046.53 633.243C1038.16 629.956 1029.85 628.053 1021.31 628.474C1017.03 628.685 1012.78 629.357 1008.55 630.49C1007.51 631.004 1006.44 631.057 1005.39 631.571C1004.35 632.085 1003.28 632.138 1002.23 632.652C1000.14 633.68 998.027 634.247 995.935 635.275C987.569 639.387 979.271 644.884 971.019 651.303L970.662 651.321C967.237 654.264 962.516 652.647 960.485 647.659C958.924 644.961 959.076 640.791 961.076 637.918Z" fill="#232323"/>
<path d="M1397.53 617.366C1404.55 606.671 1413.38 597.807 1423.65 590.776C1426.13 588.903 1428.97 587.49 1431.45 586.079C1432.87 585.141 1434.29 584.665 1435.71 584.189C1437.13 583.251 1438.55 582.775 1439.98 582.299C1445.66 579.933 1451.35 578.954 1457.42 578.894C1469.18 578.316 1481.33 581.43 1492.1 587.792C1497.48 590.973 1502.51 595.081 1506.83 599.196C1509.35 601.481 1511.51 603.77 1513.32 606.524C1514.4 607.899 1515.49 609.274 1516.57 610.65C1517.29 611.566 1517.65 612.025 1518.02 612.945C1518.74 613.862 1519.1 614.32 1519.83 615.699C1522.73 620.29 1522.08 627.226 1518.55 630.957C1516.44 633.288 1513.59 633.778 1511.08 632.878L1507.15 631.531C1506.79 631.535 1506.43 631.076 1505.71 630.621L1504.27 629.25C1503.19 628.336 1502.12 627.885 1501.4 626.968C1499.24 625.603 1497.45 624.235 1495.29 622.87C1491.34 620.137 1487.04 617.87 1483.1 616.061C1474.86 612.446 1466.64 610.217 1458.08 610.302C1453.8 610.344 1449.53 610.848 1445.26 611.814C1444.19 612.286 1443.12 612.297 1442.06 612.769C1440.99 613.242 1439.92 613.252 1438.86 613.725C1436.73 614.67 1434.59 615.153 1432.46 616.098C1423.94 619.877 1415.43 625.043 1406.93 631.132L1406.58 631.136C1403.04 633.942 1398.39 632.14 1396.55 627.077C1395.1 624.319 1395.41 620.158 1397.53 617.366Z" fill="#232323"/>
<path d="M1658.07 2109.95C1659.97 2117.74 1656.43 2125.88 1649.37 2129.78C1646.8 2131.2 1644.47 2131.62 1644.27 2131.66C1643.55 2131.8 1642.97 2131.87 1642.69 2131.91C1642.1 2131.97 1641.61 2132 1641.4 2132.01C1640.91 2132.03 1640.45 2132.04 1640.14 2132.04C1639.47 2132.05 1638.63 2132.04 1637.72 2132.03C1635.86 2132 1633.25 2131.95 1630.03 2131.87C1623.57 2131.7 1614.44 2131.42 1603.52 2131.05C1581.66 2130.32 1552.51 2129.24 1522.99 2128.01C1493.47 2126.79 1463.52 2125.43 1440.07 2124.12C1428.36 2123.47 1418.18 2122.84 1410.45 2122.23C1406.6 2121.93 1403.24 2121.63 1400.54 2121.32C1398.38 2121.08 1395.2 2120.69 1392.69 2119.97C1390.38 2119.3 1387.95 2118.03 1387.31 2117.71C1385.93 2117.01 1384.19 2116.09 1382.18 2114.99C1378.12 2112.8 1372.55 2109.7 1365.68 2105.82C1351.91 2098.05 1332.63 2087.01 1309.15 2073.46C1262.19 2046.37 1198.26 2009.18 1127.75 1968.01C986.72 1885.67 819.222 1787.37 708.002 1721.96C701.484 1718.13 698.092 1710.6 699.542 1703.18L718.969 1603.63C720.625 1595.14 728.136 1589.06 736.784 1589.21L816.787 1590.63C819.314 1590.68 821.802 1591.26 824.089 1592.34L825.758 1593.13L1489.34 1890.29L1489.81 1890.51C1492.14 1891.64 1494.21 1893.26 1495.85 1895.27C1521.32 1926.38 1559.85 1974.12 1592.67 2016.28C1609.06 2037.34 1624.13 2057.14 1635.45 2072.81C1641.1 2080.63 1645.94 2087.59 1649.58 2093.25C1651.4 2096.07 1653.03 2098.74 1654.34 2101.14C1655.5 2103.25 1656.99 2106.17 1657.87 2109.2L1658.07 2109.95Z" fill="white" stroke="#232323" stroke-width="33.1901" stroke-linejoin="round"/>
<path d="M832.241 1689.63C1081.42 1815.09 1544.26 2026.9 1648 2117.63L1404.15 2126.7L764.728 1755.73L806.07 1708.89L832.241 1689.63Z" fill="black" fill-opacity="0.08"/>
<path d="M1658.07 2109.95C1659.97 2117.74 1656.43 2125.88 1649.37 2129.78C1646.8 2131.2 1644.47 2131.62 1644.27 2131.66C1643.55 2131.8 1642.97 2131.87 1642.69 2131.91C1642.1 2131.97 1641.61 2132 1641.4 2132.01C1640.91 2132.03 1640.45 2132.04 1640.14 2132.04C1639.47 2132.05 1638.63 2132.04 1637.72 2132.03C1635.86 2132 1633.25 2131.95 1630.03 2131.87C1623.57 2131.7 1614.44 2131.42 1603.52 2131.05C1581.66 2130.32 1552.51 2129.24 1522.99 2128.01C1493.47 2126.79 1463.52 2125.43 1440.07 2124.12C1428.36 2123.47 1418.18 2122.84 1410.45 2122.23C1406.6 2121.93 1403.24 2121.63 1400.54 2121.32C1398.38 2121.08 1395.2 2120.69 1392.69 2119.97C1390.38 2119.3 1387.95 2118.03 1387.31 2117.71C1385.93 2117.01 1384.19 2116.09 1382.18 2114.99C1378.12 2112.8 1372.55 2109.7 1365.68 2105.82C1351.91 2098.05 1332.63 2087.01 1309.15 2073.46C1262.19 2046.37 1198.26 2009.18 1127.75 1968.01C986.72 1885.67 819.222 1787.37 708.002 1721.96C701.484 1718.13 698.092 1710.6 699.542 1703.18L718.969 1603.63C720.625 1595.14 728.136 1589.06 736.784 1589.21L816.787 1590.63C819.314 1590.68 821.802 1591.26 824.089 1592.34L825.758 1593.13L1489.34 1890.29L1489.81 1890.51C1492.14 1891.64 1494.21 1893.26 1495.85 1895.27C1521.32 1926.38 1559.85 1974.12 1592.67 2016.28C1609.06 2037.34 1624.13 2057.14 1635.45 2072.81C1641.1 2080.63 1645.94 2087.59 1649.58 2093.25C1651.4 2096.07 1653.03 2098.74 1654.34 2101.14C1655.5 2103.25 1656.99 2106.17 1657.87 2109.2L1658.07 2109.95Z" stroke="#232323" stroke-width="33.1901" stroke-linejoin="round"/>
<path d="M739.846 1569.24C748.072 1573.59 751.602 1583.63 747.781 1592.23L709.61 1678.13C707.593 1682.67 703.776 1686.15 699.078 1687.76C694.379 1689.36 689.223 1688.94 684.852 1686.58C611.954 1647.26 464.294 1567.78 452.426 1561.97C443.654 1557.67 432.82 1550.97 425.912 1539.44C418.581 1527.2 417.387 1512.52 422.093 1496.02C425.321 1483.82 430.737 1473.91 438.398 1466.58C446.159 1459.15 455.2 1455.37 463.936 1453.89C480.537 1451.06 496.47 1456.39 504.883 1460C516.976 1465.18 666.333 1534.86 739.034 1568.83L739.846 1569.24Z" fill="#FF6802" stroke="#232323" stroke-width="33.1901" stroke-linejoin="round"/>
<path d="M434.133 1515.04C485.569 1491.11 635.134 1556.85 703.488 1592.71L719.061 1567.3L724.276 1549.22L658.346 1524.02L558.975 1486.09L489.512 1458.85L439.435 1460.9C432.145 1474.26 420.881 1503.8 434.133 1515.04Z" fill="black" fill-opacity="0.3"/>
<path d="M739.846 1569.24C748.072 1573.59 751.602 1583.63 747.781 1592.23L709.61 1678.13C707.593 1682.67 703.776 1686.15 699.078 1687.76C694.379 1689.36 689.223 1688.94 684.852 1686.58C611.954 1647.26 464.294 1567.78 452.426 1561.97C443.654 1557.67 432.82 1550.97 425.912 1539.44C418.581 1527.2 417.387 1512.52 422.093 1496.02C425.321 1483.82 430.737 1473.91 438.398 1466.58C446.159 1459.15 455.2 1455.37 463.936 1453.89C480.537 1451.06 496.47 1456.39 504.883 1460C516.976 1465.18 666.333 1534.86 739.034 1568.83L739.846 1569.24Z" stroke="#232323" stroke-width="33.1901" stroke-linejoin="round"/>
<path d="M893.239 1519.78C892.435 1529.06 888.008 1538.03 883.795 1545.18C879.33 1552.75 873.599 1560.7 867.999 1568.24C857.416 1582.49 847.546 1595.14 841.537 1606.09C846.928 1682.27 805.673 1727.86 770.137 1748.79C759.984 1758.32 749.517 1777.09 740.561 1796.87C736.128 1806.66 732.401 1815.9 729.511 1823.14C728.099 1826.68 726.808 1829.94 725.785 1832.39C725.275 1833.62 724.741 1834.86 724.225 1835.96C724.126 1836.17 723.929 1836.59 723.645 1837.14C721.138 1844.12 716.549 1850.33 709.389 1854.16C701.947 1858.13 694.116 1858.23 687.973 1857.33C676.143 1855.59 663.776 1849.09 653.993 1843.02C643.678 1836.63 633.874 1829.2 626.747 1823.5C623.151 1820.63 620.168 1818.14 618.083 1816.39C616.989 1815.47 616.282 1814.87 615.74 1814.42C615.693 1814.38 615.652 1814.35 615.617 1814.32C612.494 1812.01 610.158 1808.72 609.059 1804.88C607.368 1798.97 608.834 1792.61 612.943 1788.05C645.321 1752.05 659.988 1726.14 666.481 1710.25C669.73 1702.29 670.875 1696.98 671.238 1694.26C671.256 1694.12 671.269 1693.98 671.284 1693.86C657.123 1645.41 671.788 1611.16 691.849 1589.35C709.34 1570.33 731.556 1560.83 733.678 1560.13C752.442 1547.47 762.581 1528.41 768.16 1511.02C770.968 1502.27 772.503 1494.28 773.408 1488.36C773.861 1485.38 774.149 1482.99 774.389 1481.07C774.493 1480.22 774.632 1479.11 774.788 1478.18C774.855 1477.78 775.014 1476.83 775.309 1475.77C775.443 1475.28 775.775 1474.13 776.405 1472.79C776.592 1472.39 778.612 1467.63 783.99 1464.66C784.902 1464.15 785.857 1463.73 786.841 1463.4C823.074 1451 850.192 1462.62 867.499 1477.97C883.733 1492.38 891.554 1510.47 891.082 1509.62C892.793 1512.72 893.545 1516.25 893.239 1519.78ZM620.678 1816.92C620.473 1816.86 620.271 1816.78 620.071 1816.71C620.263 1816.78 620.465 1816.85 620.678 1816.92Z" fill="#58BF43" stroke="#232323" stroke-width="33.1901" stroke-linejoin="round"/>
<path d="M823.063 1603.48C848.943 1525.17 806.517 1488.05 784.157 1488.14L778.464 1479.28L778.756 1471.12L802.568 1470.77L844.937 1448.96L890.115 1503.23L901.209 1529.1L870.904 1569.85L845.375 1604.76L837.696 1685.02C832.484 1682.83 837.305 1622.02 823.063 1603.48Z" fill="black" fill-opacity="0.3"/>
<path d="M893.239 1519.78C892.435 1529.06 888.008 1538.03 883.795 1545.18C879.33 1552.75 873.599 1560.7 867.999 1568.24C857.416 1582.49 847.546 1595.14 841.537 1606.09C846.928 1682.27 805.673 1727.86 770.137 1748.79C759.984 1758.32 749.517 1777.09 740.561 1796.87C736.128 1806.66 732.401 1815.9 729.511 1823.14C728.099 1826.68 726.808 1829.94 725.785 1832.39C725.275 1833.62 724.741 1834.86 724.225 1835.96C724.126 1836.17 723.929 1836.59 723.645 1837.14C721.138 1844.12 716.549 1850.33 709.389 1854.16C701.947 1858.13 694.116 1858.23 687.973 1857.33C676.143 1855.59 663.776 1849.09 653.993 1843.02C643.678 1836.63 633.874 1829.2 626.747 1823.5C623.151 1820.63 620.168 1818.14 618.083 1816.39C616.989 1815.47 616.282 1814.87 615.74 1814.42C615.693 1814.38 615.652 1814.35 615.617 1814.32C612.494 1812.01 610.158 1808.72 609.059 1804.88C607.368 1798.97 608.834 1792.61 612.943 1788.05C645.321 1752.05 659.988 1726.14 666.481 1710.25C669.73 1702.29 670.875 1696.98 671.238 1694.26C671.256 1694.12 671.269 1693.98 671.284 1693.86C657.123 1645.41 671.788 1611.16 691.849 1589.35C709.34 1570.33 731.556 1560.83 733.678 1560.13C752.442 1547.47 762.581 1528.41 768.16 1511.02C770.968 1502.27 772.503 1494.28 773.408 1488.36C773.861 1485.38 774.149 1482.99 774.389 1481.07C774.493 1480.22 774.632 1479.11 774.788 1478.18C774.855 1477.78 775.014 1476.83 775.309 1475.77C775.443 1475.28 775.775 1474.13 776.405 1472.79C776.592 1472.39 778.612 1467.63 783.99 1464.66C784.902 1464.15 785.857 1463.73 786.841 1463.4C823.074 1451 850.192 1462.62 867.499 1477.97C883.733 1492.38 891.554 1510.47 891.082 1509.62C892.793 1512.72 893.545 1516.25 893.239 1519.78ZM620.678 1816.92C620.473 1816.86 620.271 1816.78 620.071 1816.71C620.263 1816.78 620.465 1816.85 620.678 1816.92Z" stroke="#232323" stroke-width="33.1901" stroke-linejoin="round"/>
<path d="M712.358 1630.62C697.494 1662.35 704.793 1697.13 728.659 1708.31C752.525 1719.49 783.922 1702.83 798.785 1671.1C813.648 1639.37 806.35 1604.59 782.484 1593.41C758.618 1582.23 727.221 1598.89 712.358 1630.62Z" fill="#F4D93B"/>
<path d="M774.048 1396.64C689.764 1474.61 618.099 1527.35 558.153 1559.8C189.463 1758.12 257.972 1184.8 539.673 968.904L593.309 1066.71L774.048 1396.64Z" fill="#F4D93B"/>
<path d="M558.23 1559.8C189.54 1758.11 258.05 1184.8 539.75 968.9L593.386 1066.71C519.468 1201.92 354.504 1542.22 558.23 1551.68C558.23 1551.23 558.23 1554.39 558.23 1559.8Z" fill="#EC2F2F" fill-opacity="0.14"/>
<path d="M879.578 1972.63C982.793 1995.62 1052.66 2022.66 1052.66 2022.66L1079.25 1989.76L1066.63 1972.63H879.578Z" fill="#232323"/>
<path d="M392.846 1646.75C583.051 1662.07 702.041 1466.91 702.041 1466.91L593.868 1555.25L496.512 1587.71L410.425 1601.23L390.593 1613.4L392.846 1646.75Z" fill="#232323"/>
<path d="M1127.56 743.883C1239.81 664.625 1297.88 656.099 1422.44 725.818C1451.49 741.929 1444.51 770.336 1421.03 781.759C1364.88 809.115 1201.36 822.172 1135.1 804.453C1104.37 795.979 1096.94 765.535 1127.5 743.832L1127.56 743.883Z" fill="#FF814A"/>
<path d="M1119.35 732.241C1159.37 705.234 1204.06 678.455 1252.93 669.63C1302.88 660.344 1354.43 677.208 1398.4 698.139C1407.7 702.246 1416.61 707.098 1425.67 711.664C1431.97 714.819 1438.83 718.875 1443.91 724.326C1465.16 744.408 1457.26 778.685 1433.26 792.854C1424.2 798.462 1412.27 802.721 1402.18 806.244C1333.51 828.557 1185.76 843.444 1119 815.256C1082.04 795.882 1087.09 752.624 1119.35 732.296L1119.35 732.241ZM1135.79 755.533C1118.27 768.31 1118.44 785.051 1141.4 789.256L1151.93 791.231C1211.92 798.274 1276.13 793.853 1336.48 786.164C1358.97 782.882 1381.58 778.873 1403.21 771.892C1403.85 771.461 1414.48 767.734 1415.05 767.142C1420.35 764.671 1425.43 759.894 1426.53 754.178C1427.92 746.395 1418.99 739.609 1412.11 736.108C1403.65 731.389 1395.16 726.231 1386.52 721.968C1283.1 666.146 1224.82 689.007 1135.73 755.482L1135.79 755.533Z" fill="#232323"/>
<path d="M1622.49 990.144C1654.09 979.398 1684.08 974.274 1706.33 982.06C1706.66 982.175 1706.98 982.304 1707.3 982.449C1713.09 985.111 1716.86 990.774 1719.11 995.267C1721.64 1000.31 1723.54 1006.44 1724.42 1012.89C1725.35 1019.66 1725.24 1027.53 1723.06 1035.18C1728.62 1035.28 1735.05 1035.74 1741.43 1037.14C1751.08 1039.25 1761.98 1043.8 1769.35 1053.89C1775.88 1062.84 1778.46 1074.52 1776.9 1088.9C1778.1 1089.76 1779.48 1090.75 1781.52 1092.25C1787.56 1096.7 1795.77 1103.08 1803.67 1111.17C1819.21 1127.08 1835.49 1151.71 1828.35 1182.69C1827.55 1186.14 1825.15 1189.01 1821.89 1190.39C1818.63 1191.78 1814.9 1191.52 1811.86 1189.69C1780.74 1170.99 1762.47 1161.26 1746.99 1156.49C1732.12 1151.91 1719.3 1151.75 1698.51 1153.96C1676.96 1156.25 1590.58 1160.58 1507.49 1166.75C1465.66 1169.86 1424.43 1173.44 1391.93 1177.49C1375.66 1179.52 1361.77 1181.64 1351.16 1183.83C1345.85 1184.93 1341.54 1186.02 1338.25 1187.06C1334.74 1188.17 1333.19 1189 1332.8 1189.27C1327.87 1192.72 1321.11 1191.6 1317.54 1186.77C1313.98 1181.93 1314.93 1175.14 1319.68 1171.46C1367.29 1134.57 1443.34 1080.85 1516.95 1039.52C1553.72 1018.87 1590.24 1001.11 1622.49 990.144Z" fill="#E82117" stroke="#232323" stroke-width="22.1312" stroke-linejoin="round"/>
<path d="M1335.1 1079.01L1118.82 1091.22C1113.59 1091.52 1108.84 1094.36 1106.09 1098.82L1069.68 1158C1065.5 1164.8 1066.96 1173.64 1073.12 1178.72L1212.35 1293.74C1233.85 1311.49 1265.71 1308.24 1283.17 1286.5L1388.51 1155.4C1393.2 1149.57 1393.22 1141.28 1388.57 1135.42L1348.52 1085.03C1345.29 1080.97 1340.28 1078.72 1335.1 1079.01Z" fill="#58BF43" stroke="#E82117" stroke-width="29" stroke-linejoin="round"/>
<path d="M1222.89 1196.15C1223.47 1195.96 1224.04 1195.96 1224.62 1195.96C1230.01 1195.57 1235.79 1195.38 1241.19 1195C1247.35 1194.61 1252.74 1194.42 1258.71 1194.04C1260.45 1193.85 1262.37 1193.46 1263.91 1192.89C1272.39 1190.01 1275.08 1181.75 1272.77 1172.91C1269.31 1159.85 1258.71 1148.91 1245.42 1146.03C1227.7 1141.99 1208.25 1150.06 1200.35 1166.58C1197.47 1172.53 1196.12 1180.21 1196.69 1187.32C1198.04 1208.63 1215.38 1224.19 1236.76 1224C1245.23 1224 1253.71 1222.27 1260.64 1217.66C1265.65 1214.4 1271.23 1210.17 1269.69 1203.45C1268.34 1198.07 1263.53 1194.61 1258.13 1196.54C1256.4 1197.11 1254.86 1198.07 1253.32 1199.03C1251.2 1200.18 1249.08 1201.53 1246.77 1202.3C1240.8 1204.6 1231.17 1204.99 1225.39 1201.72C1224.24 1200.95 1222.12 1199.61 1221.73 1198.26C1221.35 1197.5 1221.93 1196.54 1222.89 1196.15ZM1221.54 1177.14C1220.77 1176.95 1220.19 1176.37 1220.19 1175.6C1220.19 1175.03 1220.38 1174.26 1220.58 1173.68C1223.08 1167.92 1229.05 1164.85 1235.6 1164.85C1241.38 1164.65 1247.35 1166.96 1250.43 1172.53C1250.62 1172.91 1250.82 1173.3 1250.82 1173.68C1250.82 1174.07 1250.82 1174.45 1250.62 1174.83C1250.24 1175.6 1249.47 1175.99 1248.5 1175.99C1241.76 1176.37 1229.82 1176.95 1222.7 1177.33C1222.31 1177.33 1221.93 1177.33 1221.54 1177.14Z" fill="white"/>
<path d="M1334.13 1055.2C1346.81 1054.48 1359.05 1059.97 1366.94 1069.91L1407.59 1121.06C1418.96 1135.36 1418.9 1155.63 1407.46 1169.87L1300.28 1303.25C1275.31 1334.34 1229.73 1339 1198.98 1313.6L1057.44 1196.69C1042.41 1184.27 1038.83 1162.67 1049.05 1146.06L1086 1086L1086.32 1085.49C1093.07 1074.89 1104.52 1068.16 1117.09 1067.45L1334.13 1055.2ZM1124.25 1114.79L1093.55 1164.69L1229.33 1276.85C1239.59 1285.33 1254.8 1283.77 1263.13 1273.4L1366.02 1145.35L1332.39 1103.03L1124.25 1114.79Z" fill="#E82117" stroke="#232323" stroke-width="20" stroke-linejoin="round"/>
<path d="M548.408 993.98C512.224 1023.1 480.011 1057.52 451.77 1095.47C438.091 1114.45 424.853 1133.86 413.38 1154.6C401.466 1174.9 390.875 1195.64 381.167 1217.26C361.752 1260.06 346.748 1304.63 337.041 1350.52C332.187 1373.47 328.656 1396.42 327.333 1419.36C326.009 1442.31 326.45 1465.7 330.421 1487.32C334.393 1509.38 341.012 1530.56 352.926 1547.77C364.84 1564.54 381.609 1576.89 401.466 1582.19C411.615 1584.84 421.764 1585.72 432.796 1585.72C443.827 1585.28 454.418 1583.96 465.891 1581.31C487.954 1576.45 509.576 1568.51 530.757 1558.8C573.119 1539.39 613.274 1513.35 652.106 1485.55C690.938 1457.75 728.004 1427.31 764.629 1396.42C767.718 1393.77 771.69 1394.21 773.896 1397.3C776.102 1399.95 776.102 1403.92 773.455 1406.12C739.477 1440.54 703.293 1473.2 665.785 1503.64C646.811 1518.65 627.395 1533.65 606.655 1546.89C585.916 1560.13 565.176 1573.36 543.113 1584.4C521.049 1595.43 497.662 1604.69 472.51 1611.31C460.154 1614.4 446.916 1616.17 434.12 1617.05C420.881 1617.49 407.202 1616.61 393.964 1613.52C387.345 1611.76 380.726 1609.55 374.107 1606.9C367.488 1604.25 361.31 1600.72 355.574 1596.75C343.66 1588.81 333.952 1578.66 326.009 1567.19C322.037 1561.45 318.507 1555.71 315.418 1549.98C312.33 1543.8 309.682 1537.62 307.475 1531.89C305.269 1525.71 303.063 1519.53 301.298 1513.35C299.533 1507.17 298.209 1500.56 296.885 1494.38C292.472 1468.78 291.59 1443.63 292.914 1418.48C294.237 1393.33 297.768 1368.62 303.063 1344.35C313.212 1295.81 329.539 1248.59 350.279 1203.58C360.428 1181.08 371.901 1159.46 384.697 1138.27C397.494 1117.09 411.174 1096.8 426.177 1076.94C456.183 1037.67 491.043 1001.48 531.199 971.916C537.818 967.062 546.643 968.386 551.497 975.005C555.91 980.3 554.586 989.126 548.408 993.98Z" fill="#232323"/>
<path d="M486.674 983.465C488.917 978.979 493.644 976.29 498.646 976.655C758.175 995.602 983.988 1121.13 1113.14 1179.21C1118.46 1181.61 1121.39 1187.39 1120.17 1193.1C1118.94 1198.8 1113.9 1202.88 1108.06 1202.88C1079.26 1202.88 1031.4 1195.62 986.491 1190.39C963.643 1187.72 941.241 1185.53 921.479 1184.83C901.46 1184.13 885.242 1185.01 874.268 1187.96C873.77 1188.09 873.264 1188.19 872.754 1188.26C616.601 1223.59 456.648 1307.93 359.898 1413.06C263.196 1518.15 228.29 1645.47 225.11 1769.49C221.927 1893.65 250.59 2013.87 280.379 2103.48C295.253 2148.22 310.358 2185.17 321.794 2210.97C327.511 2223.87 332.304 2233.96 335.685 2240.83C337.376 2244.27 338.706 2246.89 339.614 2248.63C340.071 2249.51 340.406 2250.14 340.617 2250.52C340.655 2250.59 340.686 2250.65 340.71 2250.69C342.921 2254.24 343.227 2258.73 341.359 2262.61C339.077 2267.35 334.048 2270.13 328.821 2269.54C164.528 2251.01 82.0417 2179.97 41.8281 2125.41C13.0311 2086.34 8.36991 2032.62 15.0723 1987.48C53.5388 1728.39 145.756 1518.03 228.807 1371.75C270.34 1298.61 309.607 1241.44 338.77 1202.17C353.352 1182.53 365.409 1167.37 373.957 1156.92C378.232 1151.7 381.623 1147.66 384.003 1144.85C384.365 1144.42 384.692 1144.03 384.993 1143.68C385.4 1107.79 401.063 1086.33 417.052 1073.63C425.131 1067.21 433.04 1063.22 438.195 1060.72C438.509 1060.57 438.802 1060.43 439.075 1060.3C443.339 1038.91 454.698 1021.11 465.046 1008.02C470.686 1000.88 476.236 994.882 480.41 990.383C482.558 988.067 484.202 986.299 485.448 984.859C486.913 983.167 486.955 982.902 486.674 983.465Z" fill="#E82117" stroke="#232323" stroke-width="24.7548" stroke-linejoin="round"/>
<path d="M1899.13 1582.96C1867.63 1576.82 1839.53 1496.14 1815.06 1457.5L1815.06 1511.5L1811.06 1566L1798.06 1593.33L1850.57 1593.33C1861.86 1592.98 1887.37 1590.43 1899.13 1582.96Z" fill="#232323"/>
</svg>
