<svg width="3205" height="2282" viewBox="0 0 3205 2282" fill="none" xmlns="http://www.w3.org/2000/svg">
<path d="M1705.23 1289.77C1708.78 1285.21 1715.25 1284.15 1720.07 1287.34C1799.3 1339.8 1917.43 1430.53 2014.63 1532.51C2063.23 1583.5 2106.88 1637.6 2137.79 1691.39C2168.64 1745.05 2187.35 1799.36 2184.66 1850.48C2184.58 1852.08 2184.14 1853.65 2183.39 1855.07C2182.32 1857.11 2180.54 1858.93 2178.13 1860.03C2175.9 1861.04 2173.85 1861.1 2172.54 1860.99C2170.21 1860.79 2168.51 1859.9 2168.04 1859.66C2166.8 1859 2165.79 1858.19 2165.35 1857.85C2164.28 1856.99 2162.89 1855.74 2161.57 1854.56C2158.73 1852.02 2154.8 1848.53 2149.76 1844.6C2139.64 1836.73 2125.21 1827.29 2107.12 1821.2C2071.85 1809.31 2020.17 1809.24 1956.2 1865.59C1890.38 1923.58 1839.34 1975.21 1770.73 2003.45C1701.35 2032.02 1615.18 2036.48 1478.62 2005.12C1477.07 2004.77 1475.61 2004.08 1474.35 2003.11C1431.5 1970.16 1417.36 1918.7 1420.92 1859.98C1424.46 1801.36 1445.66 1733.63 1475.79 1664.8C1536.13 1527 1633.75 1381.6 1705.23 1289.77Z" fill="#E82117" stroke="#232323" stroke-width="22.1312" stroke-linejoin="round"/>
<path d="M761.862 1100.09C763.378 1099.7 764.954 1099.6 766.506 1099.8C862.182 1112.11 1000.15 1130.92 1103.03 1147.32C1154.34 1155.5 1197.37 1163.15 1222.03 1169.16C1228.21 1170.66 1233.52 1172.13 1237.63 1173.55C1239.67 1174.25 1241.67 1175.04 1243.44 1175.92C1244.84 1176.61 1247.58 1178.06 1249.72 1180.61C1250.9 1182.02 1252.6 1184.6 1252.9 1188.24C1253.23 1192.24 1251.72 1195.57 1249.87 1197.8C1246.97 1201.3 1243 1202.5 1241.67 1202.89C1237.93 1204 1232.82 1204.55 1227.16 1204.89C1227.07 1204.89 1226.99 1204.9 1226.9 1204.9C1209.71 1205.56 1187.67 1216.86 1161.32 1239.82C1135.4 1262.42 1107.09 1294.73 1077.51 1333.9C1018.4 1412.2 955.406 1516.32 897.536 1620.69C839.714 1724.98 787.213 1829.15 749.072 1907.36C730.006 1946.46 714.536 1979.06 703.792 2001.92C698.42 2013.34 694.23 2022.34 691.358 2028.51C689.926 2031.59 688.811 2033.98 688.045 2035.61C687.665 2036.43 687.353 2037.09 687.125 2037.56C687.015 2037.79 686.897 2038.03 686.787 2038.25C686.739 2038.35 686.645 2038.53 686.532 2038.74C686.469 2038.85 686.31 2039.13 686.206 2039.3C685.999 2039.63 685.122 2040.81 684.385 2041.62C682.049 2043.96 678.876 2045.26 675.572 2045.24C586.281 2044.81 536.861 2069.5 510.068 2092.73C496.573 2104.42 488.506 2116.01 483.912 2124.45C481.609 2128.68 480.192 2132.09 479.407 2134.29C479.12 2135.09 478.933 2135.7 478.822 2136.08C478.685 2137.18 478.402 2138.26 477.964 2139.31C476.04 2143.92 471.536 2146.92 466.543 2146.92C462.696 2146.92 459.687 2145.2 457.739 2143.24V2143.24C430.018 2115.19 395.3 2100.57 362.661 2093.81C330.18 2087.09 300.522 2088.33 283.502 2091.39L227.39 2105.86C223.84 2106.77 220.066 2106.07 217.087 2103.93C214.107 2101.79 212.228 2098.44 211.956 2094.79L173.939 1583.78C173.769 1581.49 174.238 1579.21 175.292 1577.17L368.025 1204.96L368.182 1204.67C369.83 1201.69 372.64 1199.51 375.953 1198.66L761.862 1100.09Z" fill="#A7120B" stroke="#232323" stroke-width="24.7548" stroke-linejoin="round"/>
<path d="M1156.52 350.011C1114.38 360.082 1062.37 360.484 1003.84 344.804L856.06 305.036C917.553 124.491 1044.16 106.812 1047.94 226.002C1047.94 226.002 1101.12 151.663 1209.58 188.057C1215.04 190.075 1220.04 191.839 1225.94 194.11C1312.19 229.981 1267.98 323.331 1156.52 350.011Z" fill="#F4D93B"/>
<path d="M1156.44 349.969C1147.65 343.493 1146.22 335.954 1159.01 327.061C1209.08 290.343 1280.92 232.151 1183.28 193.014L1209.51 188.015C1214.96 190.033 1219.96 191.798 1225.87 194.069C1312.12 229.94 1267.9 323.289 1156.44 349.969Z" fill="white"/>
<path d="M848.177 317.765C841.389 313.964 837.667 306.181 839.874 299.646C883.219 173.174 955.716 126.745 1004.97 136.718C1031.42 142.207 1050.68 162.314 1059.4 192.582C1090.13 170.421 1147.49 145.56 1231.24 180.549C1276.41 199.113 1296.92 234.947 1284.16 273.387C1263.76 336.041 1153.75 400.83 1000.51 359.044C991.629 356.661 985.407 347.996 987.184 340.184C988.96 332.372 997.999 327.592 1006.88 329.976C1138.71 365.99 1235.65 312.526 1251.66 261.918C1257.07 245.262 1255.97 222.372 1219.65 207.215C1115.47 163.892 1063.8 231.827 1061.9 234.906C1058.12 240.043 1050.51 242.513 1043.01 239.867C1035.96 237.473 1030.6 231.362 1030.52 224.584C1029.65 191.46 1018.22 169.52 999.984 165.523C969.201 159.162 909.194 200.153 871.709 310.223C869.243 318.166 859.773 321.669 850.677 318.648C850.44 319.032 849.082 318.272 848.177 317.765Z" fill="#232323"/>
<path d="M1485.35 1801.82C1648.96 1949.66 1639.95 2063.24 1435.32 2081.27C1230.69 2099.3 1083.76 2057.38 1131.09 1929.38C1178.41 1801.37 1485.35 1801.82 1485.35 1801.82Z" fill="#FF814A"/>
<path d="M1350.11 2100.23C1238.33 2100.23 1160.8 2077.25 1127 2033.08C1104.91 2003.78 1101.31 1967.27 1117.53 1924.45C1167.56 1788.79 1470.9 1786.98 1485.77 1786.98C1489.38 1786.98 1492.98 1788.34 1495.69 1790.59C1589.44 1875.32 1629.1 1950.14 1610.17 2006.94C1593.5 2056.97 1535.35 2087.16 1437.1 2095.73C1406 2098.88 1377.15 2100.23 1350.11 2100.23ZM1479.91 1816.73C1438.9 1817.63 1184.69 1827.1 1145.03 1934.82C1132.86 1968.17 1134.66 1994.31 1150.44 2015.05C1185.59 2060.57 1288.81 2079.5 1434.39 2066.43C1518.23 2058.77 1569.61 2035.33 1581.78 1997.92C1596.2 1954.2 1560.14 1890.2 1479.91 1816.73Z" fill="#232323"/>
<path d="M461.783 1411.92C203.069 1412.37 9.70942 1553.44 519.475 1837.85C961.183 2084.39 461.783 1411.92 461.783 1411.92Z" fill="#EFA33F"/>
<path d="M662.791 1907.26C628.987 1907.26 579.407 1888.78 512.25 1850.92C390.104 1782.86 300.861 1718.86 247.226 1660.26C197.196 1605.72 177.364 1556.14 188.632 1512.88C210.717 1427.24 344.581 1396.59 462.22 1396.59C467.178 1396.59 471.685 1398.84 474.389 1402.9C475.291 1403.8 549.209 1503.86 614.564 1611.58C737.611 1813.96 724.99 1868.04 704.708 1891.03C694.792 1901.85 680.82 1907.26 662.791 1907.26ZM454.107 1427.24C324.299 1429.04 231.901 1465.1 217.478 1520.99C206.21 1563.81 231.901 1660.26 526.673 1824.77C648.368 1892.38 675.862 1877.51 681.27 1871.2C688.933 1862.64 704.708 1819.37 587.971 1627.81C532.983 1536.31 471.234 1450.68 454.107 1427.24Z" fill="#232323"/>
<path d="M1686.34 1035.54C1865.56 1280.42 2103.11 1350.4 2080.17 1479.82C2057.24 1609.23 1581.85 1621.39 1443.79 1414.67C1306.17 1207.82 1686.34 1035.54 1686.34 1035.54Z" fill="#EFA33F"/>
<path d="M1406.62 1371.01C1396.83 1339.59 1396.75 1307.52 1405.95 1274.91C1447.61 1128.33 1671.03 1025.67 1680.52 1021.29C1686.71 1018.42 1694.37 1020.28 1698.53 1026.07C1778.35 1135.27 1870.97 1209.8 1944.92 1269.85C2040.19 1346.86 2108.95 1402.38 2094.99 1481.8C2087.13 1526.26 2037.7 1560.07 1956.11 1577C1871.94 1594.73 1765.65 1591.49 1672.16 1568.69C1594.55 1549.91 1489.72 1508.93 1432.12 1422.55C1420.33 1405.92 1412.11 1388.65 1406.62 1371.01ZM1681.73 1053.96C1637.24 1076.32 1467.37 1167.49 1434.14 1283.59C1421.9 1326.12 1429.23 1366.32 1456.38 1406.49C1550.13 1546.76 1802.96 1579.4 1949.68 1548.79C2016.67 1535 2060.25 1508.2 2065.71 1477.23C2076.92 1414.72 2013.91 1364.01 1926.21 1293.15C1852.53 1233.96 1761.74 1160.75 1681.73 1053.96Z" fill="#232323"/>
<path d="M716.02 1801.82C552.409 1949.66 561.423 2063.24 766.051 2081.27C970.678 2099.3 1117.61 2057.38 1070.29 1929.37C1022.96 1801.37 716.02 1801.82 716.02 1801.82Z" fill="#FF814A"/>
<path d="M851.716 2100.2C824.673 2100.2 795.827 2098.85 764.727 2096.14C666.92 2087.58 608.327 2057.38 591.65 2007.35C572.72 1950.11 611.932 1875.29 706.133 1791C708.837 1788.75 712.443 1787.4 716.049 1787.4C730.923 1787.4 1034.26 1789.2 1084.29 1924.87C1100.06 1967.69 1096.91 2004.2 1074.82 2033.49C1041.02 2077.21 963.044 2100.2 851.716 2100.2ZM721.458 1816.7C641.229 1890.16 605.172 1954.62 619.595 1997.89C632.215 2035.3 683.146 2059.18 766.981 2066.4C912.564 2079.47 1015.78 2060.54 1050.94 2015.01C1066.71 1994.28 1068.51 1967.69 1056.34 1934.78C1016.68 1826.61 762.924 1817.15 721.458 1816.7Z" fill="#232323"/>
<path d="M1794.03 1623.32C1793.13 1626.48 1792.68 1629.63 1791.78 1632.79C1697.13 1970.38 1285.62 1975.79 993.1 1971.73H992.198C931.351 1970.83 871.405 1966.32 814.163 1957.31H813.713C563.111 1918.54 364.343 1796.4 382.823 1506.58C386.879 1407.88 403.105 1309.17 424.74 1215.42C440.064 1149.61 466.206 1094.17 480.179 1030.62C488.292 994.565 490.095 954 490.545 914.787C485.587 761.091 520.293 624.072 584.295 512.744C720.413 275.213 988.592 153.068 1292.38 235.099C1601.12 321.187 1702.54 594.324 1689.01 892.702V893.603C1685.41 1011.69 1716.96 1080.65 1759.33 1187.92C1812.51 1325.39 1829.19 1479.99 1794.03 1623.32Z" fill="#F4D93B"/>
<path d="M1529.5 449.621C1646.69 616.388 1666.07 725.462 1681.4 855.721C1696.27 985.979 1688.61 784.507 1688.61 784.507L1675.08 668.671L1633.62 517.229L1597.56 459.537L1529.5 449.621Z" fill="white"/>
<path d="M813.713 1957.72C563.111 1918.96 364.343 1796.82 382.823 1507C386.879 1408.29 403.105 1309.59 424.74 1215.84C440.064 1150.03 466.206 1094.59 480.179 1031.04C488.292 994.983 490.095 954.418 490.545 915.205C485.587 761.509 500.563 583.5 586.063 505.5C611.881 481.947 721.563 457 721.563 457C649.448 637.289 624.86 1011.66 624.86 1011.66C624.86 1011.66 303.496 1539.45 558.153 1551.17C558.153 1551.17 553.196 1901.38 813.713 1957.72Z" fill="#EC2F2F" fill-opacity="0.14"/>
<path opacity="0.32" d="M1776.39 1668.08C1775.32 1671.23 1774.78 1674.39 1773.71 1677.54C1661.05 2015.02 1204.71 1968.56 856.563 1964.5H823.141L723.564 1943C602.866 1796.57 665.965 1331.06 1085.99 1228.78C1456.14 1138.66 1697.06 1241 1772.63 1381.97C1805.06 1480 1782.83 1552.73 1776.39 1668.08Z" fill="#FFF4C5"/>
<path d="M1067.99 1987.48C1042.75 1987.48 1017.51 1987.03 992.717 1987.03C743.468 1982.98 565.884 1924.83 464.021 1814.41C392.356 1736.43 359.904 1632.77 368.017 1506.11C371.623 1415.97 386.046 1317.26 410.385 1212.69C418.047 1179.34 428.414 1148.69 438.78 1118.94C449.147 1088.29 459.063 1059.45 465.824 1028.35C474.387 990.938 475.74 948.57 475.74 916.119C468.077 672.278 559.123 457.284 725.89 325.223C882.291 201.274 1084.66 164.315 1296.05 221.557C1574.6 299.532 1719.28 537.963 1703.5 893.582V894.033V894.484C1700.35 1000.4 1726.49 1066.66 1763 1158.16C1766.16 1166.27 1769.31 1174.38 1772.92 1182.95C1831.51 1333.04 1843.23 1494.39 1806.27 1636.82C1762.55 1792.32 1653.02 1892.83 1470.93 1944.67C1344.28 1980.72 1204.56 1987.48 1067.99 1987.48ZM1105.4 224.712C971.533 224.712 847.134 266.629 744.37 348.209C585.265 473.961 498.276 680.842 505.487 915.217V915.668C505.487 949.923 504.135 994.093 494.67 1034.66C487.458 1067.56 476.641 1098.21 466.725 1128.41C456.809 1157.71 446.443 1187.45 439.231 1219.45C415.343 1322.22 401.371 1419.12 397.314 1507.92C389.652 1626.46 419.399 1722.91 485.655 1794.57C581.659 1898.69 752.032 1953.23 993.168 1957.74C1326.7 1961.79 1690.43 1940.61 1777.42 1629.16C1813.03 1493.04 1801.76 1338.44 1745.42 1194.21C1742.27 1185.65 1738.66 1177.54 1735.51 1169.42C1697.65 1074.32 1670.6 1005.81 1674.21 894.033V893.582V893.132C1682.77 695.716 1644.46 350.012 1288.39 250.403C1226.19 232.825 1164.89 224.712 1105.4 224.712Z" fill="#232323"/>
<path d="M106.529 566.373C220.823 489.729 324.291 476.209 407.554 491.527C483.038 505.414 541.139 542.861 575.097 576.869C577.5 575.31 579.907 574.028 582.312 573.091C588.639 570.629 597.871 569.728 605.121 576.716C610.983 582.366 612.07 590.218 612.217 595.352C612.383 601.163 611.44 607.65 609.871 614.194C603.866 639.235 586.27 674.744 560.963 700.022C507.25 846.409 394.145 906.159 295.412 928.664C245.822 939.967 199.633 941.969 165.85 940.971C148.942 940.472 135.039 939.218 125.249 937.969C120.374 937.347 116.409 936.712 113.541 936.148C112.154 935.875 110.781 935.572 109.608 935.239C109.098 935.095 108.151 934.813 107.13 934.369C106.7 934.182 105.56 933.674 104.304 932.762C103.681 932.31 102.502 931.384 101.368 929.902C100.255 928.447 98.4474 925.472 98.4701 921.279C98.4804 919.376 98.8787 917.495 99.6406 915.751C143.486 815.39 204.438 759.729 269.52 726.096C301.595 709.521 334.647 698.354 366.658 689.737C273.802 688.112 212.22 669.578 171.794 648.094C145.455 634.096 128.326 618.96 117.538 606.775C112.154 600.695 108.383 595.389 105.851 591.386C103.498 587.666 101.733 584.17 102.134 584.881C98.5398 578.511 100.454 570.447 106.529 566.373Z" fill="#E82117" stroke="#232323" stroke-width="28" stroke-linejoin="round"/>
<path d="M598.517 492.544C748.544 420.668 1092.34 309.03 1566.19 439.205C1567.9 439.515 1569.21 440.061 1569.92 440.397C1571.84 441.312 1573.17 442.46 1573.79 443.019C1575.12 444.235 1576.21 445.593 1576.91 446.522C1578.45 448.557 1580.19 451.258 1582.01 454.26C1585.71 460.385 1590.54 469.136 1596.05 479.713C1607.09 500.925 1621.2 530.145 1635.03 561.838C1648.85 593.506 1662.49 627.88 1672.52 659.349C1682.4 690.333 1689.33 720.16 1688.49 742.025C1688.02 754.266 1684.29 764.938 1677.46 773.639C1670.72 782.222 1661.62 788.047 1651.69 791.872C1632.2 799.374 1607.48 799.966 1583.17 797.226C1558.52 794.446 1532.65 788.045 1509.91 780.13C1487.36 772.283 1466.87 762.601 1453.46 752.784C1429.99 735.601 1400.68 710.764 1338.11 707.121C1274.47 703.416 1175.19 721.699 1013.33 796.918C1013.32 796.924 1013.31 796.929 1013.3 796.935C880.259 858.283 766.757 876.014 679.204 870.91C592.27 865.843 529.485 838.096 499.865 806.59C497.521 804.096 496.171 800.83 496.071 797.409C495.229 768.562 505.319 714.581 522.172 658.348C539.113 601.821 563.618 540.553 592.983 497.305C594.374 495.256 596.284 493.614 598.517 492.544Z" fill="#E82117" stroke="#232323" stroke-width="28" stroke-linejoin="round"/>
<path d="M1664.07 789C1692.57 729.5 1560.57 446.882 1514.57 426.291L1590.07 451L1621.57 505L1664.07 643L1692.57 753.5C1690.23 760.167 1681.27 776.6 1664.07 789Z" fill="white"/>
<path d="M598.13 494.99C745.577 424.819 1091.1 316.073 1552.58 434.849C1572.12 439.879 1591.09 451.832 1600.94 471.909L1602.29 474.678C1616.48 503.952 1637.99 553.772 1655.93 604.061C1665.2 630.029 1673.59 656.333 1679.53 680.133C1685.4 703.654 1689.15 725.794 1688.49 743.016C1688.02 755.217 1684.27 765.852 1677.43 774.515C1670.68 783.055 1661.57 788.84 1651.65 792.637C1632.17 800.085 1607.46 800.675 1583.15 797.952C1558.49 795.191 1532.62 788.832 1509.87 780.968C1487.32 773.171 1466.83 763.552 1453.42 753.798C1429.94 736.727 1400.6 712.032 1337.98 708.41C1274.3 704.727 1174.96 722.903 1013.04 797.653C1013.03 797.659 1013.02 797.664 1013 797.67C879.921 858.632 766.388 876.247 678.819 871.177C591.873 866.142 529.076 838.578 499.44 807.264C497.078 804.767 495.715 801.489 495.614 798.053C494.77 769.355 504.872 715.689 521.732 659.804C538.682 603.622 563.202 542.722 592.588 499.731C593.984 497.689 595.896 496.053 598.13 494.99Z" stroke="#232323" stroke-width="28" stroke-linejoin="round"/>
<path d="M1019.23 594.622C1031.47 593.548 1044.2 596.299 1055.59 602.441C1061.31 605.523 1066.66 609.556 1071.23 613.58C1073.88 615.802 1076.26 618.118 1078.31 620.969C1078.86 621.612 1079.41 622.254 1079.96 622.897C1080.53 623.563 1081.1 624.229 1081.67 624.895C1082.35 625.699 1082.91 626.337 1083.42 627.389C1084.1 628.183 1084.56 628.774 1085.34 630.101C1087.19 632.846 1087.95 636.228 1087.8 639.428C1087.65 642.636 1086.57 645.9 1084.46 648.337C1081.76 651.558 1077.88 652.409 1074.44 651.34L1074.44 651.341L1070.67 650.214C1070.32 650.156 1070.03 650.046 1069.83 649.95C1069.53 649.808 1069.28 649.637 1069.14 649.542C1068.79 649.298 1068.69 649.206 1068.45 649.065L1068.23 648.941L1068.05 648.778L1066.63 647.529C1066.22 647.21 1065.84 646.996 1065.25 646.621C1064.8 646.334 1064.22 645.945 1063.67 645.393C1062.64 644.788 1061.69 644.185 1060.77 643.605C1059.76 642.958 1058.78 642.34 1057.73 641.73L1057.69 641.705L1057.64 641.677C1053.76 639.209 1049.52 637.179 1045.6 635.563C1037.45 632.364 1029.51 630.572 1021.43 630.97C1017.4 631.169 1013.39 631.796 1009.4 632.853C1008.71 633.156 1008.06 633.326 1007.62 633.445C1007.06 633.595 1006.77 633.682 1006.5 633.814C1005.72 634.196 1004.96 634.392 1004.46 634.526C1003.9 634.675 1003.61 634.762 1003.34 634.895C1002.17 635.469 1001.01 635.908 999.972 636.301C998.905 636.705 997.962 637.064 997.039 637.518C988.87 641.533 980.718 646.925 972.554 653.275L971.932 653.761L971.568 653.779C969.329 655.347 966.674 655.691 964.217 654.82C961.601 653.894 959.479 651.698 958.24 648.762C956.278 645.219 956.529 640.153 958.968 636.575C965.724 625.369 974.389 615.954 984.592 608.353C987.133 606.279 990.123 604.623 992.372 603.228C993.907 602.142 995.451 601.531 996.748 601.038C998.305 599.975 999.861 599.385 1001.15 598.898C1007.03 596.189 1012.96 594.936 1019.23 594.622Z" fill="#232323" stroke="#232323" stroke-width="5"/>
<path d="M1457.34 576.395C1469.61 575.803 1482.23 579.053 1493.37 585.639C1498.96 588.944 1504.14 593.184 1508.56 597.385C1511.11 599.71 1513.4 602.118 1515.34 605.048C1515.86 605.711 1516.39 606.375 1516.91 607.039C1517.45 607.727 1517.99 608.415 1518.54 609.102C1519.19 609.933 1519.72 610.592 1520.19 611.664C1520.83 612.484 1521.28 613.092 1522 614.449C1523.74 617.265 1524.37 620.674 1524.09 623.866C1523.82 627.065 1522.61 630.285 1520.4 632.637C1517.58 635.749 1513.67 636.446 1510.28 635.242L1510.28 635.243L1506.55 633.969C1506.2 633.897 1505.92 633.776 1505.72 633.672C1505.43 633.518 1505.18 633.337 1505.05 633.237C1504.71 632.979 1504.61 632.884 1504.37 632.733L1504.17 632.601L1503.99 632.431L1502.62 631.127C1502.22 630.792 1501.85 630.563 1501.28 630.166C1500.84 629.86 1500.27 629.449 1499.75 628.876C1498.74 628.23 1497.81 627.591 1496.92 626.975C1495.93 626.288 1494.98 625.633 1493.96 624.982L1493.91 624.955L1493.87 624.926C1490.09 622.306 1485.93 620.111 1482.08 618.342C1474.06 614.824 1466.2 612.721 1458.11 612.801C1454.08 612.841 1450.04 613.309 1446.01 614.208C1445.31 614.484 1444.66 614.629 1444.21 614.73C1443.65 614.857 1443.35 614.933 1443.07 615.055C1442.28 615.405 1441.52 615.571 1441.01 615.685C1440.45 615.813 1440.15 615.888 1439.87 616.01C1438.68 616.538 1437.51 616.93 1436.46 617.282C1435.37 617.644 1434.42 617.966 1433.48 618.383C1425.16 622.073 1416.8 627.14 1408.39 633.164L1407.75 633.624L1407.39 633.628C1405.09 635.107 1402.42 635.346 1400 634.379C1397.42 633.35 1395.39 631.072 1394.27 628.09C1392.44 624.472 1392.89 619.421 1395.47 615.942C1402.66 605.01 1411.69 595.943 1422.19 588.75C1424.81 586.778 1427.86 585.241 1430.16 583.936C1431.74 582.911 1433.31 582.361 1434.62 581.92C1436.22 580.919 1437.8 580.391 1439.1 579.954C1445.08 577.479 1451.06 576.461 1457.34 576.395Z" fill="#232323" stroke="#232323" stroke-width="5"/>
<path d="M769.566 1442.42C693.949 1528.83 628.228 1588.8 572.027 1627.38C226.238 1863.37 234.074 1286.03 491.508 1041.71L555.132 1133.33L769.566 1442.42Z" fill="#F4D93B"/>
<path d="M572.103 1627.37C226.314 1863.36 234.15 1286.02 491.584 1041.69L555.208 1133.32C495.92 1275.56 367.658 1631.31 571.25 1619.3C571.203 1618.85 571.534 1621.99 572.103 1627.37Z" fill="#EC2F2F" fill-opacity="0.14"/>
<path d="M502.83 1065.72C469.909 1098.49 441.495 1136.11 417.402 1176.82C405.794 1197.12 394.671 1217.82 385.443 1239.65C375.729 1261.09 367.378 1282.83 359.998 1305.36C345.192 1349.96 334.959 1395.86 330.131 1442.52C327.717 1465.85 326.62 1489.04 327.716 1512C328.813 1534.95 331.711 1558.17 337.935 1579.25C344.204 1600.77 353.014 1621.14 366.672 1637C380.284 1652.42 398.258 1662.95 418.562 1666.13C428.934 1667.69 439.119 1667.5 450.09 1666.34C461.014 1664.74 471.406 1662.31 482.537 1658.47C503.968 1651.33 524.635 1641.15 544.677 1629.27C584.762 1605.51 621.957 1575.39 657.65 1543.66C693.342 1511.94 727.001 1477.76 760.175 1443.19C762.968 1440.23 766.964 1440.25 769.483 1443.09C771.956 1445.49 772.373 1449.44 769.972 1451.92C739.803 1489.72 707.254 1525.99 673.156 1560.22C655.864 1577.13 638.134 1594.1 618.902 1609.44C599.669 1624.79 580.437 1640.13 559.656 1653.42C538.875 1666.71 516.592 1678.39 492.275 1687.62C480.313 1691.99 467.334 1695.13 454.701 1697.36C441.583 1699.19 427.887 1699.75 414.397 1698.07C407.629 1697.01 400.815 1695.51 393.954 1693.58C387.093 1691.64 380.579 1688.78 374.456 1685.43C361.773 1678.79 351.051 1669.72 341.946 1659.14C337.393 1653.85 333.279 1648.52 329.604 1643.14C325.883 1637.32 322.6 1631.46 319.803 1625.98C316.959 1620.07 314.115 1614.16 311.71 1608.2C309.305 1602.25 307.293 1595.8 305.327 1589.8C298.247 1564.81 294.724 1539.89 293.395 1514.74C292.067 1489.59 292.978 1464.64 295.692 1439.95C300.68 1390.61 311.951 1341.94 327.842 1295C335.568 1271.55 344.704 1248.84 355.202 1226.43C365.7 1204.03 377.169 1182.4 390.001 1161.08C415.711 1118.87 446.572 1079.22 483.396 1045.59C489.467 1040.07 498.383 1040.46 503.906 1046.53C508.851 1051.33 508.463 1060.25 502.83 1065.72Z" fill="#232323"/>
<path d="M879.58 1972.63C982.795 1995.62 1052.66 2022.66 1052.66 2022.66L1079.25 1989.76L1066.63 1972.63H879.58Z" fill="#232323"/>
<path d="M1143.22 2029.86C1301.88 1954.59 1599.35 1932.51 1599.35 1932.51L1561.49 1891.94L1463.24 1928.45L1291.06 1964.06L1122.04 1972.62L1143.22 2029.86Z" fill="#232323"/>
<path d="M416.781 1731.23C607.542 1726.47 705.348 1519.88 705.348 1519.88L607.066 1619.1L513.663 1661.62L429.474 1684.12L411.032 1698.3L416.781 1731.23Z" fill="#232323"/>
<path d="M1127.56 743.883C1239.81 664.625 1297.88 656.099 1422.44 725.818C1451.49 741.928 1444.51 770.336 1421.03 781.759C1364.88 809.115 1201.36 822.172 1135.1 804.453C1104.37 795.979 1096.94 765.534 1127.5 743.832L1127.56 743.883Z" fill="#FF814A"/>
<path d="M1119.35 732.24C1159.37 705.233 1204.06 678.454 1252.93 669.63C1302.88 660.343 1354.43 677.208 1398.4 698.138C1407.7 702.245 1416.61 707.098 1425.67 711.664C1431.97 714.818 1438.83 718.874 1443.91 724.325C1465.16 744.407 1457.26 778.684 1433.26 792.853C1424.2 798.461 1412.27 802.72 1402.18 806.243C1333.51 828.556 1185.76 843.444 1119 815.255C1082.04 795.881 1087.09 752.623 1119.35 732.295L1119.35 732.24ZM1135.79 755.533C1118.27 768.309 1118.44 785.05 1141.4 789.255L1151.93 791.23C1211.92 798.273 1276.13 793.852 1336.48 786.163C1358.97 782.881 1381.58 778.873 1403.21 771.891C1403.85 771.46 1414.48 767.733 1415.05 767.141C1420.35 764.671 1425.43 759.893 1426.53 754.177C1427.92 746.395 1418.99 739.608 1412.11 736.107C1403.65 731.388 1395.16 726.23 1386.52 721.967C1283.1 666.145 1224.82 689.006 1135.73 755.481L1135.79 755.533Z" fill="#232323"/>
<path d="M486.675 983.465C488.917 978.979 493.645 976.29 498.646 976.655C758.176 995.602 983.989 1121.13 1113.14 1179.21C1118.46 1181.61 1121.39 1187.39 1120.17 1193.1C1118.94 1198.8 1113.9 1202.88 1108.06 1202.88C1079.26 1202.88 1031.4 1195.62 986.492 1190.39C963.644 1187.72 941.242 1185.53 921.479 1184.83C901.461 1184.13 885.243 1185.01 874.269 1187.96C873.771 1188.09 873.265 1188.19 872.755 1188.26C616.602 1223.59 456.649 1307.93 359.899 1413.06C263.197 1518.15 228.291 1645.47 225.111 1769.49C221.928 1893.65 250.591 2013.87 280.38 2103.48C295.254 2148.22 310.359 2185.17 321.795 2210.97C327.512 2223.87 332.305 2233.96 335.686 2240.83C337.377 2244.27 338.707 2246.89 339.615 2248.63C340.072 2249.51 340.407 2250.14 340.618 2250.52C340.656 2250.59 340.687 2250.65 340.711 2250.69C342.922 2254.24 343.228 2258.73 341.36 2262.61C339.078 2267.35 334.049 2270.13 328.822 2269.54C164.529 2251.01 82.0427 2179.97 41.8291 2125.41C13.0321 2086.34 8.37088 2032.62 15.0732 1987.48C53.5397 1728.39 145.757 1518.03 228.808 1371.75C270.341 1298.61 309.608 1241.44 338.771 1202.17C353.353 1182.53 365.41 1167.37 373.958 1156.92C378.233 1151.7 381.624 1147.66 384.004 1144.85C384.366 1144.42 384.693 1144.03 384.994 1143.68C385.401 1107.79 401.064 1086.33 417.053 1073.63C425.132 1067.21 433.041 1063.22 438.196 1060.72C438.51 1060.57 438.802 1060.43 439.076 1060.3C443.34 1038.91 454.699 1021.11 465.047 1008.02C470.687 1000.88 476.237 994.882 480.411 990.383C482.559 988.067 484.203 986.299 485.449 984.859C486.914 983.167 486.956 982.902 486.675 983.465Z" fill="#E82117" stroke="#232323" stroke-width="24.7548" stroke-linejoin="round"/>
<path d="M1622.49 990.144C1654.09 979.398 1684.08 974.274 1706.33 982.06C1706.66 982.175 1706.98 982.304 1707.3 982.449C1713.09 985.111 1716.86 990.774 1719.11 995.267C1721.64 1000.31 1723.54 1006.44 1724.42 1012.89C1725.35 1019.66 1725.25 1027.53 1723.06 1035.18C1728.62 1035.28 1735.05 1035.74 1741.43 1037.14C1751.08 1039.25 1761.98 1043.8 1769.35 1053.89C1775.88 1062.84 1778.46 1074.52 1776.91 1088.9C1778.1 1089.76 1779.49 1090.75 1781.52 1092.25C1787.56 1096.7 1795.77 1103.08 1803.67 1111.17C1819.21 1127.08 1835.49 1151.71 1828.35 1182.69C1827.55 1186.14 1825.15 1189.01 1821.89 1190.39C1818.63 1191.78 1814.9 1191.52 1811.87 1189.69C1780.74 1170.99 1762.48 1161.26 1746.99 1156.49C1732.13 1151.91 1719.31 1151.75 1698.51 1153.96C1676.96 1156.25 1590.58 1160.58 1507.49 1166.75C1465.66 1169.86 1424.43 1173.44 1391.93 1177.49C1375.66 1179.52 1361.77 1181.64 1351.16 1183.83C1345.85 1184.93 1341.54 1186.02 1338.25 1187.06C1334.74 1188.17 1333.19 1189 1332.8 1189.27C1327.88 1192.72 1321.11 1191.6 1317.54 1186.77C1313.98 1181.93 1314.93 1175.14 1319.68 1171.46C1367.29 1134.57 1443.34 1080.85 1516.95 1039.52C1553.72 1018.87 1590.24 1001.11 1622.49 990.144Z" fill="#E82117" stroke="#232323" stroke-width="22.1312" stroke-linejoin="round"/>
<path d="M1335.1 1079.01L1118.82 1091.22C1113.59 1091.52 1108.84 1094.36 1106.09 1098.82L1069.68 1158C1065.5 1164.8 1066.96 1173.64 1073.12 1178.72L1212.35 1293.74C1233.85 1311.49 1265.71 1308.24 1283.17 1286.5L1388.51 1155.4C1393.2 1149.57 1393.22 1141.28 1388.57 1135.42L1348.52 1085.03C1345.29 1080.97 1340.28 1078.72 1335.1 1079.01Z" fill="#58BF43" stroke="#E82117" stroke-width="29" stroke-linejoin="round"/>
<path d="M1222.89 1196.15C1223.47 1195.96 1224.05 1195.96 1224.62 1195.96C1230.02 1195.57 1235.79 1195.38 1241.19 1195C1247.35 1194.61 1252.74 1194.42 1258.71 1194.04C1260.45 1193.85 1262.37 1193.46 1263.91 1192.89C1272.39 1190.01 1275.08 1181.75 1272.77 1172.91C1269.31 1159.85 1258.71 1148.91 1245.42 1146.03C1227.7 1141.99 1208.25 1150.06 1200.36 1166.58C1197.47 1172.53 1196.12 1180.21 1196.7 1187.32C1198.04 1208.63 1215.38 1224.19 1236.76 1224C1245.23 1224 1253.71 1222.27 1260.64 1217.66C1265.65 1214.4 1271.23 1210.17 1269.69 1203.45C1268.34 1198.07 1263.53 1194.61 1258.14 1196.54C1256.4 1197.11 1254.86 1198.07 1253.32 1199.03C1251.2 1200.18 1249.08 1201.53 1246.77 1202.3C1240.8 1204.6 1231.17 1204.99 1225.39 1201.72C1224.24 1200.95 1222.12 1199.61 1221.73 1198.26C1221.35 1197.5 1221.93 1196.54 1222.89 1196.15ZM1221.54 1177.14C1220.77 1176.95 1220.19 1176.37 1220.19 1175.6C1220.19 1175.03 1220.39 1174.26 1220.58 1173.68C1223.08 1167.92 1229.05 1164.85 1235.6 1164.85C1241.38 1164.65 1247.35 1166.96 1250.43 1172.53C1250.62 1172.91 1250.82 1173.3 1250.82 1173.68C1250.82 1174.07 1250.82 1174.45 1250.62 1174.83C1250.24 1175.6 1249.47 1175.99 1248.51 1175.99C1241.76 1176.37 1229.82 1176.95 1222.7 1177.33C1222.31 1177.33 1221.93 1177.33 1221.54 1177.14Z" fill="white"/>
<path d="M1334.13 1055.2C1346.81 1054.48 1359.05 1059.97 1366.94 1069.91L1407.59 1121.06C1418.96 1135.36 1418.9 1155.63 1407.46 1169.87L1300.28 1303.25C1275.31 1334.34 1229.73 1339 1198.98 1313.6L1057.44 1196.69C1042.41 1184.27 1038.83 1162.67 1049.05 1146.06L1086 1086L1086.32 1085.49C1093.07 1074.89 1104.52 1068.16 1117.09 1067.45L1334.13 1055.2ZM1124.25 1114.79L1093.55 1164.69L1229.33 1276.85C1239.59 1285.33 1254.8 1283.77 1263.13 1273.4L1366.02 1145.35L1332.39 1103.03L1124.25 1114.79Z" fill="#E82117" stroke="#232323" stroke-width="20" stroke-linejoin="round"/>
<path d="M3185.63 1614.79C3189.75 1621.66 3188.8 1630.48 3183.21 1636.31C3181.19 1638.43 3179.08 1639.52 3178.91 1639.61C3178.26 1639.97 3177.73 1640.21 3177.47 1640.32C3176.92 1640.56 3176.47 1640.73 3176.27 1640.8C3175.81 1640.97 3175.37 1641.11 3175.08 1641.21C3174.43 1641.42 3173.63 1641.66 3172.76 1641.92C3170.98 1642.45 3168.47 1643.17 3165.37 1644.05C3159.15 1645.8 3150.35 1648.25 3139.81 1651.15C3118.73 1656.95 3090.57 1664.58 3062.02 1672.19C3033.48 1679.8 3004.47 1687.4 2981.7 1693.13C2970.33 1695.99 2960.42 1698.41 2952.86 1700.12C2949.09 1700.98 2945.79 1701.69 2943.13 1702.2C2940.99 1702.61 2937.84 1703.19 2935.22 1703.25C2932.82 1703.3 2930.12 1702.8 2929.42 1702.69C2927.89 1702.43 2925.95 1702.07 2923.71 1701.62C2919.19 1700.73 2912.95 1699.43 2905.23 1697.77C2889.78 1694.45 2868.08 1689.63 2841.64 1683.68C2788.74 1671.77 2716.65 1655.27 2637.09 1636.92C2477.96 1600.24 2288.81 1556.17 2163.17 1526.79C2155.81 1525.07 2150.33 1518.89 2149.51 1511.37L2138.46 1410.55C2137.52 1401.95 2142.88 1393.91 2151.19 1391.49L2227.99 1369.06C2230.42 1368.35 2232.97 1368.17 2235.47 1368.52L2237.3 1368.77L2959.22 1455.22L2959.74 1455.29C2962.3 1455.67 2964.75 1456.61 2966.92 1458.03C3000.49 1480.17 3051.47 1514.3 3095.34 1544.8C3117.25 1560.03 3137.52 1574.45 3152.99 1586.05C3160.71 1591.83 3167.4 1597.04 3172.56 1601.36C3175.13 1603.52 3177.48 1605.58 3179.45 1607.48C3181.18 1609.16 3183.47 1611.5 3185.21 1614.13L3185.63 1614.79Z" fill="white" stroke="#232323" stroke-width="33.1901" stroke-linejoin="round"/>
<path d="M2272.18 1458.99C2547.39 1504.69 3052.27 1569.32 3178.29 1625.11L2948.16 1706.27L2227.37 1542.17L2252.92 1485.15L2272.18 1458.99Z" fill="black" fill-opacity="0.08"/>
<path d="M3185.63 1614.79C3189.75 1621.66 3188.8 1630.48 3183.21 1636.31C3181.19 1638.43 3179.08 1639.52 3178.91 1639.61C3178.26 1639.97 3177.73 1640.21 3177.47 1640.32C3176.92 1640.56 3176.47 1640.73 3176.27 1640.8C3175.81 1640.97 3175.37 1641.11 3175.08 1641.21C3174.43 1641.42 3173.63 1641.66 3172.76 1641.92C3170.98 1642.45 3168.47 1643.17 3165.37 1644.05C3159.15 1645.8 3150.35 1648.25 3139.81 1651.15C3118.73 1656.95 3090.57 1664.58 3062.02 1672.19C3033.48 1679.8 3004.47 1687.4 2981.7 1693.13C2970.33 1695.99 2960.42 1698.41 2952.86 1700.12C2949.09 1700.98 2945.79 1701.69 2943.13 1702.2C2940.99 1702.61 2937.84 1703.19 2935.22 1703.25C2932.82 1703.3 2930.12 1702.8 2929.42 1702.69C2927.89 1702.43 2925.95 1702.07 2923.71 1701.62C2919.19 1700.73 2912.95 1699.43 2905.23 1697.77C2889.78 1694.45 2868.08 1689.63 2841.64 1683.68C2788.74 1671.77 2716.65 1655.27 2637.09 1636.92C2477.96 1600.24 2288.81 1556.17 2163.17 1526.79C2155.81 1525.07 2150.33 1518.89 2149.51 1511.37L2138.46 1410.55C2137.52 1401.95 2142.88 1393.91 2151.19 1391.49L2227.99 1369.06C2230.42 1368.35 2232.97 1368.17 2235.47 1368.52L2237.3 1368.77L2959.22 1455.22L2959.74 1455.29C2962.3 1455.67 2964.75 1456.61 2966.92 1458.03C3000.49 1480.17 3051.47 1514.3 3095.34 1544.8C3117.25 1560.03 3137.52 1574.45 3152.99 1586.05C3160.71 1591.83 3167.4 1597.04 3172.56 1601.36C3175.13 1603.52 3177.48 1605.58 3179.45 1607.48C3181.18 1609.16 3183.47 1611.5 3185.21 1614.13L3185.63 1614.79Z" stroke="#232323" stroke-width="33.1901" stroke-linejoin="round"/>
<path d="M2148.17 1371.51C2157.32 1373.22 2163.67 1381.75 2162.58 1391.1L2151.67 1484.46C2151.1 1489.39 2148.49 1493.86 2144.48 1496.79C2140.47 1499.72 2135.42 1500.84 2130.55 1499.89C2049.26 1484.03 1884.64 1452.04 1871.58 1450.02C1861.93 1448.52 1849.59 1445.34 1839.57 1436.39C1828.93 1426.88 1823.43 1413.22 1823.02 1396.07C1822.47 1383.46 1824.69 1372.38 1829.83 1363.11C1835.03 1353.71 1842.54 1347.41 1850.44 1343.4C1865.45 1335.76 1882.25 1336.11 1891.35 1337.06C1904.44 1338.41 2067.76 1360.54 2147.27 1371.36L2148.17 1371.51Z" fill="#FF6802" stroke="#232323" stroke-width="33.1901" stroke-linejoin="round"/>
<path d="M1840.17 1410.65C1882.16 1372.51 2044.51 1390.81 2120.43 1404.73L2127.75 1375.84L2127.35 1357.02L2056.91 1352.57L1950.76 1345.89L1876.33 1340.53L1829.13 1357.38C1826.14 1372.3 1824.17 1403.85 1840.17 1410.65Z" fill="black" fill-opacity="0.3"/>
<path d="M2148.17 1371.51C2157.32 1373.22 2163.67 1381.75 2162.58 1391.1L2151.67 1484.46C2151.1 1489.39 2148.49 1493.86 2144.48 1496.79C2140.47 1499.72 2135.42 1500.84 2130.55 1499.89C2049.26 1484.03 1884.64 1452.04 1871.58 1450.02C1861.93 1448.52 1849.59 1445.34 1839.57 1436.39C1828.93 1426.88 1823.43 1413.22 1823.02 1396.07C1822.47 1383.46 1824.69 1372.38 1829.83 1363.11C1835.03 1353.71 1842.54 1347.41 1850.44 1343.4C1865.45 1335.76 1882.25 1336.11 1891.35 1337.06C1904.44 1338.41 2067.76 1360.54 2147.27 1371.36L2148.17 1371.51Z" stroke="#232323" stroke-width="33.1901" stroke-linejoin="round"/>
<path d="M2279.92 1278.68C2281.91 1287.78 2280.35 1297.66 2278.46 1305.74C2276.44 1314.3 2273.34 1323.59 2270.23 1332.46C2264.36 1349.21 2258.7 1364.21 2256.22 1376.46C2284.01 1447.59 2258.18 1503.38 2230.47 1533.93C2223.61 1546.06 2219.2 1567.09 2216.52 1588.63C2215.2 1599.3 2214.39 1609.23 2213.79 1617C2213.49 1620.8 2213.23 1624.3 2212.98 1626.94C2212.86 1628.27 2212.72 1629.61 2212.55 1630.81C2212.52 1631.04 2212.45 1631.5 2212.35 1632.11C2212.03 1639.52 2209.49 1646.82 2203.79 1652.6C2197.87 1658.61 2190.42 1661.03 2184.29 1661.99C2172.48 1663.85 2158.74 1661.32 2147.59 1658.44C2135.84 1655.4 2124.27 1651.22 2115.78 1647.9C2111.49 1646.22 2107.9 1644.74 2105.39 1643.68C2104.07 1643.13 2103.22 1642.77 2102.57 1642.5C2102.51 1642.48 2102.46 1642.45 2102.42 1642.44C2098.75 1641.17 2095.54 1638.71 2093.35 1635.37C2089.98 1630.24 2089.49 1623.73 2092.05 1618.15C2112.27 1574.15 2118.57 1545.06 2120.04 1527.95C2120.78 1519.39 2120.29 1513.98 2119.83 1511.27C2119.81 1511.13 2119.78 1511 2119.76 1510.88C2091.83 1468.83 2095.65 1431.77 2108.32 1404.98C2119.37 1381.62 2137.75 1365.94 2139.57 1364.65C2153.72 1346.98 2157.74 1325.76 2157.89 1307.5C2157.97 1298.31 2157.07 1290.23 2156.17 1284.3C2155.72 1281.33 2155.28 1278.96 2154.94 1277.05C2154.79 1276.22 2154.59 1275.12 2154.46 1274.18C2154.4 1273.77 2154.27 1272.82 2154.24 1271.72C2154.22 1271.21 2154.2 1270.02 2154.4 1268.55C2154.46 1268.11 2154.97 1262.97 2159.23 1258.53C2159.95 1257.78 2160.73 1257.09 2161.57 1256.48C2192.48 1233.87 2221.83 1236.9 2242.92 1246.42C2262.7 1255.34 2275.55 1270.3 2274.84 1269.62C2277.4 1272.07 2279.17 1275.22 2279.92 1278.68ZM2108.02 1643.42C2107.81 1643.42 2107.59 1643.41 2107.38 1643.4C2107.59 1643.41 2107.8 1643.42 2108.02 1643.42Z" fill="#58BF43" stroke="#232323" stroke-width="33.1901" stroke-linejoin="round"/>
<path d="M2237.8 1379.46C2239.23 1296.99 2187.69 1274.17 2166.37 1280.9L2158.3 1274.13L2156.15 1266.25L2178.78 1258.84L2212.75 1225.42L2272.02 1263.8L2290.31 1285.21L2273.48 1333.13L2259.49 1374.05L2276.02 1452.96C2270.39 1452.42 2256.91 1392.93 2237.8 1379.46Z" fill="black" fill-opacity="0.3"/>
<path d="M2279.92 1278.68C2281.91 1287.78 2280.35 1297.66 2278.46 1305.74C2276.44 1314.3 2273.34 1323.59 2270.23 1332.46C2264.36 1349.21 2258.7 1364.21 2256.22 1376.46C2284.01 1447.59 2258.18 1503.38 2230.47 1533.93C2223.61 1546.06 2219.2 1567.09 2216.52 1588.63C2215.2 1599.3 2214.39 1609.23 2213.79 1617C2213.49 1620.8 2213.23 1624.3 2212.98 1626.94C2212.86 1628.27 2212.72 1629.61 2212.55 1630.81C2212.52 1631.04 2212.45 1631.5 2212.35 1632.11C2212.03 1639.52 2209.49 1646.82 2203.79 1652.6C2197.87 1658.61 2190.42 1661.03 2184.29 1661.99C2172.48 1663.85 2158.74 1661.32 2147.59 1658.44C2135.84 1655.4 2124.27 1651.22 2115.78 1647.9C2111.49 1646.22 2107.9 1644.74 2105.39 1643.68C2104.07 1643.13 2103.22 1642.77 2102.57 1642.5C2102.51 1642.48 2102.46 1642.45 2102.42 1642.44C2098.75 1641.17 2095.54 1638.71 2093.35 1635.37C2089.98 1630.24 2089.49 1623.73 2092.05 1618.15C2112.27 1574.15 2118.57 1545.06 2120.04 1527.95C2120.78 1519.39 2120.29 1513.98 2119.83 1511.27C2119.81 1511.13 2119.78 1511 2119.76 1510.88C2091.83 1468.83 2095.65 1431.77 2108.32 1404.98C2119.37 1381.62 2137.75 1365.94 2139.57 1364.65C2153.72 1346.98 2157.74 1325.76 2157.89 1307.5C2157.97 1298.31 2157.07 1290.23 2156.17 1284.3C2155.72 1281.33 2155.28 1278.96 2154.94 1277.05C2154.79 1276.22 2154.59 1275.12 2154.46 1274.18C2154.4 1273.77 2154.27 1272.82 2154.24 1271.72C2154.22 1271.21 2154.2 1270.02 2154.4 1268.55C2154.46 1268.11 2154.97 1262.97 2159.23 1258.53C2159.95 1257.78 2160.73 1257.09 2161.57 1256.48C2192.48 1233.87 2221.83 1236.9 2242.92 1246.42C2262.7 1255.34 2275.55 1270.3 2274.84 1269.62C2277.4 1272.07 2279.17 1275.22 2279.92 1278.68ZM2108.02 1643.42C2107.81 1643.42 2107.59 1643.41 2107.38 1643.4C2107.59 1643.41 2107.8 1643.42 2108.02 1643.42Z" stroke="#232323" stroke-width="33.1901" stroke-linejoin="round"/>
<path d="M2140.17 1438.29C2135.41 1473 2152.72 1504.04 2178.83 1507.62C2204.94 1511.2 2229.97 1485.96 2234.73 1451.25C2239.48 1416.53 2222.17 1385.49 2196.06 1381.91C2169.95 1378.33 2144.93 1403.57 2140.17 1438.29Z" fill="#F4D93B"/>
<path d="M2081.56 1490L2042.06 1476.5L1958.06 1471L1905.56 1450.5L1811.06 1443L1860.06 1525L1954.06 1561.5L2033.06 1534L2072.06 1495L2081.56 1490Z" fill="#232323"/>
<path d="M1949.56 1557.5C1917.56 1555.1 1851.9 1483.5 1823.06 1448L1819.06 1475.5L1812.06 1539.5L1819.06 1568L1902.56 1573.5C1913.73 1571.83 1938.76 1566.3 1949.56 1557.5Z" fill="#232323"/>
</svg>
