<svg width="2259" height="2286" viewBox="0 0 2259 2286" fill="none" xmlns="http://www.w3.org/2000/svg">
<path d="M936.539 196.989C930.889 157.244 940.31 116.285 964.485 83.74C976.577 67.4648 993.302 54.1586 1013.81 50.8646C1052.45 44.6503 1066.65 76.3555 1083.83 76.0683C1096.87 75.8462 1210.71 -40.5016 1285.53 15.004C1304.45 29.0308 1317.52 57.0138 1320.46 80.175C1324.63 113.029 1305.78 149.556 1286.02 174.575C1279.96 182.247 1273.34 189.485 1266.62 196.577C1419.3 247.819 1548.37 320.439 1623.58 471.066C1674.78 574.931 1701 689.35 1700.03 805.156L1696.45 835.355C1695.7 894.718 1682.86 965.187 1672.62 1024.43C1695.64 1041.04 1701.87 1043.44 1706.37 1071.67C1706.69 1073.53 1706.96 1075.4 1707.18 1077.26C1714.66 1080.89 1720.78 1086.26 1729.02 1083.48C1769.54 1069.74 1906.07 898.245 1946.43 858.196C1995.03 847.019 2214.72 774.231 2242.62 792.104C2251.51 797.777 2255.84 803.796 2258.01 814.203C2266.57 855.113 2196.52 1061.97 2171 1097.27C2144.02 1134.56 1771.55 1429.85 1709.89 1475.32C1707.07 1580.15 1687.24 1702.7 1629.22 1792.62C1590.21 1857.45 1543.14 1900.69 1486.52 1949.24C1512.94 2016.74 1515.18 2034.54 1524.1 2106.23C1612.8 2134.71 1763.15 2220.07 1576.29 2278.2C1530.08 2292.57 1327.36 2279.19 1306.59 2238.67C1260.18 2148.11 1275.83 2132.18 1181.43 2066.56C1097.9 2087.99 966.592 2075.73 882.551 2064.91C828.86 2106.87 766.209 2122.08 699.873 2124.14C701.097 2174.68 699.033 2320.43 585.194 2277.12C523.447 2253.63 483.75 2129.46 464.273 2064.12C452.744 2065.94 439.183 2084.37 429.101 2094.88C376.759 2042.54 339.198 2033.76 269.606 2021.14C277.44 2076.6 299.918 2149.17 309.713 2205.57C310.797 2211.79 301.343 2217.08 295.779 2221.06C231.746 2229.63 52.589 2083.79 26.2258 2022.29C-78.9179 1777.01 157.196 1437.83 291.044 1244.16C342.269 1170.04 408.464 1129.93 432.525 1047.19C474.638 1018.6 478.739 997.916 515.721 963.096C510.98 886.125 505.367 799.348 513.516 723.114C410.144 788.366 299.506 811.749 178.142 795.756C143.831 791.232 101.382 765.123 122.512 727.199C161.845 656.599 237.38 585.008 311.778 556.087C258.748 538.252 197.445 516.483 156.292 477.708C36.2435 364.573 304.735 326.448 371.092 327.78C465.243 328.902 555.082 367.423 620.805 434.847C746.948 270.557 761.555 281.23 936.539 196.989Z" fill="#110402"/>
<path d="M1946.43 858.195C1995.03 847.018 2214.72 774.23 2242.62 792.103C2251.51 797.776 2255.84 803.795 2258.01 814.203C2266.57 855.113 2196.52 1061.97 2171 1097.27C2144.02 1134.56 1771.54 1429.85 1709.89 1475.32C1707.07 1580.15 1687.24 1702.7 1629.22 1792.62C1616.43 1787.23 1607.87 1777.12 1598.5 1767.22L1596.66 1762.84C1582.08 1768.68 1568.27 1772.28 1552.98 1775.33C1514.79 1764.16 1490.23 1707.59 1469.2 1674.91L1466.42 1664.7L1440.79 1661.56C1442.39 1659.91 1443.91 1658.17 1445.91 1656.99C1446.52 1656.63 1447.18 1656.35 1447.8 1656C1459.18 1649.33 1473.8 1648.93 1486.77 1647.18L1423.17 1632.64C1377.66 1592.04 1364.19 1563.74 1353.01 1504.4L1306.71 1462.62C1321.98 1462.14 1341.15 1469.07 1356.55 1472.08C1372.16 1468.64 1380.95 1461.83 1392.78 1451.79L1390.85 1444.63C1398.41 1428.63 1399.02 1424.72 1415.21 1416.64L1422.13 1424.74L1430.84 1430.99C1440.3 1429.23 1449.74 1427.34 1459.15 1425.34C1458.93 1430.27 1459.12 1435.5 1457.64 1440.21C1523.99 1379.51 1583.82 1304.43 1644.01 1237.25C1634.58 1237.09 1624.99 1232.62 1616.16 1229.54L1613.94 1221.39C1632.9 1206.94 1653 1192.91 1671.1 1177.47C1687.68 1163.31 1700.57 1147.93 1702.36 1125.56L1701.6 1118.8L1707.78 1124.94L1714.28 1122.4C1715.96 1105.53 1712.27 1093 1707.18 1077.26C1714.66 1080.89 1720.78 1086.26 1729.01 1083.48C1769.54 1069.74 1906.07 898.244 1946.43 858.195Z" fill="#EDEDED"/>
<path d="M1946.43 858.195C1995.03 847.018 2214.72 774.23 2242.62 792.103C2251.51 797.776 2255.84 803.795 2258.01 814.203C2266.57 855.113 2196.52 1061.97 2171 1097.27C2144.02 1134.56 1771.54 1429.85 1709.89 1475.32C1707.07 1580.15 1687.24 1702.7 1629.22 1792.62C1616.43 1787.23 1607.87 1777.12 1598.5 1767.22L1596.66 1762.84C1582.08 1768.68 1568.27 1772.28 1552.98 1775.33C1514.79 1764.16 1490.23 1707.59 1469.2 1674.91L1466.42 1664.7L1440.79 1661.56C1442.39 1659.91 1443.91 1658.17 1445.91 1656.99C1446.52 1656.63 1447.18 1656.35 1447.8 1656C1459.18 1649.33 1473.8 1648.93 1486.77 1647.18L1423.17 1632.64C1377.66 1592.04 1364.19 1563.74 1353.01 1504.4L1306.71 1462.62C1321.98 1462.14 1341.15 1469.07 1356.55 1472.08C1372.16 1468.64 1380.95 1461.83 1392.78 1451.79L1390.85 1444.63C1398.41 1428.63 1399.02 1424.72 1415.21 1416.64L1422.13 1424.74L1430.84 1430.99C1440.3 1429.23 1449.74 1427.34 1459.15 1425.34C1458.93 1430.27 1459.12 1435.5 1457.64 1440.21C1510.28 1462.1 1539.28 1504.57 1563.23 1554.13C1692.17 1438.2 1832.98 1330.84 1967.72 1221.48C2013.67 1184.18 2117.69 1113.13 2146.08 1069.32C2189.69 1001.96 2201.77 894.088 2233.09 817.421C2144.89 839.786 2058.15 869.313 1969.19 888.562C1857.31 1001.17 1751.99 1120.91 1644.01 1237.25C1634.58 1237.09 1624.99 1232.62 1616.16 1229.54L1613.94 1221.39C1632.9 1206.94 1653 1192.91 1671.1 1177.47C1687.68 1163.31 1700.57 1147.93 1702.36 1125.56L1701.6 1118.8L1707.78 1124.94L1714.28 1122.4C1715.96 1105.53 1712.27 1093 1707.18 1077.26C1714.66 1080.89 1720.78 1086.26 1729.01 1083.48C1769.54 1069.74 1906.07 898.244 1946.43 858.195Z" fill="#060605"/>
<path d="M1392.78 1451.79C1449.38 1475.46 1501.05 1495.83 1526 1556.88C1532.77 1573.09 1538.25 1589.81 1542.37 1606.89C1571.84 1630.14 1598.82 1657.73 1623.69 1685.88C1603.97 1707.59 1584.85 1726.03 1561.12 1743.34C1539.43 1709.02 1517.1 1674.67 1486.77 1647.18L1423.17 1632.64C1377.66 1592.04 1364.19 1563.74 1353.01 1504.4L1306.71 1462.62C1321.98 1462.14 1341.15 1469.07 1356.55 1472.08C1372.16 1468.64 1380.95 1461.83 1392.78 1451.79Z" fill="#6CAA4F"/>
<path d="M1408.51 1494.31C1439.48 1496.71 1461.72 1503.35 1483.31 1526.36C1496.2 1540.1 1503.16 1555.3 1502.13 1574.42C1501.06 1594.29 1492.59 1605.12 1478.49 1617.93C1446.14 1614.81 1424.37 1604.15 1403.03 1579.76C1391.68 1566.8 1383.54 1551 1385.13 1533.29C1386.73 1515.44 1395.05 1505.2 1408.51 1494.31Z" fill="#F2D641"/>
<path d="M1668.82 1509.95C1678.73 1526.65 1664.92 1590.75 1660.8 1611.08C1657.6 1626.56 1654.13 1640.72 1640.54 1649.63L1625.42 1635.95L1577.85 1589.66L1668.82 1509.95Z" fill="#F0CF4C"/>
<path d="M808.967 1515.13C935.31 1597.66 1058.21 1668.26 1212.92 1671.79C1184.02 1696.99 1136.15 1730.12 1132.88 1771.73C1131.03 1795.17 1141.6 1833.12 1157.52 1850.86C1166.2 1860.52 1178.67 1864.63 1191.41 1864.74C1264.31 1865.38 1299.69 1779.93 1355.84 1769.23L1367.93 1767.28C1380.02 1756.3 1380.43 1752.79 1383.62 1736.39C1411.25 1714.03 1430.93 1677.74 1469.19 1674.91C1490.22 1707.59 1514.78 1764.16 1552.97 1775.33C1568.26 1772.28 1582.07 1768.68 1596.65 1762.84L1598.49 1767.23C1581.91 1829.76 1487.08 1911.12 1431.54 1943.68C1398.01 1933.8 1310.41 1987.92 1272.01 1998.21C1215.71 2013.3 1087.09 2022.89 1026.84 2023.27C978.268 2023.58 878.017 2001.45 837.914 2017.29C822.408 2016.22 802.671 2008.33 787.409 2004.07C778.329 1988.68 769.492 1977.18 756.473 1964.88C705.557 1804.19 741.916 1683.67 816.021 1539.07C812.846 1531.23 810.917 1523.34 808.967 1515.13Z" fill="#F8DE73"/>
<path d="M1355.85 1769.23L1367.94 1767.28C1380.03 1756.3 1380.44 1752.79 1383.63 1736.39C1384.47 1736.78 1385.31 1737.18 1386.16 1737.55C1417.58 1751.1 1462.12 1728.89 1490.86 1746.76C1485.17 1759.01 1476.67 1763.85 1464 1768.41C1435.54 1778.67 1386.68 1783.67 1358.5 1770.55C1357.61 1770.13 1356.73 1769.67 1355.85 1769.23Z" fill="#513911"/>
<path d="M700.376 1263.43C775.618 1245.79 938.375 1203.06 1012.44 1224.89L999.776 1229.43C995.458 1267.09 1020.69 1294.49 1043.23 1322.79C1088.02 1379.02 1256.92 1544.98 1262.11 1604.66C1256.88 1618.19 1250.92 1623.2 1237.43 1629.23C1182.25 1653.85 1083.52 1616.9 1029.89 1594.99C981.479 1574.84 934.984 1550.39 890.948 1521.94C849.447 1495.35 769.069 1424.52 728.624 1414.17L721.885 1419.23C723.933 1447.09 747.473 1462.49 766.999 1479.33L808.976 1515.13C810.927 1523.34 812.855 1531.23 816.03 1539.07C741.925 1683.67 705.566 1804.19 756.483 1964.88C704.114 1920.07 661.237 1856.44 637.486 1792.15C569.942 1609.33 622.213 1433.2 700.376 1263.43Z" fill="#F2D641"/>
<path d="M936.535 196.989C930.884 157.244 940.306 116.285 964.48 83.74C976.573 67.4648 993.297 54.1586 1013.81 50.8646C1052.44 44.6503 1066.65 76.3555 1083.83 76.0683C1096.86 75.8462 1210.71 -40.5016 1285.53 15.004C1304.44 29.0308 1317.51 57.0138 1320.45 80.175C1324.63 113.029 1305.77 149.556 1286.01 174.575C1279.95 182.247 1273.33 189.485 1266.62 196.577L1262.93 217.04L1275.96 223.178L1279.11 235.943C1407.51 279.735 1474.3 331.096 1563.44 429.256C1244.34 341.211 1007.12 312.708 681.902 412.921C772.488 306.998 836.728 265.486 970.851 227.8L963.136 219.549C950.913 220.589 949.391 220.28 937.884 216L941.118 205.164L936.535 196.989Z" fill="#F2D641"/>
<path d="M936.525 196.989C930.874 157.244 940.296 116.285 964.47 83.74C976.562 67.4648 993.287 54.1586 1013.8 50.8646C1052.43 44.6503 1066.64 76.3555 1083.82 76.0683C1096.85 75.8462 1210.7 -40.5016 1285.52 15.004C1304.43 29.0308 1317.5 57.0138 1320.44 80.175C1324.62 113.029 1305.76 149.556 1286 174.575C1279.94 182.247 1273.32 189.485 1266.61 196.577L1262.92 217.04L1275.95 223.178L1279.1 235.943C1183.6 211.682 1067.45 208.713 970.841 227.8L963.126 219.549C950.903 220.589 949.381 220.28 937.874 216L941.108 205.164L936.525 196.989Z" fill="#060605"/>
<path d="M968.074 191.235C985.308 7.67887 1050.62 122.656 1093.14 134.878C1152.89 102.409 1105.35 39.5411 1250.75 42.6292C1291.64 62.2959 1299.11 84.4006 1276.35 127.044C1268.49 141.981 1257.58 155.098 1244.32 165.543C1239.27 172.126 1222.44 183.086 1214.88 188.445C1109.89 177.896 1073.34 180.399 968.074 191.235Z" fill="#F2D641"/>
<path d="M1250.73 42.6299C1291.63 62.2966 1299.1 84.4013 1276.34 127.045C1268.48 141.982 1257.56 155.098 1244.3 165.544C1250.57 109.459 1287.75 106.414 1242.75 49.3371L1250.73 42.6299Z" fill="#FDF8DD"/>
<path d="M430.876 1399.32C509.283 1330.24 602.475 1295.24 700.359 1263.43C622.196 1433.2 569.925 1609.33 637.469 1792.15C661.221 1856.44 704.097 1920.07 756.466 1964.88C769.485 1977.18 778.322 1988.68 787.402 2004.07C676.109 1971.69 573.934 1916.15 503.708 1821.56C406.166 1690.16 408.56 1553.04 430.876 1399.32Z" fill="#EBB848"/>
<path d="M1012.44 1224.89L1117.99 1237.99C1138.39 1256.98 1188.19 1292.75 1199.49 1315.79L1199.93 1317.55C1222.08 1403.03 1264.32 1317.37 1224.32 1451.95L1203.88 1454.5C1155.79 1402.18 1098.21 1347.24 1061.02 1287.07L1059.4 1284.55C1038.12 1267.43 1022.79 1245.57 999.777 1229.43L1012.44 1224.89Z" fill="#F8DE73"/>
<path d="M1028.05 1235.29C1058.96 1241.17 1089.78 1246.52 1119.57 1256.95C1132.32 1273.39 1148.86 1288.08 1152.43 1308.58C1146.79 1313.4 1147.01 1314.03 1139.38 1313.44C1103.15 1310.65 1087.26 1291.65 1061.01 1287.07L1059.39 1284.55C1056.67 1263.21 1041.75 1251.45 1028.05 1235.29Z" fill="#F2D641"/>
<path d="M1474.9 1226.61C1519.42 1225.15 1564.14 1222.85 1608.67 1223.06C1580.44 1255.66 1542.63 1310.55 1506.85 1332.78C1483.86 1361.42 1453.45 1405.84 1422.12 1424.74L1415.2 1416.64C1400.99 1395.68 1383.62 1376.89 1366.98 1357.84C1385.62 1335.25 1403.81 1311.95 1424.98 1291.65C1441.41 1269.89 1457.43 1247.55 1474.9 1226.61Z" fill="#F8DE73"/>
<path d="M1634.75 1193.17C1599.96 1193.54 1561.39 1200.39 1527.09 1194.75C1511.24 1192.13 1501.74 1188.55 1492.25 1175.57C1492.38 1168.59 1493.59 1162.8 1497.69 1157.04C1524.46 1119.42 1615.67 1075.03 1660.64 1066.42C1676.9 1074.78 1682.21 1104.24 1700.36 1117.88C1700.73 1118.2 1701.17 1118.5 1701.6 1118.8L1702.36 1125.56C1679.82 1139.73 1653.92 1173.52 1634.75 1193.17Z" fill="#D6351A"/>
<path d="M837.918 2017.29C878.021 2001.45 978.272 2023.58 1026.84 2023.27C1087.09 2022.89 1215.71 2013.3 1272.02 1998.21C1310.41 1987.92 1398.01 1933.8 1431.54 1943.68C1283.71 2039.83 1063.07 2067.54 892.438 2030.94C874.153 2026.85 855.976 2022.3 837.918 2017.29Z" fill="#FAE38D"/>
<path d="M1199.48 1315.79C1226.24 1338.98 1252.73 1362.5 1278.95 1386.32C1263.87 1401.39 1243.08 1418.98 1242.6 1441.97C1242.41 1450.73 1244.87 1459.04 1251.04 1465.57C1275.12 1491.08 1316.01 1501.06 1323.5 1540.07C1320.09 1556.21 1319.9 1557.26 1307.22 1567.69C1296.01 1567.8 1292.84 1568.22 1284.57 1559.67C1272.28 1546.97 1264.85 1527.75 1254.22 1513.2C1239.18 1492.61 1220.89 1473.49 1203.86 1454.5L1224.31 1451.95C1264.31 1317.37 1222.07 1403.03 1199.92 1317.55L1199.48 1315.79Z" fill="#FAE38D"/>
<path d="M1306.69 1462.62C1304.38 1462.09 1302.58 1461.73 1300.5 1460.5C1288.78 1453.57 1285.53 1449.52 1283.34 1436.81C1287.28 1423.5 1291.02 1411.2 1302.79 1402.76C1313.78 1394.89 1326.59 1394.77 1339.48 1397.14C1365.1 1401.86 1376.74 1424.79 1390.83 1444.63L1392.77 1451.79C1380.93 1461.83 1372.14 1468.64 1356.54 1472.08C1341.14 1469.07 1321.96 1462.14 1306.69 1462.62Z" fill="#6CAA4F"/>
<path d="M1696.44 835.355C1680.95 833.973 1670.71 834.64 1659.93 823.268L1660.47 812.697C1676.94 796.91 1669.57 801.623 1693.79 795.637L1700.02 805.156L1696.44 835.355Z" fill="#060605"/>
<path d="M640.52 468.855C882.431 367.737 1174.29 365.152 1426.55 427.674C1471.22 438.748 1515.77 453.013 1560.24 465.398C1594.97 480.471 1602.61 506.005 1616.43 541.221C1637.77 595.675 1677.43 732.167 1660.2 787.12C1600.17 872.873 1443.71 686.971 1353.53 700.109C1271.98 711.985 1241.72 730.763 1168.09 759.483C995.843 826.664 687.406 898.142 546.586 735.921C568.084 624.341 586.699 571.956 640.52 468.855Z" fill="#D6351A"/>
<path d="M1597.68 565.356C1614.58 604.213 1641.19 677.37 1645.57 718.93C1623.25 706.567 1624.66 698.505 1612.09 672.667C1603.42 676.46 1596 681.926 1588.14 687.225C1555.85 683.183 1549.8 648.244 1508 666.307C1492.4 673.057 1490.14 671.578 1475.34 665.998L1468.56 662.823L1463.03 654.09C1457.2 589.108 1550.77 601.764 1590.26 613.174C1599.03 601.97 1596.76 582.423 1597.68 565.356Z" fill="#C7411C"/>
<path d="M1468.57 662.824C1493.15 595.08 1556.13 596.9 1591.35 655.196L1591.68 666.021C1531.18 667.879 1563.94 627.505 1475.34 665.999L1468.57 662.824Z" fill="#260300"/>
<path d="M1597.67 565.357C1587.87 534.655 1556.5 491.686 1560.24 465.398C1594.97 480.471 1602.6 506.005 1616.42 541.221C1637.77 595.675 1677.42 732.167 1660.2 787.12C1657.65 782.032 1647.52 728.174 1645.57 718.931C1641.18 677.371 1614.58 604.214 1597.67 565.357Z" fill="#F6DBD3"/>
<path d="M1086.02 600.144C1104.38 598.145 1121.24 599.684 1137.17 609.306C1151.62 618.039 1160.12 630.511 1164.18 646.629L1158.95 655.227C1144.13 654.008 1139.17 647.084 1128.27 637.663C1127.71 637.538 1127.15 637.392 1126.59 637.284C1125.65 637.105 1124.71 636.969 1123.76 636.796C1092.49 630.939 1068.64 647.079 1038.83 642.891L1037.09 635.637C1049.76 617.086 1066.39 609.777 1086.02 600.144Z" fill="#260300"/>
<path d="M559.958 979.641C644.162 976.304 747.615 1015.85 824.445 1046.9C870.329 1065.45 1079.66 1151.43 1094.59 1190.3C1096.03 1194.05 1093.2 1197.48 1091.57 1201.02C1055.92 1209.78 1013.25 1192.25 976.459 1191.13C796.571 1185.65 526.086 1263.54 391.919 1389.02C256.614 1515.58 227.667 1672.13 221.783 1850.29C221.897 1963.02 241.905 2069.34 267.401 2178.64C180.304 2137.36 93.2506 2083.91 50.3685 1993.51C-38.473 1806.2 193.572 1432.31 304.475 1282.9C357.066 1212.05 436.605 1146.31 466.11 1062.92C510.531 1043.17 514.27 1003.23 559.958 979.641Z" fill="#D6351A"/>
<path d="M714.677 858.532C803.903 869.151 879.428 869.557 968.464 853.959C990.742 850.059 1155.19 798.654 1158.66 802.701C1224.91 880.171 1457.68 892.312 1525.8 820.933C1581.43 841.331 1603.97 851.803 1662.32 832.424C1656.79 902.086 1647.69 971.412 1635.01 1040.13C1591.35 1054.7 1505.94 1105.45 1470.64 1134.61L1420.09 1077.22C1337.17 1075.2 1247.28 1079.53 1163.7 1082.11C1140.43 1108.07 1125.98 1125.33 1105.07 1153.67C967.868 1071.89 820.216 1009.08 666.139 966.959C666.512 941.755 663.668 889.592 678.231 870.451C687.891 857.752 698.131 860.195 714.677 858.532Z" fill="#F2D641"/>
<path d="M149.875 423.188C311.667 338.123 462.467 329.612 601.814 464.055C532.742 599.961 548.659 700.034 395.259 744.465C305.86 770.357 240.499 773.77 150.276 750.636C192.421 677.539 232.643 633.947 310.411 596.288C326.686 588.405 362.422 576.962 375.148 569.746C383.248 561.245 383.475 563.51 397.172 560.509L396.364 553.151C363.327 533.387 251.904 524.139 237.005 495.484C199.925 468.985 181.217 456.21 149.875 423.188Z" fill="#D6351A"/>
<path d="M237.008 495.483C257.661 497.921 276.991 506.427 296.994 512.322C372.291 534.508 444.781 540.646 522.874 543.133C485.187 551.249 410.394 568.868 375.151 569.746C383.251 561.245 383.479 563.51 397.175 560.508L396.368 553.151C363.33 533.386 251.907 524.138 237.008 495.483Z" fill="#260300"/>
<path d="M289.54 1609.74L316.103 1650.75L340.668 1681.36C368.575 1715.61 398.21 1747.09 429.395 1778.37C454.578 1797.75 493.152 1864.11 518.139 1892.87C476.509 1932.45 469.027 1956.47 466.204 2012.96L422.504 2045.68C370.146 2010.69 325.682 1995.7 262.852 1987.61L260.034 1924.07C238.585 1834.15 260.738 1696.72 289.54 1609.74Z" fill="#9D200E"/>
<path d="M289.54 1609.74L316.103 1650.75L340.668 1681.36C368.575 1715.61 398.21 1747.09 429.395 1778.37C394.169 1775.24 316.835 1764.8 288.532 1787.48C272.046 1800.69 264.731 1831.68 263.323 1851.81C261.654 1875.62 263.724 1900.6 260.034 1924.07C238.585 1834.15 260.738 1696.72 289.54 1609.74Z" fill="#861707"/>
<path d="M316.098 1650.75L340.662 1681.36C340.044 1688.38 336.729 1693.87 333.559 1700.03C319.516 1708.14 317.452 1709.26 301.394 1708.14C291.1 1698.61 290.878 1697.35 289.258 1683.52C295.824 1667.86 302.087 1660.33 316.098 1650.75Z" fill="#9D200E"/>
<path d="M1175.43 1103.11L1409.95 1100.38C1432.79 1127.56 1453.38 1156.89 1474.57 1185.37C1441.64 1230.7 1407.33 1274.2 1369.16 1315.24C1367.81 1317 1366.44 1318.74 1365.06 1320.48C1352.81 1335.78 1337.12 1351.78 1316.41 1353.54C1252.14 1359.01 1157.37 1238.92 1109.74 1197.94C1130.47 1165.26 1150.8 1133.05 1175.43 1103.11Z" fill="#AF4936"/>
<path d="M1369.17 1127.44C1369.84 1127.34 1370.51 1127.22 1371.18 1127.14C1386.78 1125.32 1399.72 1129.97 1411.79 1139.84C1420.73 1147.16 1428.28 1158.92 1428.9 1170.71C1430.96 1209.11 1396.64 1255.27 1372.61 1282.15C1356.52 1300.15 1328.78 1326.89 1303.19 1327.84C1284.76 1328.52 1273.55 1316.86 1260.92 1305.26C1228.54 1276.64 1159.13 1233.49 1154.51 1187.77C1152.12 1164.13 1171.64 1146.35 1185.56 1129.24C1246.5 1131.11 1308.18 1128.28 1369.17 1127.44Z" fill="#110402"/>
<path d="M1307.47 1154.65C1338.79 1152.49 1375.59 1145.28 1401.2 1167.48C1404.56 1177.17 1407.02 1181.25 1403.83 1191.58C1395.39 1218.93 1331.69 1294.03 1305.79 1307.32L1298.11 1301.63C1266.9 1282.62 1200.13 1232.19 1185.89 1198.64C1181.08 1187.31 1183.19 1183.19 1187.82 1172.64C1222.11 1147.32 1267.02 1154.2 1307.47 1154.65Z" fill="#6CAA4F"/>
<path d="M1288.52 1177.4C1300.94 1178.15 1315.88 1180.42 1325.33 1189.25C1332.12 1195.59 1337.41 1205.91 1337.27 1215.33C1336.95 1235.98 1327.82 1249.25 1314.2 1263.26C1300.36 1261.17 1287.01 1257.22 1276.34 1247.61C1266.21 1238.47 1261.71 1228.95 1261.85 1215.27C1262.01 1199.47 1277.8 1187.22 1288.52 1177.4Z" fill="#FDF8DD"/>
<path d="M1234.54 2061.49C1313.22 2037.18 1387.85 2011.85 1457.9 1967.66C1465.47 1989.88 1476.3 2015.18 1479.5 2038.32C1483.84 2069.64 1461.76 2113.56 1498.22 2131.68C1512.15 2138.61 1530.09 2142.56 1542.84 2150.87C1561.6 2156.83 1578.66 2165.1 1595.84 2174.73C1612.74 2184.21 1623.79 2191.98 1629.16 2210.95C1622 2223.59 1613.23 2229.71 1599.52 2234.77C1524.5 2262.39 1393.68 2247.48 1322.99 2213.99C1316.94 2192.79 1309.14 2171.1 1309.96 2148.81C1288.74 2113.79 1267.07 2086.56 1234.54 2061.49Z" fill="#F0854B"/>
<path d="M1309.96 2148.81C1328.52 2159.56 1329.49 2184.17 1346.98 2197.86C1393.16 2234 1524.39 2234.52 1580.07 2219.45C1584.62 2218.21 1588.9 2216.43 1593.13 2214.34C1592.59 2204.02 1591.07 2203.77 1583.7 2197.1C1564.85 2180.03 1552.78 2175.25 1542.84 2150.87C1561.6 2156.83 1578.66 2165.1 1595.84 2174.73C1612.74 2184.21 1623.79 2191.98 1629.16 2210.95C1622.01 2223.59 1613.23 2229.71 1599.52 2234.77C1524.51 2262.39 1393.68 2247.48 1322.99 2213.99C1316.94 2192.79 1309.14 2171.1 1309.96 2148.81Z" fill="#DE7331"/>
<path d="M538.161 2170.64C535.994 2167.15 534.011 2163.56 532.218 2159.86C505.54 2104.15 488.16 2019.79 510.373 1959.91C516.246 1944.07 523.652 1936.81 538.789 1929.67C563.522 1929.26 615.901 1971.55 642.427 1984.6C701.953 2013.88 765.352 2035.17 827.402 2058.43C753.286 2090.29 701.812 2092.62 623.123 2084.39L617.299 2091.84C623.454 2105.24 639.973 2111.4 652.418 2118.04C665.182 2135.61 670.827 2173.39 667.197 2194.72C664.499 2210.56 655.825 2224.43 642.33 2233.22C630.887 2240.67 617.635 2241.58 604.546 2238.53C577.505 2232.23 558.76 2205.73 545.361 2183.16C542.902 2179.02 540.502 2174.85 538.161 2170.64Z" fill="#F0854B"/>
<path d="M1337.97 1594.16C1357.36 1620.84 1377.97 1642.92 1403.01 1664.39L1322.78 1740.01L1318.78 1741C1293.61 1767.79 1253.63 1810.14 1218.51 1821.18C1203.45 1825.92 1195.95 1821.9 1182.99 1815.11C1174.58 1803.47 1169.27 1795.38 1168.05 1780.86C1181.7 1729.53 1296.27 1634.99 1337.97 1594.16Z" fill="#DE7331"/>
<path d="M1325.49 730.113C1341.22 728.146 1359.54 729.251 1375.03 732.534C1411.45 740.26 1461.13 756.752 1482.52 789.389C1483.29 797.77 1485.13 802.278 1479.16 809.126C1459.74 831.41 1398.89 829.037 1371.27 830.754C1331 830.938 1270.13 829.779 1233.66 811.868C1220.02 805.166 1215.65 801.557 1210.92 787.552C1211.91 785.429 1212.88 783.364 1214.07 781.344C1229.81 754.704 1296.76 737.833 1325.49 730.113Z" fill="#F0854B"/>
<path d="M542.816 786.734C597.244 828.284 650.468 842.679 714.681 858.531C698.134 860.195 687.895 857.751 678.235 870.451C663.672 889.592 666.516 941.755 666.142 966.958C624.095 959.541 590.58 954.622 548.115 950.396C547.546 897.513 543.775 841.005 542.816 786.734Z" fill="#EBB848"/>
<path d="M316.565 1554.06C314.517 1516.85 371.02 1460.95 392.322 1431.69C376.464 1513.65 375.809 1609.65 398.862 1690.38C368.099 1680.69 339.141 1618.43 324.237 1589.87C321.187 1584.03 318.228 1578.14 315.352 1572.21L316.565 1554.06Z" fill="#EBB848"/>
<path d="M413.435 1697.66L417.894 1698.41C429.667 1712.41 444.511 1739.33 444.69 1757.77L435.323 1765.35C424.883 1755.87 413.592 1746.43 404.192 1735.93C395.009 1725.67 393.54 1721.59 394.158 1708.19L413.435 1697.66Z" fill="#060605"/>
<path d="M315.34 1572.2C314.344 1581.49 312.431 1589.94 309.933 1598.92L297.207 1604.94L285.429 1600.72C277.882 1587.1 277.199 1586.11 279.642 1570.83C294.298 1556.16 296.562 1556.02 316.554 1554.06L315.34 1572.2Z" fill="#060605"/>
</svg>
