<svg width="2563" height="2282" viewBox="0 0 2563 2282" fill="none" xmlns="http://www.w3.org/2000/svg">
<path d="M1705.23 1289.77C1708.78 1285.21 1715.25 1284.15 1720.07 1287.34C1799.3 1339.8 1917.43 1430.53 2014.63 1532.51C2063.23 1583.5 2106.88 1637.6 2137.79 1691.38C2168.64 1745.05 2187.35 1799.36 2184.66 1850.48C2184.58 1852.08 2184.14 1853.65 2183.39 1855.07C2182.32 1857.11 2180.54 1858.93 2178.13 1860.03C2175.9 1861.04 2173.85 1861.1 2172.54 1860.99C2170.21 1860.79 2168.51 1859.9 2168.04 1859.65C2166.8 1859 2165.79 1858.19 2165.35 1857.85C2164.28 1856.99 2162.89 1855.74 2161.57 1854.56C2158.73 1852.02 2154.8 1848.53 2149.76 1844.6C2139.64 1836.73 2125.21 1827.29 2107.12 1821.2C2071.85 1809.31 2020.17 1809.24 1956.2 1865.59C1890.38 1923.58 1839.34 1975.2 1770.73 2003.45C1701.35 2032.02 1615.18 2036.48 1478.62 2005.12C1477.07 2004.77 1475.61 2004.08 1474.35 2003.11C1431.5 1970.16 1417.36 1918.7 1420.92 1859.98C1424.46 1801.36 1445.66 1733.63 1475.79 1664.8C1536.13 1527 1633.75 1381.6 1705.23 1289.77Z" fill="#E82117" stroke="#232323" stroke-width="22.1312" stroke-linejoin="round"/>
<path d="M761.862 1100.09C763.378 1099.7 764.954 1099.6 766.506 1099.8C862.182 1112.11 1000.15 1130.92 1103.03 1147.32C1154.34 1155.5 1197.37 1163.15 1222.03 1169.16C1228.21 1170.66 1233.52 1172.13 1237.63 1173.55C1239.67 1174.25 1241.67 1175.04 1243.44 1175.92C1244.84 1176.61 1247.58 1178.06 1249.72 1180.61C1250.9 1182.02 1252.6 1184.6 1252.9 1188.24C1253.23 1192.24 1251.72 1195.57 1249.87 1197.8C1246.97 1201.3 1243 1202.5 1241.67 1202.89C1237.93 1204 1232.82 1204.55 1227.16 1204.89C1227.07 1204.89 1226.99 1204.9 1226.9 1204.9C1209.71 1205.56 1187.67 1216.86 1161.32 1239.82C1135.4 1262.42 1107.09 1294.73 1077.51 1333.9C1018.4 1412.2 955.406 1516.32 897.536 1620.69C839.714 1724.98 787.213 1829.15 749.072 1907.36C730.006 1946.46 714.536 1979.06 703.792 2001.92C698.42 2013.34 694.23 2022.34 691.358 2028.51C689.926 2031.59 688.811 2033.98 688.045 2035.61C687.665 2036.42 687.353 2037.09 687.125 2037.56C687.015 2037.79 686.897 2038.03 686.787 2038.25C686.739 2038.35 686.645 2038.53 686.532 2038.74C686.469 2038.85 686.31 2039.13 686.206 2039.3C685.999 2039.63 685.122 2040.81 684.385 2041.62C682.049 2043.96 678.876 2045.26 675.572 2045.24C586.281 2044.81 536.861 2069.5 510.068 2092.72C496.573 2104.42 488.506 2116.01 483.912 2124.45C481.609 2128.68 480.192 2132.09 479.407 2134.29C479.12 2135.09 478.933 2135.7 478.822 2136.08C478.685 2137.17 478.402 2138.26 477.964 2139.31C476.04 2143.92 471.536 2146.92 466.543 2146.92C462.696 2146.92 459.687 2145.2 457.739 2143.24V2143.24C430.018 2115.19 395.3 2100.57 362.661 2093.81C330.18 2087.09 300.522 2088.33 283.502 2091.39L227.39 2105.86C223.84 2106.77 220.066 2106.07 217.087 2103.93C214.107 2101.79 212.228 2098.44 211.956 2094.79L173.939 1583.78C173.769 1581.49 174.238 1579.21 175.292 1577.17L368.025 1204.96L368.182 1204.67C369.83 1201.69 372.64 1199.51 375.953 1198.66L761.862 1100.09Z" fill="#A7120B" stroke="#232323" stroke-width="24.7548" stroke-linejoin="round"/>
<path d="M1199.06 199.651C1165.82 227.446 1119.44 250.98 1060.06 263.02L910.035 293.271C884.636 104.239 990.102 31.9968 1046.59 137.017C1046.59 137.017 1061.08 46.7674 1174.4 31.0192C1180.18 30.3957 1185.44 29.7471 1191.74 29.1489C1284.94 22.8287 1286.95 126.1 1199.06 199.651Z" fill="#F4D93B"/>
<path d="M1198.97 199.648C1188.22 197.766 1183.57 191.657 1191.06 177.994C1219.52 122.816 1257.9 38.7078 1153.06 47.1759L1174.31 31.0154C1180.09 30.392 1185.35 29.7434 1191.65 29.1452C1284.85 22.825 1286.86 126.097 1198.97 199.648Z" fill="white"/>
<path d="M908.651 308.179C900.88 307.801 894.08 302.492 893.143 295.658C875.592 163.121 919.806 89.2524 968.347 76.2315C994.472 69.3589 1020.67 78.7804 1041.96 101.991C1059.6 68.4589 1099.87 20.644 1190.44 14.6481C1239.15 11.1384 1273.48 34.079 1279.18 74.1782C1288.84 139.358 1219.22 246.381 1063.42 277.255C1054.41 279.078 1044.97 274.094 1043.08 266.309C1041.19 258.524 1047.16 250.217 1056.17 248.393C1190.24 221.891 1253.19 130.834 1244.98 78.3944C1242.4 61.0731 1231.21 41.0703 1191.95 43.6827C1079.38 51.3217 1063.39 135.163 1063.06 138.768C1061.97 145.049 1056.25 150.654 1048.36 151.627C1040.98 152.625 1033.46 149.543 1030.37 143.51C1014.83 114.245 994.823 99.6946 976.715 104.243C946.322 112.265 910.867 175.7 926.356 290.941C927.688 299.151 920.771 306.507 911.282 307.855C911.241 308.305 909.687 308.23 908.651 308.179Z" fill="#232323"/>
<path d="M1485.35 1801.82C1648.96 1949.66 1639.95 2063.24 1435.32 2081.27C1230.69 2099.3 1083.76 2057.38 1131.09 1929.38C1178.41 1801.37 1485.35 1801.82 1485.35 1801.82Z" fill="#FF814A"/>
<path d="M1350.11 2100.23C1238.33 2100.23 1160.8 2077.25 1127 2033.08C1104.91 2003.78 1101.31 1967.27 1117.53 1924.45C1167.56 1788.79 1470.9 1786.98 1485.77 1786.98C1489.38 1786.98 1492.98 1788.34 1495.69 1790.59C1589.44 1875.32 1629.1 1950.14 1610.17 2006.94C1593.5 2056.97 1535.35 2087.16 1437.1 2095.73C1406 2098.88 1377.15 2100.23 1350.11 2100.23ZM1479.91 1816.73C1438.9 1817.63 1184.69 1827.1 1145.03 1934.82C1132.86 1968.17 1134.66 1994.32 1150.44 2015.05C1185.59 2060.57 1288.81 2079.5 1434.39 2066.43C1518.23 2058.77 1569.61 2035.33 1581.78 1997.92C1596.2 1954.2 1560.14 1890.2 1479.91 1816.73Z" fill="#232323"/>
<path d="M461.783 1411.92C203.069 1412.37 9.70942 1553.44 519.475 1837.85C961.183 2084.39 461.783 1411.92 461.783 1411.92Z" fill="#EFA33F"/>
<path d="M662.791 1907.26C628.987 1907.26 579.407 1888.78 512.25 1850.92C390.104 1782.86 300.861 1718.86 247.226 1660.26C197.196 1605.72 177.364 1556.15 188.632 1512.88C210.717 1427.24 344.581 1396.59 462.22 1396.59C467.178 1396.59 471.685 1398.84 474.389 1402.9C475.291 1403.8 549.209 1503.86 614.564 1611.58C737.611 1813.96 724.99 1868.04 704.708 1891.03C694.792 1901.85 680.82 1907.26 662.791 1907.26ZM454.107 1427.24C324.299 1429.04 231.901 1465.1 217.478 1520.99C206.21 1563.81 231.901 1660.26 526.673 1824.78C648.368 1892.38 675.862 1877.51 681.27 1871.2C688.933 1862.64 704.708 1819.37 587.971 1627.81C532.983 1536.31 471.234 1450.68 454.107 1427.24Z" fill="#232323"/>
<path d="M1686.34 1035.54C1865.56 1280.42 2103.11 1350.4 2080.17 1479.82C2057.24 1609.23 1581.85 1621.39 1443.79 1414.67C1306.17 1207.82 1686.34 1035.54 1686.34 1035.54Z" fill="#EFA33F"/>
<path d="M1406.62 1371.01C1396.83 1339.59 1396.75 1307.52 1405.95 1274.91C1447.61 1128.33 1671.03 1025.67 1680.52 1021.29C1686.71 1018.42 1694.37 1020.28 1698.53 1026.07C1778.35 1135.27 1870.97 1209.8 1944.92 1269.85C2040.19 1346.86 2108.95 1402.38 2094.99 1481.8C2087.13 1526.26 2037.7 1560.07 1956.11 1577C1871.94 1594.73 1765.65 1591.49 1672.16 1568.69C1594.55 1549.91 1489.72 1508.93 1432.12 1422.55C1420.33 1405.92 1412.11 1388.65 1406.62 1371.01ZM1681.73 1053.96C1637.24 1076.32 1467.37 1167.49 1434.14 1283.59C1421.9 1326.12 1429.23 1366.32 1456.38 1406.49C1550.13 1546.76 1802.96 1579.4 1949.68 1548.79C2016.67 1535 2060.25 1508.2 2065.71 1477.23C2076.92 1414.72 2013.91 1364.01 1926.21 1293.15C1852.53 1233.96 1761.74 1160.75 1681.73 1053.96Z" fill="#232323"/>
<path d="M716.02 1801.82C552.409 1949.66 561.423 2063.24 766.051 2081.27C970.678 2099.3 1117.61 2057.38 1070.29 1929.37C1022.96 1801.37 716.02 1801.82 716.02 1801.82Z" fill="#FF814A"/>
<path d="M851.716 2100.2C824.673 2100.2 795.827 2098.85 764.727 2096.14C666.92 2087.58 608.327 2057.38 591.65 2007.35C572.72 1950.11 611.932 1875.29 706.133 1791C708.837 1788.75 712.443 1787.4 716.049 1787.4C730.923 1787.4 1034.26 1789.2 1084.29 1924.87C1100.06 1967.69 1096.91 2004.2 1074.82 2033.49C1041.02 2077.21 963.044 2100.2 851.716 2100.2ZM721.458 1816.7C641.229 1890.16 605.172 1954.62 619.595 1997.89C632.215 2035.3 683.146 2059.18 766.981 2066.4C912.564 2079.47 1015.78 2060.54 1050.94 2015.01C1066.71 1994.28 1068.51 1967.69 1056.34 1934.78C1016.68 1826.61 762.924 1817.15 721.458 1816.7Z" fill="#232323"/>
<path d="M1794.03 1623.32C1793.13 1626.48 1792.68 1629.63 1791.78 1632.79C1697.13 1970.38 1285.62 1975.79 993.1 1971.73H992.198C931.351 1970.83 871.405 1966.32 814.163 1957.31H813.713C563.111 1918.54 364.343 1796.4 382.823 1506.58C386.879 1407.88 403.105 1309.17 424.74 1215.42C440.064 1149.61 466.206 1094.17 480.179 1030.62C488.292 994.565 490.095 954 490.545 914.787C485.587 761.091 520.293 624.072 584.295 512.743C720.413 275.213 988.592 153.068 1292.38 235.099C1601.12 321.187 1702.54 594.324 1689.01 892.702V893.603C1685.41 1011.69 1716.96 1080.65 1759.33 1187.92C1812.51 1325.39 1829.19 1479.99 1794.03 1623.32Z" fill="#F4D93B"/>
<path d="M1529.5 449.621C1646.69 616.388 1666.07 725.463 1681.4 855.721C1696.27 985.98 1688.61 784.507 1688.61 784.507L1675.08 668.672L1633.62 517.229L1597.56 459.537L1529.5 449.621Z" fill="white"/>
<path d="M813.713 1957.72C563.111 1918.96 364.343 1796.82 382.823 1507C386.879 1408.29 403.105 1309.59 424.74 1215.84C440.064 1150.03 466.206 1094.59 480.179 1031.04C488.292 994.983 490.095 954.418 490.545 915.205C485.587 761.509 500.563 583.5 586.063 505.5C611.881 481.947 721.563 457 721.563 457C649.448 637.289 624.86 1011.66 624.86 1011.66C624.86 1011.66 303.496 1539.45 558.153 1551.17C558.153 1551.17 553.196 1901.38 813.713 1957.72Z" fill="#EC2F2F" fill-opacity="0.14"/>
<path opacity="0.32" d="M1776.39 1668.08C1775.32 1671.23 1774.78 1674.39 1773.71 1677.54C1661.05 2015.02 1204.71 1968.56 856.563 1964.5H823.141L723.564 1943C602.866 1796.57 665.965 1331.06 1085.99 1228.78C1456.14 1138.66 1697.06 1241 1772.63 1381.97C1805.06 1480 1782.83 1552.73 1776.39 1668.08Z" fill="#FFF4C5"/>
<path d="M1067.99 1987.48C1042.75 1987.48 1017.51 1987.03 992.717 1987.03C743.468 1982.98 565.884 1924.83 464.021 1814.41C392.356 1736.43 359.904 1632.77 368.017 1506.11C371.623 1415.97 386.046 1317.26 410.385 1212.69C418.047 1179.34 428.414 1148.69 438.78 1118.94C449.147 1088.29 459.063 1059.45 465.824 1028.35C474.387 990.939 475.74 948.571 475.74 916.119C468.077 672.278 559.123 457.284 725.89 325.223C882.291 201.274 1084.66 164.315 1296.05 221.557C1574.6 299.532 1719.28 537.963 1703.5 893.583V894.033V894.484C1700.35 1000.4 1726.49 1066.66 1763 1158.16C1766.16 1166.27 1769.31 1174.38 1772.92 1182.95C1831.51 1333.04 1843.23 1494.39 1806.27 1636.82C1762.55 1792.32 1653.02 1892.83 1470.93 1944.67C1344.28 1980.72 1204.56 1987.48 1067.99 1987.48ZM1105.4 224.712C971.533 224.712 847.134 266.629 744.37 348.21C585.265 473.961 498.276 680.842 505.487 915.217V915.668C505.487 949.923 504.135 994.094 494.67 1034.66C487.458 1067.56 476.641 1098.21 466.725 1128.41C456.809 1157.71 446.443 1187.45 439.231 1219.45C415.343 1322.22 401.371 1419.12 397.314 1507.92C389.652 1626.46 419.399 1722.91 485.655 1794.58C581.659 1898.69 752.032 1953.23 993.168 1957.74C1326.7 1961.79 1690.43 1940.61 1777.42 1629.16C1813.03 1493.04 1801.76 1338.44 1745.42 1194.21C1742.27 1185.65 1738.66 1177.54 1735.51 1169.42C1697.65 1074.32 1670.6 1005.81 1674.21 894.033V893.583V893.132C1682.77 695.716 1644.46 350.013 1288.39 250.403C1226.19 232.825 1164.89 224.712 1105.4 224.712Z" fill="#232323"/>
<path d="M105.704 493.723C219.582 416.461 322.975 402.381 406.319 417.249C481.878 430.728 540.18 467.86 574.321 501.684C576.716 500.112 579.116 498.816 581.517 497.867C587.83 495.371 597.057 494.42 604.345 501.368C610.237 506.986 611.366 514.832 611.541 519.966C611.739 525.776 610.831 532.268 609.297 538.82C603.427 563.894 586.024 599.497 560.854 624.911C507.933 771.587 395.153 831.948 296.543 854.986C247.015 866.557 200.838 868.809 167.05 867.994C150.139 867.586 136.23 866.408 126.434 865.212C121.555 864.616 117.586 864.003 114.716 863.454C113.327 863.189 111.952 862.893 110.777 862.566C110.267 862.425 109.319 862.148 108.295 861.71C107.864 861.525 106.721 861.024 105.46 860.118C104.835 859.669 103.651 858.749 102.509 857.273C101.388 855.825 99.5645 852.86 99.5645 848.667C99.5645 846.764 99.9526 844.88 100.705 843.132C144.007 742.536 204.657 686.546 269.557 652.562C301.541 635.813 334.533 624.467 366.496 615.678C273.633 614.554 211.951 596.354 171.41 575.089C144.996 561.233 127.785 546.191 116.931 534.064C111.514 528.013 107.715 522.728 105.161 518.738C102.788 515.031 101.004 511.545 101.409 512.254C97.7803 505.903 99.6513 497.829 105.704 493.723Z" fill="#E82117" stroke="#232323" stroke-width="28" stroke-linejoin="round"/>
<path d="M598.517 492.544C748.544 420.668 1092.34 309.03 1566.19 439.205C1567.9 439.515 1569.21 440.061 1569.92 440.397C1571.84 441.312 1573.17 442.46 1573.79 443.019C1575.12 444.235 1576.21 445.593 1576.91 446.522C1578.45 448.557 1580.19 451.258 1582.01 454.26C1585.71 460.385 1590.54 469.136 1596.05 479.713C1607.09 500.925 1621.2 530.145 1635.03 561.838C1648.85 593.506 1662.49 627.88 1672.52 659.349C1682.4 690.333 1689.33 720.16 1688.49 742.025C1688.02 754.266 1684.29 764.938 1677.46 773.639C1670.72 782.222 1661.62 788.047 1651.69 791.872C1632.2 799.374 1607.48 799.966 1583.17 797.226C1558.52 794.446 1532.65 788.045 1509.91 780.13C1487.36 772.283 1466.87 762.601 1453.46 752.784C1429.99 735.601 1400.68 710.764 1338.11 707.121C1274.47 703.416 1175.19 721.699 1013.33 796.918C1013.32 796.924 1013.31 796.929 1013.3 796.935C880.259 858.283 766.757 876.014 679.204 870.91C592.27 865.843 529.485 838.096 499.865 806.59C497.521 804.096 496.171 800.83 496.071 797.409C495.229 768.562 505.319 714.581 522.172 658.348C539.113 601.821 563.618 540.553 592.983 497.305C594.374 495.256 596.284 493.614 598.517 492.544Z" fill="#E82117" stroke="#232323" stroke-width="28" stroke-linejoin="round"/>
<path d="M1664.06 789C1692.56 729.5 1560.56 446.882 1514.56 426.291L1590.06 451L1621.56 505L1664.06 643L1692.56 753.5C1690.23 760.167 1681.26 776.6 1664.06 789Z" fill="white"/>
<path d="M598.13 494.99C745.577 424.819 1091.1 316.073 1552.58 434.849C1572.12 439.879 1591.09 451.832 1600.94 471.909L1602.29 474.678C1616.48 503.952 1637.99 553.772 1655.93 604.061C1665.2 630.029 1673.59 656.333 1679.53 680.133C1685.4 703.654 1689.15 725.794 1688.49 743.016C1688.02 755.217 1684.27 765.852 1677.43 774.515C1670.68 783.055 1661.57 788.84 1651.65 792.637C1632.17 800.085 1607.46 800.675 1583.15 797.952C1558.49 795.191 1532.62 788.832 1509.87 780.968C1487.32 773.171 1466.83 763.552 1453.42 753.798C1429.94 736.727 1400.6 712.032 1337.98 708.41C1274.3 704.727 1174.96 722.903 1013.04 797.653C1013.03 797.659 1013.02 797.664 1013 797.67C879.921 858.632 766.388 876.247 678.819 871.177C591.873 866.142 529.076 838.578 499.44 807.264C497.078 804.767 495.715 801.489 495.614 798.053C494.77 769.355 504.872 715.689 521.732 659.804C538.682 603.622 563.202 542.722 592.588 499.731C593.984 497.689 595.896 496.053 598.13 494.99Z" stroke="#232323" stroke-width="28" stroke-linejoin="round"/>
<path d="M961.077 637.918C967.677 626.954 976.15 617.749 986.137 610.319C988.54 608.351 991.321 606.826 993.746 605.319C995.125 604.326 996.527 603.794 997.929 603.263C999.308 602.27 1000.71 601.738 1002.11 601.207C1007.7 598.619 1013.35 597.415 1019.41 597.117C1031.14 596.076 1043.4 598.709 1054.41 604.642C1059.91 607.609 1065.1 611.516 1069.58 615.457C1072.19 617.642 1074.44 619.843 1076.35 622.524C1077.49 623.855 1078.63 625.187 1079.76 626.518C1080.52 627.406 1080.9 627.85 1081.3 628.755C1082.06 629.643 1082.44 630.086 1083.22 631.436C1086.3 635.909 1085.93 642.865 1082.55 646.732C1080.52 649.144 1077.7 649.746 1075.16 648.946L1071.17 647.755C1070.82 647.773 1070.44 647.329 1069.7 646.902L1068.21 645.588C1067.09 644.718 1066 644.31 1065.25 643.422C1063.04 642.143 1061.19 640.846 1058.99 639.568C1054.93 636.992 1050.54 634.896 1046.53 633.243C1038.16 629.956 1029.86 628.053 1021.31 628.474C1017.03 628.685 1012.78 629.357 1008.55 630.49C1007.51 631.004 1006.44 631.057 1005.39 631.571C1004.35 632.085 1003.28 632.138 1002.23 632.652C1000.14 633.68 998.028 634.247 995.936 635.275C987.57 639.387 979.272 644.884 971.02 651.303L970.663 651.321C967.238 654.264 962.517 652.647 960.486 647.659C958.925 644.961 959.076 640.791 961.077 637.918Z" fill="#232323"/>
<path d="M1397.53 617.366C1404.55 606.671 1413.38 597.807 1423.66 590.776C1426.13 588.903 1428.97 587.49 1431.45 586.079C1432.87 585.141 1434.29 584.665 1435.72 584.189C1437.13 583.251 1438.55 582.775 1439.98 582.299C1445.66 579.933 1451.36 578.954 1457.42 578.894C1469.18 578.316 1481.34 581.43 1492.1 587.792C1497.48 590.973 1502.51 595.081 1506.83 599.196C1509.35 601.481 1511.51 603.77 1513.32 606.524C1514.41 607.899 1515.49 609.274 1516.57 610.65C1517.29 611.566 1517.66 612.025 1518.02 612.945C1518.74 613.862 1519.1 614.32 1519.83 615.699C1522.73 620.29 1522.08 627.226 1518.55 630.957C1516.44 633.288 1513.59 633.778 1511.08 632.878L1507.15 631.531C1506.79 631.535 1506.43 631.076 1505.71 630.621L1504.27 629.25C1503.19 628.336 1502.12 627.885 1501.4 626.968C1499.24 625.603 1497.45 624.235 1495.3 622.87C1491.35 620.137 1487.04 617.87 1483.1 616.061C1474.87 612.446 1466.64 610.217 1458.08 610.302C1453.8 610.344 1449.53 610.848 1445.26 611.814C1444.19 612.286 1443.12 612.297 1442.06 612.769C1440.99 613.242 1439.92 613.252 1438.86 613.725C1436.73 614.67 1434.59 615.153 1432.46 616.098C1423.94 619.877 1415.43 625.043 1406.94 631.132L1406.58 631.136C1403.04 633.942 1398.39 632.14 1396.55 627.077C1395.1 624.319 1395.42 620.158 1397.53 617.366Z" fill="#232323"/>
<path d="M774.049 1396.64C689.765 1474.61 618.1 1527.35 558.154 1559.8C189.464 1758.12 257.973 1184.8 539.674 968.904L593.31 1066.71L774.049 1396.64Z" fill="#F4D93B"/>
<path d="M558.232 1559.8C189.542 1758.11 258.051 1184.8 539.752 968.9L593.388 1066.71C519.47 1201.92 354.506 1542.22 558.232 1551.68C558.232 1551.23 558.232 1554.39 558.232 1559.8Z" fill="#EC2F2F" fill-opacity="0.14"/>
<path d="M548.408 993.98C512.224 1023.1 480.011 1057.52 451.77 1095.47C438.091 1114.45 424.853 1133.86 413.38 1154.6C401.466 1174.9 390.875 1195.64 381.167 1217.26C361.752 1260.06 346.748 1304.63 337.041 1350.52C332.187 1373.47 328.656 1396.42 327.333 1419.36C326.009 1442.31 326.45 1465.7 330.421 1487.32C334.393 1509.38 341.012 1530.56 352.926 1547.77C364.84 1564.54 381.609 1576.89 401.466 1582.19C411.615 1584.84 421.764 1585.72 432.796 1585.72C443.827 1585.28 454.418 1583.96 465.891 1581.31C487.954 1576.45 509.576 1568.51 530.757 1558.8C573.119 1539.39 613.274 1513.35 652.106 1485.55C690.938 1457.75 728.004 1427.31 764.629 1396.42C767.718 1393.77 771.69 1394.21 773.896 1397.3C776.102 1399.95 776.102 1403.92 773.455 1406.12C739.477 1440.54 703.293 1473.2 665.785 1503.64C646.811 1518.65 627.395 1533.65 606.655 1546.89C585.916 1560.13 565.176 1573.36 543.113 1584.4C521.049 1595.43 497.662 1604.69 472.51 1611.31C460.154 1614.4 446.916 1616.17 434.12 1617.05C420.881 1617.49 407.202 1616.61 393.964 1613.52C387.345 1611.76 380.726 1609.55 374.107 1606.9C367.488 1604.25 361.31 1600.72 355.574 1596.75C343.66 1588.81 333.952 1578.66 326.009 1567.19C322.037 1561.45 318.507 1555.71 315.418 1549.98C312.33 1543.8 309.682 1537.62 307.475 1531.89C305.269 1525.71 303.063 1519.53 301.298 1513.35C299.533 1507.17 298.209 1500.56 296.885 1494.38C292.472 1468.78 291.59 1443.63 292.914 1418.48C294.237 1393.33 297.768 1368.62 303.063 1344.35C313.212 1295.81 329.539 1248.59 350.279 1203.58C360.428 1181.08 371.901 1159.46 384.697 1138.27C397.494 1117.09 411.174 1096.8 426.177 1076.94C456.183 1037.67 491.043 1001.48 531.199 971.916C537.818 967.062 546.643 968.386 551.497 975.005C555.91 980.3 554.586 989.126 548.408 993.98Z" fill="#232323"/>
<path d="M879.58 1972.63C982.795 1995.62 1052.66 2022.66 1052.66 2022.66L1079.25 1989.76L1066.63 1972.63H879.58Z" fill="#232323"/>
<path d="M1143.22 2029.86C1301.88 1954.59 1599.35 1932.51 1599.35 1932.51L1561.49 1891.94L1463.24 1928.45L1291.06 1964.06L1122.04 1972.62L1143.22 2029.86Z" fill="#232323"/>
<path d="M392.847 1646.75C583.052 1662.07 702.042 1466.91 702.042 1466.91L593.869 1555.25L496.513 1587.71L410.426 1601.23L390.594 1613.4L392.847 1646.75Z" fill="#232323"/>
<path d="M1127.56 743.883C1239.81 664.625 1297.88 656.099 1422.44 725.818C1451.49 741.929 1444.51 770.336 1421.03 781.759C1364.88 809.115 1201.36 822.172 1135.1 804.453C1104.37 795.979 1096.94 765.535 1127.5 743.832L1127.56 743.883Z" fill="#FF814A"/>
<path d="M1119.35 732.24C1159.37 705.233 1204.06 678.454 1252.93 669.629C1302.88 660.343 1354.43 677.207 1398.4 698.138C1407.7 702.245 1416.61 707.097 1425.67 711.663C1431.97 714.818 1438.83 718.874 1443.91 724.325C1465.16 744.407 1457.26 778.684 1433.26 792.853C1424.2 798.461 1412.27 802.72 1402.18 806.243C1333.51 828.556 1185.76 843.443 1119 815.255C1082.04 795.881 1087.09 752.623 1119.35 732.295L1119.35 732.24ZM1135.79 755.532C1118.27 768.309 1118.44 785.05 1141.4 789.255L1151.93 791.23C1211.92 798.273 1276.13 793.852 1336.48 786.163C1358.97 782.881 1381.58 778.872 1403.21 771.891C1403.85 771.46 1414.48 767.733 1415.05 767.141C1420.35 764.67 1425.43 759.893 1426.53 754.177C1427.92 746.394 1418.99 739.608 1412.11 736.107C1403.65 731.388 1395.16 726.23 1386.52 721.967C1283.1 666.145 1224.82 689.006 1135.73 755.481L1135.79 755.532Z" fill="#232323"/>
<path d="M486.675 983.465C488.917 978.979 493.645 976.29 498.646 976.655C758.176 995.602 983.989 1121.13 1113.14 1179.21C1118.46 1181.61 1121.39 1187.39 1120.17 1193.1C1118.94 1198.8 1113.9 1202.88 1108.06 1202.88C1079.26 1202.88 1031.4 1195.62 986.492 1190.39C963.644 1187.72 941.242 1185.53 921.479 1184.83C901.461 1184.13 885.243 1185.01 874.269 1187.96C873.771 1188.09 873.265 1188.19 872.755 1188.26C616.602 1223.59 456.649 1307.93 359.899 1413.06C263.197 1518.15 228.291 1645.47 225.111 1769.49C221.928 1893.65 250.591 2013.87 280.38 2103.48C295.254 2148.22 310.359 2185.17 321.795 2210.97C327.512 2223.87 332.305 2233.96 335.686 2240.83C337.377 2244.27 338.707 2246.89 339.615 2248.63C340.072 2249.51 340.407 2250.14 340.618 2250.52C340.656 2250.59 340.687 2250.65 340.711 2250.69C342.922 2254.24 343.228 2258.73 341.36 2262.61C339.078 2267.35 334.049 2270.13 328.822 2269.54C164.529 2251.01 82.0427 2179.97 41.8291 2125.41C13.0321 2086.34 8.37088 2032.62 15.0732 1987.48C53.5397 1728.39 145.757 1518.03 228.808 1371.75C270.341 1298.61 309.608 1241.44 338.771 1202.17C353.353 1182.53 365.41 1167.37 373.958 1156.92C378.233 1151.7 381.624 1147.66 384.004 1144.85C384.366 1144.42 384.693 1144.03 384.994 1143.68C385.401 1107.79 401.064 1086.33 417.053 1073.63C425.132 1067.21 433.041 1063.22 438.196 1060.72C438.51 1060.57 438.802 1060.43 439.076 1060.3C443.34 1038.91 454.699 1021.11 465.047 1008.02C470.687 1000.88 476.237 994.882 480.411 990.383C482.559 988.067 484.203 986.299 485.449 984.859C486.914 983.167 486.956 982.902 486.675 983.465Z" fill="#E82117" stroke="#232323" stroke-width="24.7548" stroke-linejoin="round"/>
<path d="M1622.49 990.144C1654.09 979.398 1684.08 974.274 1706.33 982.06C1706.66 982.175 1706.98 982.304 1707.3 982.449C1713.09 985.111 1716.86 990.774 1719.11 995.267C1721.64 1000.31 1723.54 1006.44 1724.42 1012.89C1725.35 1019.66 1725.25 1027.53 1723.06 1035.18C1728.62 1035.28 1735.05 1035.74 1741.43 1037.14C1751.08 1039.25 1761.98 1043.8 1769.35 1053.89C1775.88 1062.84 1778.46 1074.52 1776.91 1088.9C1778.1 1089.76 1779.49 1090.75 1781.52 1092.25C1787.56 1096.7 1795.77 1103.08 1803.67 1111.17C1819.21 1127.08 1835.49 1151.71 1828.35 1182.69C1827.55 1186.14 1825.15 1189.01 1821.89 1190.39C1818.63 1191.78 1814.9 1191.52 1811.87 1189.69C1780.74 1170.99 1762.48 1161.26 1746.99 1156.49C1732.13 1151.91 1719.31 1151.75 1698.51 1153.96C1676.96 1156.25 1590.58 1160.58 1507.49 1166.75C1465.66 1169.86 1424.43 1173.44 1391.93 1177.49C1375.66 1179.52 1361.77 1181.64 1351.16 1183.83C1345.85 1184.93 1341.54 1186.02 1338.25 1187.06C1334.74 1188.17 1333.19 1189 1332.8 1189.27C1327.88 1192.72 1321.11 1191.6 1317.54 1186.77C1313.98 1181.93 1314.93 1175.14 1319.68 1171.46C1367.29 1134.57 1443.34 1080.85 1516.95 1039.52C1553.72 1018.87 1590.24 1001.11 1622.49 990.144Z" fill="#E82117" stroke="#232323" stroke-width="22.1312" stroke-linejoin="round"/>
<path d="M1335.1 1079.01L1118.82 1091.22C1113.59 1091.52 1108.84 1094.36 1106.09 1098.82L1069.68 1158C1065.5 1164.8 1066.96 1173.64 1073.12 1178.72L1212.35 1293.74C1233.85 1311.49 1265.71 1308.24 1283.17 1286.5L1388.51 1155.4C1393.2 1149.57 1393.22 1141.28 1388.57 1135.42L1348.52 1085.03C1345.29 1080.97 1340.28 1078.72 1335.1 1079.01Z" fill="#58BF43" stroke="#E82117" stroke-width="29" stroke-linejoin="round"/>
<path d="M1222.89 1196.15C1223.47 1195.96 1224.05 1195.96 1224.62 1195.96C1230.02 1195.57 1235.79 1195.38 1241.19 1195C1247.35 1194.61 1252.74 1194.42 1258.71 1194.04C1260.45 1193.85 1262.37 1193.46 1263.91 1192.89C1272.39 1190.01 1275.08 1181.75 1272.77 1172.91C1269.31 1159.85 1258.71 1148.91 1245.42 1146.03C1227.7 1141.99 1208.25 1150.06 1200.36 1166.58C1197.47 1172.53 1196.12 1180.21 1196.7 1187.32C1198.04 1208.63 1215.38 1224.19 1236.76 1224C1245.23 1224 1253.71 1222.27 1260.64 1217.66C1265.65 1214.4 1271.23 1210.17 1269.69 1203.45C1268.34 1198.07 1263.53 1194.61 1258.14 1196.54C1256.4 1197.11 1254.86 1198.07 1253.32 1199.03C1251.2 1200.18 1249.08 1201.53 1246.77 1202.3C1240.8 1204.6 1231.17 1204.99 1225.39 1201.72C1224.24 1200.95 1222.12 1199.61 1221.73 1198.26C1221.35 1197.5 1221.93 1196.54 1222.89 1196.15ZM1221.54 1177.14C1220.77 1176.95 1220.19 1176.37 1220.19 1175.6C1220.19 1175.03 1220.39 1174.26 1220.58 1173.68C1223.08 1167.92 1229.05 1164.85 1235.6 1164.85C1241.38 1164.65 1247.35 1166.96 1250.43 1172.53C1250.62 1172.91 1250.82 1173.3 1250.82 1173.68C1250.82 1174.07 1250.82 1174.45 1250.62 1174.83C1250.24 1175.6 1249.47 1175.99 1248.51 1175.99C1241.76 1176.37 1229.82 1176.95 1222.7 1177.33C1222.31 1177.33 1221.93 1177.33 1221.54 1177.14Z" fill="white"/>
<path d="M1334.13 1055.2C1346.81 1054.48 1359.05 1059.97 1366.94 1069.91L1407.59 1121.06C1418.96 1135.36 1418.9 1155.63 1407.46 1169.87L1300.28 1303.25C1275.31 1334.34 1229.73 1339 1198.98 1313.6L1057.44 1196.69C1042.41 1184.27 1038.83 1162.67 1049.05 1146.06L1086 1086L1086.32 1085.49C1093.07 1074.89 1104.52 1068.16 1117.09 1067.45L1334.13 1055.2ZM1124.25 1114.79L1093.55 1164.69L1229.33 1276.85C1239.59 1285.33 1254.8 1283.77 1263.13 1273.4L1366.02 1145.35L1332.39 1103.03L1124.25 1114.79Z" fill="#E82117" stroke="#232323" stroke-width="20" stroke-linejoin="round"/>
<path d="M2523.57 303.157C2531.35 301.265 2539.49 304.805 2543.39 311.876C2544.81 314.443 2545.22 316.778 2545.26 316.975C2545.4 317.696 2545.48 318.278 2545.51 318.557C2545.57 319.149 2545.6 319.635 2545.61 319.847C2545.63 320.334 2545.64 320.796 2545.64 321.105C2545.65 321.78 2545.64 322.618 2545.63 323.528C2545.6 325.385 2545.54 327.999 2545.45 331.216C2545.28 337.674 2544.99 346.805 2544.62 357.728C2543.86 379.585 2542.76 408.733 2541.51 438.256C2540.26 467.768 2538.87 497.722 2537.55 521.166C2536.89 532.874 2536.24 543.056 2535.63 550.782C2535.32 554.633 2535.01 557.999 2534.71 560.692C2534.46 562.851 2534.08 566.031 2533.35 568.548C2532.68 570.853 2531.4 573.284 2531.08 573.921C2530.38 575.304 2529.46 577.042 2528.36 579.054C2526.16 583.105 2523.06 588.671 2519.18 595.541C2511.4 609.3 2500.33 628.575 2486.77 652.04C2459.63 698.983 2422.38 762.871 2381.16 833.348C2298.69 974.307 2200.24 1141.72 2134.74 1252.88C2130.9 1259.39 2123.37 1262.78 2115.95 1261.32L2016.41 1241.81C2007.92 1240.15 2001.85 1232.63 2002.01 1223.98L2003.5 1143.98C2003.55 1141.45 2004.13 1138.96 2005.22 1136.68L2006.01 1135.01L2303.76 471.691L2303.98 471.22C2305.1 468.888 2306.73 466.827 2308.74 465.185C2339.87 439.742 2387.65 401.255 2429.84 368.475C2450.92 352.098 2470.72 337.049 2486.4 325.739C2494.23 320.097 2501.19 315.263 2506.86 311.627C2509.68 309.814 2512.35 308.19 2514.75 306.879C2516.87 305.721 2519.78 304.235 2522.82 303.357L2523.57 303.157Z" fill="white" stroke="#232323" stroke-width="33.1901" stroke-linejoin="round"/>
<path d="M2102.51 1128.61C2228.19 879.54 2440.41 416.889 2531.24 313.236L2540.09 557.093L2168.55 1196.18L2121.75 1154.8L2102.51 1128.61Z" fill="black" fill-opacity="0.08"/>
<path d="M2523.57 303.157C2531.35 301.265 2539.49 304.805 2543.39 311.876C2544.81 314.443 2545.22 316.778 2545.26 316.975C2545.4 317.696 2545.48 318.278 2545.51 318.557C2545.57 319.149 2545.6 319.635 2545.61 319.847C2545.63 320.334 2545.64 320.796 2545.64 321.105C2545.65 321.78 2545.64 322.618 2545.63 323.528C2545.6 325.385 2545.54 327.999 2545.45 331.216C2545.28 337.674 2544.99 346.805 2544.62 357.728C2543.86 379.585 2542.76 408.733 2541.51 438.256C2540.26 467.768 2538.87 497.722 2537.55 521.166C2536.89 532.874 2536.24 543.056 2535.63 550.782C2535.32 554.633 2535.01 557.999 2534.71 560.692C2534.46 562.851 2534.08 566.031 2533.35 568.548C2532.68 570.853 2531.4 573.284 2531.08 573.921C2530.38 575.304 2529.46 577.042 2528.36 579.054C2526.16 583.105 2523.06 588.671 2519.18 595.541C2511.4 609.3 2500.33 628.575 2486.77 652.04C2459.63 698.983 2422.38 762.871 2381.16 833.348C2298.69 974.307 2200.24 1141.72 2134.74 1252.88C2130.9 1259.39 2123.37 1262.78 2115.95 1261.32L2016.41 1241.81C2007.92 1240.15 2001.85 1232.63 2002.01 1223.98L2003.5 1143.98C2003.55 1141.45 2004.13 1138.96 2005.22 1136.68L2006.01 1135.01L2303.76 471.691L2303.98 471.22C2305.1 468.888 2306.73 466.827 2308.74 465.185C2339.87 439.742 2387.65 401.255 2429.84 368.475C2450.92 352.098 2470.72 337.049 2486.4 325.739C2494.23 320.097 2501.19 315.263 2506.86 311.627C2509.68 309.814 2512.35 308.19 2514.75 306.879C2516.87 305.721 2519.78 304.235 2522.82 303.357L2523.57 303.157Z" stroke="#232323" stroke-width="33.1901" stroke-linejoin="round"/>
<path d="M1982.04 1220.9C1986.41 1212.68 1996.44 1209.16 2005.04 1212.99L2090.91 1251.23C2095.44 1253.26 2098.93 1257.08 2100.53 1261.78C2102.13 1266.48 2101.7 1271.63 2099.34 1276C2059.96 1348.86 1980.34 1496.45 1974.52 1508.32C1970.22 1517.08 1963.5 1527.91 1951.97 1534.81C1939.72 1542.13 1925.04 1543.31 1908.55 1538.59C1896.35 1535.35 1886.44 1529.93 1879.12 1522.26C1871.7 1514.49 1867.93 1505.45 1866.45 1496.71C1863.63 1480.11 1868.98 1464.18 1872.59 1455.77C1877.79 1443.68 1947.6 1294.38 1981.64 1221.71L1982.04 1220.9Z" fill="#FF6802" stroke="#232323" stroke-width="33.1901" stroke-linejoin="round"/>
<path d="M1927.58 1526.57C1903.69 1475.11 1969.56 1325.6 2005.48 1257.28L1980.09 1241.69L1962.01 1236.45L1936.76 1302.36L1898.74 1401.7L1871.43 1471.14L1873.44 1521.22C1886.8 1528.52 1916.32 1539.81 1927.58 1526.57Z" fill="black" fill-opacity="0.3"/>
<path d="M1982.04 1220.9C1986.41 1212.68 1996.44 1209.16 2005.04 1212.99L2090.91 1251.23C2095.44 1253.26 2098.93 1257.08 2100.53 1261.78C2102.13 1266.48 2101.7 1271.63 2099.34 1276C2059.96 1348.86 1980.34 1496.45 1974.52 1508.32C1970.22 1517.08 1963.5 1527.91 1951.97 1534.81C1939.72 1542.13 1925.04 1543.31 1908.55 1538.59C1896.35 1535.35 1886.44 1529.93 1879.12 1522.26C1871.7 1514.49 1867.93 1505.45 1866.45 1496.71C1863.63 1480.11 1868.98 1464.18 1872.59 1455.77C1877.79 1443.68 1947.6 1294.38 1981.64 1221.71L1982.04 1220.9Z" stroke="#232323" stroke-width="33.1901" stroke-linejoin="round"/>
<path d="M1932.72 1067.47C1942 1068.28 1950.96 1072.71 1958.11 1076.93C1965.68 1081.4 1973.62 1087.14 1981.16 1092.75C1995.4 1103.34 2008.03 1113.23 2018.99 1119.24C2095.17 1113.92 2140.72 1155.22 2161.62 1190.77C2171.14 1200.93 2189.9 1211.42 2209.67 1220.39C2219.46 1224.83 2228.7 1228.57 2235.94 1231.46C2239.47 1232.88 2242.73 1234.17 2245.18 1235.2C2246.41 1235.71 2247.65 1236.24 2248.75 1236.76C2248.96 1236.86 2249.38 1237.06 2249.93 1237.34C2256.91 1239.85 2263.11 1244.45 2266.93 1251.61C2270.9 1259.06 2271 1266.89 2270.09 1273.03C2268.34 1284.86 2261.82 1297.22 2255.75 1307C2249.35 1317.31 2241.91 1327.1 2236.21 1334.23C2233.33 1337.82 2230.84 1340.8 2229.09 1342.88C2228.17 1343.98 2227.57 1344.68 2227.11 1345.23C2227.07 1345.27 2227.04 1345.31 2227.01 1345.35C2224.7 1348.47 2221.41 1350.8 2217.56 1351.9C2211.66 1353.58 2205.3 1352.11 2200.74 1348C2164.77 1315.59 2138.88 1300.9 2122.98 1294.39C2115.03 1291.14 2109.72 1289.99 2107 1289.62C2106.86 1289.6 2106.73 1289.59 2106.6 1289.58C2058.14 1303.69 2023.9 1289 2002.11 1268.92C1983.11 1251.41 1973.63 1229.19 1972.93 1227.06C1960.28 1208.29 1941.23 1198.13 1923.85 1192.54C1915.1 1189.72 1907.11 1188.18 1901.19 1187.27C1898.22 1186.81 1895.82 1186.52 1893.9 1186.28C1893.06 1186.18 1891.95 1186.04 1891.01 1185.88C1890.61 1185.81 1889.67 1185.65 1888.6 1185.36C1888.11 1185.22 1886.97 1184.89 1885.62 1184.26C1885.22 1184.07 1880.47 1182.05 1877.5 1176.67C1877 1175.75 1876.58 1174.8 1876.24 1173.81C1863.88 1137.57 1875.52 1110.46 1890.89 1093.17C1905.31 1076.95 1923.41 1069.14 1922.56 1069.61C1925.66 1067.91 1929.19 1067.16 1932.72 1067.47ZM2229.62 1340.29C2229.55 1340.5 2229.48 1340.7 2229.41 1340.9C2229.48 1340.7 2229.55 1340.5 2229.62 1340.29Z" fill="#58BF43" stroke="#232323" stroke-width="33.1901" stroke-linejoin="round"/>
<path d="M2016.35 1137.72C1938.07 1111.77 1900.92 1154.16 1900.98 1176.52L1892.12 1182.21L1883.95 1181.91L1883.62 1158.09L1861.86 1115.71L1916.16 1070.58L1942.05 1059.5L1982.77 1089.85L2017.65 1115.41L2097.91 1123.16C2095.71 1128.37 2034.91 1123.49 2016.35 1137.72Z" fill="black" fill-opacity="0.3"/>
<path d="M1932.72 1067.47C1942 1068.28 1950.96 1072.71 1958.11 1076.93C1965.68 1081.4 1973.62 1087.14 1981.16 1092.75C1995.4 1103.34 2008.03 1113.23 2018.99 1119.24C2095.17 1113.92 2140.72 1155.22 2161.62 1190.77C2171.14 1200.93 2189.9 1211.42 2209.67 1220.39C2219.46 1224.83 2228.7 1228.57 2235.94 1231.46C2239.47 1232.88 2242.73 1234.17 2245.18 1235.2C2246.41 1235.71 2247.65 1236.24 2248.75 1236.76C2248.96 1236.86 2249.38 1237.06 2249.93 1237.34C2256.91 1239.85 2263.11 1244.45 2266.93 1251.61C2270.9 1259.06 2271 1266.89 2270.09 1273.03C2268.34 1284.86 2261.82 1297.22 2255.75 1307C2249.35 1317.31 2241.91 1327.1 2236.21 1334.23C2233.33 1337.82 2230.84 1340.8 2229.09 1342.88C2228.17 1343.98 2227.57 1344.68 2227.11 1345.23C2227.07 1345.27 2227.04 1345.31 2227.01 1345.35C2224.7 1348.47 2221.41 1350.8 2217.56 1351.9C2211.66 1353.58 2205.3 1352.11 2200.74 1348C2164.77 1315.59 2138.88 1300.9 2122.98 1294.39C2115.03 1291.14 2109.72 1289.99 2107 1289.62C2106.86 1289.6 2106.73 1289.59 2106.6 1289.58C2058.14 1303.69 2023.9 1289 2002.11 1268.92C1983.11 1251.41 1973.63 1229.19 1972.93 1227.06C1960.28 1208.29 1941.23 1198.13 1923.85 1192.54C1915.1 1189.72 1907.11 1188.18 1901.19 1187.27C1898.22 1186.81 1895.82 1186.52 1893.9 1186.28C1893.06 1186.18 1891.95 1186.04 1891.01 1185.88C1890.61 1185.81 1889.67 1185.65 1888.6 1185.36C1888.11 1185.22 1886.97 1184.89 1885.62 1184.26C1885.22 1184.07 1880.47 1182.05 1877.5 1176.67C1877 1175.75 1876.58 1174.8 1876.24 1173.81C1863.88 1137.57 1875.52 1110.46 1890.89 1093.17C1905.31 1076.95 1923.41 1069.14 1922.56 1069.61C1925.66 1067.91 1929.19 1067.16 1932.72 1067.47ZM2229.62 1340.29C2229.55 1340.5 2229.48 1340.7 2229.41 1340.9C2229.48 1340.7 2229.55 1340.5 2229.62 1340.29Z" stroke="#232323" stroke-width="33.1901" stroke-linejoin="round"/>
<path d="M2043.4 1248.45C2075.12 1263.34 2109.91 1256.07 2121.11 1232.21C2132.31 1208.36 2115.68 1176.95 2083.96 1162.05C2052.24 1147.16 2017.45 1154.43 2006.25 1178.29C1995.05 1202.14 2011.68 1233.55 2043.4 1248.45Z" fill="#F4D93B"/>
<path d="M2089.56 1439L2047.56 1383L2018.56 1418.5L1991.56 1488L1956.56 1525L1929.56 1541L1954.06 1561.5L2033.06 1534L2072.06 1495L2089.56 1439Z" fill="#232323"/>
<path d="M1949.56 1557.5C1917.56 1555.1 1851.9 1483.5 1823.06 1448L1819.06 1475.5L1812.06 1539.5L1819.06 1568L1902.56 1573.5C1913.73 1571.83 1938.76 1566.3 1949.56 1557.5Z" fill="#232323"/>
</svg>
