<svg width="2818" height="2282" viewBox="0 0 2818 2282" fill="none" xmlns="http://www.w3.org/2000/svg">
<path d="M1705.23 1289.77C1708.78 1285.21 1715.25 1284.15 1720.07 1287.34C1799.3 1339.8 1917.43 1430.53 2014.63 1532.51C2063.23 1583.5 2106.88 1637.6 2137.79 1691.39C2168.64 1745.05 2187.35 1799.36 2184.66 1850.48C2184.58 1852.08 2184.14 1853.65 2183.39 1855.07C2182.32 1857.11 2180.54 1858.93 2178.13 1860.03C2175.9 1861.04 2173.85 1861.1 2172.54 1860.99C2170.21 1860.79 2168.51 1859.9 2168.04 1859.66C2166.8 1859 2165.79 1858.19 2165.35 1857.85C2164.28 1856.99 2162.89 1855.74 2161.57 1854.56C2158.73 1852.02 2154.8 1848.53 2149.76 1844.6C2139.64 1836.73 2125.21 1827.29 2107.12 1821.2C2071.85 1809.31 2020.17 1809.24 1956.2 1865.6C1890.38 1923.58 1839.34 1975.21 1770.73 2003.45C1701.35 2032.02 1615.18 2036.48 1478.62 2005.12C1477.07 2004.77 1475.61 2004.08 1474.35 2003.11C1431.5 1970.16 1417.36 1918.7 1420.92 1859.98C1424.46 1801.36 1445.66 1733.63 1475.79 1664.8C1536.13 1527 1633.75 1381.61 1705.23 1289.77Z" fill="#E82117" stroke="#232323" stroke-width="22.1312" stroke-linejoin="round"/>
<path d="M761.862 1100.09C763.378 1099.7 764.954 1099.6 766.506 1099.8C862.182 1112.11 1000.15 1130.92 1103.03 1147.32C1154.34 1155.5 1197.37 1163.15 1222.03 1169.16C1228.21 1170.66 1233.52 1172.13 1237.63 1173.55C1239.67 1174.26 1241.67 1175.04 1243.44 1175.92C1244.84 1176.61 1247.58 1178.06 1249.72 1180.62C1250.9 1182.02 1252.6 1184.6 1252.9 1188.24C1253.23 1192.24 1251.72 1195.57 1249.87 1197.8C1246.97 1201.3 1243 1202.5 1241.67 1202.89C1237.93 1204 1232.82 1204.55 1227.16 1204.89C1227.07 1204.89 1226.99 1204.9 1226.9 1204.9C1209.71 1205.56 1187.67 1216.86 1161.32 1239.82C1135.4 1262.42 1107.09 1294.73 1077.51 1333.9C1018.4 1412.2 955.406 1516.32 897.536 1620.69C839.714 1724.98 787.213 1829.15 749.072 1907.36C730.006 1946.46 714.536 1979.06 703.792 2001.92C698.42 2013.35 694.23 2022.34 691.358 2028.51C689.926 2031.59 688.811 2033.98 688.045 2035.61C687.665 2036.43 687.353 2037.09 687.125 2037.56C687.015 2037.79 686.897 2038.03 686.787 2038.25C686.739 2038.35 686.645 2038.53 686.532 2038.74C686.469 2038.86 686.31 2039.13 686.206 2039.3C685.999 2039.63 685.122 2040.82 684.385 2041.62C682.049 2043.96 678.876 2045.26 675.572 2045.25C586.281 2044.81 536.861 2069.5 510.068 2092.73C496.573 2104.42 488.506 2116.01 483.912 2124.45C481.609 2128.68 480.192 2132.09 479.407 2134.29C479.12 2135.1 478.933 2135.7 478.822 2136.08C478.685 2137.18 478.402 2138.26 477.964 2139.31C476.04 2143.92 471.536 2146.92 466.543 2146.92C462.696 2146.92 459.687 2145.2 457.739 2143.24V2143.24C430.018 2115.19 395.3 2100.57 362.661 2093.81C330.18 2087.09 300.522 2088.33 283.502 2091.39L227.39 2105.86C223.84 2106.77 220.066 2106.07 217.087 2103.93C214.107 2101.79 212.228 2098.45 211.956 2094.79L173.939 1583.78C173.769 1581.49 174.238 1579.21 175.292 1577.17L368.025 1204.96L368.182 1204.67C369.83 1201.69 372.64 1199.51 375.953 1198.66L761.862 1100.09Z" fill="#A7120B" stroke="#232323" stroke-width="24.7548" stroke-linejoin="round"/>
<path d="M1190.17 238.988C1151.53 258.588 1101.04 271.079 1040.48 269.446L887.495 265.154C905.294 75.2562 1024.31 28.6052 1055.72 143.645C1055.72 143.645 1090.15 58.9724 1204.1 69.1323C1209.87 69.826 1215.14 70.3786 1221.42 71.2134C1313.65 86.0323 1292.36 187.107 1190.17 238.988Z" fill="#F4D93B"/>
<path d="M1190.09 238.966C1180.03 234.712 1176.88 227.714 1187.26 216.088C1227.4 168.73 1283.73 95.4196 1179.67 80.0728L1204.02 69.1098C1209.79 69.8035 1215.06 70.356 1221.34 71.1909C1313.57 86.0097 1292.28 187.085 1190.09 238.966Z" fill="white"/>
<path d="M882.792 279.369C875.306 277.251 869.875 270.548 870.501 263.679C883.23 130.592 942.936 68.57 993.162 66.8086C1020.16 65.9924 1043.57 81.0686 1059.09 108.477C1083.82 79.7737 1133.82 42.2499 1223.42 56.7925C1271.67 64.337 1299.95 94.4155 1296.49 134.769C1291.22 200.45 1199.3 289.057 1040.55 284.072C1031.36 283.82 1023.29 276.841 1023.2 268.83C1023.11 260.82 1030.79 254.067 1039.98 254.319C1176.58 258.672 1258.41 184.122 1262.21 131.178C1263.59 113.72 1257.2 91.7142 1218.35 85.422C1106.95 67.5277 1072.5 145.62 1071.37 149.058C1068.89 154.932 1062.06 159.106 1054.15 158.278C1046.74 157.59 1040.1 152.894 1038.45 146.32C1029.89 114.308 1013.68 95.6287 995.011 95.9846C963.593 96.9603 914.77 150.788 903.923 266.558C903.373 274.857 894.978 280.468 885.429 279.645C885.287 280.075 883.79 279.651 882.792 279.369Z" fill="#232323"/>
<path d="M1485.35 1801.82C1648.96 1949.66 1639.95 2063.24 1435.32 2081.27C1230.69 2099.3 1083.76 2057.38 1131.09 1929.38C1178.41 1801.37 1485.35 1801.82 1485.35 1801.82Z" fill="#FF814A"/>
<path d="M1350.11 2100.24C1238.33 2100.24 1160.8 2077.25 1127 2033.08C1104.91 2003.78 1101.31 1967.27 1117.53 1924.45C1167.56 1788.79 1470.9 1786.98 1485.77 1786.98C1489.38 1786.98 1492.98 1788.34 1495.69 1790.59C1589.44 1875.33 1629.1 1950.15 1610.17 2006.94C1593.5 2056.97 1535.35 2087.16 1437.1 2095.73C1406 2098.88 1377.15 2100.24 1350.11 2100.24ZM1479.91 1816.73C1438.9 1817.63 1184.69 1827.1 1145.03 1934.82C1132.86 1968.17 1134.66 1994.32 1150.44 2015.05C1185.59 2060.57 1288.81 2079.5 1434.39 2066.43C1518.23 2058.77 1569.61 2035.33 1581.78 1997.92C1596.2 1954.2 1560.14 1890.2 1479.91 1816.73Z" fill="#232323"/>
<path d="M461.783 1411.92C203.069 1412.37 9.70942 1553.44 519.475 1837.85C961.183 2084.39 461.783 1411.92 461.783 1411.92Z" fill="#EFA33F"/>
<path d="M662.791 1907.26C628.987 1907.26 579.407 1888.78 512.25 1850.92C390.104 1782.86 300.861 1718.86 247.226 1660.26C197.196 1605.73 177.364 1556.15 188.632 1512.88C210.717 1427.24 344.581 1396.59 462.22 1396.59C467.178 1396.59 471.685 1398.84 474.389 1402.9C475.291 1403.8 549.209 1503.86 614.564 1611.58C737.611 1813.96 724.99 1868.05 704.708 1891.03C694.792 1901.85 680.82 1907.26 662.791 1907.26ZM454.107 1427.24C324.299 1429.04 231.901 1465.1 217.478 1520.99C206.21 1563.81 231.901 1660.26 526.673 1824.78C648.368 1892.38 675.862 1877.51 681.27 1871.2C688.933 1862.64 704.708 1819.37 587.971 1627.81C532.983 1536.31 471.234 1450.68 454.107 1427.24Z" fill="#232323"/>
<path d="M1719.35 1049.84C1870.07 1313.22 2098.31 1409.31 2061.05 1535.35C2023.8 1661.4 1550.03 1620.34 1435.95 1399.48C1322.3 1178.54 1719.35 1049.84 1719.35 1049.84Z" fill="#EFA33F"/>
<path d="M1403.88 1351.94C1397.67 1319.62 1401.17 1287.74 1413.96 1256.36C1471.75 1115.36 1705.24 1038.31 1715.16 1035.03C1721.63 1032.87 1729.04 1035.57 1732.53 1041.79C1799.64 1159.23 1883.35 1243.64 1950.12 1311.58C2036.19 1398.76 2098.31 1461.62 2075.56 1538.98C2062.77 1582.28 2009.88 1610.36 1926.91 1618.06C1841.28 1626.27 1736.02 1611.17 1645.66 1578.06C1570.64 1550.73 1471.05 1498.28 1423.46 1406C1413.61 1388.16 1407.37 1370.08 1403.88 1351.94ZM1712.71 1067.63C1666 1084.88 1487 1156.48 1441.01 1268.14C1424.09 1309.03 1426.88 1349.81 1449.37 1392.76C1526.85 1542.63 1774.45 1603.32 1923.67 1589.3C1991.78 1583.09 2038.09 1561.33 2046.97 1531.16C2065.1 1470.3 2008.15 1412.87 1928.92 1332.64C1862.32 1265.59 1780.28 1182.69 1712.71 1067.63Z" fill="#232323"/>
<path d="M716.02 1801.82C552.409 1949.66 561.423 2063.24 766.051 2081.27C970.678 2099.3 1117.61 2057.38 1070.29 1929.37C1022.96 1801.37 716.02 1801.82 716.02 1801.82Z" fill="#FF814A"/>
<path d="M851.716 2100.2C824.673 2100.2 795.827 2098.85 764.727 2096.14C666.92 2087.58 608.327 2057.38 591.65 2007.35C572.72 1950.11 611.932 1875.29 706.133 1791.01C708.837 1788.75 712.443 1787.4 716.049 1787.4C730.923 1787.4 1034.26 1789.2 1084.29 1924.87C1100.06 1967.69 1096.91 2004.2 1074.82 2033.49C1041.02 2077.21 963.044 2100.2 851.716 2100.2ZM721.458 1816.7C641.229 1890.16 605.172 1954.62 619.595 1997.89C632.215 2035.3 683.146 2059.19 766.981 2066.4C912.564 2079.47 1015.78 2060.54 1050.94 2015.01C1066.71 1994.28 1068.51 1967.69 1056.34 1934.79C1016.68 1826.61 762.924 1817.15 721.458 1816.7Z" fill="#232323"/>
<path d="M1800.3 1635.26C1799.4 1638.41 1798.95 1641.57 1798.04 1644.72C1703.39 1982.31 1291.88 1987.72 999.365 1983.67H998.464C937.616 1982.76 877.67 1978.26 820.429 1969.24H819.978C569.377 1930.48 370.609 1808.33 389.088 1518.52C393.145 1419.81 409.371 1321.1 431.006 1227.35C446.33 1161.55 472.472 1106.11 486.444 1042.56C494.557 1006.5 496.36 965.936 496.811 926.724C491.853 773.028 526.558 636.008 590.561 524.68C726.679 287.15 994.858 165.004 1298.64 247.035C1607.39 333.123 1708.8 606.261 1695.28 904.638V905.54C1691.67 1023.63 1723.22 1092.59 1765.59 1199.86C1818.78 1337.33 1835.45 1491.93 1800.3 1635.26Z" fill="#F4D93B"/>
<path d="M1529.5 449.621C1646.69 616.388 1666.07 725.463 1681.4 855.721C1696.27 985.98 1688.61 784.507 1688.61 784.507L1675.08 668.672L1633.62 517.229L1597.56 459.537L1529.5 449.621Z" fill="white"/>
<path d="M813.713 1957.72C563.111 1918.96 364.343 1796.82 382.823 1507C386.879 1408.29 403.105 1309.59 424.74 1215.84C440.064 1150.03 466.206 1094.59 480.179 1031.04C488.292 994.983 490.095 954.418 490.545 915.205C485.587 761.509 500.563 583.5 586.063 505.5C611.881 481.947 721.563 457 721.563 457C649.448 637.289 624.86 1011.66 624.86 1011.66C624.86 1011.66 303.496 1539.45 558.153 1551.17C558.153 1551.17 553.196 1901.38 813.713 1957.72Z" fill="#EC2F2F" fill-opacity="0.14"/>
<path opacity="0.32" d="M1776.39 1668.08C1775.32 1671.24 1774.78 1674.39 1773.71 1677.54C1661.05 2015.02 1204.71 1968.56 856.563 1964.5H823.141L723.564 1943C602.866 1796.57 665.965 1331.06 1085.99 1228.78C1456.14 1138.66 1697.06 1241 1772.63 1381.97C1805.06 1480 1782.83 1552.74 1776.39 1668.08Z" fill="#FFF4C5"/>
<path d="M1067.99 1987.48C1042.75 1987.48 1017.51 1987.03 992.717 1987.03C743.468 1982.98 565.884 1924.83 464.021 1814.41C392.356 1736.43 359.904 1632.77 368.017 1506.11C371.623 1415.97 386.046 1317.26 410.385 1212.69C418.047 1179.34 428.414 1148.69 438.78 1118.94C449.147 1088.29 459.063 1059.45 465.824 1028.35C474.387 990.939 475.74 948.571 475.74 916.119C468.077 672.278 559.123 457.284 725.89 325.223C882.291 201.274 1084.66 164.315 1296.05 221.557C1574.6 299.532 1719.28 537.963 1703.5 893.583V894.033V894.484C1700.35 1000.4 1726.49 1066.66 1763 1158.16C1766.16 1166.27 1769.31 1174.38 1772.92 1182.95C1831.51 1333.04 1843.23 1494.39 1806.27 1636.82C1762.55 1792.32 1653.02 1892.83 1470.93 1944.67C1344.28 1980.72 1204.56 1987.48 1067.99 1987.48ZM1105.4 224.712C971.533 224.712 847.134 266.629 744.37 348.21C585.265 473.961 498.276 680.842 505.487 915.217V915.668C505.487 949.923 504.135 994.094 494.67 1034.66C487.458 1067.56 476.641 1098.21 466.725 1128.41C456.809 1157.71 446.443 1187.45 439.231 1219.45C415.343 1322.22 401.371 1419.12 397.314 1507.92C389.652 1626.46 419.399 1722.91 485.655 1794.58C581.659 1898.69 752.032 1953.23 993.168 1957.74C1326.7 1961.79 1690.43 1940.61 1777.42 1629.16C1813.03 1493.04 1801.76 1338.44 1745.42 1194.21C1742.27 1185.65 1738.66 1177.54 1735.51 1169.42C1697.65 1074.32 1670.6 1005.81 1674.21 894.033V893.583V893.132C1682.77 695.716 1644.46 350.013 1288.39 250.403C1226.19 232.825 1164.89 224.712 1105.4 224.712Z" fill="#232323"/>
<path d="M119.49 472.392C239.699 405.406 343.929 400.44 425.65 422.553C499.736 442.601 554.561 484.699 585.607 521.384C588.13 520.029 590.634 518.948 593.109 518.213C599.616 516.279 608.891 516.14 615.542 523.701C620.92 529.813 621.357 537.728 621.081 542.857C620.769 548.662 619.296 555.05 617.194 561.443C609.15 585.905 588.694 619.847 561.393 642.957C495.824 784.432 378.189 834.679 277.939 848.988C227.588 856.175 181.391 854.371 147.804 850.599C130.994 848.711 117.242 846.318 107.588 844.268C102.78 843.247 98.8805 842.289 96.0693 841.491C94.709 841.104 93.3655 840.689 92.2238 840.261C91.7281 840.075 90.8073 839.717 89.826 839.19C89.4127 838.969 88.3182 838.369 87.1414 837.356C86.558 836.854 85.4596 835.834 84.4508 834.264C83.461 832.723 81.9046 829.609 82.272 825.433C82.4387 823.537 82.9904 821.694 83.8932 820.019C135.843 723.604 201.166 673.144 268.794 644.977C302.123 631.095 335.982 622.684 368.592 616.729C276.185 607.473 216.335 583.938 177.813 559.202C152.715 543.086 136.888 526.593 127.138 513.562C122.272 507.059 118.951 501.462 116.757 497.263C114.718 493.363 113.246 489.733 113.587 490.475C110.529 483.831 113.1 475.952 119.49 472.392Z" fill="#E82117" stroke="#232323" stroke-width="28" stroke-linejoin="round"/>
<path d="M598.517 492.544C748.544 420.668 1092.34 309.03 1566.19 439.205C1567.9 439.515 1569.21 440.061 1569.92 440.397C1571.84 441.312 1573.17 442.46 1573.79 443.019C1575.12 444.235 1576.21 445.593 1576.91 446.522C1578.45 448.557 1580.19 451.258 1582.01 454.26C1585.71 460.385 1590.54 469.136 1596.05 479.713C1607.09 500.925 1621.2 530.145 1635.03 561.838C1648.85 593.506 1662.49 627.88 1672.52 659.349C1682.4 690.333 1689.33 720.16 1688.49 742.025C1688.02 754.266 1684.29 764.938 1677.46 773.639C1670.72 782.222 1661.62 788.047 1651.69 791.872C1632.2 799.374 1607.48 799.966 1583.17 797.226C1558.52 794.446 1532.65 788.045 1509.91 780.13C1487.36 772.283 1466.87 762.601 1453.46 752.784C1429.99 735.601 1400.68 710.764 1338.11 707.121C1274.47 703.416 1175.19 721.699 1013.33 796.918C1013.32 796.924 1013.31 796.929 1013.3 796.935C880.259 858.283 766.757 876.014 679.204 870.91C592.27 865.843 529.485 838.096 499.865 806.59C497.521 804.096 496.171 800.83 496.071 797.409C495.229 768.562 505.319 714.581 522.172 658.348C539.113 601.821 563.618 540.553 592.983 497.305C594.374 495.256 596.284 493.614 598.517 492.544Z" fill="#E82117" stroke="#232323" stroke-width="28" stroke-linejoin="round"/>
<path d="M1664.06 789C1692.56 729.5 1560.56 446.882 1514.56 426.291L1590.06 451L1621.56 505L1664.06 643L1692.56 753.5C1690.23 760.167 1681.26 776.6 1664.06 789Z" fill="white"/>
<path d="M598.13 494.99C745.577 424.819 1091.1 316.073 1552.58 434.849C1572.12 439.879 1591.09 451.832 1600.94 471.909L1602.29 474.678C1616.48 503.952 1637.99 553.772 1655.93 604.061C1665.2 630.029 1673.59 656.333 1679.53 680.133C1685.4 703.654 1689.15 725.794 1688.49 743.016C1688.02 755.217 1684.27 765.852 1677.43 774.515C1670.68 783.055 1661.57 788.84 1651.65 792.637C1632.17 800.085 1607.46 800.675 1583.15 797.952C1558.49 795.191 1532.62 788.832 1509.87 780.968C1487.32 773.171 1466.83 763.552 1453.42 753.798C1429.94 736.727 1400.6 712.032 1337.98 708.41C1274.3 704.727 1174.96 722.903 1013.04 797.653C1013.03 797.659 1013.02 797.664 1013 797.67C879.921 858.632 766.388 876.247 678.819 871.177C591.873 866.142 529.076 838.578 499.44 807.264C497.078 804.767 495.715 801.489 495.614 798.053C494.77 769.355 504.872 715.689 521.732 659.804C538.682 603.622 563.202 542.722 592.588 499.731C593.984 497.689 595.896 496.053 598.13 494.99Z" stroke="#232323" stroke-width="28" stroke-linejoin="round"/>
<path d="M1019.23 594.623C1031.47 593.548 1044.2 596.299 1055.59 602.441C1061.31 605.524 1066.66 609.556 1071.23 613.581C1073.88 615.803 1076.26 618.119 1078.31 620.969C1078.86 621.612 1079.41 622.255 1079.96 622.898C1080.53 623.563 1081.1 624.23 1081.67 624.895C1082.35 625.7 1082.91 626.338 1083.42 627.39C1084.1 628.183 1084.56 628.774 1085.34 630.102C1087.19 632.846 1087.95 636.228 1087.8 639.428C1087.65 642.636 1086.57 645.901 1084.46 648.338C1081.76 651.559 1077.88 652.409 1074.44 651.34L1074.44 651.341L1070.67 650.214C1070.32 650.156 1070.03 650.047 1069.83 649.951C1069.53 649.809 1069.28 649.637 1069.14 649.542C1068.79 649.298 1068.69 649.207 1068.45 649.065L1068.23 648.942L1068.05 648.779L1066.63 647.53C1066.22 647.21 1065.84 646.996 1065.25 646.622C1064.8 646.334 1064.22 645.945 1063.67 645.394C1062.64 644.788 1061.69 644.186 1060.77 643.605C1059.76 642.958 1058.78 642.341 1057.73 641.73L1057.69 641.705L1057.64 641.678C1053.76 639.209 1049.52 637.179 1045.6 635.563C1037.45 632.364 1029.51 630.573 1021.43 630.971C1017.4 631.169 1013.39 631.796 1009.4 632.854C1008.71 633.157 1008.06 633.327 1007.62 633.446C1007.06 633.595 1006.77 633.682 1006.5 633.815C1005.72 634.196 1004.96 634.392 1004.46 634.526C1003.9 634.676 1003.61 634.763 1003.34 634.896C1002.17 635.47 1001.01 635.908 999.972 636.301C998.905 636.706 997.962 637.065 997.039 637.518C988.87 641.534 980.718 646.926 972.554 653.276L971.932 653.761L971.568 653.779C969.329 655.347 966.674 655.691 964.217 654.821C961.601 653.894 959.479 651.698 958.24 648.762C956.278 645.219 956.529 640.154 958.968 636.576C965.724 625.37 974.389 615.954 984.592 608.353C987.133 606.279 990.123 604.623 992.372 603.229C993.907 602.142 995.451 601.531 996.748 601.038C998.305 599.975 999.861 599.386 1001.15 598.898C1007.03 596.189 1012.96 594.937 1019.23 594.623Z" fill="#232323" stroke="#232323" stroke-width="5"/>
<path d="M1457.34 576.395C1469.61 575.803 1482.23 579.053 1493.37 585.639C1498.96 588.945 1504.14 593.184 1508.56 597.386C1511.11 599.71 1513.4 602.118 1515.34 605.048C1515.86 605.712 1516.39 606.376 1516.91 607.039C1517.45 607.727 1517.99 608.415 1518.54 609.102C1519.19 609.933 1519.72 610.593 1520.19 611.664C1520.83 612.484 1521.28 613.093 1522 614.449C1523.74 617.265 1524.37 620.674 1524.09 623.866C1523.82 627.066 1522.61 630.285 1520.4 632.637C1517.58 635.749 1513.67 636.446 1510.28 635.243L1510.28 635.244L1506.55 633.969C1506.2 633.897 1505.92 633.776 1505.72 633.672C1505.43 633.519 1505.18 633.338 1505.05 633.237C1504.71 632.98 1504.61 632.884 1504.37 632.733L1504.17 632.602L1503.99 632.431L1502.62 631.127C1502.22 630.792 1501.85 630.563 1501.28 630.166C1500.84 629.86 1500.27 629.449 1499.75 628.876C1498.74 628.231 1497.81 627.591 1496.92 626.975C1495.93 626.289 1494.98 625.633 1493.96 624.982L1493.91 624.955L1493.87 624.926C1490.09 622.306 1485.93 620.111 1482.08 618.342C1474.06 614.824 1466.2 612.722 1458.11 612.801C1454.08 612.841 1450.04 613.31 1446.01 614.209C1445.31 614.484 1444.66 614.629 1444.21 614.73C1443.65 614.858 1443.35 614.933 1443.07 615.055C1442.28 615.405 1441.52 615.572 1441.01 615.686C1440.45 615.813 1440.15 615.888 1439.87 616.01C1438.68 616.538 1437.51 616.931 1436.46 617.282C1435.37 617.645 1434.42 617.966 1433.48 618.383C1425.16 622.074 1416.8 627.14 1408.39 633.164L1407.75 633.624L1407.39 633.628C1405.09 635.107 1402.42 635.346 1400 634.38C1397.42 633.35 1395.39 631.073 1394.27 628.09C1392.44 624.472 1392.89 619.421 1395.47 615.942C1402.66 605.011 1411.69 595.943 1422.19 588.751C1424.81 586.778 1427.86 585.241 1430.16 583.936C1431.74 582.911 1433.31 582.361 1434.62 581.92C1436.22 580.919 1437.8 580.391 1439.1 579.955C1445.08 577.479 1451.06 576.462 1457.34 576.395Z" fill="#232323" stroke="#232323" stroke-width="5"/>
<path d="M784.25 1389.32C712.18 1478.7 648.931 1541.28 594.333 1582.1C258.344 1831.84 242.885 1254.65 490.254 1000.15L557.523 1089.13L784.25 1389.32Z" fill="#F4D93B"/>
<path d="M594.409 1582.08C258.42 1831.83 242.961 1254.64 490.33 1000.13L557.599 1089.11C504.096 1233.63 390.289 1594.27 593.231 1574.05C593.165 1573.61 593.623 1576.73 594.409 1582.08Z" fill="#EC2F2F" fill-opacity="0.14"/>
<path d="M502.536 1023.69C470.964 1057.76 444.091 1096.49 421.659 1138.13C410.879 1158.89 400.601 1180.03 392.26 1202.21C383.42 1224.03 375.953 1246.08 369.487 1268.89C356.492 1314.05 348.119 1360.33 345.177 1407.14C343.706 1430.55 343.545 1453.77 345.567 1476.66C347.588 1499.56 351.421 1522.63 358.49 1543.45C365.622 1564.7 375.247 1584.7 389.533 1599.99C403.756 1614.85 422.14 1624.64 442.556 1627C452.982 1628.15 463.152 1627.55 474.067 1625.94C484.917 1623.91 495.203 1621.06 506.17 1616.77C527.295 1608.77 547.535 1597.77 567.082 1585.09C606.175 1559.73 642.125 1528.14 676.509 1494.99C710.893 1461.85 743.146 1426.34 774.898 1390.47C777.57 1387.4 781.563 1387.26 784.194 1389.99C786.762 1392.29 787.338 1396.22 785.039 1398.79C756.419 1437.78 725.36 1475.34 692.67 1510.91C676.075 1528.51 659.043 1546.17 640.446 1562.28C621.848 1578.39 603.25 1594.5 583.022 1608.62C562.794 1622.73 541.001 1635.3 517.076 1645.5C505.3 1650.35 492.458 1654.02 479.925 1656.75C466.891 1659.11 453.229 1660.22 439.683 1659.09C432.878 1658.3 426.008 1657.08 419.075 1655.42C412.142 1653.76 405.517 1651.17 399.265 1648.07C386.323 1641.94 375.245 1633.31 365.72 1623.11C360.958 1618.01 356.632 1612.85 352.743 1607.62C348.79 1601.96 345.274 1596.23 342.258 1590.88C339.178 1585.08 336.098 1579.29 333.455 1573.44C330.811 1567.58 328.54 1561.22 326.334 1555.3C318.252 1530.62 313.727 1505.86 311.384 1480.79C309.042 1455.71 308.947 1430.75 310.662 1405.96C313.656 1356.47 322.955 1307.38 336.939 1259.84C343.714 1236.1 351.925 1213.04 361.511 1190.22C371.097 1167.41 381.684 1145.34 393.645 1123.51C417.632 1080.3 446.869 1039.44 482.306 1004.36C488.15 998.593 497.074 998.621 502.838 1004.47C507.972 1009.06 507.944 1017.99 502.536 1023.69Z" fill="#232323"/>
<path d="M879.58 1972.63C982.795 1995.62 1052.66 2022.66 1052.66 2022.66L1079.25 1989.76L1066.63 1972.63H879.58Z" fill="#232323"/>
<path d="M1143.22 2029.86C1301.88 1954.59 1599.35 1932.51 1599.35 1932.51L1561.49 1891.94L1463.24 1928.45L1291.06 1964.06L1122.04 1972.62L1143.22 2029.86Z" fill="#232323"/>
<path d="M404.818 1675.84C595.023 1691.16 710.064 1488 710.064 1488L605.84 1584.34L508.484 1616.79L439.564 1651L402.564 1642.48L404.818 1675.84Z" fill="#232323"/>
<path d="M1127.56 743.883C1239.81 664.625 1297.88 656.099 1422.44 725.818C1451.49 741.929 1444.51 770.336 1421.03 781.759C1364.88 809.115 1201.36 822.172 1135.1 804.453C1104.37 795.979 1096.94 765.535 1127.5 743.832L1127.56 743.883Z" fill="#FF814A"/>
<path d="M1119.35 732.24C1159.37 705.233 1204.06 678.454 1252.93 669.629C1302.88 660.343 1354.43 677.207 1398.4 698.138C1407.7 702.245 1416.61 707.097 1425.67 711.663C1431.97 714.818 1438.83 718.874 1443.91 724.325C1465.16 744.407 1457.26 778.684 1433.26 792.853C1424.2 798.461 1412.27 802.72 1402.18 806.243C1333.51 828.556 1185.76 843.443 1119 815.255C1082.04 795.881 1087.09 752.623 1119.35 732.295L1119.35 732.24ZM1135.79 755.532C1118.27 768.309 1118.44 785.05 1141.4 789.255L1151.93 791.23C1211.92 798.273 1276.13 793.852 1336.48 786.163C1358.97 782.881 1381.58 778.872 1403.21 771.891C1403.85 771.46 1414.48 767.733 1415.05 767.141C1420.35 764.67 1425.43 759.893 1426.53 754.177C1427.92 746.394 1418.99 739.608 1412.11 736.107C1403.65 731.388 1395.16 726.23 1386.52 721.967C1283.1 666.145 1224.82 689.006 1135.73 755.481L1135.79 755.532Z" fill="#232323"/>
<path d="M486.675 983.465C488.917 978.979 493.645 976.29 498.646 976.655C758.176 995.602 983.989 1121.13 1113.14 1179.21C1118.46 1181.61 1121.39 1187.39 1120.17 1193.1C1118.94 1198.8 1113.9 1202.88 1108.06 1202.88C1079.26 1202.88 1031.4 1195.62 986.492 1190.39C963.644 1187.72 941.242 1185.53 921.479 1184.83C901.461 1184.13 885.243 1185.01 874.269 1187.96C873.771 1188.09 873.265 1188.19 872.755 1188.26C616.602 1223.59 456.649 1307.93 359.899 1413.06C263.197 1518.15 228.291 1645.47 225.111 1769.49C221.928 1893.65 250.591 2013.87 280.38 2103.48C295.254 2148.22 310.359 2185.17 321.795 2210.97C327.512 2223.87 332.305 2233.96 335.686 2240.83C337.377 2244.27 338.707 2246.89 339.615 2248.63C340.072 2249.51 340.407 2250.14 340.618 2250.52C340.656 2250.59 340.687 2250.65 340.711 2250.69C342.922 2254.24 343.228 2258.73 341.36 2262.61C339.078 2267.35 334.049 2270.13 328.822 2269.54C164.529 2251.01 82.0427 2179.97 41.8291 2125.41C13.0321 2086.34 8.37088 2032.62 15.0732 1987.48C53.5397 1728.39 145.757 1518.03 228.808 1371.75C270.341 1298.61 309.608 1241.44 338.771 1202.17C353.353 1182.53 365.41 1167.37 373.958 1156.92C378.233 1151.7 381.624 1147.66 384.004 1144.85C384.366 1144.42 384.693 1144.03 384.994 1143.68C385.401 1107.79 401.064 1086.33 417.053 1073.63C425.132 1067.21 433.041 1063.22 438.196 1060.72C438.51 1060.57 438.802 1060.43 439.076 1060.3C443.34 1038.91 454.699 1021.11 465.047 1008.02C470.687 1000.88 476.237 994.882 480.411 990.383C482.559 988.067 484.203 986.299 485.449 984.859C486.914 983.167 486.956 982.902 486.675 983.465Z" fill="#E82117" stroke="#232323" stroke-width="24.7548" stroke-linejoin="round"/>
<path d="M1622.49 990.144C1654.09 979.398 1684.08 974.274 1706.33 982.06C1706.66 982.175 1706.98 982.304 1707.3 982.449C1713.09 985.111 1716.86 990.774 1719.11 995.267C1721.64 1000.31 1723.54 1006.44 1724.42 1012.89C1725.35 1019.66 1725.25 1027.53 1723.06 1035.18C1728.62 1035.28 1735.05 1035.74 1741.43 1037.14C1751.08 1039.25 1761.98 1043.8 1769.35 1053.89C1775.88 1062.84 1778.46 1074.52 1776.91 1088.9C1778.1 1089.76 1779.49 1090.75 1781.52 1092.25C1787.56 1096.7 1795.77 1103.08 1803.67 1111.17C1819.21 1127.08 1835.49 1151.71 1828.35 1182.69C1827.55 1186.14 1825.15 1189.01 1821.89 1190.39C1818.63 1191.78 1814.9 1191.52 1811.87 1189.69C1780.74 1170.99 1762.48 1161.26 1746.99 1156.49C1732.13 1151.91 1719.31 1151.75 1698.51 1153.96C1676.96 1156.25 1590.58 1160.58 1507.49 1166.75C1465.66 1169.86 1424.43 1173.44 1391.93 1177.49C1375.66 1179.52 1361.77 1181.64 1351.16 1183.83C1345.85 1184.93 1341.54 1186.02 1338.25 1187.06C1334.74 1188.17 1333.19 1189 1332.8 1189.27C1327.88 1192.72 1321.11 1191.6 1317.54 1186.77C1313.98 1181.93 1314.93 1175.14 1319.68 1171.46C1367.29 1134.57 1443.34 1080.85 1516.95 1039.52C1553.72 1018.87 1590.24 1001.11 1622.49 990.144Z" fill="#E82117" stroke="#232323" stroke-width="22.1312" stroke-linejoin="round"/>
<path d="M1335.1 1079.01L1118.82 1091.23C1113.59 1091.52 1108.84 1094.36 1106.09 1098.82L1069.68 1158C1065.5 1164.8 1066.96 1173.64 1073.12 1178.72L1212.35 1293.74C1233.85 1311.49 1265.71 1308.24 1283.17 1286.51L1388.51 1155.4C1393.2 1149.57 1393.22 1141.28 1388.57 1135.42L1348.52 1085.03C1345.29 1080.97 1340.28 1078.72 1335.1 1079.01Z" fill="#58BF43" stroke="#E82117" stroke-width="29" stroke-linejoin="round"/>
<path d="M1222.89 1196.15C1223.47 1195.96 1224.05 1195.96 1224.62 1195.96C1230.02 1195.58 1235.79 1195.38 1241.19 1195C1247.35 1194.62 1252.74 1194.42 1258.71 1194.04C1260.45 1193.85 1262.37 1193.46 1263.91 1192.89C1272.39 1190.01 1275.08 1181.75 1272.77 1172.91C1269.31 1159.85 1258.71 1148.91 1245.42 1146.03C1227.7 1141.99 1208.25 1150.06 1200.36 1166.58C1197.47 1172.53 1196.12 1180.21 1196.7 1187.32C1198.04 1208.64 1215.38 1224.19 1236.76 1224C1245.23 1224 1253.71 1222.27 1260.64 1217.66C1265.65 1214.4 1271.23 1210.17 1269.69 1203.45C1268.34 1198.07 1263.53 1194.62 1258.14 1196.54C1256.4 1197.11 1254.86 1198.07 1253.32 1199.03C1251.2 1200.18 1249.08 1201.53 1246.77 1202.3C1240.8 1204.6 1231.17 1204.99 1225.39 1201.72C1224.24 1200.95 1222.12 1199.61 1221.73 1198.26C1221.35 1197.5 1221.93 1196.54 1222.89 1196.15ZM1221.54 1177.14C1220.77 1176.95 1220.19 1176.37 1220.19 1175.6C1220.19 1175.03 1220.39 1174.26 1220.58 1173.68C1223.08 1167.92 1229.05 1164.85 1235.6 1164.85C1241.38 1164.66 1247.35 1166.96 1250.43 1172.53C1250.62 1172.91 1250.82 1173.3 1250.82 1173.68C1250.82 1174.07 1250.82 1174.45 1250.62 1174.83C1250.24 1175.6 1249.47 1175.99 1248.51 1175.99C1241.76 1176.37 1229.82 1176.95 1222.7 1177.33C1222.31 1177.33 1221.93 1177.33 1221.54 1177.14Z" fill="white"/>
<path d="M1334.13 1055.2C1346.81 1054.48 1359.05 1059.97 1366.94 1069.91L1407.59 1121.06C1418.96 1135.36 1418.9 1155.63 1407.46 1169.87L1300.28 1303.26C1275.31 1334.34 1229.73 1339 1198.98 1313.6L1057.44 1196.69C1042.41 1184.27 1038.83 1162.67 1049.05 1146.06L1086 1086L1086.32 1085.49C1093.07 1074.89 1104.52 1068.16 1117.09 1067.45L1334.13 1055.2ZM1124.25 1114.79L1093.55 1164.69L1229.33 1276.85C1239.59 1285.33 1254.8 1283.77 1263.13 1273.4L1366.02 1145.35L1332.39 1103.04L1124.25 1114.79Z" fill="#E82117" stroke="#232323" stroke-width="20" stroke-linejoin="round"/>
<path d="M2783.84 437.57C2791.85 437.795 2798.77 443.354 2800.67 451.202C2801.36 454.05 2801.14 456.411 2801.13 456.612C2801.08 457.346 2801 457.926 2800.95 458.205C2800.86 458.792 2800.76 459.268 2800.71 459.476C2800.61 459.951 2800.49 460.398 2800.41 460.698C2800.24 461.349 2800.01 462.156 2799.76 463.031C2799.24 464.815 2798.5 467.321 2797.57 470.403C2795.7 476.586 2793.02 485.319 2789.78 495.757C2783.3 516.645 2774.55 544.472 2765.57 572.624C2756.59 600.766 2747.36 629.296 2739.91 651.563C2736.19 662.684 2732.88 672.336 2730.26 679.628C2728.95 683.262 2727.77 686.429 2726.76 688.946C2725.96 690.965 2724.75 693.93 2723.38 696.167C2722.13 698.215 2720.26 700.224 2719.78 700.754C2718.74 701.903 2717.39 703.336 2715.81 704.989C2712.62 708.318 2708.16 712.869 2702.6 718.474C2691.47 729.699 2675.72 745.379 2656.46 764.443C2617.92 802.582 2565.16 854.405 2506.82 911.535C2390.15 1025.8 2251.08 1161.37 2158.61 1251.36C2153.19 1256.63 2145.04 1257.91 2138.26 1254.55L2047.38 1209.51C2039.63 1205.67 2035.75 1196.82 2038.19 1188.52L2060.69 1111.74C2061.4 1109.31 2062.62 1107.07 2064.27 1105.15L2065.47 1103.75L2527.41 542.262L2527.74 541.865C2529.44 539.913 2531.55 538.353 2533.92 537.297C2570.66 520.951 2626.89 496.408 2676.22 475.896C2700.87 465.649 2723.94 456.347 2742.04 449.566C2751.08 446.183 2759.07 443.354 2765.49 441.339C2768.69 440.334 2771.7 439.471 2774.36 438.838C2776.7 438.278 2779.91 437.613 2783.07 437.565L2783.84 437.57Z" fill="white" stroke="#232323" stroke-width="33.1901" stroke-linejoin="round"/>
<path d="M2160.26 1122.99C2347.1 915.811 2673.67 525.385 2788.59 449.312L2732.9 686.891L2206.17 1205.57L2171.91 1153.32L2160.26 1122.99Z" fill="black" fill-opacity="0.08"/>
<path d="M2783.84 437.57C2791.85 437.795 2798.77 443.354 2800.67 451.202C2801.36 454.05 2801.14 456.411 2801.13 456.612C2801.08 457.346 2801 457.926 2800.95 458.205C2800.86 458.792 2800.76 459.268 2800.71 459.476C2800.61 459.951 2800.49 460.398 2800.41 460.698C2800.24 461.349 2800.01 462.156 2799.76 463.031C2799.24 464.815 2798.5 467.321 2797.57 470.403C2795.7 476.586 2793.02 485.319 2789.78 495.757C2783.3 516.645 2774.55 544.472 2765.57 572.624C2756.59 600.766 2747.36 629.296 2739.91 651.563C2736.19 662.684 2732.88 672.336 2730.26 679.628C2728.95 683.262 2727.77 686.429 2726.76 688.946C2725.96 690.965 2724.75 693.93 2723.38 696.167C2722.13 698.215 2720.26 700.224 2719.78 700.754C2718.74 701.903 2717.39 703.336 2715.81 704.989C2712.62 708.318 2708.16 712.869 2702.6 718.474C2691.47 729.699 2675.72 745.379 2656.46 764.443C2617.92 802.582 2565.16 854.405 2506.82 911.535C2390.15 1025.8 2251.08 1161.37 2158.61 1251.36C2153.19 1256.63 2145.04 1257.91 2138.26 1254.55L2047.38 1209.51C2039.63 1205.67 2035.75 1196.82 2038.19 1188.52L2060.69 1111.74C2061.4 1109.31 2062.62 1107.07 2064.27 1105.15L2065.47 1103.75L2527.41 542.262L2527.74 541.865C2529.44 539.913 2531.55 538.353 2533.92 537.297C2570.66 520.951 2626.89 496.408 2676.22 475.896C2700.87 465.649 2723.94 456.347 2742.04 449.566C2751.08 446.183 2759.07 443.354 2765.49 441.339C2768.69 440.334 2771.7 439.471 2774.36 438.838C2776.7 438.278 2779.91 437.613 2783.07 437.565L2783.84 437.57Z" stroke="#232323" stroke-width="33.1901" stroke-linejoin="round"/>
<path d="M2019.73 1180.29C2026.1 1173.51 2036.71 1172.76 2044 1178.71L2116.76 1238.22C2120.6 1241.37 2122.96 1245.97 2123.27 1250.93C2123.57 1255.88 2121.8 1260.74 2118.37 1264.34C2061.19 1324.25 1945.52 1445.67 1936.78 1455.58C1930.32 1462.9 1920.99 1471.58 1908.04 1475.2C1894.3 1479.03 1879.83 1476.31 1865.16 1467.41C1854.24 1461.07 1846.11 1453.23 1841.07 1443.9C1835.96 1434.45 1834.7 1424.74 1835.58 1415.92C1837.23 1399.16 1846.59 1385.2 1852.29 1378.04C1860.48 1367.75 1967.15 1242.11 2019.13 1180.97L2019.73 1180.29Z" fill="#FF6802" stroke="#232323" stroke-width="33.1901" stroke-linejoin="round"/>
<path d="M1886.69 1460.82C1877.2 1404.89 1980.12 1278.01 2032.76 1221.56L2012.37 1199.82L1996.31 1190.02L1954.59 1246.95L1891.75 1332.76L1847.12 1392.56L1835.87 1441.4C1846.83 1451.96 1872.34 1470.63 1886.69 1460.82Z" fill="black" fill-opacity="0.3"/>
<path d="M2019.73 1180.29C2026.1 1173.51 2036.71 1172.76 2044 1178.71L2116.76 1238.22C2120.6 1241.37 2122.96 1245.97 2123.27 1250.93C2123.57 1255.88 2121.8 1260.74 2118.37 1264.34C2061.19 1324.25 1945.52 1445.67 1936.78 1455.58C1930.32 1462.9 1920.99 1471.58 1908.04 1475.2C1894.3 1479.03 1879.83 1476.31 1865.16 1467.41C1854.24 1461.07 1846.11 1453.23 1841.07 1443.9C1835.96 1434.45 1834.7 1424.74 1835.58 1415.92C1837.23 1399.16 1846.59 1385.2 1852.29 1378.04C1860.48 1367.75 1967.15 1242.11 2019.13 1180.97L2019.73 1180.29Z" stroke="#232323" stroke-width="33.1901" stroke-linejoin="round"/>
<path d="M2012.56 1019.28C2021.3 1022.51 2028.77 1029.15 2034.55 1035.1C2040.68 1041.41 2046.83 1049.04 2052.63 1056.43C2063.58 1070.4 2073.16 1083.26 2082.14 1091.95C2157.04 1106.88 2190.11 1158.71 2200.9 1198.52C2207.41 1210.83 2222.75 1225.88 2239.46 1239.75C2247.73 1246.61 2255.66 1252.65 2261.88 1257.35C2264.92 1259.64 2267.72 1261.75 2269.82 1263.38C2270.86 1264.2 2271.92 1265.04 2272.84 1265.83C2273.02 1265.98 2273.38 1266.28 2273.83 1266.7C2279.9 1270.96 2284.68 1277.03 2286.47 1284.95C2288.34 1293.18 2286.37 1300.76 2283.88 1306.44C2279.07 1317.39 2269.53 1327.6 2261.1 1335.43C2252.21 1343.69 2242.45 1351.18 2235.08 1356.55C2231.35 1359.26 2228.16 1361.48 2225.92 1363.03C2224.75 1363.84 2223.98 1364.37 2223.41 1364.77C2223.36 1364.8 2223.31 1364.84 2223.27 1364.86C2220.23 1367.26 2216.43 1368.65 2212.44 1368.69C2206.29 1368.76 2200.55 1365.67 2197.23 1360.5C2171.06 1319.76 2149.96 1298.77 2136.34 1288.31C2129.52 1283.07 2124.71 1280.56 2122.18 1279.49C2122.05 1279.44 2121.92 1279.39 2121.81 1279.35C2071.34 1280.2 2042.18 1257.01 2026.44 1231.9C2012.72 1210 2009.43 1186.07 2009.32 1183.83C2002.06 1162.39 1986.36 1147.58 1971.06 1137.6C1963.36 1132.58 1956.07 1128.99 1950.59 1126.55C1947.84 1125.33 1945.61 1124.42 1943.82 1123.68C1943.03 1123.36 1942 1122.93 1941.14 1122.53C1940.77 1122.36 1939.9 1121.96 1938.95 1121.39C1938.51 1121.13 1937.5 1120.51 1936.36 1119.55C1936.03 1119.26 1931.97 1116.06 1930.53 1110.08C1930.28 1109.07 1930.13 1108.04 1930.06 1107C1927.68 1068.78 1946.05 1045.7 1965.43 1033.06C1983.62 1021.21 2003.14 1018.45 2002.19 1018.68C2005.63 1017.85 2009.24 1018.06 2012.56 1019.28ZM2227.12 1360.67C2227.01 1360.85 2226.88 1361.02 2226.76 1361.2C2226.88 1361.03 2227 1360.86 2227.12 1360.67Z" fill="#58BF43" stroke="#232323" stroke-width="33.1901" stroke-linejoin="round"/>
<path d="M2074.74 1109.08C2006.05 1063.43 1959.05 1094.54 1953.22 1116.13L1943.17 1119.28L1935.37 1116.84L1941.33 1093.78L1931.49 1047.16L1995.77 1017.92L2023.66 1014.06L2054.95 1054.05L2081.87 1087.9L2157.25 1116.51C2153.76 1120.96 2096.38 1100.24 2074.74 1109.08Z" fill="black" fill-opacity="0.3"/>
<path d="M2012.56 1019.28C2021.3 1022.51 2028.77 1029.15 2034.55 1035.1C2040.68 1041.41 2046.83 1049.04 2052.63 1056.43C2063.58 1070.4 2073.16 1083.26 2082.14 1091.95C2157.04 1106.88 2190.11 1158.71 2200.9 1198.52C2207.41 1210.83 2222.75 1225.88 2239.46 1239.75C2247.73 1246.61 2255.66 1252.65 2261.88 1257.35C2264.92 1259.64 2267.72 1261.75 2269.82 1263.38C2270.86 1264.2 2271.92 1265.04 2272.84 1265.83C2273.02 1265.98 2273.38 1266.28 2273.83 1266.7C2279.9 1270.96 2284.68 1277.03 2286.47 1284.95C2288.34 1293.18 2286.37 1300.76 2283.88 1306.44C2279.07 1317.39 2269.53 1327.6 2261.1 1335.43C2252.21 1343.69 2242.45 1351.18 2235.08 1356.55C2231.35 1359.26 2228.16 1361.48 2225.92 1363.03C2224.75 1363.84 2223.98 1364.37 2223.41 1364.77C2223.36 1364.8 2223.31 1364.84 2223.27 1364.86C2220.23 1367.26 2216.43 1368.65 2212.44 1368.69C2206.29 1368.76 2200.55 1365.67 2197.23 1360.5C2171.06 1319.76 2149.96 1298.77 2136.34 1288.31C2129.52 1283.07 2124.71 1280.56 2122.18 1279.49C2122.05 1279.44 2121.92 1279.39 2121.81 1279.35C2071.34 1280.2 2042.18 1257.01 2026.44 1231.9C2012.72 1210 2009.43 1186.07 2009.32 1183.83C2002.06 1162.39 1986.36 1147.58 1971.06 1137.6C1963.36 1132.58 1956.07 1128.99 1950.59 1126.55C1947.84 1125.33 1945.61 1124.42 1943.82 1123.68C1943.03 1123.36 1942 1122.93 1941.14 1122.53C1940.77 1122.36 1939.9 1121.96 1938.95 1121.39C1938.51 1121.13 1937.5 1120.51 1936.36 1119.55C1936.03 1119.26 1931.97 1116.06 1930.53 1110.08C1930.28 1109.07 1930.13 1108.04 1930.06 1107C1927.68 1068.78 1946.05 1045.7 1965.43 1033.06C1983.62 1021.21 2003.14 1018.45 2002.19 1018.68C2005.63 1017.85 2009.24 1018.06 2012.56 1019.28ZM2227.12 1360.67C2227.01 1360.85 2226.88 1361.02 2226.76 1361.2C2226.88 1361.03 2227 1360.86 2227.12 1360.67Z" stroke="#232323" stroke-width="33.1901" stroke-linejoin="round"/>
<path d="M2071.67 1223.02C2098.34 1245.74 2133.82 1247.89 2150.91 1227.83C2167.99 1207.77 2160.22 1173.08 2133.55 1150.36C2106.87 1127.65 2071.4 1125.49 2054.31 1145.56C2037.22 1165.62 2044.99 1200.3 2071.67 1223.02Z" fill="#F4D93B"/>
<path d="M2089.56 1439L2033.06 1367.5L2001.56 1399.5L1919.06 1472.5L1842.06 1462L1860.06 1525L1940.06 1598L2047.56 1563L2072.06 1495L2089.56 1439Z" fill="#232323"/>
<path d="M1949.56 1580.62C1917.68 1577.71 1852.25 1491 1823.52 1448L1819.54 1481.31L1812.56 1558.82L1819.54 1593.34L1902.74 1600C1913.86 1597.98 1938.8 1591.28 1949.56 1580.62Z" fill="#232323"/>
</svg>
