<svg width="3130" height="2278" viewBox="0 0 3130 2278" fill="none" xmlns="http://www.w3.org/2000/svg">
<path d="M1913.87 84.7538C2039.39 -77.2854 2244.75 12.9017 2098.6 188.139C2254.95 224.443 2389.52 292.778 2480.09 432.383C2526.17 503.412 2580.57 652.981 2585.41 737.03C2588.39 820.959 2593.04 910.596 2591.12 993.953C2628.45 1019.86 2611.52 1019.73 2634.12 1049.82C2668.51 1095.62 2744.59 1150.3 2729.71 1215.01C2748.85 1256.67 2867.36 1363.36 2907.02 1432.97C2935.47 1482.91 2921.87 1551.05 2958.58 1591.95C3024.32 1661.9 3133.65 1799.37 3129.24 1901.13C3128.68 1914.15 3126.43 1922.59 3116.86 1931.47C3062.09 1934.72 3019.19 1891.48 2958.7 1905.61C2938.21 1910.39 2918.68 1927.74 2902.62 1940.97C2765.15 2054.17 2731.78 2122.75 2533.14 2109.94C2461.23 2170.87 2357.83 2176.91 2267.23 2169.52C2205.67 2164.49 2125.19 2150.6 2083.7 2101.33C2073.39 2089.09 2073.9 2066.43 2064.24 2058.59C2050.25 2068.89 2047.7 2099.72 2026.01 2117.38C1949.62 2179.58 1808.2 2181.52 1714.35 2167.16C1647.11 2156.87 1596.11 2130.47 1553.35 2077.06C1502.39 2073.81 1456.63 2088.51 1417.97 2122.57C1400.98 2137.54 1378.71 2167.5 1356.9 2171.87C1342.12 2163.26 1332.07 2150.88 1318.11 2141.99C1278.39 2116.7 1226.62 2112.03 1180.69 2110.2C1198.3 2145.59 1246.85 2234 1236.89 2270.57C1220.18 2281.38 1197.96 2276.32 1179.66 2272.33C1084.58 2251.61 973.114 2200.62 919.922 2116.36C876.144 2047.01 886.501 1967.62 904.029 1891.8C918.213 1830.44 937.167 1768.93 957.268 1709.27L993.393 1711.21L1005.56 1692.51C1010.5 1686.11 1010.99 1672.99 1012.23 1664.98L1000.65 1645.01C1019.79 1635.05 1006.17 1616.99 1022.57 1596.87L1027.98 1549.4C1029.43 1540.1 1024.99 1514.77 1020.39 1506.16C993.221 1482.89 923.858 1500.64 887.938 1497.52C925.053 1492.67 976.542 1491.25 1014.19 1489.52C1011.98 1448.81 988.791 1393.3 1024.9 1365.29C1059.08 1338.78 1107.28 1353.23 1146.17 1358.12C1177.87 1334.51 1351.05 1054.46 1383.86 1003.24C1372.09 923.584 1364.11 842.596 1377.37 762.966L1375.14 765.115C1285.02 851.103 1175.46 878.528 1052.74 874.832C1018.28 873.794 968.124 851.397 987.413 808.971C1023.84 728.853 1092.1 656.598 1170.84 617.239C1165.65 616.133 1160.48 614.985 1155.3 613.8C1064.3 592.902 1014.62 567.585 964.57 487.87C1077.94 371.119 1303.05 351.515 1435.42 451.824C1448.05 460.97 1454.34 468.848 1468.18 469.708C1571.56 329.956 1600.36 294.533 1767.26 217.885C1770.39 170.585 1778.35 106.386 1817.28 73.5472C1830.62 62.4979 1847.82 57.2247 1865.06 58.8863C1884.14 60.7681 1899.9 72.546 1913.87 84.7538Z" fill="#110402"/>
<path d="M2354.24 1225.68L2356.77 1225L2415.21 1230.08C2483.5 1242.27 2586.33 1195.82 2644.11 1245.69C2659.97 1269.89 2681.94 1313.49 2686.16 1342.1C2731.77 1468.37 2748.92 1630.01 2690.83 1755.13C2684.37 1769.05 2672.77 1794.47 2660.07 1803.42C2659.18 1803.71 2658.29 1803.99 2657.41 1804.3C2642.35 1809.6 2630.75 1821.8 2619.18 1832.35C2562.06 1884.39 2507 1918.35 2436.76 1951.5C2282.4 2024.36 2028.38 1998.82 1853.93 2017.48C1784.37 2019.98 1715.96 1995.3 1649.21 1980.32C1652.81 1975.88 1654.95 1970.09 1657.34 1964.93L1648.26 1949.64C1638.81 1932.13 1631.55 1912.51 1626.22 1893.38C1592.42 1771.98 1611.35 1633.47 1673.55 1524.03C1744.87 1398.55 1847.07 1310.55 1987.23 1272.12C1931.11 1258.82 1864.82 1247.2 1807.22 1251.87C1763.14 1255.44 1712.34 1271.9 1669.01 1264.6C1770.67 1227.47 1858.86 1243.41 1962.68 1250.24C2007.56 1288.93 2098.04 1386.77 2160.52 1380.77C2184.97 1378.42 2201.09 1362.66 2216.09 1345.07C2245.06 1308.18 2269.7 1262.6 2306.52 1233.14C2320.36 1222.08 2337.5 1224.78 2354.24 1225.68Z" fill="#F8DE73"/>
<path d="M2415.19 1230.08C2483.49 1242.27 2586.32 1195.82 2644.1 1245.69C2659.96 1269.89 2681.93 1313.49 2686.15 1342.1C2676.49 1380.42 2700.08 1454.71 2707.06 1494.51C2651.82 1381.41 2592.83 1306.36 2468.86 1266.66C2440.23 1257.49 2403.65 1254.12 2378.03 1238.75C2386.97 1229.89 2403.25 1230.96 2415.19 1230.08Z" fill="#F2D641"/>
<path d="M2216.09 1345.07C2245.06 1308.18 2269.7 1262.6 2306.52 1233.14C2320.36 1222.08 2337.5 1224.78 2354.24 1225.68C2340.42 1237.98 2325.12 1232.34 2313.3 1243.34C2278.54 1275.71 2274.17 1326 2226.12 1348.26L2216.09 1345.07Z" fill="#FAE38D"/>
<path d="M1405.51 787.779C1407.5 759.338 1411.56 731.081 1417.63 703.227C1428.72 650.088 1459.73 526.695 1506.6 496.026C1533.3 478.556 1595.34 459.099 1628.51 447.657C1888.8 357.826 2154.84 382.357 2418.92 440.759C2417.32 457.453 2460.81 517.847 2471.98 543.133C2494.42 593.966 2537.31 688.729 2544.86 742.581L2548.86 746.481L2551.91 754.883C2461.95 833.853 2325.7 714.68 2258.35 683.854C2229.67 670.488 2198.57 663.118 2166.94 662.206C2096.17 660.298 2027.7 714.512 1966.81 745.375C1801.16 829.345 1573.59 913.783 1405.51 787.779Z" fill="#D6351A"/>
<path d="M1885.14 590.91C1900.11 590.396 1915.43 588.855 1929.51 594.977C1944.84 601.639 1956.29 613.36 1962.37 628.89C1964.13 633.377 1961.32 636.653 1959.47 640.93C1944.12 641.968 1935.29 632.979 1922.62 624.891C1894 626.338 1866.78 647.703 1840.77 644.416L1841.07 635.773C1853.88 617.186 1867.29 604.611 1885.14 590.91Z" fill="#260300"/>
<path d="M2314.75 575.284C2330.77 572.931 2348.84 572.061 2363.81 578.927C2377.86 585.364 2387.85 596.392 2393 610.87C2394.65 615.482 2391.57 619.094 2389.59 623.423C2374.16 622.506 2369.2 616.646 2357.25 607.594C2331.22 607.316 2308.26 618.916 2281.92 620.394L2276.62 614.874C2284.28 597.871 2300.7 586.863 2314.75 575.284Z" fill="#260300"/>
<path d="M1913.87 84.7537C2039.39 -77.2854 2244.76 12.9017 2098.61 188.139C2254.96 224.443 2389.53 292.778 2480.1 432.383C2526.17 503.412 2580.58 652.981 2585.42 737.03C2575.09 744.499 2564.33 754.186 2551.92 754.883L2548.87 746.481L2544.87 742.581C2537.32 688.729 2494.43 593.966 2471.99 543.133C2460.82 517.847 2417.33 457.453 2418.93 440.759L2428.09 440.371C2430.25 425.401 2426.9 423.802 2420.77 408.738C2169.04 352.605 1980.54 332.472 1722.82 384.888C1695.45 392.137 1542.82 443.07 1531.67 443.479L1539.66 453.045C1522.08 477.219 1489.66 498.338 1458.83 490.397C1444.97 477.796 1440.83 470.112 1435.42 451.824C1448.05 460.97 1454.34 468.848 1468.19 469.708C1571.57 329.956 1600.36 294.533 1767.26 217.885C1770.4 170.585 1778.35 106.386 1817.28 73.5472C1830.62 62.4979 1847.82 57.2247 1865.07 58.8863C1884.14 60.7681 1899.91 72.546 1913.87 84.7537Z" fill="#060605"/>
<path d="M1685.65 299.828C1712.51 277.456 1766.74 254.278 1800.15 243.208C2010.08 173.646 2265.03 230.303 2413.95 397.091C2416.63 400.1 2419.13 405.063 2420.77 408.738C2169.05 352.605 1980.54 332.472 1722.83 384.888C1695.46 392.138 1542.82 443.07 1531.68 443.479C1544.92 401.52 1645.75 318.776 1685.65 299.828Z" fill="#F2D641"/>
<path d="M1531.68 443.48C1544.92 401.521 1645.75 318.777 1685.65 299.828C1678.85 313.299 1584.79 391.687 1557.66 421.91C1587.9 410.405 1697.42 368.551 1722.83 384.889C1695.46 392.138 1542.82 443.071 1531.68 443.48Z" fill="#FAE38D"/>
<path d="M2428.09 440.371C2484.9 468.199 2558.65 687.345 2548.87 746.481L2544.87 742.582C2537.32 688.729 2494.42 593.966 2471.98 543.133C2460.82 517.847 2417.33 457.454 2418.92 440.759L2428.09 440.371Z" fill="#F6DBD3"/>
<path d="M1925.7 156.176C1960.54 68.002 1987.26 30.6765 2089.48 36.4894C2141.02 71.4038 2110.98 125.01 2076.06 159.463C2071.55 166.109 2054.55 178.244 2047.37 183.805C1951.73 177.159 1890.81 181.509 1799.49 207.895C1807.66 168.51 1809.5 132.102 1838.5 104.143C1882.59 87.9096 1901.03 124.811 1925.7 156.176Z" fill="#F2D641"/>
<path d="M2076.06 159.462C2074.99 116.622 2116.28 109.305 2080.93 43.3443L2089.48 36.4883C2141.02 71.4026 2110.99 125.009 2076.06 159.462Z" fill="#FDF8DD"/>
<path d="M1669.01 1264.6C1712.34 1271.9 1763.14 1255.44 1807.21 1251.87C1864.81 1247.2 1931.1 1258.82 1987.23 1272.12C1847.07 1310.55 1744.87 1398.55 1673.55 1524.03C1611.35 1633.47 1592.42 1771.98 1626.22 1893.38C1631.55 1912.51 1638.81 1932.13 1648.26 1949.65C1614.83 1937.88 1586.19 1895.3 1568.77 1866.17C1519.17 1783.25 1484.4 1664.58 1508.52 1569.57L1512.8 1546.66C1544.53 1522.74 1612.08 1464.22 1618.44 1424.47L1612.6 1417.89C1566.09 1436.95 1536.97 1497.01 1487.38 1511.57L1482.05 1503.02C1477.19 1498.27 1472.2 1493.64 1466.85 1489.44C1418.87 1451.79 1318.75 1475.31 1261.79 1481.76C1293.01 1451.04 1326.69 1414.66 1366.15 1394.97C1366.94 1392.9 1367.46 1391.3 1369.05 1389.68C1417.56 1340.07 1602.51 1268.29 1669.01 1264.6Z" fill="#F2D641"/>
<path d="M1005.57 1692.51C1014.71 1695.8 1022.88 1696.38 1027.41 1705.62C1049.17 1749.99 1001.53 1791.47 1071.41 1817.98C1079.34 1820.95 1087.37 1823.69 1095.46 1826.19C1103.32 1863.42 1103.22 1901 1109.78 1938.34C1128.62 2045.53 1160.15 2142.78 1200.37 2243.74C1107 2220.94 998.007 2183.64 945.093 2096.91C906.326 2033.37 921.805 1957.96 938.651 1889.94C953.412 1830.34 970.672 1768.28 993.4 1711.21L1005.57 1692.51Z" fill="#D6351A"/>
<path d="M1512.81 1546.66L1508.52 1569.57C1484.4 1664.58 1519.17 1783.25 1568.77 1866.17C1586.19 1895.3 1614.83 1937.88 1648.26 1949.65L1657.34 1964.93C1654.95 1970.09 1652.81 1975.89 1649.21 1980.32C1609.82 1964.78 1570.46 1948.14 1534.49 1925.64C1428.36 1859.27 1368.56 1762.56 1340.99 1642.43L1358.75 1635.15C1383.2 1627.31 1409.36 1622.26 1434.32 1616C1481.8 1607.19 1476.54 1564.64 1512.81 1546.66Z" fill="#EBB848"/>
<path d="M1512.8 1546.66L1508.51 1569.57C1490.9 1598.56 1471.84 1626.61 1436.7 1635.25C1412.11 1641.3 1383.75 1637.21 1358.74 1635.15C1383.19 1627.31 1409.36 1622.26 1434.31 1616C1481.79 1607.19 1476.53 1564.64 1512.8 1546.66Z" fill="#EBB848"/>
<path d="M2693.25 1244.68L2694.47 1233.02C2700.67 1223.05 2719.01 1218.98 2729.71 1215.01C2748.85 1256.67 2867.37 1363.36 2907.02 1432.97C2935.48 1482.91 2921.87 1551.05 2958.59 1591.95C2950.35 1593.47 2942.21 1591.81 2933.99 1590.71C2916.64 1575.57 2902.2 1567.69 2898.11 1544.09C2850.84 1555.41 2802.23 1530.94 2759.03 1514.6C2754.93 1480.25 2749.21 1446.45 2743.01 1412.43C2736.49 1382.24 2686.55 1262.72 2693.25 1244.68Z" fill="#F2D641"/>
<path d="M2693.24 1244.68L2694.46 1233.02C2700.67 1223.05 2719.01 1218.98 2729.71 1215.01C2748.85 1256.67 2867.36 1363.36 2907.02 1432.97C2935.47 1482.91 2921.87 1551.05 2958.58 1591.95C2950.34 1593.47 2942.21 1591.81 2933.99 1590.71C2916.63 1575.57 2902.2 1567.69 2898.11 1544.09C2895.21 1480.38 2854.11 1425.79 2819.1 1375.1C2780.62 1327.64 2739.23 1284.9 2693.24 1244.68Z" fill="#060605"/>
<path d="M1027.98 1549.4C1034.54 1534.05 1043.53 1516.19 1045.5 1499.55C1049.41 1466.51 1022.92 1404.21 1065.09 1388.36C1079.54 1382.92 1103.13 1384.26 1118.73 1383.72C1116.76 1416.55 1114.97 1448.88 1116.53 1481.78C1154.8 1538.37 1167.53 1569.35 1154.62 1638.52L1134.04 1665.76C1124.84 1702.49 1137.03 1745.06 1145.2 1781.18C1122.2 1784.49 1096.18 1790.86 1074.64 1779.94C1050.25 1750.69 1060.03 1713.44 1062.66 1677.62C1044.79 1651.27 1031.97 1627.46 1022.56 1596.87L1027.98 1549.4Z" fill="#6CAA4F"/>
<path d="M1069.78 1529.46C1081.11 1521.51 1087.91 1517.66 1101.94 1518.12C1113.55 1523.68 1119.66 1528.6 1127.1 1539.11C1132.89 1548.64 1136.24 1559.67 1138.52 1570.54C1142.45 1589.3 1144.87 1613.18 1133.5 1629.7C1126.94 1639.21 1116.55 1644.85 1105.26 1646.67C1090.88 1648.99 1075.52 1643.99 1064.27 1634.98C1051.77 1624.97 1044.62 1611.56 1043.51 1595.57C1041.89 1572.33 1054.52 1546.22 1069.78 1529.46Z" fill="#F2D641"/>
<path d="M1185.16 1522.02C1253.03 1517.63 1356.14 1493.47 1420.08 1507.46C1437.92 1511.37 1446.03 1518.85 1455.4 1533.75C1456.74 1546.23 1456 1553.86 1450.6 1565.33C1436.07 1596.2 1348.84 1590.97 1317.95 1602.37L1316.21 1603.02C1282.53 1597.95 1236.2 1613.64 1204.07 1623.29C1187.96 1604.41 1195.86 1549.31 1185.16 1522.02Z" fill="#DE7331"/>
<path d="M1853.93 2017.48C2028.38 1998.82 2282.39 2024.36 2436.76 1951.5C2506.99 1918.35 2562.06 1884.39 2619.18 1832.35C2630.75 1821.8 2642.35 1809.61 2657.41 1804.3C2658.29 1803.99 2659.18 1803.71 2660.06 1803.42C2618.22 1890.4 2514.66 1942.15 2427.38 1972.72C2306.92 2014.9 1973.29 2046.66 1853.93 2017.48Z" fill="#FAE38D"/>
<path d="M1204.08 1623.29C1236.21 1613.64 1282.54 1597.95 1316.21 1603.02C1357.71 1607.35 1397.22 1593.68 1434.32 1616C1409.37 1622.26 1383.2 1627.31 1358.75 1635.15L1340.99 1642.43C1325.91 1651.61 1324.68 1652.27 1307.19 1650.38C1273.21 1654.27 1239.51 1653.35 1205.63 1656.16L1203.93 1667.49C1180.47 1678.32 1158.75 1664.83 1134.05 1665.76L1154.63 1638.52C1171.89 1629.39 1186.04 1628.4 1204.08 1623.29Z" fill="#060605"/>
<path d="M1307.19 1650.38C1314.01 1675.37 1352.92 1765.27 1349.9 1780.95C1313.27 1777.54 1242.5 1703.21 1218.92 1674.64C1214.1 1668.77 1209.66 1662.6 1205.63 1656.16C1239.51 1653.35 1273.21 1654.27 1307.19 1650.38Z" fill="#EBB848"/>
<path d="M2356.78 1225C2391.92 1219.83 2604.76 1198.78 2624.8 1213.19C2635.52 1220.9 2639.43 1233.89 2644.12 1245.69C2586.33 1195.82 2483.51 1242.27 2415.21 1230.08L2356.78 1225Z" fill="#F0CF4C"/>
<path d="M1532.84 877.579C1619.19 884.246 1698 881.673 1781.53 856.88C1818.72 845.836 1948.46 784.745 1971.09 785.557C1987.95 786.165 1995.88 807.692 2009.4 815.246C2025.67 824.324 2050.72 826.751 2068.95 828.234C2137.28 833.796 2209.66 828.8 2274.49 805.46C2294.23 798.352 2320.76 781.217 2341.05 779.461C2378.28 776.232 2429.72 810.544 2468.94 813.626C2492.69 815.492 2524.31 805.067 2548.13 801.298C2565.99 856.487 2557.6 937.512 2557.69 996.391C2463.31 1023.85 2377.39 1074.88 2298.57 1132.77C2283.64 1115.22 2268.98 1097.35 2253.7 1080.13C2186.98 1082.5 2063.48 1100.59 2004.08 1090.5C1980.32 1114.7 1964.8 1138.33 1947.26 1167.21C1817.99 1094.69 1668.72 1047.3 1525.52 1011.29C1488.74 1004.47 1453.06 998.388 1415.61 996.747C1410.12 941.17 1406.86 885.672 1403.97 829.922C1441.78 853.95 1490.09 865.481 1532.84 877.579Z" fill="#F2D641"/>
<path d="M1403.97 829.922C1441.78 853.949 1490.09 865.481 1532.84 877.578L1523.82 883.669C1523.43 907.796 1535.04 996.102 1525.52 1011.29C1488.74 1004.47 1453.06 998.387 1415.61 996.747C1410.12 941.17 1406.86 885.672 1403.97 829.922Z" fill="#EBB848"/>
<path d="M2764.39 1557.01C2813.54 1577.76 2851.5 1589.05 2904.99 1580.31C2998.27 1683.42 3067.51 1765.41 3098.96 1903.64C3066.7 1882.04 3037.64 1866.02 2997.91 1865.17C2920.47 1863.53 2861.04 1931.03 2809.98 1980.42C2808.95 1981.41 2807.91 1982.39 2806.85 1983.35C2733.34 2050.41 2658.35 2081.58 2559.16 2076.56C2557.88 2035.01 2554.83 2004.02 2534.56 1966.68C2563.61 1946.31 2592.62 1925.82 2619.15 1902.21C2725.38 1807.65 2756.34 1693.15 2764.39 1557.01Z" fill="#D6351A"/>
<path d="M1409.54 1027.35C1537.2 1020.1 1751.18 1102.45 1868.74 1157.52C1891.47 1168.16 1929.89 1183.95 1938.92 1208.95C1928.25 1228.86 1886.32 1216.1 1865.96 1213.26C1747.06 1196.7 1597.13 1245.08 1488.45 1289.46C1381.97 1338.55 1300.49 1394.94 1224.13 1484.13C1207.97 1485.2 1189.25 1488.65 1173.28 1486.75C1161.6 1485.35 1157.73 1479.81 1151.23 1471.1C1148.7 1448.8 1157.73 1427.09 1167.14 1407.3C1199.87 1338.54 1247.95 1278.22 1289.14 1214.58C1329.44 1152.34 1366.3 1087.65 1409.54 1027.35Z" fill="#D6351A"/>
<path d="M1192.11 420.925C1294.27 413.901 1370.9 438.317 1449.73 504.136C1406.39 589.307 1400.13 716.463 1325.42 769.896C1236.9 833.209 1121.35 850.915 1015.9 833.55L1040.89 784.913C1094.93 694.039 1169.89 649.239 1269.5 620.997C1293.31 614.251 1321.74 609.953 1342.45 596.514C1327.23 588.751 1304.21 592.31 1287.16 592.258C1177.14 591.927 1088.71 573.687 1005.43 498.087C1059.03 454.712 1124.97 432.111 1192.11 420.925Z" fill="#D6351A"/>
<path d="M1174.65 1684.68C1207.85 1703.83 1234.06 1744.56 1265.43 1768.65C1306.73 1800.35 1352.68 1825.75 1394.5 1856.63C1432.82 1884.92 1466.9 1918.98 1505.31 1947.11C1526.35 1962.51 1550.75 1969.95 1570.46 1987.51C1572.71 1997.8 1572.32 2005.93 1567.83 2015.66C1552.04 2049.84 1477.49 2051.39 1444.55 2063.71C1408.81 2081.92 1382.14 2102.65 1357.5 2134.37C1300.34 2088.8 1246.74 2078.93 1175.4 2077C1158.79 2028.26 1118.57 1879.68 1133.04 1832.71C1137.79 1817.24 1158.25 1813.33 1171.85 1806.32C1192.31 1776.65 1164.89 1725.75 1174.65 1684.68Z" fill="#9D200E"/>
<path d="M2164.8 1107.95L2241.53 1101.52C2265.37 1127.08 2285.86 1154.68 2306.65 1182.7C2274.66 1227.37 2215.55 1334.8 2160.51 1351.11C2138.42 1357.65 2122.62 1349.06 2103.99 1338.54C2072.94 1310.2 2040.19 1286.96 2007.33 1261.09C1988.29 1246.11 1969.48 1228.86 1966.95 1203.26C1963.7 1170.39 1993.58 1139.43 2012.75 1115.18C2063.37 1116 2114.15 1109.56 2164.8 1107.95Z" fill="#AF4936"/>
<path d="M2193.72 1128.5C2202.1 1127.27 2211.08 1126.1 2219.53 1127.23C2245.01 1130.63 2262.53 1160.04 2277.04 1179.1C2249.75 1216.94 2196.94 1318.22 2149.92 1326.54C2131.77 1329.75 2118.29 1318.14 2104.28 1308.29C2063.32 1275.01 2023.71 1239.89 1983.7 1205.47C1996.37 1183.35 2008.36 1160.78 2020.65 1138.45C2078.32 1134.79 2136.01 1131.48 2193.72 1128.5Z" fill="#110402"/>
<path d="M2167.35 1155.38C2189.1 1153.62 2209.31 1149.06 2229.02 1160.63C2233.49 1167.23 2238.01 1171.66 2238.25 1179.89C2239.5 1221.47 2183.92 1271.41 2157.58 1299.68C2145.15 1303.82 2142.75 1305.01 2130.25 1301.05L2124.08 1288.88C2083.74 1264.32 2046.25 1229.93 2010.62 1198.94L2041.79 1158.86L2167.35 1155.38Z" fill="#6CAA4F"/>
<path d="M2120.79 1183.44C2122.04 1183.48 2123.29 1183.53 2124.54 1183.59C2138.03 1184.18 2153.11 1184.07 2162.58 1195.31C2171.15 1205.48 2173.36 1215.32 2171.73 1228.43C2169.6 1245.51 2158.49 1254.18 2145.66 1263.66C2136.92 1261.76 2123.46 1256.9 2116.06 1251.68C2103.46 1242.8 2101.97 1234.9 2098.59 1220.94C2101.06 1203.1 2108.55 1195.4 2120.79 1183.44Z" fill="#FDF8DD"/>
<path d="M2498.42 1048.31C2520.42 1037.14 2552.23 1018.08 2577.57 1022.29C2596.38 1039.63 2588.49 1064.93 2603.38 1081.97C2610.14 1089.69 2626.4 1088.77 2634.62 1093.09C2656.13 1104.38 2708.56 1198.64 2718.27 1223.68C2697.18 1210.83 2674.45 1195.2 2650.16 1189.75C2576.8 1173.32 2495.45 1184.73 2421.14 1192.22C2395.83 1194.77 2364.26 1201.5 2339.17 1196.29C2326.56 1193.67 2324.51 1188.6 2320.25 1177.61C2324.1 1153.76 2326.99 1144.06 2347.23 1129.26C2395.84 1100.13 2445.38 1068.88 2498.42 1048.31Z" fill="#D6351A"/>
<path d="M2270.2 2047.41C2319.76 2032 2457.02 1992.93 2504.29 1999.89C2513.81 2006.88 2522.08 2013.68 2524.14 2025.93C2527.73 2047.19 2519.65 2068.44 2508.84 2086.29C2508.12 2087.14 2507.4 2087.99 2506.63 2088.79C2506.18 2089.25 2505.72 2089.7 2505.27 2090.16C2491.19 2104.49 2474.14 2112.62 2455.38 2119.29C2351.49 2156.26 2212.64 2139.12 2115.32 2092.37C2166.08 2073.02 2216.18 2055.06 2270.2 2047.41Z" fill="#F0854B"/>
<path d="M2115.32 2092.37C2166.08 2073.02 2216.18 2055.06 2270.2 2047.41C2269.51 2048.15 2268.85 2048.91 2268.14 2049.64C2246.95 2071.61 2192.47 2069.45 2177.11 2092.78C2270.34 2119.83 2348.91 2123.3 2444.11 2103.53C2465.15 2099.17 2487.93 2085.59 2508.84 2086.29C2508.12 2087.14 2507.4 2087.99 2506.63 2088.79C2506.18 2089.25 2505.72 2089.7 2505.27 2090.16C2491.19 2104.49 2474.14 2112.62 2455.38 2119.29C2351.49 2156.26 2212.64 2139.12 2115.32 2092.37Z" fill="#EA884B"/>
<path d="M1601.05 2002.36C1644.68 2013.23 1687.49 2026.34 1731.68 2035.04C1791.32 2046.78 1958.84 2053.29 1999.72 2090.04C1994.07 2102.35 1982.6 2105.24 1970.82 2111.32C1893.79 2146.23 1770.5 2145.74 1688.93 2128.05C1655.81 2120.86 1621.95 2107.03 1603.51 2076.9C1588.85 2052.94 1594.87 2027.7 1601.05 2002.36Z" fill="#F0854B"/>
<path d="M2057.5 729.378C2118.53 671.489 2279.22 687.062 2295.57 753.044C2284.38 774.587 2253.53 779.629 2230.33 780.127C2196.65 792.476 2026.33 809.318 2016.38 763.6C2024.24 746.712 2041.2 739.148 2057.5 729.378Z" fill="#F0854B"/>
<path d="M2230.33 780.126C2196.65 792.475 2026.33 809.317 2016.38 763.599C2024.24 746.711 2041.2 739.147 2057.5 729.377C2048.48 747.602 2038.99 756.293 2041.95 771.913C2088.22 776.855 2200.03 767.258 2230.33 780.126Z" fill="#EDA151"/>
<path d="M887.938 1497.52C923.859 1500.64 993.221 1482.88 1020.39 1506.16C1024.99 1514.77 1029.43 1540.1 1027.98 1549.4L1022.57 1596.87C1006.17 1616.99 1019.79 1635.05 1000.65 1645.01L1012.23 1664.98C1010.99 1672.99 1010.5 1686.11 1005.56 1692.51L993.394 1711.21L957.268 1709.26C921.232 1706.03 870.043 1721.79 833.394 1728.18C734.856 1745.35 335.289 1829.59 267.845 1816.52C233.507 1809.87 15.7023 1730.36 0 1707.12C0.325504 1696.55 6.89694 1689.37 13.9757 1682.25C40.2593 1655.8 211.665 1536.74 241.411 1527.43C299.022 1509.39 383.103 1516.44 444.555 1513.67C591.965 1507.02 740.376 1497.34 887.938 1497.52Z" fill="#DCDCDB"/>
<path d="M251.733 1558.18C337.57 1554.9 971.794 1519.05 995.444 1527.89L992.415 1534.27C991.87 1535.08 991.303 1535.87 990.774 1536.68C978.734 1555.21 986.754 1575.9 979.562 1595.16C766.271 1619.07 552.24 1636.72 338.88 1661.39C301.984 1665.65 124.965 1694.94 98.872 1688.18C93.1613 1686.7 82.7614 1679.29 77.7227 1675.69L251.733 1558.18Z" fill="#FEFEFE"/>
<path d="M887.938 1497.52C923.859 1500.64 993.221 1482.88 1020.39 1506.16C1024.99 1514.77 1029.43 1540.1 1027.98 1549.4L1022.57 1596.87C1006.17 1616.99 1019.79 1635.05 1000.65 1645.01C990.081 1607.12 989.751 1573.09 992.408 1534.27L995.438 1527.89C971.788 1519.05 337.563 1554.9 251.727 1558.18L77.7163 1675.69L43.5431 1698.2C120.299 1731.72 206.827 1752.85 280.377 1791.14C380.891 1770.28 483.485 1755.6 584.663 1738.09C727.062 1713.45 869.409 1686.9 1012.23 1664.98C1010.99 1672.99 1010.5 1686.11 1005.56 1692.51L993.394 1711.21L957.268 1709.26C921.232 1706.03 870.043 1721.79 833.394 1728.18C734.856 1745.35 335.289 1829.59 267.845 1816.52C233.507 1809.87 15.7023 1730.36 0 1707.12C0.325504 1696.55 6.89694 1689.37 13.9757 1682.25C40.2593 1655.8 211.665 1536.74 241.411 1527.43C299.022 1509.39 383.103 1516.44 444.555 1513.67C591.965 1507.02 740.376 1497.34 887.938 1497.52Z" fill="#060605"/>
</svg>
