<svg width="3155" height="2282" viewBox="0 0 3155 2282" fill="none" xmlns="http://www.w3.org/2000/svg">
<path d="M1705.23 1289.77C1708.78 1285.21 1715.25 1284.15 1720.07 1287.34C1799.3 1339.8 1917.43 1430.53 2014.63 1532.51C2063.23 1583.5 2106.88 1637.6 2137.79 1691.39C2168.64 1745.05 2187.35 1799.36 2184.66 1850.48C2184.58 1852.08 2184.14 1853.65 2183.39 1855.07C2182.32 1857.11 2180.54 1858.93 2178.13 1860.03C2175.9 1861.04 2173.85 1861.1 2172.54 1860.99C2170.21 1860.79 2168.51 1859.9 2168.04 1859.66C2166.8 1859 2165.79 1858.19 2165.35 1857.85C2164.28 1856.99 2162.89 1855.74 2161.57 1854.56C2158.73 1852.02 2154.8 1848.53 2149.76 1844.6C2139.64 1836.73 2125.21 1827.29 2107.12 1821.2C2071.85 1809.31 2020.17 1809.24 1956.2 1865.59C1890.38 1923.58 1839.34 1975.21 1770.73 2003.45C1701.35 2032.02 1615.18 2036.48 1478.62 2005.12C1477.07 2004.77 1475.61 2004.08 1474.35 2003.11C1431.5 1970.16 1417.36 1918.7 1420.92 1859.98C1424.46 1801.36 1445.66 1733.63 1475.79 1664.8C1536.13 1527 1633.75 1381.6 1705.23 1289.77Z" fill="#E82117" stroke="#232323" stroke-width="22.1312" stroke-linejoin="round"/>
<path d="M761.862 1100.09C763.378 1099.7 764.954 1099.6 766.506 1099.8C862.182 1112.11 1000.15 1130.92 1103.03 1147.32C1154.34 1155.5 1197.37 1163.15 1222.03 1169.16C1228.21 1170.66 1233.52 1172.13 1237.63 1173.55C1239.67 1174.25 1241.67 1175.04 1243.44 1175.92C1244.84 1176.61 1247.58 1178.06 1249.72 1180.61C1250.9 1182.02 1252.6 1184.6 1252.9 1188.24C1253.23 1192.24 1251.72 1195.57 1249.87 1197.8C1246.97 1201.3 1243 1202.5 1241.67 1202.89C1237.93 1204 1232.82 1204.55 1227.16 1204.89C1227.07 1204.89 1226.99 1204.9 1226.9 1204.9C1209.71 1205.56 1187.67 1216.86 1161.32 1239.82C1135.4 1262.42 1107.09 1294.73 1077.51 1333.9C1018.4 1412.2 955.406 1516.32 897.536 1620.69C839.714 1724.98 787.213 1829.15 749.072 1907.36C730.006 1946.46 714.536 1979.06 703.792 2001.92C698.42 2013.34 694.23 2022.34 691.358 2028.51C689.926 2031.59 688.811 2033.98 688.045 2035.61C687.665 2036.43 687.353 2037.09 687.125 2037.56C687.015 2037.79 686.897 2038.03 686.787 2038.25C686.739 2038.35 686.645 2038.53 686.532 2038.74C686.469 2038.85 686.31 2039.13 686.206 2039.3C685.999 2039.63 685.122 2040.81 684.385 2041.62C682.049 2043.96 678.876 2045.26 675.572 2045.24C586.281 2044.81 536.861 2069.5 510.068 2092.73C496.573 2104.42 488.506 2116.01 483.912 2124.45C481.609 2128.68 480.192 2132.09 479.407 2134.29C479.12 2135.09 478.933 2135.7 478.822 2136.08C478.685 2137.18 478.402 2138.26 477.964 2139.31C476.04 2143.92 471.536 2146.92 466.543 2146.92C462.696 2146.92 459.687 2145.2 457.739 2143.24V2143.24C430.018 2115.19 395.3 2100.57 362.661 2093.81C330.18 2087.09 300.522 2088.33 283.502 2091.39L227.39 2105.86C223.84 2106.77 220.066 2106.07 217.087 2103.93C214.107 2101.79 212.228 2098.44 211.956 2094.79L173.939 1583.78C173.769 1581.49 174.238 1579.21 175.292 1577.17L368.025 1204.96L368.182 1204.67C369.83 1201.69 372.64 1199.51 375.953 1198.66L761.862 1100.09Z" fill="#A7120B" stroke="#232323" stroke-width="24.7548" stroke-linejoin="round"/>
<path d="M1138.49 392.56C1095.16 392.412 1044.52 380.542 991.347 351.506L857.103 278.019C959.427 117.06 1086.63 129.728 1062.2 246.448C1062.2 246.448 1131.42 186.743 1228.24 247.681C1233.06 250.927 1237.51 253.821 1242.71 257.42C1318.07 312.614 1253.1 392.909 1138.49 392.56Z" fill="#F4D93B"/>
<path d="M1138.43 392.502C1131.41 384.135 1131.79 376.47 1146.32 370.845C1203.63 346.965 1287.17 307.349 1201.51 246.298L1228.18 247.623C1233 250.869 1237.44 253.763 1242.65 257.362C1318.01 312.557 1253.04 392.851 1138.43 392.502Z" fill="white"/>
<path d="M846.442 288.531C840.741 283.237 838.959 274.796 842.644 268.965C914.583 156.276 995.983 128.248 1041.5 149.552C1065.91 161.122 1079.88 185.202 1081.22 216.673C1116.31 202.38 1177.91 191.743 1251.06 245.491C1290.58 274.181 1302.06 313.84 1280.6 348.188C1246 404.266 1123.82 441.293 984.749 364.559C976.68 360.149 972.677 350.262 976.245 343.089C979.812 335.916 989.724 333.402 997.793 337.812C1117.42 403.891 1224.23 374.787 1251.72 329.38C1260.9 314.468 1265.23 291.965 1233.51 268.673C1142.48 202.01 1076.25 255.849 1073.67 258.394C1068.79 262.494 1060.81 263.1 1054.14 258.76C1047.86 254.772 1044.09 247.569 1045.61 240.963C1052.57 208.568 1046.64 184.553 1029.86 176.369C1001.44 162.93 933.465 188.619 871.089 286.749C866.819 293.887 856.79 295.059 848.663 289.978C848.342 290.296 847.202 289.237 846.442 288.531Z" fill="#232323"/>
<path d="M1485.35 1801.82C1648.96 1949.66 1639.95 2063.24 1435.32 2081.27C1230.69 2099.3 1083.76 2057.38 1131.09 1929.38C1178.41 1801.37 1485.35 1801.82 1485.35 1801.82Z" fill="#FF814A"/>
<path d="M1350.11 2100.23C1238.33 2100.23 1160.8 2077.25 1127 2033.08C1104.91 2003.78 1101.31 1967.27 1117.53 1924.45C1167.56 1788.79 1470.9 1786.98 1485.77 1786.98C1489.38 1786.98 1492.98 1788.34 1495.69 1790.59C1589.44 1875.32 1629.1 1950.14 1610.17 2006.94C1593.5 2056.97 1535.35 2087.16 1437.1 2095.73C1406 2098.88 1377.15 2100.23 1350.11 2100.23ZM1479.91 1816.73C1438.9 1817.63 1184.69 1827.1 1145.03 1934.82C1132.86 1968.17 1134.66 1994.32 1150.44 2015.05C1185.59 2060.57 1288.81 2079.5 1434.39 2066.43C1518.23 2058.77 1569.61 2035.33 1581.78 1997.92C1596.2 1954.2 1560.14 1890.2 1479.91 1816.73Z" fill="#232323"/>
<path d="M461.783 1411.92C203.069 1412.37 9.70942 1553.44 519.475 1837.85C961.183 2084.39 461.783 1411.92 461.783 1411.92Z" fill="#EFA33F"/>
<path d="M662.791 1907.26C628.987 1907.26 579.407 1888.78 512.25 1850.92C390.104 1782.86 300.861 1718.86 247.226 1660.26C197.196 1605.72 177.364 1556.15 188.632 1512.88C210.717 1427.24 344.581 1396.59 462.22 1396.59C467.178 1396.59 471.685 1398.84 474.389 1402.9C475.291 1403.8 549.209 1503.86 614.564 1611.58C737.611 1813.96 724.99 1868.04 704.708 1891.03C694.792 1901.85 680.82 1907.26 662.791 1907.26ZM454.107 1427.24C324.299 1429.04 231.901 1465.1 217.478 1520.99C206.21 1563.81 231.901 1660.26 526.673 1824.78C648.368 1892.38 675.862 1877.51 681.27 1871.2C688.933 1862.64 704.708 1819.37 587.971 1627.81C532.983 1536.31 471.234 1450.68 454.107 1427.24Z" fill="#232323"/>
<path d="M1686.34 1035.54C1865.56 1280.42 2103.11 1350.4 2080.17 1479.82C2057.24 1609.24 1581.85 1621.39 1443.79 1414.67C1306.17 1207.82 1686.34 1035.54 1686.34 1035.54Z" fill="#EFA33F"/>
<path d="M1406.62 1371.01C1396.83 1339.59 1396.75 1307.52 1405.95 1274.91C1447.61 1128.33 1671.03 1025.67 1680.52 1021.29C1686.71 1018.42 1694.37 1020.28 1698.53 1026.07C1778.35 1135.27 1870.97 1209.8 1944.92 1269.85C2040.2 1346.86 2108.96 1402.38 2094.99 1481.8C2087.13 1526.26 2037.71 1560.07 1956.11 1577C1871.94 1594.73 1765.66 1591.49 1672.16 1568.69C1594.55 1549.92 1489.72 1508.93 1432.12 1422.55C1420.33 1405.92 1412.12 1388.65 1406.62 1371.01ZM1681.73 1053.96C1637.24 1076.32 1467.37 1167.49 1434.15 1283.59C1421.9 1326.12 1429.24 1366.32 1456.39 1406.49C1550.13 1546.76 1802.96 1579.4 1949.68 1548.79C2016.67 1535 2060.25 1508.2 2065.71 1477.23C2076.92 1414.72 2013.91 1364.01 1926.21 1293.15C1852.53 1233.96 1761.74 1160.75 1681.73 1053.96Z" fill="#232323"/>
<path d="M716.02 1801.82C552.409 1949.66 561.423 2063.24 766.051 2081.27C970.678 2099.3 1117.61 2057.38 1070.29 1929.37C1022.96 1801.37 716.02 1801.82 716.02 1801.82Z" fill="#FF814A"/>
<path d="M851.716 2100.2C824.673 2100.2 795.827 2098.85 764.727 2096.14C666.92 2087.58 608.327 2057.38 591.65 2007.35C572.72 1950.11 611.932 1875.29 706.133 1791C708.837 1788.75 712.443 1787.4 716.049 1787.4C730.923 1787.4 1034.26 1789.2 1084.29 1924.87C1100.06 1967.69 1096.91 2004.2 1074.82 2033.49C1041.02 2077.21 963.044 2100.2 851.716 2100.2ZM721.458 1816.7C641.229 1890.16 605.172 1954.62 619.595 1997.89C632.215 2035.3 683.146 2059.18 766.981 2066.4C912.564 2079.47 1015.78 2060.54 1050.94 2015.01C1066.71 1994.28 1068.51 1967.69 1056.34 1934.78C1016.68 1826.61 762.924 1817.15 721.458 1816.7Z" fill="#232323"/>
<path d="M1794.03 1623.32C1793.13 1626.48 1792.68 1629.63 1791.78 1632.79C1697.13 1970.38 1285.62 1975.79 993.1 1971.73H992.198C931.351 1970.83 871.405 1966.32 814.163 1957.31H813.713C563.111 1918.54 364.343 1796.4 382.823 1506.58C386.879 1407.88 403.105 1309.17 424.74 1215.42C440.064 1149.61 466.206 1094.17 480.179 1030.62C488.292 994.565 490.095 954 490.545 914.787C485.587 761.091 520.293 624.072 584.295 512.743C720.413 275.213 988.592 153.068 1292.38 235.099C1601.12 321.187 1702.54 594.324 1689.01 892.702V893.603C1685.41 1011.69 1716.96 1080.65 1759.33 1187.92C1812.51 1325.39 1829.19 1479.99 1794.03 1623.32Z" fill="#F4D93B"/>
<path d="M1529.5 449.621C1646.69 616.388 1666.07 725.462 1681.4 855.721C1696.27 985.979 1688.61 784.507 1688.61 784.507L1675.08 668.671L1633.62 517.229L1597.56 459.537L1529.5 449.621Z" fill="white"/>
<path d="M813.713 1957.72C563.111 1918.96 364.343 1796.82 382.823 1507C386.879 1408.29 403.105 1309.59 424.74 1215.84C440.064 1150.03 466.206 1094.59 480.179 1031.04C488.292 994.983 490.095 954.418 490.545 915.205C485.587 761.509 500.563 583.5 586.063 505.5C611.881 481.947 721.563 457 721.563 457C649.448 637.289 624.86 1011.66 624.86 1011.66C624.86 1011.66 303.496 1539.45 558.153 1551.17C558.153 1551.17 553.196 1901.38 813.713 1957.72Z" fill="#EC2F2F" fill-opacity="0.14"/>
<path opacity="0.32" d="M1776.39 1668.08C1775.32 1671.23 1774.78 1674.39 1773.71 1677.54C1661.05 2015.02 1204.71 1968.56 856.563 1964.5H823.141L723.564 1943C602.866 1796.57 665.965 1331.06 1085.99 1228.78C1456.14 1138.66 1697.06 1241 1772.63 1381.97C1805.06 1480 1782.83 1552.73 1776.39 1668.08Z" fill="#FFF4C5"/>
<path d="M1067.99 1987.48C1042.75 1987.48 1017.51 1987.03 992.717 1987.03C743.468 1982.98 565.884 1924.83 464.021 1814.41C392.356 1736.43 359.904 1632.77 368.017 1506.11C371.623 1415.97 386.046 1317.26 410.385 1212.69C418.047 1179.34 428.414 1148.69 438.78 1118.94C449.147 1088.29 459.063 1059.45 465.824 1028.35C474.387 990.939 475.74 948.571 475.74 916.119C468.077 672.278 559.123 457.284 725.89 325.223C882.291 201.274 1084.66 164.315 1296.05 221.557C1574.6 299.532 1719.28 537.963 1703.51 893.583V894.033V894.484C1700.35 1000.4 1726.49 1066.66 1763 1158.16C1766.16 1166.27 1769.31 1174.38 1772.92 1182.95C1831.51 1333.04 1843.23 1494.39 1806.27 1636.82C1762.55 1792.32 1653.02 1892.83 1470.93 1944.67C1344.28 1980.72 1204.56 1987.48 1067.99 1987.48ZM1105.4 224.712C971.533 224.712 847.134 266.629 744.37 348.21C585.265 473.961 498.276 680.842 505.487 915.217V915.668C505.487 949.923 504.135 994.094 494.67 1034.66C487.458 1067.56 476.641 1098.21 466.725 1128.41C456.809 1157.71 446.443 1187.45 439.231 1219.45C415.343 1322.22 401.371 1419.12 397.314 1507.92C389.652 1626.46 419.399 1722.91 485.655 1794.58C581.659 1898.69 752.032 1953.23 993.168 1957.74C1326.7 1961.79 1690.43 1940.61 1777.42 1629.16C1813.03 1493.04 1801.76 1338.44 1745.42 1194.21C1742.27 1185.65 1738.66 1177.54 1735.51 1169.42C1697.65 1074.32 1670.6 1005.81 1674.21 894.033V893.583V893.132C1682.77 695.716 1644.46 350.013 1288.39 250.403C1226.19 232.825 1164.89 224.712 1105.4 224.712Z" fill="#232323"/>
<path d="M156.626 429.664C287.571 387.346 390.775 402.755 466.632 440.346C535.402 474.425 580.988 526.386 604.303 568.41C607.042 567.572 609.709 566.999 612.279 566.759C619.038 566.129 628.163 567.797 633.216 576.507C637.301 583.549 636.19 591.398 634.922 596.376C633.486 602.009 630.798 607.988 627.492 613.849C614.843 636.279 588.173 665.592 556.898 682.949C465.056 808.963 339.892 835.361 238.774 829.892C187.987 827.144 143.024 816.387 110.813 806.152C94.6918 801.029 81.6678 796.007 72.5971 792.118C68.0795 790.181 64.4412 788.482 61.839 787.152C60.5798 786.508 59.3427 785.84 58.3062 785.198C57.8562 784.919 57.0227 784.388 56.1625 783.681C55.8002 783.383 54.8434 782.582 53.8861 781.36C53.4114 780.754 52.5325 779.54 51.8486 777.803C51.1775 776.099 50.2566 772.742 51.4296 768.716C51.9621 766.889 52.8617 765.189 54.0733 763.721C123.79 679.257 197.682 642.471 269.498 628C304.891 620.869 339.739 619.206 372.885 619.71C284.044 592.651 229.918 557.921 196.945 526.163C175.461 505.471 163.146 486.214 156.118 471.535C152.611 464.21 150.442 458.073 149.106 453.528C147.865 449.306 147.127 445.459 147.318 446.253C145.611 439.141 149.666 431.913 156.626 429.664Z" fill="#E82117" stroke="#232323" stroke-width="28" stroke-linejoin="round"/>
<path d="M598.517 492.544C748.544 420.668 1092.34 309.03 1566.19 439.205C1567.9 439.515 1569.21 440.061 1569.92 440.397C1571.84 441.312 1573.17 442.46 1573.79 443.019C1575.12 444.235 1576.21 445.593 1576.91 446.522C1578.45 448.557 1580.19 451.258 1582.01 454.26C1585.71 460.385 1590.54 469.136 1596.05 479.713C1607.09 500.925 1621.2 530.145 1635.03 561.838C1648.85 593.506 1662.49 627.88 1672.52 659.349C1682.4 690.333 1689.33 720.16 1688.49 742.025C1688.02 754.266 1684.29 764.938 1677.46 773.639C1670.72 782.222 1661.62 788.047 1651.69 791.872C1632.2 799.374 1607.48 799.966 1583.17 797.226C1558.52 794.446 1532.65 788.045 1509.91 780.13C1487.36 772.283 1466.87 762.601 1453.46 752.784C1429.99 735.601 1400.68 710.764 1338.11 707.121C1274.47 703.416 1175.19 721.699 1013.33 796.918C1013.32 796.924 1013.31 796.929 1013.3 796.935C880.259 858.283 766.757 876.014 679.204 870.91C592.27 865.843 529.485 838.096 499.865 806.59C497.521 804.096 496.171 800.83 496.071 797.409C495.229 768.562 505.319 714.581 522.172 658.348C539.113 601.821 563.618 540.553 592.983 497.305C594.374 495.256 596.284 493.614 598.517 492.544Z" fill="#E82117" stroke="#232323" stroke-width="28" stroke-linejoin="round"/>
<path d="M1664.06 789C1692.56 729.5 1560.56 446.882 1514.56 426.291L1590.06 451L1621.56 505L1664.06 643L1692.56 753.5C1690.23 760.167 1681.26 776.6 1664.06 789Z" fill="white"/>
<path d="M598.13 494.99C745.577 424.819 1091.1 316.073 1552.58 434.849C1572.12 439.879 1591.09 451.832 1600.94 471.909L1602.29 474.678C1616.48 503.952 1637.99 553.772 1655.93 604.061C1665.2 630.029 1673.59 656.333 1679.53 680.133C1685.4 703.654 1689.15 725.794 1688.49 743.016C1688.02 755.217 1684.27 765.852 1677.43 774.515C1670.68 783.055 1661.57 788.84 1651.65 792.637C1632.17 800.085 1607.46 800.675 1583.15 797.952C1558.49 795.191 1532.62 788.832 1509.87 780.968C1487.32 773.171 1466.83 763.552 1453.42 753.798C1429.94 736.727 1400.6 712.032 1337.98 708.41C1274.3 704.727 1174.96 722.903 1013.04 797.653C1013.03 797.659 1013.02 797.664 1013 797.67C879.921 858.632 766.388 876.247 678.819 871.177C591.873 866.142 529.076 838.578 499.44 807.264C497.078 804.767 495.715 801.489 495.614 798.053C494.77 769.355 504.872 715.689 521.732 659.804C538.682 603.622 563.202 542.722 592.588 499.731C593.984 497.689 595.896 496.053 598.13 494.99Z" stroke="#232323" stroke-width="28" stroke-linejoin="round"/>
<path d="M1019.18 593.624C1031.61 592.538 1044.53 595.337 1056.07 601.561C1061.86 604.682 1067.26 608.753 1071.86 612.8C1074.54 615.047 1076.98 617.416 1079.1 620.347C1079.64 620.98 1080.18 621.615 1080.72 622.248C1081.29 622.914 1081.86 623.58 1082.43 624.245C1083.09 625.027 1083.7 625.726 1084.27 626.842C1084.92 627.611 1085.41 628.247 1086.17 629.557C1088.16 632.506 1088.96 636.103 1088.8 639.475C1088.64 642.878 1087.49 646.391 1085.18 649.035L1085.18 649.034C1082.2 652.549 1077.89 653.477 1074.1 652.283L1074.1 652.282L1070.46 651.192C1070.01 651.113 1069.65 650.972 1069.4 650.854C1069.02 650.674 1068.71 650.461 1068.57 650.36C1068.17 650.083 1068.14 650.042 1067.95 649.929L1067.65 649.756L1067.39 649.53L1066 648.305C1065.64 648.033 1065.33 647.857 1064.72 647.465C1064.27 647.184 1063.66 646.777 1063.05 646.191C1062.05 645.597 1061.12 645.008 1060.24 644.449C1059.22 643.8 1058.26 643.193 1057.23 642.595L1057.17 642.559L1057.11 642.521C1053.29 640.093 1049.1 638.089 1045.22 636.487C1037.16 633.325 1029.37 631.58 1021.48 631.969C1017.55 632.163 1013.63 632.772 1009.73 633.799C1008.99 634.12 1008.3 634.299 1007.88 634.411C1007.31 634.564 1007.11 634.629 1006.94 634.712C1006.06 635.143 1005.21 635.361 1004.72 635.492C1004.15 635.644 1003.95 635.709 1003.78 635.792C1002.56 636.391 1001.36 636.845 1000.33 637.236C999.252 637.643 998.354 637.986 997.48 638.415C989.39 642.392 981.297 647.743 973.169 654.065L972.296 654.744L971.899 654.763C969.453 656.371 966.564 656.713 963.883 655.763C960.971 654.731 958.675 652.322 957.345 649.208C955.221 645.334 955.507 639.909 958.117 636.048C964.94 624.734 973.691 615.227 983.991 607.553C986.589 605.44 989.657 603.733 991.836 602.383C993.42 601.269 995.007 600.631 996.281 600.146C997.903 599.058 999.509 598.451 1000.76 597.976C1006.76 595.217 1012.81 593.944 1019.18 593.624Z" fill="#232323" stroke="#232323" stroke-width="7"/>
<path d="M1457.33 575.395C1469.79 574.799 1482.59 578.104 1493.88 584.778C1499.54 588.125 1504.77 592.405 1509.21 596.631C1511.8 598.981 1514.15 601.445 1516.15 604.456C1516.67 605.111 1517.18 605.766 1517.7 606.421C1518.24 607.108 1518.78 607.795 1519.32 608.483C1519.96 609.291 1520.54 610.013 1521.06 611.15C1521.68 611.945 1522.14 612.599 1522.86 613.939C1524.73 616.963 1525.38 620.589 1525.09 623.952C1524.8 627.346 1523.51 630.811 1521.1 633.362L1521.1 633.361C1517.98 636.756 1513.64 637.514 1509.9 636.172L1509.9 636.171L1506.3 634.938C1505.86 634.841 1505.5 634.686 1505.26 634.558C1504.88 634.363 1504.59 634.138 1504.45 634.032C1504.06 633.739 1504.03 633.697 1503.84 633.577L1503.55 633.392L1503.3 633.156L1501.96 631.877C1501.61 631.591 1501.31 631.403 1500.71 630.988C1500.28 630.689 1499.68 630.258 1499.1 629.649C1498.12 629.015 1497.21 628.39 1496.35 627.797C1495.36 627.109 1494.43 626.465 1493.42 625.826L1493.36 625.788L1493.3 625.748C1489.58 623.171 1485.48 621.003 1481.66 619.25C1473.73 615.773 1466.02 613.723 1458.12 613.801C1454.18 613.84 1450.25 614.293 1446.3 615.166C1445.55 615.457 1444.85 615.609 1444.43 615.705C1443.86 615.835 1443.65 615.892 1443.48 615.968C1442.59 616.364 1441.72 616.549 1441.23 616.661C1440.66 616.791 1440.45 616.847 1440.28 616.924C1439.04 617.474 1437.82 617.88 1436.77 618.23C1435.68 618.594 1434.77 618.902 1433.88 619.297C1425.64 622.951 1417.34 627.98 1408.97 633.977L1408.08 634.621L1407.68 634.625C1405.17 636.135 1402.27 636.362 1399.63 635.308C1396.76 634.162 1394.56 631.664 1393.35 628.5C1391.38 624.546 1391.88 619.136 1394.64 615.381C1401.91 604.345 1411.03 595.189 1421.62 587.928C1424.3 585.918 1427.43 584.333 1429.66 583.07C1431.29 582.02 1432.9 581.445 1434.19 581.009C1435.86 579.987 1437.48 579.443 1438.75 579.018C1444.86 576.497 1450.95 575.463 1457.33 575.395Z" fill="#232323" stroke="#232323" stroke-width="7"/>
<path d="M840.149 1415.03C772.33 1507.68 712.071 1573.14 659.436 1616.46C335.471 1881.62 293.088 1305.78 528.308 1040L599.657 1125.75L840.149 1415.03Z" fill="#F4D93B"/>
<path d="M659.511 1616.44C335.545 1881.6 293.163 1305.76 528.383 1039.98L599.731 1125.73C553.032 1272.58 456.183 1638.14 657.959 1608.48C657.873 1608.03 658.476 1611.13 659.511 1616.44Z" fill="#EC2F2F" fill-opacity="0.14"/>
<path d="M541.674 1062.94C511.727 1098.45 486.69 1138.39 466.227 1181.04C456.428 1202.28 447.147 1223.87 439.852 1246.42C432.039 1268.62 425.609 1291 420.215 1314.08C409.342 1359.81 403.138 1406.42 402.385 1453.33C402.008 1476.78 402.931 1499.97 406.019 1522.75C409.107 1545.53 414.012 1568.4 422.045 1588.86C430.162 1609.76 440.709 1629.28 455.694 1643.9C470.595 1658.08 489.416 1667 509.92 1668.4C520.388 1669.06 530.518 1667.98 541.347 1665.87C552.09 1663.33 562.232 1660 572.987 1655.21C593.715 1646.23 613.42 1634.3 632.353 1620.72C670.221 1593.56 704.657 1560.33 737.456 1525.62C770.256 1490.9 800.816 1453.93 830.859 1416.61C833.385 1413.42 837.367 1413.09 840.123 1415.7C842.795 1417.88 843.555 1421.78 841.378 1424.45C814.609 1464.73 785.336 1503.7 754.343 1540.76C738.587 1559.11 722.398 1577.55 704.573 1594.51C686.747 1611.47 668.922 1628.43 649.375 1643.48C629.828 1658.52 608.644 1672.09 585.222 1683.4C573.685 1688.79 561.029 1693.06 548.637 1696.37C535.727 1699.33 522.132 1701.08 508.547 1700.58C501.713 1700.12 494.794 1699.22 487.791 1697.88C480.788 1696.55 474.049 1694.27 467.659 1691.47C454.446 1685.95 442.976 1677.84 432.986 1668.1C427.991 1663.23 423.429 1658.27 419.3 1653.23C415.087 1647.76 411.307 1642.2 408.045 1636.99C404.698 1631.35 401.351 1625.71 398.437 1619.98C395.523 1614.26 392.958 1608.01 390.478 1602.2C381.252 1577.93 375.577 1553.41 372.066 1528.46C368.556 1503.52 367.296 1478.59 367.853 1453.76C368.533 1404.17 375.53 1354.71 387.281 1306.56C392.939 1282.53 400.066 1259.12 408.576 1235.88C417.087 1212.64 426.633 1190.1 437.562 1167.74C459.505 1123.46 486.803 1081.27 520.564 1044.58C526.132 1038.55 535.048 1038.16 541.078 1043.73C546.422 1048.08 546.81 1057 541.674 1062.94Z" fill="#232323"/>
<path d="M879.58 1972.63C982.795 1995.62 1052.66 2022.66 1052.66 2022.66L1079.25 1989.76L1066.63 1972.63H879.58Z" fill="#232323"/>
<path d="M1143.22 2029.86C1301.88 1954.59 1599.35 1932.51 1599.35 1932.51L1561.49 1891.94L1463.24 1928.45L1291.06 1964.06L1122.04 1972.62L1143.22 2029.86Z" fill="#232323"/>
<path d="M513.805 1733.41C703.43 1712.09 782.906 1497.77 782.906 1497.77L693.622 1605.17L604.268 1655.64L522.354 1685.37L505.215 1701.11L513.805 1733.41Z" fill="#232323"/>
<path d="M443.064 1655L506.064 1695L571.064 1704C571.898 1707 570.264 1714.9 557.064 1722.5C504.664 1744.5 441.231 1728.33 416.064 1717.5L390.064 1665L385.564 1599L443.064 1655Z" fill="#232323"/>
<path d="M1127.56 743.883C1239.81 664.625 1297.88 656.099 1422.44 725.818C1451.49 741.929 1444.51 770.336 1421.03 781.759C1364.88 809.115 1201.36 822.172 1135.1 804.453C1104.37 795.979 1096.94 765.535 1127.5 743.832L1127.56 743.883Z" fill="#FF814A"/>
<path d="M1119.35 732.24C1159.37 705.233 1204.06 678.454 1252.93 669.629C1302.88 660.343 1354.43 677.207 1398.4 698.138C1407.7 702.245 1416.61 707.097 1425.67 711.663C1431.97 714.818 1438.83 718.874 1443.91 724.325C1465.16 744.407 1457.26 778.684 1433.26 792.853C1424.2 798.461 1412.27 802.72 1402.18 806.243C1333.51 828.556 1185.76 843.443 1119 815.255C1082.04 795.881 1087.09 752.623 1119.35 732.295L1119.35 732.24ZM1135.79 755.532C1118.27 768.309 1118.44 785.05 1141.4 789.255L1151.93 791.23C1211.92 798.273 1276.13 793.852 1336.48 786.163C1358.97 782.881 1381.58 778.872 1403.21 771.891C1403.85 771.46 1414.48 767.733 1415.05 767.141C1420.35 764.67 1425.43 759.893 1426.53 754.177C1427.92 746.394 1418.99 739.608 1412.11 736.107C1403.65 731.388 1395.16 726.23 1386.52 721.967C1283.1 666.145 1224.82 689.006 1135.73 755.481L1135.79 755.532Z" fill="#232323"/>
<path d="M486.675 983.465C488.917 978.979 493.645 976.29 498.646 976.655C758.176 995.602 983.989 1121.13 1113.14 1179.21C1118.46 1181.61 1121.39 1187.39 1120.17 1193.1C1118.94 1198.8 1113.9 1202.88 1108.06 1202.88C1079.26 1202.88 1031.4 1195.62 986.492 1190.39C963.644 1187.72 941.242 1185.53 921.479 1184.83C901.461 1184.13 885.243 1185.01 874.269 1187.96C873.771 1188.09 873.265 1188.19 872.755 1188.26C616.602 1223.59 456.649 1307.93 359.899 1413.06C263.197 1518.15 228.291 1645.47 225.111 1769.49C221.928 1893.65 250.591 2013.87 280.38 2103.48C295.254 2148.22 310.359 2185.17 321.795 2210.97C327.512 2223.87 332.305 2233.96 335.686 2240.83C337.377 2244.27 338.707 2246.89 339.615 2248.63C340.072 2249.51 340.407 2250.14 340.618 2250.52C340.656 2250.59 340.687 2250.65 340.711 2250.69C342.922 2254.24 343.228 2258.73 341.36 2262.61C339.078 2267.35 334.049 2270.13 328.822 2269.54C164.529 2251.01 82.0427 2179.97 41.8291 2125.41C13.0321 2086.34 8.37088 2032.62 15.0732 1987.48C53.5397 1728.39 145.757 1518.03 228.808 1371.75C270.341 1298.61 309.608 1241.44 338.771 1202.17C353.353 1182.53 365.41 1167.37 373.958 1156.92C378.233 1151.7 381.624 1147.66 384.004 1144.85C384.366 1144.42 384.693 1144.03 384.994 1143.68C385.401 1107.79 401.064 1086.33 417.053 1073.63C425.132 1067.21 433.041 1063.22 438.196 1060.72C438.51 1060.57 438.802 1060.43 439.076 1060.3C443.34 1038.91 454.699 1021.11 465.047 1008.02C470.687 1000.88 476.237 994.882 480.411 990.383C482.559 988.067 484.203 986.299 485.449 984.859C486.914 983.167 486.956 982.902 486.675 983.465Z" fill="#E82117" stroke="#232323" stroke-width="24.7548" stroke-linejoin="round"/>
<path d="M1622.49 990.144C1654.09 979.398 1684.08 974.274 1706.33 982.06C1706.66 982.175 1706.98 982.304 1707.3 982.449C1713.09 985.111 1716.86 990.774 1719.11 995.267C1721.64 1000.31 1723.54 1006.44 1724.42 1012.89C1725.35 1019.66 1725.25 1027.53 1723.06 1035.18C1728.62 1035.28 1735.05 1035.74 1741.43 1037.14C1751.08 1039.25 1761.98 1043.8 1769.35 1053.89C1775.88 1062.84 1778.46 1074.52 1776.91 1088.9C1778.1 1089.76 1779.49 1090.75 1781.52 1092.25C1787.56 1096.7 1795.77 1103.08 1803.67 1111.17C1819.21 1127.08 1835.49 1151.71 1828.35 1182.69C1827.55 1186.14 1825.15 1189.01 1821.89 1190.39C1818.63 1191.78 1814.9 1191.52 1811.87 1189.69C1780.74 1170.99 1762.48 1161.26 1746.99 1156.49C1732.13 1151.91 1719.31 1151.75 1698.51 1153.96C1676.96 1156.25 1590.58 1160.58 1507.49 1166.75C1465.66 1169.86 1424.43 1173.44 1391.93 1177.49C1375.66 1179.52 1361.77 1181.64 1351.16 1183.83C1345.85 1184.93 1341.54 1186.02 1338.25 1187.06C1334.74 1188.17 1333.19 1189 1332.8 1189.27C1327.88 1192.72 1321.11 1191.6 1317.54 1186.77C1313.98 1181.93 1314.93 1175.14 1319.68 1171.46C1367.29 1134.57 1443.34 1080.85 1516.95 1039.52C1553.72 1018.87 1590.24 1001.11 1622.49 990.144Z" fill="#E82117" stroke="#232323" stroke-width="22.1312" stroke-linejoin="round"/>
<path d="M1335.1 1079.01L1118.82 1091.22C1113.59 1091.52 1108.84 1094.36 1106.09 1098.82L1069.68 1158C1065.5 1164.8 1066.96 1173.64 1073.12 1178.72L1212.35 1293.74C1233.85 1311.49 1265.71 1308.24 1283.17 1286.5L1388.51 1155.4C1393.2 1149.57 1393.22 1141.28 1388.57 1135.42L1348.52 1085.03C1345.29 1080.97 1340.28 1078.72 1335.1 1079.01Z" fill="#58BF43" stroke="#E82117" stroke-width="29" stroke-linejoin="round"/>
<path d="M1222.89 1196.15C1223.47 1195.96 1224.05 1195.96 1224.62 1195.96C1230.02 1195.57 1235.79 1195.38 1241.19 1195C1247.35 1194.61 1252.74 1194.42 1258.71 1194.04C1260.45 1193.85 1262.37 1193.46 1263.91 1192.89C1272.39 1190.01 1275.08 1181.75 1272.77 1172.91C1269.31 1159.85 1258.71 1148.91 1245.42 1146.03C1227.7 1141.99 1208.25 1150.06 1200.36 1166.58C1197.47 1172.53 1196.12 1180.21 1196.7 1187.32C1198.04 1208.63 1215.38 1224.19 1236.76 1224C1245.23 1224 1253.71 1222.27 1260.64 1217.66C1265.65 1214.4 1271.23 1210.17 1269.69 1203.45C1268.34 1198.07 1263.53 1194.61 1258.14 1196.54C1256.4 1197.11 1254.86 1198.07 1253.32 1199.03C1251.2 1200.18 1249.08 1201.53 1246.77 1202.3C1240.8 1204.6 1231.17 1204.99 1225.39 1201.72C1224.24 1200.95 1222.12 1199.61 1221.73 1198.26C1221.35 1197.5 1221.93 1196.54 1222.89 1196.15ZM1221.54 1177.14C1220.77 1176.95 1220.19 1176.37 1220.19 1175.6C1220.19 1175.03 1220.39 1174.26 1220.58 1173.68C1223.08 1167.92 1229.05 1164.85 1235.6 1164.85C1241.38 1164.65 1247.35 1166.96 1250.43 1172.53C1250.62 1172.91 1250.82 1173.3 1250.82 1173.68C1250.82 1174.07 1250.82 1174.45 1250.62 1174.83C1250.24 1175.6 1249.47 1175.99 1248.51 1175.99C1241.76 1176.37 1229.82 1176.95 1222.7 1177.33C1222.31 1177.33 1221.93 1177.33 1221.54 1177.14Z" fill="white"/>
<path d="M1334.13 1055.2C1346.81 1054.48 1359.05 1059.97 1366.94 1069.91L1407.59 1121.06C1418.96 1135.36 1418.9 1155.63 1407.46 1169.87L1300.28 1303.25C1275.31 1334.34 1229.73 1339 1198.98 1313.6L1057.44 1196.69C1042.41 1184.27 1038.83 1162.67 1049.05 1146.06L1086 1086L1086.32 1085.49C1093.07 1074.89 1104.52 1068.16 1117.09 1067.45L1334.13 1055.2ZM1124.25 1114.79L1093.55 1164.69L1229.33 1276.85C1239.59 1285.33 1254.8 1283.77 1263.13 1273.4L1366.02 1145.35L1332.39 1103.03L1124.25 1114.79Z" fill="#E82117" stroke="#232323" stroke-width="20" stroke-linejoin="round"/>
<path d="M3130.06 1013.58C3136.8 1017.91 3139.86 1026.24 3137.43 1033.94C3136.55 1036.74 3135.15 1038.65 3135.03 1038.81C3134.61 1039.42 3134.24 1039.87 3134.06 1040.09C3133.68 1040.54 3133.34 1040.9 3133.2 1041.05C3132.86 1041.4 3132.53 1041.73 3132.31 1041.94C3131.82 1042.41 3131.21 1042.98 3130.55 1043.6C3129.18 1044.86 3127.25 1046.63 3124.86 1048.78C3120.07 1053.11 3113.26 1059.21 3105.1 1066.48C3088.77 1081.02 3066.91 1100.33 3044.68 1119.81C3022.47 1139.27 2999.83 1158.94 2981.95 1174.16C2973.02 1181.76 2965.21 1188.32 2959.19 1193.21C2956.2 1195.65 2953.55 1197.75 2951.39 1199.39C2949.66 1200.7 2947.09 1202.62 2944.77 1203.83C2942.64 1204.94 2940 1205.69 2939.31 1205.9C2937.83 1206.34 2935.93 1206.87 2933.72 1207.47C2929.27 1208.68 2923.1 1210.27 2915.45 1212.2C2900.13 1216.07 2878.54 1221.37 2852.2 1227.75C2799.5 1240.51 2727.56 1257.65 2648.11 1276.46C2489.19 1314.07 2300.09 1358.37 2174.44 1387.69C2167.08 1389.41 2159.43 1386.3 2155.37 1379.92L2100.79 1294.43C2096.14 1287.14 2097.39 1277.56 2103.75 1271.7L2162.67 1217.57C2164.54 1215.86 2166.74 1214.56 2169.14 1213.77L2170.89 1213.19L2856.4 970.837L2856.89 970.671C2859.35 969.878 2861.97 969.632 2864.54 969.951C2904.44 974.918 2965.27 982.932 3018.11 990.837C3044.5 994.785 3069.06 998.73 3088.07 1002.27C3097.55 1004.04 3105.86 1005.74 3112.4 1007.33C3115.66 1008.13 3118.68 1008.94 3121.28 1009.77C3123.58 1010.5 3126.67 1011.59 3129.4 1013.18L3130.06 1013.58Z" fill="white" stroke="#232323" stroke-width="33.1901" stroke-linejoin="round"/>
<path d="M2242.13 1278.61C2509.11 1197.65 2990.37 1031.9 3128.06 1026.09L2957.71 1200.8L2238.81 1373.03L2236.46 1310.6L2242.13 1278.61Z" fill="black" fill-opacity="0.08"/>
<path d="M3130.06 1013.58C3136.8 1017.91 3139.86 1026.24 3137.43 1033.94C3136.55 1036.74 3135.15 1038.65 3135.03 1038.81C3134.61 1039.42 3134.24 1039.87 3134.06 1040.09C3133.68 1040.54 3133.34 1040.9 3133.2 1041.05C3132.86 1041.4 3132.53 1041.73 3132.31 1041.94C3131.82 1042.41 3131.21 1042.98 3130.55 1043.6C3129.18 1044.86 3127.25 1046.63 3124.86 1048.78C3120.07 1053.11 3113.26 1059.21 3105.1 1066.48C3088.77 1081.02 3066.91 1100.33 3044.68 1119.81C3022.47 1139.27 2999.83 1158.94 2981.95 1174.16C2973.02 1181.76 2965.21 1188.32 2959.19 1193.21C2956.2 1195.65 2953.55 1197.75 2951.39 1199.39C2949.66 1200.7 2947.09 1202.62 2944.77 1203.83C2942.64 1204.94 2940 1205.69 2939.31 1205.9C2937.83 1206.34 2935.93 1206.87 2933.72 1207.47C2929.27 1208.68 2923.1 1210.27 2915.45 1212.2C2900.13 1216.07 2878.54 1221.37 2852.2 1227.75C2799.5 1240.51 2727.56 1257.65 2648.11 1276.46C2489.19 1314.07 2300.09 1358.37 2174.44 1387.69C2167.08 1389.41 2159.43 1386.3 2155.37 1379.92L2100.79 1294.43C2096.14 1287.14 2097.39 1277.56 2103.75 1271.7L2162.67 1217.57C2164.54 1215.86 2166.74 1214.56 2169.14 1213.77L2170.89 1213.19L2856.4 970.837L2856.89 970.671C2859.35 969.878 2861.97 969.632 2864.54 969.951C2904.44 974.918 2965.27 982.932 3018.11 990.837C3044.5 994.785 3069.06 998.73 3088.07 1002.27C3097.55 1004.04 3105.86 1005.74 3112.4 1007.33C3115.66 1008.13 3118.68 1008.94 3121.28 1009.77C3123.58 1010.5 3126.67 1011.59 3129.4 1013.18L3130.06 1013.58Z" stroke="#232323" stroke-width="33.1901" stroke-linejoin="round"/>
<path d="M2092.2 1255.13C2101.16 1252.61 2110.63 1257.44 2113.8 1266.31L2145.38 1354.84C2147.05 1359.52 2146.69 1364.68 2144.4 1369.08C2142.1 1373.48 2138.07 1376.73 2133.28 1378.03C2053.38 1399.82 1891.63 1444.08 1879.02 1448.05C1869.71 1450.99 1857.24 1453.61 1844.29 1450.02C1830.54 1446.21 1819.55 1436.4 1811.58 1421.21C1805.51 1410.14 1802.59 1399.23 1803.09 1388.64C1803.59 1377.91 1807.53 1368.94 1812.83 1361.84C1822.9 1348.34 1838.12 1341.22 1846.7 1338.03C1859.03 1333.44 2015.25 1280.92 2091.33 1255.39L2092.2 1255.13Z" fill="#FF6802" stroke="#232323" stroke-width="33.1901" stroke-linejoin="round"/>
<path d="M1833.42 1426.68C1854.17 1373.88 2007.82 1318.36 2082.06 1297.19L2075.82 1268.06L2067.12 1251.36L2002 1278.58L1903.87 1319.63L1834.78 1347.79L1799.93 1383.81C1803.86 1398.51 1816.07 1427.67 1833.42 1426.68Z" fill="black" fill-opacity="0.3"/>
<path d="M2092.2 1255.13C2101.16 1252.61 2110.63 1257.44 2113.8 1266.31L2145.38 1354.84C2147.05 1359.52 2146.69 1364.68 2144.4 1369.08C2142.1 1373.48 2138.07 1376.73 2133.28 1378.03C2053.38 1399.82 1891.63 1444.08 1879.02 1448.05C1869.71 1450.99 1857.24 1453.61 1844.29 1450.02C1830.54 1446.21 1819.55 1436.4 1811.58 1421.21C1805.51 1410.14 1802.59 1399.23 1803.09 1388.64C1803.59 1377.91 1807.53 1368.94 1812.83 1361.84C1822.9 1348.34 1838.12 1341.22 1846.7 1338.03C1859.03 1333.44 2015.25 1280.92 2091.33 1255.39L2092.2 1255.13Z" stroke="#232323" stroke-width="33.1901" stroke-linejoin="round"/>
<path d="M2169.19 1113.54C2175.01 1120.81 2177.98 1130.36 2179.86 1138.44C2181.85 1147.01 2183.18 1156.72 2184.33 1166.04C2186.49 1183.66 2188.06 1199.62 2191.26 1211.7C2247.69 1263.15 2249.25 1324.62 2237.94 1364.28C2237.17 1378.18 2242.53 1399 2249.68 1419.49C2253.22 1429.64 2256.89 1438.91 2259.79 1446.14C2261.21 1449.68 2262.52 1452.93 2263.47 1455.41C2263.95 1456.65 2264.42 1457.92 2264.8 1459.07C2264.87 1459.29 2265.02 1459.73 2265.2 1460.33C2268.19 1467.11 2269.15 1474.77 2266.6 1482.48C2263.96 1490.49 2258.35 1495.96 2253.28 1499.54C2243.51 1506.44 2230.07 1510.26 2218.81 1512.61C2206.93 1515.1 2194.7 1516.47 2185.61 1517.26C2181.03 1517.66 2177.15 1517.92 2174.43 1518.09C2173.01 1518.18 2172.08 1518.23 2171.38 1518.28C2171.32 1518.28 2171.26 1518.28 2171.22 1518.28C2167.37 1518.77 2163.4 1517.99 2159.96 1515.97C2154.66 1512.86 2151.34 1507.24 2151.17 1501.1C2149.79 1452.7 2142.55 1423.83 2136.29 1407.84C2133.16 1399.84 2130.33 1395.2 2128.72 1392.98C2128.63 1392.87 2128.55 1392.76 2128.48 1392.66C2084.81 1367.34 2071.81 1332.42 2071.3 1302.79C2070.86 1276.96 2080.4 1254.75 2081.45 1252.79C2086.31 1230.68 2080.51 1209.88 2072.56 1193.44C2068.56 1185.16 2064.16 1178.32 2060.73 1173.41C2059.01 1170.94 2057.57 1169.01 2056.42 1167.45C2055.91 1166.77 2055.25 1165.87 2054.72 1165.09C2054.49 1164.75 2053.95 1163.95 2053.43 1162.98C2053.19 1162.53 2052.64 1161.47 2052.17 1160.06C2052.03 1159.65 2050.21 1154.81 2052.06 1148.95C2052.37 1147.95 2052.77 1146.99 2053.25 1146.07C2070.94 1112.1 2098.6 1101.82 2121.72 1101.01C2143.41 1100.24 2161.55 1107.96 2160.62 1107.66C2163.99 1108.73 2166.98 1110.77 2169.19 1113.54ZM2176.68 1516.68C2176.49 1516.78 2176.29 1516.86 2176.09 1516.95C2176.28 1516.87 2176.48 1516.78 2176.68 1516.68Z" fill="#58BF43" stroke="#232323" stroke-width="33.1901" stroke-linejoin="round"/>
<path d="M2176.08 1222.54C2140.82 1147.98 2084.5 1150.36 2068.37 1165.84L2058.14 1163.35L2052.72 1157.23L2069.72 1140.56L2085.37 1095.55L2155.51 1103.7L2181.39 1114.79L2187.54 1165.2L2193.12 1208.08L2242.9 1271.51C2237.62 1273.52 2199.18 1226.15 2176.08 1222.54Z" fill="black" fill-opacity="0.3"/>
<path d="M2169.19 1113.54C2175.01 1120.81 2177.98 1130.36 2179.86 1138.44C2181.85 1147.01 2183.18 1156.72 2184.33 1166.04C2186.49 1183.66 2188.06 1199.62 2191.26 1211.7C2247.69 1263.15 2249.25 1324.62 2237.94 1364.28C2237.17 1378.18 2242.53 1399 2249.68 1419.49C2253.22 1429.64 2256.89 1438.91 2259.79 1446.14C2261.21 1449.68 2262.52 1452.93 2263.47 1455.41C2263.95 1456.65 2264.42 1457.92 2264.8 1459.07C2264.87 1459.29 2265.02 1459.73 2265.2 1460.33C2268.19 1467.11 2269.15 1474.77 2266.6 1482.48C2263.96 1490.49 2258.35 1495.96 2253.28 1499.54C2243.51 1506.44 2230.07 1510.26 2218.81 1512.61C2206.93 1515.1 2194.7 1516.47 2185.61 1517.26C2181.03 1517.66 2177.15 1517.92 2174.43 1518.09C2173.01 1518.18 2172.08 1518.23 2171.38 1518.28C2171.32 1518.28 2171.26 1518.28 2171.22 1518.28C2167.37 1518.77 2163.4 1517.99 2159.96 1515.97C2154.66 1512.86 2151.34 1507.24 2151.17 1501.1C2149.79 1452.7 2142.55 1423.83 2136.29 1407.84C2133.16 1399.84 2130.33 1395.2 2128.72 1392.98C2128.63 1392.87 2128.55 1392.76 2128.48 1392.66C2084.81 1367.34 2071.81 1332.42 2071.3 1302.79C2070.86 1276.96 2080.4 1254.75 2081.45 1252.79C2086.31 1230.68 2080.51 1209.88 2072.56 1193.44C2068.56 1185.16 2064.16 1178.32 2060.73 1173.41C2059.01 1170.94 2057.57 1169.01 2056.42 1167.45C2055.91 1166.77 2055.25 1165.87 2054.72 1165.09C2054.49 1164.75 2053.95 1163.95 2053.43 1162.98C2053.19 1162.53 2052.64 1161.47 2052.17 1160.06C2052.03 1159.65 2050.21 1154.81 2052.06 1148.95C2052.37 1147.95 2052.77 1146.99 2053.25 1146.07C2070.94 1112.1 2098.6 1101.82 2121.72 1101.01C2143.41 1100.24 2161.55 1107.96 2160.62 1107.66C2163.99 1108.73 2166.98 1110.77 2169.19 1113.54ZM2176.68 1516.68C2176.49 1516.78 2176.29 1516.86 2176.09 1516.95C2176.28 1516.87 2176.48 1516.78 2176.68 1516.68Z" stroke="#232323" stroke-width="33.1901" stroke-linejoin="round"/>
<path d="M2114.62 1318.54C2125.73 1351.77 2155 1371.93 2180 1363.57C2204.99 1355.21 2216.24 1321.49 2205.13 1288.26C2194.01 1255.04 2164.74 1234.87 2139.75 1243.23C2114.75 1251.59 2103.5 1285.31 2114.62 1318.54Z" fill="#F4D93B"/>
<path d="M2089.56 1439L2048.06 1399.5H2001.56L1908.56 1439L1842.06 1462L1860.06 1525L1954.06 1561.5L2033.06 1534L2072.06 1495L2089.56 1439Z" fill="#232323"/>
<path d="M1949.56 1557.5C1917.56 1555.1 1851.9 1483.5 1823.06 1448L1819.06 1475.5L1812.06 1539.5L1819.06 1568L1902.56 1573.5C1913.73 1571.83 1938.76 1566.3 1949.56 1557.5Z" fill="#232323"/>
</svg>
