<svg width="3122" height="2242" viewBox="0 0 3122 2242" fill="none" xmlns="http://www.w3.org/2000/svg">
<path d="M1333.6 309.1C1343.82 194.665 1419.82 272.613 1472.92 280.045C1475.12 280.355 1488.38 258.618 1490.95 254.686C1509.45 246.567 1509.4 250.614 1531.99 256.489C1598.51 264.289 1584.41 298.412 1608.78 309.262L1610.67 301.289C1617.8 305.64 1630.11 314.042 1637.66 315.583C1642.69 331.958 1653.02 362.281 1654.28 377.964C1653.02 428.813 1683.84 433.389 1725.93 453.427C1971.92 645.553 1981.46 863.463 1938.9 1158.48C1931.98 1206.49 2007.51 1231.39 1943.2 1314.3C1936.64 1322.65 1929.83 1330.83 1922.86 1338.82C1902.21 1332.27 1884.12 1339.39 1864.62 1349.46C1860.01 1351.87 1855.92 1355.35 1852.1 1358.9L1852.2 1367.75C1866.41 1379.69 1887.16 1377.49 1904.77 1378.02C1883.28 1381.53 1831.76 1382.73 1816.87 1395.49L1816.19 1401.79C1814.04 1430.49 1813.88 1461.29 1806.7 1489.2L1797.16 1507.59L1801.51 1513.68L1817.61 1515.24C1839.62 1519.68 1860.75 1522.21 1883.18 1523.41L1885.54 1527.74C1837.79 1547.78 1801.3 1535.17 1760.89 1547.31C1751.82 1568.25 1746.69 1590.69 1745.69 1613.5C1740.82 1630.46 1736.2 1645.69 1727.14 1660.98C1708.27 1664.05 1689.55 1668.97 1671.31 1661.16L1665.65 1662.83L1669.58 1673.97C1648.88 1685.18 1626.34 1684.38 1603.96 1689.68C1470.35 1721.32 1330.5 1739.44 1193.59 1750.25C1133.1 1755.02 1067.01 1752.71 1007.62 1762.02C929.573 1770.29 839.732 1767.69 761.212 1762.74C719.384 1761.91 671.633 1770.08 632.374 1753.72C625.926 1746.09 621.314 1741.95 619.112 1731.89C611.355 1696.87 626.084 1618.24 616.649 1567.38L616.334 1565.58C611.25 1583.93 607.266 1601.24 605.588 1620.24C601.133 1669.52 605.641 1714.14 613.294 1762.95C595.315 1760.64 566.853 1760.72 550.814 1753.44C536.819 1731.34 522.247 1709.58 512.393 1685.26L504.583 1672.71C488.963 1590.63 455.574 1565.39 498.66 1464.9C412.75 1396.84 439.063 1357.73 291.878 1330.1C252.828 1360.33 224.366 1385.21 188.88 1418.52C166.237 1439.79 89.7619 1535.03 74.5612 1540.15C27.9633 1523.58 11.5045 1396.64 3.01311 1351.49C-8.57085 1289.49 13.9682 1163.86 58.2074 1117.14C147.262 1022.96 306.135 964.322 432.196 939.896C456.779 933.071 502.329 943.864 523.872 936.976C631.744 902.439 725.989 880.026 839.312 868.337C841.094 801.806 866.254 731.301 891.676 670.493C763.886 721.106 556.894 668.302 466.581 565.938C531.106 502.248 602.916 484.903 689.297 477.89L693.176 473.293L689.297 465.682C650.038 437.739 569.736 351.787 586.981 299.733C611.302 266.878 668.908 278.562 704.498 282.886C818.136 296.698 970.876 368.23 1010.5 481.994C1014.91 485.338 1019.68 484.735 1025.44 484.992C1072.67 450.754 1140.7 402.521 1195.43 381.759C1227.35 369.64 1320.49 360.572 1341.04 337.986L1336.9 314.399L1333.6 309.1Z" fill="#110402"/>
<path d="M1146.89 1214.57C1164.29 1221.45 1166.97 1239.45 1183.53 1245.82C1279.87 1282.87 1566.12 1349.79 1607.89 1451.76C1609.83 1456.44 1610.77 1461.22 1611.35 1466.21L1589.18 1486.11C1604.48 1501.32 1612.61 1499.18 1633.1 1502.76L1630.74 1517.78L1638.76 1528.72C1629.07 1561.45 1598.61 1599.73 1611.3 1633.43C1623.83 1649.99 1645.79 1658.44 1665.65 1662.84L1669.58 1673.97C1648.88 1685.18 1626.34 1684.38 1603.96 1689.68C1470.35 1721.32 1330.5 1739.44 1193.59 1750.25C1133.11 1755.02 1067.01 1752.71 1007.62 1762.02C929.574 1770.29 839.733 1767.69 761.213 1762.75C758.959 1755.29 757.334 1747.65 756.443 1739.92C741.085 1616.06 815.045 1465.39 889.685 1370.83C953.633 1289.83 1042.84 1226.95 1146.89 1214.57Z" fill="#F2D641"/>
<path d="M1061.46 1497.16L1067.69 1482.81C1096.21 1470.32 1265.98 1516.44 1317.14 1520C1408.76 1526.38 1502.69 1518.29 1589.18 1486.11C1604.49 1501.32 1612.61 1499.18 1633.1 1502.76L1630.75 1517.78L1638.77 1528.72C1629.07 1561.45 1598.62 1599.73 1611.3 1633.43C1623.83 1649.99 1645.79 1658.44 1665.66 1662.83L1669.59 1673.97C1648.88 1685.18 1626.34 1684.38 1603.96 1689.68C1470.35 1721.32 1330.51 1739.44 1193.6 1750.25C1133.11 1755.02 1067.01 1752.71 1007.62 1762.02C994.625 1761.17 982.831 1760.89 971.09 1754.48C976.541 1737.12 998.451 1722.65 1013.02 1711.28C1055.32 1678.23 1099.35 1650.08 1148.1 1627.46C1173.26 1615.8 1272.48 1588.24 1282.97 1576.72C1253.77 1542.44 1124.51 1542.31 1076.45 1516.82C1066.07 1511.31 1064.76 1507.87 1061.46 1497.16Z" fill="#F8DE73"/>
<path d="M1061.45 1497.16L1067.68 1482.81C1096.2 1470.32 1265.97 1516.44 1317.13 1520C1408.75 1526.38 1502.68 1518.29 1589.17 1486.11C1604.48 1501.32 1612.6 1499.18 1633.1 1502.76L1630.74 1517.78C1584.24 1514.83 1477.37 1555.87 1433.6 1577.29C1391.14 1585.73 1346.54 1597.83 1308.06 1572.24C1302.87 1565.07 1297.06 1558.09 1288.67 1554.62C1225.61 1528.6 1140.65 1531.56 1061.45 1497.16Z" fill="#110402"/>
<path d="M1333.6 309.1C1343.82 194.665 1419.82 272.613 1472.92 280.045C1475.12 280.355 1488.38 258.618 1490.95 254.686C1509.45 246.567 1509.4 250.614 1531.99 256.489C1598.51 264.289 1584.41 298.412 1608.78 309.262C1628.17 365.982 1626.55 387.891 1608.2 444.889C1604.74 457.28 1603.59 462.086 1602.28 474.86L1609.67 485.301C1631.06 481.863 1639.02 463.208 1649.09 445.481C1670.11 458.082 1700.4 474.797 1717.54 491.083C1721.11 516.935 1870.49 657.263 1861.43 732.26L1844.08 736.794C1845.33 744.95 1847.9 747.22 1852.78 753.777L1848.95 759.207C1626.65 773.433 1312.21 637.324 1112.24 543.379C1089.44 530.033 1079.74 526.275 1054.79 517.349C1046.15 523.55 1024.39 522.506 1014.64 517.548C1006.62 501.346 1009.4 501.362 1010.5 481.994C1014.91 485.338 1019.68 484.735 1025.44 484.992C1072.67 450.754 1140.7 402.521 1195.43 381.759C1227.35 369.64 1320.49 360.572 1341.04 337.986L1336.9 314.399L1333.6 309.1Z" fill="#F2D641"/>
<path d="M1336.9 314.399L1344.45 307.171C1350.79 310.284 1364.15 316.213 1368.82 320.652C1376.47 340.665 1392.51 373.671 1394.29 392.263C1364.99 391.786 1304.56 372.806 1261.68 396.892C1245.54 433.641 1156.17 450.691 1112.24 543.379C1089.44 530.034 1079.74 526.275 1054.79 517.349C1046.15 523.55 1024.39 522.507 1014.64 517.548C1006.62 501.346 1009.4 501.362 1010.5 481.994C1014.91 485.338 1019.68 484.736 1025.44 484.993C1072.67 450.754 1140.7 402.521 1195.43 381.759C1227.35 369.64 1320.49 360.572 1341.04 337.986L1336.9 314.399Z" fill="#0F0D08"/>
<path d="M1054.79 517.349C1059.98 478.042 1222.31 408.418 1261.68 396.892C1245.54 433.641 1156.17 450.691 1112.24 543.379C1089.44 530.034 1079.74 526.275 1054.79 517.349Z" fill="#EBB848"/>
<path d="M1333.58 309.1C1343.8 194.665 1419.81 272.613 1472.9 280.045C1475.11 280.355 1488.37 258.618 1490.94 254.686C1509.44 246.567 1509.39 250.614 1531.98 256.489C1499.22 289.25 1502.47 304.461 1498.17 350.314L1490.46 357.176C1458.75 351.509 1427.98 270.233 1379.71 283.306C1367.39 301.227 1370.85 297.358 1368.81 320.652C1364.14 316.212 1350.77 310.284 1344.43 307.171L1336.88 314.399L1333.58 309.1Z" fill="#0F0D08"/>
<path d="M1531.99 256.489C1598.5 264.289 1584.4 298.412 1608.78 309.262C1628.17 365.981 1626.55 387.891 1608.2 444.889L1600.97 442.378C1594.52 393.909 1597.46 297.489 1547.82 269.992C1519.09 272.723 1509.29 309.755 1510.44 334.484L1498.18 350.314C1502.48 304.461 1499.23 289.249 1531.99 256.489Z" fill="#F4E7B9"/>
<path d="M824.727 1163.58C934.067 1168.29 1041.89 1183.34 1146.88 1214.57C1042.83 1226.95 953.618 1289.83 889.67 1370.82C815.03 1465.39 741.071 1616.06 756.428 1739.92C757.32 1747.65 758.945 1755.29 761.199 1762.75C719.37 1761.91 671.62 1770.08 632.36 1753.72C625.913 1746.09 621.3 1741.95 619.099 1731.89C611.341 1696.87 626.07 1618.24 616.635 1567.39L616.32 1565.58C642.371 1470.81 702.021 1398.51 751.921 1316.17C781.641 1267.08 804.599 1217.29 824.727 1163.58Z" fill="#EBB848"/>
<path d="M615.745 315.453C771.578 310.552 926.939 361.6 996.128 514.718C925 594.925 924.633 650.528 796.318 659.386C704.59 665.724 591.791 625.091 519.719 568.361C585.134 522.214 631.889 512.081 711.981 513.24C734.572 509.817 762.667 512.873 786.464 513.465L790.342 506.667C781.799 497.253 773.832 489.579 764.659 480.789C761.095 476.009 748.462 468.975 742.644 465.405L738.031 463.13C675.289 411.956 650.339 390.911 615.745 315.453Z" fill="#D6351A"/>
<path d="M764.659 480.789C793.54 493.594 845.694 514.744 869.071 532.235L869.91 537.776C849.468 539.705 739.604 517.737 711.98 513.24C734.572 509.817 762.667 512.873 786.464 513.465L790.342 506.667C781.798 497.253 773.832 489.579 764.659 480.789Z" fill="#4E0502"/>
<path d="M1731.54 1263.92C1752.56 1269.21 1774.05 1273.86 1794.86 1279.94C1790.19 1307.75 1777.67 1338.23 1775.88 1365.52C1773.68 1399.36 1787.89 1433.05 1779.92 1466.61C1779.71 1467.55 1779.5 1468.5 1779.29 1469.44C1766.82 1522.46 1698.31 1565.25 1720.48 1626.28L1745.69 1613.5C1740.82 1630.46 1736.2 1645.7 1727.14 1660.98C1708.27 1664.05 1689.55 1668.97 1671.31 1661.16L1665.65 1662.84C1645.79 1658.44 1623.82 1649.99 1611.3 1633.44C1598.61 1599.73 1629.07 1561.45 1638.76 1528.72C1644.69 1536.71 1647.04 1538.34 1656.32 1541.87C1666.02 1530.69 1664.29 1514.67 1664.55 1500.68L1660.94 1490.08C1659.99 1430.88 1670.06 1401.12 1711.41 1358.07C1712.46 1357 1713.51 1355.93 1714.56 1354.89C1719.96 1324.61 1724.94 1293.96 1731.54 1263.92Z" fill="#6CAA4F"/>
<path d="M1664.55 1500.67C1677.03 1550.25 1657.79 1577.43 1634.78 1620.38C1651.03 1627.44 1667.38 1635.68 1684.89 1638.99L1693.54 1647.17L1703.81 1644.35C1694.17 1649.22 1678.81 1653.71 1671.31 1661.16L1665.65 1662.83C1645.79 1658.44 1623.82 1649.99 1611.3 1633.43C1598.61 1599.73 1629.07 1561.45 1638.76 1528.72C1644.69 1536.71 1647.04 1538.34 1656.32 1541.87C1666.02 1530.69 1664.29 1514.66 1664.55 1500.67Z" fill="#513911"/>
<path d="M1722.11 1387.24C1733.8 1388.12 1741.87 1391.18 1749.99 1399.97C1759.38 1410.1 1763.1 1424.85 1762.42 1438.35C1760.84 1470.66 1746.01 1495.28 1722.74 1516.43C1711.15 1513.34 1698.78 1510.28 1690.87 1500.6C1681.01 1488.53 1676.61 1472.15 1678.34 1456.79C1681.85 1425.48 1698.57 1406.32 1722.11 1387.24Z" fill="#F2D641"/>
<path d="M535.031 1656.02C519.988 1625.11 504.42 1564.57 511.444 1530.61C514.17 1517.54 521.141 1503.76 532.83 1496.61C553.063 1484.25 579.743 1494.78 600.866 1500.15C591.955 1525.02 584.197 1549.53 578.065 1575.23C577.645 1590.61 575.706 1606.55 583.516 1620.42C592.06 1623.74 595.362 1626.06 604.325 1621.23C604.797 1620.97 605.164 1620.57 605.583 1620.24C601.128 1669.52 605.636 1714.15 613.289 1762.95C595.31 1760.64 566.848 1760.72 550.809 1753.44C536.813 1731.34 522.242 1709.59 512.388 1685.26C516.371 1674.85 529.003 1667.09 535.031 1656.02Z" fill="#EBB848"/>
<path d="M576.596 1737.71C567.686 1683.51 566.008 1629.05 578.064 1575.23C577.644 1590.61 575.705 1606.55 583.515 1620.42C592.059 1623.74 595.361 1626.06 604.324 1621.23C604.796 1620.97 605.163 1620.57 605.582 1620.24C601.127 1669.52 605.635 1714.15 613.288 1762.95C595.309 1760.64 566.847 1760.72 550.807 1753.44C536.812 1731.34 522.241 1709.59 512.387 1685.26C516.37 1674.85 529.002 1667.09 535.03 1656.02C547.453 1683.92 562.287 1710.74 576.596 1737.71Z" fill="#110402"/>
<path d="M1717.53 491.083C1819.95 555.791 1870.9 646.298 1908.79 757.808C1894.22 757.928 1861.93 757.425 1848.93 759.207L1852.76 753.777C1847.89 747.22 1845.32 744.95 1844.06 736.794L1861.41 732.26C1870.48 657.263 1721.09 516.935 1717.53 491.083Z" fill="#F4E7B9"/>
<path d="M1611.34 1466.21C1619.15 1456.21 1618.63 1453.75 1618.68 1441.08C1609.4 1421.72 1582.93 1405.94 1579.26 1387.78C1603.9 1382.2 1628.06 1396.93 1651.65 1388.4C1653.27 1387.8 1655.32 1387.6 1657.05 1387.3C1651.02 1417.51 1643.73 1447.08 1650.65 1477.68L1660.93 1490.08L1664.54 1500.68C1664.28 1514.66 1666.01 1530.69 1656.31 1541.87C1647.04 1538.34 1644.68 1536.71 1638.75 1528.72L1630.73 1517.78L1633.09 1502.76C1612.6 1499.18 1604.47 1501.32 1589.17 1486.11L1611.34 1466.21Z" fill="#0F0D08"/>
<path d="M689.293 465.682L697.208 457.542C714.296 461.578 720.48 462.469 738.04 463.13L742.652 465.404L742.757 484.725C730.177 496.854 735.734 493.494 717.545 497.037C695.321 488.913 700.458 494.149 689.293 477.89L693.172 473.293L689.293 465.682Z" fill="#060605"/>
<path d="M898.281 749.432C923.651 664.948 964.011 595.822 1026.6 532.985C1056.26 554.319 1090.54 565.489 1122.26 584.484C1318.24 679.583 1680.49 824.382 1893.82 791.879L1909.44 791.586C1939.26 829.718 1926.63 1021.58 1916.2 1072.5L1898.54 1088.16C1846.07 1090.79 1818.13 1081.49 1778.92 1046.38C1652.02 929.964 1619.47 1003.22 1484.5 1022.93C1421.66 1032.11 1350.89 1019.64 1289.46 1006.07C1216.5 998.535 1062.76 928.701 1006.78 875.299C980.627 857.556 953.685 824.99 932.771 800.727C914.845 781.951 910.494 772.516 898.281 749.432Z" fill="#D6351A"/>
<path d="M1893.81 791.878L1909.43 791.585C1939.26 829.718 1926.63 1021.58 1916.2 1072.5L1898.53 1088.16C1846.06 1090.79 1818.13 1081.49 1778.92 1046.38C1652.02 929.963 1619.47 1003.22 1484.5 1022.93C1421.65 1032.11 1350.89 1019.64 1289.46 1006.07C1289.93 1006.01 1290.35 1005.96 1290.82 1005.91C1345.28 1000.42 1400.84 1013 1454.04 1007.11C1475.53 1004.73 1498.75 995.258 1519.35 988.701C1607.31 960.695 1665.96 952.555 1752.87 990.258C1760.15 979.214 1767.33 967.21 1775.88 957.141C1785.63 945.673 1794.85 946.197 1808.69 945.023C1832.96 932.642 1859.74 915.528 1883.28 901.224C1891.61 899.452 1893.92 897.46 1900.94 893.073L1905.98 865.471L1893.81 791.878Z" fill="#C7411C"/>
<path d="M1778.91 1046.38L1780.85 1021.28C1802.71 1005.34 1868.96 1019.7 1896.69 1019.14C1897.06 1041.8 1895.85 1065.71 1898.52 1088.16C1846.05 1090.79 1818.12 1081.49 1778.91 1046.38Z" fill="#D6351A"/>
<path d="M1883.28 901.224L1896.18 907.33C1893.71 934.157 1854.04 940.955 1850.31 960.69C1870.55 969.464 1879.14 969.249 1890.67 984.948C1869.97 1008.46 1809.22 1006.43 1786.05 986.216C1781.49 963.814 1792.13 958.824 1808.7 945.022C1832.96 932.642 1859.75 915.528 1883.28 901.224Z" fill="#260300"/>
<path d="M1893.82 791.878L1909.44 791.585C1939.26 829.718 1926.63 1021.58 1916.2 1072.5C1917.46 1074.93 1909.02 888.922 1905.98 865.471L1893.82 791.878Z" fill="#F6DBD3"/>
<path d="M898.281 749.432C923.651 664.948 964.011 595.822 1026.6 532.985C1056.26 554.319 1090.54 565.489 1122.26 584.484C1040.28 589.972 1042.22 683.834 1012.34 735.736L1010.87 736.695C959.241 769.581 923.231 718.156 932.771 800.727C914.845 781.951 910.494 772.516 898.281 749.432Z" fill="#9D200E"/>
<path d="M932.757 800.726C923.218 718.155 959.228 769.58 1010.86 736.695L1012.33 735.735C996.338 789.609 984.02 821.97 1006.77 875.298C980.613 857.556 953.671 824.99 932.757 800.726Z" fill="#9D200E"/>
<path d="M1416.31 823.003C1444.35 829.172 1476.28 860.915 1496.25 881.106C1508.46 893.424 1526.96 912.734 1526.18 931.274C1526.02 935.1 1520.67 938.853 1517.84 941.584C1497.77 946.464 1474.65 936.421 1455.36 930.44C1430.88 928.223 1402.68 929.57 1385.65 909.893L1392.2 901.506C1413.74 891.097 1442.42 895.599 1465.79 896.768C1455.1 885.965 1444.35 875.152 1434.13 863.909C1421.4 849.892 1415.42 841.925 1416.31 823.003Z" fill="#260300"/>
<path d="M611.349 945.568C665.233 927.652 773.892 895.521 828.981 905.339C834.223 915.387 834.432 919.349 830.711 930.178C826.675 942.066 818.55 948.681 825.417 961.287C826.308 962.939 827.67 963.903 829.138 965.019C977.58 1003.37 1217.7 1144.71 1325.89 1252.18C1254.86 1234 1191.65 1193.15 1120.83 1172.48C1059.87 1154.7 995.559 1145.85 932.555 1139.04C708.633 1114.84 519.307 1154.04 325.786 1268.76C226.353 1327.69 151.345 1406.75 76.4952 1493.87C53.4845 1440.81 34.9818 1388.88 34.7722 1330.1C31.3127 1288.06 36.5539 1236.79 50.7062 1197.4C77.4385 1123.1 133.471 1087.76 201.455 1055.62C214.559 1044.14 239.457 1036.77 255.654 1029.82C307.074 1007.8 360.171 986.982 415.418 976.965C459.552 968.967 504.945 969.732 549.184 962.939C569.521 959.815 591.274 950.977 611.349 945.568Z" fill="#D6351A"/>
<path d="M829.131 965.019C977.574 1003.37 1217.69 1144.71 1325.88 1252.18C1254.86 1234 1191.64 1193.15 1120.83 1172.48C1059.87 1154.7 995.552 1145.85 932.548 1139.04C708.627 1114.84 519.3 1154.04 325.78 1268.75C226.347 1327.69 151.339 1406.74 76.4886 1493.87C53.478 1440.81 34.9753 1388.88 34.7656 1330.1C53.6878 1363.64 62.1789 1427.63 79.6335 1468.91C118.159 1432.26 151.077 1389.32 189.446 1352.25C266.812 1277.49 378.615 1218.68 476.843 1177.13C688.499 1087.61 1011.96 1107.14 1222.78 1192.98C1134.14 1117.31 1030.72 1062.69 924.896 1015.46C901.78 1005.16 841.135 986.525 829.131 965.019Z" fill="#AF4936"/>
<path d="M201.453 1055.61C214.557 1044.14 239.455 1036.77 255.652 1029.82C307.072 1007.8 360.169 986.981 415.416 976.965C459.55 968.966 504.943 969.731 549.182 962.938C569.519 959.814 591.272 950.977 611.347 945.567C602.437 949.672 593.578 954.52 583.829 956.255L579.321 965.155C597.615 972.986 618.843 973.039 638.132 977.877C671.888 986.326 704.491 998.775 736.36 1012.62C631.999 1003.14 530.05 992.029 425.375 1003.56C382.446 1008.28 214.924 1057.3 201.453 1055.61Z" fill="#861707"/>
<path d="M957.617 980.147C1006.57 959.191 968.887 944.352 988.28 902.335C1056.63 955.055 1133.63 995.473 1215.87 1021.79C1301.89 1043.91 1385.8 1056.63 1474.54 1059.52C1503.74 1110.42 1547.88 1130.05 1603.28 1145.14C1647.52 1157.21 1745.8 1179.15 1785.63 1155.48C1799.63 1147.2 1809.06 1126.65 1823.01 1120.33C1835.85 1114.47 1876.84 1126.96 1896.44 1123.81L1903.05 1130.16C1893.56 1163.72 1822.33 1216.52 1791.82 1233.43C1760 1251.08 1716.45 1198.22 1697.26 1261.59C1689.29 1287.92 1691.02 1322.3 1676.03 1345.42L1666.02 1350.15C1652.92 1334.31 1638.92 1311.39 1623.04 1298.96C1588.18 1271.75 1515.64 1281.18 1474.7 1262.91C1438.9 1260.35 1403 1248.97 1366.52 1245.79C1312.68 1202.86 1258.33 1160.58 1203.45 1118.95C1154.39 1094.2 1107.53 1059.28 1060.41 1030.57C1025.65 1018.33 991.426 995.714 957.617 980.147Z" fill="#F2D641"/>
<path d="M728.383 1165.54C749.507 1165.55 770.788 1164.08 791.911 1163.13C745.89 1272.55 672.298 1365.57 615.164 1468.69C547.548 1457.31 519.609 1442.59 472.016 1393.24C427.305 1347.11 391.138 1324.64 331.121 1303.05C456.343 1224.51 581.408 1180.12 728.383 1165.54Z" fill="#9D200E"/>
<path d="M1627.76 1012.58C1645.42 1011.79 1663.61 1012.37 1680.38 1018.44C1710.79 1029.46 1764.56 1058.66 1778.3 1090.19C1783.28 1101.67 1781.28 1106.07 1776.78 1116.94C1750.88 1135.68 1719.49 1127.66 1689.92 1124.01C1687.67 1123.81 1685.42 1123.57 1683.16 1123.31C1645.16 1118.91 1553.17 1103.67 1530.05 1073.27C1525.13 1066.83 1527.07 1062.62 1527.96 1055.14C1551.91 1027.23 1593.63 1021.47 1627.76 1012.58Z" fill="#F0854B"/>
<path d="M883.24 790.296C909.815 829.383 953.372 870.608 988.281 902.335C968.887 944.352 1006.57 959.191 957.618 980.147C942.994 972.798 883.606 951.947 865.418 945.133C866.833 888.015 874.172 846.622 883.24 790.296Z" fill="#EBB848"/>
<path d="M1908.81 1178.3C1920.18 1194 1909.38 1202.75 1914.57 1217.91C1917.35 1225.96 1930.93 1233.93 1934.65 1243.63C1938.26 1253.24 1935.38 1266.79 1930.87 1275.61C1912.47 1311.58 1863.88 1333.67 1827.82 1345.37L1821.01 1344.7C1820.06 1343.14 1816.5 1338.21 1816.4 1336.74C1814.93 1315.55 1825.83 1304.2 1818.18 1261.47C1833.06 1234.55 1884.64 1201.04 1908.81 1178.3Z" fill="#D6351A"/>
<path d="M1410.55 1280.12C1483.2 1288.3 1554.85 1306.73 1624.35 1328.85C1631.59 1346.03 1637.4 1364.14 1643.8 1381.66C1619.84 1380.23 1616.33 1366.1 1597.83 1356.23C1539.49 1325.05 1463.85 1321.48 1410.55 1280.12Z" fill="#AF4936"/>
<path d="M2370.16 1289.48L2371.79 1301.14C2361.46 1311.59 2354.07 1319.07 2339.19 1322.42L2256.58 1335.26L2248.04 1333.78C2248.04 1323.13 2248.93 1320.07 2242.95 1310.96C2227.59 1308.34 2212.03 1309.35 2196.56 1309.79C2212.86 1306.27 2230.06 1304.49 2246.57 1301.98C2286.93 1302.12 2329.91 1294.04 2370.16 1289.48Z" fill="#513911"/>
<path d="M1724.71 1893.25C1734.3 1885.93 1746.72 1880.12 1758.36 1876.87C1782.1 1870.24 1869.43 1865.03 1889.24 1876.29L1866.02 1891.48C1882.32 1895.39 1892.34 1894.68 1902.35 1908.82C1903.03 1923.74 1904.02 1938.71 1903.6 1953.65C1860.78 2030.92 1794.16 2101.34 1714.85 2142.16C1625.9 2187.93 1594.4 2116.16 1528.93 2074.19C1506.92 2060.08 1478.04 2052.72 1453.19 2044.72C1258.57 2098.63 1081.2 2111.67 888.095 2041.56C810.519 2077.64 740.963 2090.08 656.259 2095.46C636.236 2134.5 608.613 2169.12 575.014 2197.3C545.975 2221.45 505.93 2245.6 466.513 2241.38C450.316 2239.65 435.954 2232.2 425.838 2219.3C409.065 2197.88 408.488 2165.93 412.262 2140.2C422.85 2068.74 471.283 1960.07 529.831 1916.27C542.202 1918.49 554.048 1920.72 565.946 1924.95C599.021 1915.18 630.313 1906.77 664.803 1903.14C681.471 1917.91 701.023 1939.91 720.679 1949.83C722.618 1948.31 724.453 1947.08 726.602 1945.91C742.798 1937.29 762.402 1946.46 778.389 1951.73C805.435 1966.73 832.901 1984.45 861.94 1995.15L893.128 2007.04L895.12 1997.97C936.843 1989.75 1060.33 2023.63 1114.9 2028.72C1189.07 2035.64 1286.04 2028.7 1358.63 2015.1C1423.68 2002.92 1570.97 1914.4 1615.32 1920.19C1630.15 1912.19 1644.62 1897.65 1657.72 1886.77L1656.31 1880.27C1673.45 1877.8 1685.08 1873.17 1700.7 1881.54C1702.43 1886.68 1703.9 1891.79 1705.21 1897.04L1712.5 1900.27L1724.71 1893.25Z" fill="#0F0D08"/>
<path d="M565.951 1924.95C599.026 1915.18 630.318 1906.77 664.808 1903.14C681.476 1917.91 701.028 1939.91 720.684 1949.83L757.584 1977.69C785.522 1986.46 818.963 2010.77 846.691 2023.53C768.067 2052.47 691.697 2048.11 623.504 2072.79C608.041 2078.38 592.841 2121.84 583.039 2136.9C562.544 2168.33 531.986 2198.35 493.931 2205.97C478.154 2209.13 468.09 2207.89 454.724 2198.96C449.011 2190.62 445.499 2183.13 444.713 2172.91C439.681 2104.68 498.492 1998.57 541.316 1947.54L565.951 1924.95Z" fill="#F0854B"/>
<path d="M565.952 1924.95C599.026 1915.18 630.319 1906.77 664.808 1903.14C681.477 1917.91 701.028 1939.91 720.684 1949.83L757.585 1977.69C723.619 1991.64 699.561 1957.55 668.373 1949.4C628.851 1939.08 582.987 1959.29 541.316 1947.54L565.952 1924.95Z" fill="#EA884B"/>
<path d="M1724.71 1893.25C1734.3 1885.93 1746.73 1880.12 1758.36 1876.87C1782.11 1870.24 1869.43 1865.03 1889.25 1876.29L1866.03 1891.48C1873.47 1905.63 1879.65 1923.65 1874.26 1939.41C1853.03 2001.68 1758.99 2081.61 1700.18 2108.64C1682.31 2116.86 1657.57 2124.85 1638.38 2117.19C1612.7 2106.92 1585.13 2073.41 1562.07 2056.54C1544.19 2043.47 1523.23 2033.12 1503.36 2023.41C1533.66 2009.52 1564.48 1992.75 1591.94 1973.82C1612.59 1959.59 1634.87 1945.67 1654 1929.5C1662.6 1922.21 1671.04 1912.68 1672.03 1901.02L1657.73 1886.77L1656.31 1880.27C1673.45 1877.8 1685.09 1873.17 1700.71 1881.54C1702.44 1886.68 1703.9 1891.79 1705.21 1897.04L1712.5 1900.27L1724.71 1893.25Z" fill="#F0854B"/>
<path d="M1656.32 1880.27C1673.46 1877.8 1685.1 1873.16 1700.72 1881.54C1702.45 1886.68 1703.92 1891.79 1705.23 1897.04L1712.51 1900.27L1724.73 1893.25C1738.67 1892.73 1762.2 1888.66 1774.52 1895.18C1773.11 1896.74 1771.74 1898.2 1770.28 1899.69C1769.8 1900.16 1769.39 1900.66 1768.91 1901.12C1755.6 1914.33 1731.91 1922.15 1716.24 1933.76C1690.34 1952.93 1658.16 2000.8 1629.59 2009.32L1618.53 2003.52C1619.27 1993.27 1621.47 1982.17 1616.02 1972.92L1591.96 1973.82C1612.61 1959.59 1634.89 1945.67 1654.02 1929.5C1662.61 1922.2 1671.05 1912.68 1672.05 1901.02L1657.74 1886.77L1656.32 1880.27Z" fill="#260300"/>
<path d="M1656.32 1880.27C1673.46 1877.8 1685.1 1873.16 1700.72 1881.54C1702.45 1886.68 1703.92 1891.79 1705.23 1897.04L1712.51 1900.27C1669.85 1923.79 1638.19 1959.32 1618.53 2003.52C1619.27 1993.27 1621.47 1982.17 1616.02 1972.92L1591.96 1973.82C1612.61 1959.59 1634.89 1945.67 1654.02 1929.5C1662.61 1922.2 1671.05 1912.68 1672.05 1901.02L1657.74 1886.77L1656.32 1880.27Z" fill="#EDA151"/>
<path d="M893.141 2007.04L895.132 1997.97C936.856 1989.75 1060.35 2023.63 1114.91 2028.72C1189.08 2035.64 1286.05 2028.7 1358.65 2015.1C1423.7 2002.92 1570.99 1914.4 1615.33 1920.19C1482.24 2029.8 1267.81 2072.24 1099.82 2055.95C1031.83 2049.36 955.411 2036.02 893.141 2007.04Z" fill="#FAE38D"/>
<path d="M947.92 1866.02C986.341 1869.73 1031.21 1878.93 1069.32 1876.88C1193.44 1894.65 1329.77 1888.46 1455.1 1886.06C1494.36 1885.31 1633.16 1869.33 1654.7 1876.31L1656.32 1880.27L1657.74 1886.77C1644.63 1897.65 1630.17 1912.19 1615.33 1920.19C1570.99 1914.4 1423.7 2002.92 1358.65 2015.1C1286.06 2028.7 1189.09 2035.64 1114.92 2028.72C1060.35 2023.63 936.86 1989.75 895.137 1997.97L893.145 2007.04L861.957 1995.15L877.158 1988.01C881.77 1972.32 873.908 1963.52 867.041 1949.2C866.569 1945.76 866.36 1942.36 866.203 1938.89C864.683 1913.92 871.707 1891.21 878.102 1867.37C901.374 1867.21 924.647 1866.75 947.92 1866.02Z" fill="#F8DE73"/>
<path d="M1922.85 1338.82C1954.98 1351.68 2145.41 1313.62 2196.57 1309.79C2212.03 1309.35 2227.6 1308.33 2242.95 1310.96C2248.93 1320.07 2248.04 1323.13 2248.04 1333.78L2256.58 1335.26L2339.19 1322.42L2355.65 1328.97C2349.05 1368.08 2254.49 1427.55 2223.25 1449.79C2167.42 1489.54 2129.84 1516.82 2058.66 1513.59C2032.56 1514.06 2006.51 1514.68 1980.46 1515.43L1935.85 1514.15C1896.43 1513.92 1857.02 1514.28 1817.6 1515.24L1801.51 1513.68L1797.16 1507.59L1806.7 1489.2C1813.88 1461.29 1814.03 1430.49 1816.18 1401.79L1816.86 1395.49C1831.75 1382.73 1883.28 1381.53 1904.77 1378.02C1887.15 1377.49 1866.4 1379.69 1852.19 1367.75L1852.09 1358.9C1855.91 1355.35 1860 1351.87 1864.62 1349.47C1884.11 1339.39 1902.2 1332.27 1922.85 1338.82Z" fill="#FDF8DD"/>
<path d="M1816.18 1401.79C1817.49 1414.3 1816.86 1434.85 1825.88 1444.18C1903.98 1440.93 1982.18 1436.71 2060.34 1434.69L2123.6 1429.1C2061.49 1491.1 2021.03 1507.29 1935.85 1514.15C1896.43 1513.92 1857.02 1514.28 1817.6 1515.24L1801.51 1513.68L1797.16 1507.59L1806.7 1489.2C1813.88 1461.3 1814.03 1430.49 1816.18 1401.79Z" fill="#DDD6C8"/>
<path d="M1922.85 1338.82C1954.98 1351.68 2145.41 1313.62 2196.57 1309.79C2212.03 1309.35 2227.6 1308.33 2242.96 1310.96C2248.93 1320.07 2248.04 1323.13 2248.04 1333.78L2217.06 1341.69C2113.02 1348.96 2008.71 1367.21 1904.77 1378.02C1887.16 1377.49 1866.4 1379.69 1852.19 1367.75L1852.09 1358.9C1855.92 1355.35 1860 1351.87 1864.62 1349.47C1884.12 1339.39 1902.2 1332.27 1922.85 1338.82Z" fill="#0E0C07"/>
<path d="M650.494 1829.86C655.264 1829.02 661.501 1826.75 665.642 1829.15C691.221 1843.87 763.136 1851.45 792.542 1848.89C798.831 1883.42 843.28 1923.73 867.025 1949.2C873.891 1963.52 881.754 1972.32 877.141 1988.01L861.94 1995.15C832.902 1984.45 805.436 1966.73 778.389 1951.73C762.403 1946.46 742.799 1937.29 726.602 1945.91C724.453 1947.08 722.619 1948.31 720.679 1949.83C701.023 1939.91 681.472 1917.91 664.804 1903.14C630.314 1906.77 599.021 1915.18 565.947 1924.95C554.048 1920.72 542.202 1918.49 529.832 1916.27L533.973 1905.98C569.878 1885.81 602.114 1879.16 642.946 1875.52C631.205 1860.56 621.56 1844.21 611.601 1828.06L612.702 1824.43L650.494 1829.86Z" fill="#EBB848"/>
<path d="M612.702 1824.43L650.494 1829.86C684.984 1880.24 729.38 1916.5 778.389 1951.73C762.403 1946.46 742.799 1937.29 726.602 1945.91C724.453 1947.08 722.619 1948.31 720.679 1949.83C701.023 1939.91 681.472 1917.91 664.804 1903.14C630.314 1906.77 599.021 1915.18 565.947 1924.95C554.048 1920.72 542.202 1918.49 529.832 1916.27L533.973 1905.98C569.878 1885.81 602.114 1879.16 642.946 1875.52C631.205 1860.56 621.56 1844.21 611.601 1828.06L612.702 1824.43Z" fill="#0F0D08"/>
<path d="M1817.6 1515.24C1857.02 1514.28 1896.43 1513.92 1935.85 1514.15L1980.46 1515.43C2014.68 1518.22 2060.18 1514.48 2091.47 1526.25C2085.18 1536.08 2064.95 1542.62 2053.89 1545.1C2042.36 1547.68 2029.78 1548.06 2017.93 1548.6C1981.35 1580.83 1893.03 1614.81 1844.02 1618.61C1835.16 1628.78 1832.75 1631.96 1818.7 1633.16C1814.87 1633.49 1810.84 1633.06 1807.01 1632.69C1793.17 1645.73 1754.07 1661.75 1734.57 1662.48C1732.11 1662.58 1729.44 1661.78 1727.13 1660.98C1736.2 1645.69 1740.81 1630.46 1745.68 1613.5C1746.68 1590.69 1751.82 1568.26 1760.88 1547.31C1801.3 1535.17 1837.78 1547.78 1885.53 1527.74L1883.17 1523.41C1860.74 1522.21 1839.61 1519.68 1817.6 1515.24Z" fill="#513911"/>
<path d="M1760.88 1547.32C1785.36 1551.42 1808.58 1551.75 1833.32 1551.22C1825.88 1576.19 1820.17 1610.62 1807.01 1632.69C1793.17 1645.73 1754.07 1661.75 1734.57 1662.48C1732.11 1662.58 1729.44 1661.78 1727.13 1660.98C1736.2 1645.7 1740.81 1630.46 1745.68 1613.5C1746.68 1590.7 1751.82 1568.26 1760.88 1547.32Z" fill="#F0CF4C"/>
<path d="M1867.24 1550.9C1917.46 1550.53 1967.73 1549.77 2017.94 1548.6C1981.35 1580.83 1893.03 1614.81 1844.02 1618.61C1853.72 1596.44 1860.69 1574.19 1867.24 1550.9Z" fill="#B8A479"/>
<path d="M792.547 1848.89C841.346 1854.15 901.31 1853.61 947.908 1866.02C924.636 1866.75 901.363 1867.21 878.09 1867.37C871.696 1891.21 864.672 1913.92 866.192 1938.89C866.349 1942.36 866.558 1945.76 867.03 1949.2C843.285 1923.73 798.837 1883.42 792.547 1848.89Z" fill="#F0CF4C"/>
<path d="M441.566 31.2157C679.902 -0.988711 920.964 -8.30077 1160.82 9.40015C1655.47 46.2434 2243.16 219.746 2651.53 507.233C2814.71 623.492 2981.28 780.137 3056.13 970.428C3075.37 1019.34 3074.53 1036.3 3086.64 1078.48C3100.48 1083.12 3104.04 1083.6 3110.86 1097.47C3130.25 1137.13 3119.66 1208.35 3106.77 1248.92L3099.48 1255.89L3091.36 1251.72C3088.79 1240.38 3088.06 1229.56 3087.64 1217.96C3055.24 1394.09 2952.35 1530.98 2805.58 1632.41C2802.91 1634.26 2800.19 1636.07 2797.51 1637.85C2672.55 1733.31 2510.27 1814.22 2358.89 1857.11C2413.67 1820.96 2605.51 1705.61 2621.29 1646.96L2615.11 1637.6C2612.17 1637.43 2609.23 1637.39 2606.35 1637.84C2588.37 1640.63 2475.52 1693.79 2444.7 1704.7C2341.13 1741.43 2233.78 1766.87 2125.96 1787.38C1923.37 1825.89 1714.54 1843.51 1508.6 1849.83C1424.21 1852.42 1334.27 1843.35 1250.82 1851.59C1171.67 1848.48 1092.57 1845.79 1013.64 1839.86C946.281 1833.84 827.192 1827.01 766.022 1811.14C768.695 1808.93 775.09 1802.06 777.973 1801.17C802.765 1793.49 1007.35 1796.36 1051.22 1794.48C1154.11 1789.49 1256.79 1780.95 1359.11 1768.88C1724.08 1725.89 2180.63 1611.31 2417.08 1311.65C2568.51 1091.59 2476.83 885.493 2327.71 704.7C2279.9 646.743 2242.11 593.101 2178.27 550.686C2155.47 535.558 2130.94 515.693 2110.7 497.73C2108.71 487.902 2110.76 478.86 2112.17 468.916C2089.48 460.074 1954.82 383.08 1921.59 365.772C1792.59 297.117 1659.45 236.614 1522.86 184.617C1501.11 176.256 1440.88 154.546 1423.9 143.512C1378.98 144.859 1340.4 134.198 1296.47 130.466C1147.66 117.812 1008.13 80.5865 860.476 62.8698C773.727 53.0366 686.769 45.4572 599.654 40.1422C555.467 37.6891 481.979 37.1755 441.566 31.2157Z" fill="#FAE38D"/>
<path d="M1809.11 1751.85C1872.06 1725.75 1949.53 1712.1 2012.75 1687.71C2375.2 1547.85 2834.21 1245.09 2577.79 800.459C2490.62 649.259 2428.93 594.71 2304.13 476.186L2304.29 468.329C2326.19 470.777 2349.36 484.489 2370.12 492.734C2475.84 534.73 2568.04 589.112 2662.6 651.162C2686.61 666.913 2737.14 689.96 2757.37 707.1C2804.44 746.973 2850.72 808.656 2895.75 849.667L2897.79 851.496C3043.19 1025.82 3048.12 1302.2 2897.74 1474.9C2873.1 1503.19 2842.34 1531.68 2814.92 1557.44L2747.52 1604.31C2770.16 1564.23 2835.36 1424.15 2825.46 1383.09C2824.83 1380.58 2823.73 1378.32 2822.47 1376.1C2803.91 1380.64 2767.22 1436.48 2749.72 1452.36C2715.65 1483.35 2675.71 1510.12 2637.02 1534.97C2564.37 1581.62 2482.81 1617.54 2401.36 1645.73C2275.61 1689.27 1881.5 1781.91 1762.88 1770.97L1766.02 1765.65C1780.81 1764.77 1802.4 1766.28 1815.3 1758.56L1809.11 1751.85Z" fill="#FDF8DD"/>
<path d="M441.566 31.2157C679.902 -0.988711 920.964 -8.30077 1160.82 9.40015C1655.47 46.2434 2243.16 219.746 2651.53 507.233C2629.83 505.43 2619.4 505.613 2599.9 495.46C2596.97 496.251 2588.95 498.201 2586.75 499.391C2593.72 510.666 2822.2 597.058 2757.78 685.799C2782.68 725.918 2898.99 823.223 2897.78 851.496L2895.74 849.667C2850.72 808.657 2804.43 746.973 2757.36 707.1C2737.13 689.96 2686.6 666.913 2662.59 651.162C2568.03 589.112 2475.84 534.73 2370.11 492.734C2349.36 484.489 2326.19 470.777 2304.28 468.329L2304.12 476.187C2428.92 594.71 2490.62 649.259 2577.78 800.459C2834.2 1245.09 2375.2 1547.85 2012.74 1687.71C1949.53 1712.1 1872.05 1725.75 1809.1 1751.85C1780.22 1755.09 1754.22 1759.73 1726.02 1765.97C1712.29 1769 1649.5 1779.29 1641.42 1774.03C1682.88 1754.87 1748.14 1751.39 1793.85 1740.97C1866.03 1724.51 1941.51 1701.49 2010.43 1674.54C2112.91 1634.51 2418.96 1494.84 2463.41 1393.81C2466.71 1380.02 2481.76 1369.11 2487.79 1355.6C2510.48 1304.89 2534.23 1250.8 2564.05 1204.4L2571.44 1207.41L2578.52 1202.89C2585.28 1164.15 2620.14 1068.16 2613.74 1039.73C2548.54 750.464 2362.46 620.058 2112.17 468.916C2089.48 460.074 1954.82 383.08 1921.59 365.772C1792.59 297.117 1659.45 236.614 1522.86 184.617C1501.11 176.256 1440.88 154.546 1423.9 143.512C1378.98 144.859 1340.4 134.198 1296.47 130.466C1147.66 117.812 1008.13 80.5865 860.476 62.8698C773.727 53.0366 686.769 45.4572 599.654 40.1422C555.467 37.6891 481.979 37.1755 441.566 31.2157Z" fill="#F4E7B9"/>
<path d="M441.566 31.2157C679.902 -0.988711 920.964 -8.30077 1160.82 9.40015C1655.47 46.2434 2243.16 219.746 2651.53 507.233C2629.83 505.43 2619.4 505.613 2599.9 495.46C2596.97 496.251 2588.95 498.201 2586.75 499.391C2593.72 510.666 2822.2 597.058 2757.78 685.799C2730.21 669.927 2724.24 649.008 2703.53 629.483C2675.02 602.63 2630.78 571.856 2599.22 548.93C2530.56 499.019 2425.15 431.549 2349.04 393.547C2097.39 267.985 1644.94 122.577 1367.71 121.146C1390.25 128.458 1402.46 133.375 1423.9 143.512C1378.98 144.859 1340.4 134.198 1296.47 130.466C1147.66 117.812 1008.13 80.5865 860.476 62.8698C773.727 53.0366 686.769 45.4572 599.654 40.1422C555.467 37.6891 481.979 37.1755 441.566 31.2157Z" fill="#F8DE73"/>
<path d="M2426.05 1312.18C2442.61 1287.46 2464.16 1287.8 2489.63 1282.14C2501.06 1279.59 2504.78 1279.65 2511.02 1269.79L2500.11 1251.89C2510.02 1231.1 2542.1 1177.24 2560.97 1166.43L2557.51 1197.88L2564.06 1204.4C2534.24 1250.8 2510.49 1304.89 2487.8 1355.6C2481.77 1369.11 2466.73 1380.02 2463.42 1393.81C2461.75 1389.35 2458.97 1384.04 2455.67 1380.5C2442.09 1365.76 2407.55 1372.87 2387.84 1371.75C2396.49 1360.24 2411.79 1354.69 2424.16 1347.9C2425.21 1336.02 2425.79 1324.1 2426.05 1312.18Z" fill="#F2D641"/>
<path d="M2306.74 1852.26L2331.27 1850.65C2342.18 1857.85 2346 1859.13 2350.56 1871.35C2348.99 1874.4 2347.31 1877.25 2345.06 1879.86C2323.94 1904.13 2271.94 1915.96 2241.06 1917.5C2230.06 1922.3 2219.05 1925.08 2207.41 1927.79C2207.47 1925.17 2207.78 1922.74 2208.62 1920.24C2216.43 1896.45 2283.84 1864.49 2306.74 1852.26Z" fill="#EDA151"/>
</svg>
