<svg width="3011" height="2282" viewBox="0 0 3011 2282" fill="none" xmlns="http://www.w3.org/2000/svg">
<path d="M1705.23 1289.77C1708.78 1285.21 1715.25 1284.15 1720.07 1287.34C1799.3 1339.8 1917.43 1430.53 2014.63 1532.51C2063.23 1583.5 2106.88 1637.6 2137.79 1691.39C2168.64 1745.05 2187.35 1799.36 2184.66 1850.48C2184.58 1852.08 2184.14 1853.65 2183.39 1855.07C2182.32 1857.11 2180.54 1858.93 2178.13 1860.03C2175.9 1861.04 2173.85 1861.1 2172.54 1860.99C2170.21 1860.79 2168.51 1859.9 2168.04 1859.66C2166.8 1859 2165.79 1858.19 2165.35 1857.85C2164.28 1856.99 2162.89 1855.74 2161.57 1854.56C2158.73 1852.02 2154.8 1848.53 2149.76 1844.6C2139.64 1836.73 2125.21 1827.29 2107.12 1821.2C2071.85 1809.31 2020.17 1809.24 1956.2 1865.59C1890.38 1923.58 1839.34 1975.21 1770.73 2003.45C1701.35 2032.02 1615.18 2036.48 1478.62 2005.12C1477.07 2004.77 1475.61 2004.08 1474.35 2003.11C1431.5 1970.16 1417.36 1918.7 1420.92 1859.98C1424.46 1801.36 1445.66 1733.63 1475.79 1664.8C1536.13 1527 1633.75 1381.6 1705.23 1289.77Z" fill="#E82117" stroke="#232323" stroke-width="22.1312" stroke-linejoin="round"/>
<path d="M761.862 1100.09C763.378 1099.7 764.954 1099.6 766.506 1099.8C862.182 1112.11 1000.15 1130.92 1103.03 1147.32C1154.34 1155.5 1197.37 1163.15 1222.03 1169.16C1228.21 1170.66 1233.52 1172.13 1237.63 1173.55C1239.67 1174.25 1241.67 1175.04 1243.44 1175.92C1244.84 1176.61 1247.58 1178.06 1249.72 1180.61C1250.9 1182.02 1252.6 1184.6 1252.9 1188.24C1253.23 1192.24 1251.72 1195.57 1249.87 1197.8C1246.97 1201.3 1243 1202.5 1241.67 1202.89C1237.93 1204 1232.82 1204.55 1227.16 1204.89C1227.07 1204.89 1226.99 1204.9 1226.9 1204.9C1209.71 1205.56 1187.67 1216.86 1161.32 1239.82C1135.4 1262.42 1107.09 1294.73 1077.51 1333.9C1018.4 1412.2 955.406 1516.32 897.536 1620.69C839.714 1724.98 787.213 1829.15 749.072 1907.36C730.006 1946.46 714.536 1979.06 703.792 2001.92C698.42 2013.34 694.23 2022.34 691.358 2028.51C689.926 2031.59 688.811 2033.98 688.045 2035.61C687.665 2036.42 687.353 2037.09 687.125 2037.56C687.015 2037.79 686.897 2038.03 686.787 2038.25C686.739 2038.35 686.645 2038.53 686.532 2038.74C686.469 2038.85 686.31 2039.13 686.206 2039.3C685.999 2039.63 685.122 2040.81 684.385 2041.62C682.049 2043.96 678.876 2045.26 675.572 2045.24C586.281 2044.81 536.861 2069.5 510.068 2092.72C496.573 2104.42 488.506 2116.01 483.912 2124.45C481.609 2128.68 480.192 2132.09 479.407 2134.29C479.12 2135.09 478.933 2135.7 478.822 2136.08C478.685 2137.17 478.402 2138.26 477.964 2139.31C476.04 2143.92 471.536 2146.92 466.543 2146.92C462.696 2146.92 459.687 2145.2 457.739 2143.24V2143.24C430.018 2115.19 395.3 2100.57 362.661 2093.81C330.18 2087.09 300.522 2088.33 283.502 2091.39L227.39 2105.86C223.84 2106.77 220.066 2106.07 217.087 2103.93C214.107 2101.79 212.228 2098.44 211.956 2094.79L173.939 1583.78C173.769 1581.49 174.238 1579.21 175.292 1577.17L368.025 1204.96L368.182 1204.67C369.83 1201.69 372.64 1199.51 375.953 1198.66L761.862 1100.09Z" fill="#A7120B" stroke="#232323" stroke-width="24.7548" stroke-linejoin="round"/>
<path d="M1183.9 262.433C1145.86 283.186 1095.77 297.189 1035.18 297.377L882.142 297.686C894.224 107.339 1011.79 57.1314 1046.64 171.176C1046.64 171.176 1078.5 85.5057 1192.71 92.2354C1198.5 92.7552 1203.79 93.149 1210.08 93.7949C1302.72 105.834 1284.48 207.503 1183.9 262.433Z" fill="#F4D93B"/>
<path d="M1183.81 262.412C1173.63 258.463 1170.27 251.563 1180.29 239.63C1219 191.087 1273.1 116.116 1168.63 103.905L1192.63 92.2147C1198.42 92.7345 1203.71 93.1283 1210 93.7742C1302.64 105.814 1284.4 207.483 1183.81 262.412Z" fill="white"/>
<path d="M877.868 312.036C870.321 310.144 864.692 303.607 865.11 296.722C873.833 163.313 931.647 99.5241 981.798 96.2536C1008.76 94.626 1032.61 108.992 1048.95 135.921C1072.81 106.487 1121.66 67.4774 1211.65 79.3199C1260.11 85.4104 1289.28 114.625 1287.03 155.065C1283.74 220.874 1194.53 312.205 1035.69 311.994C1026.5 312.019 1018.23 305.285 1017.9 297.281C1017.56 289.276 1025.04 282.296 1034.23 282.272C1170.9 282.517 1250.45 205.54 1252.66 152.506C1253.51 135.014 1246.46 113.21 1207.45 108.089C1095.55 93.5516 1063.47 172.644 1062.44 176.114C1060.14 182.061 1053.44 186.438 1045.51 185.848C1038.08 185.383 1031.3 180.889 1029.45 174.367C1019.94 142.627 1003.17 124.444 984.523 125.361C953.148 127.281 905.965 182.551 898.604 298.595C898.303 306.907 890.082 312.768 880.512 312.232C880.383 312.666 878.874 312.288 877.868 312.036Z" fill="#232323"/>
<path d="M1485.35 1801.82C1648.96 1949.66 1639.95 2063.24 1435.32 2081.27C1230.69 2099.3 1083.76 2057.38 1131.09 1929.38C1178.41 1801.37 1485.35 1801.82 1485.35 1801.82Z" fill="#FF814A"/>
<path d="M1350.11 2100.23C1238.33 2100.23 1160.8 2077.25 1127 2033.08C1104.91 2003.78 1101.31 1967.27 1117.53 1924.45C1167.56 1788.79 1470.9 1786.98 1485.77 1786.98C1489.38 1786.98 1492.98 1788.34 1495.69 1790.59C1589.44 1875.32 1629.1 1950.14 1610.17 2006.94C1593.5 2056.97 1535.35 2087.16 1437.1 2095.73C1406 2098.88 1377.15 2100.23 1350.11 2100.23ZM1479.91 1816.73C1438.9 1817.63 1184.69 1827.1 1145.03 1934.82C1132.86 1968.17 1134.66 1994.31 1150.44 2015.05C1185.59 2060.57 1288.81 2079.5 1434.39 2066.43C1518.23 2058.77 1569.61 2035.33 1581.78 1997.92C1596.2 1954.2 1560.14 1890.2 1479.91 1816.73Z" fill="#232323"/>
<path d="M461.783 1411.92C203.069 1412.37 9.70942 1553.44 519.475 1837.85C961.183 2084.39 461.783 1411.92 461.783 1411.92Z" fill="#EFA33F"/>
<path d="M662.791 1907.26C628.987 1907.26 579.407 1888.78 512.25 1850.92C390.104 1782.86 300.861 1718.86 247.226 1660.26C197.196 1605.72 177.364 1556.14 188.632 1512.88C210.717 1427.24 344.581 1396.59 462.22 1396.59C467.178 1396.59 471.685 1398.84 474.389 1402.9C475.291 1403.8 549.209 1503.86 614.564 1611.58C737.611 1813.96 724.99 1868.04 704.708 1891.03C694.792 1901.85 680.82 1907.26 662.791 1907.26ZM454.107 1427.24C324.299 1429.04 231.901 1465.1 217.478 1520.99C206.21 1563.81 231.901 1660.26 526.673 1824.77C648.368 1892.38 675.862 1877.51 681.27 1871.2C688.933 1862.64 704.708 1819.37 587.971 1627.81C532.983 1536.31 471.234 1450.68 454.107 1427.24Z" fill="#232323"/>
<path d="M1686.34 1035.54C1865.56 1280.42 2103.11 1350.4 2080.17 1479.82C2057.24 1609.23 1581.85 1621.39 1443.79 1414.67C1306.17 1207.82 1686.34 1035.54 1686.34 1035.54Z" fill="#EFA33F"/>
<path d="M1406.62 1371.01C1396.83 1339.59 1396.75 1307.52 1405.95 1274.91C1447.61 1128.33 1671.03 1025.67 1680.52 1021.29C1686.71 1018.42 1694.37 1020.28 1698.53 1026.07C1778.35 1135.27 1870.97 1209.8 1944.92 1269.85C2040.2 1346.86 2108.96 1402.38 2094.99 1481.8C2087.13 1526.26 2037.71 1560.07 1956.11 1577C1871.94 1594.73 1765.66 1591.49 1672.16 1568.69C1594.55 1549.92 1489.72 1508.93 1432.12 1422.55C1420.33 1405.92 1412.12 1388.65 1406.62 1371.01ZM1681.73 1053.96C1637.24 1076.32 1467.37 1167.49 1434.15 1283.59C1421.9 1326.12 1429.24 1366.32 1456.39 1406.49C1550.13 1546.76 1802.96 1579.4 1949.68 1548.79C2016.67 1535 2060.25 1508.2 2065.71 1477.23C2076.92 1414.72 2013.91 1364.01 1926.21 1293.15C1852.53 1233.96 1761.74 1160.75 1681.73 1053.96Z" fill="#232323"/>
<path d="M716.02 1801.82C552.409 1949.66 561.423 2063.24 766.051 2081.27C970.678 2099.3 1117.61 2057.38 1070.29 1929.37C1022.96 1801.37 716.02 1801.82 716.02 1801.82Z" fill="#FF814A"/>
<path d="M851.716 2100.2C824.673 2100.2 795.827 2098.85 764.727 2096.14C666.92 2087.58 608.327 2057.38 591.65 2007.35C572.72 1950.11 611.932 1875.29 706.133 1791C708.837 1788.75 712.443 1787.4 716.049 1787.4C730.923 1787.4 1034.26 1789.2 1084.29 1924.87C1100.06 1967.69 1096.91 2004.2 1074.82 2033.49C1041.02 2077.21 963.044 2100.2 851.716 2100.2ZM721.458 1816.7C641.229 1890.16 605.172 1954.62 619.595 1997.89C632.215 2035.3 683.146 2059.18 766.981 2066.4C912.564 2079.47 1015.78 2060.54 1050.94 2015.01C1066.71 1994.28 1068.51 1967.69 1056.34 1934.78C1016.68 1826.61 762.924 1817.15 721.458 1816.7Z" fill="#232323"/>
<path d="M1794.03 1623.32C1793.13 1626.48 1792.68 1629.63 1791.78 1632.79C1697.13 1970.38 1285.62 1975.79 993.1 1971.73H992.198C931.351 1970.83 871.405 1966.32 814.163 1957.31H813.713C563.111 1918.54 364.343 1796.4 382.823 1506.58C386.879 1407.88 403.105 1309.17 424.74 1215.42C440.064 1149.61 466.206 1094.17 480.179 1030.62C488.292 994.565 490.095 954 490.545 914.787C485.587 761.091 520.293 624.072 584.295 512.744C720.413 275.213 988.592 153.068 1292.38 235.099C1601.12 321.187 1702.54 594.324 1689.01 892.702V893.603C1685.41 1011.69 1716.96 1080.65 1759.33 1187.92C1812.51 1325.39 1829.19 1479.99 1794.03 1623.32Z" fill="#F4D93B"/>
<path d="M1529.5 449.621C1646.69 616.388 1666.07 725.462 1681.4 855.721C1696.27 985.979 1688.61 784.507 1688.61 784.507L1675.08 668.671L1633.62 517.229L1597.56 459.537L1529.5 449.621Z" fill="white"/>
<path d="M813.713 1957.72C563.111 1918.96 364.343 1796.82 382.823 1507C386.879 1408.29 403.105 1309.59 424.74 1215.84C440.064 1150.03 466.206 1094.59 480.179 1031.04C488.292 994.983 490.095 954.418 490.545 915.205C485.587 761.509 500.563 583.5 586.063 505.5C611.881 481.947 721.563 457 721.563 457C649.448 637.289 624.86 1011.66 624.86 1011.66C624.86 1011.66 303.496 1539.45 558.153 1551.17C558.153 1551.17 553.196 1901.38 813.713 1957.72Z" fill="#EC2F2F" fill-opacity="0.14"/>
<path opacity="0.32" d="M1776.39 1668.08C1775.32 1671.23 1774.78 1674.39 1773.71 1677.54C1661.05 2015.02 1204.71 1968.56 856.563 1964.5H823.141L723.564 1943C602.866 1796.57 665.965 1331.06 1085.99 1228.78C1456.14 1138.66 1697.06 1241 1772.63 1381.97C1805.06 1480 1782.83 1552.73 1776.39 1668.08Z" fill="#FFF4C5"/>
<path d="M1067.99 1987.48C1042.75 1987.48 1017.51 1987.03 992.717 1987.03C743.468 1982.98 565.884 1924.83 464.021 1814.41C392.356 1736.43 359.904 1632.77 368.017 1506.11C371.623 1415.97 386.046 1317.26 410.385 1212.69C418.047 1179.34 428.414 1148.69 438.78 1118.94C449.147 1088.29 459.063 1059.45 465.824 1028.35C474.387 990.938 475.74 948.57 475.74 916.119C468.077 672.278 559.123 457.284 725.89 325.223C882.291 201.274 1084.66 164.315 1296.05 221.557C1574.6 299.532 1719.28 537.963 1703.5 893.582V894.033V894.484C1700.35 1000.4 1726.49 1066.66 1763 1158.16C1766.16 1166.27 1769.31 1174.38 1772.92 1182.95C1831.51 1333.04 1843.23 1494.39 1806.27 1636.82C1762.55 1792.32 1653.02 1892.83 1470.93 1944.67C1344.28 1980.72 1204.56 1987.48 1067.99 1987.48ZM1105.4 224.712C971.533 224.712 847.134 266.629 744.37 348.209C585.265 473.961 498.276 680.842 505.487 915.217V915.668C505.487 949.923 504.135 994.093 494.67 1034.66C487.458 1067.56 476.641 1098.21 466.725 1128.41C456.809 1157.71 446.443 1187.45 439.231 1219.45C415.343 1322.22 401.371 1419.12 397.314 1507.92C389.652 1626.46 419.399 1722.91 485.655 1794.57C581.659 1898.69 752.032 1953.23 993.168 1957.74C1326.7 1961.79 1690.43 1940.61 1777.42 1629.16C1813.03 1493.04 1801.76 1338.44 1745.42 1194.21C1742.27 1185.65 1738.66 1177.54 1735.51 1169.42C1697.65 1074.32 1670.6 1005.81 1674.21 894.033V893.582V893.132C1682.77 695.716 1644.46 350.012 1288.39 250.403C1226.19 232.825 1164.89 224.712 1105.4 224.712Z" fill="#232323"/>
<path d="M92.7207 518.575C198.592 430.662 300.139 406.648 384.53 413.385C461.038 419.493 522.658 450.812 559.911 481.175C562.143 479.379 564.406 477.857 566.703 476.68C572.745 473.585 581.837 471.746 589.763 477.957C596.171 482.978 598.054 490.679 598.724 495.771C599.483 501.535 599.207 508.084 598.314 514.754C594.897 540.278 581.019 577.398 558.425 605.127C519.939 756.233 413.526 827.22 317.606 859.687C269.43 875.995 223.686 882.702 189.978 885.159C173.107 886.388 159.149 886.561 149.283 886.318C144.369 886.197 140.36 885.97 137.45 885.702C136.042 885.572 134.645 885.411 133.444 885.199C132.923 885.107 131.952 884.924 130.891 884.587C130.444 884.445 129.258 884.056 127.915 883.277C127.25 882.89 125.983 882.089 124.703 880.731C123.447 879.398 121.345 876.623 120.94 872.449C120.756 870.555 120.96 868.643 121.54 866.83C154.909 762.517 209.86 700.924 271.168 660.822C301.383 641.058 333.122 626.575 364.085 614.735C271.549 622.599 208.396 610.45 165.988 593.205C138.358 581.969 119.773 568.662 107.796 557.642C101.82 552.143 97.5277 547.25 94.5998 543.526C91.8795 540.066 89.7662 536.768 90.2383 537.435C86.0122 531.465 87.0935 523.248 92.7207 518.575Z" fill="#E82117" stroke="#232323" stroke-width="28" stroke-linejoin="round"/>
<path d="M598.517 492.544C748.544 420.668 1092.34 309.029 1566.19 439.205C1567.9 439.515 1569.21 440.061 1569.92 440.397C1571.84 441.312 1573.17 442.46 1573.79 443.018C1575.12 444.235 1576.21 445.592 1576.91 446.522C1578.45 448.557 1580.19 451.258 1582.01 454.26C1585.71 460.385 1590.54 469.136 1596.05 479.713C1607.09 500.925 1621.2 530.145 1635.03 561.838C1648.85 593.506 1662.49 627.88 1672.52 659.349C1682.4 690.333 1689.33 720.16 1688.49 742.025C1688.02 754.266 1684.29 764.938 1677.46 773.639C1670.72 782.222 1661.62 788.047 1651.69 791.872C1632.2 799.374 1607.48 799.966 1583.17 797.225C1558.52 794.446 1532.65 788.045 1509.91 780.13C1487.36 772.283 1466.87 762.601 1453.46 752.784C1429.99 735.601 1400.68 710.764 1338.11 707.121C1274.47 703.416 1175.19 721.698 1013.33 796.918C1013.32 796.924 1013.31 796.929 1013.3 796.934C880.259 858.283 766.757 876.014 679.204 870.91C592.27 865.843 529.485 838.096 499.865 806.59C497.521 804.096 496.171 800.83 496.071 797.409C495.229 768.562 505.319 714.581 522.172 658.348C539.113 601.821 563.618 540.553 592.983 497.305C594.374 495.256 596.284 493.614 598.517 492.544Z" fill="#E82117" stroke="#232323" stroke-width="28" stroke-linejoin="round"/>
<path d="M1664.06 789C1692.56 729.5 1560.56 446.882 1514.56 426.291L1590.06 451L1621.56 505L1664.06 643L1692.56 753.5C1690.23 760.167 1681.26 776.6 1664.06 789Z" fill="white"/>
<path d="M598.13 494.99C745.577 424.819 1091.1 316.073 1552.58 434.849C1572.12 439.879 1591.09 451.832 1600.94 471.909L1602.29 474.678C1616.48 503.952 1637.99 553.772 1655.93 604.061C1665.2 630.029 1673.59 656.333 1679.53 680.133C1685.4 703.654 1689.15 725.794 1688.49 743.016C1688.02 755.217 1684.27 765.852 1677.43 774.515C1670.68 783.055 1661.57 788.84 1651.65 792.637C1632.17 800.085 1607.46 800.675 1583.15 797.952C1558.49 795.191 1532.62 788.832 1509.87 780.968C1487.32 773.171 1466.83 763.552 1453.42 753.798C1429.94 736.727 1400.6 712.032 1337.98 708.41C1274.3 704.727 1174.96 722.903 1013.04 797.653C1013.03 797.659 1013.02 797.664 1013 797.67C879.921 858.632 766.388 876.247 678.819 871.177C591.873 866.142 529.076 838.578 499.44 807.264C497.078 804.767 495.715 801.489 495.614 798.053C494.77 769.355 504.872 715.689 521.732 659.804C538.682 603.622 563.202 542.722 592.588 499.731C593.984 497.689 595.896 496.053 598.13 494.99Z" stroke="#232323" stroke-width="28" stroke-linejoin="round"/>
<path d="M1019.23 594.622C1031.47 593.548 1044.2 596.299 1055.59 602.441C1061.31 605.523 1066.66 609.556 1071.23 613.58C1073.88 615.802 1076.26 618.118 1078.31 620.969C1078.86 621.612 1079.41 622.254 1079.96 622.897C1080.53 623.563 1081.1 624.229 1081.67 624.895C1082.35 625.699 1082.91 626.337 1083.42 627.389C1084.1 628.183 1084.56 628.774 1085.34 630.101C1087.19 632.846 1087.95 636.228 1087.8 639.428C1087.65 642.636 1086.57 645.9 1084.46 648.337C1081.76 651.558 1077.88 652.409 1074.44 651.34L1074.44 651.341L1070.67 650.214C1070.32 650.156 1070.03 650.046 1069.83 649.95C1069.53 649.808 1069.28 649.637 1069.14 649.542C1068.79 649.298 1068.69 649.206 1068.45 649.065L1068.23 648.941L1068.05 648.778L1066.63 647.529C1066.22 647.21 1065.84 646.996 1065.25 646.622C1064.8 646.334 1064.22 645.945 1063.67 645.393C1062.64 644.788 1061.69 644.185 1060.77 643.605C1059.76 642.958 1058.78 642.34 1057.73 641.73L1057.69 641.705L1057.64 641.678C1053.76 639.209 1049.52 637.179 1045.6 635.563C1037.45 632.364 1029.51 630.572 1021.43 630.971C1017.4 631.169 1013.39 631.796 1009.4 632.853C1008.71 633.156 1008.06 633.326 1007.62 633.445C1007.06 633.595 1006.77 633.682 1006.5 633.814C1005.72 634.196 1004.96 634.392 1004.46 634.526C1003.9 634.675 1003.61 634.762 1003.34 634.895C1002.17 635.469 1001.01 635.908 999.972 636.301C998.905 636.705 997.962 637.064 997.039 637.518C988.87 641.533 980.718 646.925 972.554 653.275L971.932 653.761L971.568 653.779C969.329 655.347 966.674 655.691 964.217 654.82C961.601 653.894 959.479 651.698 958.24 648.762C956.278 645.219 956.529 640.153 958.968 636.575C965.724 625.369 974.389 615.954 984.592 608.353C987.133 606.279 990.123 604.623 992.372 603.229C993.907 602.142 995.451 601.531 996.748 601.038C998.305 599.975 999.861 599.385 1001.15 598.898C1007.03 596.189 1012.96 594.937 1019.23 594.622Z" fill="#232323" stroke="#232323" stroke-width="5"/>
<path d="M1457.34 576.395C1469.61 575.803 1482.23 579.053 1493.37 585.639C1498.96 588.944 1504.14 593.184 1508.56 597.385C1511.11 599.71 1513.4 602.118 1515.34 605.047C1515.86 605.711 1516.39 606.375 1516.91 607.039C1517.45 607.727 1517.99 608.415 1518.54 609.102C1519.19 609.933 1519.72 610.592 1520.19 611.664C1520.83 612.484 1521.28 613.092 1522 614.449C1523.74 617.265 1524.37 620.674 1524.09 623.866C1523.82 627.065 1522.61 630.284 1520.4 632.637C1517.58 635.749 1513.67 636.446 1510.28 635.242L1510.28 635.243L1506.55 633.968C1506.2 633.897 1505.92 633.776 1505.72 633.672C1505.43 633.518 1505.18 633.337 1505.05 633.237C1504.71 632.979 1504.61 632.884 1504.37 632.733L1504.17 632.601L1503.99 632.431L1502.62 631.127C1502.22 630.792 1501.85 630.563 1501.28 630.166C1500.84 629.86 1500.27 629.449 1499.75 628.876C1498.74 628.23 1497.81 627.591 1496.92 626.975C1495.93 626.288 1494.98 625.633 1493.96 624.982L1493.91 624.955L1493.87 624.926C1490.09 622.306 1485.93 620.111 1482.08 618.342C1474.06 614.824 1466.2 612.721 1458.11 612.801C1454.08 612.841 1450.04 613.309 1446.01 614.208C1445.31 614.484 1444.66 614.629 1444.21 614.73C1443.65 614.857 1443.35 614.933 1443.07 615.055C1442.28 615.405 1441.52 615.571 1441.01 615.685C1440.45 615.813 1440.15 615.888 1439.87 616.01C1438.68 616.538 1437.51 616.93 1436.46 617.282C1435.37 617.644 1434.42 617.966 1433.48 618.383C1425.16 622.073 1416.8 627.14 1408.39 633.164L1407.75 633.624L1407.39 633.628C1405.09 635.107 1402.42 635.346 1400 634.379C1397.42 633.35 1395.39 631.072 1394.27 628.09C1392.44 624.472 1392.89 619.42 1395.47 615.941C1402.66 605.01 1411.69 595.943 1422.19 588.75C1424.81 586.778 1427.86 585.241 1430.16 583.936C1431.74 582.911 1433.31 582.361 1434.62 581.919C1436.22 580.919 1437.8 580.391 1439.1 579.954C1445.08 577.479 1451.06 576.461 1457.34 576.395Z" fill="#232323" stroke="#232323" stroke-width="5"/>
<path d="M774.049 1396.64C689.765 1474.61 618.1 1527.35 558.154 1559.8C189.464 1758.12 257.973 1184.8 539.674 968.904L593.31 1066.71L774.049 1396.64Z" fill="#F4D93B"/>
<path d="M558.232 1559.8C189.542 1758.11 258.051 1184.8 539.752 968.901L593.388 1066.71C519.47 1201.92 354.506 1542.22 558.232 1551.68C558.232 1551.23 558.232 1554.39 558.232 1559.8Z" fill="#EC2F2F" fill-opacity="0.14"/>
<path d="M548.408 993.98C512.224 1023.1 480.011 1057.52 451.77 1095.47C438.091 1114.45 424.853 1133.86 413.38 1154.6C401.466 1174.9 390.875 1195.64 381.167 1217.26C361.752 1260.06 346.748 1304.63 337.041 1350.52C332.187 1373.47 328.656 1396.42 327.333 1419.36C326.009 1442.31 326.45 1465.7 330.421 1487.32C334.393 1509.38 341.012 1530.56 352.926 1547.77C364.84 1564.54 381.609 1576.89 401.466 1582.19C411.615 1584.84 421.764 1585.72 432.796 1585.72C443.827 1585.28 454.418 1583.96 465.891 1581.31C487.954 1576.45 509.576 1568.51 530.757 1558.8C573.119 1539.39 613.274 1513.35 652.106 1485.55C690.938 1457.75 728.004 1427.31 764.629 1396.42C767.718 1393.77 771.69 1394.21 773.896 1397.3C776.102 1399.95 776.102 1403.92 773.455 1406.12C739.477 1440.54 703.293 1473.2 665.785 1503.64C646.811 1518.65 627.395 1533.65 606.655 1546.89C585.916 1560.13 565.176 1573.36 543.113 1584.4C521.049 1595.43 497.662 1604.69 472.51 1611.31C460.154 1614.4 446.916 1616.17 434.12 1617.05C420.881 1617.49 407.202 1616.61 393.964 1613.52C387.345 1611.76 380.726 1609.55 374.107 1606.9C367.488 1604.25 361.31 1600.72 355.574 1596.75C343.66 1588.81 333.952 1578.66 326.009 1567.19C322.037 1561.45 318.507 1555.71 315.418 1549.98C312.33 1543.8 309.682 1537.62 307.475 1531.89C305.269 1525.71 303.063 1519.53 301.298 1513.35C299.533 1507.17 298.209 1500.56 296.885 1494.38C292.472 1468.78 291.59 1443.63 292.914 1418.48C294.237 1393.33 297.768 1368.62 303.063 1344.35C313.212 1295.81 329.539 1248.59 350.279 1203.58C360.428 1181.08 371.901 1159.46 384.697 1138.27C397.494 1117.09 411.174 1096.8 426.177 1076.94C456.183 1037.67 491.043 1001.48 531.199 971.916C537.818 967.062 546.643 968.386 551.497 975.005C555.91 980.3 554.586 989.126 548.408 993.98Z" fill="#232323"/>
<path d="M879.58 1972.63C982.795 1995.62 1052.66 2022.66 1052.66 2022.66L1079.25 1989.76L1066.63 1972.63H879.58Z" fill="#232323"/>
<path d="M1143.22 2029.86C1301.88 1954.59 1599.35 1932.51 1599.35 1932.51L1561.49 1891.94L1463.24 1928.45L1291.06 1964.06L1122.04 1972.62L1143.22 2029.86Z" fill="#232323"/>
<path d="M392.847 1646.75C583.052 1662.07 702.042 1466.91 702.042 1466.91L593.869 1555.25L496.513 1587.71L410.426 1601.23L390.594 1613.4L392.847 1646.75Z" fill="#232323"/>
<path d="M1127.56 743.883C1239.81 664.625 1297.88 656.099 1422.44 725.818C1451.49 741.928 1444.51 770.336 1421.03 781.759C1364.88 809.115 1201.36 822.172 1135.1 804.453C1104.37 795.979 1096.94 765.534 1127.5 743.832L1127.56 743.883Z" fill="#FF814A"/>
<path d="M1119.35 732.24C1159.37 705.233 1204.06 678.454 1252.93 669.63C1302.88 660.343 1354.43 677.208 1398.4 698.138C1407.7 702.245 1416.61 707.098 1425.67 711.664C1431.97 714.818 1438.83 718.874 1443.91 724.325C1465.16 744.407 1457.26 778.684 1433.26 792.853C1424.2 798.461 1412.27 802.72 1402.18 806.243C1333.51 828.556 1185.76 843.444 1119 815.255C1082.04 795.881 1087.09 752.623 1119.35 732.295L1119.35 732.24ZM1135.79 755.533C1118.27 768.309 1118.44 785.05 1141.4 789.255L1151.93 791.23C1211.92 798.273 1276.13 793.852 1336.48 786.163C1358.97 782.881 1381.58 778.873 1403.21 771.891C1403.85 771.46 1414.48 767.733 1415.05 767.141C1420.35 764.67 1425.43 759.893 1426.53 754.177C1427.92 746.395 1418.99 739.608 1412.11 736.107C1403.65 731.388 1395.16 726.23 1386.52 721.967C1283.1 666.145 1224.82 689.006 1135.73 755.481L1135.79 755.533Z" fill="#232323"/>
<path d="M486.675 983.465C488.917 978.979 493.645 976.29 498.646 976.655C758.176 995.602 983.989 1121.13 1113.14 1179.21C1118.46 1181.61 1121.39 1187.39 1120.17 1193.1C1118.94 1198.8 1113.9 1202.88 1108.06 1202.88C1079.26 1202.88 1031.4 1195.62 986.492 1190.39C963.644 1187.72 941.242 1185.53 921.479 1184.83C901.461 1184.13 885.243 1185.01 874.269 1187.96C873.771 1188.09 873.265 1188.19 872.755 1188.26C616.602 1223.59 456.649 1307.93 359.899 1413.06C263.197 1518.15 228.291 1645.47 225.111 1769.49C221.928 1893.65 250.591 2013.87 280.38 2103.48C295.254 2148.22 310.359 2185.17 321.795 2210.97C327.512 2223.87 332.305 2233.96 335.686 2240.83C337.377 2244.27 338.707 2246.89 339.615 2248.63C340.072 2249.51 340.407 2250.14 340.618 2250.52C340.656 2250.59 340.687 2250.65 340.711 2250.69C342.922 2254.24 343.228 2258.73 341.36 2262.61C339.078 2267.35 334.049 2270.13 328.822 2269.54C164.529 2251.01 82.0427 2179.97 41.8291 2125.41C13.0321 2086.34 8.37088 2032.62 15.0732 1987.48C53.5397 1728.39 145.757 1518.03 228.808 1371.75C270.341 1298.61 309.608 1241.44 338.771 1202.17C353.353 1182.53 365.41 1167.37 373.958 1156.92C378.233 1151.7 381.624 1147.66 384.004 1144.85C384.366 1144.42 384.693 1144.03 384.994 1143.68C385.401 1107.79 401.064 1086.33 417.053 1073.63C425.132 1067.21 433.041 1063.22 438.196 1060.72C438.51 1060.57 438.802 1060.43 439.076 1060.3C443.34 1038.91 454.699 1021.11 465.047 1008.02C470.687 1000.88 476.237 994.882 480.411 990.383C482.559 988.067 484.203 986.299 485.449 984.859C486.914 983.167 486.956 982.902 486.675 983.465Z" fill="#E82117" stroke="#232323" stroke-width="24.7548" stroke-linejoin="round"/>
<path d="M1622.49 990.144C1654.09 979.398 1684.08 974.274 1706.33 982.06C1706.66 982.175 1706.98 982.304 1707.3 982.449C1713.09 985.111 1716.86 990.774 1719.11 995.267C1721.64 1000.31 1723.54 1006.44 1724.42 1012.89C1725.35 1019.66 1725.25 1027.53 1723.06 1035.18C1728.62 1035.28 1735.05 1035.74 1741.43 1037.14C1751.08 1039.25 1761.98 1043.8 1769.35 1053.89C1775.88 1062.84 1778.46 1074.52 1776.91 1088.9C1778.1 1089.76 1779.49 1090.75 1781.52 1092.25C1787.56 1096.7 1795.77 1103.08 1803.67 1111.17C1819.21 1127.08 1835.49 1151.71 1828.35 1182.69C1827.55 1186.14 1825.15 1189.01 1821.89 1190.39C1818.63 1191.78 1814.9 1191.52 1811.87 1189.69C1780.74 1170.99 1762.48 1161.26 1746.99 1156.49C1732.13 1151.91 1719.31 1151.75 1698.51 1153.96C1676.96 1156.25 1590.58 1160.58 1507.49 1166.75C1465.66 1169.86 1424.43 1173.44 1391.93 1177.49C1375.66 1179.52 1361.77 1181.64 1351.16 1183.83C1345.85 1184.93 1341.54 1186.02 1338.25 1187.06C1334.74 1188.17 1333.19 1189 1332.8 1189.27C1327.88 1192.72 1321.11 1191.6 1317.54 1186.77C1313.98 1181.93 1314.93 1175.14 1319.68 1171.46C1367.29 1134.57 1443.34 1080.85 1516.95 1039.52C1553.72 1018.87 1590.24 1001.11 1622.49 990.144Z" fill="#E82117" stroke="#232323" stroke-width="22.1312" stroke-linejoin="round"/>
<path d="M1335.1 1079.01L1118.82 1091.22C1113.59 1091.52 1108.84 1094.36 1106.09 1098.82L1069.68 1158C1065.5 1164.8 1066.96 1173.64 1073.12 1178.72L1212.35 1293.74C1233.85 1311.49 1265.71 1308.24 1283.17 1286.5L1388.51 1155.4C1393.2 1149.57 1393.22 1141.28 1388.57 1135.42L1348.52 1085.03C1345.29 1080.97 1340.28 1078.72 1335.1 1079.01Z" fill="#58BF43" stroke="#E82117" stroke-width="29" stroke-linejoin="round"/>
<path d="M1222.89 1196.15C1223.47 1195.96 1224.05 1195.96 1224.62 1195.96C1230.02 1195.57 1235.79 1195.38 1241.19 1195C1247.35 1194.61 1252.74 1194.42 1258.71 1194.04C1260.45 1193.85 1262.37 1193.46 1263.91 1192.89C1272.39 1190.01 1275.08 1181.75 1272.77 1172.91C1269.31 1159.85 1258.71 1148.91 1245.42 1146.03C1227.7 1141.99 1208.25 1150.06 1200.36 1166.58C1197.47 1172.53 1196.12 1180.21 1196.7 1187.32C1198.04 1208.63 1215.38 1224.19 1236.76 1224C1245.23 1224 1253.71 1222.27 1260.64 1217.66C1265.65 1214.4 1271.23 1210.17 1269.69 1203.45C1268.34 1198.07 1263.53 1194.61 1258.14 1196.54C1256.4 1197.11 1254.86 1198.07 1253.32 1199.03C1251.2 1200.18 1249.08 1201.53 1246.77 1202.3C1240.8 1204.6 1231.17 1204.99 1225.39 1201.72C1224.24 1200.95 1222.12 1199.61 1221.73 1198.26C1221.35 1197.5 1221.93 1196.54 1222.89 1196.15ZM1221.54 1177.14C1220.77 1176.95 1220.19 1176.37 1220.19 1175.6C1220.19 1175.03 1220.39 1174.26 1220.58 1173.68C1223.08 1167.92 1229.05 1164.85 1235.6 1164.85C1241.38 1164.65 1247.35 1166.96 1250.43 1172.53C1250.62 1172.91 1250.82 1173.3 1250.82 1173.68C1250.82 1174.07 1250.82 1174.45 1250.62 1174.83C1250.24 1175.6 1249.47 1175.99 1248.51 1175.99C1241.76 1176.37 1229.82 1176.95 1222.7 1177.33C1222.31 1177.33 1221.93 1177.33 1221.54 1177.14Z" fill="white"/>
<path d="M1334.13 1055.2C1346.81 1054.48 1359.05 1059.97 1366.94 1069.91L1407.59 1121.06C1418.96 1135.36 1418.9 1155.63 1407.46 1169.87L1300.28 1303.25C1275.31 1334.34 1229.73 1339 1198.98 1313.6L1057.44 1196.69C1042.41 1184.27 1038.83 1162.67 1049.05 1146.06L1086 1086L1086.32 1085.49C1093.07 1074.89 1104.52 1068.16 1117.09 1067.45L1334.13 1055.2ZM1124.25 1114.79L1093.55 1164.69L1229.33 1276.85C1239.59 1285.33 1254.8 1283.77 1263.13 1273.4L1366.02 1145.35L1332.39 1103.03L1124.25 1114.79Z" fill="#E82117" stroke="#232323" stroke-width="20" stroke-linejoin="round"/>
<path d="M2993.35 2097.26C2994.5 2105.19 2990.22 2112.96 2982.81 2116.18C2980.12 2117.35 2977.76 2117.54 2977.56 2117.56C2976.83 2117.64 2976.24 2117.66 2975.96 2117.66C2975.37 2117.67 2974.88 2117.65 2974.67 2117.64C2974.18 2117.62 2973.72 2117.58 2973.41 2117.56C2972.74 2117.5 2971.91 2117.41 2971 2117.31C2969.15 2117.11 2966.56 2116.81 2963.36 2116.42C2956.95 2115.64 2947.89 2114.5 2937.05 2113.1C2915.36 2110.3 2886.44 2106.46 2857.16 2102.45C2827.9 2098.44 2798.21 2094.25 2774.99 2090.73C2763.4 2088.97 2753.32 2087.37 2745.69 2086.04C2741.88 2085.37 2738.56 2084.75 2735.91 2084.19C2733.78 2083.75 2730.65 2083.07 2728.21 2082.1C2725.98 2081.22 2723.68 2079.73 2723.08 2079.34C2721.76 2078.52 2720.12 2077.43 2718.22 2076.16C2714.39 2073.59 2709.14 2069.97 2702.67 2065.46C2689.7 2056.43 2671.55 2043.6 2649.46 2027.9C2605.27 1996.48 2545.15 1953.4 2478.86 1905.74C2346.25 1810.42 2188.82 1696.7 2084.29 1621.06C2078.16 1616.62 2075.5 1608.81 2077.65 1601.56L2106.41 1504.29C2108.86 1496 2116.92 1490.66 2125.51 1491.63L2205.02 1500.62C2207.53 1500.9 2209.95 1501.72 2212.13 1503.01L2213.71 1503.95L2846.18 1862.61L2846.63 1862.87C2848.84 1864.22 2850.74 1866.03 2852.19 1868.18C2874.6 1901.56 2908.44 1952.74 2937.11 1997.82C2951.44 2020.34 2964.57 2041.47 2974.35 2058.14C2979.24 2066.46 2983.4 2073.85 2986.49 2079.83C2988.03 2082.81 2989.39 2085.62 2990.47 2088.13C2991.43 2090.35 2992.63 2093.39 2993.22 2096.5L2993.35 2097.26Z" fill="white" stroke="#232323" stroke-width="33.1901" stroke-linejoin="round"/>
<path d="M2211.03 1600.63C2447.22 1749.12 2887.92 2003.8 2982.6 2103.95L2738.98 2089.89L2137.56 1660.04L2183.15 1617.33L2211.03 1600.63Z" fill="black" fill-opacity="0.08"/>
<path d="M2993.35 2097.26C2994.5 2105.19 2990.22 2112.96 2982.81 2116.18C2980.12 2117.35 2977.76 2117.54 2977.56 2117.56C2976.83 2117.64 2976.24 2117.66 2975.96 2117.66C2975.37 2117.67 2974.88 2117.65 2974.67 2117.64C2974.18 2117.62 2973.72 2117.58 2973.41 2117.56C2972.74 2117.5 2971.91 2117.41 2971 2117.31C2969.15 2117.11 2966.56 2116.81 2963.36 2116.42C2956.95 2115.64 2947.89 2114.5 2937.05 2113.1C2915.36 2110.3 2886.44 2106.46 2857.16 2102.45C2827.9 2098.44 2798.21 2094.25 2774.99 2090.73C2763.4 2088.97 2753.32 2087.37 2745.69 2086.04C2741.88 2085.37 2738.56 2084.75 2735.91 2084.19C2733.78 2083.75 2730.65 2083.07 2728.21 2082.1C2725.98 2081.22 2723.68 2079.73 2723.08 2079.34C2721.76 2078.52 2720.12 2077.43 2718.22 2076.16C2714.39 2073.59 2709.14 2069.97 2702.67 2065.46C2689.7 2056.43 2671.55 2043.6 2649.46 2027.9C2605.27 1996.48 2545.15 1953.4 2478.86 1905.74C2346.25 1810.42 2188.82 1696.7 2084.29 1621.06C2078.16 1616.62 2075.5 1608.81 2077.65 1601.56L2106.41 1504.29C2108.86 1496 2116.92 1490.66 2125.51 1491.63L2205.02 1500.62C2207.53 1500.9 2209.95 1501.72 2212.13 1503.01L2213.71 1503.95L2846.18 1862.61L2846.63 1862.87C2848.84 1864.22 2850.74 1866.03 2852.19 1868.18C2874.6 1901.56 2908.44 1952.74 2937.11 1997.82C2951.44 2020.34 2964.57 2041.47 2974.35 2058.14C2979.24 2066.46 2983.4 2073.85 2986.49 2079.83C2988.03 2082.81 2989.39 2085.62 2990.47 2088.13C2991.43 2090.35 2992.63 2093.39 2993.22 2096.5L2993.35 2097.26Z" stroke="#232323" stroke-width="33.1901" stroke-linejoin="round"/>
<path d="M2130.45 1472.03C2138.23 1477.15 2140.79 1487.47 2136.17 1495.67L2090.04 1577.57C2087.6 1581.9 2083.47 1585.01 2078.64 1586.17C2073.81 1587.32 2068.72 1586.4 2064.59 1583.64C1995.74 1537.6 1856.27 1444.5 1845.01 1437.59C1836.68 1432.48 1826.53 1424.78 1820.75 1412.65C1814.61 1399.77 1814.81 1385.04 1821.06 1369.06C1825.42 1357.22 1831.76 1347.86 1840.08 1341.3C1848.51 1334.64 1857.86 1331.73 1866.7 1331.08C1883.5 1329.83 1898.85 1336.65 1906.89 1341.04C1918.43 1347.34 2060.52 1430.85 2129.68 1471.56L2130.45 1472.03Z" fill="#FF6802" stroke="#232323" stroke-width="33.1901" stroke-linejoin="round"/>
<path d="M1831.24 1389.14C1884.71 1370.18 2027.38 1449.79 2092.03 1491.96L2109.94 1468.14L2116.84 1450.63L2053.6 1419.31L1958.26 1372.14L1891.69 1338.44L1841.65 1335.74C1833.12 1348.35 1819.11 1376.69 1831.24 1389.14Z" fill="black" fill-opacity="0.3"/>
<path d="M2130.45 1472.03C2138.23 1477.15 2140.79 1487.47 2136.17 1495.67L2090.04 1577.57C2087.6 1581.9 2083.47 1585.01 2078.64 1586.17C2073.81 1587.32 2068.72 1586.4 2064.59 1583.64C1995.74 1537.6 1856.27 1444.5 1845.01 1437.59C1836.68 1432.48 1826.53 1424.78 1820.75 1412.65C1814.61 1399.77 1814.81 1385.04 1821.06 1369.06C1825.42 1357.22 1831.76 1347.86 1840.08 1341.3C1848.51 1334.64 1857.86 1331.73 1866.7 1331.08C1883.5 1329.83 1898.85 1336.65 1906.89 1341.04C1918.43 1347.34 2060.52 1430.85 2129.68 1471.56L2130.45 1472.03Z" stroke="#232323" stroke-width="33.1901" stroke-linejoin="round"/>
<path d="M2287.84 1437.32C2286.16 1446.49 2280.9 1454.99 2276.03 1461.71C2270.87 1468.83 2264.41 1476.2 2258.12 1483.18C2246.24 1496.36 2235.21 1508.01 2228.19 1518.35C2226.35 1594.7 2180.96 1636.18 2143.6 1653.64C2132.59 1662.18 2120.4 1679.87 2109.61 1698.71C2104.27 1708.03 2099.68 1716.88 2096.12 1723.82C2094.38 1727.21 2092.79 1730.33 2091.54 1732.68C2090.91 1733.85 2090.26 1735.04 2089.64 1736.08C2089.53 1736.28 2089.29 1736.68 2088.96 1737.2C2085.8 1743.91 2080.64 1749.66 2073.15 1752.79C2065.37 1756.04 2057.56 1755.4 2051.53 1753.92C2039.92 1751.07 2028.22 1743.43 2019.06 1736.46C2009.4 1729.12 2000.34 1720.79 1993.78 1714.45C1990.48 1711.25 1987.74 1708.49 1985.83 1706.55C1984.83 1705.53 1984.18 1704.87 1983.69 1704.37C1983.64 1704.32 1983.61 1704.28 1983.57 1704.25C1980.68 1701.66 1978.67 1698.16 1977.94 1694.23C1976.81 1688.19 1978.88 1682 1983.4 1677.84C2019.04 1645.07 2036.09 1620.67 2044.06 1605.46C2048.05 1597.85 2049.69 1592.67 2050.31 1590C2050.34 1589.86 2050.37 1589.73 2050.4 1589.61C2040.89 1540.03 2058.73 1507.32 2080.76 1487.51C2099.98 1470.24 2122.99 1462.88 2125.17 1462.39C2145.05 1451.56 2156.95 1433.54 2164.15 1416.76C2167.77 1408.31 2170.06 1400.51 2171.52 1394.7C2172.25 1391.78 2172.77 1389.42 2173.19 1387.53C2173.37 1386.7 2173.61 1385.61 2173.86 1384.69C2173.96 1384.3 2174.21 1383.37 2174.6 1382.34C2174.78 1381.87 2175.22 1380.76 2175.98 1379.48C2176.2 1379.1 2178.66 1374.55 2184.3 1372.1C2185.25 1371.69 2186.24 1371.36 2187.26 1371.12C2224.5 1362.21 2250.4 1376.34 2266.17 1393.27C2280.97 1409.14 2287.04 1427.9 2286.65 1427C2288.06 1430.25 2288.47 1433.84 2287.84 1437.32ZM1988.36 1707.32C1988.17 1707.24 1987.97 1707.15 1987.78 1707.05C1987.97 1707.14 1988.16 1707.23 1988.36 1707.32Z" fill="#58BF43" stroke="#232323" stroke-width="33.1901" stroke-linejoin="round"/>
<path d="M2210.05 1514C2243.23 1438.49 2204.51 1397.53 2182.24 1395.49L2177.41 1386.14L2178.48 1378.04L2202.21 1379.94L2246.46 1362.25L2286.29 1420.55L2294.89 1447.36L2260.86 1485.05L2232.14 1517.39L2216.9 1596.56C2211.92 1593.89 2222.47 1533.81 2210.05 1514Z" fill="black" fill-opacity="0.3"/>
<path d="M2287.84 1437.32C2286.16 1446.49 2280.9 1454.99 2276.03 1461.71C2270.87 1468.83 2264.41 1476.2 2258.12 1483.18C2246.24 1496.36 2235.21 1508.01 2228.19 1518.35C2226.35 1594.7 2180.96 1636.18 2143.6 1653.64C2132.59 1662.18 2120.4 1679.87 2109.61 1698.71C2104.27 1708.03 2099.68 1716.88 2096.12 1723.82C2094.38 1727.21 2092.79 1730.33 2091.54 1732.68C2090.91 1733.85 2090.26 1735.04 2089.64 1736.08C2089.53 1736.28 2089.29 1736.68 2088.96 1737.2C2085.8 1743.91 2080.64 1749.66 2073.15 1752.79C2065.37 1756.04 2057.56 1755.4 2051.53 1753.92C2039.92 1751.07 2028.22 1743.43 2019.06 1736.46C2009.4 1729.12 2000.34 1720.79 1993.78 1714.45C1990.48 1711.25 1987.74 1708.49 1985.83 1706.55C1984.83 1705.53 1984.18 1704.87 1983.69 1704.37C1983.64 1704.32 1983.61 1704.28 1983.57 1704.25C1980.68 1701.66 1978.67 1698.16 1977.94 1694.23C1976.81 1688.19 1978.88 1682 1983.4 1677.84C2019.04 1645.07 2036.09 1620.67 2044.06 1605.46C2048.05 1597.85 2049.69 1592.67 2050.31 1590C2050.34 1589.86 2050.37 1589.73 2050.4 1589.61C2040.89 1540.03 2058.73 1507.32 2080.76 1487.51C2099.98 1470.24 2122.99 1462.88 2125.17 1462.39C2145.05 1451.56 2156.95 1433.54 2164.15 1416.76C2167.77 1408.31 2170.06 1400.51 2171.52 1394.7C2172.25 1391.78 2172.77 1389.42 2173.19 1387.53C2173.37 1386.7 2173.61 1385.61 2173.86 1384.69C2173.96 1384.3 2174.21 1383.37 2174.6 1382.34C2174.78 1381.87 2175.22 1380.76 2175.98 1379.48C2176.2 1379.1 2178.66 1374.55 2184.3 1372.1C2185.25 1371.69 2186.24 1371.36 2187.26 1371.12C2224.5 1362.21 2250.4 1376.34 2266.17 1393.27C2280.97 1409.14 2287.04 1427.9 2286.65 1427C2288.06 1430.25 2288.47 1433.84 2287.84 1437.32ZM1988.36 1707.32C1988.17 1707.24 1987.97 1707.15 1987.78 1707.05C1987.97 1707.14 1988.16 1707.23 1988.36 1707.32Z" stroke="#232323" stroke-width="33.1901" stroke-linejoin="round"/>
<path d="M2097.27 1530.54C2079.47 1560.72 2083.44 1596.04 2106.14 1609.43C2128.84 1622.82 2161.67 1609.21 2179.48 1579.03C2197.28 1548.85 2193.3 1513.53 2170.6 1500.14C2147.9 1486.75 2115.07 1500.36 2097.27 1530.54Z" fill="#F4D93B"/>
<path d="M2047.56 1525H2001.56L1939.56 1485.5L1899.06 1459.5L1811.06 1443L1860.06 1525L1954.06 1561.5L1989.06 1549.5H2030.06L2047.56 1525Z" fill="#232323"/>
<path d="M1949.56 1557.5C1917.56 1555.1 1851.9 1483.5 1823.06 1448L1819.06 1475.5L1812.06 1539.5L1819.06 1568L1902.56 1573.5C1913.73 1571.83 1938.76 1566.3 1949.56 1557.5Z" fill="#232323"/>
</svg>
