<svg width="394" height="292" viewBox="0 0 394 292" fill="none" xmlns="http://www.w3.org/2000/svg">
<path d="M304.696 33.842L88.1262 38.6457C82.8908 38.7618 78.0435 41.4326 75.1484 45.7964L36.7311 103.703C32.3191 110.353 33.4824 119.238 39.4579 124.528L174.677 244.239C195.551 262.72 227.508 260.558 245.703 239.435L355.467 112.011C360.347 106.347 360.653 98.058 356.205 92.0489L317.91 40.3183C314.818 36.1417 309.891 33.7267 304.696 33.842Z" fill="#58BF43" stroke="#E82117" stroke-width="29" stroke-linejoin="round"/>
<path d="M188.546 147.071C189.13 146.898 189.707 146.918 190.285 146.938C195.688 146.739 201.469 146.744 206.872 146.545C213.045 146.372 218.441 146.365 224.421 146.185C226.16 146.052 228.098 145.734 229.658 145.211C238.226 142.622 241.203 134.461 239.196 125.553C236.178 112.383 225.965 101.08 212.782 97.7459C195.211 93.1089 175.494 100.505 167.037 116.741C163.946 122.592 162.335 130.224 162.67 137.345C163.288 158.696 180.079 174.836 201.452 175.376C209.922 175.666 218.45 174.229 225.538 169.859C230.654 166.768 236.381 162.736 235.071 155.966C233.908 150.545 229.214 146.926 223.758 148.66C222.006 149.177 220.433 150.084 218.861 150.991C216.704 152.07 214.54 153.341 212.204 154.03C206.158 156.129 196.521 156.183 190.858 152.722C189.729 151.915 187.658 150.499 187.319 149.142C186.96 148.361 187.57 147.422 188.546 147.071ZM187.849 128.023C187.086 127.804 186.528 127.209 186.554 126.441C186.574 125.865 186.793 125.104 187.005 124.535C189.704 118.862 195.777 115.996 202.321 116.22C208.103 116.225 213.991 118.733 216.88 124.405C217.06 124.795 217.239 125.186 217.226 125.569C217.213 125.953 217.199 126.337 216.994 126.714C216.583 127.469 215.799 127.827 214.837 127.794C208.087 127.947 196.133 128.114 188.997 128.254C188.612 128.241 188.227 128.228 187.849 128.023Z" fill="white"/>
<path d="M304.55 10.0085C317.243 9.727 329.282 15.6285 336.836 25.833L375.71 78.3443C386.578 93.0261 385.83 113.278 373.908 127.117L262.232 256.761C236.204 286.976 190.493 290.068 160.633 263.634L23.1804 141.945C8.58115 129.02 5.73835 107.313 16.5179 91.0644L55.5038 32.3004L55.8392 31.8034C62.9479 21.4364 74.6207 15.1085 87.2121 14.8291L304.55 10.0085ZM92.7441 62.3797L60.3543 111.201L192.225 227.948C202.187 236.767 217.438 235.735 226.121 225.655L333.329 101.199L301.169 57.7569L92.7441 62.3797Z" fill="#E82117" stroke="#232323" stroke-width="20" stroke-linejoin="round"/>
</svg>
