<svg width="1920" height="1080" viewBox="0 0 1920 1080" fill="none" xmlns="http://www.w3.org/2000/svg">
<g clip-path="url(#clip0_98_9392)">
<rect width="1920" height="1080" fill="url(#paint0_linear_98_9392)"/>
<rect x="1.49219" y="181.176" width="1907.18" height="958.059" fill="#A5C508"/>
<rect x="1.49219" y="398.715" width="1907.18" height="740.521" fill="#C1DF28"/>
<path d="M1920 1046.93H1.48438V321.625C6.67275 316.427 13.535 313.89 20.1982 311.031C20.4363 303.997 20.2728 296.168 19.292 289.353C13.3344 247.956 51.9982 243.551 69.71 216.823C74.3655 209.797 72.8733 199.7 75.1064 194.118C75.3291 189.351 76.953 181.944 77.8711 177.054C81.7392 166.407 85.058 162.649 93.1709 155.336C92.6271 148.174 90.2125 125.998 100.46 124.81C109.031 131.073 104.734 150.873 109.98 155.533C117.906 152.622 133.843 134.744 149.728 130.449C170.774 124.759 184.45 123.468 204.733 133.161C228.535 96.431 254.93 71.1169 301.424 73.9531C309.825 74.4651 326.307 78.9285 333.594 76.6729C338.825 74.0545 400.675 33.4515 401.467 31.8418C401.742 31.5881 402.49 30.8268 402.739 30.6689C429.983 13.4093 462.086 5.73585 494.111 8.96289C501.853 9.74302 516.182 14.8375 520.374 20.1875C528.812 27.7009 537.33 35.3443 546.628 41.7471C554.42 47.1127 571.831 54.7477 577.557 61.0342C592.848 77.8233 605.883 99.1388 620.246 117.044C622.439 119.777 627.067 127.125 628.549 128.58C638.536 138.389 653.047 146.749 661.778 157.746C669.797 167.846 668.411 184.213 673.152 195.653C675.652 201.685 682.213 208.814 686.325 214.067C689.248 217.802 689.854 221.293 692.751 223.923L693.285 223.863L692.929 220.687C694.431 219.536 763.839 220.379 770.696 220.375L1051.18 221.365C1093.02 220.938 1134.85 221.109 1176.68 221.879C1189.14 222.139 1206.47 221.214 1218.26 222.413L1218.26 222.414C1206.47 221.216 1189.14 222.141 1176.68 221.881C1134.85 221.111 1093.02 220.939 1051.18 221.366L770.698 220.376C763.841 220.38 694.425 219.538 692.931 220.688L693.288 223.864C706.697 235.612 710.308 249.716 720.418 261.445C721.595 264.397 730.518 281.418 730.529 281.304L729.971 281.872C740.912 294.35 757.902 295.465 757.699 308.776C757.251 338.132 770.698 337.629 784.079 352.135C803.264 366.294 795.91 373.253 807.969 393.202C810.791 400.081 815.31 402.856 821.142 407.41L821.14 407.411C823.791 411.61 830.207 423.109 832.746 426.01C839.527 433.759 846.477 437.382 852.375 446.995H854.794C859.363 437.031 874.426 483.691 878.401 474.418C894.563 475.196 899.463 477.054 915.973 478.688C922.107 489.336 940.75 463.167 945.415 474.906C955.86 465.446 964.179 456.504 977.706 451.929C977.669 442.814 977.696 433.698 977.78 424.583C985.096 422.039 1012.14 411.242 1016.66 413.241C1016.89 416.066 1016.79 421.522 1017.85 423.377L1019.98 422.642L1035.5 407.502C1035.25 407.378 1034.93 407.265 1034.56 407.162L1034.56 407.163C1034.94 407.266 1035.25 407.379 1035.5 407.503C1045.34 396.52 1070.53 382.368 1083.59 374.116C1086.82 372.081 1101.93 372.075 1106.26 366.295C1108.86 364.874 1112.19 364.103 1115.08 363.272C1113.8 358.473 1114.53 352.386 1114.82 347.315C1114.75 349.733 1114.52 350.296 1115.85 352.135C1120.45 351.576 1124.63 343.307 1128.35 340.056C1130.82 337.908 1133.3 336.121 1135.92 334.21C1133.17 325.245 1133.8 311.245 1136.28 302.371C1140.08 288.559 1149.24 276.851 1161.71 269.863C1178.17 260.771 1201.99 259.122 1220 264.178L1220.33 257.049L1220.23 246.089C1220.23 246.087 1220.23 246.084 1220.23 246.082C1220.72 208.759 1219.7 166.552 1234.51 131.563L1226.46 124.775C1231.58 107.757 1241.76 96.5018 1253.66 83.8613C1272.81 63.5295 1287.95 53.1154 1314.39 44.8027C1314.77 38.5079 1317.34 30.7162 1318.24 24.3516C1318.65 21.4692 1315.62 19.3545 1313.37 16.9697C1312.05 2.46394 1332.15 -21.9282 1340.98 -33.4531H1920V1046.93ZM1034.26 407.087C1034.25 407.085 1034.24 407.083 1034.23 407.081C1034.24 407.083 1034.25 407.085 1034.26 407.087Z" fill="url(#paint1_linear_98_9392)"/>
<path d="M278.102 226.076C234.794 223.44 210.208 246.97 188.037 281.112C169.143 272.101 156.404 273.302 136.8 278.591C122.004 282.584 107.159 299.201 99.7773 301.907C105.476 304.512 105.299 322.15 107.223 328.683C118.892 368.304 118.035 398.681 121.371 439.688C124.665 480.175 126.494 514.224 127.919 554.874C128.409 568.824 138.746 579.545 127.919 588.484C131.716 629.809 136.606 677.678 136.785 718.944C142.865 702.859 148.755 686.223 152.43 671.619C157.231 652.532 165.056 606.02 187.451 600.926C244.04 588.054 198.822 709.69 193.001 723.166C189.322 731.655 185.453 740.059 181.397 748.374C183.327 755.907 185.351 763.416 187.466 770.899C192.498 770.872 195.793 770.661 200.738 771.903C200.365 770.698 198.562 765.089 199.028 764.022C207.569 744.488 220.355 725.924 229.943 707.019C239.639 687.9 247.982 672.811 264.717 659.118C258.527 680.768 262.57 678.261 273.681 695.036C275.268 697.429 274.549 699.096 277.508 700.897C285.523 697.603 282.981 682.907 286.754 676.763C292.928 673.897 294.484 677.026 300.859 679.08C310.095 670.325 310.126 639.865 310.235 627.237C318.624 645.415 303.075 647.79 328.038 651.258C328.938 651.384 330.312 656.907 334.702 656.896C338.477 653.962 339.371 642.479 340.237 637.173C340.609 638.085 340.994 638.993 341.392 639.894C342.508 642.399 343.338 644.037 345.861 644.988C349.311 642.693 347.636 639.53 351.52 636.535C353.78 637.441 359.757 639.136 360.824 636.535C367.103 621.242 372.39 609.378 380.867 595.215C380.997 602.56 380.412 619.508 386.236 624.042C388.932 623.436 388.636 623.012 390.763 620.757C393.904 620.004 400.707 621.749 404.194 622.438C411.532 617.903 408.107 598.818 411.443 593.123C413.993 588.769 420.801 572.536 423.238 569.713C425.666 570.016 426.182 570.219 428.497 569.642C431.218 566.686 430.248 564.34 432.27 560.066C438.136 560.661 437.819 559.308 440.797 554.874C441.272 545.654 443.799 517.308 440.501 510.438L454.209 478.427L471.426 439.688L476.507 399.254C477.503 392.66 477.665 372.308 474.382 367.525C466.58 356.154 475.118 336.964 471.426 328.683C464.244 312.576 458.425 292.681 446.797 279.55C443.962 276.35 432.01 271.329 428.339 267.612C410.704 247.825 396.38 234.632 369.595 230.21C359.834 228.599 312.18 231.418 308.067 228.604C301.279 230.701 285.927 226.552 278.102 226.076Z" fill="#748E03"/>
<path d="M396.675 564.97C401.248 544.528 401.234 537.718 407.844 516.422L407.106 541.08C409.787 544.053 412.221 546.765 414.72 549.891L414.136 551.15C409.328 550.731 409.514 547.224 406.735 548.249C405.389 554.372 403.995 578.29 403.595 585.6C410.66 592.54 416.024 598.288 421.919 606.331C414.837 602.096 410.818 599.661 404.723 593.781C403.551 609.791 402.688 623.413 402.875 639.566C404.733 635.359 406.769 629.703 411.175 627.856C414.626 628.892 415.444 632.891 416.726 636.183C419.762 636.977 418.781 634.319 422.859 635.088C426.479 641.791 424.087 673.813 432.57 684.475C436.937 674.064 431.053 639.593 432.757 627.806C433.227 624.552 437.409 623.308 437.537 622.605C438.404 617.824 438.571 607.379 441.986 603.715C448.584 603.028 449.811 618.109 450.138 622.784C450.409 627.17 450.588 631.562 450.676 635.955C452.594 631.878 456.911 621.371 459.784 619.048C463.955 618.308 465.013 620.079 467.832 622.983L469.521 621.2C472.208 621.554 474.256 624.145 476.279 626.393C472.844 640.059 468.053 657.121 465.91 670.668C471.461 661.223 476.457 641.35 480.904 637.903C483.29 637.544 483.65 637.324 485.762 638.241C491.24 645.75 478.455 674.177 476.234 683.242C480.545 681.477 485.039 679.713 489.252 677.758C491.202 662.983 492.754 658.039 490.18 643.114C489.289 637.947 491.662 610.558 494.387 607.128C498.906 606.385 500.01 610.134 500.75 613.868C505.414 637.422 495.457 654.745 491.74 677.24C501.869 673.116 513.774 669.403 523.462 665.004C533.327 660.525 553.959 643.564 563.919 642.637C566.227 643.622 565.434 642.832 566.507 644.941C563.747 651.072 550.159 662.416 544.721 668.207C560.179 663.798 565.607 668.237 580.438 671.045C592.999 673.422 599.433 670.278 610.295 678.793C610.283 676.269 609.868 672.511 611.112 670.601C612.671 675.077 609.945 680.69 617.433 682.77C631.829 686.771 642.689 693.035 654.748 701.838C662.889 707.782 664.963 709.569 674.067 704.1C677.828 702.141 688.072 701.177 692.075 698.842C695.87 697.108 702.318 689.976 705.86 687.695C716.37 680.93 741.113 678.299 752.448 682.866C764.425 687.692 769.224 688.182 773.965 700.647C775.097 703.625 778.211 708.749 780.265 711.242L781.198 711.251C783.289 703.789 780.924 693.618 790.84 692.882C799.298 697.084 794.58 707.805 801.46 716.146C804.078 721.18 801.637 729.805 803.55 735.957L804.606 735.512C807.934 725.206 804.89 727.041 812.602 720.807C814.72 719.094 811.768 711.823 819.571 706.717C828.208 706.601 823.935 724.941 826.239 730.101C827.247 729.354 831.052 727.648 831.44 727.228C834.589 723.813 829.266 716.688 834.537 713.583L836.944 714.999C837.776 717.161 837.373 717.249 838.911 718.091C839.51 712.389 838.805 703.947 842.495 700.339L847.179 700.653C849.756 698.751 849.548 696.936 850.671 693.246C862.459 695.085 865.267 724.953 868.412 735.164C868.829 726.119 868.469 713.019 881.603 715.384C883.885 712.355 884.589 711.17 887.818 709.141L889.885 709.045C892.902 712.762 891.631 729.075 892.645 734.921C893.542 740.099 894.001 742.183 895.573 747.285C895.899 741.161 895.566 731.104 899.785 726.655C901.514 726.179 901.61 726.178 903.314 726.151L903.472 726.148C904.997 719.033 902.918 699.817 912.318 700.033C915.101 702.95 914.819 706.801 916.677 710.758C918.611 707.162 919.48 704.532 923.029 702.585L925.035 702.593C929.218 706.816 930.909 724.146 932.807 731.279C934.206 736.347 936.144 741.25 938.587 745.903C958.468 735.008 971.609 714.959 998.127 715.831C1009.91 716.218 1022.61 714.403 1034.28 717.412C1044.23 719.793 1050.57 730.576 1056.36 738.546C1075.13 742.748 1074.47 747.976 1089.34 757.631C1086.72 747.898 1082.23 727.243 1086.09 717.878C1089.15 714.924 1091.6 715.52 1093.19 712.263C1095.15 708.28 1095.93 702.842 1100.9 702.591C1105.55 706.574 1105.42 713.075 1106.2 719.214C1107.39 716.385 1108.37 713.096 1110.82 711.393L1112.36 711.522C1115.17 715.047 1116.16 719.004 1118.72 719.609C1121.13 717.079 1121.21 716.005 1123.91 715.905C1128.04 719.241 1135.8 748.686 1140.3 758.25C1143.46 745.955 1146.58 732.651 1150.34 720.601C1151.59 716.624 1156.17 709.36 1158.02 704.913C1155 704.411 1149.97 699.47 1148.89 696.688C1150.92 696.386 1153.29 700.584 1156.96 702.841C1162.43 701.004 1163.61 693.033 1171.94 695.23C1172.41 696.567 1172.52 697.409 1173.64 698.255C1176.79 697.883 1177.88 697.91 1180.38 695.653C1184.07 697.603 1185.3 699.489 1188.38 702.254C1192.56 701.013 1200.95 690.525 1214.66 688.485C1237.93 685.024 1239.94 688.011 1257.69 700.169C1261.12 700.016 1264.55 697.206 1267.49 695.491C1274.35 691.488 1282.23 690.283 1290.07 690.035C1329.59 688.782 1329.87 723.673 1342.67 727.063C1344.52 725.306 1344.11 724.004 1344.57 720.925C1347.22 719.114 1347.07 719.797 1350.33 719.904C1354.53 720.042 1350.26 712.91 1354.6 708.16C1357.02 707.91 1356.95 708.398 1359.36 709.747C1359.38 706.876 1359.02 702.928 1360.39 700.671C1368.77 699.031 1372.4 716.565 1378.29 720.355C1380.22 717.443 1379.07 700.288 1386.16 696.332C1388.62 696.522 1387.68 696.143 1389.66 698.149L1389.32 699.42L1389.86 703.107L1390.88 703.815C1394.65 696.044 1394.55 681.367 1402.93 675.015C1406.31 674.19 1405.09 674.007 1407.78 675.263C1414.03 683.731 1407.09 703.17 1406.72 712.475C1409.35 712.4 1412.52 711.234 1415.12 710.461C1415.77 702.403 1415.18 695.442 1415.43 687.776C1415.75 678.172 1424.35 655.362 1434.45 652.905C1442.66 656.538 1427.24 684.267 1426 691.193C1425.69 692.943 1420.19 699.817 1418.71 701.652C1417.52 711.101 1420.07 715.733 1421.62 725.198C1423.28 720.228 1427.62 706.522 1433.24 705.272C1440.41 709.042 1431.63 720.993 1440.28 727.16C1443.12 729.185 1439.94 744.532 1439.03 749.211C1443.27 742.07 1451.03 733.732 1452.13 726.497C1453.36 743.137 1454.81 759.761 1456.46 776.365L1448.99 776.688C1444.55 776.14 1430.44 776.482 1425.28 776.484V765.568C1421.15 761.326 1407.95 785.215 1402.93 782.021C1394.78 773.702 1394.38 785.766 1386.16 776.365C1384.13 774.061 1380.89 778.626 1378.29 778.659C1363.61 787.567 1371.5 775.056 1362.25 776.912C1356.92 777.21 1320.59 777.471 1316.95 776.577C1316.96 776.523 1316.98 776.469 1316.99 776.417C1316.03 778.2 1313.83 780.483 1309.76 778.659C1300.42 779.652 1302.4 769.054 1300.54 776.691L1171.27 776.942C1139.19 776.883 1104.8 775.935 1072.96 777.968L1072.79 778.665C1075.15 779.798 1076.41 780.3 1078.46 782.021C1066.4 778.335 1046.45 785.379 1034.05 783.051C995.169 773.739 938.289 771.768 898.707 778.665C887.706 779.201 861.696 773.294 851.667 777.707C832.298 775.53 683.583 778.128 679.951 774.938C681.77 767.613 663.771 782.011 656.171 776.712C626.041 775.81 594.797 777.008 564.632 776.548C557.81 776.444 533.457 777.139 528.522 775.747L527.712 775.77C523.338 777.284 479.768 776.527 471.445 776.383L471.112 776.377C469.57 798.792 463.77 819.226 456.378 840.366C446.304 840.408 431.201 840.883 421.597 839.993C420.68 843.297 422.503 855.488 421.702 860.125C421.017 864.08 419.361 865.967 418.757 869.006L417.664 869.233C408.238 859.967 410.265 860.596 406.875 849.296C404.068 834.694 397.938 828.443 382.619 831.699C373.108 818.996 349.727 789.774 343.629 777.214L338.027 768.894H183.176L201.043 712.355C199.348 708.75 299.962 706.776 297.845 703.415C320.265 678.435 335.139 677.339 350.837 647.365C355.157 655.378 357.255 660.678 360.472 669.24C360.277 661.8 358.684 647.854 361.49 641.669L362.596 641.64C366.475 648.432 366.642 653.215 367.815 660.941C368.553 651.761 366.918 638.88 370.519 632.55L371.97 632.003C376.476 636.326 377.656 654.71 377.806 661.196C377.871 664.357 377.9 667.519 377.892 670.681C379.545 666.684 380.745 663.632 382.058 659.469C383.582 654.641 384.039 637.856 387.704 636.142C389.827 638.736 390.583 640.031 392.235 642.856L392.291 642.953C392.969 634.524 394.162 624.278 396.354 616.11C394.096 617.469 390.144 620.268 387.762 620.281C389.111 617.568 393.518 614.226 396.049 612.35C396.575 603.681 397.146 594.752 397.254 586.066C392.061 590.314 384.99 597.106 379.711 600.273C385.056 593.446 397.729 580.937 397.278 573.228L396.122 572.358C390.416 574.358 387.11 577.365 381.495 579.757C386.311 574.687 392.518 569.662 396.675 564.97Z" fill="#829F03"/>
<path d="M1756.74 -247.082C1787.89 -217.502 1786.48 -193.768 1795.58 -153.555C1797.14 -146.649 1797.48 -137.852 1801.39 -131.83C1807.03 -136.735 1811.16 -139.536 1817.95 -142.979C1819.67 -151.491 1826.1 -167.787 1835.87 -169.475C1847.35 -166.316 1837.49 -144.486 1834.8 -137.102C1846.59 -125.308 1846.83 -110.67 1844.63 -95.2314C1861.97 -82.3707 1868.51 -65.9197 1871.61 -45.082C1873.38 -32.6269 1873.48 -19.9916 1871.91 -7.50977H1871.91C1870.93 0.966763 1868.78 33.9536 1863.7 38.1621C1859.45 37.4203 1860.85 34.7496 1857.67 35.8887C1854.92 36.878 1852.12 37.7826 1849.35 38.7285L1847.81 59.2061L1847.81 59.207C1847.4 61.7953 1845.97 71.6553 1844.83 72.9668C1836.79 82.2382 1833.54 80.2105 1831.87 94.3906C1826.58 96.8706 1827.47 87.3121 1821.57 89.2188C1821.12 101.35 1820.79 112.368 1820.84 124.683C1820.93 145.294 1824.59 168.528 1820.7 188.607C1818.75 198.668 1813.5 206.785 1807.86 214.922C1811.46 255.655 1816.52 289.649 1828.49 329.047C1830.16 334.546 1832.74 347.469 1836.48 350.824C1841.65 352.658 1841.21 351.74 1845.65 354.94C1847.38 350.603 1841.57 340.932 1844.4 334.503C1844.56 327.144 1843.11 311.841 1842.67 303.79C1840.71 260.956 1847.85 218.193 1863.64 178.329C1867.71 168.298 1872.34 157.38 1879.75 149.296C1883.67 145.01 1888.67 141.712 1894.62 141.567C1898.05 141.484 1901.16 142.593 1903.6 145.043C1917.45 158.93 1898.26 218.332 1895.39 237.496C1892.7 255.43 1891.63 272.651 1891.55 290.779L1893.71 294.692C1896.51 276.157 1906.29 255.354 1920 242.299V18.6045H1920V-247.082H1920V773.331H1306.03C1313.14 770.234 1325.28 767.253 1333.63 763.987C1341.2 760.731 1349.55 759.426 1358.26 755.655C1355.71 748.663 1354.45 742.337 1353.21 735.052C1348.98 733.818 1340.69 734.165 1335.96 734.165C1338.62 711.175 1329.84 712.017 1325.46 694.457C1324.44 690.348 1325.28 649.63 1325.98 644.492C1328.81 647.11 1332.7 646.897 1336.26 645.566L1336.67 646.383C1340.35 653.907 1337.41 658.442 1339.9 664.821C1344.19 662.159 1343.46 651.076 1343.39 646.746C1340.8 626.641 1341.86 591.976 1348.6 573.008C1350.49 565.248 1354.73 548.777 1364.22 547.768C1372.25 551.37 1366.86 566.452 1365.27 572.893C1368.97 573.801 1405.89 573.536 1411.3 573.232C1420.7 571.347 1416.34 558.052 1431.26 549L1431.47 548.998C1434.01 548.964 1435.95 548.938 1437.95 551.217C1446.31 560.769 1453.47 541.248 1461.76 549.701C1466.78 552.9 1471.03 557.269 1475.17 561.522L1475.35 561.706V572.798C1480.59 572.796 1494.92 572.448 1499.44 573.005L1507.03 572.677C1505.35 555.805 1503.88 538.914 1502.63 522.006C1504.7 512.249 1513.04 507.106 1522.61 510.136C1527.59 506.937 1533.79 489.785 1542.29 491.561C1542.86 493.342 1543.41 495.131 1543.93 496.926C1548.07 495.102 1550.4 486.186 1556.78 486.883C1561.47 495.455 1553.1 509.005 1549.14 516.972C1552.81 513.124 1566.02 497.368 1570.38 506.236C1570.39 517.281 1558.58 528.959 1560.91 539.209L1561.71 539.481C1568.42 533.826 1574.53 530.128 1581.03 524.76C1583.81 522.46 1587.97 512.341 1590.6 509.163C1596.41 502.138 1606.03 495.383 1613.3 489.618C1610.46 486.641 1608.36 485.376 1604.95 483.07C1619.02 468.934 1622.23 474.763 1636.73 468.216L1637.63 467.8C1637.25 456.277 1636.22 444.087 1636.14 432.668C1636.1 424.074 1640.06 411.692 1638.71 403.316C1635.09 380.902 1627.32 358.373 1622.79 336.181C1622.69 335.64 1627.07 333.251 1628.13 332.348C1631 326.758 1634.27 314.327 1629.95 309.09C1625.68 303.921 1626.19 307.899 1624.25 301.097C1618.72 302.135 1617.89 304.382 1615.04 308.857C1612.96 305.383 1611.48 302.27 1607.64 301.047C1606.91 303.601 1606.74 304.893 1604.86 306.854C1599.27 305.124 1595.49 287.224 1591.03 284.207C1585.26 289.414 1590.72 311.875 1582.36 313.664C1579.47 312.158 1579.73 311.456 1577.72 308.286L1576.59 308.435C1571.67 317.385 1567.67 307.45 1559.58 308.186C1557.02 312.472 1556.97 311.721 1552.39 311.504C1547.78 316.279 1555.52 344.625 1544.85 355.979L1543.48 355.992C1543.24 355.671 1542.99 355.353 1542.75 355.037C1539.03 350.282 1541.16 355.75 1535.43 355.079C1531.41 351.776 1531.73 342.277 1530.55 336.277C1530.14 335.899 1529.73 335.52 1529.33 335.142L1526.29 335.899C1525.97 335.798 1522.89 334.715 1522.87 334.724C1519.82 336.441 1519.47 335.603 1516.61 334.402C1514.72 336.212 1514.76 341.235 1512.34 345.026C1503.24 344.791 1507.49 355.332 1504.44 362.975C1502.05 365.081 1503.1 364.774 1500.4 364.793L1497.94 362.148L1496.85 362.143L1495.45 365.657L1493.85 365.827L1490.95 362.976C1488.74 363.621 1487.24 368.871 1486.27 369.194C1481.29 370.724 1482.03 368.646 1480.84 373.798C1479.43 379.912 1482.48 395.902 1474.76 397.066C1473.16 395.729 1472.64 395.014 1470.67 394.702C1468.36 396.14 1467.52 396.884 1464.73 396.961C1461.56 394.382 1462.04 388.102 1461.74 384.111C1460.99 374.061 1460.97 379.953 1456.42 377.599C1454.26 371.964 1454.95 372.026 1449.18 372.911C1446.89 371.537 1447.35 368.459 1445.81 364.64L1442.98 363.615C1435.85 364.781 1441.39 378.573 1435.79 384.834L1434.25 384.608C1430.09 380.302 1419.48 360.927 1416.89 354.576C1416.2 352.876 1415.28 345.773 1414.99 343.53C1411.01 342.094 1407.28 341.112 1403.17 340.124C1397.45 330.318 1401.28 302.578 1397.09 290.49L1396.33 291.439C1395.25 297.779 1398.83 306.278 1394.74 311.64C1389.73 312.417 1389.86 308.781 1384.13 309.074C1382.27 309.17 1384.19 307.929 1380.51 306.437L1377.01 308.024L1375.34 307.135C1364.68 291.205 1371.33 270.034 1368.71 252.152C1366.79 249.867 1362.56 251.186 1358.73 250.062C1353.06 248.399 1352.39 238.405 1351.92 233.146C1351.11 223.997 1350.99 214.605 1349.87 205.38C1346.81 180.223 1335.08 158.966 1324.75 135.996C1325.86 143.396 1336.23 172.522 1327.21 173.937L1324.51 171.358L1323.82 171.757C1324.95 176.018 1326.03 180.29 1327.08 184.572C1328.1 188.879 1329.8 195.153 1327.41 199.032C1324.21 200.778 1324.66 199.907 1320.55 199.056C1318.7 198.67 1319.63 200.863 1315.72 200.539C1309.25 192.288 1303.21 185.319 1296.06 177.755C1294.54 176.142 1292.01 163.227 1289.93 159.147L1285.51 159.839C1283.14 158.534 1283.63 158.38 1282.34 155.571L1281.23 155.202C1280.79 158.397 1279.83 159.71 1277.39 161.675C1271.81 161.672 1271.04 151.962 1270.4 147.729L1269.88 147.564C1268.04 144.918 1270.29 139.754 1268.67 135.073C1256.91 96.2649 1255.89 74.013 1257.47 34.0264L1257.79 27.293L1257.69 16.9414C1258.16 -18.3108 1257.18 -58.1775 1271.2 -91.2256L1263.59 -97.6367C1268.44 -113.71 1278.06 -124.341 1289.33 -136.28C1307.46 -155.484 1321.78 -165.32 1346.81 -173.171C1347.17 -179.116 1349.61 -186.475 1350.46 -192.486C1350.84 -195.209 1347.98 -197.206 1345.85 -199.459C1344.6 -213.16 1363.62 -236.197 1371.98 -247.082H1756.74ZM1770.65 209.678C1765.95 219.122 1774.76 243.441 1766.2 260.794C1760.57 254.133 1761.69 253.546 1752.79 254.465C1751.96 261.535 1751.6 275.585 1746.85 279.938C1743.71 280.994 1740.41 279.139 1736.41 278.327C1733.49 274.455 1734.36 266.205 1732.32 263.241C1728.33 266.813 1731.35 266.157 1726.52 268.105C1719.01 265.873 1715.71 253.587 1716.2 246.605C1714.45 245.955 1713.73 246.041 1711.9 245.988C1704.61 239.868 1711.26 233.281 1696.51 236.851L1693.65 224.674C1681.61 232.831 1679.02 228.004 1670.49 218.789C1677.66 231.224 1689.96 254.94 1695.47 268.536C1703.24 287.68 1709.06 317.573 1715.65 336.663C1721.77 354.4 1759.83 441.067 1772.51 445.948C1770.22 437.533 1766.25 427.481 1774.01 420.489C1778.11 416.795 1780.3 419.241 1782.65 417.618C1781.14 412.039 1776.81 406.161 1774.11 400.941C1768.45 390.013 1761.07 371.04 1762.4 358.606C1762.93 353.75 1764.64 347.939 1768.82 344.968C1771.14 343.325 1773.72 343.285 1776.38 343.942C1794.36 348.384 1817.86 398.661 1827.86 414.894L1835.21 405.49C1833.66 400.386 1824.42 376.099 1821.14 373.295C1818.47 373.511 1817.03 373.861 1814.63 372.587C1812.89 370.314 1812.93 369.733 1812.66 366.845C1813.3 363.873 1815.79 361.765 1817.92 359.525C1804.74 329.164 1791.41 254.091 1791.49 220.26C1782.43 217.898 1779.57 216.049 1773.21 209.184L1770.65 209.678ZM1917.11 -6.18555C1915.85 -6.14513 1914.57 -6.12357 1913.25 -6.11816C1914.13 -6.12178 1914.99 -6.13267 1915.84 -6.15137L1917.11 -6.18555ZM1871.93 -7.50977C1872.83 -7.50896 1873.74 -7.50221 1874.65 -7.48926C1873.74 -7.5022 1872.83 -7.50898 1871.93 -7.50977Z" fill="url(#paint2_linear_98_9392)"/>
<path d="M83.3807 349.838C84.2169 341.398 88.8558 324.827 93.8798 316.047L112.494 489.604L126.649 690.006L146.018 765.995L0 782.385V747.371L104.667 653.614C101.084 648.916 95.7909 644.741 84.1419 640.849C77.4427 638.61 67.8931 639.355 62.4717 634.748C54.1194 627.649 41.2271 615.025 41.4465 607.122C41.6874 598.442 58.5429 572.123 60.4282 553.573C61.6228 541.817 61.9601 528.241 51.7209 516.421C38.3897 501.031 28.0594 489.261 24.8501 481.31C19.7667 468.716 14.9781 448.88 18.6942 427.741C21.6853 410.726 23.7118 401.873 25.8213 399.742C28.6483 396.885 32.7324 394.751 41.7456 388.977C60.669 376.855 76.0973 366.366 79.8005 360.343C81.9415 356.86 82.9872 353.811 83.3807 349.838Z" fill="#748E03"/>
<rect x="1.49219" y="764.139" width="1918.51" height="376.207" fill="#5D6F01"/>
<path d="M1164.13 936.384C1157.7 936.864 1110.11 936.795 1104.99 935.441C1110.83 932.795 1158.03 933.782 1167.06 933.878C1171.71 933.878 1179.87 933.537 1184.04 934.751C1180.6 937.188 1169.28 935.415 1164.13 936.384Z" fill="white" fill-opacity="0.25"/>
<path d="M1278.04 797.067C1270.58 796.026 1260.95 796.691 1252.43 795.667C1259.73 792.741 1319.6 795.396 1333.58 793.559L1334.72 796.325C1315.16 797.487 1296.41 796.226 1278.04 797.067Z" fill="white" fill-opacity="0.18"/>
<path d="M1168.51 976.78C1187.17 976.547 1194.78 961.206 1179.39 935.442C1181.32 933.785 1183.18 932.687 1184.95 932.069C1184.95 932.069 1180.06 927.85 1179.39 916.292C1178.72 904.734 1182.78 891.386 1182.78 891.386L1159.09 892.512C1159.16 896.644 1159.86 907.22 1155.75 909.76C1153.37 903.672 1156.18 899.345 1152.66 892.165L1152.27 891.386C1148.85 892.656 1145.13 892.859 1142.41 890.361C1141.74 895.264 1140.94 934.121 1141.92 938.042C1146.12 954.799 1154.53 953.994 1151.98 975.934C1156.5 975.934 1164.45 975.603 1168.51 976.78Z" fill="#3D4900"/>
<path d="M1164.11 819.84C1165.98 812.203 1170.15 795.993 1179.49 795C1187.39 798.545 1182.09 813.387 1180.53 819.726C1177.78 834.348 1176.75 842.69 1176.18 857.534C1180.23 850.709 1191.54 828.192 1200.71 834.564C1201.47 840.21 1192.63 851.632 1190.53 857.778C1187.8 865.788 1185.51 885.821 1182.43 892.209C1178.25 894.707 1163.64 893.388 1158.99 892.41C1156.44 872.624 1157.48 838.508 1164.11 819.84Z" fill="#1C1C1C"/>
<path d="M1141.85 890.195V889.418C1141.76 880.533 1134.99 864.355 1137.59 859.474C1139.97 857.502 1139.04 857.677 1141.61 857.596C1148.04 861.638 1150.9 883.849 1151.97 891.252C1148.47 892.562 1144.65 892.771 1141.85 890.195Z" fill="#1C1C1C"/>
<path d="M703.442 843.587C706.241 835.152 715.091 809.214 726.685 811.593C734.285 816.893 729.042 834.489 727.223 841.814C721.881 862.031 719.3 877.994 714.717 896.989L714.401 900.241C709.41 917.028 709.985 949.417 710.269 967.703C702.052 969.851 681.712 969.432 673.629 967.563C672.358 957.66 672.173 945.286 671.03 931.637C670.986 918.014 653.105 870.033 659.678 859.914C673.736 838.267 689.262 912.443 690.332 916.696C692.294 894.547 696.132 864.36 703.442 843.587Z" fill="#1C1C1C"/>
<path d="M673.871 966.398C681.954 968.267 702.294 968.686 710.511 966.538C707.362 977.987 706.328 979.104 711.19 989.715C708.967 999.521 707.264 1004.5 707.577 1014.58C694.924 1015.22 685.012 1019.22 675.167 1027.32C674.964 1017.25 669.688 1008.04 670.176 1001.79C671.314 987.243 674.187 982.108 673.871 966.398Z" fill="#3D4900"/>
<path d="M715.124 974.834C715.507 975.891 716.141 978.327 716.891 978.72C720.922 980.825 728.447 979.515 733.167 979.034C733.166 988.011 733.275 995.618 732.257 1004.59C731.737 1009.19 729.151 1018.48 729.222 1021.69C723.571 1017.2 720.511 1015.82 713.445 1014.68C716.629 1008.65 715.173 982.728 715.124 974.834Z" fill="#3D4900"/>
<path d="M714.886 976C714.633 956.815 716.32 933.822 729.427 918.531C732.317 915.169 737.686 912.261 741.328 916.225C743.33 923.657 736.844 934.223 735.752 943.558C734.272 956.212 733.406 967.433 732.928 980.2C728.208 980.681 720.684 981.991 716.653 979.886C715.902 979.493 715.269 977.057 714.886 976Z" fill="#1C1C1C"/>
<path d="M458.775 821.869C472.852 822.306 482.894 821.109 496.586 824.751C490.047 824.961 461.3 826.803 457.184 823.965L458.775 821.869Z" fill="white" fill-opacity="0.12"/>
<path d="M566.146 864.865C573.622 864.496 624.612 863.392 628.636 866.404L627.91 867.806C615.536 867.038 573.675 869.305 566.031 866.62L566.146 864.865Z" fill="white" fill-opacity="0.3"/>
<path d="M226.61 836.554C234.087 836.186 285.077 835.081 289.101 838.094L288.374 839.496C276.001 838.728 234.14 840.994 226.496 838.31L226.61 836.554Z" fill="white" fill-opacity="0.3"/>
<path d="M403.73 980.526C403.715 991.533 407.722 1038.03 422.492 1038.66C430.734 1034.72 429.619 1027.5 427.56 1020.09C423.846 1006.72 422.797 995.969 422.97 982.136C425.648 981.457 426.14 981.164 428.782 981.592C430.319 987.556 432.334 1000.58 440.706 998.74C444.925 995.094 445.181 989.915 445.559 984.466C445.631 983.439 445.661 982.41 445.648 981.381C444.106 958.966 438.306 938.532 430.914 917.392C420.84 917.35 405.737 916.875 396.133 917.765C403.682 937.36 403.366 959.888 403.73 980.526Z" fill="#3D4900"/>
<path d="M539.098 857.031C546.793 855.763 601.496 855.543 605.971 858.409C596.603 858.592 546.568 861.069 541.064 858.786C540.522 858.562 539.58 857.462 539.098 857.031Z" fill="white" fill-opacity="0.3"/>
<path d="M199.551 828.721C207.246 827.453 261.949 827.232 266.424 830.099C257.056 830.282 207.021 832.758 201.517 830.476C200.975 830.251 200.033 829.151 199.551 828.721Z" fill="white" fill-opacity="0.3"/>
<path d="M92.1934 269.084C100.177 274.906 96.1743 293.311 101.062 297.643C106.76 300.248 112.002 302.712 113.926 309.246C125.594 348.867 126.135 391.518 129.471 432.524C132.765 473.012 141.454 512.266 142.879 552.916C143.368 566.865 140.03 575.281 129.203 584.22C133.001 625.544 137.89 673.413 138.069 714.679C144.149 698.594 150.039 681.958 153.714 667.354C158.515 648.268 166.341 601.755 188.735 596.661C245.324 583.79 200.106 705.425 194.286 718.901C190.607 727.39 186.737 735.794 182.682 744.109C184.612 751.642 186.635 759.152 188.75 766.635C193.782 766.608 197.078 766.396 202.022 767.638C202.326 769.23 202.78 772.125 203.268 773.545L205.865 773.355C210.413 766.969 206.985 747.551 214.469 747.015L214.471 747.017C206.993 747.561 210.42 766.972 205.872 773.357L203.274 773.547C205.61 775.265 205.556 776.118 205.388 778.593C203.568 781.765 199.494 784.242 196.418 786.448C198.539 793.279 200.526 798.166 203.302 804.78C213.409 789.861 219.764 777.027 227.669 760.981C227.667 760.979 227.666 760.976 227.664 760.974C234.512 746.889 244.072 720.713 259.625 717.13C307.836 706.022 282.362 781.359 274.995 799.747C259.297 829.721 251.867 837.554 229.447 862.533C231.565 865.894 233.679 869.09 235.373 872.694C251.053 863.224 327.723 826.01 334.19 866.28C336.061 877.933 323.351 887.833 314.485 892.464C296.289 902.099 279.505 909.783 262.185 921.276L267.787 929.596C273.885 942.156 297.266 971.378 306.777 984.081L306.778 984.08L306.78 984.082C311.807 983.013 315.845 982.969 319.101 983.907C325.762 985.829 329.147 991.871 331.032 1001.68C331.033 1001.68 331.033 1001.68 331.034 1001.69C331.017 1003.61 330.834 1010.36 331.046 1011.87C334.325 1015.74 342.259 1026.41 346.477 1026.99C348.924 1025.52 352.293 1023.01 354.917 1023.17C358.361 1026.36 356.876 1034.4 356.616 1039.04C363.021 1045.51 370.866 1053.79 378.196 1058.89C386.897 1035.38 393.676 1011.05 401.387 987.918C406.118 973.721 416.678 951.026 432.798 950.82C466.86 950.386 432.096 1035.88 427.444 1048.96C440.151 1030.06 472.174 992.732 497.83 1007.93C510.517 1015.45 511.781 1033.14 501.93 1043.57C496.66 1049.14 491.828 1056.28 486.241 1061.92L484.649 1064.01C473.281 1074.12 467.157 1085.08 459.555 1097.93C476.667 1086.8 499.084 1073.83 520.318 1077.94C530.644 1079.94 543.046 1088.56 539.86 1100.57C537.154 1110.77 526.908 1119.11 519.394 1126.22H0V725.191C7.42146 732.178 9.96986 735.117 15.0264 744.172C15.028 744.172 15.0296 744.171 15.0312 744.171C25.3902 772.22 27.1096 785.746 30.8359 815.192L33.5049 814.229C36.2491 806.941 38.1198 751.3 38.6592 740.932C38.6579 740.932 38.6566 740.932 38.6553 740.932C40.8942 711.997 36.1606 657.76 48.8926 634.478C48.6611 634.128 48.44 633.786 48.2285 633.452C47.8054 632.783 47.42 632.144 47.0625 631.525C46.7051 630.907 46.3753 630.311 46.0645 629.729C45.909 629.437 45.7587 629.149 45.6113 628.864C45.0216 627.723 44.4864 626.624 43.9297 625.506C45.3213 628.301 46.577 630.979 48.8926 634.478C52.681 630.502 55.9149 627.427 59.9404 623.731C60.6644 615.663 60.4592 606.981 66.0605 600.691L67.7656 600.024C74.4412 604.401 72.8855 617.171 73.1055 624.533C84.8106 639.275 85.6871 639.337 89.6035 658.256C92.9148 683.366 92.593 698.408 92.5459 723.409C92.5448 723.41 92.544 723.411 92.543 723.411C91.4793 749.515 89.9178 766.503 86.876 792.182C87.6098 791.401 88.3308 790.609 89.041 789.808C94.9204 783.209 115.451 753.304 117.577 745.797C121.167 733.122 117.896 704.26 116.994 689.724C116.995 689.722 116.996 689.721 116.997 689.72L116.857 680.107C116.821 680.081 116.782 680.058 116.744 680.033C116.782 680.058 116.821 680.081 116.858 680.107C115.028 664.44 114.288 647.557 112.928 631.737C111.633 616.687 109.781 600.828 109.105 585.869C95.6271 579.08 91.3117 572.037 89.2236 557.308C85.5697 525.909 84.8368 494.352 82.4775 462.742C79.333 420.61 69.0712 375.307 68.5771 333.51C66.497 338.698 67.8864 348.083 63.5498 354.614C50.1453 374.8 23.8569 381.288 17.4463 403.65C23.8563 381.287 50.145 374.799 63.5498 354.613C67.8865 348.082 66.4968 338.696 68.5771 333.508C68.7846 329.077 70.2972 322.192 71.1523 317.646C74.7554 307.75 77.8463 304.256 85.4033 297.459C84.8967 290.801 82.648 270.189 92.1934 269.084ZM347.591 1047.56C358.737 1063.44 361.228 1079.57 359.543 1098.57C361.393 1095.4 363.344 1092.26 365.065 1089.02C368.402 1082.13 371.575 1075.25 374.437 1068.15C369.005 1063.62 356.618 1051.06 351.849 1048.36C350.571 1047.64 349.024 1047.58 347.591 1047.56ZM553.643 1053.64C557.399 1054.18 562.373 1054.53 567.453 1054.63H567.45C562.371 1054.53 557.398 1054.18 553.643 1053.64ZM551.312 1053.24C551.429 1053.26 551.55 1053.29 551.672 1053.31C551.265 1053.23 550.879 1053.15 550.519 1053.07L551.312 1053.24ZM327.559 1022.72C323.375 1031 318.342 1038.89 311.728 1045.47C316.032 1044.36 320.336 1043.12 324.747 1042.5C328.713 1042.6 333.959 1043.69 337.618 1042.24C338.824 1040.59 339.561 1038.96 340.318 1037.06C336.455 1032.49 332.274 1026.31 327.559 1022.72ZM202.64 984.3C197.936 991.909 194.572 1000.03 191.586 1008.44C194.204 1006.83 196.913 1005.3 199.447 1003.57L213.101 991.147C209.479 989.027 205.891 986.978 202.64 984.3ZM395.271 928.76C393.729 951.174 387.931 971.609 380.538 992.749C375.5 992.77 369.205 992.897 362.969 992.91C369.204 992.897 375.499 992.769 380.536 992.748C387.929 971.608 393.728 951.174 395.271 928.76H395.271ZM353.97 992.818C355.367 992.856 356.804 992.88 358.264 992.895C356.804 992.88 355.367 992.856 353.97 992.818ZM346.888 992.471C347.716 992.536 348.58 992.592 349.473 992.641C348.58 992.592 347.716 992.536 346.888 992.471ZM346.452 992.436C346.218 992.416 345.985 992.397 345.757 992.376H345.758V992.375C345.986 992.396 346.218 992.416 346.452 992.436ZM253.608 926.943C235.58 941.351 220.417 955.355 207.611 974.726C211.442 976.842 219.075 982.44 223.053 982.062C240.335 967.38 246.885 958.113 269.209 950.157C264.269 944.352 257.894 930.722 253.608 926.943ZM91.2871 928.265C89.8517 938.23 88.6901 948.232 87.8027 958.261C91.9571 949.249 94.9425 940.243 98.8447 931.313C95.94 929.368 94.6395 929.175 91.2871 928.265ZM95.6025 908.235C94.6479 914.173 92.6211 922.236 91.2939 928.265C94.6464 929.175 95.9468 929.369 98.8516 931.314L105.973 918.312C103.016 915.119 98.8118 911.314 95.6025 908.235ZM601.962 896.947C591.164 897.114 582.998 921.053 580.331 929.094L580.328 929.093C582.996 921.052 591.161 897.115 601.959 896.947H601.962ZM451.872 928.152C449.654 928.92 437.357 929.103 424.688 929.079C437.356 929.103 449.651 928.92 451.869 928.152L452.68 928.129L451.872 928.152ZM551.824 928.749C534.609 928.773 517.258 929.091 500.162 929.032C517.258 929.091 534.609 928.773 551.824 928.749ZM406.768 928.936C409.344 928.969 412.18 929.001 415.139 929.026C412.18 929.001 409.344 928.969 406.768 928.936ZM488.905 928.931C491.681 928.973 494.466 929.001 497.259 929.018C494.466 929.001 491.681 928.973 488.905 928.931ZM487.314 928.919C483.433 928.912 476.64 929.023 470.028 929.012C476.641 929.023 483.434 928.912 487.314 928.919ZM460.71 928.874C461.849 928.913 463.056 928.942 464.308 928.963C463.056 928.942 461.849 928.913 460.71 928.874ZM551.833 928.749C555.637 928.744 559.435 928.752 563.222 928.782C559.435 928.752 555.637 928.744 551.833 928.749ZM453.109 928.232C453.228 928.258 453.354 928.281 453.486 928.305C453.354 928.281 453.228 928.258 453.109 928.232ZM222.345 872.957C216.854 873.949 197.327 899.974 192.311 906.12L193.22 908.063C202.787 897.672 213.667 889.908 223.965 880.449C226.151 878.441 225.932 877.973 225.92 875.646C224.241 873.23 225.178 873.956 222.345 872.957ZM119.757 851.761C111.076 864.041 103.974 879.639 99.752 894.054C102.225 896.694 104.653 899.404 107.2 901.973C109.274 903.78 111.485 906.318 114.267 906.783C117.559 903.984 117.956 896.773 118.27 892.689C118.83 885.38 121.58 856.988 119.757 851.761ZM175.883 758.45C173.13 763.604 170.002 768.758 167.034 773.807L167.035 773.809C161.846 782.277 142.241 811.995 141.829 818.96C140.87 835.211 140.343 860.829 140.74 877.514C164.049 854.78 176.394 839.609 196.229 814.021C191.908 805.918 190.224 800.29 187.828 791.365C184.23 792.216 180.726 793.376 177.155 792.534C174.989 791.012 175.584 791.88 174.947 789.26C175.698 785.525 179.031 783.417 182.094 781.075C176.264 777.891 175.21 784.997 168.998 776.177L168.996 776.175C172.536 772.374 175.182 771.646 179.995 769.833L175.883 758.45ZM222.909 755.963C218.089 758.601 217.174 767.207 215.341 772.489C215.342 772.478 215.343 772.466 215.345 772.454C217.17 767.169 218.093 758.593 222.903 755.961C222.905 755.962 222.907 755.962 222.909 755.963ZM30.6514 741.534C30.011 741.612 29.3714 741.696 28.7324 741.785C29.3714 741.696 30.011 741.612 30.6514 741.534ZM107.763 673.76C108.08 674.093 108.405 674.426 108.738 674.761C108.405 674.426 108.08 674.093 107.763 673.76ZM106.224 672.084C106.43 672.315 106.64 672.546 106.852 672.778C106.64 672.546 106.43 672.315 106.224 672.084ZM101.041 666.162C101.297 666.439 101.551 666.719 101.804 667.002C101.551 666.719 101.297 666.439 101.041 666.162ZM98.9648 664.06C99.1591 664.242 99.3512 664.427 99.541 664.613C99.3512 664.427 99.1591 664.242 98.9648 664.06ZM94.9189 660.872C95.1787 661.039 95.4324 661.21 95.6816 661.383C95.4324 661.21 95.1787 661.039 94.9189 660.872ZM41.0186 620.145C41.4157 620.799 41.7788 621.427 42.1172 622.034C41.7789 621.427 41.4156 620.8 41.0186 620.146C40.8036 620.2 40.5924 620.251 40.3848 620.298C39.969 620.392 39.5676 620.47 39.1787 620.533C39.7619 620.438 40.3731 620.309 41.0186 620.145ZM36.9824 620.741C36.8094 620.745 36.6385 620.744 36.4697 620.741C36.6385 620.744 36.8094 620.745 36.9824 620.741ZM35.9697 620.724C36.1345 620.733 36.3011 620.738 36.4697 620.741C36.3011 620.738 36.1345 620.733 35.9697 620.724ZM34.5283 620.56V620.561V620.56ZM32.2432 619.965V619.966V619.965ZM26.9844 617.591C28.2249 618.206 29.3462 618.769 30.4238 619.244V619.245C30.2698 619.177 30.115 619.108 29.959 619.036C29.0233 618.608 28.0478 618.118 26.9844 617.591ZM24.3789 615.25V615.251V615.25ZM23.79 612.4V612.399V612.4ZM21.4434 598.198V598.197V598.198ZM20.0361 594.774C20.2554 595.089 20.4579 595.458 20.6455 595.874V595.875C20.5704 595.709 20.493 595.549 20.4131 595.398C20.2932 595.172 20.1678 594.963 20.0361 594.774ZM16.124 417.677C16.2176 419.078 16.3701 420.529 16.5869 422.032C17.5006 428.368 17.6533 435.645 17.4316 442.184C11.2249 444.841 4.83291 447.2 0 452.031V452.029C4.83287 447.198 11.225 444.84 17.4316 442.183C17.6534 435.644 17.5006 428.367 16.5869 422.031C16.3702 420.528 16.2176 419.078 16.124 417.677Z" fill="black"/>
<path d="M403.73 854.673C403.715 843.666 407.722 797.169 422.492 796.541C430.734 800.48 429.619 807.699 427.56 815.109C423.846 828.477 422.797 839.23 422.97 853.064C425.648 853.742 426.14 854.036 428.782 853.607C430.319 847.643 432.334 834.614 440.706 836.459C444.925 840.105 445.181 845.285 445.559 850.733C445.631 851.76 445.661 852.789 445.648 853.818C444.106 876.233 438.306 896.667 430.914 917.807C420.84 917.849 405.737 918.324 396.133 917.434C403.682 897.839 403.366 875.312 403.73 854.673Z" fill="#1C1C1C"/>
<path d="M1647.28 771.234C1633.68 772.039 1620.04 771.742 1606.49 770.256C1529.41 761.802 1482.74 743.062 1467.76 777.018C1451.38 814.17 1560.52 936.592 1657.7 893.997C1712.53 869.962 1712.33 833.362 1701.75 806.026C1693.14 783.818 1671.04 769.828 1647.28 771.24V771.234Z" fill="black"/>
<path d="M1615.02 907.465C1600.88 907.465 1586.31 904.914 1571.65 899.805C1546.33 890.967 1520.76 874.445 1499.64 853.265C1470.37 823.898 1455.85 792.505 1463.51 775.14C1469.56 761.417 1480.57 754.394 1498.15 753.044C1513.47 751.867 1532.7 754.871 1557.03 758.68C1571.84 760.996 1588.62 763.622 1606.99 765.634C1620.08 767.071 1633.55 767.393 1647 766.594C1672.99 765.064 1696.72 780.225 1706.07 804.34C1712.89 821.941 1713.75 838.24 1708.63 852.782C1702.02 871.577 1685.51 886.868 1659.56 898.244C1645.55 904.388 1630.54 907.459 1615.02 907.459V907.465ZM1505.03 762.135C1487.81 762.135 1477.47 766.501 1472.01 778.893C1466.17 792.128 1480.88 821.284 1506.22 846.706C1542.65 883.245 1601.08 913.739 1655.83 889.741C1697.44 871.503 1711.43 843.901 1697.41 807.703C1689.53 787.365 1669.49 774.564 1647.55 775.871C1633.58 776.701 1619.59 776.367 1605.98 774.874C1587.4 772.837 1570.51 770.192 1555.6 767.864C1534.4 764.55 1517.82 762.141 1505.03 762.141V762.135Z" fill="black"/>
<path d="M1622.01 1010.1C1668.46 1051.98 1665.87 1084.25 1607.82 1089.41C1549.77 1094.58 1508.1 1082.7 1521.52 1046.37C1534.93 1010.03 1622.01 1010.1 1622.01 1010.1H1622.01Z" fill="black"/>
<path d="M1583.39 1095.21C1572.55 1095.21 1562.79 1094.45 1554.21 1092.91C1537.83 1089.98 1526.31 1084.28 1519.97 1075.99C1513.56 1067.6 1512.62 1057.09 1517.17 1044.75C1523.34 1028.06 1543.11 1016.38 1575.93 1010.04C1599.53 1005.48 1621.1 1005.42 1622.03 1005.45C1623.17 1005.45 1624.28 1005.88 1625.14 1006.64C1651.89 1030.77 1663.14 1052.17 1657.67 1068.54C1655.24 1075.81 1649.65 1081.68 1641.07 1086C1632.86 1090.12 1621.82 1092.83 1608.24 1094.03C1599.44 1094.81 1591.14 1095.21 1583.4 1095.21L1583.39 1095.21ZM1620.25 1014.77C1614.64 1014.88 1596.53 1015.52 1577.55 1019.2C1557.38 1023.1 1532.05 1031.27 1525.88 1047.98C1522.45 1057.26 1522.93 1064.58 1527.34 1070.34C1537.14 1083.18 1566.33 1088.44 1607.41 1084.79C1631.03 1082.69 1645.36 1076.05 1648.85 1065.61C1652.91 1053.43 1642.76 1035.42 1620.25 1014.77V1014.77Z" fill="black"/>
<path d="M1393.48 1010.09C1347.04 1051.97 1349.62 1084.24 1407.67 1089.4C1465.73 1094.57 1507.39 1082.69 1493.98 1046.36C1480.56 1010.02 1393.48 1010.09 1393.48 1010.09H1393.48Z" fill="black"/>
<path d="M1432.11 1095.21C1424.37 1095.21 1416.07 1094.82 1407.27 1094.03C1393.69 1092.82 1382.65 1090.12 1374.44 1086C1365.85 1081.68 1360.27 1075.81 1357.84 1068.54C1352.38 1052.17 1363.63 1030.77 1390.37 1006.64C1391.23 1005.87 1392.33 1005.45 1393.48 1005.45C1394.4 1005.46 1415.97 1005.48 1439.58 1010.04C1472.4 1016.38 1492.17 1028.06 1498.34 1044.75C1502.89 1057.09 1501.95 1067.6 1495.54 1075.98C1489.2 1084.28 1477.67 1089.98 1461.3 1092.91C1452.72 1094.44 1442.96 1095.21 1432.12 1095.21L1432.11 1095.21ZM1395.25 1014.76C1372.73 1035.41 1362.58 1053.42 1366.65 1065.59C1370.14 1076.04 1384.47 1082.67 1408.08 1084.77C1449.16 1088.42 1478.36 1083.16 1488.16 1070.33C1492.57 1064.56 1493.04 1057.24 1489.62 1047.97C1483.45 1031.25 1458.12 1023.09 1437.95 1019.18C1418.97 1015.5 1400.86 1014.86 1395.25 1014.75V1014.76Z" fill="black"/>
<path d="M1573.36 1032.08C1553.44 1031.35 1519.62 1045.58 1491.06 1049.74C1490.58 1049.81 1490.1 1049.88 1489.63 1049.94C1374.45 1066.29 1332.27 1022.21 1316.88 985.388C1307.06 961.892 1308.15 941.35 1308.15 941.35C1297.07 889.874 1315.24 838.441 1326.13 788.104C1343.05 714.017 1343.68 638.964 1419.14 597.087C1422.08 595.458 1425.12 593.879 1428.29 592.356C1432.13 590.553 1436.01 588.906 1439.93 587.426C1520.52 556.771 1617.45 591.123 1648.08 671.025C1660.17 700.826 1664.41 732.609 1670.91 763.902C1674.77 783.385 1679.31 802.719 1684 822.042C1689.3 844.07 1694.57 866.235 1696.59 888.765C1705.64 985.871 1666.21 1035.45 1573.36 1032.08Z" fill="black"/>
<path d="M1321.1 951.35C1324.89 967.013 1322.69 977.918 1316.89 985.387C1307.07 961.891 1308.16 941.349 1308.16 941.349C1297.08 889.872 1315.25 838.44 1326.14 788.103C1343.06 714.016 1343.69 638.963 1419.15 597.086L1427.02 602.629C1346.02 628.342 1303.37 878.019 1321.1 951.35Z" fill="black"/>
<path d="M1573.35 1032.07C1553.43 1031.35 1519.61 1045.58 1491.05 1049.73C1490.57 1049.8 1490.1 1049.88 1489.63 1049.94C1378.56 1024.29 1390.9 733.625 1466.1 606.352L1458.81 604.569C1458.81 604.569 1449.52 597.199 1439.93 587.414C1520.51 556.759 1617.44 591.111 1648.08 671.014C1660.17 700.814 1664.4 732.597 1670.9 763.89C1674.77 783.373 1679.3 802.708 1684 822.03C1689.29 844.058 1694.56 866.223 1696.59 888.753C1705.63 985.86 1666.2 1035.44 1573.35 1032.07V1032.07Z" fill="black"/>
<path d="M1443.13 1058.11C1398.15 1058.11 1363.18 1046.93 1338.82 1024.68C1319.22 1006.78 1310.67 985.065 1306.95 969.992C1303.39 955.605 1303.43 944.52 1303.51 941.752C1294.56 899.373 1304.82 857.149 1314.76 816.306C1317.1 806.713 1319.51 796.792 1321.6 787.125C1324.45 774.652 1326.87 762.018 1329.19 749.806C1335.44 717.1 1341.33 686.204 1354.86 658.329C1362.19 643.206 1371.09 630.429 1382.04 619.257C1394.27 606.797 1408.74 596.628 1426.29 588.168C1448.47 577.746 1472.29 572.215 1497.14 571.701C1520.92 571.212 1544.96 575.566 1566.64 584.304C1607.18 600.635 1637.64 630.826 1652.41 669.315C1661.98 692.917 1666.75 717.943 1671.37 742.145C1672.68 748.982 1674.03 756.048 1675.46 762.953C1679.52 783.409 1684.34 803.741 1688.52 820.945C1693.75 842.682 1699.14 865.144 1701.22 888.349C1703.64 914.304 1702.6 937.187 1698.14 956.342C1693.56 975.986 1685.25 992.287 1673.46 1004.78C1653.32 1026.1 1622.57 1036.88 1581.97 1036.88C1579.09 1036.88 1576.17 1036.83 1573.19 1036.72C1562.71 1036.34 1547.38 1040.59 1531.16 1045.09C1518.06 1048.72 1504.5 1052.48 1491.73 1054.34C1474.42 1056.86 1458.22 1058.12 1443.13 1058.12L1443.13 1058.11ZM1490.38 1045.14C1502.57 1043.37 1515.83 1039.68 1528.66 1036.13C1545.59 1031.43 1561.58 1027 1573.52 1027.43C1615.69 1028.97 1647.04 1019.2 1666.68 998.399C1688.09 975.733 1696.59 938.99 1691.96 889.198C1689.93 866.661 1684.62 844.528 1679.48 823.131C1675.28 805.846 1670.43 785.391 1666.34 764.805C1664.9 757.863 1663.54 750.759 1662.23 743.885C1657.69 720.116 1653 695.53 1643.76 672.771C1643.75 672.746 1643.74 672.715 1643.73 672.69C1629.9 636.616 1601.28 608.289 1563.15 592.925C1520.33 575.677 1471.89 577.002 1430.25 596.56C1361.56 629.668 1350.26 688.867 1338.3 751.546C1335.95 763.839 1333.53 776.553 1330.65 789.144C1328.54 798.879 1326.12 808.856 1323.76 818.505C1314.03 858.511 1303.97 899.887 1312.68 940.371C1312.77 940.773 1312.8 941.188 1312.78 941.597C1312.78 941.702 1312.26 953.054 1316.03 968.121C1319.48 981.87 1327.33 1001.68 1345.16 1017.91C1375.55 1045.58 1424.4 1054.75 1490.37 1045.14L1490.38 1045.14Z" fill="black"/>
<path d="M1637.68 896.777C1726.21 896.777 1726.59 945.299 1643.5 986.458Z" fill="black"/>
<path d="M1637.67 893.763C1658.11 892.084 1685.95 893.286 1701.97 907.882C1706.8 912.366 1710.19 918.838 1710.46 925.526C1711.29 952.565 1675.83 974.209 1654.25 984.05C1651 985.555 1647.7 986.929 1644.37 988.23C1643.35 988.626 1642.21 988.125 1641.81 987.109C1641.46 986.205 1641.82 985.189 1642.62 984.7C1648.61 980.984 1654.56 977.275 1660.29 973.317C1673.74 964.077 1704.54 941.052 1698.6 922.498C1692.74 906.885 1662.96 902.73 1648.08 900.903C1644.7 900.488 1640.99 900.147 1637.6 899.794C1634.03 899.324 1634.07 894.153 1637.68 893.763H1637.67Z" fill="black"/>
<path d="M1532.9 589.9L1484.19 602.769C1477.57 604.552 1471.15 605.624 1465 606.082C1406.16 610.497 1371.05 559.251 1406.25 543.942C1418.65 538.56 1429.27 538.034 1437.99 539.836C1456.68 543.669 1466.69 558.099 1466.69 558.099C1465.21 513.732 1508.14 522.056 1532.9 589.9H1532.9Z" fill="black"/>
<path d="M1411.22 543.795C1391.67 560.07 1415.9 598.342 1439.09 603.885C1462.28 609.428 1411.22 591.939 1411.22 591.939L1397.73 578.779L1393.4 561.81C1393.4 561.81 1395.3 553.673 1395.65 553.152C1396 552.632 1411.23 543.801 1411.23 543.801L1411.22 543.795Z" fill="black"/>
<path d="M1532.9 589.9L1484.19 602.769C1477.57 604.552 1471.16 605.624 1465 606.082L1458.82 604.571C1458.82 604.571 1386.13 546.908 1437.53 540.152L1438 539.836C1456.69 543.669 1466.7 558.099 1466.7 558.099C1465.22 513.732 1508.15 522.056 1532.9 589.9Z" fill="black"/>
<path d="M1530.77 590.683C1521.33 574.21 1513.69 556.783 1499.58 543.908C1481.84 528.388 1471.09 535.114 1470.93 557.96C1471.02 560.288 1469.21 562.258 1466.88 562.35C1465.36 562.412 1464.05 561.669 1463.22 560.517C1463.02 560.27 1462.61 559.768 1462.41 559.526C1452.48 548.094 1437.42 541.796 1422.34 544.348C1418.52 544.936 1414.74 546.001 1411.06 547.413C1404.75 549.723 1398.32 553.699 1397.39 560.839C1396.55 567.701 1400.36 574.811 1404.96 580.093C1412.78 588.999 1423.54 594.987 1434.94 598.443C1446.64 602.004 1458.98 602.351 1471.15 601.837C1475.29 601.657 1479.46 601.317 1483.73 601.032C1484.74 600.964 1485.62 601.725 1485.69 602.741C1485.73 603.509 1485.31 604.202 1484.65 604.518C1480.68 606.444 1476.47 607.844 1472.16 608.878C1459.08 612.024 1445.24 611.108 1432.31 607.534C1414.74 602.53 1397.42 591.885 1389.67 574.606C1385.26 564.611 1386.47 552.993 1394.8 545.382C1398.43 541.932 1402.9 539.746 1407.5 538.043C1411.79 536.452 1416.29 535.232 1420.91 534.575C1439.1 531.702 1457.77 539.746 1469.03 554.132C1469.39 554.653 1469.81 555.105 1470.18 555.681L1462.47 558.238C1462.15 553.073 1462.28 547.729 1463.74 542.291C1467.35 528.419 1479.19 522.102 1492.59 527.62C1502.55 531.726 1510.26 539.796 1516.53 548.181C1525.46 560.344 1532.16 574.278 1535.04 589.116C1535.46 591.662 1532.08 592.9 1530.78 590.671L1530.77 590.683Z" fill="black"/>
<path d="M1020.23 1055.15C1017.9 1054.13 1016.2 1051.74 1016.11 1049.3C1016.07 1048.41 1016.27 1047.77 1016.29 1047.72C1016.35 1047.51 1016.4 1047.36 1016.43 1047.29C1016.49 1047.13 1016.55 1047.01 1016.58 1046.96C1016.64 1046.84 1016.7 1046.72 1016.74 1046.65C1016.83 1046.49 1016.94 1046.28 1017.07 1046.07C1017.32 1045.63 1017.69 1045.01 1018.14 1044.25C1019.05 1042.73 1020.35 1040.58 1021.91 1038.03C1025.03 1032.91 1029.23 1026.1 1033.51 1019.23C1037.79 1012.36 1042.16 1005.41 1045.65 1000.02C1047.39 997.325 1048.93 994.996 1050.12 993.252C1050.72 992.383 1051.25 991.631 1051.69 991.04C1052.05 990.567 1052.58 989.875 1053.11 989.406C1053.59 988.978 1054.26 988.634 1054.43 988.542C1054.8 988.342 1055.28 988.098 1055.84 987.821C1056.97 987.262 1058.54 986.511 1060.5 985.592C1064.41 983.753 1069.94 981.208 1076.7 978.128C1090.22 971.966 1108.7 963.639 1129.12 954.481C1169.98 936.163 1218.63 914.505 1250.98 900.149C1252.87 899.308 1255.33 899.919 1257.12 901.675L1281.07 925.224C1283.11 927.232 1283.72 930.191 1282.53 932.242L1271.43 951.22C1271.08 951.819 1270.59 952.308 1270 952.653L1269.56 952.905L1101.42 1056.21L1101.29 1056.28C1100.68 1056.63 1099.97 1056.81 1099.22 1056.83C1087.51 1057.06 1069.61 1057.27 1053.97 1057.18C1046.16 1057.13 1038.86 1057 1033.16 1056.75C1030.32 1056.63 1027.82 1056.47 1025.82 1056.28C1024.82 1056.18 1023.89 1056.06 1023.08 1055.92C1022.36 1055.8 1021.38 1055.61 1020.45 1055.24L1020.23 1055.15Z" fill="#0F0F0F" stroke="#0F0F0F" stroke-width="11.0077" stroke-linejoin="round"/>
<path d="M1050 991.123L1234.2 907.81L1241.03 926.297L1242.62 936.005C1225.95 945.029 1206.08 956.219 1185.05 968.053C1163.95 979.933 1141.68 992.463 1120.32 1004.11C1098.95 1015.75 1078.48 1026.5 1060.98 1034.82C1043.85 1042.98 1029.58 1048.79 1020.09 1050.84L1050 991.123Z" fill="#0F0F0F" stroke="#0F0F0F" stroke-width="0.611537"/>
<path d="M1020.23 1055.15C1017.9 1054.13 1016.2 1051.74 1016.11 1049.3C1016.07 1048.41 1016.27 1047.77 1016.29 1047.72C1016.35 1047.51 1016.4 1047.36 1016.43 1047.29C1016.49 1047.13 1016.55 1047.01 1016.58 1046.96C1016.64 1046.84 1016.7 1046.72 1016.74 1046.65C1016.83 1046.49 1016.94 1046.28 1017.07 1046.07C1017.32 1045.63 1017.69 1045.01 1018.14 1044.25C1019.05 1042.73 1020.35 1040.58 1021.91 1038.03C1025.03 1032.91 1029.23 1026.1 1033.51 1019.23C1037.79 1012.36 1042.16 1005.41 1045.65 1000.02C1047.39 997.325 1048.93 994.996 1050.12 993.252C1050.72 992.383 1051.25 991.631 1051.69 991.04C1052.05 990.567 1052.58 989.875 1053.11 989.406C1053.59 988.978 1054.26 988.634 1054.43 988.542C1054.8 988.342 1055.28 988.098 1055.84 987.821C1056.97 987.262 1058.54 986.511 1060.5 985.592C1064.41 983.753 1069.94 981.208 1076.7 978.128C1090.22 971.966 1108.7 963.639 1129.12 954.481C1169.98 936.163 1218.63 914.505 1250.98 900.149C1252.87 899.308 1255.33 899.919 1257.12 901.675L1281.07 925.224C1283.11 927.232 1283.72 930.191 1282.53 932.242L1271.43 951.22C1271.08 951.819 1270.59 952.308 1270 952.653L1269.56 952.905L1101.42 1056.21L1101.29 1056.28C1100.68 1056.63 1099.97 1056.81 1099.22 1056.83C1087.51 1057.06 1069.61 1057.27 1053.97 1057.18C1046.16 1057.13 1038.86 1057 1033.16 1056.75C1030.32 1056.63 1027.82 1056.47 1025.82 1056.28C1024.82 1056.18 1023.89 1056.06 1023.08 1055.92C1022.36 1055.8 1021.38 1055.61 1020.45 1055.24L1020.23 1055.15Z" fill="#0F0F0F" stroke="#0F0F0F" stroke-width="11.0077" stroke-linejoin="round"/>
<path d="M1287.45 936.766C1285.19 937.918 1282.04 936.865 1280.25 934.316L1262.46 908.846C1261.52 907.5 1261.1 905.921 1261.3 904.486C1261.5 903.051 1262.31 901.892 1263.52 901.287C1283.77 891.204 1324.75 870.751 1327.89 868.997C1330.21 867.702 1333.45 866.366 1337.45 866.89C1341.7 867.447 1345.77 869.943 1349.54 874.203C1352.36 877.293 1354.28 880.476 1355.21 883.708C1356.15 886.983 1355.95 889.875 1355.17 892.259C1353.7 896.789 1350.15 899.611 1348.06 900.951C1345.06 902.877 1306.46 925.597 1287.67 936.647L1287.45 936.766Z" fill="#0F0F0F" stroke="#0F0F0F" stroke-width="11.0077" stroke-linejoin="round"/>
<path d="M1290.99 931.954L1286.47 923.697C1295.84 918.849 1309.77 910.622 1321.47 901.498C1327.38 896.892 1332.72 892.049 1336.63 887.291C1340.46 882.632 1342.93 878.014 1343.14 873.752C1344.18 873.594 1345.31 873.887 1346.5 874.519C1347.77 875.198 1349.08 876.249 1350.32 877.479C1352.75 879.883 1354.93 882.928 1356.23 885.052L1350.18 897.267L1333.67 908.767L1333.67 908.768L1310.24 925.482L1294.92 936.406L1290.99 931.954Z" fill="#0F0F0F" stroke="#0F0F0F" stroke-width="0.611537"/>
<path d="M1287.45 936.766C1285.19 937.918 1282.04 936.865 1280.25 934.316L1262.46 908.846C1261.52 907.5 1261.1 905.921 1261.3 904.486C1261.5 903.051 1262.31 901.892 1263.52 901.287C1283.77 891.204 1324.75 870.751 1327.89 868.997C1330.21 867.702 1333.45 866.366 1337.45 866.89C1341.7 867.447 1345.77 869.943 1349.54 874.203C1352.36 877.293 1354.28 880.476 1355.21 883.708C1356.15 886.983 1355.95 889.875 1355.17 892.259C1353.7 896.789 1350.15 899.611 1348.06 900.951C1345.06 902.877 1306.46 925.597 1287.67 936.647L1287.45 936.766Z" fill="#0F0F0F" stroke="#0F0F0F" stroke-width="11.0077" stroke-linejoin="round"/>
<path d="M1280.08 983.049C1277.71 981.096 1275.91 978.331 1274.57 975.962C1273.15 973.452 1271.8 970.566 1270.53 967.789C1268.15 962.541 1266.1 957.77 1263.98 954.246C1242.94 941.101 1236.31 922.532 1235.49 910.015C1234.31 905.764 1230.7 899.688 1226.63 893.783C1224.61 890.861 1222.65 888.212 1221.1 886.144C1220.35 885.134 1219.65 884.205 1219.13 883.493C1218.87 883.138 1218.61 882.774 1218.39 882.442C1218.35 882.378 1218.26 882.251 1218.15 882.078C1216.63 880.152 1215.59 877.87 1215.53 875.423C1215.46 872.879 1216.48 870.976 1217.55 869.669C1219.6 867.153 1222.99 865.41 1225.91 864.206C1229 862.937 1232.3 861.988 1234.77 861.353C1236.02 861.033 1237.08 860.787 1237.83 860.617C1238.22 860.528 1238.47 860.472 1238.67 860.427C1238.68 860.423 1238.7 860.42 1238.71 860.417C1239.74 860.103 1240.94 860.165 1242.11 860.629C1243.91 861.342 1245.41 862.901 1246.08 864.755C1251.34 879.369 1256.28 887.809 1259.65 892.385C1261.34 894.675 1262.6 895.958 1263.28 896.561C1263.32 896.592 1263.35 896.62 1263.38 896.647C1278.2 902.426 1285.37 912.449 1288.5 921.41C1291.23 929.223 1290.79 936.369 1290.69 937.012C1291.55 943.927 1295.28 949.98 1299.17 954.619C1301.13 956.955 1303.05 958.838 1304.51 960.179C1305.24 960.852 1305.84 961.375 1306.32 961.797C1306.53 961.982 1306.81 962.226 1307.04 962.44C1307.14 962.533 1307.37 962.75 1307.61 963.023C1307.73 963.148 1307.99 963.445 1308.26 963.852C1308.34 963.972 1309.34 965.36 1309.41 967.218C1309.43 967.533 1309.41 967.842 1309.37 968.143C1307.82 979.21 1301.09 983.531 1294.68 984.783C1288.66 985.958 1282.79 984.408 1283.08 984.457C1282.02 984.281 1280.98 983.791 1280.08 983.049ZM1237.34 861.14C1237.38 861.104 1237.43 861.069 1237.48 861.035C1237.43 861.068 1237.39 861.102 1237.34 861.14Z" fill="#0F0F0F" stroke="#0F0F0F" stroke-width="11.0077" stroke-linejoin="round"/>
<path d="M1270 968.054L1270 968.052L1264.11 955.293L1264.08 955.231L1264.03 955.186L1244.81 939.095C1245.3 939.351 1245.89 939.698 1246.58 940.117C1248.33 941.191 1250.59 942.689 1253.06 944.238C1255.51 945.778 1258.15 947.354 1260.61 948.55C1263 949.709 1265.25 950.533 1267.01 950.597C1275.72 961.096 1284 965.597 1290.51 966.777C1296.89 967.931 1301.62 965.898 1303.3 963.128L1306.14 963.41L1308.01 964.819L1305.03 970.383L1305 970.452L1305 970.53L1305.13 984.558L1284.95 985.128L1276.75 982.939L1270 968.054Z" fill="#0F0F0F" stroke="#0F0F0F" stroke-width="0.611537"/>
<path d="M1280.08 983.049C1277.71 981.096 1275.91 978.331 1274.57 975.962C1273.15 973.452 1271.8 970.566 1270.53 967.789C1268.15 962.541 1266.1 957.77 1263.98 954.246C1242.94 941.101 1236.31 922.532 1235.49 910.015C1234.31 905.764 1230.7 899.688 1226.63 893.783C1224.61 890.861 1222.65 888.212 1221.1 886.144C1220.35 885.134 1219.65 884.205 1219.13 883.493C1218.87 883.138 1218.61 882.774 1218.39 882.442C1218.35 882.378 1218.26 882.251 1218.15 882.078C1216.63 880.152 1215.59 877.87 1215.53 875.423C1215.46 872.879 1216.48 870.976 1217.55 869.669C1219.6 867.153 1222.99 865.41 1225.91 864.206C1229 862.937 1232.3 861.988 1234.77 861.353C1236.02 861.033 1237.08 860.787 1237.83 860.617C1238.22 860.528 1238.47 860.472 1238.67 860.427C1238.68 860.423 1238.7 860.42 1238.71 860.417C1239.74 860.103 1240.94 860.165 1242.11 860.629C1243.91 861.342 1245.41 862.901 1246.08 864.755C1251.34 879.369 1256.28 887.809 1259.65 892.385C1261.34 894.675 1262.6 895.958 1263.28 896.561C1263.32 896.592 1263.35 896.62 1263.38 896.647C1278.2 902.426 1285.37 912.449 1288.5 921.41C1291.23 929.223 1290.79 936.369 1290.69 937.012C1291.55 943.927 1295.28 949.98 1299.17 954.619C1301.13 956.955 1303.05 958.838 1304.51 960.179C1305.24 960.852 1305.84 961.375 1306.32 961.797C1306.53 961.982 1306.81 962.226 1307.04 962.44C1307.14 962.533 1307.37 962.75 1307.61 963.023C1307.73 963.148 1307.99 963.445 1308.26 963.852C1308.34 963.972 1309.34 965.36 1309.41 967.218C1309.43 967.533 1309.41 967.842 1309.37 968.143C1307.82 979.21 1301.09 983.531 1294.68 984.783C1288.66 985.958 1282.79 984.408 1283.08 984.457C1282.02 984.281 1280.98 983.791 1280.08 983.049ZM1237.34 861.14C1237.38 861.104 1237.43 861.069 1237.48 861.035C1237.43 861.068 1237.39 861.102 1237.34 861.14Z" fill="#0F0F0F" stroke="#0F0F0F" stroke-width="11.0077" stroke-linejoin="round"/>
<path d="M1252.64 931.481C1249.43 926.725 1247.77 921.702 1247.68 917.436C1247.58 913.165 1249.05 909.701 1252.01 907.963C1254.98 906.225 1258.96 906.494 1263.05 908.424C1267.14 910.351 1271.28 913.917 1274.48 918.673C1277.69 923.429 1279.35 928.451 1279.44 932.717C1279.54 936.989 1278.07 940.452 1275.11 942.19C1272.14 943.928 1268.16 943.659 1264.07 941.729C1259.98 939.802 1255.85 936.237 1252.64 931.481Z" fill="#0F0F0F" stroke="#0F0F0F" stroke-width="0.611537"/>
<path d="M1399.22 895.363C1297.13 962.561 1206.83 886.834 1338.25 775.076L1399.22 895.363Z" fill="black"/>
<path d="M1307.61 922.274C1308.62 922.456 1311.07 923.013 1312.06 923.178C1344.25 928.225 1375.14 913.303 1402.3 894.9C1409.11 888.707 1408.8 882.996 1398.59 888.413C1375.28 903.656 1348.03 914.811 1320.34 913.071L1317.75 912.854C1316.93 912.741 1314.7 912.405 1313.91 912.306C1313.09 912.119 1311 911.738 1310.14 911.536C1309.33 911.307 1307.23 910.757 1306.46 910.521C1305.86 910.328 1304.68 909.891 1304.07 909.703C1301.8 908.916 1299.35 907.762 1297.23 906.638C1296.49 906.172 1295.33 905.512 1294.59 905.046C1294.23 904.801 1292.52 903.536 1292.1 903.263C1291.83 903.04 1289.99 901.463 1289.78 901.3C1289.17 900.676 1288.26 899.786 1287.65 899.16C1287.09 898.493 1286.27 897.508 1285.71 896.849C1285.48 896.496 1284.27 894.77 1284 894.376C1269.79 870.814 1285.73 839.996 1300.38 820.24C1312.39 803.829 1327.16 790.381 1340.56 774.793C1342 773.091 1339.96 770.746 1338.07 771.84C1323.44 780.682 1310.9 792.579 1299.83 805.517C1279.46 829.45 1257.45 865.769 1273.23 897.372L1274.8 900.147C1275.51 901.251 1276.31 902.345 1277.05 903.435C1277.76 904.333 1278.86 905.62 1279.58 906.503C1280.4 907.313 1281.54 908.538 1282.37 909.327C1282.75 909.643 1284.94 911.553 1285.37 911.894L1287.91 913.742C1288.58 914.278 1289.84 914.964 1290.55 915.428C1292.29 916.507 1294.19 917.475 1296.03 918.338C1297.08 918.754 1299.24 919.76 1300.31 920.08C1301.02 920.339 1302.5 920.801 1303.21 921.067C1304.15 921.386 1306.65 921.987 1307.61 922.274Z" fill="black"/>
<path d="M1671.85 765.775C1816 847 1973.9 790.722 2013.07 880.884C1929.18 910.362 1909.2 955.672 1832.58 1028.51C1777.22 1074.97 1545.18 1077.9 1515.45 1063.04C1485.72 1048.18 1433.08 970.764 1433.08 970.764C1386.32 918.433 1262.08 826.326 1340.19 773.207C1383.38 818.31 1519.53 836.704 1556.32 826.776C1595.34 816.248 1641.17 796.121 1671.85 765.775Z" fill="#0F0F0F" stroke="#0F0F0F" stroke-width="8.19391" stroke-linejoin="round"/>
<path d="M1357.21 663.9C1437.09 684.551 1479.39 683.184 1552.28 667.616C1569.91 679.094 1574.49 686.581 1574.58 701.368C1490.85 738.31 1439.39 745.344 1338.63 731.713C1336.74 703.321 1338.72 688.033 1357.21 663.9Z" fill="black" stroke="black" stroke-width="6.8123" stroke-linejoin="round"/>
<path d="M1690.02 633.472C1653.54 619.56 1624.08 622.409 1602.04 631.944C1582.06 640.587 1568.38 654.638 1561.16 666.2C1560.4 665.922 1559.65 665.72 1558.92 665.614C1557.02 665.336 1554.41 665.675 1552.85 668.068C1551.59 670.003 1551.79 672.243 1552.07 673.671C1552.4 675.288 1553.07 677.022 1553.92 678.731C1557.18 685.27 1564.3 693.965 1572.9 699.342C1597.07 736.389 1632.14 745.706 1660.86 745.643C1675.29 745.61 1688.19 743.223 1697.46 740.797C1702.1 739.583 1705.87 738.351 1708.49 737.383C1709.8 736.901 1710.86 736.473 1711.62 736.135C1711.98 735.971 1712.34 735.8 1712.65 735.633C1712.78 735.561 1713.02 735.422 1713.27 735.235C1713.38 735.155 1713.66 734.942 1713.95 734.61C1714.1 734.445 1714.36 734.114 1714.58 733.633C1714.8 733.16 1715.11 732.222 1714.84 731.065C1714.71 730.539 1714.48 730.044 1714.16 729.611C1695.65 704.659 1675.26 693.153 1655.13 687.998C1645.21 685.458 1635.36 684.475 1625.96 684.131C1651.53 677.771 1667.37 668.728 1677.18 660.216C1683.57 654.67 1687.34 649.396 1689.54 645.341C1690.65 643.318 1691.35 641.611 1691.8 640.343C1692.16 639.313 1692.41 638.359 1692.42 638.284L1692.41 638.308C1693 636.318 1691.95 634.211 1690.02 633.472Z" fill="black" stroke="black" stroke-width="7.9426" stroke-linejoin="round"/>
<path d="M1.49219 980.826L1920 1066.26V1139.7H1.49219V980.826Z" fill="black"/>
<g filter="url(#filter0_f_98_9392)">
<circle cx="181.032" cy="12.0631" r="2.23497" fill="white"/>
</g>
<g filter="url(#filter1_f_98_9392)">
<circle cx="42.4654" cy="105.932" r="2.23497" fill="white"/>
</g>
<g filter="url(#filter2_f_98_9392)">
<circle cx="385.161" cy="16.5338" r="2.23497" fill="white"/>
</g>
<g filter="url(#filter3_f_98_9392)">
<circle cx="782.985" cy="13.5533" r="2.23497" fill="white"/>
</g>
<g filter="url(#filter4_f_98_9392)">
<circle cx="754.676" cy="50.8033" r="2.23497" fill="white"/>
</g>
<g filter="url(#filter5_f_98_9392)">
<circle cx="926.024" cy="9.08458" r="2.23497" fill="white"/>
</g>
<g filter="url(#filter6_f_98_9392)">
<circle cx="576.626" cy="523.872" r="4.46995" fill="white"/>
</g>
<g filter="url(#filter7_f_98_9392)">
<circle cx="1309.69" cy="571.552" r="4.46995" fill="white"/>
</g>
<g filter="url(#filter8_f_98_9392)">
<circle cx="888.774" cy="323.471" r="2.23497" fill="white"/>
</g>
<g filter="url(#filter9_f_98_9392)">
<circle cx="937.946" cy="353.27" r="2.23497" fill="white"/>
</g>
<g filter="url(#filter10_f_98_9392)">
<circle cx="1076.52" cy="271.319" r="2.23497" fill="white"/>
</g>
</g>
<defs>
<filter id="filter0_f_98_9392" x="177.903" y="8.93414" width="6.25673" height="6.25868" filterUnits="userSpaceOnUse" color-interpolation-filters="sRGB">
<feFlood flood-opacity="0" result="BackgroundImageFix"/>
<feBlend mode="normal" in="SourceGraphic" in2="BackgroundImageFix" result="shape"/>
<feGaussianBlur stdDeviation="0.446995" result="effect1_foregroundBlur_98_9392"/>
</filter>
<filter id="filter1_f_98_9392" x="39.3365" y="102.803" width="6.25673" height="6.25868" filterUnits="userSpaceOnUse" color-interpolation-filters="sRGB">
<feFlood flood-opacity="0" result="BackgroundImageFix"/>
<feBlend mode="normal" in="SourceGraphic" in2="BackgroundImageFix" result="shape"/>
<feGaussianBlur stdDeviation="0.446995" result="effect1_foregroundBlur_98_9392"/>
</filter>
<filter id="filter2_f_98_9392" x="382.032" y="13.4048" width="6.25673" height="6.25868" filterUnits="userSpaceOnUse" color-interpolation-filters="sRGB">
<feFlood flood-opacity="0" result="BackgroundImageFix"/>
<feBlend mode="normal" in="SourceGraphic" in2="BackgroundImageFix" result="shape"/>
<feGaussianBlur stdDeviation="0.446995" result="effect1_foregroundBlur_98_9392"/>
</filter>
<filter id="filter3_f_98_9392" x="779.856" y="10.4244" width="6.25673" height="6.25868" filterUnits="userSpaceOnUse" color-interpolation-filters="sRGB">
<feFlood flood-opacity="0" result="BackgroundImageFix"/>
<feBlend mode="normal" in="SourceGraphic" in2="BackgroundImageFix" result="shape"/>
<feGaussianBlur stdDeviation="0.446995" result="effect1_foregroundBlur_98_9392"/>
</filter>
<filter id="filter4_f_98_9392" x="751.547" y="47.6744" width="6.25673" height="6.25868" filterUnits="userSpaceOnUse" color-interpolation-filters="sRGB">
<feFlood flood-opacity="0" result="BackgroundImageFix"/>
<feBlend mode="normal" in="SourceGraphic" in2="BackgroundImageFix" result="shape"/>
<feGaussianBlur stdDeviation="0.446995" result="effect1_foregroundBlur_98_9392"/>
</filter>
<filter id="filter5_f_98_9392" x="922.895" y="5.95562" width="6.25673" height="6.25868" filterUnits="userSpaceOnUse" color-interpolation-filters="sRGB">
<feFlood flood-opacity="0" result="BackgroundImageFix"/>
<feBlend mode="normal" in="SourceGraphic" in2="BackgroundImageFix" result="shape"/>
<feGaussianBlur stdDeviation="0.446995" result="effect1_foregroundBlur_98_9392"/>
</filter>
<filter id="filter6_f_98_9392" x="566.941" y="514.187" width="19.3713" height="19.3693" filterUnits="userSpaceOnUse" color-interpolation-filters="sRGB">
<feFlood flood-opacity="0" result="BackgroundImageFix"/>
<feBlend mode="normal" in="SourceGraphic" in2="BackgroundImageFix" result="shape"/>
<feGaussianBlur stdDeviation="2.60747" result="effect1_foregroundBlur_98_9392"/>
</filter>
<filter id="filter7_f_98_9392" x="1300.01" y="561.867" width="19.3713" height="19.3693" filterUnits="userSpaceOnUse" color-interpolation-filters="sRGB">
<feFlood flood-opacity="0" result="BackgroundImageFix"/>
<feBlend mode="normal" in="SourceGraphic" in2="BackgroundImageFix" result="shape"/>
<feGaussianBlur stdDeviation="2.60747" result="effect1_foregroundBlur_98_9392"/>
</filter>
<filter id="filter8_f_98_9392" x="885.645" y="320.342" width="6.25673" height="6.25868" filterUnits="userSpaceOnUse" color-interpolation-filters="sRGB">
<feFlood flood-opacity="0" result="BackgroundImageFix"/>
<feBlend mode="normal" in="SourceGraphic" in2="BackgroundImageFix" result="shape"/>
<feGaussianBlur stdDeviation="0.446995" result="effect1_foregroundBlur_98_9392"/>
</filter>
<filter id="filter9_f_98_9392" x="934.817" y="350.141" width="6.25673" height="6.25868" filterUnits="userSpaceOnUse" color-interpolation-filters="sRGB">
<feFlood flood-opacity="0" result="BackgroundImageFix"/>
<feBlend mode="normal" in="SourceGraphic" in2="BackgroundImageFix" result="shape"/>
<feGaussianBlur stdDeviation="0.446995" result="effect1_foregroundBlur_98_9392"/>
</filter>
<filter id="filter10_f_98_9392" x="1073.39" y="268.19" width="6.25673" height="6.25868" filterUnits="userSpaceOnUse" color-interpolation-filters="sRGB">
<feFlood flood-opacity="0" result="BackgroundImageFix"/>
<feBlend mode="normal" in="SourceGraphic" in2="BackgroundImageFix" result="shape"/>
<feGaussianBlur stdDeviation="0.446995" result="effect1_foregroundBlur_98_9392"/>
</filter>
<linearGradient id="paint0_linear_98_9392" x1="960" y1="-105.793" x2="960" y2="1080" gradientUnits="userSpaceOnUse">
<stop stop-color="#789402"/>
<stop offset="0.238422" stop-color="#95B303"/>
</linearGradient>
<linearGradient id="paint1_linear_98_9392" x1="960.742" y1="-33.4531" x2="960.742" y2="1046.93" gradientUnits="userSpaceOnUse">
<stop stop-color="#6F8904"/>
<stop offset="1" stop-color="#B4D40F"/>
</linearGradient>
<linearGradient id="paint2_linear_98_9392" x1="1588.45" y1="-247.082" x2="1588.45" y2="773.331" gradientUnits="userSpaceOnUse">
<stop stop-color="#536502"/>
<stop offset="1" stop-color="#85A303"/>
</linearGradient>
<clipPath id="clip0_98_9392">
<rect width="1920" height="1080" fill="white"/>
</clipPath>
</defs>
</svg>
