<svg width="5154" height="4786" viewBox="0 0 5154 4786" fill="none" xmlns="http://www.w3.org/2000/svg">
<path d="M3414.09 0.440634C3523.06 -6.08382 3658.88 60.8669 3737.35 133.591C3853.68 241.419 3872.31 360.43 3888.86 508.155L3911.3 704.415L3934.32 910.388C3948.44 1038.29 3963.46 1093.9 3898.39 1210.32C4053.35 1255 4168.71 1307.98 4272.15 1438.21C4409.03 1610.56 4412.24 1788.82 4409.96 1995.11L4406.44 2272.75C4406.32 2367.37 4405 2461.98 4402.48 2556.56C4401.61 2598.21 4401.67 2653.95 4397.94 2694.35C4392.02 2757.82 4289.55 2782.03 4253.13 2808.74C4259.89 2824.18 4344.5 2808.98 4374.27 2836.47C4399.96 2860.17 4394.76 3039.68 4396.05 3081.04C4429.13 3093.69 4461.39 3108.35 4492.64 3124.99C4793.07 3282.66 5015.42 3588.97 5117.72 3908.95C5134.33 3960.88 5171.82 4087.62 5144.06 4132.98C5115.43 4179.81 5034.98 4206.57 4983.54 4218.08C4733.4 4274.1 4448.66 4267.43 4196.35 4229.1C4132.75 4217.99 4069.54 4206.18 4012.67 4174.55C3949.67 4139.49 3952.1 4056.83 3938.07 3992.33C3921.07 3914.2 3909.86 3834.12 3890.09 3755.93C3822.77 3782.72 3639.98 3813.15 3568.27 3824.12C3668.04 4041.93 3739.01 4331.8 3750.54 4573.59C3751.99 4603.66 3742.73 4643.67 3718.91 4662.86C3579.93 4774.7 3234.52 4788.42 3062.31 4784.64C2875.69 4771.75 2613.14 4771.9 2460.96 4651.69C2421.14 4620.24 2437.4 4457.37 2439.6 4404.74L2455.46 4061.15C2455.72 4004.62 2460.45 3930.75 2464.15 3873.71C2417.89 3871.31 2370.39 3871.07 2323.93 3869.62C1979.75 3858.96 1643.38 3826.58 1307.4 3749.35C1284.1 3836.16 1270.65 3927.51 1254.14 4015.85C1245.42 4062.53 1240.49 4118.71 1219.29 4161.3C1202.77 4194.46 1155.3 4214.65 1122.14 4226.16C885.492 4308.13 307.098 4326.1 81.0807 4214.83C49.8208 4199.45 16.1033 4176.83 5.05947 4142.02C-26.9936 4040.97 101.681 3749.47 154.188 3654.19C295.045 3398.61 528.841 3142.92 817.67 3059.35C818.009 2993.3 820.644 2920.21 824.441 2855.03C829.996 2759.75 940.766 2798.53 954.279 2778.13C931.323 2756.44 885.195 2742.56 857.342 2716.46C810.156 2672.21 823.883 2641.09 823.594 2581.92L823.714 2355.18C823.672 2299.69 824.529 2240.24 816.994 2185.21C809.681 2131.79 795.339 2074.78 783.183 2022.21L741.243 1832.32L637.87 1361.69C617 1266.65 590.718 1155.3 581.35 1059.43C574.642 965.45 600.776 882.377 662.782 811.867C725.008 741.104 790.643 720.735 873.835 685.784C926.411 663.111 979.191 640.918 1032.17 619.203L1515.73 419.622L1882.2 268.94C1935.34 246.913 2056.81 192.161 2107.76 181.341C2246.83 151.807 2399.58 130.077 2540.43 107.953C2744.43 73.8858 2949.41 46.2289 3155.15 25.0335C3241.04 15.8055 3327.99 5.45112 3414.09 0.440634Z" fill="black"/>
<path d="M3790.92 1302.03C3967.67 1333.14 4099.25 1379.92 4207.05 1533.63C4319.02 1693.27 4304.06 1858.45 4302.59 2041.2C4301.93 2165.79 4300.6 2290.38 4298.65 2414.96L4296.52 2562.05C4296.19 2586.27 4300.48 2663.41 4279.96 2673.56C4138.67 2743.4 3955.77 2781.55 3803.69 2811.44C3508.07 2867.35 3208.9 2902.49 2908.34 2916.67C2829.54 2920.42 2737.31 2925.41 2658.93 2924.78C2171 2929.89 1597.5 2897.71 1135.4 2739.32C1081.19 2720.76 973.529 2679.09 930.693 2643.56C927.845 2602.72 929.507 2546.49 929.537 2504.07L929.765 2257.03C1015.51 2293.56 1019.77 2269.24 1084.84 2283.38C1165.26 2300.85 1241.61 2322.09 1325.64 2337.88C1584.53 2385.21 1846.06 2416.79 2108.78 2432.45C2234.85 2440.16 2422.5 2472.25 2480.3 2317.3C2505.87 2248.77 2501.5 2131.33 2504.12 2055.13L2515.86 1678.41C2516.76 1642.53 2512.46 1567.67 2531.3 1539.05C2549.87 1510.86 2604.1 1505.13 2636.6 1498.76C2838.7 1457.23 3041.83 1420.65 3245.73 1389.07C3342.68 1375.15 3439.78 1361.99 3536.94 1349.59C3624.12 1338.24 3712.51 1336.44 3790.92 1302.03Z" fill="#B32724"/>
<path d="M929.765 2257.03C1015.51 2293.56 1019.77 2269.24 1084.84 2283.38C1165.26 2300.85 1241.61 2322.09 1325.64 2337.88C1584.53 2385.21 1846.06 2416.79 2108.78 2432.45C2234.85 2440.16 2422.5 2472.25 2480.3 2317.3C2505.87 2248.77 2501.5 2131.34 2504.12 2055.13L2515.86 1678.41C2516.76 1642.53 2512.46 1567.67 2531.3 1539.06C2549.87 1510.86 2604.1 1505.13 2636.6 1498.76C2673.02 1530.29 2696.66 1562.82 2697.71 1612.8C2699.33 1690.79 2698.07 1771.57 2697.8 1849.73L2697.11 2267.16C2696.69 2325.32 2691.91 2413.11 2696.06 2468.69C2625.4 2484.5 2574.32 2546.03 2571.8 2618.38C2569.28 2690.75 2615.93 2755.69 2685.33 2776.39C2685 2797.15 2684.49 2907.48 2680.41 2919.49C2670.73 2922.89 2669.14 2923.16 2658.93 2924.78C2171 2929.89 1597.5 2897.72 1135.4 2739.32C1081.19 2720.76 973.529 2679.09 930.693 2643.56C927.845 2602.72 929.507 2546.49 929.537 2504.07L929.765 2257.03Z" fill="#D8322D"/>
<path d="M2696.06 2468.68C2761.1 2454.13 2828.31 2481.62 2864.45 2537.58C2900.62 2593.53 2898.1 2666.08 2858.11 2719.4C2818.12 2772.69 2749.18 2795.43 2685.33 2776.39C2615.93 2755.69 2569.28 2690.75 2571.8 2618.38C2574.32 2546.03 2625.4 2484.5 2696.06 2468.68Z" fill="black"/>
<path d="M2722.92 2542.68C2768.1 2538.25 2808.36 2571.14 2812.99 2616.28C2817.64 2661.43 2784.93 2701.83 2739.8 2706.7C2694.38 2711.6 2653.64 2678.61 2648.95 2633.16C2644.29 2587.73 2677.46 2547.14 2722.92 2542.68Z" fill="#B32724"/>
<path d="M3917.46 1655.58L3921.46 1655.24C4096.13 1642.34 4192.75 1755.47 4201.61 1922.9C4207.95 2042.62 4201.16 2161.17 4201.13 2279.81C4201.07 2493.17 4199.99 2636.59 3946.87 2653.53C3873.21 2657.61 3790.38 2646.83 3733.93 2596.29C3693.28 2559.89 3664.17 2503.19 3662.97 2448.58C3659.45 2343.87 3662.85 2238.85 3662.49 2134.07C3662.07 2076.35 3663.33 2017.09 3662.55 1959.56C3661.4 1874.05 3670.78 1792.49 3730.08 1725.95C3780.71 1669.11 3845.96 1659.93 3917.46 1655.58Z" fill="black"/>
<path d="M3764.93 2451.74C3760.19 2422.07 3763.1 2372.89 3763.79 2341.8C3766.86 2199.46 3764.69 2056 3765.29 1913.78C3765.86 1780.11 3829.92 1744.26 3955.02 1749.96C4124.61 1756.78 4100.76 1925.58 4102.32 2045.85C4102.5 2124.01 4103.31 2205.47 4099.7 2284.92C4098.68 2349.88 4110.16 2464.49 4063.71 2513.94C4025.95 2554.15 3962.23 2554.27 3911.75 2552.85C3839.71 2552.91 3776.92 2532.76 3764.93 2451.74Z" fill="#3E0B09"/>
<path d="M3766.38 2307.33C3868.19 2348.61 4007.44 2350.68 4099.71 2284.92C4098.68 2349.89 4110.16 2464.49 4063.71 2513.94C4025.95 2554.15 3962.23 2554.27 3911.76 2552.86C3839.71 2552.91 3776.92 2532.77 3764.94 2451.75C3767.34 2405.57 3766.35 2353.97 3766.38 2307.33Z" fill="#57100E"/>
<path d="M3924.73 1841.34C4041.57 1837.29 4066.78 1876.97 4063.74 1991.21C4061.52 2073.81 4082.25 2146.13 3977.43 2173.61C3854.13 2179.02 3832.98 2131.46 3837.04 2018.28C3839.92 1938.44 3818.8 1860.97 3924.73 1841.34Z" fill="white"/>
<path d="M3095.24 2449.93C3182.13 2448.34 3253.81 2517.57 3255.22 2604.45C3256.67 2691.32 3187.3 2762.87 3100.38 2764.13C3013.74 2765.39 2942.41 2696.24 2941 2609.59C2939.56 2522.95 3008.6 2451.51 3095.24 2449.93Z" fill="black"/>
<path d="M3090.2 2527.24C3134.99 2522.6 3175.01 2555.24 3179.48 2600.04C3183.93 2644.85 3151.12 2684.71 3106.3 2689.01C3061.74 2693.24 3022.12 2660.68 3017.7 2616.13C3013.25 2571.59 3045.67 2531.85 3090.2 2527.24Z" fill="#B32724"/>
<path d="M3429.41 2440.89C3514.19 2427.53 3593.84 2485.28 3607.45 2570.03C3621.09 2654.76 3563.58 2734.57 3478.86 2748.45C3393.78 2762.42 3313.54 2704.59 3299.84 2619.49C3286.14 2534.36 3344.21 2454.31 3429.41 2440.89Z" fill="black"/>
<path d="M3441.91 2516.27C3484.9 2509.82 3525.19 2538.81 3532.73 2581.61C3540.24 2624.39 3512.27 2665.4 3469.67 2674.02C3441.16 2679.78 3411.75 2669.63 3392.85 2647.49C3373.95 2625.35 3368.57 2594.7 3378.76 2567.44C3388.94 2540.18 3413.13 2520.59 3441.91 2516.27Z" fill="#B32724"/>
<path d="M2164.6 285.409C2175.59 283.448 2172.37 281.726 2178.67 285.845C2108.23 422.588 2111.49 463.378 2124.2 613.413L2142.04 815.692L2188.65 1399.43C2194.27 1472.27 2199.01 1545.18 2202.87 1618.14C2207.43 1690.75 2233.6 1800.51 2149.94 1829.4C2094.03 1848.7 2038.4 1866.61 1982 1884.37C1866.77 1920.82 1751.3 1956.5 1635.59 1991.41L1280.65 2102.82C1215.7 2123.42 1147.13 2146.26 1082.3 2164.13C1041.26 2171.51 993.628 2171.53 957.576 2147.77C925.842 2126.86 913.854 2103.58 906.389 2068.11C837.893 1750.12 761.409 1433.44 700.079 1113.83C684.55 1032.89 683.465 974.718 732.033 905.127C749.638 879.519 773.15 858.522 800.583 843.914C869.961 807.765 987.689 762.559 1061.93 731.571L1574.03 519.917L1915.97 378.115C1987.04 348.443 2091.78 297.869 2164.6 285.409Z" fill="#D8322D"/>
<path d="M1022.25 898.232C1037.11 896.646 1057.41 895.937 1070.82 903.645C1155.37 951.975 1087.98 1043.8 1041.3 1091.34C1002.54 1130.82 967.519 1168.3 913.339 1184.89C891.672 1186 873.006 1184.27 854.869 1171.69C800.77 1134.17 828.056 1040.14 859.472 996.874C899.153 942.221 957.394 909.644 1022.25 898.232Z" fill="#F05853"/>
<path d="M3365.87 115.038C3390.45 112.731 3420.7 111.188 3445.24 113.543C3598.61 128.268 3740.27 250.406 3767.07 403.98C3774.76 448.062 3778.51 492.703 3783.29 536.824L3806.39 742.278L3827.09 919.961C3837.46 1007.3 3855.03 1071.27 3803.09 1148.18C3749.01 1228.27 3679.43 1221.99 3594.38 1232.9C3511.22 1243.52 3428.09 1254.57 3345.05 1266.07C3118.07 1297.37 2891.94 1334.64 2666.92 1377.83C2548.52 1404.11 2478.42 1424.76 2373.43 1341.18C2269.05 1258.08 2283.29 1155.72 2272.01 1035.72L2227.39 553.186C2218.94 457.554 2241.61 377.116 2301.76 301.048C2350.56 239.324 2409.97 242.373 2481.26 230C2521.6 222.995 2562.73 217.294 2603.31 211.046C2784.05 182.043 2965.51 157.913 3147.55 138.685C3219.98 130.509 3293.29 120.767 3365.87 115.038Z" fill="#841D1B"/>
<path d="M2512.61 366.262C2627.23 346.391 2736.17 423.423 2755.63 538.09C2775.07 652.758 2697.62 761.403 2582.89 780.432C2468.72 799.363 2360.74 722.421 2341.39 608.348C2322.03 494.273 2398.59 386.03 2512.61 366.262Z" fill="black"/>
<path d="M2998.17 306.145C3112.91 292.838 3216.86 374.706 3230.8 489.364C3244.74 604.023 3163.44 708.408 3048.85 722.98C2933.37 737.666 2827.95 655.6 2813.92 540.043C2799.86 424.486 2882.51 319.557 2998.17 306.145Z" fill="black"/>
<path d="M3053.54 805.975C3168.01 794.314 3270.15 877.864 3281.39 992.343C3292.63 1106.82 3208.71 1208.64 3094.16 1219.46C2980.24 1230.23 2879.02 1146.83 2867.84 1032.95C2856.67 919.06 2939.71 817.576 3053.54 805.975Z" fill="black"/>
<path d="M3524.83 750.752C3637.58 739.404 3738.32 821.143 3750.45 933.773C3762.56 1046.4 3681.5 1147.7 3568.93 1160.59C3455.28 1173.6 3352.77 1091.59 3340.54 977.871C3328.32 864.149 3411.03 762.212 3524.83 750.752Z" fill="black"/>
<path d="M2578.86 865.165C2691.82 849.86 2795.65 929.448 2810.22 1042.5C2824.76 1155.55 2744.46 1258.83 2631.32 1272.62C2519.22 1286.28 2417.1 1206.92 2402.69 1094.94C2388.28 982.951 2466.96 880.326 2578.86 865.165Z" fill="black"/>
<path d="M3467.03 255.471C3714.76 236.61 3774.88 617.061 3512.78 674.727C3230.41 691.435 3222.84 287.288 3467.03 255.471Z" fill="black"/>
<path d="M2702.88 4633.27C2662.83 4625.07 2585.41 4609.21 2555.46 4581.54C2543.68 4570.67 2543.23 4550.66 2543.98 4535.07C2551.37 4400.32 2553.26 4265.75 2561.8 4130.99C2571.95 3970.34 2549.27 3774.1 2677.25 3652.8C2775.07 3560.1 2940.85 3555.02 3067.99 3558.42C3166.98 3559.41 3264.5 3581.82 3335.62 3653.88C3494.61 3814.98 3599.28 4223.03 3628.75 4447.48C3633.49 4483.65 3641.28 4522.25 3640.62 4558.75C3640.37 4571.12 3636.89 4577.94 3627.67 4586.2C3599.67 4611.34 3547.96 4621.53 3511.97 4629.52C3314.89 4673.28 3102.63 4676.92 2901.94 4660.64C2837.14 4655.38 2765.55 4649.52 2702.88 4633.27Z" fill="#841D1B"/>
<path d="M2702.88 4633.27C2662.83 4625.07 2585.41 4609.21 2555.46 4581.54C2543.68 4570.67 2543.23 4550.66 2543.98 4535.07C2551.37 4400.32 2553.26 4265.75 2561.8 4130.99C2571.95 3970.34 2549.27 3774.1 2677.25 3652.8C2775.07 3560.1 2940.85 3555.02 3067.99 3558.42C3090.28 3579.9 3135.92 3578.42 3141.54 3612.82C3147.07 3646.76 3065.83 3658 3046.03 3660.49C2756.9 3696.9 2742.78 3834.09 2737.73 4087.58C2729.86 4235.2 2716.7 4470.07 2707.53 4628.1C2705.97 4629.85 2704.41 4631.56 2702.88 4633.27Z" fill="#B32724"/>
<path d="M530.089 3356.5C617.92 3272.39 704.85 3220.96 817.379 3176.81C822.282 3329.16 909.795 3515.65 1015.13 3626.28C1057.55 3670.83 1144.87 3699.45 1202.36 3719.37C1170.42 3840.85 1155.44 3968.51 1124.22 4089.72C1116.42 4119.97 1001.52 4140.64 971.293 4144.81C763.371 4173.74 454.752 4200.08 251.303 4149.62C215.939 4143.67 103.446 4123.12 113.829 4075.18C168.456 3822.82 327.913 3521.53 530.089 3356.5Z" fill="#841D1B"/>
<path d="M530.089 3356.5C577.001 3348.03 676.282 3276.69 698.871 3383.41C712.529 3447.97 605.981 3510.78 572.014 3555.69C447.16 3695.55 351.84 3858.54 286.754 4034.24C279.811 4052.83 258.607 4143.31 251.303 4149.62C215.939 4143.67 103.446 4123.12 113.829 4075.18C168.456 3822.82 327.913 3521.53 530.089 3356.5Z" fill="#B32724"/>
<path d="M4393.14 3199C4689.06 3334.99 4895.1 3611.23 5001.93 3913.39C5007.37 3933.25 5055.17 4065.99 5036.93 4076.5C4946.11 4128.8 4748.55 4137.33 4652.89 4141.32C4548.67 4145.08 4163.7 4135.5 4081.35 4083.14C4074.53 4078.78 4068.91 4073.71 4065.94 4066.05C4052.93 4032.73 4049.2 3990.5 4042.44 3955.29C4027.69 3878.81 4013.66 3801.79 3995.27 3726.1C4052.27 3704.47 4134.22 3673.47 4177.91 3632.77C4288.65 3529.58 4380.79 3348.03 4393.14 3199Z" fill="#841D1B"/>
<path d="M929.258 2916.04C1346.39 3154.79 2074.78 3203.54 2556.42 3204.89C2577.84 3209.79 2649.61 3208.05 2675 3207.9C2675.3 3242.35 2674.52 3268.03 2667.58 3302.31C2652.71 3375.72 2569.19 3503.48 2490.4 3516.46C2427.54 3516.88 2364.53 3514.74 2301.7 3513.03C1914.88 3502.37 1415.44 3456.44 1057.28 3312.07C1027.15 3299.94 959.926 3277.95 939.437 3254.04C917.229 3228.14 927.08 2964.34 929.258 2916.04Z" fill="#B32724"/>
<path d="M2556.42 3204.89C2655.65 3203.15 2776.18 3207.45 2872.23 3203.57C3254.86 3188.16 3960.76 3133.46 4287.84 2937.34C4288.23 2989.27 4294.6 3232.92 4269.27 3258.87C4248.09 3280.62 4208.49 3292.43 4180.34 3303.33C3947.36 3393.57 3697.43 3437.48 3450.41 3468.61C3398.8 3475.12 3339.88 3487.23 3288.15 3484.83C3252.4 3483.2 3217.43 3467.55 3182.28 3460.98C3099.12 3445.38 3012.08 3445.14 2927.9 3451.12C2865.17 3455.57 2800.73 3466.2 2741 3485.82C2717.99 3493.36 2696.6 3509.49 2673.02 3514.35C2626.54 3523.91 2541.22 3516.01 2490.4 3516.46C2569.19 3503.48 2652.71 3375.72 2667.58 3302.31C2674.52 3268.04 2675.3 3242.35 2675 3207.9C2649.61 3208.05 2577.84 3209.79 2556.42 3204.89Z" fill="#841D1B"/>
<path d="M2299.93 1424.86C2311.49 1431.12 2375.79 1497.74 2387.42 1512.25C2395.22 1521.98 2406.99 1538.48 2407.35 1551.83C2408.38 1589.76 2406.82 1630.04 2405.88 1667.99L2399.21 1904.54L2392.89 2120.36C2391.2 2180.43 2400.64 2280.03 2344.99 2311.55C2292.69 2341.17 2160.49 2323.23 2101.45 2319.48C1885.13 2305.29 1669.55 2281.51 1455.34 2248.19C1400.38 2240.56 1341.38 2228.81 1286.66 2218.64L1917.96 2023.25L2090.62 1968.24C2127.29 1956.46 2171.16 1943.76 2205.73 1927.95C2233.29 1915.12 2257.87 1896.67 2277.89 1873.79C2336.52 1806.22 2318.6 1708.88 2313.15 1626.14L2299.93 1424.86Z" fill="#841D1B"/>
<path d="M985.922 3392.58C1016.18 3402.19 1052.75 3417.72 1084.01 3428.65C1145.2 3449.95 1207.19 3468.84 1269.83 3485.4C1675.29 3591.37 2138.65 3616.19 2556.3 3620.51C2535.06 3650.88 2520.79 3678.58 2504.65 3711.38C2497.67 3727.78 2490.95 3746.37 2484.48 3763.2C2155.58 3760.13 1816.41 3737.54 1491.95 3677.22C1381.34 3656.68 1166.86 3617.78 1077.21 3537.81C1049.44 3513.03 1003.12 3429.85 985.922 3392.58Z" fill="#841D1B"/>
<path d="M2679.17 3028.99C3187.14 3015.83 3649.93 2967.38 4141.25 2837.94L4140.98 2901.44C3987.58 2975.73 3718.94 3022.17 3549.07 3047.28C3260.93 3089.27 2970.05 3109.82 2678.87 3108.68L2679.17 3028.99Z" fill="#57100E"/>
<path d="M1068.23 2817.87C1145.99 2853.47 1288.85 2890.78 1372.1 2910.24C1797.24 3009.55 2243.7 3026.85 2679.17 3028.99L2678.87 3108.68C2217.74 3109.34 1482.38 3076.45 1068.46 2881.64L1068.23 2817.87Z" fill="#57100E"/>
<path d="M4213.09 3399.76C4210.74 3434.87 4120.01 3548.39 4088.14 3565.39C3918.6 3655.9 3703.35 3690.14 3516.09 3718.38C3503.89 3700.36 3490.91 3678.28 3479.25 3659.59C3461.17 3634.66 3434.76 3604.59 3414.54 3580.41C3488.18 3568.48 3563.61 3561.49 3638.9 3548.96C3835.93 3516.16 4027.03 3473.92 4213.09 3399.76Z" fill="#841D1B"/>
</svg>
