<svg width="5171" height="4786" viewBox="0 0 5171 4786" fill="none" xmlns="http://www.w3.org/2000/svg">
<mask id="path-1-outside-1_28_880" maskUnits="userSpaceOnUse" x="-0.875977" y="103.499" width="5171" height="4579" fill="black">
<rect fill="white" x="-0.875977" y="103.499" width="5171" height="4579"/>
<path d="M3033 3448.84C3047.69 3448.91 3062.05 3449.18 3075.96 3449.55C3174.95 3450.54 3272.47 3472.95 3343.59 3545.01C3502.57 3706.11 3607.24 4114.16 3636.72 4338.61C3641.46 4374.78 3649.24 4413.38 3648.58 4449.88C3648.34 4462.25 3644.86 4469.07 3635.64 4477.33C3607.64 4502.47 3555.93 4512.66 3519.94 4520.65C3322.86 4564.41 3110.6 4568.05 2909.91 4551.77C2845.11 4546.51 2773.52 4540.65 2710.85 4524.4C2670.8 4516.2 2593.38 4500.34 2563.42 4472.68C2551.65 4461.8 2551.2 4441.8 2551.95 4426.21C2559.34 4291.45 2561.23 4156.88 2569.76 4022.12C2579.92 3861.47 2557.24 3665.23 2685.22 3543.93C2769.28 3464.27 2903.54 3449.32 3020.33 3448.84C3024.57 3448.82 3028.8 3448.83 3033 3448.84Z"/>
<path d="M825.348 3067.94C830.251 3220.3 917.763 3406.78 1023.1 3517.41C1065.52 3561.96 1152.84 3590.59 1210.33 3610.5C1178.39 3731.98 1163.41 3859.64 1132.19 3980.85C1124.39 4011.1 1009.49 4031.77 979.262 4035.94C771.339 4064.87 462.721 4091.21 259.272 4040.75C223.907 4034.8 111.415 4014.25 121.798 3966.31C122.219 3964.37 122.646 3962.42 123.08 3960.47C178.887 3709.32 337.441 3411.39 538.058 3247.63L538.06 3247.63C625.89 3163.52 712.819 3112.1 825.348 3067.94Z"/>
<path d="M4401.1 3090.13C4697.03 3226.12 4903.07 3502.36 5009.9 3804.52C5015.34 3824.38 5063.14 3957.12 5044.9 3967.63C4954.08 4019.93 4756.51 4028.46 4660.86 4032.46C4556.64 4036.21 4171.66 4026.63 4089.32 3974.27C4082.5 3969.91 4076.88 3964.84 4073.9 3957.18C4060.9 3923.86 4057.17 3881.63 4050.41 3846.42C4035.66 3769.95 4021.63 3692.93 4003.24 3617.23C4060.24 3595.6 4142.19 3564.6 4185.88 3523.9C4296.61 3420.71 4388.76 3239.16 4401.1 3090.13Z"/>
<path d="M993.892 3283.71C1024.15 3293.32 1060.72 3308.85 1091.98 3319.78C1153.17 3341.08 1215.16 3359.98 1277.8 3376.53C1683.26 3482.5 2146.61 3507.32 2564.27 3511.64C2543.03 3542.01 2528.76 3569.71 2512.62 3602.51C2505.64 3618.91 2498.91 3637.51 2492.45 3654.33C2163.55 3651.26 1824.38 3628.67 1499.92 3568.36C1389.31 3547.81 1174.83 3508.91 1085.18 3428.95C1057.41 3404.16 1011.09 3320.99 993.892 3283.71Z"/>
<path d="M4221.06 3290.89C4218.71 3326 4127.98 3439.52 4096.11 3456.52C3926.57 3547.03 3711.31 3581.27 3524.06 3609.51C3511.86 3591.49 3498.88 3569.41 3487.22 3550.72C3469.14 3525.79 3442.73 3495.72 3422.51 3471.54C3496.15 3459.62 3571.58 3452.62 3646.87 3440.09C3843.9 3407.29 4035 3365.05 4221.06 3290.89Z"/>
<path fill-rule="evenodd" clip-rule="evenodd" d="M937.227 2807.17C1354.35 3045.92 2082.75 3094.67 2564.39 3096.02C2564.39 3096.02 2564.39 3096.02 2564.4 3096.02C2663.63 3094.28 2784.16 3098.58 2880.2 3094.7C3262.83 3079.29 3968.72 3024.59 4295.8 2828.47C4296.2 2880.41 4302.56 3124.05 4277.24 3150C4256.06 3171.75 4216.46 3183.56 4188.31 3194.46C3955.33 3284.7 3705.4 3328.62 3458.38 3359.74C3406.77 3366.25 3347.85 3378.36 3296.12 3375.96C3260.37 3374.33 3225.4 3358.68 3190.25 3352.11C3107.09 3336.52 3020.05 3336.28 2935.87 3342.25C2873.14 3346.7 2808.7 3357.33 2748.97 3376.95C2725.96 3384.49 2704.57 3400.62 2680.99 3405.49C2634.51 3415.04 2549.19 3407.14 2498.37 3407.59C2435.51 3408.01 2372.5 3405.87 2309.67 3404.16C1922.85 3393.5 1423.41 3347.57 1065.25 3203.2C1035.12 3191.07 967.895 3169.08 947.405 3145.17C925.197 3119.27 935.049 2855.47 937.227 2807.17ZM2672.5 3205.94C2671.41 3209.85 2670.15 3213.87 2668.74 3217.98C2670.15 3213.87 2671.41 3209.85 2672.5 3205.95V3205.94Z"/>
<path d="M1076.2 2709C1153.95 2744.6 1296.81 2781.91 1380.07 2801.37C1805.21 2900.68 2251.67 2917.98 2687.14 2920.12L2687.14 2920.12C3195.11 2906.96 3657.9 2858.51 4149.22 2729.07L4148.95 2792.57C3995.55 2866.86 3726.91 2913.3 3557.04 2938.41C3268.9 2980.41 2978.02 3000.95 2686.84 2999.81V2999.81C2225.71 3000.47 1490.35 2967.58 1076.43 2772.78L1076.2 2709Z"/>
<path fill-rule="evenodd" clip-rule="evenodd" d="M3373.84 227.169C3398.41 224.862 3428.67 223.319 3453.21 225.674C3606.58 240.399 3748.24 362.537 3775.04 516.11C3782.73 560.193 3786.48 604.834 3791.26 648.955L3814.36 854.409L3835.06 1032.09C3842.66 1096.09 3854.12 1147.55 3839.27 1200.73C3995.93 1232.18 4115.6 1282.99 4215.02 1424.76C4326.99 1584.4 4312.03 1749.58 4310.56 1932.33C4309.89 2056.92 4308.57 2181.51 4306.62 2306.09L4304.49 2453.18C4304.16 2477.41 4308.45 2554.54 4287.93 2564.7C4146.64 2634.54 3963.74 2672.69 3811.66 2702.57C3516.03 2758.48 3216.86 2793.62 2916.31 2807.8C2837.51 2811.55 2745.29 2816.54 2666.91 2815.91C2666.9 2815.91 2666.9 2815.91 2666.89 2815.91C2178.97 2821.02 1605.47 2788.85 1143.37 2630.45C1089.16 2611.89 981.498 2570.22 938.662 2534.69C937.098 2512.26 936.897 2485.19 937.036 2458.31C937.15 2436.25 937.492 2414.32 937.506 2395.2L937.673 2213.33C936.635 2209.45 935.685 2205.41 934.8 2201.21C866.305 1883.22 789.82 1566.53 728.49 1246.92C712.961 1165.98 711.877 1107.81 760.444 1038.22C778.05 1012.61 801.562 991.618 828.994 977.01C898.373 940.861 1016.1 895.655 1090.34 864.667L1602.44 653.013L1944.38 511.211C2015.46 481.539 2120.19 430.965 2193.01 418.505C2204.01 416.543 2200.79 414.822 2207.08 418.94C2136.64 555.684 2139.9 596.474 2152.61 746.509L2170.45 948.788L2217.06 1532.53C2222.68 1605.37 2227.42 1678.28 2231.28 1751.24C2234.86 1808.21 2251.74 1888.06 2218.43 1933.76C2245.66 1922.03 2274.72 1909.33 2298.44 1895.39C2322.93 1880.78 2344.12 1861.16 2360.65 1837.78C2409 1768.8 2383.23 1678.86 2370.44 1601.53L2339.37 1413.36C2340.09 1413.67 2341.03 1414.18 2342.15 1414.88C2280.69 1339.3 2289.58 1249.96 2279.98 1147.85L2235.36 665.317C2226.91 569.686 2249.58 489.247 2309.72 413.18C2358.53 351.456 2417.94 354.504 2489.23 342.131C2529.57 335.126 2570.69 329.425 2611.28 323.177C2792.02 294.174 2973.48 270.044 3155.51 250.816C3227.95 242.64 3301.25 232.897 3373.84 227.169ZM2481.36 2224.82C2476.82 2232.07 2471.11 2238.38 2463.97 2243.46C2417.99 2276.14 2293.1 2271.47 2237.72 2273.39C2034.78 2280 1831.64 2277.52 1628.89 2265.94C1583.61 2264.1 1535.19 2259.61 1489.1 2255.49C1697.06 2288.32 1906.52 2311.05 2116.74 2323.58C2238.17 2331 2416.71 2361.05 2481.36 2224.82ZM2067.13 1999.44C2048.29 2005.5 2029.39 2011.49 2010.41 2017.47C1895.18 2053.92 1779.71 2089.6 1664 2124.51L1332.01 2228.71C1332.54 2228.81 1333.08 2228.91 1333.61 2229.01C1379.45 2237.39 1425.37 2245.27 1471.37 2252.67L2039.11 2011.61L2067.13 1999.44ZM2424.38 1482.97C2426.34 1484.81 2427.93 1486.35 2429.05 1487.51C2437.23 1495.95 2449.74 1510.38 2451.32 1522.92C2455.81 1558.5 2458.11 1596.55 2460.77 1632.34L2476.59 1855.51L2490.81 2059.15C2493.43 2096.17 2502.06 2148.63 2494.08 2190.25C2513.15 2120.54 2509.69 2016.09 2512.09 1946.26L2523.83 1569.54C2524.19 1555.11 2523.71 1534.38 2524.24 1512.88C2491.34 1511.6 2459.37 1503.18 2424.38 1482.97Z"/>
</mask>
<path d="M3033 3448.84C3047.69 3448.91 3062.05 3449.18 3075.96 3449.55C3174.95 3450.54 3272.47 3472.95 3343.59 3545.01C3502.57 3706.11 3607.24 4114.16 3636.72 4338.61C3641.46 4374.78 3649.24 4413.38 3648.58 4449.88C3648.34 4462.25 3644.86 4469.07 3635.64 4477.33C3607.64 4502.47 3555.93 4512.66 3519.94 4520.65C3322.86 4564.41 3110.6 4568.05 2909.91 4551.77C2845.11 4546.51 2773.52 4540.65 2710.85 4524.4C2670.8 4516.2 2593.38 4500.34 2563.42 4472.68C2551.65 4461.8 2551.2 4441.8 2551.95 4426.21C2559.34 4291.45 2561.23 4156.88 2569.76 4022.12C2579.92 3861.47 2557.24 3665.23 2685.22 3543.93C2769.28 3464.27 2903.54 3449.32 3020.33 3448.84C3024.57 3448.82 3028.8 3448.83 3033 3448.84Z" fill="black"/>
<path d="M825.348 3067.94C830.251 3220.3 917.763 3406.78 1023.1 3517.41C1065.52 3561.96 1152.84 3590.59 1210.33 3610.5C1178.39 3731.98 1163.41 3859.64 1132.19 3980.85C1124.39 4011.1 1009.49 4031.77 979.262 4035.94C771.339 4064.87 462.721 4091.21 259.272 4040.75C223.907 4034.8 111.415 4014.25 121.798 3966.31C122.219 3964.37 122.646 3962.42 123.08 3960.47C178.887 3709.32 337.441 3411.39 538.058 3247.63L538.06 3247.63C625.89 3163.52 712.819 3112.1 825.348 3067.94Z" fill="black"/>
<path d="M4401.1 3090.13C4697.03 3226.12 4903.07 3502.36 5009.9 3804.52C5015.34 3824.38 5063.14 3957.12 5044.9 3967.63C4954.08 4019.93 4756.51 4028.46 4660.86 4032.46C4556.64 4036.21 4171.66 4026.63 4089.32 3974.27C4082.5 3969.91 4076.88 3964.84 4073.9 3957.18C4060.9 3923.86 4057.17 3881.63 4050.41 3846.42C4035.66 3769.95 4021.63 3692.93 4003.24 3617.23C4060.24 3595.6 4142.19 3564.6 4185.88 3523.9C4296.61 3420.71 4388.76 3239.16 4401.1 3090.13Z" fill="black"/>
<path d="M993.892 3283.71C1024.15 3293.32 1060.72 3308.85 1091.98 3319.78C1153.17 3341.08 1215.16 3359.98 1277.8 3376.53C1683.26 3482.5 2146.61 3507.32 2564.27 3511.64C2543.03 3542.01 2528.76 3569.71 2512.62 3602.51C2505.64 3618.91 2498.91 3637.51 2492.45 3654.33C2163.55 3651.26 1824.38 3628.67 1499.92 3568.36C1389.31 3547.81 1174.83 3508.91 1085.18 3428.95C1057.41 3404.16 1011.09 3320.99 993.892 3283.71Z" fill="black"/>
<path d="M4221.06 3290.89C4218.71 3326 4127.98 3439.52 4096.11 3456.52C3926.57 3547.03 3711.31 3581.27 3524.06 3609.51C3511.86 3591.49 3498.88 3569.41 3487.22 3550.72C3469.14 3525.79 3442.73 3495.72 3422.51 3471.54C3496.15 3459.62 3571.58 3452.62 3646.87 3440.09C3843.9 3407.29 4035 3365.05 4221.06 3290.89Z" fill="black"/>
<path fill-rule="evenodd" clip-rule="evenodd" d="M937.227 2807.17C1354.35 3045.92 2082.75 3094.67 2564.39 3096.02C2564.39 3096.02 2564.39 3096.02 2564.4 3096.02C2663.63 3094.28 2784.16 3098.58 2880.2 3094.7C3262.83 3079.29 3968.72 3024.59 4295.8 2828.47C4296.2 2880.41 4302.56 3124.05 4277.24 3150C4256.06 3171.75 4216.46 3183.56 4188.31 3194.46C3955.33 3284.7 3705.4 3328.62 3458.38 3359.74C3406.77 3366.25 3347.85 3378.36 3296.12 3375.96C3260.37 3374.33 3225.4 3358.68 3190.25 3352.11C3107.09 3336.52 3020.05 3336.28 2935.87 3342.25C2873.14 3346.7 2808.7 3357.33 2748.97 3376.95C2725.96 3384.49 2704.57 3400.62 2680.99 3405.49C2634.51 3415.04 2549.19 3407.14 2498.37 3407.59C2435.51 3408.01 2372.5 3405.87 2309.67 3404.16C1922.85 3393.5 1423.41 3347.57 1065.25 3203.2C1035.12 3191.07 967.895 3169.08 947.405 3145.17C925.197 3119.27 935.049 2855.47 937.227 2807.17ZM2672.5 3205.94C2671.41 3209.85 2670.15 3213.87 2668.74 3217.98C2670.15 3213.87 2671.41 3209.85 2672.5 3205.95V3205.94Z" fill="black"/>
<path d="M1076.2 2709C1153.95 2744.6 1296.81 2781.91 1380.07 2801.37C1805.21 2900.68 2251.67 2917.98 2687.14 2920.12L2687.14 2920.12C3195.11 2906.96 3657.9 2858.51 4149.22 2729.07L4148.95 2792.57C3995.55 2866.86 3726.91 2913.3 3557.04 2938.41C3268.9 2980.41 2978.02 3000.95 2686.84 2999.81V2999.81C2225.71 3000.47 1490.35 2967.58 1076.43 2772.78L1076.2 2709Z" fill="black"/>
<path fill-rule="evenodd" clip-rule="evenodd" d="M3373.84 227.169C3398.41 224.862 3428.67 223.319 3453.21 225.674C3606.58 240.399 3748.24 362.537 3775.04 516.11C3782.73 560.193 3786.48 604.834 3791.26 648.955L3814.36 854.409L3835.06 1032.09C3842.66 1096.09 3854.12 1147.55 3839.27 1200.73C3995.93 1232.18 4115.6 1282.99 4215.02 1424.76C4326.99 1584.4 4312.03 1749.58 4310.56 1932.33C4309.89 2056.92 4308.57 2181.51 4306.62 2306.09L4304.49 2453.18C4304.16 2477.41 4308.45 2554.54 4287.93 2564.7C4146.64 2634.54 3963.74 2672.69 3811.66 2702.57C3516.03 2758.48 3216.86 2793.62 2916.31 2807.8C2837.51 2811.55 2745.29 2816.54 2666.91 2815.91C2666.9 2815.91 2666.9 2815.91 2666.89 2815.91C2178.97 2821.02 1605.47 2788.85 1143.37 2630.45C1089.16 2611.89 981.498 2570.22 938.662 2534.69C937.098 2512.26 936.897 2485.19 937.036 2458.31C937.15 2436.25 937.492 2414.32 937.506 2395.2L937.673 2213.33C936.635 2209.45 935.685 2205.41 934.8 2201.21C866.305 1883.22 789.82 1566.53 728.49 1246.92C712.961 1165.98 711.877 1107.81 760.444 1038.22C778.05 1012.61 801.562 991.618 828.994 977.01C898.373 940.861 1016.1 895.655 1090.34 864.667L1602.44 653.013L1944.38 511.211C2015.46 481.539 2120.19 430.965 2193.01 418.505C2204.01 416.543 2200.79 414.822 2207.08 418.94C2136.64 555.684 2139.9 596.474 2152.61 746.509L2170.45 948.788L2217.06 1532.53C2222.68 1605.37 2227.42 1678.28 2231.28 1751.24C2234.86 1808.21 2251.74 1888.06 2218.43 1933.76C2245.66 1922.03 2274.72 1909.33 2298.44 1895.39C2322.93 1880.78 2344.12 1861.16 2360.65 1837.78C2409 1768.8 2383.23 1678.86 2370.44 1601.53L2339.37 1413.36C2340.09 1413.67 2341.03 1414.18 2342.15 1414.88C2280.69 1339.3 2289.58 1249.96 2279.98 1147.85L2235.36 665.317C2226.91 569.686 2249.58 489.247 2309.72 413.18C2358.53 351.456 2417.94 354.504 2489.23 342.131C2529.57 335.126 2570.69 329.425 2611.28 323.177C2792.02 294.174 2973.48 270.044 3155.51 250.816C3227.95 242.64 3301.25 232.897 3373.84 227.169ZM2481.36 2224.82C2476.82 2232.07 2471.11 2238.38 2463.97 2243.46C2417.99 2276.14 2293.1 2271.47 2237.72 2273.39C2034.78 2280 1831.64 2277.52 1628.89 2265.94C1583.61 2264.1 1535.19 2259.61 1489.1 2255.49C1697.06 2288.32 1906.52 2311.05 2116.74 2323.58C2238.17 2331 2416.71 2361.05 2481.36 2224.82ZM2067.13 1999.44C2048.29 2005.5 2029.39 2011.49 2010.41 2017.47C1895.18 2053.92 1779.71 2089.6 1664 2124.51L1332.01 2228.71C1332.54 2228.81 1333.08 2228.91 1333.61 2229.01C1379.45 2237.39 1425.37 2245.27 1471.37 2252.67L2039.11 2011.61L2067.13 1999.44ZM2424.38 1482.97C2426.34 1484.81 2427.93 1486.35 2429.05 1487.51C2437.23 1495.95 2449.74 1510.38 2451.32 1522.92C2455.81 1558.5 2458.11 1596.55 2460.77 1632.34L2476.59 1855.51L2490.81 2059.15C2493.43 2096.17 2502.06 2148.63 2494.08 2190.25C2513.15 2120.54 2509.69 2016.09 2512.09 1946.26L2523.83 1569.54C2524.19 1555.11 2523.71 1534.38 2524.24 1512.88C2491.34 1511.6 2459.37 1503.18 2424.38 1482.97Z" fill="black"/>
<path d="M2498.37 3407.59L2508.2 3467.28C2564.34 3458.04 2611.58 3416.64 2644.37 3378.08L2598.28 3338.89L2552.2 3299.69C2524.74 3331.97 2501.29 3345.79 2488.54 3347.89L2498.37 3407.59ZM2615.46 3317.12L2566.66 3281.35C2562.49 3287.05 2558.18 3292.56 2553.77 3297.83L2600.17 3336.65L2646.57 3375.47C2652.71 3368.13 2658.61 3360.58 2664.25 3352.89L2615.46 3317.12ZM2619.87 3310.98L2570.43 3276.11C2569.8 3277.01 2569.13 3277.94 2568.42 3278.93L2617.52 3314.28L2666.61 3349.63C2667.48 3348.43 2668.39 3347.16 2669.32 3345.84L2619.87 3310.98ZM2631.07 3294.27L2580.03 3261.79C2577.87 3265.18 2575.64 3268.56 2573.34 3271.92L2623.27 3306.08L2673.21 3340.24C2676.25 3335.79 2679.23 3331.28 2682.11 3326.75L2631.07 3294.27ZM2645.73 3269.39L2592.58 3240.49C2591.43 3242.61 2590.26 3244.71 2589.07 3246.8L2641.61 3276.79L2694.16 3306.77C2695.78 3303.93 2697.35 3301.11 2698.88 3298.3L2645.73 3269.39ZM2655.72 3249.74L2601.02 3223.9C2598.96 3228.25 2596.74 3232.69 2594.35 3237.2L2647.8 3265.53L2701.26 3293.86C2704.48 3287.78 2707.55 3281.68 2710.43 3275.58L2655.72 3249.74ZM2663.01 3233.21L2607 3210.33C2606.13 3212.47 2605.2 3214.66 2604.22 3216.88L2659.59 3241.26L2714.96 3265.64C2716.36 3262.46 2717.72 3259.28 2719.01 3256.1L2663.01 3233.21ZM2681.54 3151.93L2621.26 3146.88C2620.97 3150.32 2620.61 3153.79 2620.19 3157.32L2680.25 3164.59L2740.31 3171.87C2740.91 3166.86 2741.42 3161.92 2741.83 3156.99L2681.54 3151.93ZM3033 3448.84L3032.46 3569.84L3033 3448.84ZM3075.96 3449.55L3072.73 3570.51L3073.74 3570.53L3074.75 3570.54L3075.96 3449.55ZM3343.59 3545.01L3257.46 3630L3257.46 3630.01L3343.59 3545.01ZM3636.72 4338.61L3756.69 4322.87L3756.69 4322.86L3636.72 4338.61ZM3648.58 4449.88L3769.56 4452.23L3769.56 4452.15L3769.56 4452.07L3648.58 4449.88ZM3635.64 4477.33L3554.91 4387.2L3554.85 4387.25L3554.79 4387.3L3635.64 4477.33ZM3519.94 4520.65L3493.72 4402.52L3493.71 4402.53L3519.94 4520.65ZM2909.91 4551.77L2919.7 4431.16H2919.7L2909.91 4551.77ZM2710.85 4524.4L2741.22 4407.28L2738.19 4406.49L2735.12 4405.86L2710.85 4524.4ZM2563.42 4472.68L2645.52 4383.79L2645.52 4383.78L2645.51 4383.78L2563.42 4472.68ZM2551.95 4426.21L2431.13 4419.58L2431.11 4419.98L2431.09 4420.38L2551.95 4426.21ZM2569.76 4022.12L2690.52 4029.77L2690.52 4029.76L2569.76 4022.12ZM2685.22 3543.93L2601.99 3456.1L2601.98 3456.11L2685.22 3543.93ZM3020.33 3448.84L3019.83 3327.84V3327.84L3020.33 3448.84ZM825.348 3067.94L946.285 3064.05L940.77 2892.66L781.148 2955.3L825.348 3067.94ZM1023.1 3517.41L935.465 3600.85L935.472 3600.85L1023.1 3517.41ZM1210.33 3610.5L1327.35 3641.27L1355.86 3532.86L1249.94 3496.17L1210.33 3610.5ZM1132.19 3980.85L1249.35 4011.06L1249.36 4011.05L1249.36 4011.03L1132.19 3980.85ZM979.262 4035.94L962.704 3916.08L962.646 3916.09L962.588 3916.1L979.262 4035.94ZM259.272 4040.75L288.403 3923.31L283.908 3922.19L279.34 3921.42L259.272 4040.75ZM121.798 3966.31L240.056 3991.92L240.059 3991.91L121.798 3966.31ZM123.08 3960.47L241.199 3986.71L241.199 3986.71L123.08 3960.47ZM538.058 3247.63L483.945 3139.4L471.94 3145.41L461.542 3153.89L538.058 3247.63ZM538.06 3247.63L592.173 3355.85L608.535 3347.67L621.747 3335.02L538.06 3247.63ZM4401.1 3090.13L4451.63 2980.19L4294.77 2908.11L4280.52 3080.14L4401.1 3090.13ZM5009.9 3804.52L5126.6 3772.56L5125.44 3768.33L5123.98 3764.19L5009.9 3804.52ZM5044.9 3967.63L5105.28 4072.49L5105.31 4072.47L5105.33 4072.46L5044.9 3967.63ZM4660.86 4032.46L4665.21 4153.38L4665.56 4153.36L4665.91 4153.35L4660.86 4032.46ZM4089.32 3974.27L4024.19 4076.25L4024.29 4076.31L4024.39 4076.38L4089.32 3974.27ZM4073.9 3957.18L4186.7 3913.38L4186.66 3913.27L4186.62 3913.16L4073.9 3957.18ZM4050.41 3846.42L4169.24 3823.61L4169.23 3823.56L4169.22 3823.51L4050.41 3846.42ZM4003.24 3617.23L3960.31 3504.1L3860.45 3542L3885.66 3645.79L4003.24 3617.23ZM4185.88 3523.9L4103.39 3435.37L4103.39 3435.37L4185.88 3523.9ZM993.892 3283.71L1030.52 3168.38L769.162 3085.37L884.016 3334.38L993.892 3283.71ZM1091.98 3319.78L1052.02 3434L1052.12 3434.03L1052.21 3434.06L1091.98 3319.78ZM1277.8 3376.53L1246.88 3493.51L1247.04 3493.55L1247.2 3493.59L1277.8 3376.53ZM2564.27 3511.64L2663.42 3580.99L2794.89 3393.02L2565.52 3390.65L2564.27 3511.64ZM2512.62 3602.51L2404.05 3549.1L2402.59 3552.06L2401.3 3555.1L2512.62 3602.51ZM2492.45 3654.33L2491.32 3775.32L2575.26 3776.1L2605.38 3697.75L2492.45 3654.33ZM1499.92 3568.36L1522.04 3449.39L1522.03 3449.39L1522.02 3449.39L1499.92 3568.36ZM1085.18 3428.95L1004.62 3519.23L1004.63 3519.23L1004.64 3519.24L1085.18 3428.95ZM4221.06 3290.89L4341.79 3298.94L4354.57 3107.41L4176.25 3178.49L4221.06 3290.89ZM4096.11 3456.52L4039.16 3349.76L4039.14 3349.77L4039.12 3349.78L4096.11 3456.52ZM3524.06 3609.51L3423.85 3677.33L3466.63 3740.54L3542.1 3729.16L3524.06 3609.51ZM3487.22 3550.72L3589.88 3486.68L3587.65 3483.09L3585.17 3479.67L3487.22 3550.72ZM3422.51 3471.54L3403.17 3352.1L3193.33 3386.08L3329.68 3549.16L3422.51 3471.54ZM3646.87 3440.09L3666.73 3559.45L3666.74 3559.45L3646.87 3440.09ZM937.227 2807.17L997.334 2702.15L825.28 2603.68L816.35 2801.72L937.227 2807.17ZM2564.39 3096.02L2591.35 2978.06L2578.21 2975.06L2564.73 2975.02L2564.39 3096.02ZM2564.4 3096.02L2537.45 3213.99L2551.8 3217.26L2566.52 3217L2564.4 3096.02ZM2880.2 3094.7L2875.33 2973.8L2875.32 2973.8L2880.2 3094.7ZM4295.8 2828.47L4416.8 2827.56L4415.21 2615.79L4233.58 2724.69L4295.8 2828.47ZM4277.24 3150L4190.64 3065.5L4190.6 3065.54L4190.55 3065.58L4277.24 3150ZM4188.31 3194.46L4232.01 3307.29L4232.02 3307.29L4188.31 3194.46ZM3458.38 3359.74L3443.26 3239.69L3443.24 3239.69L3443.22 3239.69L3458.38 3359.74ZM3296.12 3375.96L3301.73 3255.09L3301.67 3255.08L3301.6 3255.08L3296.12 3375.96ZM3190.25 3352.11L3167.95 3471.03L3167.97 3471.04L3167.99 3471.04L3190.25 3352.11ZM2935.87 3342.25L2944.43 3462.95L2944.43 3462.95L2944.44 3462.95L2935.87 3342.25ZM2748.97 3376.95L2786.65 3491.93L2786.69 3491.92L2786.73 3491.91L2748.97 3376.95ZM2680.99 3405.49L2705.35 3524.01L2705.39 3524L2705.44 3523.99L2680.99 3405.49ZM2498.37 3407.59L2499.18 3528.59L2499.31 3528.58L2499.44 3528.58L2498.37 3407.59ZM2309.67 3404.16L2306.33 3525.12L2306.35 3525.12L2306.37 3525.12L2309.67 3404.16ZM1065.25 3203.2L1110.48 3090.98L1110.47 3090.97L1110.45 3090.96L1065.25 3203.2ZM947.405 3145.17L1039.29 3066.43L1039.27 3066.41L1039.25 3066.39L947.405 3145.17ZM2672.5 3205.94H2793.5L2556.02 3173.21L2672.5 3205.94ZM2672.5 3205.95L2788.99 3238.68L2793.5 3222.62V3205.95H2672.5ZM1076.2 2709L1126.57 2598.98L954.525 2520.22L955.203 2709.44L1076.2 2709ZM1380.07 2801.37L1352.52 2919.2L1352.54 2919.2L1352.55 2919.2L1380.07 2801.37ZM2687.14 2920.12L2772.7 3005.68L2977.84 2800.54L2687.74 2799.12L2687.14 2920.12ZM2687.14 2920.12L2601.58 2834.56L2387.21 3048.93L2690.28 3041.08L2687.14 2920.12ZM4149.22 2729.07L4270.22 2729.59L4270.89 2571.89L4118.4 2612.06L4149.22 2729.07ZM4148.95 2792.57L4201.69 2901.47L4269.63 2868.57L4269.95 2793.09L4148.95 2792.57ZM3557.04 2938.41L3574.49 3058.15L3574.62 3058.13L3574.74 3058.11L3557.04 2938.41ZM2686.84 2999.81H2565.84V3120.34L2686.37 3120.81L2686.84 2999.81ZM2686.84 2999.81H2807.84V2878.64L2686.67 2878.81L2686.84 2999.81ZM1076.43 2772.78L955.432 2773.21L955.706 2849.69L1024.91 2882.26L1076.43 2772.78ZM3373.84 227.169L3383.36 347.794L3384.25 347.723L3385.15 347.639L3373.84 227.169ZM3453.21 225.674L3464.78 105.228L3464.77 105.227L3453.21 225.674ZM3775.04 516.11L3894.23 495.314L3894.23 495.31L3775.04 516.11ZM3791.26 648.955L3670.96 661.979L3670.99 662.228L3671.02 662.476L3791.26 648.955ZM3814.36 854.409L3694.12 867.93L3694.15 868.171L3694.17 868.411L3814.36 854.409ZM3835.06 1032.09L3714.87 1046.09L3714.89 1046.22L3714.9 1046.35L3835.06 1032.09ZM3839.27 1200.73L3722.73 1168.19L3687.67 1293.72L3815.45 1319.37L3839.27 1200.73ZM4215.02 1424.76L4115.95 1494.23L4115.96 1494.24L4215.02 1424.76ZM4310.56 1932.33L4189.56 1931.36L4189.56 1931.52L4189.56 1931.69L4310.56 1932.33ZM4306.62 2306.09L4185.64 2304.2L4185.63 2304.27L4185.63 2304.34L4306.62 2306.09ZM4304.49 2453.18L4183.5 2451.42L4183.5 2451.48L4183.5 2451.53L4304.49 2453.18ZM4287.93 2564.7L4341.55 2673.17L4341.57 2673.16L4341.6 2673.14L4287.93 2564.7ZM3811.66 2702.57L3834.14 2821.47L3834.57 2821.39L3834.99 2821.3L3811.66 2702.57ZM2916.31 2807.8L2910.61 2686.93L2910.58 2686.94L2910.55 2686.94L2916.31 2807.8ZM2666.91 2815.91L2667.88 2694.91L2657.84 2694.83L2647.93 2696.41L2666.91 2815.91ZM2666.89 2815.91L2668.16 2936.91L2677.07 2936.81L2685.87 2935.41L2666.89 2815.91ZM1143.37 2630.45L1182.6 2515.99L1182.59 2515.98L1182.57 2515.98L1143.37 2630.45ZM938.662 2534.69L817.956 2543.11L821.558 2594.76L861.406 2627.81L938.662 2534.69ZM937.036 2458.31L1058.03 2458.94V2458.94L937.036 2458.31ZM937.506 2395.2L816.506 2395.09V2395.1L816.506 2395.12L937.506 2395.2ZM937.673 2213.33L1058.67 2213.44L1058.69 2197.48L1054.56 2182.06L937.673 2213.33ZM934.8 2201.21L1053.2 2176.28L1053.15 2176.01L1053.09 2175.73L934.8 2201.21ZM728.49 1246.92L609.658 1269.72L609.658 1269.72L728.49 1246.92ZM760.444 1038.22L859.669 1107.47L859.913 1107.12L860.154 1106.77L760.444 1038.22ZM828.994 977.01L773.083 869.702L772.601 869.953L772.122 870.208L828.994 977.01ZM1090.34 864.667L1044.12 752.842L1043.92 752.923L1043.73 753.005L1090.34 864.667ZM1602.44 653.013L1648.65 764.838L1648.72 764.811L1648.79 764.783L1602.44 653.013ZM1944.38 511.211L1990.73 622.981L1990.86 622.926L1990.99 622.871L1944.38 511.211ZM2193.01 418.505L2213.42 537.771L2213.84 537.699L2214.26 537.624L2193.01 418.505ZM2207.08 418.94L2314.64 474.351L2364.57 377.422L2273.35 317.704L2207.08 418.94ZM2152.61 746.509L2032.04 756.724L2032.06 756.933L2032.08 757.142L2152.61 746.509ZM2170.45 948.788L2291.07 939.158L2291.03 938.656L2290.99 938.155L2170.45 948.788ZM2217.06 1532.53L2337.7 1523.23L2337.69 1523.06L2337.68 1522.89L2217.06 1532.53ZM2231.28 1751.24L2110.45 1757.64L2110.48 1758.23L2110.52 1758.81L2231.28 1751.24ZM2218.43 1933.76L2120.64 1862.49L1860.27 2219.73L2266.28 2044.9L2218.43 1933.76ZM2298.44 1895.39L2359.73 1999.72L2360.08 1999.51L2360.44 1999.3L2298.44 1895.39ZM2360.65 1837.78L2459.45 1907.63L2459.59 1907.43L2459.73 1907.23L2360.65 1837.78ZM2370.44 1601.53L2251.06 1621.24L2251.06 1621.25L2251.06 1621.27L2370.44 1601.53ZM2339.37 1413.36L2386.7 1302L2184.13 1215.91L2219.99 1433.08L2339.37 1413.36ZM2342.15 1414.88L2278.65 1517.87L2436.03 1338.53L2342.15 1414.88ZM2279.98 1147.85L2159.49 1158.99L2159.5 1159.09L2159.51 1159.18L2279.98 1147.85ZM2235.36 665.317L2114.83 675.973L2114.85 676.215L2114.87 676.458L2235.36 665.317ZM2309.72 413.18L2404.64 488.226L2404.64 488.225L2309.72 413.18ZM2489.23 342.131L2509.92 461.349L2509.93 461.347L2509.94 461.346L2489.23 342.131ZM2611.28 323.177L2629.69 442.768L2630.07 442.709L2630.45 442.648L2611.28 323.177ZM3155.51 250.816L3168.23 371.147L3168.66 371.101L3169.09 371.053L3155.51 250.816ZM2481.36 2224.82L2590.67 2276.69L2378.78 2160.64L2481.36 2224.82ZM2463.97 2243.46L2534.08 2342.08L2534.08 2342.07L2463.97 2243.46ZM2237.72 2273.39L2241.66 2394.32L2241.79 2394.32L2241.92 2394.32L2237.72 2273.39ZM1628.89 2265.94L1635.78 2145.14L1634.79 2145.08L1633.8 2145.04L1628.89 2265.94ZM1489.1 2255.49L1499.86 2134.97L1470.23 2375.01L1489.1 2255.49ZM2116.74 2323.58L2124.13 2202.8L2124.04 2202.8L2123.95 2202.79L2116.74 2323.58ZM2067.13 1999.44L2115.35 2110.41L2030.1 1884.24L2067.13 1999.44ZM2010.41 2017.47L1974.06 1902.06L1973.99 1902.08L1973.92 1902.1L2010.41 2017.47ZM1664 2124.51L1629.05 2008.67L1628.41 2008.86L1627.77 2009.06L1664 2124.51ZM1332.01 2228.71L1295.77 2113.26L1309.54 2347.6L1332.01 2228.71ZM1333.61 2229.01L1311.26 2347.93L1311.56 2347.99L1311.85 2348.04L1333.61 2229.01ZM1471.37 2252.67L1452.17 2372.13L1486.58 2377.66L1518.66 2364.04L1471.37 2252.67ZM2039.11 2011.61L2086.4 2122.99L2086.86 2122.79L2087.32 2122.59L2039.11 2011.61ZM2424.38 1482.97L2484.91 1378.2L2341.59 1571.21L2424.38 1482.97ZM2429.05 1487.51L2515.95 1403.3L2515.94 1403.29L2429.05 1487.51ZM2451.32 1522.92L2571.37 1507.76L2571.37 1507.75L2451.32 1522.92ZM2460.77 1632.34L2581.47 1623.78L2581.45 1623.56L2581.44 1623.34L2460.77 1632.34ZM2476.59 1855.51L2597.29 1847.08L2597.29 1847.02L2597.28 1846.96L2476.59 1855.51ZM2490.81 2059.15L2370.1 2067.58L2370.11 2067.64L2370.11 2067.71L2490.81 2059.15ZM2494.08 2190.25L2375.24 2167.49L2610.79 2222.18L2494.08 2190.25ZM2512.09 1946.26L2633.02 1950.41L2633.02 1950.22L2633.03 1950.03L2512.09 1946.26ZM2523.83 1569.54L2644.77 1573.31L2644.78 1572.94L2644.79 1572.57L2523.83 1569.54ZM2524.24 1512.88L2645.2 1515.82L2648.1 1396.62L2528.95 1391.97L2524.24 1512.88ZM3033 3448.84L3032.46 3569.84C3046.03 3569.9 3059.47 3570.15 3072.73 3570.51L3075.96 3449.55L3079.19 3328.59C3064.64 3328.2 3049.34 3327.91 3033.53 3327.84L3033 3448.84ZM3075.96 3449.55L3074.75 3570.54C3158.93 3571.39 3218.49 3590.51 3257.46 3630L3343.59 3545.01L3429.71 3460.02C3326.46 3355.39 3190.98 3329.7 3077.17 3328.56L3075.96 3449.55ZM3343.59 3545.01L3257.46 3630.01C3316.16 3689.48 3375.07 3808.74 3423.85 3956.08C3471.09 4098.79 3502.97 4249.44 3516.75 4354.36L3636.72 4338.61L3756.69 4322.86C3740.99 4203.33 3705.8 4037.73 3653.59 3880.03C3602.92 3726.96 3530 3561.64 3429.71 3460.02L3343.59 3545.01ZM3636.72 4338.61L3516.75 4354.36C3523.05 4402.39 3528.05 4423.2 3527.6 4447.69L3648.58 4449.88L3769.56 4452.07C3770.44 4403.56 3759.88 4347.17 3756.69 4322.87L3636.72 4338.61ZM3648.58 4449.88L3527.61 4447.53C3527.7 4442.6 3528.66 4428.92 3536.37 4412.83C3543.8 4397.35 3553.16 4388.76 3554.91 4387.2L3635.64 4477.33L3716.36 4567.46C3727.33 4557.64 3743.05 4541.52 3754.59 4517.46C3766.41 4492.8 3769.23 4469.53 3769.56 4452.23L3648.58 4449.88ZM3635.64 4477.33L3554.79 4387.3C3558.23 4384.22 3559.8 4383.82 3557.24 4385.09C3554.84 4386.27 3550.59 4388.04 3543.95 4390.16C3529.58 4394.76 3514.28 4397.96 3493.72 4402.52L3519.94 4520.65L3546.16 4638.77C3561.6 4635.35 3590.14 4629.46 3617.62 4620.68C3643.71 4612.34 3683.26 4597.19 3716.48 4567.36L3635.64 4477.33ZM3519.94 4520.65L3493.71 4402.53C3312.29 4442.81 3113.02 4446.85 2919.7 4431.16L2909.91 4551.77L2900.13 4672.37C3108.18 4689.25 3333.42 4686.02 3546.17 4638.77L3519.94 4520.65ZM2909.91 4551.77L2919.7 4431.16C2852.65 4425.72 2791.9 4420.42 2741.22 4407.28L2710.85 4524.4L2680.47 4641.53C2755.13 4660.89 2837.57 4667.3 2900.13 4672.37L2909.91 4551.77ZM2710.85 4524.4L2735.12 4405.86C2714.58 4401.66 2690.33 4396.62 2668.18 4389.96C2657.23 4386.67 2649.05 4383.63 2643.59 4381.15C2637.03 4378.16 2639.6 4378.32 2645.52 4383.79L2563.42 4472.68L2481.33 4561.56C2518.73 4596.11 2570.23 4613.21 2598.52 4621.72C2632.58 4631.96 2667.07 4638.95 2686.57 4642.94L2710.85 4524.4ZM2563.42 4472.68L2645.51 4383.78C2666.65 4403.3 2671.18 4424.81 2672.09 4429.84C2673.08 4435.36 2672.54 4437.54 2672.81 4432.03L2551.95 4426.21L2431.09 4420.38C2430.6 4430.46 2429.92 4450.44 2433.89 4472.58C2437.77 4494.22 2448.42 4531.18 2481.34 4561.58L2563.42 4472.68ZM2551.95 4426.21L2672.77 4432.83C2676.54 4364.1 2678.9 4295.47 2681.35 4228.59C2683.81 4161.24 2686.37 4095.36 2690.52 4029.77L2569.76 4022.12L2449.01 4014.48C2444.63 4083.64 2441.97 4152.42 2439.51 4219.74C2437.03 4287.52 2434.75 4353.56 2431.13 4419.58L2551.95 4426.21ZM2569.76 4022.12L2690.52 4029.76C2693.23 3986.97 2693.83 3940.05 2695.03 3900.36C2696.31 3858.44 2698.29 3820.3 2703.18 3784.76C2712.96 3713.67 2732.73 3665.62 2768.45 3631.76L2685.22 3543.93L2601.98 3456.11C2509.73 3543.55 2476.85 3654.26 2463.43 3751.78C2456.73 3800.54 2454.48 3849.17 2453.15 3893.02C2451.75 3939.1 2451.38 3976.95 2449 4014.49L2569.76 4022.12ZM2685.22 3543.93L2768.45 3631.76C2814.83 3587.81 2903.74 3570.32 3020.82 3569.84L3020.33 3448.84L3019.83 3327.84C2903.34 3328.32 2723.74 3340.73 2601.99 3456.1L2685.22 3543.93ZM3020.33 3448.84L3020.82 3569.84C3024.71 3569.82 3028.59 3569.83 3032.46 3569.84L3033 3448.84L3033.53 3327.84C3029.01 3327.82 3024.44 3327.82 3019.83 3327.84L3020.33 3448.84ZM825.348 3067.94L704.41 3071.83C710.404 3258.09 812.728 3471.94 935.465 3600.85L1023.1 3517.41L1110.73 3433.98C1022.8 3341.62 950.097 3182.5 946.285 3064.05L825.348 3067.94ZM1023.1 3517.41L935.472 3600.85C973.57 3640.86 1023.96 3666.93 1062.03 3683.81C1102.05 3701.55 1143.84 3715.52 1170.72 3724.83L1210.33 3610.5L1249.94 3496.17C1219.33 3485.56 1188.72 3475.26 1160.1 3462.58C1129.53 3449.02 1115.05 3438.51 1110.72 3433.97L1023.1 3517.41ZM1210.33 3610.5L1093.31 3579.73C1076.05 3645.36 1063.58 3711.88 1052.05 3773.54C1040.25 3836.65 1029.42 3894.72 1015.01 3950.67L1132.19 3980.85L1249.36 4011.03C1266.17 3945.77 1278.45 3879.41 1289.93 3818.02C1301.68 3755.17 1312.67 3697.12 1327.35 3641.27L1210.33 3610.5ZM1132.19 3980.85L1015.02 3950.64C1022.47 3921.75 1039.16 3905.74 1044.75 3900.83C1051.21 3895.16 1055.66 3893.14 1054.54 3893.71C1052.4 3894.79 1044.98 3897.84 1031.2 3901.74C1004.68 3909.24 974.202 3914.49 962.704 3916.08L979.262 4035.94L995.819 4155.8C1014.55 4153.22 1056.63 4146.04 1097.07 4134.61C1116.77 4129.03 1141.42 4120.99 1163.97 4109.56C1175.19 4103.87 1190.13 4095.24 1204.48 4082.63C1217.96 4070.79 1239.96 4047.52 1249.35 4011.06L1132.19 3980.85ZM979.262 4035.94L962.588 3916.1C753.616 3945.17 466.524 3967.49 288.403 3923.31L259.272 4040.75L230.14 4158.19C458.918 4214.94 789.062 4184.57 995.935 4155.79L979.262 4035.94ZM259.272 4040.75L279.34 3921.42C261.774 3918.47 235.354 3913.39 216.359 3906.17C205.817 3902.16 208.282 3901.4 215.311 3907.79C219.598 3911.69 228.464 3920.89 234.961 3936.48C242.121 3953.66 244.099 3973.26 240.056 3991.92L121.798 3966.31L3.53954 3940.7C-11.2989 4009.22 23.5033 4060.48 52.5383 4086.87C78.8447 4110.78 109.696 4124.52 130.4 4132.39C173.897 4148.92 221.405 4157.08 239.203 4160.07L259.272 4040.75ZM121.798 3966.31L240.059 3991.91C240.435 3990.18 240.815 3988.44 241.199 3986.71L123.08 3960.47L4.96114 3934.22C4.4781 3936.39 4.00353 3938.56 3.53702 3940.71L121.798 3966.31ZM123.08 3960.47L241.199 3986.71C292.525 3755.73 439.56 3484.23 614.573 3341.37L538.058 3247.63L461.542 3153.89C235.322 3338.56 65.2481 3662.91 4.96112 3934.22L123.08 3960.47ZM538.058 3247.63L592.171 3355.86L592.173 3355.85L538.06 3247.63L483.947 3139.4L483.945 3139.4L538.058 3247.63ZM538.06 3247.63L621.747 3335.02C696.408 3263.52 769.221 3219.95 869.548 3180.58L825.348 3067.94L781.148 2955.3C656.417 3004.25 555.372 3063.52 454.372 3160.24L538.06 3247.63ZM4401.1 3090.13L4350.58 3200.08C4609.07 3318.87 4796.69 3564.5 4895.82 3844.85L5009.9 3804.52L5123.98 3764.19C5009.44 3440.22 4784.99 3133.38 4451.63 2980.19L4401.1 3090.13ZM5009.9 3804.52L4893.2 3836.48C4894.74 3842.12 4897.02 3849.17 4898.56 3853.97C4900.79 3860.86 4902.35 3865.6 4905.05 3874C4909.88 3888.98 4915.22 3905.99 4919.75 3922.19C4924.59 3939.46 4927.23 3951.36 4928.07 3957.35C4928.6 3961.13 4927.53 3956.49 4928.36 3947.4C4928.78 3942.81 4930.13 3931.48 4935.94 3917.59C4941.89 3903.38 4955.62 3879.44 4984.46 3862.81L5044.9 3967.63L5105.33 4072.46C5136.46 4054.51 5151.95 4028.3 5159.2 4010.98C5166.31 3993.98 5168.5 3978.7 5169.35 3969.44C5171.04 3951 5169.18 3934.11 5167.71 3923.65C5164.55 3901.18 5158.32 3876.68 5152.8 3856.97C5146.98 3836.19 5140.5 3815.64 5135.4 3799.81C5133.14 3792.8 5130.22 3783.84 5128.86 3779.63C5126.83 3773.32 5126.42 3771.88 5126.6 3772.56L5009.9 3804.52ZM5044.9 3967.63L4984.52 3862.77C4962.02 3875.73 4911.6 3889.02 4839.55 3898.11C4772.51 3906.56 4703.89 3909.55 4655.81 3911.56L4660.86 4032.46L4665.91 4153.35C4713.48 4151.36 4791.48 4148.09 4869.83 4138.21C4943.19 4128.95 5036.95 4111.83 5105.28 4072.49L5044.9 3967.63ZM4660.86 4032.46L4656.5 3911.53C4609.53 3913.23 4491.63 3911.94 4375.44 3903.71C4317.51 3899.6 4262.6 3893.95 4218.56 3886.62C4196.51 3882.95 4179.03 3879.16 4166.18 3875.53C4151.59 3871.4 4149.8 3869.34 4154.24 3872.16L4089.32 3974.27L4024.39 4076.38C4049.42 4092.29 4077.68 4101.99 4100.3 4108.39C4124.68 4115.28 4151.59 4120.8 4178.85 4125.34C4233.41 4134.42 4296.7 4140.74 4358.33 4145.1C4481.27 4153.81 4607.96 4155.44 4665.21 4153.38L4660.86 4032.46ZM4089.32 3974.27L4154.45 3872.29C4157.76 3874.41 4176.41 3886.87 4186.7 3913.38L4073.9 3957.18L3961.11 4000.98C3977.35 4042.8 4007.23 4065.42 4024.19 4076.25L4089.32 3974.27ZM4073.9 3957.18L4186.62 3913.16C4184.52 3907.8 4181.97 3898.3 4178.94 3881.32C4177.43 3872.78 4172.1 3838.52 4169.24 3823.61L4050.41 3846.42L3931.58 3869.24C3935.48 3889.54 3935.4 3893.99 3940.69 3923.71C3944.47 3944.97 3950.28 3973.25 3961.19 4001.19L4073.9 3957.18ZM4050.41 3846.42L4169.22 3823.51C4154.82 3748.83 4140.08 3667.96 4120.82 3588.67L4003.24 3617.23L3885.66 3645.79C3903.18 3717.89 3916.5 3791.06 3931.6 3869.34L4050.41 3846.42ZM4003.24 3617.23L4046.17 3730.36C4074.02 3719.79 4113.07 3705.06 4151.01 3687.23C4187.39 3670.13 4232.53 3645.81 4268.36 3612.42L4185.88 3523.9L4103.39 3435.37C4095.54 3442.68 4077.86 3454.21 4048.09 3468.2C4019.89 3481.46 3989.46 3493.04 3960.31 3504.1L4003.24 3617.23ZM4185.88 3523.9L4268.36 3612.42C4399.64 3490.1 4506.69 3281.12 4521.69 3100.13L4401.1 3090.13L4280.52 3080.14C4270.82 3197.19 4193.59 3351.33 4103.39 3435.37L4185.88 3523.9ZM993.892 3283.71L957.261 3399.03C968.614 3402.64 982.292 3407.73 999.261 3414.24C1014.94 3420.24 1034.23 3427.77 1052.02 3434L1091.98 3319.78L1131.93 3205.57C1118.47 3200.86 1103.85 3195.16 1085.86 3188.26C1069.17 3181.86 1049.43 3174.39 1030.52 3168.38L993.892 3283.71ZM1091.98 3319.78L1052.21 3434.06C1116.37 3456.39 1181.32 3476.19 1246.88 3493.51L1277.8 3376.53L1308.71 3259.54C1249 3243.76 1189.97 3225.77 1131.75 3205.51L1091.98 3319.78ZM1277.8 3376.53L1247.2 3493.59C1667.71 3603.51 2143.41 3628.29 2563.01 3632.64L2564.27 3511.64L2565.52 3390.65C2149.81 3386.34 1698.81 3361.5 1308.39 3259.46L1277.8 3376.53ZM2564.27 3511.64L2465.11 3442.29C2438.31 3480.62 2420.71 3515.23 2404.05 3549.1L2512.62 3602.51L2621.2 3655.92C2636.81 3624.18 2647.75 3603.4 2663.42 3580.99L2564.27 3511.64ZM2512.62 3602.51L2401.3 3555.1C2393.2 3574.12 2384.68 3597.44 2379.51 3610.9L2492.45 3654.33L2605.38 3697.75C2613.15 3677.57 2618.08 3663.71 2623.95 3649.92L2512.62 3602.51ZM2492.45 3654.33L2493.57 3533.33C2169.04 3530.31 1837.36 3508.01 1522.04 3449.39L1499.92 3568.36L1477.8 3687.32C1811.4 3749.33 2158.06 3772.22 2491.32 3775.32L2492.45 3654.33ZM1499.92 3568.36L1522.02 3449.39C1465.86 3438.96 1390.07 3425.03 1317.68 3404.52C1240.34 3382.6 1188.23 3358.72 1165.73 3338.65L1085.18 3428.95L1004.64 3519.24C1071.78 3579.14 1171.74 3614.69 1251.7 3637.35C1336.61 3661.41 1423.37 3677.21 1477.82 3687.32L1499.92 3568.36ZM1085.18 3428.95L1165.75 3338.66C1168.94 3341.51 1167.03 3340.39 1159.92 3330.48C1153.88 3322.07 1146.76 3311.1 1139.21 3298.57C1123.89 3273.14 1110.2 3246.97 1103.77 3233.03L993.892 3283.71L884.016 3334.38C894.778 3357.72 912.843 3391.78 931.928 3423.46C948.175 3450.42 975.172 3492.95 1004.62 3519.23L1085.18 3428.95ZM4221.06 3290.89L4100.33 3282.83C4100.93 3273.79 4102.61 3267.38 4103.4 3264.67C4104.27 3261.65 4104.99 3259.99 4105 3259.98C4105.05 3259.85 4104.78 3260.5 4104 3261.99C4103.25 3263.44 4102.19 3265.37 4100.77 3267.78C4094.75 3278 4085.34 3291.72 4073.91 3306.52C4062.59 3321.16 4050.98 3334.68 4041.42 3344.66C4036.62 3349.66 4033.2 3352.87 4031.27 3354.54C4028.22 3357.18 4031.31 3353.95 4039.16 3349.76L4096.11 3456.52L4153.05 3563.28C4179.85 3548.99 4203.23 3525.56 4216.08 3512.16C4232.57 3494.97 4249.76 3474.72 4265.41 3454.48C4280.93 3434.38 4296.64 3412.08 4309.29 3390.6C4315.58 3379.92 4322.16 3367.68 4327.65 3354.8C4332.27 3343.94 4340.15 3323.54 4341.79 3298.94L4221.06 3290.89ZM4096.11 3456.52L4039.12 3349.78C3891.08 3428.81 3697.16 3461.04 3506.01 3489.86L3524.06 3609.51L3542.1 3729.16C3725.47 3701.51 3962.07 3665.24 4153.09 3563.26L4096.11 3456.52ZM3524.06 3609.51L3624.26 3541.69C3613.67 3526.04 3604.17 3509.58 3589.88 3486.68L3487.22 3550.72L3384.56 3614.77C3393.58 3629.23 3410.05 3656.94 3423.85 3677.33L3524.06 3609.51ZM3487.22 3550.72L3585.17 3479.67C3563.82 3450.25 3532.25 3414.15 3515.34 3393.92L3422.51 3471.54L3329.68 3549.16C3353.21 3577.3 3374.45 3601.33 3389.28 3621.77L3487.22 3550.72ZM3422.51 3471.54L3441.85 3590.98C3476.32 3585.4 3511.49 3580.93 3549.46 3576.06C3586.73 3571.28 3626.54 3566.14 3666.73 3559.45L3646.87 3440.09L3627.01 3320.73C3591.91 3326.57 3556.37 3331.19 3518.68 3336.02C3481.7 3340.77 3442.34 3345.75 3403.17 3352.1L3422.51 3471.54ZM3646.87 3440.09L3666.74 3559.45C3867.43 3526.03 4068.2 3482.08 4265.86 3403.29L4221.06 3290.89L4176.25 3178.49C4001.79 3248.03 3820.36 3288.54 3627 3320.73L3646.87 3440.09ZM937.227 2807.17L877.12 2912.18C1105.6 3042.96 1410.02 3117.48 1709.45 3160.4C2011.37 3203.67 2319.91 3216.34 2564.05 3217.02L2564.39 3096.02L2564.73 2975.02C2327.23 2974.36 2030.76 2961.97 1743.78 2920.84C1454.32 2879.36 1185.98 2810.13 997.334 2702.15L937.227 2807.17ZM2564.39 3096.02L2537.43 3213.98C2538.19 3214.16 2538.94 3214.32 2539.65 3214.47C2540.36 3214.62 2541.05 3214.75 2541.71 3214.88C2542.37 3215 2543.01 3215.12 2543.61 3215.23C2544.22 3215.33 2544.8 3215.43 2545.36 3215.52C2545.91 3215.6 2546.44 3215.69 2546.94 3215.76C2547.45 3215.83 2547.93 3215.9 2548.38 3215.96C2548.83 3216.02 2549.26 3216.07 2549.67 3216.12C2550.07 3216.17 2550.46 3216.22 2550.81 3216.26C2551.17 3216.3 2551.5 3216.34 2551.81 3216.37C2552.12 3216.4 2552.41 3216.43 2552.68 3216.45C2552.94 3216.48 2553.18 3216.5 2553.4 3216.52C2553.62 3216.54 2553.82 3216.56 2553.99 3216.58C2554.17 3216.59 2554.32 3216.6 2554.45 3216.61C2554.58 3216.62 2554.69 3216.63 2554.78 3216.64C2554.82 3216.64 2554.86 3216.65 2554.89 3216.65C2554.92 3216.65 2554.95 3216.65 2554.97 3216.66C2554.99 3216.66 2555.01 3216.66 2555.02 3216.66C2555.03 3216.66 2555.03 3216.66 2555.03 3216.66C2555.03 3216.66 2555.04 3216.66 2555.04 3216.66C2555.04 3216.66 2555.04 3216.66 2555.04 3216.66C2555.04 3216.66 2555.04 3216.66 2555.04 3216.66C2555.04 3216.66 2555.04 3216.66 2555.03 3216.66C2555.03 3216.66 2555.03 3216.66 2555.02 3216.66C2555.01 3216.66 2554.99 3216.66 2554.97 3216.66C2554.95 3216.65 2554.92 3216.65 2554.89 3216.65C2554.86 3216.65 2554.82 3216.64 2554.78 3216.64C2554.69 3216.63 2554.58 3216.62 2554.45 3216.61C2554.32 3216.6 2554.17 3216.59 2554 3216.58C2553.82 3216.56 2553.63 3216.54 2553.41 3216.52C2553.19 3216.5 2552.95 3216.48 2552.68 3216.46C2552.42 3216.43 2552.13 3216.4 2551.82 3216.37C2551.51 3216.34 2551.18 3216.3 2550.82 3216.26C2550.47 3216.22 2550.09 3216.18 2549.68 3216.13C2549.28 3216.08 2548.85 3216.02 2548.4 3215.96C2547.94 3215.9 2547.46 3215.83 2546.96 3215.76C2546.46 3215.69 2545.93 3215.61 2545.38 3215.52C2544.82 3215.43 2544.24 3215.33 2543.63 3215.23C2543.03 3215.12 2542.4 3215.01 2541.74 3214.88C2541.08 3214.76 2540.39 3214.62 2539.68 3214.47C2538.96 3214.32 2538.22 3214.16 2537.45 3213.99L2564.4 3096.02L2591.34 2978.06C2590.57 2977.89 2589.83 2977.72 2589.11 2977.57C2588.4 2977.43 2587.71 2977.29 2587.05 2977.16C2586.39 2977.04 2585.76 2976.92 2585.16 2976.82C2584.55 2976.71 2583.97 2976.62 2583.41 2976.53C2582.86 2976.44 2582.33 2976.36 2581.83 2976.29C2581.32 2976.21 2580.85 2976.15 2580.39 2976.09C2579.94 2976.02 2579.51 2975.97 2579.1 2975.92C2578.7 2975.87 2578.32 2975.83 2577.96 2975.79C2577.61 2975.75 2577.27 2975.71 2576.96 2975.68C2576.65 2975.65 2576.36 2975.62 2576.1 2975.59C2575.84 2975.57 2575.6 2975.54 2575.38 2975.52C2575.16 2975.5 2574.96 2975.49 2574.79 2975.47C2574.7 2975.46 2574.62 2975.46 2574.54 2975.45C2574.47 2975.44 2574.4 2975.44 2574.33 2975.43C2574.27 2975.43 2574.21 2975.42 2574.15 2975.42C2574.1 2975.41 2574.05 2975.41 2574.01 2975.41C2573.96 2975.4 2573.92 2975.4 2573.89 2975.4C2573.86 2975.39 2573.83 2975.39 2573.81 2975.39C2573.79 2975.39 2573.77 2975.39 2573.76 2975.39C2573.76 2975.39 2573.75 2975.39 2573.75 2975.39C2573.75 2975.39 2573.75 2975.39 2573.75 2975.39C2573.75 2975.39 2573.75 2975.39 2573.75 2975.39C2573.75 2975.39 2573.75 2975.39 2573.75 2975.39C2573.75 2975.39 2573.75 2975.39 2573.75 2975.39C2573.75 2975.39 2573.76 2975.39 2573.76 2975.39C2573.77 2975.39 2573.79 2975.39 2573.81 2975.39C2573.83 2975.39 2573.86 2975.39 2573.89 2975.4C2573.92 2975.4 2573.96 2975.4 2574.01 2975.41C2574.05 2975.41 2574.1 2975.41 2574.15 2975.42C2574.21 2975.42 2574.27 2975.43 2574.33 2975.43C2574.4 2975.44 2574.47 2975.44 2574.54 2975.45C2574.62 2975.46 2574.7 2975.46 2574.79 2975.47C2574.96 2975.49 2575.16 2975.5 2575.38 2975.52C2575.6 2975.54 2575.84 2975.57 2576.1 2975.59C2576.37 2975.62 2576.66 2975.65 2576.97 2975.68C2577.27 2975.71 2577.61 2975.75 2577.97 2975.79C2578.32 2975.83 2578.7 2975.87 2579.11 2975.92C2579.51 2975.97 2579.94 2976.03 2580.4 2976.09C2580.85 2976.15 2581.33 2976.21 2581.83 2976.29C2582.34 2976.36 2582.87 2976.44 2583.42 2976.53C2583.98 2976.62 2584.56 2976.71 2585.16 2976.82C2585.77 2976.93 2586.4 2977.04 2587.06 2977.17C2587.72 2977.29 2588.41 2977.43 2589.13 2977.58C2589.84 2977.73 2590.58 2977.89 2591.35 2978.06L2564.39 3096.02ZM2564.4 3096.02L2566.52 3217C2651.84 3215.51 2791.4 3219.38 2885.08 3215.6L2880.2 3094.7L2875.32 2973.8C2776.91 2977.77 2675.41 2973.06 2562.27 2975.04L2564.4 3096.02ZM2880.2 3094.7L2885.07 3215.61C3078.55 3207.81 3355.58 3190.04 3626.93 3148.99C3893.63 3108.65 4172.56 3043.46 4358.03 2932.24L4295.8 2828.47L4233.58 2724.69C4091.97 2809.6 3854.41 2869.83 3590.74 2909.71C3331.71 2948.9 3064.48 2966.18 2875.33 2973.8L2880.2 3094.7ZM4295.8 2828.47L4174.81 2829.38C4175.02 2857.98 4176.67 2928.06 4175.19 2996.37C4174.46 3030.57 4172.98 3060.99 4170.58 3083.09C4169.36 3094.41 4168.21 3100.37 4167.75 3102.27C4167.52 3103.23 4168.05 3100.67 4169.95 3096.1C4171.24 3093.01 4176.91 3079.57 4190.64 3065.5L4277.24 3150L4363.84 3234.51C4380.73 3217.2 4389.32 3198.82 4393.3 3189.27C4397.89 3178.26 4400.88 3167.76 4402.9 3159.46C4406.93 3142.87 4409.44 3125.13 4411.17 3109.15C4414.7 3076.64 4416.35 3038.04 4417.14 3001.59C4418.71 2928.6 4416.98 2850.89 4416.8 2827.56L4295.8 2828.47ZM4277.24 3150L4190.55 3065.58C4194.32 3061.72 4196.69 3060.48 4195.51 3061.2C4194.44 3061.85 4191.81 3063.29 4186.87 3065.45C4181.96 3067.6 4176.21 3069.85 4168.87 3072.58C4162.88 3074.82 4152.52 3078.56 4144.6 3081.63L4188.31 3194.46L4232.02 3307.29C4238.32 3304.85 4265.25 3295.31 4283.91 3287.15C4304 3278.35 4336.67 3262.41 4363.92 3234.43L4277.24 3150ZM4188.31 3194.46L4144.61 3081.63C3925.59 3166.46 3687.37 3208.93 3443.26 3239.69L3458.38 3359.74L3473.51 3479.79C3723.42 3448.3 3985.06 3402.94 4232.01 3307.29L4188.31 3194.46ZM3458.38 3359.74L3443.22 3239.69C3377.24 3248.02 3339.57 3256.84 3301.73 3255.09L3296.12 3375.96L3290.5 3496.83C3356.13 3499.88 3436.29 3484.49 3473.54 3479.78L3458.38 3359.74ZM3296.12 3375.96L3301.6 3255.08C3298.38 3254.94 3291.91 3253.95 3275.63 3249.39C3263.47 3245.97 3237.06 3237.77 3212.51 3233.17L3190.25 3352.11L3167.99 3471.04C3178.59 3473.03 3187.24 3475.93 3210.28 3482.4C3229.21 3487.7 3258.1 3495.36 3290.63 3496.83L3296.12 3375.96ZM3190.25 3352.11L3212.54 3233.18C3115.26 3214.94 3016.83 3215.2 2927.3 3221.56L2935.87 3342.25L2944.44 3462.95C3023.27 3457.35 3098.91 3458.09 3167.95 3471.03L3190.25 3352.11ZM2935.87 3342.25L2927.32 3221.56C2857.35 3226.52 2782.66 3238.52 2711.22 3261.99L2748.97 3376.95L2786.73 3491.91C2834.73 3476.14 2888.94 3466.88 2944.43 3462.95L2935.87 3342.25ZM2748.97 3376.95L2711.3 3261.96C2698.94 3266.01 2688.28 3270.72 2680.3 3274.49C2673.06 3277.9 2664.76 3282.16 2661.1 3283.98C2649.97 3289.54 2651.28 3288.07 2656.53 3286.98L2680.99 3405.49L2705.44 3523.99C2734.28 3518.04 2758.07 3506.06 2769.29 3500.46C2776.8 3496.7 2779.63 3495.2 2783.62 3493.32C2786.85 3491.79 2787.5 3491.65 2786.65 3491.93L2748.97 3376.95ZM2680.99 3405.49L2656.63 3286.96C2648.51 3288.63 2628.46 3289.73 2593.92 3288.98C2567.35 3288.4 2524.45 3286.35 2497.3 3286.59L2498.37 3407.59L2499.44 3528.58C2523.11 3528.37 2548.27 3530.05 2588.69 3530.92C2621.14 3531.62 2666.98 3531.89 2705.35 3524.01L2680.99 3405.49ZM2498.37 3407.59L2497.56 3286.59C2437.31 3286.99 2377 3284.95 2312.96 3283.21L2309.67 3404.16L2306.37 3525.12C2368.01 3526.8 2433.71 3529.02 2499.18 3528.59L2498.37 3407.59ZM2309.67 3404.16L2313 3283.21C1928.06 3272.6 1447.25 3226.72 1110.48 3090.98L1065.25 3203.2L1020.01 3315.43C1399.57 3468.42 1917.65 3514.4 2306.33 3525.12L2309.67 3404.16ZM1065.25 3203.2L1110.45 3090.96C1101.55 3087.38 1089.2 3082.78 1080.12 3079.32C1069.74 3075.36 1059.83 3071.47 1050.73 3067.54C1041.36 3063.48 1034.91 3060.26 1031.05 3058.01C1029.22 3056.95 1029.06 3056.73 1030.03 3057.47C1030.79 3058.03 1034.56 3060.91 1039.29 3066.43L947.405 3145.17L855.525 3223.9C873.838 3245.27 895.712 3259.26 909.403 3267.22C924.846 3276.2 940.931 3283.71 954.687 3289.66C977.683 3299.61 1014.44 3313.18 1020.05 3315.44L1065.25 3203.2ZM947.405 3145.17L1039.25 3066.39C1052.8 3082.19 1057.54 3096.85 1058.14 3098.6C1059.49 3102.56 1059.72 3104.41 1059.39 3102.69C1058.76 3099.37 1057.75 3091.88 1056.81 3079.25C1054.97 3054.56 1054.19 3021.12 1054.17 2984.51C1054.13 2911.89 1057.05 2835.9 1058.1 2812.62L937.227 2807.17L816.35 2801.72C815.221 2826.74 812.129 2906.81 812.171 2984.64C812.192 3023.24 812.978 3063.63 815.473 3097.19C816.699 3113.69 818.538 3131.44 821.612 3147.69C823.139 3155.76 825.432 3165.98 829.076 3176.67C831.967 3185.15 839.233 3204.91 855.559 3223.94L947.405 3145.17ZM2672.5 3205.94L2556.02 3173.21C2555.59 3174.73 2555.01 3176.59 2554.26 3178.78L2668.74 3217.98L2783.21 3257.18C2785.28 3251.15 2787.22 3244.97 2788.99 3238.68L2672.5 3205.94ZM2668.74 3217.98L2783.21 3257.18C2785.27 3251.16 2787.22 3244.98 2788.99 3238.68L2672.5 3205.95L2556.02 3173.21C2555.59 3174.73 2555.02 3176.58 2554.26 3178.78L2668.74 3217.98ZM2672.5 3205.95H2793.5V3205.94H2672.5H2551.5V3205.95H2672.5ZM1076.2 2709L1025.83 2819.02C1116.21 2860.4 1270.57 2900.04 1352.52 2919.2L1380.07 2801.37L1407.62 2683.55C1323.06 2663.78 1191.69 2628.8 1126.57 2598.98L1076.2 2709ZM1380.07 2801.37L1352.55 2919.2C1791.69 3021.78 2249.6 3038.97 2686.55 3041.11L2687.14 2920.12L2687.74 2799.12C2253.74 2796.99 1818.73 2779.58 1407.59 2683.54L1380.07 2801.37ZM2687.14 2920.12L2601.58 2834.56L2601.58 2834.56L2687.14 2920.12L2772.7 3005.68L2772.7 3005.68L2687.14 2920.12ZM2687.14 2920.12L2690.28 3041.08C3204.46 3027.76 3677.07 2978.58 4180.05 2846.08L4149.22 2729.07L4118.4 2612.06C3638.72 2738.43 3185.77 2786.16 2684.01 2799.16L2687.14 2920.12ZM4149.22 2729.07L4028.22 2728.55L4027.95 2792.06L4148.95 2792.57L4269.95 2793.09L4270.22 2729.59L4149.22 2729.07ZM4148.95 2792.57L4096.21 2683.67C3962.49 2748.43 3713.09 2793.03 3539.35 2818.71L3557.04 2938.41L3574.74 3058.11C3740.72 3033.57 4028.62 2985.29 4201.69 2901.47L4148.95 2792.57ZM3557.04 2938.41L3539.59 2818.68C3257.37 2859.81 2972.49 2879.93 2687.32 2878.81L2686.84 2999.81L2686.37 3120.81C2983.55 3121.98 3280.42 3101 3574.49 3058.15L3557.04 2938.41ZM2686.84 2999.81H2807.84V2999.81H2686.84H2565.84V2999.81H2686.84ZM2686.84 2999.81L2686.67 2878.81C2458.57 2879.14 2164.34 2871.14 1877.26 2839.33C1587.48 2807.22 1316.36 2751.96 1127.96 2663.29L1076.43 2772.78L1024.91 2882.26C1250.42 2988.39 1553.94 3046.98 1850.6 3079.85C2149.96 3113.03 2453.98 3121.14 2687.02 3120.81L2686.84 2999.81ZM1076.43 2772.78L1197.43 2772.34L1197.2 2708.57L1076.2 2709L955.203 2709.44L955.432 2773.21L1076.43 2772.78ZM3373.84 227.169L3385.15 347.639C3407.46 345.545 3428.65 344.873 3441.66 346.121L3453.21 225.674L3464.77 105.227C3428.69 101.765 3389.37 104.179 3362.53 106.699L3373.84 227.169ZM3453.21 225.674L3441.65 346.12C3544.79 356.023 3639.07 440.841 3655.84 536.911L3775.04 516.11L3894.23 495.31C3857.4 284.233 3668.37 124.775 3464.78 105.228L3453.21 225.674ZM3775.04 516.11L3655.84 536.907C3662.63 575.876 3665.76 613.971 3670.96 661.979L3791.26 648.955L3911.56 635.931C3907.2 595.697 3902.82 544.509 3894.23 495.314L3775.04 516.11ZM3791.26 648.955L3671.02 662.476L3694.12 867.93L3814.36 854.409L3934.6 840.888L3911.5 635.434L3791.26 648.955ZM3814.36 854.409L3694.17 868.411L3714.87 1046.09L3835.06 1032.09L3955.25 1018.09L3934.55 840.407L3814.36 854.409ZM3835.06 1032.09L3714.9 1046.35C3724.57 1127.83 3729.25 1144.82 3722.73 1168.19L3839.27 1200.73L3955.81 1233.28C3978.99 1150.27 3960.74 1064.36 3955.22 1017.83L3835.06 1032.09ZM3839.27 1200.73L3815.45 1319.37C3955.05 1347.39 4040.92 1387.24 4115.95 1494.23L4215.02 1424.76L4314.08 1355.28C4190.28 1178.75 4036.82 1116.98 3863.08 1082.1L3839.27 1200.73ZM4215.02 1424.76L4115.96 1494.24C4200.85 1615.27 4191.15 1734.25 4189.56 1931.36L4310.56 1932.33L4431.55 1933.31C4432.91 1764.92 4453.13 1553.53 4314.08 1355.28L4215.02 1424.76ZM4310.56 1932.33L4189.56 1931.69C4188.9 2055.85 4187.58 2180.02 4185.64 2304.2L4306.62 2306.09L4427.61 2307.99C4429.56 2183 4430.89 2057.99 4431.55 1932.97L4310.56 1932.33ZM4306.62 2306.09L4185.63 2304.34L4183.5 2451.42L4304.49 2453.18L4425.47 2454.93L4427.61 2307.85L4306.62 2306.09ZM4304.49 2453.18L4183.5 2451.53C4183.43 2456.25 4183.49 2461.56 4183.53 2465.75C4183.58 2470.46 4183.63 2474.94 4183.65 2479.8C4183.68 2489.59 4183.54 2498.64 4183.04 2506.37C4182.46 2515.25 4181.71 2517.03 4182.47 2514.28C4182.87 2512.84 4184.84 2505.75 4190.33 2496.46C4195.61 2487.52 4208.68 2468.91 4234.27 2456.25L4287.93 2564.7L4341.6 2673.14C4372.32 2657.94 4389.74 2634.7 4398.72 2619.5C4407.9 2603.95 4412.91 2588.99 4415.79 2578.51C4421.52 2557.68 4423.57 2536.76 4424.53 2522.06C4426.27 2495.25 4425.45 2456.44 4425.48 2454.83L4304.49 2453.18ZM4287.93 2564.7L4234.32 2456.22C4109.83 2517.76 3942.95 2553.46 3788.32 2583.85L3811.66 2702.57L3834.99 2821.3C3984.53 2791.91 4183.45 2751.32 4341.55 2673.17L4287.93 2564.7ZM3811.66 2702.57L3789.18 2583.68C3499.1 2638.53 3205.54 2673.02 2910.61 2686.93L2916.31 2807.8L2922.01 2928.67C3228.19 2914.22 3532.97 2878.42 3834.14 2821.47L3811.66 2702.57ZM2916.31 2807.8L2910.55 2686.94C2830.01 2690.77 2742.02 2695.51 2667.88 2694.91L2666.91 2815.91L2665.93 2936.91C2748.55 2937.57 2845.01 2932.33 2922.07 2928.66L2916.31 2807.8ZM2666.91 2815.91L2647.93 2696.41C2647.59 2696.46 2647.27 2696.51 2646.98 2696.56C2646.68 2696.61 2646.41 2696.66 2646.16 2696.7C2645.92 2696.74 2645.69 2696.78 2645.48 2696.82C2645.28 2696.86 2645.09 2696.89 2644.93 2696.92C2644.85 2696.94 2644.77 2696.95 2644.7 2696.96C2644.63 2696.98 2644.56 2696.99 2644.5 2697C2644.44 2697.01 2644.39 2697.02 2644.34 2697.03C2644.29 2697.04 2644.24 2697.05 2644.2 2697.06C2644.16 2697.07 2644.12 2697.07 2644.09 2697.08C2644.06 2697.09 2644.04 2697.09 2644.02 2697.09C2644 2697.1 2643.98 2697.1 2643.97 2697.1C2643.97 2697.1 2643.97 2697.1 2643.96 2697.1C2643.96 2697.11 2643.96 2697.11 2643.96 2697.11C2643.96 2697.11 2643.96 2697.11 2643.96 2697.11C2643.96 2697.11 2643.96 2697.11 2643.96 2697.11C2643.96 2697.11 2643.96 2697.11 2643.96 2697.11C2643.96 2697.11 2643.96 2697.11 2643.96 2697.11C2643.96 2697.1 2643.97 2697.1 2643.97 2697.1C2643.98 2697.1 2644 2697.1 2644.02 2697.09C2644.04 2697.09 2644.06 2697.09 2644.09 2697.08C2644.12 2697.07 2644.16 2697.07 2644.2 2697.06C2644.24 2697.05 2644.28 2697.04 2644.33 2697.03C2644.38 2697.02 2644.44 2697.01 2644.5 2697C2644.56 2696.99 2644.63 2696.98 2644.7 2696.97C2644.77 2696.95 2644.84 2696.94 2644.93 2696.92C2645.09 2696.89 2645.27 2696.86 2645.48 2696.82C2645.68 2696.79 2645.91 2696.75 2646.16 2696.7C2646.4 2696.66 2646.68 2696.61 2646.97 2696.56C2647.26 2696.52 2647.58 2696.46 2647.92 2696.41L2666.89 2815.91L2685.87 2935.41C2686.21 2935.36 2686.53 2935.31 2686.82 2935.26C2687.11 2935.21 2687.39 2935.16 2687.64 2935.12C2687.88 2935.08 2688.11 2935.04 2688.32 2935C2688.52 2934.96 2688.71 2934.93 2688.87 2934.9C2688.95 2934.89 2689.03 2934.87 2689.1 2934.86C2689.17 2934.84 2689.23 2934.83 2689.29 2934.82C2689.36 2934.81 2689.41 2934.8 2689.46 2934.79C2689.51 2934.78 2689.56 2934.77 2689.6 2934.76C2689.64 2934.76 2689.67 2934.75 2689.7 2934.74C2689.73 2934.74 2689.76 2934.73 2689.78 2934.73C2689.8 2934.72 2689.82 2934.72 2689.83 2934.72C2689.83 2934.72 2689.83 2934.72 2689.84 2934.72C2689.84 2934.72 2689.84 2934.72 2689.84 2934.72C2689.84 2934.72 2689.84 2934.72 2689.84 2934.72C2689.84 2934.72 2689.84 2934.72 2689.84 2934.72C2689.84 2934.72 2689.84 2934.72 2689.84 2934.72C2689.84 2934.72 2689.84 2934.72 2689.84 2934.72C2689.84 2934.72 2689.83 2934.72 2689.83 2934.72C2689.82 2934.72 2689.8 2934.72 2689.78 2934.73C2689.76 2934.73 2689.74 2934.74 2689.71 2934.74C2689.68 2934.75 2689.64 2934.75 2689.6 2934.76C2689.56 2934.77 2689.52 2934.78 2689.47 2934.79C2689.42 2934.8 2689.36 2934.81 2689.3 2934.82C2689.24 2934.83 2689.17 2934.84 2689.1 2934.86C2689.03 2934.87 2688.96 2934.88 2688.87 2934.9C2688.71 2934.93 2688.53 2934.96 2688.32 2935C2688.12 2935.04 2687.89 2935.08 2687.64 2935.12C2687.4 2935.16 2687.12 2935.21 2686.83 2935.26C2686.54 2935.31 2686.22 2935.36 2685.88 2935.41L2666.91 2815.91ZM2666.89 2815.91L2665.63 2694.92C2180.72 2699.99 1624.37 2667.41 1182.6 2515.99L1143.37 2630.45L1104.13 2744.91C1586.57 2910.28 2177.22 2942.04 2668.16 2936.91L2666.89 2815.91ZM1143.37 2630.45L1182.57 2515.98C1157.88 2507.52 1120.7 2493.68 1085.48 2478.18C1046.51 2461.04 1023.01 2447.45 1015.92 2441.56L938.662 2534.69L861.406 2627.81C897.147 2657.46 948.893 2682.47 988.022 2699.69C1030.89 2718.55 1074.65 2734.82 1104.17 2744.93L1143.37 2630.45ZM938.662 2534.69L1059.37 2526.27C1058.15 2508.74 1057.9 2485.61 1058.03 2458.94L937.036 2458.31L816.038 2457.69C815.898 2484.77 816.049 2515.78 817.956 2543.11L938.662 2534.69ZM937.036 2458.31L1058.03 2458.94C1058.14 2439.34 1058.49 2414.08 1058.51 2395.29L937.506 2395.2L816.506 2395.12C816.492 2414.57 816.165 2433.16 816.038 2457.69L937.036 2458.31ZM937.506 2395.2L1058.51 2395.31L1058.67 2213.44L937.673 2213.33L816.673 2213.22L816.506 2395.09L937.506 2395.2ZM937.673 2213.33L1054.56 2182.06C1054.17 2180.59 1053.71 2178.7 1053.2 2176.28L934.8 2201.21L816.395 2226.14C817.657 2232.13 819.101 2238.31 820.784 2244.6L937.673 2213.33ZM934.8 2201.21L1053.09 2175.73C983.679 1853.5 908.371 1542.26 847.322 1224.12L728.49 1246.92L609.658 1269.72C671.27 1590.8 748.93 1912.94 816.513 2226.69L934.8 2201.21ZM728.49 1246.92L847.323 1224.12C840.181 1186.9 838.942 1166.81 840.63 1152.22C841.959 1140.73 845.662 1127.54 859.669 1107.47L760.444 1038.22L661.22 968.974C626.659 1018.49 606.621 1069.19 600.233 1124.41C594.202 1176.54 601.27 1226 609.658 1269.72L728.49 1246.92ZM760.444 1038.22L860.154 1106.77C866.758 1097.17 875.578 1089.29 885.867 1083.81L828.994 977.01L772.122 870.208C727.546 893.945 689.342 928.063 660.735 969.674L760.444 1038.22ZM828.994 977.01L884.905 1084.32C948.211 1051.33 1055.92 1010.15 1136.95 976.329L1090.34 864.667L1043.73 753.005C976.274 781.161 848.535 830.389 773.083 869.702L828.994 977.01ZM1090.34 864.667L1136.55 976.492L1648.65 764.838L1602.44 653.013L1556.22 541.188L1044.12 752.842L1090.34 864.667ZM1602.44 653.013L1648.79 764.783L1990.73 622.981L1944.38 511.211L1898.03 399.441L1556.09 541.242L1602.44 653.013ZM1944.38 511.211L1990.99 622.871C2034.74 604.608 2067 589.395 2113.51 570.536C2156.77 552.996 2190.83 541.637 2213.42 537.771L2193.01 418.505L2172.6 299.239C2122.38 307.833 2067.66 327.991 2022.58 346.27C1980.74 363.232 1925.09 388.141 1897.76 399.551L1944.38 511.211ZM2193.01 418.505L2214.26 537.624C2221.43 536.346 2227.05 534.945 2231.34 533.755C2232.18 533.521 2232.92 533.308 2233.1 533.256C2233.51 533.141 2232.96 533.298 2232.26 533.489C2231.52 533.69 2224.88 535.555 2216.05 536.602C2205.49 537.854 2192.35 537.942 2177.79 534.871C2164.2 532.005 2154.06 527.353 2148.54 524.518C2143.52 521.941 2139.94 519.602 2139.82 519.528C2139.73 519.468 2139 518.995 2140.8 520.177L2207.08 418.94L2273.35 317.704C2273.02 317.487 2272.97 317.456 2272.41 317.084C2272.03 316.836 2271.27 316.339 2270.41 315.79C2269.23 315.029 2264.78 312.164 2259 309.201C2252.72 305.979 2241.95 301.078 2227.73 298.08C2212.55 294.878 2198.81 294.951 2187.56 296.284C2178.06 297.411 2170.67 299.452 2169.01 299.901C2167.85 300.216 2166.8 300.516 2166.65 300.559C2166.28 300.665 2166.42 300.625 2166.59 300.578C2168.19 300.134 2170.09 299.683 2171.76 299.385L2193.01 418.505ZM2207.08 418.94L2099.51 363.53C2062.11 436.14 2038.02 494.88 2028.81 561.079C2020.16 623.33 2026.04 685.922 2032.04 756.724L2152.61 746.509L2273.18 736.294C2266.46 657.06 2264.36 624.239 2268.51 594.401C2272.11 568.51 2281.61 538.484 2314.64 474.351L2207.08 418.94ZM2152.61 746.509L2032.08 757.142L2049.92 959.422L2170.45 948.788L2290.99 938.155L2273.14 735.875L2152.61 746.509ZM2170.45 948.788L2049.84 958.419L2096.45 1542.16L2217.06 1532.53L2337.68 1522.89L2291.07 939.158L2170.45 948.788ZM2217.06 1532.53L2096.42 1541.82C2101.96 1613.7 2106.64 1685.65 2110.45 1757.64L2231.28 1751.24L2352.11 1744.84C2348.2 1670.91 2343.39 1597.03 2337.7 1523.23L2217.06 1532.53ZM2231.28 1751.24L2110.52 1758.81C2111.58 1775.76 2113.69 1795.19 2115.03 1808.99C2116.53 1824.61 2117.53 1837.32 2117.7 1848.58C2117.88 1859.96 2117.12 1866.47 2116.47 1869.59C2115.88 1872.49 2116.15 1868.66 2120.64 1862.49L2218.43 1933.76L2316.21 2005.03C2357.13 1948.89 2360.26 1883.43 2359.67 1844.87C2359.34 1823.33 2357.53 1802.55 2355.91 1785.74C2354.11 1767.12 2352.77 1755.21 2352.04 1743.66L2231.28 1751.24ZM2218.43 1933.76L2266.28 2044.9C2292.39 2033.65 2328.43 2018.11 2359.73 1999.72L2298.44 1895.39L2237.15 1791.07C2221 1800.55 2198.93 1810.42 2170.57 1822.63L2218.43 1933.76ZM2298.44 1895.39L2360.44 1999.3C2399.49 1976 2433.2 1944.76 2459.45 1907.63L2360.65 1837.78L2261.84 1767.93C2255.04 1777.56 2246.37 1785.56 2236.44 1791.49L2298.44 1895.39ZM2360.65 1837.78L2459.73 1907.23C2505.34 1842.17 2512.02 1771.73 2509.33 1716.87C2506.88 1666.85 2494.48 1609.94 2489.82 1581.78L2370.44 1601.53L2251.06 1621.27C2259.2 1670.45 2266.08 1697.18 2267.62 1728.7C2268.93 1755.39 2264.31 1764.41 2261.56 1768.33L2360.65 1837.78ZM2370.44 1601.53L2489.83 1581.81L2458.75 1393.65L2339.37 1413.36L2219.99 1433.08L2251.06 1621.24L2370.44 1601.53ZM2339.37 1413.36L2292.04 1524.72C2287.72 1522.89 2284.48 1521.19 2282.74 1520.24C2280.85 1519.21 2279.44 1518.36 2278.65 1517.87L2342.15 1414.88L2405.66 1311.88C2402.73 1310.07 2395.75 1305.85 2386.7 1302L2339.37 1413.36ZM2342.15 1414.88L2436.03 1338.53C2423.5 1323.12 2416 1304.93 2411.29 1273.42C2408.79 1256.72 2407.32 1238.1 2405.87 1214.56C2404.5 1192.43 2403.08 1164.59 2400.45 1136.53L2279.98 1147.85L2159.51 1159.18C2161.67 1182.17 2162.74 1203.79 2164.33 1229.49C2165.83 1253.79 2167.78 1281.37 2171.95 1309.21C2180.56 1366.79 2199.35 1431.06 2248.28 1491.22L2342.15 1414.88ZM2279.98 1147.85L2400.46 1136.71L2355.85 654.177L2235.36 665.317L2114.87 676.458L2159.49 1158.99L2279.98 1147.85ZM2235.36 665.317L2355.89 654.662C2350.06 588.684 2364.36 539.166 2404.64 488.226L2309.72 413.18L2214.81 338.134C2134.8 439.328 2103.75 550.687 2114.83 675.973L2235.36 665.317ZM2309.72 413.18L2404.64 488.225C2408.84 482.916 2411.66 480.9 2413.12 479.975C2414.77 478.927 2417.78 477.346 2424.17 475.527C2431.27 473.505 2440.57 471.703 2455.67 469.471C2468.36 467.595 2490.26 464.762 2509.92 461.349L2489.23 342.131L2468.54 222.913C2426.5 230.209 2300.18 230.163 2214.81 338.134L2309.72 413.18ZM2489.23 342.131L2509.94 461.346C2548.81 454.595 2586.62 449.399 2629.69 442.768L2611.28 323.177L2592.87 203.585C2554.77 209.451 2510.32 215.656 2468.53 222.916L2489.23 342.131ZM2611.28 323.177L2630.45 442.648C2809.05 413.99 2988.36 390.146 3168.23 371.147L3155.51 250.816L3142.8 130.486C2958.61 149.942 2774.99 174.359 2592.11 203.705L2611.28 323.177ZM3155.51 250.816L3169.09 371.053C3244.74 362.513 3313.47 353.31 3383.36 347.794L3373.84 227.169L3364.32 106.544C3289.04 112.485 3211.16 122.767 3141.94 130.58L3155.51 250.816ZM2481.36 2224.82L2378.78 2160.64C2381.87 2155.69 2386.82 2149.85 2393.86 2144.84L2463.97 2243.46L2534.08 2342.07C2555.4 2326.92 2571.76 2308.45 2583.93 2289L2481.36 2224.82ZM2463.97 2243.46L2393.87 2144.83C2401.98 2139.07 2404.19 2140.58 2391.01 2143.48C2379.95 2145.91 2364.71 2147.9 2345.69 2149.27C2303.42 2152.31 2271.3 2151.15 2233.52 2152.46L2237.72 2273.39L2241.92 2394.32C2259.52 2393.7 2317.54 2393.92 2363.05 2390.65C2387.92 2388.86 2415.99 2385.77 2443 2379.83C2467.91 2374.35 2502.98 2364.19 2534.08 2342.08L2463.97 2243.46ZM2237.72 2273.39L2233.78 2152.45C2034.46 2158.95 1834.92 2156.51 1635.78 2145.14L1628.89 2265.94L1621.99 2386.75C1828.35 2398.53 2035.11 2401.06 2241.66 2394.32L2237.72 2273.39ZM1628.89 2265.94L1633.8 2145.04C1592.11 2143.35 1547.01 2139.18 1499.86 2134.97L1489.1 2255.49L1478.34 2376.01C1523.36 2380.03 1575.11 2384.86 1623.97 2386.84L1628.89 2265.94ZM1489.1 2255.49L1470.23 2375.01C1682.06 2408.45 1895.41 2431.6 2109.54 2444.36L2116.74 2323.58L2123.95 2202.79C1917.63 2190.49 1712.06 2168.19 1507.97 2135.97L1489.1 2255.49ZM2116.74 2323.58L2109.36 2444.35C2158.53 2447.36 2252.75 2458.59 2335.53 2448.11C2425.06 2436.78 2533.68 2396.81 2590.67 2276.69L2481.36 2224.82L2372.04 2172.95C2364.39 2189.06 2351.41 2202.17 2305.16 2208.03C2252.15 2214.73 2196.39 2207.22 2124.13 2202.8L2116.74 2323.58ZM2067.13 1999.44L2030.1 1884.24C2011.53 1890.21 1992.87 1896.13 1974.06 1902.06L2010.41 2017.47L2046.76 2132.88C2065.91 2126.85 2085.04 2120.78 2104.16 2114.63L2067.13 1999.44ZM2010.41 2017.47L1973.92 1902.1C1859.2 1938.39 1744.24 1973.91 1629.05 2008.67L1664 2124.51L1698.96 2240.35C1815.17 2205.28 1931.16 2169.45 2046.9 2132.84L2010.41 2017.47ZM1664 2124.51L1627.77 2009.06L1295.77 2113.26L1332.01 2228.71L1368.24 2344.16L1700.24 2239.96L1664 2124.51ZM1332.01 2228.71L1309.54 2347.6C1309.71 2347.64 1309.88 2347.67 1310.19 2347.73C1310.47 2347.78 1310.85 2347.85 1311.26 2347.93L1333.61 2229.01L1355.96 2110.1C1355.25 2109.96 1355.74 2110.05 1354.47 2109.81L1332.01 2228.71ZM1333.61 2229.01L1311.85 2348.04C1358.55 2356.58 1405.33 2364.61 1452.17 2372.13L1471.37 2252.67L1490.56 2133.2C1445.42 2125.94 1400.35 2118.21 1355.37 2109.99L1333.61 2229.01ZM1471.37 2252.67L1518.66 2364.04L2086.4 2122.99L2039.11 2011.61L1991.82 1900.24L1424.08 2141.29L1471.37 2252.67ZM2039.11 2011.61L2087.32 2122.59L2115.35 2110.41L2067.13 1999.44L2018.92 1888.46L1990.89 1900.64L2039.11 2011.61ZM2424.38 1482.97L2341.59 1571.21C2341.89 1571.49 2342.14 1571.73 2342.34 1571.92C2342.55 1572.12 2342.68 1572.25 2342.77 1572.33C2342.85 1572.41 2342.84 1572.41 2342.76 1572.33C2342.69 1572.25 2342.48 1572.04 2342.17 1571.72L2429.05 1487.51L2515.94 1403.29C2512.82 1400.07 2509.59 1397 2507.16 1394.72L2424.38 1482.97ZM2429.05 1487.51L2342.16 1571.71C2344.22 1573.84 2344.38 1574.28 2343.42 1572.91C2342.85 1572.09 2340.94 1569.29 2338.77 1564.65C2336.74 1560.32 2332.92 1551.12 2331.28 1538.08L2451.32 1522.92L2571.37 1507.75C2566.85 1472.03 2549.73 1445.68 2541.9 1434.45C2532.25 1420.61 2522.06 1409.61 2515.95 1403.3L2429.05 1487.51ZM2451.32 1522.92L2331.27 1538.07C2335.26 1569.64 2337.25 1602.97 2340.11 1641.33L2460.77 1632.34L2581.44 1623.34C2578.96 1590.12 2576.37 1547.36 2571.37 1507.76L2451.32 1522.92ZM2460.77 1632.34L2340.08 1640.89L2355.89 1864.06L2476.59 1855.51L2597.28 1846.96L2581.47 1623.78L2460.77 1632.34ZM2476.59 1855.51L2355.88 1863.94L2370.1 2067.58L2490.81 2059.15L2611.51 2050.72L2597.29 1847.08L2476.59 1855.51ZM2490.81 2059.15L2370.11 2067.71C2370.91 2078.99 2372.15 2091.21 2373.12 2101.17C2374.17 2111.9 2375.07 2121.49 2375.67 2130.8C2376.96 2150.66 2376.3 2161.95 2375.24 2167.49L2494.08 2190.25L2612.92 2213.02C2619.83 2176.93 2618.85 2141.18 2617.17 2115.15C2616.28 2101.51 2615.03 2088.45 2613.97 2077.63C2612.84 2066.04 2612.02 2057.82 2611.5 2050.59L2490.81 2059.15ZM2494.08 2190.25L2610.79 2222.18C2624.12 2173.48 2628.35 2118.55 2630.23 2073.35C2631.21 2049.82 2631.62 2026.64 2631.93 2005.85C2632.25 1984.43 2632.47 1966.38 2633.02 1950.41L2512.09 1946.26L2391.16 1942.11C2390.51 1961.06 2390.26 1982.25 2389.96 2002.22C2389.65 2022.84 2389.28 2043.22 2388.44 2063.25C2386.69 2105.16 2383.12 2137.31 2377.37 2158.33L2494.08 2190.25ZM2512.09 1946.26L2633.03 1950.03L2644.77 1573.31L2523.83 1569.54L2402.89 1565.77L2391.15 1942.49L2512.09 1946.26ZM2523.83 1569.54L2644.79 1572.57C2645.02 1563.37 2644.98 1552.57 2644.97 1543.74C2644.96 1534.1 2644.98 1524.9 2645.2 1515.82L2524.24 1512.88L2403.27 1509.94C2402.97 1522.36 2402.96 1534.27 2402.97 1543.97C2402.98 1554.49 2403 1561.28 2402.87 1566.51L2523.83 1569.54ZM2524.24 1512.88L2528.95 1391.97C2515.94 1391.46 2503.09 1388.7 2484.91 1378.2L2424.38 1482.97L2363.84 1587.74C2415.64 1617.66 2466.74 1631.73 2519.52 1633.79L2524.24 1512.88Z" fill="black" mask="url(#path-1-outside-1_28_880)"/>
<path d="M2193.01 418.505C2204.01 416.544 2200.79 414.822 2207.08 418.941C2136.64 555.684 2139.9 596.474 2152.61 746.509L2170.45 948.788L2217.06 1532.53C2222.68 1605.37 2227.42 1678.28 2231.28 1751.24C2235.84 1823.84 2262.01 1933.61 2178.35 1962.5C2122.44 1981.8 2066.81 1999.71 2010.41 2017.47C1895.18 2053.92 1779.71 2089.6 1664 2124.51L1309.06 2235.91C1244.11 2256.52 1175.54 2279.36 1110.71 2297.23C1069.67 2304.61 1022.04 2304.63 985.987 2280.87C954.253 2259.96 942.266 2236.67 934.8 2201.21C866.304 1883.22 789.821 1566.53 728.49 1246.92C712.961 1165.98 711.877 1107.81 760.444 1038.22C778.05 1012.61 801.561 991.618 828.994 977.01C898.373 940.861 1016.1 895.655 1090.34 864.667L1602.44 653.013L1944.38 511.211C2015.46 481.539 2120.19 430.965 2193.01 418.505Z" fill="#D8322D"/>
<path d="M1050.66 1031.33C1065.53 1029.74 1085.82 1029.03 1099.23 1036.74C1183.78 1085.07 1116.39 1176.9 1069.71 1224.44C1030.95 1263.91 995.93 1301.4 941.75 1317.98C920.083 1319.1 901.418 1317.37 883.281 1304.79C829.182 1267.27 856.467 1173.24 887.883 1129.97C927.564 1075.32 985.806 1042.74 1050.66 1031.33Z" fill="#F05853"/>
<path d="M3373.84 227.17C3398.41 224.863 3428.67 223.319 3453.21 225.674C3606.58 240.399 3748.24 362.537 3775.03 516.111C3782.73 560.193 3786.48 604.834 3791.26 648.955L3814.36 854.409L3835.06 1032.09C3845.43 1119.43 3863 1183.4 3811.06 1260.31C3756.98 1340.4 3687.4 1334.12 3602.35 1345.03C3519.19 1355.65 3436.06 1366.7 3353.02 1378.2C3126.04 1409.5 2899.91 1446.77 2674.88 1489.96C2556.48 1516.24 2486.39 1536.89 2381.4 1453.32C2277.01 1370.21 2291.26 1267.85 2279.98 1147.85L2235.36 665.317C2226.91 569.685 2249.58 489.247 2309.72 413.18C2358.53 351.456 2417.94 354.505 2489.23 342.132C2529.57 335.126 2570.7 329.425 2611.28 323.177C2792.02 294.174 2973.48 270.044 3155.51 250.816C3227.95 242.64 3301.25 232.898 3373.84 227.17Z" fill="#841D1B"/>
<path d="M2340.71 1590.99C2351.54 1594.73 2413.3 1638.11 2424.6 1647.71C2432.18 1654.15 2443.7 1665.16 2444.69 1674.65C2447.51 1701.6 2448.08 1730.4 2449.11 1757.49L2454.77 1926.43L2459.73 2080.58C2461.17 2123.48 2474.7 2193.85 2425.65 2219.82C2379.57 2244.23 2258.47 2239.82 2204.59 2240.88C2007.19 2244.47 1809.97 2241.17 1613.54 2230.99C1563.18 2229.03 1508.95 2224.4 1458.69 2220.61L2023.05 2041.46L2177.33 1991.35C2210.08 1980.63 2249.35 1968.81 2280 1955.36C2304.42 1944.48 2325.86 1929.78 2342.93 1912.21C2392.89 1860.36 2371.77 1792.15 2362.71 1733.55L2340.71 1590.99Z" fill="#841D1B"/>
<path d="M2520.58 478.393C2635.2 458.522 2744.13 535.554 2763.6 650.221C2783.04 764.889 2705.59 873.534 2590.85 892.563C2476.68 911.494 2368.71 834.552 2349.36 720.48C2330 606.404 2406.56 498.161 2520.58 478.393Z" fill="black"/>
<path d="M3006.14 418.276C3120.88 404.969 3224.82 486.837 3238.76 601.496C3252.71 716.154 3171.41 820.539 3056.82 835.111C2941.34 849.797 2835.92 767.731 2821.89 652.174C2807.83 536.617 2890.47 431.689 3006.14 418.276Z" fill="black"/>
<path d="M3061.51 918.106C3175.97 906.445 3278.12 989.995 3289.36 1104.47C3300.59 1218.95 3216.68 1320.77 3102.13 1331.59C2988.21 1342.36 2886.99 1258.96 2875.81 1145.08C2864.64 1031.19 2947.68 929.707 3061.51 918.106Z" fill="black"/>
<path d="M3532.8 862.883C3645.55 851.535 3746.28 933.273 3758.42 1045.9C3770.53 1158.53 3689.47 1259.83 3576.9 1272.72C3463.25 1285.74 3360.74 1203.73 3348.51 1090C3336.29 976.28 3418.99 874.343 3532.8 862.883Z" fill="black"/>
<path d="M2586.83 977.296C2699.79 961.991 2803.62 1041.58 2818.19 1154.63C2832.73 1267.68 2752.43 1370.96 2639.28 1384.75C2527.19 1398.41 2425.07 1319.05 2410.66 1207.07C2396.24 1095.08 2474.93 992.457 2586.83 977.296Z" fill="black"/>
<path d="M3475 367.602C3722.73 348.741 3782.85 729.193 3520.75 786.858C3238.38 803.566 3230.81 399.419 3475 367.602Z" fill="black"/>
<path d="M3798.89 1193.16C3975.63 1224.27 4107.22 1271.05 4215.02 1424.76C4326.99 1584.4 4312.03 1749.58 4310.56 1932.33C4309.89 2056.92 4308.57 2181.51 4306.62 2306.09L4304.49 2453.18C4304.16 2477.41 4308.45 2554.54 4287.93 2564.7C4146.64 2634.54 3963.74 2672.69 3811.66 2702.57C3516.03 2758.48 3216.86 2793.62 2916.31 2807.8C2837.51 2811.56 2745.28 2816.54 2666.89 2815.91C2178.97 2821.02 1605.47 2788.85 1143.37 2630.45C1089.16 2611.89 981.498 2570.22 938.662 2534.69C935.814 2493.85 937.475 2437.62 937.505 2395.2L937.734 2148.16C1023.47 2184.69 1027.74 2160.37 1092.81 2174.51C1173.22 2191.98 1249.58 2213.22 1333.61 2229.01C1592.5 2276.34 1854.03 2307.92 2116.74 2323.58C2242.82 2331.29 2430.47 2363.38 2488.27 2208.43C2513.84 2139.9 2509.47 2022.47 2512.09 1946.26L2523.83 1569.54C2524.73 1533.66 2520.43 1458.8 2539.27 1430.19C2557.84 1401.99 2612.07 1396.26 2644.57 1389.89C2846.67 1348.36 3049.79 1311.78 3253.7 1280.2C3350.65 1266.28 3447.75 1253.12 3544.91 1240.72C3632.09 1229.38 3720.48 1227.57 3798.89 1193.16Z" fill="#B32724"/>
<path d="M937.734 2148.16C1023.47 2184.69 1027.74 2160.37 1092.81 2174.51C1173.22 2191.98 1249.58 2213.22 1333.61 2229.01C1592.5 2276.34 1854.03 2307.92 2116.74 2323.58C2242.82 2331.29 2430.47 2363.38 2488.27 2208.43C2513.84 2139.9 2509.47 2022.47 2512.09 1946.26L2523.83 1569.54C2524.73 1533.66 2520.43 1458.8 2539.27 1430.19C2557.84 1401.99 2612.07 1396.26 2644.57 1389.9C2680.98 1421.42 2704.63 1453.95 2705.68 1503.93C2707.3 1581.92 2706.04 1662.7 2705.77 1740.86L2705.08 2158.29C2704.66 2216.46 2699.88 2304.24 2704.03 2359.82C2633.37 2375.63 2582.29 2437.16 2579.77 2509.52C2577.25 2581.88 2623.9 2646.82 2693.3 2667.52C2692.97 2688.28 2692.46 2798.61 2688.38 2810.62C2678.7 2814.02 2677.11 2814.29 2666.89 2815.91C2178.97 2821.02 1605.47 2788.85 1143.37 2630.45C1089.16 2611.89 981.498 2570.22 938.662 2534.69C935.814 2493.86 937.475 2437.62 937.505 2395.2L937.734 2148.16Z" fill="#D8322D"/>
<path d="M2704.03 2359.81C2769.07 2345.26 2836.28 2372.76 2872.42 2428.71C2908.59 2484.67 2906.07 2557.22 2866.08 2610.53C2826.09 2663.82 2757.14 2686.56 2693.3 2667.52C2623.9 2646.82 2577.25 2581.88 2579.77 2509.51C2582.29 2437.16 2633.37 2375.63 2704.03 2359.81Z" fill="black"/>
<path d="M2730.89 2433.81C2776.07 2429.38 2816.33 2462.27 2820.96 2507.41C2825.61 2552.56 2792.89 2592.96 2747.77 2597.83C2702.34 2602.73 2661.61 2569.74 2656.92 2524.3C2652.26 2478.86 2685.43 2438.27 2730.89 2433.81Z" fill="#B32724"/>
<path d="M3925.43 1546.71L3929.43 1546.38C4104.1 1533.47 4200.72 1646.6 4209.58 1814.03C4215.92 1933.75 4209.13 2052.3 4209.1 2170.94C4209.04 2384.3 4207.96 2527.72 3954.84 2544.66C3881.18 2548.74 3798.35 2537.96 3741.9 2487.42C3701.25 2451.02 3672.14 2394.32 3670.94 2339.72C3667.42 2235 3670.82 2129.98 3670.45 2025.21C3670.03 1967.48 3671.3 1908.22 3670.51 1850.69C3669.37 1765.19 3678.75 1683.62 3738.05 1617.08C3788.67 1560.24 3853.93 1551.06 3925.43 1546.71Z" fill="black"/>
<path d="M3772.9 2342.87C3768.15 2313.2 3771.07 2264.02 3771.76 2232.93C3774.82 2090.59 3772.66 1947.14 3773.26 1804.91C3773.83 1671.24 3837.89 1635.39 3962.98 1641.09C4132.58 1647.91 4108.72 1816.72 4110.29 1936.98C4110.47 2015.14 4111.28 2096.6 4107.67 2176.05C4106.65 2241.01 4118.13 2355.62 4071.68 2405.07C4033.92 2445.28 3970.2 2445.4 3919.72 2443.98C3847.68 2444.04 3784.89 2423.89 3772.9 2342.87Z" fill="#3E0B09"/>
<path d="M3774.51 2296.84C3876.22 2321.6 4015.34 2322.85 4107.51 2283.39C4106.49 2322.37 4117.96 2391.13 4071.56 2420.8C4033.83 2444.92 3970.17 2445 3919.75 2444.15C3847.77 2444.18 3785.04 2432.1 3773.07 2383.49C3775.47 2355.78 3774.48 2324.82 3774.51 2296.84Z" fill="#57100E"/>
<path d="M3928.12 1897.7C4044.96 1893.65 4070.16 1933.33 4067.13 2047.58C4064.91 2130.17 4085.64 2202.5 3980.82 2229.97C3857.52 2235.38 3836.37 2187.82 3840.42 2074.64C3843.31 1994.8 3822.19 1917.33 3928.12 1897.7Z" fill="white"/>
<path d="M3103.21 2341.06C3190.1 2339.48 3261.78 2408.7 3263.19 2495.58C3264.63 2582.45 3195.26 2654 3108.35 2655.26C3021.71 2656.52 2950.38 2587.38 2948.97 2500.72C2947.53 2414.08 3016.57 2342.64 3103.21 2341.06Z" fill="black"/>
<path d="M3098.16 2418.37C3142.96 2413.73 3182.98 2446.37 3187.45 2491.17C3191.9 2535.98 3159.09 2575.84 3114.27 2580.14C3069.71 2584.37 3030.09 2551.81 3025.67 2507.26C3021.22 2462.72 3053.64 2422.98 3098.16 2418.37Z" fill="#B32724"/>
<path d="M3437.38 2332.02C3522.16 2318.66 3601.81 2376.41 3615.42 2461.16C3629.06 2545.89 3571.55 2625.7 3486.83 2639.58C3401.75 2653.55 3321.5 2595.72 3307.8 2510.62C3294.1 2425.49 3352.18 2345.44 3437.38 2332.02Z" fill="black"/>
<path d="M3449.88 2407.4C3492.87 2400.95 3533.16 2429.94 3540.7 2472.74C3548.21 2515.52 3520.24 2556.53 3477.64 2565.15C3449.13 2570.91 3419.72 2560.76 3400.82 2538.62C3381.92 2516.48 3376.54 2485.83 3386.73 2458.57C3396.91 2431.31 3421.1 2411.72 3449.88 2407.4Z" fill="#B32724"/>
<path d="M2710.85 4524.4C2670.8 4516.2 2593.38 4500.34 2563.43 4472.68C2551.65 4461.8 2551.2 4441.8 2551.95 4426.21C2559.34 4291.45 2561.23 4156.88 2569.76 4022.12C2579.92 3861.47 2557.24 3665.23 2685.22 3543.93C2783.04 3451.23 2948.82 3446.16 3075.96 3449.55C3174.95 3450.54 3272.47 3472.95 3343.59 3545.01C3502.57 3706.11 3607.24 4114.16 3636.72 4338.61C3641.46 4374.78 3649.24 4413.38 3648.58 4449.88C3648.34 4462.25 3644.86 4469.07 3635.64 4477.33C3607.64 4502.47 3555.93 4512.66 3519.94 4520.65C3322.86 4564.41 3110.6 4568.05 2909.91 4551.77C2845.11 4546.51 2773.52 4540.65 2710.85 4524.4Z" fill="#841D1B"/>
<path d="M2710.85 4524.4C2670.8 4516.2 2593.38 4500.34 2563.43 4472.68C2551.65 4461.8 2551.2 4441.8 2551.95 4426.21C2559.34 4291.45 2561.23 4156.88 2569.76 4022.12C2579.92 3861.47 2557.24 3665.23 2685.22 3543.93C2783.04 3451.23 2948.82 3446.16 3075.96 3449.55C3098.25 3471.03 3143.89 3469.56 3149.51 3503.95C3155.03 3537.89 3073.8 3549.13 3054 3551.62C2764.86 3588.03 2750.74 3725.22 2745.7 3978.72C2737.83 4126.33 2724.67 4361.2 2715.5 4519.24C2713.94 4520.98 2712.38 4522.69 2710.85 4524.4Z" fill="#B32724"/>
<path d="M538.057 3247.63C625.889 3163.52 712.818 3112.1 825.348 3067.94C830.251 3220.3 917.764 3406.78 1023.1 3517.41C1065.52 3561.96 1152.84 3590.59 1210.33 3610.5C1178.39 3731.98 1163.41 3859.64 1132.19 3980.85C1124.39 4011.1 1009.49 4031.77 979.262 4035.94C771.339 4064.87 462.721 4091.21 259.272 4040.75C223.908 4034.8 111.415 4014.25 121.797 3966.31C176.425 3713.96 335.882 3412.67 538.057 3247.63Z" fill="#841D1B"/>
<path d="M538.057 3247.63C584.97 3239.16 684.25 3167.82 706.84 3274.54C720.497 3339.1 613.949 3401.91 579.983 3446.82C455.129 3586.68 359.808 3749.67 294.723 3925.37C287.78 3943.96 266.575 4034.44 259.272 4040.75C223.908 4034.8 111.415 4014.25 121.797 3966.31C176.425 3713.95 335.882 3412.66 538.057 3247.63Z" fill="#B32724"/>
<path d="M4401.1 3090.13C4697.03 3226.12 4903.07 3502.36 5009.9 3804.52C5015.34 3824.38 5063.14 3957.12 5044.9 3967.63C4954.08 4019.93 4756.52 4028.46 4660.86 4032.46C4556.64 4036.21 4171.67 4026.63 4089.32 3974.27C4082.5 3969.91 4076.88 3964.84 4073.9 3957.18C4060.9 3923.86 4057.17 3881.63 4050.41 3846.42C4035.66 3769.95 4021.63 3692.93 4003.24 3617.23C4060.24 3595.6 4142.19 3564.6 4185.88 3523.9C4296.61 3420.71 4388.76 3239.16 4401.1 3090.13Z" fill="#841D1B"/>
<path d="M937.227 2807.17C1354.35 3045.92 2082.75 3094.67 2564.39 3096.02C2585.81 3100.92 2657.58 3099.18 2682.97 3099.03C2683.27 3133.48 2682.49 3159.16 2675.55 3193.44C2660.68 3266.85 2577.16 3394.61 2498.37 3407.59C2435.51 3408.01 2372.5 3405.87 2309.67 3404.16C1922.85 3393.5 1423.41 3347.57 1065.25 3203.2C1035.12 3191.07 967.895 3169.08 947.405 3145.17C925.197 3119.27 935.048 2855.47 937.227 2807.17Z" fill="#B32724"/>
<path d="M2564.39 3096.02C2663.62 3094.28 2784.15 3098.58 2880.2 3094.7C3262.83 3079.29 3968.72 3024.59 4295.8 2828.47C4296.2 2880.41 4302.56 3124.05 4277.24 3150C4256.06 3171.75 4216.46 3183.56 4188.31 3194.46C3955.33 3284.7 3705.4 3328.62 3458.38 3359.74C3406.77 3366.25 3347.85 3378.36 3296.12 3375.96C3260.37 3374.34 3225.4 3358.68 3190.25 3352.11C3107.09 3336.52 3020.05 3336.28 2935.87 3342.25C2873.14 3346.7 2808.7 3357.33 2748.97 3376.95C2725.96 3384.49 2704.57 3400.62 2680.98 3405.49C2634.51 3415.04 2549.19 3407.14 2498.37 3407.59C2577.16 3394.61 2660.68 3266.86 2675.55 3193.44C2682.49 3159.17 2683.27 3133.48 2682.97 3099.03C2657.58 3099.18 2585.81 3100.92 2564.39 3096.02Z" fill="#841D1B"/>
<path d="M993.891 3283.71C1024.15 3293.32 1060.72 3308.85 1091.98 3319.78C1153.17 3341.08 1215.16 3359.98 1277.8 3376.53C1683.26 3482.5 2146.61 3507.32 2564.27 3511.64C2543.03 3542.01 2528.76 3569.71 2512.62 3602.51C2505.64 3618.91 2498.92 3637.51 2492.45 3654.33C2163.55 3651.26 1824.38 3628.67 1499.92 3568.36C1389.31 3547.81 1174.83 3508.91 1085.18 3428.95C1057.41 3404.16 1011.08 3320.99 993.891 3283.71Z" fill="#841D1B"/>
<path d="M2687.14 2920.12C3195.11 2906.96 3657.9 2858.51 4149.22 2729.07L4148.95 2792.57C3995.55 2866.86 3726.91 2913.3 3557.04 2938.41C3268.9 2980.41 2978.02 3000.95 2686.84 2999.81L2687.14 2920.12Z" fill="#57100E"/>
<path d="M1076.2 2709C1153.95 2744.6 1296.81 2781.91 1380.07 2801.37C1805.21 2900.68 2251.67 2917.98 2687.14 2920.12L2686.84 2999.81C2225.71 3000.47 1490.35 2967.58 1076.43 2772.78L1076.2 2709Z" fill="#57100E"/>
<path d="M4221.06 3290.89C4218.71 3326 4127.98 3439.52 4096.11 3456.52C3926.57 3547.03 3711.31 3581.27 3524.06 3609.51C3511.86 3591.49 3498.88 3569.41 3487.22 3550.72C3469.14 3525.79 3442.73 3495.72 3422.51 3471.54C3496.15 3459.62 3571.58 3452.62 3646.87 3440.09C3843.89 3407.29 4035 3365.05 4221.06 3290.89Z" fill="#841D1B"/>
</svg>
