<svg width="791" height="777" viewBox="0 0 791 777" fill="none" xmlns="http://www.w3.org/2000/svg">
<path d="M446.773 0.254721C484.618 -1.07528 534.993 2.89309 571.363 10.0535C642.408 24.0425 703.929 58.6829 744.169 120.099C779.794 174.479 785.618 233.842 788.393 297.014C789.488 321.87 790.079 346.745 790.169 371.624L790.159 408.619C790.149 414.399 790.438 425.064 789.398 430.414C786.173 442.694 771.924 448.524 761.589 453.364C757.359 455.344 746.923 457.429 746.103 462.004C749.138 468.279 775.358 469.494 781.773 480.898C789.598 498.538 781.154 530.259 777.629 547.919C765.474 608.764 735.324 642.729 684.999 674.879C722.813 684.319 715.023 724.189 686.608 739.964C664.343 752.324 636.514 763.193 610.574 758.598C594.699 755.783 586.263 740.894 578.778 728.489C575.343 722.894 571.868 717.318 568.353 711.768C553.143 713.718 538.933 716.563 523.183 718.103C509.764 719.413 497.104 719.844 483.869 720.973C489.309 733.613 492.993 747.918 483.488 759.853C476.148 769.063 463.288 775.114 451.514 775.829C424.884 777.449 392.838 776.349 370.832 759.634C356.051 748.034 356.023 726.189 354.472 708.834C346.202 707.089 337.987 705.094 329.839 702.844C321.007 700.444 309.726 696.498 300.912 696.518C299.247 699.703 297 706.579 295.063 710.704C273.894 754.159 225.783 766.123 182.893 746.818C167.625 739.948 156.175 727.373 147.908 712.983C117.401 709.033 94.0893 705.168 71.3953 681.259C39.0553 647.184 38.7822 591.683 39.6287 547.773C20.6325 542.193 2.93225 533.724 0.966628 511.289C-0.485372 494.709 0.130831 477.513 0.124831 460.818L0.0994406 370.86L0.0886984 268.836L0.0808859 236.632C0.0803859 228.773 -0.445596 213.229 2.02327 206.144C7.65527 191.498 19.5912 176.763 33.9852 170.115C38.7621 167.909 45.5596 167.853 49.8846 165.081C50.936 164.407 50.2705 157.212 50.2655 155.665C50.2085 138.628 50.2123 121.565 50.1033 104.526C49.9243 96.8402 49.687 88.7649 55.66 82.9334C60.6299 78.0817 66.9301 77.4052 73.5789 77.9666C82.8619 78.7501 90.1181 86.1918 90.3846 95.5838C90.5711 102.159 90.383 108.816 90.3465 115.442L90.2078 160.009C98.8497 159.399 107.503 158.947 116.161 158.654L116.173 92.0799C116.141 81.3369 115.394 67.3277 116.801 57.1287C120.169 37.55 153.638 38.7808 156.081 57.3397C157.379 67.2037 156.634 80.6575 156.619 90.8075L156.645 158.623L164.502 159.056C173.731 136.68 192.848 108.531 209.102 90.9735C273.058 21.89 356.378 3.33775 446.773 0.254721ZM245.62 668.76C226.411 694.96 209.14 703.32 178.234 711.08C186.503 720.205 196.045 725.94 208.153 728.385C241.408 733.964 267.689 718.254 274.209 684.425C269.359 681.255 262.699 678.264 257.444 675.43C254.676 673.935 248.031 669.725 245.62 668.76ZM63.0916 552.539C62.5986 591.449 63.1234 635.929 91.9119 666.679C103.214 678.754 120.332 687.269 136.925 688.774C135.387 682.804 133.908 676.824 132.488 670.824C112.7 663.869 101.24 654.864 92.0799 635.354C80.4234 610.529 78.2176 581.289 76.2186 554.379C71.7786 553.669 67.5776 552.974 63.0916 552.539ZM211.642 641.41C198.039 663.275 183.572 670.165 158.57 673.515C160.16 678.48 161.911 683.39 163.82 688.24L167.904 687.44C187.158 683.005 215.696 671.445 222.478 650.81C218.703 646.505 216.38 644.65 211.642 641.41ZM156.088 556.754C153.933 557.004 151.249 557.239 149.17 557.679C148.612 581.389 148.176 604.744 150.662 628.379C151.26 634.064 151.728 641.834 152.781 647.409C161.772 646.674 167.897 645.234 175.564 640.344C181.392 635.589 190.462 627.109 190.263 618.874C190.17 615.094 175.678 593.625 172.914 588.774C167.011 578.419 161.901 567.834 157.193 556.889L156.088 556.754ZM100.551 557.764C100.838 579.523 107.956 627.789 128.022 639.254C127.649 625.454 125.832 610.919 125.346 596.924C124.897 583.999 125.03 571.538 124.891 558.653L100.551 557.764Z" fill="#1C1817"/>
<path d="M284.677 56.8122C285.275 56.4612 285.877 56.1172 286.483 55.7812C349.337 20.9307 429.754 18.4302 499.644 22.3562C527.224 23.9052 564.414 27.3007 591.134 34.9082C649.799 50.7432 697.564 81.6342 729.154 134.958C755.089 178.748 758.929 227.022 764.369 276.495C766.094 292.192 768.804 317.281 769.134 332.481C769.829 336.559 769.999 345.418 770.104 349.849L770.499 358.286L771.589 389.435C771.929 399.515 772.379 408.99 770.894 419.035C768.994 431.89 759.049 436.005 748.129 440.565C736.919 445.205 725.324 448.855 713.479 451.47C701.489 454.085 689.384 456.16 677.204 457.685C668.774 458.82 651.634 459.84 644.839 465.1C638.399 470.08 638.874 483.97 638.754 491.665C544.954 499.12 451.374 504.69 357.353 497.47C337.926 495.975 313.401 493.94 294.167 490.935C282.258 490.145 261.649 486.315 249.137 484.31C245.814 483.475 240.506 482.795 236.992 482.24C214.058 477.755 189.768 474.055 167.121 468.2L167.072 394.595C167.071 389.03 166.631 362.547 167.803 358.562C168.23 355.609 168.224 349.865 167.93 346.871C166.187 343.624 166.247 281.109 166.973 273.718L166.953 270.619C166.994 266.624 167.142 262.63 167.394 258.643C169.734 205.269 182.046 154.664 217.094 112.892C218.51 111.124 219.563 110.047 221.161 108.425C224.257 104.039 229.906 98.1912 233.68 94.4272C247.438 80.8252 267.753 66.1942 284.677 56.8122Z" fill="#F42B24"/>
<path d="M515.513 374.964C502.143 351.485 497.343 321.676 501.798 295.109C507.083 264.069 524.398 236.367 549.983 218.015C575.228 200.004 606.648 192.877 637.198 198.231C668.283 203.985 695.763 221.976 713.468 248.17C731.668 274.631 739.678 311.496 733.753 343.088C732.638 348.407 731.718 352.021 730.203 357.227C729.088 360.396 727.948 363.87 726.613 366.921C720.833 379.104 714.593 390.519 705.383 400.519C656.293 453.804 578.658 449.679 531.203 397.339C528.363 393.979 525.728 390.509 523.043 387.029C520.368 383.054 517.663 379.249 515.513 374.964Z" fill="#1C1817"/>
<path d="M666.433 395.659C630.103 420.404 581.733 417.904 548.143 389.544C514.553 361.188 503.983 313.921 522.288 273.955C540.588 233.988 583.283 211.118 626.698 218.025C666.333 224.331 698.108 254.186 706.868 293.353C715.633 332.52 699.603 373.069 666.433 395.659Z" fill="white"/>
<path d="M626.697 218.025C666.332 224.332 698.107 254.186 706.867 293.353C715.632 332.52 699.602 373.07 666.432 395.66C665.612 393.655 671.437 387.205 672.947 385.45C713.572 338.183 700.422 261.405 647.567 228.957C643.727 226.599 628.427 220.48 626.697 218.025Z" fill="#E8E8E8"/>
<path d="M597.698 243.191C635.753 239.116 669.863 266.766 673.753 304.841C677.638 342.915 649.823 376.893 611.733 380.593C573.898 384.268 540.208 356.687 536.348 318.875C532.483 281.064 559.903 247.239 597.698 243.191Z" fill="#1C1817"/>
<path d="M580.828 266.702C592.863 265.71 603.418 274.674 604.388 286.711C605.358 298.748 596.373 309.287 584.338 310.236C572.328 311.183 561.823 302.228 560.853 290.221C559.883 278.214 568.823 267.691 580.828 266.702Z" fill="white"/>
<path d="M646.228 330.088C662.328 329.058 656.538 349.804 642.738 354.579C626.883 356.457 633.133 336.093 646.228 330.088Z" fill="#5C5A5A"/>
<path d="M769.133 332.48C769.828 336.558 769.998 345.417 770.103 349.848L770.497 358.285L771.588 389.434C771.928 399.514 772.378 408.989 770.893 419.034C768.993 431.889 759.048 436.004 748.128 440.564C736.918 445.204 725.323 448.854 713.478 451.469C701.488 454.084 689.383 456.159 677.203 457.684C668.773 458.819 651.633 459.839 644.838 465.099C638.398 470.079 638.873 483.969 638.753 491.664C544.952 499.119 451.373 504.689 357.351 497.469C337.925 495.974 313.399 493.939 294.166 490.934L294.308 490.144C293.077 488.534 290.959 487.229 289.27 486.039C274.563 475.709 274.7 459.189 273.396 443.024C272.476 432.599 271.667 422.164 270.967 411.719C270.75 408.314 270.517 395.984 268.979 393.994C288.344 395.794 308.611 395.524 328.082 396.259C331.433 396.389 335.966 396.634 339.245 396.509C337.874 392.359 338.383 392.044 340.268 388.029C347.387 387.939 355.148 388.564 362.327 388.724C376.852 389.049 391.448 389.694 405.968 389.944C445.018 390.449 484.068 389.474 523.043 387.029C525.728 390.509 528.363 393.979 531.203 397.339C578.658 449.679 656.293 453.804 705.383 400.519C714.593 390.519 720.832 379.104 726.612 366.921C727.947 363.87 729.088 360.396 730.203 357.227C731.718 352.021 732.638 348.407 733.753 343.088C736.013 343.88 764.643 338.044 768.593 336.932C769.318 335.437 769.093 334.28 769.133 332.48Z" fill="#F42B24"/>
<path d="M523.043 387.029C525.728 390.509 528.363 393.979 531.203 397.339C504.218 399.369 360.322 403.804 339.245 396.509C337.874 392.359 338.383 392.044 340.268 388.029C347.387 387.939 355.148 388.564 362.327 388.724C376.852 389.049 391.448 389.694 405.968 389.944C445.018 390.449 484.068 389.474 523.043 387.029Z" fill="#FE805F"/>
<path d="M769.133 332.48C769.828 336.558 769.998 345.417 770.103 349.848C757.978 351.653 741.363 356.11 730.203 357.227C731.718 352.021 732.638 348.407 733.753 343.088C736.013 343.88 764.643 338.044 768.593 336.932C769.318 335.437 769.093 334.28 769.133 332.48Z" fill="#9D1B1B"/>
<path d="M730.203 357.227C741.363 356.11 757.978 351.653 770.103 349.848L770.498 358.285C760.158 360.76 736.798 366.059 726.613 366.921C727.948 363.87 729.088 360.396 730.203 357.227Z" fill="#FE805F"/>
<path d="M166.973 273.717C175.133 275.844 185.094 275.938 193.648 276.459C213.261 277.654 233.008 278.183 252.616 279.694C256.786 280.016 262.005 280.151 266.079 280.812C265.908 307.237 266.122 333.227 267.858 359.608C268.126 363.676 268.302 368.438 268.195 372.519C297.222 374.319 329.389 375.359 358.459 376.184C408.904 377.624 465.174 378.979 515.514 374.964C517.664 379.249 520.369 383.054 523.044 387.029C484.069 389.474 445.019 390.449 405.969 389.944C391.449 389.694 376.853 389.049 362.329 388.724C355.15 388.564 347.389 387.939 340.27 388.029C338.385 392.044 337.876 392.359 339.246 396.509C335.968 396.634 331.435 396.389 328.084 396.259C308.613 395.524 288.346 395.794 268.98 393.994C270.519 395.984 270.751 408.314 270.969 411.719C271.668 422.164 272.478 432.599 273.398 443.024C274.701 459.189 274.564 475.709 289.272 486.039C290.96 487.229 293.079 488.534 294.31 490.144L294.167 490.934C282.258 490.144 261.649 486.314 249.137 484.309C245.814 483.474 240.506 482.794 236.992 482.239C214.058 477.754 189.768 474.054 167.121 468.199L167.072 394.594C167.071 389.029 166.631 362.546 167.803 358.561C168.23 355.608 168.224 349.864 167.93 346.87C166.187 343.623 166.247 281.108 166.973 273.717Z" fill="#9D1B1B"/>
<path d="M166.973 273.717C175.133 275.844 185.094 275.938 193.648 276.459C213.261 277.654 233.008 278.183 252.616 279.694C256.786 280.016 262.005 280.151 266.079 280.812C265.908 307.237 266.122 333.227 267.858 359.608C268.126 363.676 268.302 368.438 268.195 372.519C262.142 372.474 255.213 372.049 249.052 371.884C249.219 363.14 247.581 355.125 237.158 353.645C220.545 351.287 203.524 350.634 186.826 348.59C181.486 347.936 175.398 347.269 170.037 347.08L167.93 346.87C166.187 343.623 166.247 281.108 166.973 273.717Z" fill="#DA1E1F"/>
<path d="M167.801 358.562L169.502 358.745L170.732 359.437C169.6 360.683 169.135 360.954 169.001 362.625C169.692 364.062 170.365 364.941 172.072 365.342C184.892 368.355 198.502 368.681 211.573 370.361C218.213 371.214 224.927 370.426 229.06 376.395C229.035 399.18 229.156 421.965 229.423 444.75C229.545 454.2 229.325 464.405 229.958 473.795C230.058 475.285 230.626 476.09 231.571 477.19C234.121 478.145 234.489 477.775 236.559 476.145C236.629 477.925 236.639 480.565 236.99 482.24C214.056 477.755 189.766 474.055 167.119 468.2L167.07 394.595C167.069 389.03 166.629 362.547 167.801 358.562Z" fill="#DA1E1F"/>
<path d="M249.233 387.234C249.757 389.799 249.299 389.959 250.854 391.069C252.765 391.159 253.203 391.174 255.039 391.634C259.466 393.519 264.19 394.029 268.98 393.994C270.518 395.984 270.751 408.314 270.968 411.719C271.668 422.164 272.477 432.599 273.397 443.024C274.701 459.189 274.564 475.709 289.271 486.039C290.96 487.229 293.078 488.534 294.309 490.144L294.167 490.934C282.258 490.144 261.648 486.314 249.137 484.309C249.365 451.954 249.397 419.594 249.233 387.234Z" fill="#DA1E1F"/>
<path d="M170.733 359.436C177.388 359.592 232.773 364.556 234.598 366.158C237.572 372.189 236.782 386.989 236.819 393.969L236.839 432.669C236.82 443.979 237.504 465.669 236.56 476.144C234.49 477.774 234.122 478.144 231.572 477.189C230.627 476.089 230.059 475.284 229.959 473.794C229.326 464.404 229.546 454.199 229.424 444.749C229.157 421.964 229.036 399.179 229.061 376.394C224.928 370.425 218.214 371.212 211.574 370.359C198.503 368.68 184.893 368.354 172.073 365.341C170.366 364.94 169.693 364.06 169.002 362.623C169.136 360.952 169.601 360.681 170.733 359.436Z" fill="#FE805F"/>
<path d="M257.482 384.609C284.483 385.644 313.342 386.184 340.268 388.029C338.383 392.044 337.874 392.359 339.245 396.509C335.966 396.634 331.433 396.389 328.082 396.259C308.611 395.524 288.344 395.794 268.979 393.994C264.189 394.029 259.465 393.519 255.038 391.634C253.078 388.304 254.711 386.374 257.482 384.609Z" fill="#FE805F"/>
<path d="M249.232 387.234C249.158 386.049 249.118 386.099 249.463 384.974C251.683 383.849 254.854 384.434 257.483 384.609C254.712 386.374 253.078 388.304 255.038 391.634C253.203 391.174 252.765 391.159 250.853 391.069C249.299 389.959 249.756 389.799 249.232 387.234Z" fill="#F42B24"/>
<path d="M167.928 346.871L170.035 347.081C171.333 349.808 173.41 357.481 169.502 358.744L167.801 358.562C168.228 355.609 168.222 349.865 167.928 346.871Z" fill="#861015"/>
<path d="M221.16 108.424C231.496 104.06 246.266 106.228 257.511 107.087C268.747 107.94 279.974 108.892 291.193 109.941L287.231 113.823L289.715 118.519L290.068 118.658C289.683 121.305 286.429 125.919 284.983 128.823C283.094 132.539 281.7 136.486 280.836 140.563C277.846 154.66 275.153 168.903 272.228 183.014C266.739 209.491 266.547 235.675 265.92 262.576C257.168 262.299 169.475 259.544 167.393 258.642C169.732 205.269 182.045 154.663 217.092 112.891C218.509 111.124 219.561 110.047 221.16 108.424Z" fill="#DA1E1F"/>
<path d="M221.159 108.424C231.495 104.06 246.266 106.228 257.511 107.087C268.746 107.94 279.974 108.892 291.192 109.941L287.23 113.823L289.714 118.519C282.707 118.446 266.98 117.163 259.798 116.742C251.427 116.251 223.894 115.314 217.092 112.891C218.508 111.124 219.561 110.047 221.159 108.424Z" fill="#FE805F"/>
<path d="M291.193 109.941C307.08 110.453 333.467 114.05 337.895 134.411C339.4 141.331 338.83 153.637 338.923 161.247L339.55 211.853C339.601 219.228 339.193 232.154 339.709 239.071C343.177 269.302 332.458 264.771 309.577 263.973L265.92 262.576C266.547 235.675 266.739 209.491 272.228 183.014C275.153 168.903 277.846 154.66 280.836 140.563C281.7 136.486 283.094 132.539 284.983 128.823C286.429 125.919 289.683 121.305 290.068 118.658L289.715 118.519L287.231 113.823L291.193 109.941Z" fill="#F42B24"/>
<path d="M291.192 109.941C307.08 110.453 333.466 114.05 337.894 134.411C339.399 141.331 338.83 153.637 338.922 161.247L339.55 211.853C339.601 219.228 339.192 232.154 339.708 239.071C339.101 240.022 337.722 241.963 336.795 242.543C323.937 250.581 326.627 224.705 326.565 217.503C326.401 198.927 326.143 180.351 325.792 161.777C325.648 153.693 325.752 144.872 325.162 136.836C324.995 134.561 323.213 131.596 321.855 129.741C314.894 120.232 301.223 120.091 290.067 118.658L289.714 118.519L287.23 113.823L291.192 109.941Z" fill="#FE805F"/>
<path d="M284.675 56.8125C286.996 58.011 289.275 58.3905 291.827 58.859C311.432 62.458 332.754 66.733 352.553 62.7395L354.807 63.359C350.32 66.7595 343.587 70.058 338.942 73.009C330.453 78.4015 309.62 92.935 304.021 100.797C319.025 104.055 334.809 108.804 343.833 122.167C351.189 133.06 349.952 151.639 350.286 164.553C350.825 184.051 351.107 203.555 351.133 223.061C351.192 235.267 352.1 249 350.426 260.888C348.773 272.626 335.467 276.24 325.626 277.008C326.265 278.413 326.856 279.62 326.388 281.207C325.856 283.012 324.359 284.045 322.701 284.706C317.051 286.958 275.567 281.559 266.077 280.814C262.003 280.153 256.784 280.017 252.614 279.695C233.006 278.184 213.259 277.656 193.646 276.461C185.092 275.939 175.131 275.845 166.971 273.718L166.951 270.62C166.992 266.624 167.14 262.631 167.392 258.643C169.474 259.545 257.167 262.3 265.919 262.577L309.577 263.974C332.457 264.772 343.176 269.303 339.708 239.072C339.192 232.155 339.601 219.229 339.55 211.853L338.922 161.247C338.83 153.638 339.399 141.331 337.894 134.411C333.466 114.051 307.08 110.454 291.192 109.942C279.974 108.893 268.746 107.941 257.511 107.087C246.266 106.228 231.495 104.061 221.159 108.425C224.255 104.039 229.904 98.1915 233.678 94.4275C247.436 80.8255 267.751 66.1945 284.675 56.8125Z" fill="#9D1B1B"/>
<path d="M284.676 56.8125C286.997 58.011 289.276 58.3905 291.829 58.859C311.434 62.458 332.756 66.733 352.554 62.7395L354.808 63.359C350.321 66.7595 343.589 70.058 338.943 73.009C330.455 78.4015 309.622 92.935 304.022 100.797C299.905 100.422 295.799 99.9415 291.688 99.519C273.1 97.6085 254.478 96.2735 235.833 95.087C234.939 95.03 234.465 94.796 233.68 94.4275C247.438 80.8255 267.753 66.1945 284.676 56.8125Z" fill="#DA1E1F"/>
<path d="M166.951 270.618C173.694 270.588 180.609 270.796 187.346 271.123C233.216 273.351 279.851 273.896 325.626 277.006C326.265 278.411 326.856 279.619 326.388 281.206C325.856 283.011 324.359 284.043 322.701 284.704C317.051 286.957 275.567 281.558 266.077 280.812C262.003 280.151 256.784 280.016 252.614 279.694C233.006 278.183 213.259 277.654 193.646 276.459C185.092 275.938 175.131 275.844 166.971 273.717L166.951 270.618Z" fill="#FE805F"/>
<path d="M284.676 56.8122C285.274 56.4612 285.876 56.1172 286.482 55.7812C349.336 20.9307 429.753 18.4302 499.643 22.3562C527.223 23.9052 564.413 27.3007 591.133 34.9082C593.498 39.3907 594.538 43.1522 592.883 48.2497C591.653 52.0792 588.923 55.2472 585.318 57.0312C577.818 60.8322 569.253 58.0327 561.343 56.9142C552.218 55.6802 543.078 54.6257 533.913 53.7512C506.048 51.1552 475.128 50.4932 447.043 50.6277C425.868 50.7292 403.458 51.6947 382.523 55.1257C372.053 56.8422 362.21 61.2202 352.554 62.7392C332.755 66.7327 311.433 62.4577 291.828 58.8587C289.276 58.3902 286.997 58.0107 284.676 56.8122Z" fill="#FE805F"/>
<path d="M387.077 157.107C395.622 156.376 410.412 156.526 418.752 157.734C427.067 159.7 425.267 177.932 425.157 184.71C424.987 195.251 427.712 203.989 417.282 208.723C409.987 209.616 396.037 209.015 388.417 208.526C378.689 207.902 380.199 193.522 380.269 186.764C380.341 179.706 379.87 170.761 380.749 163.654C381.043 160.741 384.887 158.359 387.077 157.107Z" fill="#FEA679"/>
<path d="M683.562 116.385C694.962 117.001 717.302 150.023 707.662 161.207C695.937 161.41 682.162 134.082 681.347 123.716C681.077 120.283 681.417 118.945 683.562 116.385Z" fill="#FE805F"/>
<path d="M622.234 66.6287L623.189 66.5422C632.659 65.7602 643.094 71.9042 650.219 77.6757C654.169 80.8707 658.199 85.6822 654.159 90.4232C646.379 91.1042 636.954 86.2927 630.869 81.7282C626.564 78.5032 617.819 72.3317 622.234 66.6287Z" fill="#FE805F"/>
<path d="M396.718 223.173C402.333 223.016 412.743 221.745 415.748 227.533C418.388 232.625 413.588 236.049 409.608 237.573C389.338 241.429 382.218 226.037 396.718 223.173Z" fill="#FE805F"/>
<path d="M391.058 64.5961C402.773 63.7976 407.063 75.3151 394.928 80.7446C384.003 82.3801 378.968 70.2856 391.058 64.5961Z" fill="#FE805F"/>
<path d="M368.797 74.0469C371.416 74.0499 373.579 76.0949 373.728 78.7099C373.878 81.3249 371.962 83.6029 369.36 83.9044C367.537 84.1154 365.746 83.2994 364.71 81.7849C363.673 80.2699 363.561 78.3054 364.418 76.6824C365.276 75.0594 366.961 74.0449 368.797 74.0469Z" fill="#FE805F"/>
<path d="M663.307 527.855C680.557 521.295 694.762 515.165 706.457 499.935C709.117 496.465 711.092 492.055 714.492 489.19C725.147 481.165 750.597 480.51 762.607 485.535C766.737 487.265 769.317 489.94 770.962 493.8C765.277 548.6 753.717 599.825 707.427 635.69C629.477 696.08 507.337 707.1 412.322 698.63C348.662 692.955 283.901 676.425 234.273 635.535C223.686 626.865 218.326 620.305 209.209 610.845C208.415 610.095 207.826 609.005 207.212 608.055C204.531 606.215 199.96 597.87 198.607 594.66C196.913 592.985 194.82 589.225 193.675 587.03C180.532 561.845 173.43 532.34 171.995 504.045C171.877 501.73 171.529 493.915 172.087 492.06L172.898 492.305C180.539 495.1 188.203 498.26 195.841 500.89C229.191 512.4 263.315 521.53 297.956 528.215C365.518 540.99 432.962 545.005 501.627 543.85C536.872 543.255 571.147 542.35 606.212 537.69C625.267 535.155 644.737 533.04 663.307 527.855Z" fill="#DA1E1F"/>
<path d="M663.308 527.854C678.638 529.429 722.863 512.709 738.718 507.954C744.083 506.349 764.563 496.189 767.783 496.654C769.753 499.434 766.418 501.749 764.243 503.444C745.083 518.369 723.523 527.549 700.688 535.249C685.298 567.394 640.983 594.099 607.883 605.254C534.763 629.899 446.888 631.984 375.823 599.184C354.567 589.194 334.975 575.404 318.954 558.319C316.584 555.789 310.984 549.389 309.391 546.374L309.095 546.194C307.649 540.324 296.275 533.339 297.956 528.214C365.519 540.989 432.963 545.004 501.628 543.849C536.873 543.254 571.148 542.349 606.213 537.689C625.268 535.154 644.738 533.039 663.308 527.854Z" fill="#F42B24"/>
<path d="M663.308 527.854C678.638 529.429 722.863 512.709 738.718 507.954C744.083 506.349 764.563 496.189 767.783 496.654C769.753 499.434 766.418 501.749 764.243 503.444C745.083 518.369 723.523 527.549 700.688 535.249C630.418 555.599 560.888 559.559 488.238 559.484C482.028 559.479 476.443 555.549 470.103 556.079C437.083 555.579 404.603 555.209 371.602 553.044C358.444 552.284 345.316 551.079 332.24 549.424C327.535 548.829 313.419 546.469 309.391 546.374L309.095 546.194C307.649 540.324 296.275 533.339 297.956 528.214C365.519 540.989 432.963 545.004 501.628 543.849C536.873 543.254 571.148 542.349 606.213 537.689C625.268 535.154 644.738 533.039 663.308 527.854Z" fill="#FF7A5B"/>
<path d="M198.607 594.659C196.913 592.984 194.82 589.224 193.675 587.029C180.532 561.844 173.43 532.339 171.995 504.044C171.877 501.729 171.529 493.914 172.087 492.059L172.898 492.304C180.539 495.099 188.203 498.259 195.841 500.889C229.191 512.399 263.315 521.529 297.956 528.214C296.275 533.339 307.649 540.324 309.094 546.194C300.431 545.624 281.011 541.079 272.099 539.134L272.202 592.944C272.219 601.264 272.518 609.919 271.806 618.064C271.449 622.149 264.384 627.159 260.826 626.539C248.754 624.439 236.469 619.754 224.851 615.914C219.841 614.254 214.048 611.809 209.209 610.844C208.415 610.094 207.826 609.004 207.212 608.054C204.531 606.214 199.96 597.869 198.607 594.659Z" fill="#DA1E1F"/>
<path d="M259.647 535.844C263.771 537.034 267.893 538.294 272.099 539.134L272.202 592.944C272.219 601.264 272.518 609.919 271.806 618.064C271.449 622.149 264.384 627.159 260.826 626.539C248.754 624.439 236.469 619.754 224.851 615.914C219.841 614.254 214.048 611.809 209.209 610.844C208.415 610.094 207.826 609.004 207.212 608.054C204.531 606.214 199.96 597.869 198.607 594.659C200.404 595.124 201.89 595.504 203.639 596.109C210.678 598.319 255.571 614.049 258.347 612.989C260.22 608.684 259.516 589.959 259.517 584.119L259.647 535.844Z" fill="#9E1A18"/>
<path d="M198.607 594.66C200.404 595.125 201.89 595.505 203.639 596.11C202.6 602.51 207.512 605.625 207.212 608.055C204.531 606.215 199.96 597.87 198.607 594.66Z" fill="#861015"/>
<path d="M172.899 492.305C180.539 495.1 188.203 498.26 195.842 500.89C229.192 512.4 263.316 521.53 297.956 528.215C296.275 533.34 307.649 540.325 309.095 546.195C300.431 545.625 281.011 541.08 272.099 539.135C267.894 538.295 263.772 537.035 259.648 535.845C234.362 529.585 210.146 519.605 187.793 506.23C184.279 504.13 171.684 496.875 172.899 492.305Z" fill="#F42B24"/>
<path d="M90.767 178.941C107.376 177.033 139.532 176.809 156.938 177.325C156.209 181.798 154.379 188.267 153.38 193.017L150.331 205.338L149.354 208.449C147.909 218.009 146.511 227.538 145.89 237.191C144.777 254.503 145.153 272.077 145.145 289.429L145.154 371.499V453.53C145.157 476.305 143.801 505.465 149.438 527.12C150.26 531.025 151.15 534.64 152.14 538.51C120.951 540.585 91.7135 538.765 61.1995 532.18C49.16 530.185 39.089 529.8 29.1945 521.695C17.5675 512.18 19.8925 498.285 19.899 484.655L19.937 450.38L19.959 346.412L19.984 258.62L19.8985 233.366C19.828 221.96 18.4155 211.675 26.5355 202.382C35.2415 193.232 39.8435 187.714 52.136 185.294C55.509 190.497 58.7225 194.563 65.0505 196.125C78.5455 199.456 87.68 191.277 90.767 178.941Z" fill="#97191E"/>
<path d="M149.352 208.449C147.907 218.01 146.509 227.538 145.889 237.192C144.776 254.504 145.151 272.078 145.144 289.429L145.152 371.5V453.53C145.156 476.305 143.799 505.465 149.437 527.12C147.849 528.33 138.463 527.895 137.147 527.08C136.294 526.405 132.595 524.83 131.387 524.33C112.277 516.455 114.186 498.05 114.081 480.73C114.037 473.535 114.085 465.16 114.091 457.395L114.2 375.17L114.211 284.704C114.219 269.859 113.613 254.272 114.537 239.515C115.939 217.15 130.46 211.111 149.352 208.449Z" fill="#9D1B1B"/>
<path d="M90.7667 178.941C107.376 177.033 139.532 176.809 156.938 177.325C156.209 181.798 154.379 188.267 153.38 193.017C136.364 193.341 120.168 192.206 108.018 204.859L107.358 205.56C84.6002 208.438 61.5582 208.225 38.8577 204.926C36.3142 204.561 28.6732 203.441 26.5352 202.382C35.2412 193.232 39.8432 187.714 52.1357 185.294C55.5087 190.497 58.7222 194.563 65.0502 196.125C78.5452 199.456 87.6797 191.277 90.7667 178.941Z" fill="#DA1E1F"/>
<path d="M137.147 527.08C120.995 525.105 109.413 521.445 109.255 502.545C109.098 483.625 109.163 464.675 109.167 445.755L109.156 335.846L109.131 263.122C109.13 252.816 109.279 242.169 109.154 231.883C108.841 206.161 130.201 205.388 150.33 205.338L149.353 208.449C130.461 211.111 115.939 217.15 114.538 239.514C113.613 254.272 114.22 269.858 114.211 284.704L114.2 375.17L114.091 457.395C114.085 465.16 114.038 473.535 114.081 480.73C114.186 498.05 112.277 516.455 131.388 524.33C132.595 524.83 136.294 526.405 137.147 527.08Z" fill="#F42B24"/>
<path d="M44.0896 270.534C50.5711 270.235 77.8121 272.035 78.8736 274.634C84.8716 289.312 82.8676 347.038 82.6811 361.035C82.4846 387.489 82.0026 413.934 81.2356 440.374L80.2906 473.319C80.1551 478.559 80.2096 484.339 79.6596 489.554C79.4936 491.124 78.2536 492.459 77.2166 493.624C72.9316 493.444 45.7766 490.614 42.7191 489.094C41.2291 486.159 40.5651 458.874 40.5371 454.534C40.3781 429.939 32.5571 281.762 44.0896 270.534Z" fill="#861015"/>
<path d="M47.6376 384.05C52.9096 383.875 70.8396 384.075 74.5736 386.995C76.1286 389.835 75.4876 394.085 75.3536 397.305C75.1581 402.02 77.0056 406.49 73.3741 410.11C68.9961 410.625 50.3381 409.544 46.5991 406.829C45.1101 404.504 45.4581 399.995 45.6101 397.22C45.8886 392.14 43.7126 387.955 47.6376 384.05Z" fill="#DA1E1F"/>
<path d="M658.973 687.094C678.473 691.824 706.258 700.094 677.883 722.729C664.978 733.019 637.668 742.264 620.983 739.934C604.213 738.334 596.388 721.334 589.238 708.269C615.393 702.174 634.083 697.694 658.973 687.094Z" fill="#DA1E1F"/>
<path d="M374.459 713.234C406.372 718.049 427.432 720.974 460.512 721.069C463.892 724.934 465.642 727.469 467.932 732.004C471.827 743.359 470.203 752.709 456.978 756.064C434.243 761.829 389.207 761.639 377.611 736.169C374.603 727.264 374.6 722.554 374.459 713.234Z" fill="#F42B24"/>
<path d="M374.459 713.234C406.372 718.049 427.432 720.974 460.512 721.069C463.892 724.934 465.642 727.469 467.932 732.004C455.002 732.639 442.067 733.114 429.127 733.424C416.597 733.649 388.187 732.249 377.611 736.169C374.603 727.264 374.6 722.554 374.459 713.234Z" fill="#DA1E1F"/>
<path d="M135.737 53.0449C140.104 53.4419 141.138 54.5239 143.568 58.0534C144.341 76.5444 143.353 95.7709 143.783 114.314C144.091 127.632 143.661 141.191 143.659 154.526C143.658 159.132 141.148 161.446 136.891 162.476C127.554 161.629 128.993 153.69 128.995 146.598C129.001 118.882 128.881 91.1554 129.08 63.4414C129.124 57.3289 129.519 55.1694 135.737 53.0449Z" fill="#5C5A5A"/>
<path d="M68.0259 88.0118C74.2069 87.9993 77.3324 89.9188 77.4199 96.4563C77.7389 121.427 77.5264 146.431 77.6104 171.407C77.6319 177.814 78.7114 181.557 72.7499 185.091C66.4044 185.464 63.0914 183.915 63.0824 176.889C63.0459 148.851 62.4139 120.577 63.2819 92.5743C63.3349 90.8673 66.6889 88.8018 68.0259 88.0118Z" fill="#5C5A5A"/>
</svg>
