<svg width="4136" height="3332" viewBox="0 0 4136 3332" fill="none" xmlns="http://www.w3.org/2000/svg">
<g clip-path="url(#clip0_91_8205)">
<path d="M1136.64 1921.34L3264.63 803.435C3300.31 784.687 3339.05 772.441 3379.02 767.269L3567.91 742.817C3637.75 733.777 3683.54 813.796 3640.4 869.429L3058.26 1619.96L1136.64 1921.35L1136.64 1921.34Z" fill="white"/>
<path d="M1083.68 1938.86L3260.39 795.362C3297.15 776.046 3336.65 763.561 3377.83 758.222L3566.72 733.77C3602.76 729.099 3636.36 745.792 3654.42 777.332C3672.48 808.871 3669.85 846.294 3647.59 875.016L3063.24 1628.4L3059.68 1628.95L1083.7 1938.87L1083.68 1938.86ZM3595.2 753.232C3586.91 751.195 3578.08 750.677 3569.07 751.841L3380.18 776.294C3341.15 781.344 3303.7 793.182 3268.87 811.49L1189.59 1903.81L3053.28 1611.5L3633.19 863.836C3650.86 841.072 3652.94 811.381 3638.62 786.381C3628.81 769.262 3613.22 757.659 3595.2 753.232Z" fill="#231F20"/>
<path d="M1055.3 1427.58C1153.85 1387.82 1378.98 1352.09 1378.98 1352.09L1389.19 1894.19L1263.84 2119.08L892.54 1934.45L874.706 1760.16L933.398 1547.87L1055.28 1427.58L1055.3 1427.58Z" fill="#1A3826"/>
<path d="M1267.58 2131.11L883.995 1940.39L865.487 1759.4L925.29 1543.12L1050.19 1419.82L1051.88 1419.14C1150.27 1379.45 1368.32 1344.57 1377.54 1343.11L1387.89 1341.48L1398.34 1896.51L1267.58 2131.13L1267.58 2131.11ZM901.096 1928.54L1260.13 2107.06L1380.04 1891.91L1370.08 1362.78C1325.16 1370.28 1145.61 1401.51 1060.4 1435.35L941.558 1552.64L883.959 1760.93L901.101 1928.52L901.096 1928.54Z" fill="#231F20"/>
<path d="M1253.62 1710.57C1248.96 1514.35 1177.98 1222.82 1177.41 1014.94C1176.85 807.055 1225.39 659.359 1529.81 586.13C1860.32 506.619 2099.39 650.975 2259.05 1268.72C2418.7 1886.47 1821.03 1813.99 1821.03 1813.99L1413.99 1863.4L1253.64 1710.55L1253.62 1710.57Z" fill="#FFC718"/>
<path d="M1409.58 1876.66L1241.13 1716.09L1241 1710.86C1238.81 1618.75 1222.11 1506.96 1204.43 1388.62C1185.1 1259.18 1165.1 1125.35 1164.79 1014.97C1164.54 926.326 1171.98 824.672 1228.87 742.844C1284.31 663.129 1379 609.434 1526.83 573.877C1615.1 552.649 1692.28 548.084 1762.8 559.95C1838.99 572.767 1905.68 604.303 1966.66 656.386C2093.7 764.875 2193.31 964.155 2271.22 1265.59C2321.02 1458.26 2303.15 1605.16 2218.14 1702.23C2162.02 1766.31 2075.15 1808.1 1966.95 1823.11C1891.85 1833.52 1831.65 1827.86 1821.04 1826.72L1409.54 1876.67L1409.58 1876.66ZM1266.07 1705.02L1418.35 1850.17L1821.02 1801.29L1822.53 1801.48C1823.16 1801.56 1886.21 1808.92 1964.17 1798.02C2035.19 1788.1 2133.63 1760.52 2199.25 1685.51C2278.37 1595.08 2294.38 1455.93 2246.8 1271.9C2170.23 975.629 2073.24 780.572 1950.29 675.553C1839.58 581.018 1706.91 556.501 1532.74 598.388C1391.25 632.425 1301.27 682.897 1249.58 757.244C1196.67 833.314 1189.77 930.186 1190 1014.89C1190.3 1123.42 1210.15 1256.34 1229.36 1384.87C1246.83 1501.81 1263.34 1612.37 1266.06 1705.02L1266.07 1705.02Z" fill="#121112"/>
<path d="M1219.81 1383.19C1202.59 1386.51 1186.24 1389.64 1170.71 1392.6C1194.86 1385.36 1214.76 1383.97 1219.81 1383.19Z" fill="#00662F"/>
<path d="M3562.95 2279.01C3550.55 2317.76 3544.85 2314.3 3519.32 2351.46C3502.62 2375.8 3465.28 2403.73 3459.37 2406.06C3137.31 2533.19 1625.12 2401.85 993.868 2262.57C665.846 2190.18 514.538 2043.21 514.538 2043.21C514.538 2043.21 436.119 1968.29 391.701 1881.98C377.592 1854.53 366.9 1825.93 363.299 1798.22C353.493 1722.89 366.756 1663.68 385.384 1620.39C407.501 1568.95 451.505 1530.13 505.194 1514.27L686.407 1465.93C873.364 1441.41 843.335 1454.9 1170.71 1392.6C1121.5 1407.32 1054.68 1446.21 1059.96 1553.26C1065.64 1668.64 1121.67 1729.14 1242.17 1750.31C1295.81 1759.74 1362.23 1761.38 1442.66 1756.57C1936.65 1727.13 2337.9 1755.04 2314.72 1529.08C2295.23 1338.81 2308.38 1236.32 2435.7 1192.51C2459.59 1184.3 2487.5 1178.15 2519.98 1173.87L2631.78 1160.59C3019.01 1103.88 3187.33 1065.3 3301.55 1058.55C3324.69 1057.19 3347.33 1057.54 3369.39 1059.5C3391.7 1061.5 3413.42 1065.14 3434.52 1070.31C3466.19 1079.29 3497.54 1095.92 3526.42 1121.6C3614.45 1199.84 3679.39 1362.14 3659.67 1648.3C3639.68 1938.68 3626.88 2205.33 3562.95 2279.01Z" fill="#00662F"/>
<path d="M3526.42 1121.6L3371.13 1258.38L2408.81 1247.57L2435.7 1192.51C2452.47 1186.74 2471.25 1181.99 2492.19 1178.21C2501.07 1176.59 2510.31 1175.15 2519.97 1173.86L2631.78 1160.59C3019.01 1103.88 3187.32 1065.3 3301.55 1058.55C3311.47 1057.97 3321.29 1057.71 3331.03 1057.74C3344 1057.77 3356.79 1058.37 3369.38 1059.5C3391.7 1061.49 3413.41 1065.14 3434.52 1070.31C3466.19 1079.29 3497.54 1095.91 3526.42 1121.6Z" fill="#18A052"/>
<path d="M3331.03 1057.74L3269.69 1094.15L2459.1 1202.6L2460.31 1197.67L2492.19 1178.21C2501.07 1176.58 2510.31 1175.14 2519.98 1173.86L2631.78 1160.59C3019.01 1103.87 3187.32 1065.3 3301.55 1058.55C3311.47 1057.96 3321.3 1057.71 3331.03 1057.74Z" fill="white"/>
<path d="M1242.16 1750.31C1176.96 1755.63 1128.22 1757.48 1128.22 1757.48C1128.22 1757.48 884.514 1860.39 710.071 1869.99C629.335 1874.44 503.552 1878.68 391.691 1881.98C377.582 1854.53 366.89 1825.93 363.289 1798.22C353.484 1722.88 366.746 1663.68 385.375 1620.39C407.492 1568.94 451.495 1530.13 505.185 1514.26L686.398 1465.92C873.355 1441.4 843.326 1454.9 1170.71 1392.59C1121.49 1407.31 1054.67 1446.2 1059.95 1553.26C1065.63 1668.64 1121.66 1729.13 1242.16 1750.31Z" fill="#1E4A31"/>
<path d="M957.58 2263.45C804.822 2225.93 694.162 2172.83 626.622 2133.61C547.737 2087.78 509.772 2051.26 508.197 2049.74C502.591 2044.39 369.484 1916.06 354.265 1799.4C345.66 1733.3 353.312 1671.86 377.022 1616.8C400.225 1562.82 446.008 1522.27 502.617 1505.55L502.857 1505.47L684.647 1456.98L685.241 1456.9C737.551 1450.05 772.75 1446.17 803.808 1442.76C883.373 1434.02 933.404 1428.51 1168.73 1383.73C1189.36 1377.62 1206.85 1375.58 1214.91 1374.64C1216.27 1374.49 1217.79 1374.31 1218.43 1374.21C1218.59 1374.17 1218.72 1374.15 1218.88 1374.13L1222.66 1391.95C1222.37 1392.02 1222.06 1392.08 1221.69 1392.13C1204.94 1395.37 1189.02 1398.41 1173.84 1401.29C1116.6 1418.08 1064.44 1458.92 1069.07 1552.83C1072.12 1614.82 1090.29 1659.89 1124.6 1690.68C1179.37 1739.8 1277.3 1757.33 1442.16 1747.49C1523.51 1742.65 1601.6 1739.39 1677.1 1736.23C1970.07 1723.98 2201.47 1714.31 2278.91 1624.84C2300.87 1599.48 2309.62 1568.46 2305.69 1530.04C2282.13 1300.05 2307.3 1192.74 2518.82 1164.86L2630.63 1151.59C2805.14 1126.02 2933.03 1104.5 3035.83 1087.21C3157.5 1066.75 3237.89 1053.21 3301.07 1049.48C3324.35 1048.11 3347.63 1048.43 3370.25 1050.44C3392.64 1052.43 3415.01 1056.15 3436.74 1061.47L3437.08 1061.55C3488.96 1076.28 3561.66 1116.86 3613.31 1226.59C3662.29 1330.6 3680.96 1472.71 3668.82 1648.94C3667.21 1672.25 3665.66 1695.39 3664.11 1718.32C3646.3 1982.98 3630.91 2211.8 3571.12 2283.54C3562.44 2310.2 3556.4 2317.85 3545.62 2331.47C3540.8 2337.57 3534.78 2345.15 3526.89 2356.64C3509.27 2382.31 3470.59 2411.47 3462.76 2414.56C3385.54 2445.05 3239.02 2462.36 3027.25 2466C2840.1 2469.21 2603.16 2461.38 2341.98 2443.34C1836.79 2408.43 1306.86 2340.99 991.946 2271.5C980.277 2268.93 968.822 2266.25 957.607 2263.5L957.58 2263.45ZM507.653 1523.03C456.295 1538.25 414.795 1575.03 393.752 1623.99C371.362 1676.02 364.147 1734.24 372.337 1797.05C386.73 1907.4 519.49 2035.33 520.841 2036.63C521.258 2037.05 559.271 2073.53 636.491 2118.28C707.767 2159.59 827.965 2216.61 995.84 2253.69C1309.96 2323 1838.83 2390.29 2343.21 2425.15C2907.34 2464.13 3312.95 2454.08 3456.04 2397.6C3461.78 2394.95 3496.45 2368.74 3511.84 2346.32C3520.07 2334.34 3526.29 2326.48 3531.29 2320.16C3541.6 2307.12 3546.33 2301.18 3554.29 2276.24L3554.86 2274.45L3556.08 2273.04C3612.87 2207.59 3628.91 1969.34 3645.88 1717.08C3647.43 1694.16 3648.98 1671 3650.6 1647.67C3662.53 1474.56 3644.42 1335.51 3596.79 1234.33C3548.11 1130.93 3480.46 1092.85 3432.22 1079.11C3411.43 1074.02 3390.02 1070.49 3368.6 1068.57C3346.87 1066.63 3324.5 1066.32 3302.12 1067.64C3239.9 1071.31 3159.91 1084.76 3038.82 1105.15C2935.93 1122.45 2807.88 1144 2633.13 1169.6L2632.88 1169.63L2521.07 1182.89C2423.11 1195.8 2367.16 1226.05 2339.76 1280.95C2311.33 1337.95 2312.8 1420.99 2323.79 1528.14C2328.22 1571.23 2317.74 1607.76 2292.67 1636.74C2210.09 1732.16 1975.2 1741.98 1677.85 1754.4C1602.4 1757.56 1524.41 1760.81 1443.22 1765.66C1273.14 1775.79 1171.12 1756.85 1112.42 1704.21C1074.31 1670.03 1054.18 1620.8 1050.86 1553.7C1047.83 1492.13 1067.06 1445.09 1108.06 1413.66C925.984 1447.62 877.976 1452.89 805.788 1460.84C774.939 1464.22 739.99 1468.07 688.177 1474.86L507.658 1523.02L507.653 1523.03Z" fill="#231F20"/>
<path d="M590.973 2105.26C523.703 2069.17 476.928 1984.46 462.66 1872.83C444.668 1732.11 481.74 1587.91 552.807 1522.14L557.705 1527.43C488.244 1591.71 452.114 1733.37 469.822 1871.92C483.796 1981.19 529.201 2063.93 594.39 2098.91L590.978 2105.25L590.973 2105.26Z" fill="#231F20"/>
<path d="M3572.81 2155.23C3538.75 2194.48 3461.22 2217.9 3412.53 2225.13C3272.47 2245.89 3227.76 2135.55 3183 2017.7C3153.13 1939.07 3133.53 1802.04 3116.67 1520.38C3099.79 1238.72 3227.15 1078.62 3369.75 1086.81C3369.95 1086.82 3370.13 1086.83 3370.33 1086.84C3391.76 1088.1 3413.7 1091.46 3435.46 1097.64C3563.71 1134.04 3664.03 1257.03 3676.21 1637.73C3685.85 1938.8 3636.75 2081.55 3572.81 2155.23Z" fill="#0F9640"/>
<path d="M3338.17 2231.68C3306.21 2223.83 3278.8 2206.41 3255.3 2179.19C3221.44 2139.95 3199.65 2086.57 3174.7 2020.85C3143.53 1938.79 3124.15 1793.94 3107.81 1520.91C3102.72 1436.05 3110.29 1359.08 3130.26 1292.14C3148.68 1230.45 3177.9 1178.3 3214.8 1141.32C3259.42 1096.59 3313.17 1074.67 3370.24 1077.95L3370.86 1077.99C3394.14 1079.35 3416.69 1083.1 3437.89 1089.11C3512.41 1110.25 3567.81 1157.83 3607.26 1234.53C3653.85 1325.11 3679.3 1456.9 3685.08 1637.46C3693.43 1898.3 3658.9 2069.59 3579.51 2161.06C3541.57 2204.8 3457.52 2227.44 3413.83 2233.92C3386.16 2238.03 3361 2237.31 3338.17 2231.7L3338.17 2231.68ZM3423.63 1103.7C3406.45 1099.48 3388.4 1096.78 3369.81 1095.71L3369.21 1095.67C3317.36 1092.69 3268.32 1112.82 3227.38 1153.85C3153.17 1228.23 3116.04 1361.65 3125.53 1519.85C3141.75 1790.96 3160.81 1934.27 3191.3 2014.54C3211.41 2067.53 3234.23 2127.6 3268.74 2167.58C3305.23 2209.84 3350.49 2225.34 3411.23 2216.33C3464.75 2208.4 3536.03 2184.06 3566.1 2149.4C3642.41 2061.46 3675.54 1894.19 3667.34 1638.01C3661.64 1460.15 3636.83 1330.82 3591.46 1242.63C3553.87 1169.54 3503.52 1126.19 3433.04 1106.19C3429.93 1105.32 3426.8 1104.47 3423.63 1103.7Z" fill="#231F20"/>
<path d="M3718.61 2159.67C3654.55 2303.69 3555.67 2396.96 3441.51 2401.48C3231.59 2409.8 3049.48 2114.84 3034.73 1742.71C3025.8 1517.06 3080.44 1314.86 3171.65 1188.75C3230.87 1106.89 3305.51 1057.1 3388.14 1053.82C3598.07 1045.52 3780.19 1340.46 3794.92 1712.6C3801.64 1882.37 3772.38 2038.88 3718.61 2159.67Z" fill="#00662F"/>
<path d="M3718.61 2159.66C3750.59 2033.39 3765.5 1880.5 3743.99 1700.31C3671.29 1091.47 3356.83 1022.47 3171.66 1188.75C3230.87 1106.88 3305.51 1057.09 3388.15 1053.81C3598.08 1045.51 3780.2 1340.45 3794.92 1712.59C3801.64 1882.36 3772.38 2038.87 3718.61 2159.66Z" fill="#18A052"/>
<path d="M3377.21 2403.97C3295.94 2384.01 3219.52 2320.46 3157.2 2219.55C3079.56 2093.81 3032.84 1924.59 3025.65 1743.06C3018.46 1561.53 3051.66 1389.15 3119.11 1257.66C3187.42 1124.49 3282.86 1048.86 3387.8 1044.72C3492.75 1040.55 3593.87 1108.41 3672.49 1235.75C3750.13 1361.49 3796.85 1530.71 3804.04 1712.24C3811.23 1893.78 3778.04 2066.15 3710.58 2197.64C3642.27 2330.81 3546.84 2406.44 3441.89 2410.58C3420.1 2411.45 3398.49 2409.2 3377.21 2403.97ZM3447.95 1069.01C3428.48 1064.22 3408.64 1062.13 3388.52 1062.93C3290.43 1066.81 3200.5 1138.92 3135.32 1265.98C3069.27 1394.72 3036.79 1563.89 3043.86 1742.33C3050.94 1920.78 3096.69 2086.85 3172.71 2209.97C3247.74 2331.47 3343.08 2396.26 3441.19 2392.36C3645.76 2384.27 3800.38 2079.48 3785.86 1712.93C3772.77 1382.45 3626.56 1112.86 3447.98 1068.99L3447.95 1069.01Z" fill="#231F20"/>
<path d="M3503.85 2191.25C3614.89 2186.85 3696.62 1974.42 3686.41 1716.78C3676.2 1459.13 3577.91 1253.84 3466.87 1258.24C3355.84 1262.64 3274.11 1475.07 3284.32 1732.71C3294.53 1990.36 3392.82 2195.65 3503.85 2191.25Z" fill="#231F20"/>
<g opacity="0.5">
<path d="M3653.42 2268.34C3785.84 2263.09 3883.51 2014.72 3871.57 1713.59C3859.64 1412.46 3742.61 1172.6 3610.19 1177.85C3477.77 1183.09 3380.1 1431.46 3392.04 1732.59C3403.97 2033.72 3521 2273.58 3653.42 2268.34Z" fill="white"/>
<path d="M3620.48 2274.16C3564.7 2260.46 3511.98 2206.9 3469.34 2119.48C3419.43 2017.17 3388.74 1879.95 3382.93 1733.06C3377.12 1586.19 3396.85 1446.96 3438.53 1341.03C3481.13 1232.69 3541.99 1171.54 3609.86 1168.84C3677.74 1166.15 3743.23 1222.31 3794.28 1326.94C3844.19 1429.25 3874.88 1566.46 3880.69 1713.35C3886.51 1860.22 3866.78 1999.45 3825.1 2105.38C3782.5 2213.72 3721.64 2274.87 3653.76 2277.57C3642.59 2278.02 3631.49 2276.87 3620.5 2274.17L3620.48 2274.16ZM3638.7 1189.95C3629.34 1187.65 3619.97 1186.69 3610.56 1187.07C3580.63 1188.25 3551.89 1202.97 3525.15 1230.81C3498.51 1258.53 3475.06 1297.87 3455.47 1347.72C3414.71 1451.35 3395.43 1587.94 3401.14 1732.36C3406.85 1876.76 3436.89 2011.42 3485.72 2111.5C3509.2 2159.62 3535.68 2196.97 3564.42 2222.51C3593.29 2248.15 3623.1 2260.56 3653.04 2259.38C3682.97 2258.2 3711.71 2243.48 3738.45 2215.63C3765.09 2187.91 3788.54 2148.57 3808.13 2098.73C3848.89 1995.09 3868.17 1858.5 3862.46 1714.09C3856.75 1569.69 3826.71 1435.03 3777.88 1334.95C3754.4 1286.83 3727.92 1249.47 3699.18 1223.94C3679.39 1206.35 3659.13 1194.99 3638.7 1189.97L3638.7 1189.95Z" fill="#231F20"/>
</g>
<path d="M3703.35 1323.55C3674.58 1296.63 3636.78 1285.57 3604.42 1313.39C3544.22 1365.44 3525.38 1508.91 3516.4 1586.09C3515.96 1589.26 3515.28 1595.64 3515.05 1598.85C3514.15 1608.78 3512.36 1630.32 3511.47 1640.4C3510.73 1655.73 3509.53 1673.13 3508.92 1688.45C3508.77 1696.69 3508.28 1718.93 3508.13 1726.96C3508.22 1739.04 3508.25 1759.75 3508.57 1771.89C3509.22 1786.09 3509.57 1802.63 3510.72 1816.77C3511.93 1836.75 3513.96 1860.83 3516.49 1880.75C3519.62 1908.03 3524.16 1936.36 3529.77 1963.24C3531.98 1973.36 3534.43 1984.57 3537.32 1994.52C3537.51 1995.18 3537.12 1995.86 3536.46 1996.05C3535.82 1996.23 3535.15 1995.88 3534.95 1995.25C3523.67 1962.52 3516.25 1928.72 3510.26 1894.69C3490.04 1777.47 3491.4 1657.14 3507.12 1539.43C3511.09 1511.67 3515.96 1483.65 3522.38 1456.32C3535.22 1404.89 3555.12 1339.43 3597.77 1305.11C3615.79 1290.52 3640.08 1284.45 3662.47 1291.5C3671.16 1294.12 3679.22 1298.22 3686.53 1303.22C3693.84 1308.25 3700.41 1314.14 3706.37 1320.52C3707.18 1321.39 3707.13 1322.73 3706.27 1323.52C3705.45 1324.29 3704.17 1324.29 3703.36 1323.51L3703.35 1323.55Z" fill="#787878"/>
<path d="M3588.27 1883.92C3594.89 1945.34 3614.25 2020.29 3648.84 2071.85C3661.09 2089.63 3680.98 2111.54 3704.67 2104.37C3753.26 2087.98 3786.29 1968.83 3800.85 1921.85C3801.11 1920.95 3802.07 1920.44 3802.95 1920.72C3803.78 1920.96 3804.28 1921.8 3804.12 1922.66C3796.73 1960.97 3786.95 1999.12 3772.5 2035.46C3760.67 2064.46 3740.29 2106.39 3708.64 2116.89C3690.79 2122.87 3672.87 2115.91 3659.39 2104.03C3619.34 2067.77 3598.94 1998.35 3589.28 1946.58C3585.68 1925.97 3583.34 1905.12 3583.06 1884.22C3583.14 1881.03 3587.78 1880.5 3588.27 1883.92Z" fill="#787878"/>
<path d="M3767.52 1452.9C3824.78 1543.2 3843.27 1653.87 3834.35 1759.32C3833.17 1769.79 3831.83 1781.59 3830.28 1791.97C3830.18 1792.69 3829.52 1793.17 3828.81 1793.06C3828.16 1792.95 3827.7 1792.41 3827.69 1791.78C3827.29 1781.31 3827.17 1769.58 3827.16 1759.05C3825.36 1669.08 3816.27 1577.99 3783.5 1493.51C3779.85 1483.59 3775.37 1473.01 3771.23 1463.26C3769.79 1459.93 3768.3 1456.6 3766.87 1453.24C3766.78 1453.06 3766.87 1452.85 3767.06 1452.77C3767.22 1452.7 3767.41 1452.76 3767.51 1452.9L3767.52 1452.9Z" fill="#787878"/>
<path d="M3652.23 1432.48C3635.28 1449.11 3625.8 1471.57 3617.83 1493.58C3597.56 1552.7 3593.04 1615.83 3590.91 1677.96C3590.85 1682.95 3590.52 1690.96 3590.46 1695.97C3590.38 1698.98 3590.31 1702 3590.16 1705.01C3590.15 1705.65 3589.6 1706.17 3588.94 1706.14C3588.39 1706.11 3587.95 1705.71 3587.86 1705.18C3583.37 1681.37 3581.45 1657.1 3581.43 1632.81C3581.83 1576.35 3592.16 1514.62 3620.65 1465.18C3625.41 1457.28 3630.7 1449.66 3636.97 1442.85C3641.13 1438.31 3645.71 1434.09 3650.87 1430.74C3651.38 1430.4 3652.07 1430.55 3652.39 1431.05C3652.69 1431.5 3652.6 1432.11 3652.21 1432.46L3652.23 1432.48Z" fill="#787878"/>
<path d="M3616.75 2163.05C3639.23 2186.11 3669.74 2207.37 3701.47 2188.78C3711.24 2183.28 3719.63 2175.5 3727.64 2167.49C3728.18 2166.9 3729.26 2167.61 3728.82 2168.36C3723.36 2178.74 3716.02 2188.44 3706.21 2195.99C3690.64 2208.03 3670.12 2210.67 3651.94 2203.01C3634.84 2195.98 3621.01 2182.52 3611.88 2166.72C3610.19 2163.63 3614.27 2160.57 3616.75 2163.07L3616.75 2163.05Z" fill="#787878"/>
<path d="M3730.53 1870.06C3767.83 1868.59 3795.35 1798.62 3791.99 1713.79C3788.63 1628.97 3755.66 1561.4 3718.36 1562.88C3681.05 1564.36 3653.54 1634.32 3656.9 1719.15C3660.26 1803.97 3693.23 1871.54 3730.53 1870.06Z" fill="#00662F"/>
<path d="M3719.68 1878.15C3702.03 1873.81 3685.68 1857.53 3672.77 1831.08C3658.32 1801.47 3649.45 1761.89 3647.78 1719.62C3646.1 1677.36 3651.82 1637.21 3663.88 1606.54C3676.89 1573.45 3696.1 1554.75 3717.98 1553.89C3739.86 1553.04 3760.48 1570.14 3776.06 1602.09C3790.51 1631.71 3799.38 1671.28 3801.06 1713.55C3802.74 1755.81 3797.01 1795.96 3784.95 1826.63C3771.94 1859.73 3752.73 1878.42 3730.85 1879.28C3727.09 1879.43 3723.34 1879.05 3719.67 1878.15L3719.68 1878.15ZM3724.74 1572.75C3722.71 1572.25 3720.7 1572.04 3718.7 1572.12C3704.7 1572.67 3690.89 1587.66 3680.85 1613.23C3669.69 1641.6 3664.42 1679.13 3666 1718.92C3667.58 1758.72 3675.8 1795.72 3689.16 1823.11C3701.2 1847.81 3716.15 1861.64 3730.16 1861.1C3744.17 1860.55 3757.97 1845.55 3768.01 1819.99C3779.17 1791.62 3784.44 1754.08 3782.86 1714.29C3781.28 1674.5 3773.06 1637.49 3759.7 1610.11C3749.37 1588.95 3736.92 1575.74 3724.76 1572.76L3724.74 1572.75Z" fill="#231F20"/>
<path d="M2408.82 1247.58C2386.3 1281.49 2371.27 1330.04 2374.43 1399.44C2382.11 1568.07 2379.7 1604.86 2325.57 1666.38C2271.43 1727.9 2052.56 1749.05 1729.62 1763.13C1406.66 1777.23 1282.63 1794.29 1160.08 1774.03C1157.71 1773.63 1155.37 1773.2 1153.05 1772.74C1036.21 1749.48 1003.26 1641.26 1001.62 1517.12C999.937 1390.52 1083.67 1341.37 1210.32 1328.01L1224.04 1443.38C1160.05 1448.16 1132.26 1465.62 1132.92 1529.71C1133.55 1593.01 1127.53 1683.5 1231.85 1691.66C1231.87 1691.67 1231.88 1691.67 1231.9 1691.66C1233.14 1691.77 1234.4 1691.86 1235.66 1691.93C1343.93 1698.17 1471.36 1693.15 1741.5 1674.28C2011.63 1655.4 2230.06 1640.23 2246.83 1565.28C2263.61 1490.35 2245 1425.92 2259.03 1268.74C2261.51 1240.89 2267.94 1217.72 2277.35 1198.38C2320.98 1108.59 2428.59 1101.5 2502.09 1093.23C2591.41 1083.19 2615.09 1163.21 2615.09 1163.21C2615.09 1163.21 2573.59 1162.46 2519.98 1173.87C2488.42 1180.59 2440.96 1199.11 2408.82 1247.58Z" fill="#406952"/>
<path d="M2615.09 1163.2C2615.09 1163.2 2604.23 1163 2586.43 1164.35C2569.46 1165.61 2546.15 1168.27 2519.98 1173.86C2488.42 1180.58 2440.96 1199.11 2408.82 1247.57C2408.82 1247.57 2355.26 1191.88 2277.35 1198.38C2291.47 1169.29 2312.32 1148.89 2336.55 1134.3C2387.12 1103.87 2452.41 1098.81 2502.09 1093.22C2591.41 1083.18 2615.09 1163.2 2615.09 1163.2Z" fill="#519D72"/>
<path d="M2615.09 1163.21C2615.09 1163.21 2604.23 1163.01 2586.42 1164.35C2569.34 1114.64 2462.33 1094.96 2331.65 1139.89L2336.55 1134.3C2387.12 1103.87 2452.4 1098.81 2502.08 1093.22C2591.41 1083.18 2615.09 1163.21 2615.09 1163.21Z" fill="white"/>
<path d="M1153.61 1772.43L1153.05 1772.74C1036.21 1749.48 1003.26 1641.26 1001.62 1517.12C999.939 1390.52 1083.68 1341.37 1210.33 1328.01L1224.05 1443.38C1160.06 1448.16 1132.26 1465.62 1132.92 1529.71C1133.55 1593.01 1127.54 1683.49 1231.85 1691.66C1186.95 1697.51 1147.38 1725.58 1153.61 1772.43Z" fill="#1E4A31"/>
<path d="M1142.08 1779.62C1090.71 1767.01 1052.21 1736.81 1027.45 1689.67C1004.9 1646.73 993.47 1590.33 992.505 1517.22C991.678 1454.42 1011.72 1405.9 1052.1 1373.02C1087.67 1344.04 1139.12 1326.35 1209.36 1318.94L1218.29 1318L1234.21 1451.74L1224.73 1452.45C1160.02 1457.28 1141.46 1474.59 1142.03 1529.61C1142.07 1533.29 1142.08 1537.04 1142.1 1540.89C1142.33 1598.27 1142.59 1662.52 1210.04 1679.09C1217.82 1681 1226.51 1682.28 1236.18 1682.84C1340.67 1688.88 1463.29 1684.58 1740.87 1665.2L1741.69 1665.14C1873.53 1655.93 1998.05 1647.23 2087.91 1631.79C2182.18 1615.59 2231.26 1593.18 2237.93 1563.3C2246.23 1526.19 2245.64 1492.36 2244.8 1445.51C2244.02 1400.98 2243.03 1345.57 2249.95 1267.94C2264.04 1110.04 2399.65 1095.24 2489.39 1085.47C2493.36 1085.04 2497.24 1084.62 2501.06 1084.18C2551.03 1078.55 2581.81 1099.64 2598.81 1118.32C2617.09 1138.38 2623.56 1159.72 2623.82 1160.62L2627.34 1172.54L2614.92 1172.31C2614.51 1172.3 2573.7 1171.74 2521.85 1182.77C2477.73 1192.17 2375.9 1232.05 2383.51 1399.01C2391.3 1570.16 2387.98 1609.19 2332.39 1672.39C2304.98 1703.53 2240.57 1725.51 2129.68 1741.56C2039.1 1754.65 1915.84 1764.13 1729.98 1772.22C1641.81 1776.07 1569.6 1780.08 1505.9 1783.61C1340 1792.82 1248.63 1797.89 1158.56 1783C1152.93 1782.07 1147.41 1780.95 1142.04 1779.63L1142.08 1779.62ZM1202.34 1338.07C1140.31 1345.6 1094.86 1361.67 1063.6 1387.14C1027.26 1416.75 1009.96 1459.23 1010.72 1516.98C1011.65 1587.15 1022.41 1640.87 1043.59 1681.21C1066.04 1723.95 1099.65 1750.47 1146.04 1761.86C1151.08 1763.1 1156.24 1764.14 1161.57 1765.02C1249.63 1779.59 1340.31 1774.55 1504.91 1765.43C1568.67 1761.89 1640.92 1757.88 1729.22 1754.04C2045.76 1740.22 2267.14 1719.02 2318.74 1660.38C2370.21 1601.88 2372.97 1567.38 2365.34 1399.88C2357.11 1218.98 2469.41 1175.34 2518.09 1164.98C2554.35 1157.27 2584.94 1155 2601.66 1154.36C2591.74 1134.21 2564.42 1095.42 2503.12 1102.31C2499.3 1102.75 2495.38 1103.17 2491.39 1103.61C2402.55 1113.28 2280.87 1126.57 2268.11 1269.58C2261.27 1346.23 2262.24 1401.12 2263.04 1445.21C2263.86 1491.51 2264.52 1528.07 2255.75 1567.29C2247.03 1606.24 2196.22 1631.68 2091.01 1649.74C2000.24 1665.35 1875.27 1674.08 1742.97 1683.32L1742.16 1683.38C1463.71 1702.83 1340.51 1707.13 1235.14 1701.04C1186.76 1698.25 1154.02 1678.24 1137.81 1641.57C1124.17 1610.69 1124.01 1573.66 1123.9 1540.98C1123.88 1537.19 1123.87 1533.46 1123.84 1529.82C1123.13 1459.96 1156.15 1440.95 1213.91 1435.14L1202.37 1338.1L1202.34 1338.07Z" fill="#231F20"/>
<path d="M550.293 1532.61L956.697 1468.14C980.652 1464.34 993.578 1437.93 981.898 1416.68L834.422 1148.59C798.475 1083.24 723.072 1050.19 650.65 1068.07L554.595 1091.77C534.947 1096.61 521.757 1115.04 523.466 1135.2L556.868 1525.86" fill="#1E4A31"/>
<path d="M551.714 1541.61L549.323 1526.5L547.79 1526.62L514.388 1135.96C512.276 1111.17 528.255 1088.87 552.408 1082.91L648.463 1059.21C724.77 1040.39 804.51 1075.34 842.399 1144.19L989.875 1412.28C996.787 1424.85 997.152 1440.05 990.847 1452.96C984.525 1465.86 972.305 1474.89 958.118 1477.14L551.714 1541.61ZM727.07 1076.87C703.223 1071.01 677.821 1070.73 652.818 1076.9L556.763 1100.6C541.38 1104.39 531.187 1118.62 532.541 1134.41L565.581 1520.96L955.265 1459.15C963.719 1457.81 970.724 1452.63 974.485 1444.95C978.246 1437.27 978.044 1428.57 973.915 1421.06L826.438 1152.98C804.945 1113.9 768.361 1087.01 727.07 1076.87Z" fill="#231F20"/>
<path d="M504.699 1821.99L148.428 1956.52C114.402 1969.37 125.05 2020.05 161.371 2018.1L490.158 2000.6C539.991 1997.94 589.483 1990.86 638.056 1979.43L1034.88 1886.14C1059.12 1880.44 1076.09 1858.6 1075.64 1833.7C1075.08 1803.27 1049.01 1779.6 1018.67 1781.96L504.699 1821.99Z" fill="#00662F"/>
<path d="M149.422 2026.08C134.533 2022.42 122.971 2010.73 119.624 1994.75C115.372 1974.52 125.898 1955.31 145.238 1948.02L502.718 1813.02L504.006 1812.91L1017.98 1772.88C1035.19 1771.54 1051.71 1777.2 1064.48 1788.79C1077.25 1800.39 1084.45 1816.3 1084.78 1833.54C1085.31 1862.51 1065.21 1888.37 1037 1895L640.173 1988.3C591.206 1999.81 540.907 2007.01 490.681 2009.68L161.893 2027.19C157.568 2027.43 153.385 2027.01 149.448 2026.05L149.422 2026.08ZM506.711 1830.98L151.666 1965.06C138.211 1970.14 135.6 1982.2 137.445 1991C139.29 1999.8 146.554 2009.81 160.901 2009.03L489.688 1991.52C538.844 1988.9 588.065 1981.86 635.988 1970.59L1032.81 1877.3C1052.74 1872.62 1066.92 1854.36 1066.55 1833.9C1066.33 1821.71 1061.24 1810.5 1052.21 1802.31C1043.19 1794.12 1031.54 1790.13 1019.39 1791.08L506.707 1831L506.711 1830.98Z" fill="#231F20"/>
<path d="M2384.87 1930.63L792.39 2455.94C639.832 2506.27 478.093 2522.46 318.594 2503.39L274.151 2498.08L219.867 2491.59L219.797 2491.57L87.1888 2475.72C39.9739 2470.06 30.4452 2405.68 74.0145 2386.61L1219.34 1854.96L2127.6 1780.76L2350.78 1762.53C2360.31 1761.75 2369.61 1762.55 2378.43 1764.72C2413.26 1773.27 2440.41 1803.13 2443.81 1840.81C2447.43 1880.83 2423.01 1918.03 2384.87 1930.63Z" fill="#00662F"/>
<path d="M2384.87 1930.63L792.389 2455.94C639.831 2506.27 478.092 2522.46 318.593 2503.39L274.15 2498.08C580.375 2520.31 951.219 2314.82 1355.98 2149.47C1784.99 1974.23 2109.67 1791.37 2109.67 1791.37L2127.6 1780.76L2350.78 1762.53C2360.31 1761.75 2369.61 1762.55 2378.43 1764.71C2413.26 1773.27 2440.41 1803.13 2443.81 1840.81C2447.43 1880.82 2423.01 1918.03 2384.87 1930.63Z" fill="#18A052"/>
<path d="M78.8547 2483.43C56.8622 2478.02 40.964 2460.65 37.5391 2437.51C33.7501 2411.92 46.5972 2388.7 70.268 2378.28L1216.99 1845.99L1218.62 1845.86L2350.06 1753.44C2402.07 1749.19 2448.21 1788.01 2452.92 1839.98C2456.95 1884.44 2430.15 1925.28 2387.74 1939.25L795.254 2464.58C642.456 2514.99 477.254 2531.53 317.523 2512.42L86.118 2484.75C83.6305 2484.45 81.2167 2484.01 78.8722 2483.43L78.8547 2483.43ZM1221.71 1863.89L77.6775 2394.94C58.2635 2403.44 53.6547 2421.75 55.5745 2434.85C57.5161 2447.94 67.244 2464.16 88.2807 2466.65L319.686 2494.33C476.802 2513.12 639.266 2496.86 789.542 2447.28L2382.03 1921.95C2416.32 1910.64 2438.02 1877.6 2434.76 1841.63C2430.95 1799.58 2393.61 1768.16 2351.54 1771.6L1221.73 1863.89L1221.71 1863.89Z" fill="#231F20"/>
<path d="M3186.25 2444.56C3084.13 2419.47 3005.6 2361.24 2946.35 2266.79C2913.05 2213.7 2885.74 2148.07 2865.15 2071.7C2843.53 1991.47 2828.56 1896.6 2820.66 1789.69C2805.32 1581.84 2823.74 1425.13 2876.93 1310.61C2922.05 1213.5 2991.94 1142.92 3103.54 1081.75L3108.75 1091.23C2919.09 1195.17 2799.35 1353.58 2831.47 1788.9C2846.9 1998.05 2887.47 2152.5 2955.54 2261.03C3015.14 2356.07 3094.75 2413.44 3198.98 2436.4L3196.64 2446.96C3193.16 2446.2 3189.7 2445.39 3186.27 2444.54L3186.25 2444.56Z" fill="#231F20"/>
<path d="M335.842 2508.46L332.979 2501.84L1378.04 2050.85C1416.74 2034.14 1457.75 2025.42 1499.91 2024.92L2109.75 2017.75L2109.84 2024.95L1499.99 2032.12C1458.8 2032.62 1418.73 2041.14 1380.9 2057.45L335.847 2508.44L335.842 2508.46Z" fill="#231F20"/>
<path d="M2172 899.091C2172 899.091 2159.55 884.679 2132.45 869.803C2131.01 869.005 2129.52 868.211 2127.99 867.427C2110.47 858.318 2087.41 849.316 2058.32 843.598C2024.21 836.891 1981.82 834.715 1930.3 842.189C1667.73 880.285 1569.23 984.412 1564.36 1111.05C1559.46 1237.69 1519.14 1459.79 1396.79 1523.6C1274.43 1587.41 921.963 1594.52 846.145 1596.25C770.326 1597.98 788.273 1549.38 798.923 1512.67C809.591 1475.96 865.923 1500.17 917.302 1511.16C954 1519 1068.59 1537.82 1137.83 1530.84C1162.51 1528.34 1182.29 1509.27 1185.6 1484.71C1187.76 1468.74 1192.08 1449.27 1200.44 1428.28C1221.82 1374.54 1177.2 1316.05 1157.65 1255.52C1138.11 1194.99 1075.63 1003.79 1148.87 835.856C1196.15 727.439 1260.81 622.089 1425.2 555.553C1461.37 540.915 1502.39 528.152 1549.1 517.643C1606.8 504.673 1673.21 495.145 1749.98 489.773C1834.9 483.843 1919.8 505.569 1990.13 553.528C2119.11 641.477 2156.66 783.548 2167.56 855.016C2171.7 882.134 2172 899.091 2172 899.091Z" fill="#AF6734"/>
<path d="M2172 899.092C2172 899.092 2137.51 859.156 2058.31 843.598C2037.44 687.183 1981.28 471.194 1419.9 566.071L1425.19 555.554C1506.05 522.82 1611.05 499.487 1749.98 489.773C1834.9 483.844 1919.79 505.569 1990.12 553.529C2168.01 674.843 2172 899.092 2172 899.092Z" fill="#C8804E"/>
<path d="M2167.57 855.015L2132.45 869.802L2128.6 871.417C2128.6 871.417 2128.41 870.015 2127.99 867.426C2123.88 841.723 2098.38 698.567 2032.35 637.918C1959.66 571.161 1911.49 491.746 1541.86 530.239L1549.11 517.642C1606.8 504.672 1673.22 495.144 1749.99 489.772C1834.91 483.842 1919.8 505.568 1990.13 553.527C2119.12 641.476 2156.66 783.547 2167.57 855.015Z" fill="white"/>
<path d="M1931.16 848.04C1785.12 868.454 1586.03 925.851 1572.35 1100.12C1567.74 1227.24 1538.53 1403.65 1446.08 1497.11C1414.07 1529.97 1372.03 1545.41 1328.79 1556.74C1223.55 1583.15 1115.43 1591.38 1007.65 1598.85C970.688 1601.13 915.25 1605.08 878.486 1606.57C850.221 1606.99 816.135 1613.74 791.954 1594.51C770.148 1576.12 776.647 1544.67 783.904 1521.17L786.267 1513.36C787.311 1510.24 787.899 1507.48 789.254 1504.45C792.222 1497.35 798.102 1490.63 805.035 1487.03C822.874 1478.07 843.177 1482.73 860.265 1486.72C881.41 1492.02 901.501 1499.35 922.382 1504.52C984.675 1519.26 1048.96 1528.24 1112.98 1527.03C1133.95 1526.1 1153.12 1526.39 1167.76 1508.99C1173.91 1501.7 1177.72 1492.75 1178.61 1483.32C1179.82 1472.3 1181.78 1461.36 1184.45 1450.55C1186.72 1441.24 1189.72 1431.99 1192.96 1422.96C1199.28 1403.47 1196.63 1382.15 1188.06 1362.22C1184.14 1352.8 1179.32 1343.6 1174.67 1334.18C1165.22 1314.8 1156.24 1295.04 1148.22 1274.65C1137.02 1243.81 1127.62 1212.06 1119.63 1180.19C1091.42 1065.4 1086.08 940.018 1134.08 829.497C1139.56 817.095 1145.21 804.44 1151.25 792.25C1224.04 638.656 1341.68 556.967 1503.13 513.345C1576.98 493.286 1652.5 482.654 1728.52 476.485C1841.45 464.375 1953.43 496.686 2038.25 573.342C2127.43 653.537 2175.29 772.131 2184.23 890.183C2184.4 893.027 2184.55 895.678 2184.6 898.846L2162.45 907.318C2162.45 907.318 2162.26 907.048 2162.15 906.891L2161.65 906.286C2148.77 891.714 2132.36 880.875 2115.14 871.857C2058.92 843.245 1992.95 839.453 1931.16 848.04ZM1929.46 836.324C2012.71 823.917 2105.93 830.769 2174.48 884.468C2176.81 886.56 2179.38 888.472 2181.56 890.862L2159.4 899.334C2159.33 897.128 2159.17 894.398 2158.99 891.886C2150.3 790.984 2111.88 690.03 2041.84 615.948C1970.83 540.031 1866.08 499.034 1762.49 503.939C1720.33 506.346 1677.58 510.909 1635.72 517.046C1512.22 535.763 1384.6 571.219 1289.49 655.716C1232.32 706.049 1193.27 772.907 1163.56 842.414C1160.87 848.783 1157.3 857.423 1154.99 863.944C1108.9 993.43 1133.14 1136.67 1176.76 1263.89C1184.04 1283.74 1193.88 1302.74 1201.29 1322.93C1205.05 1333.3 1208.14 1344.13 1210.64 1355.26C1215.99 1379.19 1219.24 1405.52 1209.63 1429.11C1201.81 1447.1 1195.9 1465.94 1192.73 1485.34C1189.34 1509.28 1170.15 1530.07 1146.51 1535.1C1135.53 1537.28 1124.3 1537.2 1113.18 1537.47C1102.29 1537.54 1091.43 1537.36 1080.61 1536.83C1026.55 1533.98 972.88 1527.33 919.345 1519.3C908.497 1517.54 897.791 1515.29 887.247 1513.05C868.29 1509.56 832.18 1499.02 816.27 1507.45C813.821 1508.96 812.377 1510.76 811.149 1513.8C810.829 1514.57 810.618 1515.28 810.307 1516.32L809.196 1520.24L807.012 1527.92C803.34 1542.42 795.679 1565.45 807.6 1576.13C817.927 1583.94 831.837 1584.48 845.655 1584.64C920.662 1584.33 996.134 1583.56 1070.89 1577.56C1134.99 1572.71 1199.01 1566.36 1262.23 1554.9C1308.6 1545.94 1356.34 1536.24 1398.03 1513.73C1481.83 1464.12 1518.46 1348.49 1538.17 1257.99C1546.9 1216.26 1552.75 1173.84 1555.78 1131.32C1557.08 1109.55 1557.66 1087.46 1563.09 1066.14C1602.18 907.279 1787.68 858.62 1929.44 836.394L1929.46 836.324Z" fill="#121112"/>
<path d="M2186.06 1121.35C2257.7 1108.45 2303.53 1029.97 2288.42 946.054C2273.3 862.142 2202.97 804.578 2131.33 817.481C2059.69 830.384 2013.86 908.868 2028.98 992.779C2044.09 1076.69 2114.42 1134.26 2186.06 1121.35Z" fill="#7F7F7F"/>
<path d="M2135.39 1132.03C2077.82 1117.9 2029.14 1064.88 2016.57 995.008C2000.24 904.38 2050.72 819.179 2129.1 805.057C2207.46 790.949 2284.5 853.191 2300.83 943.819C2308.67 987.356 2301.51 1030.99 2280.67 1066.69C2259.44 1103.03 2226.65 1126.86 2188.3 1133.75C2170.36 1136.99 2152.48 1136.22 2135.39 1132.02L2135.39 1132.03ZM2176.16 831.308C2162.35 827.918 2147.98 827.3 2133.56 829.898C2068.88 841.542 2027.52 913.623 2041.39 990.55C2055.25 1067.49 2119.14 1120.6 2183.82 1108.94C2214.78 1103.37 2241.43 1083.84 2258.88 1053.97C2276.69 1023.45 2282.77 985.911 2276.01 948.278C2265.24 888.493 2224.26 843.105 2176.18 831.295L2176.16 831.308Z" fill="#121112"/>
<path d="M1935.96 992.722L2031.1 973.348C2037.16 972.109 2043.02 976.092 2044.13 982.169C2047.66 1001.48 2056.94 1041.49 2076.54 1065.67C2081.48 1071.77 2078.38 1080.95 2070.78 1082.94L1925.67 1121.3L1935.96 992.722Z" fill="#575757"/>
<path d="M1916.69 1132.05L1928.36 985.97L2029.48 965.375C2034.56 964.34 2039.72 965.367 2044 968.273C2048.29 971.183 2051.17 975.58 2052.1 980.689C2055.08 996.966 2064.02 1037.3 2082.84 1060.53C2086.86 1065.51 2088.08 1072.14 2086.09 1078.25C2084.08 1084.42 2079.12 1089.1 2072.85 1090.75L1916.67 1132.05L1916.69 1132.05ZM1943.55 999.44L1934.67 1110.53L2068.7 1075.1C2069.99 1074.76 2070.5 1073.77 2070.67 1073.22C2070.88 1072.59 2070.96 1071.66 2070.23 1070.76C2049.8 1045.56 2040.11 1005.35 2036.13 983.612C2035.95 982.564 2035.27 981.973 2034.89 981.712C2034.51 981.451 2033.74 981.057 2032.68 981.28L1943.53 999.436L1943.55 999.44Z" fill="#121112"/>
<path d="M2230.29 1113.37C2301.94 1100.47 2347.76 1021.99 2332.65 938.075C2317.54 854.163 2247.21 796.599 2175.57 809.502C2103.92 822.405 2058.1 900.889 2073.21 984.801C2088.32 1068.71 2158.65 1126.28 2230.29 1113.37Z" fill="#A4A4A4"/>
<path d="M2340.54 936.654C2350.63 994.194 2332.56 1059.03 2284.96 1095.42C2235.78 1133.78 2168.01 1126.52 2122.99 1085.43C2093.98 1059.66 2075.51 1023.51 2068.45 985.656C2057.88 928.908 2074.93 864.771 2121.21 827.884C2212.27 757.959 2324.37 834.821 2340.52 936.649L2340.54 936.654ZM2324.74 939.506C2315.23 887.285 2280.86 836.879 2229.06 819.907C2175.33 801.627 2119.71 828.834 2093.8 877.959C2076.25 910.008 2071.69 948.143 2077.96 983.948C2087.07 1037.17 2123.51 1088.29 2176.27 1104.6C2210.53 1115.56 2249.41 1108.25 2277.16 1085.45C2319.64 1051.33 2334.92 991.764 2324.74 939.506Z" fill="#121112"/>
<path d="M2177.05 1155.58C2177.05 1155.58 2193.18 1161.14 2185.09 1179.41C2177.02 1197.69 2147 1262.2 2119.5 1270.85C2091.98 1279.49 2012.9 1294.55 1960.61 1268.16C1908.34 1241.8 1967.74 1156.99 1995.29 1110.12C2022.85 1063.26 2081.07 1068.86 2149.77 1074.81C2218.45 1080.75 2249.23 1110.5 2194.84 1141.16C2140.44 1171.82 2018.06 1225.45 2000.58 1219.71" fill="#F37B20"/>
<path d="M1985.05 1285.15C1975.27 1282.74 1965.86 1279.45 1957.14 1275.05C1945.21 1269.03 1937.44 1259.95 1934.03 1248.05C1923.95 1212.83 1955.93 1160.21 1979.28 1121.77C1982.64 1116.24 1985.82 1111.01 1988.65 1106.21C2018.37 1055.68 2078.52 1060.89 2148.15 1066.91L2150.44 1067.1C2196.58 1071.09 2225.51 1084.88 2229.86 1104.91C2232.1 1115.21 2228.51 1131.05 2198.64 1147.88C2195.37 1149.71 2191.85 1151.65 2188.12 1153.65C2190.06 1155.5 2191.92 1157.88 2193.25 1160.92C2196.04 1167.32 2195.67 1174.57 2192.16 1182.52C2178.05 1214.43 2150.16 1269.29 2121.81 1278.19C2098.96 1285.35 2036.93 1297.87 1985.05 1285.13L1985.05 1285.15ZM2179.36 1087.25C2170.84 1085.16 2160.77 1083.5 2149.11 1082.49L2146.81 1082.3C2079.73 1076.49 2026.74 1071.91 2001.96 1114.04C1999.09 1118.94 1995.88 1124.22 1992.48 1129.8C1971.84 1163.77 1940.66 1215.1 1948.9 1243.82C1951.09 1251.5 1956.07 1257.21 1964.11 1261.27C1971.93 1265.21 1980.4 1268.18 1989.22 1270.35C2037.23 1282.14 2095.66 1270.24 2117.19 1263.47C2136.29 1257.48 2161.15 1214.49 2178.05 1176.29C2179.72 1172.51 2180.08 1169.44 2179.15 1167.19C2177.9 1164.2 2174.48 1162.86 2174.45 1162.85C2173.71 1162.59 2173.04 1162.24 2172.44 1161.82C2146.94 1174.75 2115.51 1189.26 2086.86 1201.22C2013.18 1231.97 2001.9 1228.27 1998.19 1227.04C1994.14 1225.71 1991.94 1221.35 1993.27 1217.3C1994.6 1213.25 1998.95 1211.03 2003.01 1212.38C2017.25 1215.59 2129.8 1169.01 2191.07 1134.45C2207.74 1125.05 2216.38 1115.49 2214.79 1108.2C2213.25 1101.1 2201.61 1092.74 2179.38 1087.27L2179.36 1087.25Z" fill="#231F20"/>
<path d="M1989.1 1238.93C1986.95 1238.4 1985.15 1236.75 1984.54 1234.47C1979.1 1214.25 1993.19 1194.26 1993.81 1193.41C1995.84 1190.59 1999.74 1189.95 2002.57 1191.96C2005.38 1193.97 2006.03 1197.89 2004.02 1200.7C2003.91 1200.86 1992.78 1216.77 1996.68 1231.2C1997.58 1234.54 1995.61 1237.98 1992.25 1238.89C1991.2 1239.17 1990.12 1239.16 1989.13 1238.92L1989.1 1238.93Z" fill="#231F20"/>
<path d="M1501.1 1401.43C1477.01 1391.81 1460.8 1381.31 1454.42 1358.87C1448.12 1336.72 1452.14 1302.87 1467.49 1249.16C1481.82 1198.96 1484.53 1162.18 1487.16 1126.64C1490.15 1085.98 1493 1047.57 1513.09 994.48C1534.33 938.366 1562.84 897.209 1602.79 864.928C1649.64 827.087 1713.42 800.921 1797.79 784.931C1973.26 751.69 2144.11 761.525 2145.81 761.628L2145.38 768.83C2143.68 768.728 1973.68 758.937 1799.13 792.013C1608.2 828.188 1552.05 911.922 1519.83 997.026C1500.09 1049.13 1497.29 1087.03 1494.34 1127.16C1491.7 1163.07 1488.95 1200.23 1474.4 1251.14C1443.8 1358.27 1459.85 1377.17 1503.77 1394.73L1501.09 1401.41L1501.1 1401.43Z" fill="#121112"/>
<path d="M1259.47 1323.98C1187.7 1306.35 1176.1 1204.79 1167.33 1128.03C1165.68 1113.53 1164.11 1099.84 1162.27 1087.61C1153.72 1030.95 1163.56 984.335 1189.93 956.326C1212.64 932.222 1246.61 922.032 1290.87 926.057C1369.17 933.159 1379.62 1014.59 1390.69 1100.79C1391.27 1105.29 1391.85 1109.81 1392.44 1114.35C1401 1179.79 1406.59 1247.13 1373.6 1288.47C1356.36 1310.08 1329.57 1322.74 1293.94 1326.1C1281.12 1327.31 1269.67 1326.5 1259.45 1323.99L1259.47 1323.98ZM1304.36 935.549C1299.94 934.462 1295.23 933.678 1290.22 933.226C1248.28 929.418 1216.3 938.853 1195.19 961.273C1170.35 987.636 1161.19 1032.12 1169.4 1086.54C1171.26 1098.89 1172.83 1112.65 1174.49 1127.21C1179.54 1171.51 1185.28 1221.73 1202.06 1260.14C1221.08 1303.68 1250.92 1322.92 1293.27 1318.92C1327.34 1315.71 1351.78 1304.28 1367.98 1283.99C1399.21 1244.86 1393.67 1179.2 1385.31 1115.29C1384.71 1110.75 1384.12 1106.21 1383.56 1101.71C1373.17 1020.83 1364.11 950.243 1304.38 935.571L1304.36 935.549Z" fill="#121112"/>
<path d="M1679.02 1050.55C1679.02 1050.55 1267.21 1130.01 1125.19 1130.93C1095.18 1131.13 1118.23 1208.14 1118.23 1208.14C1118.23 1208.14 1125.09 1247.93 1135.86 1259.19C1146.62 1270.44 1273.37 1254.86 1367.14 1248.39C1460.91 1241.93 1721.83 1178.74 1721.83 1178.74L1679.03 1050.57L1679.02 1050.55Z" fill="#575757"/>
<path d="M1138.96 1269.22C1134.67 1268.17 1131.83 1266.69 1130 1264.77C1118.38 1252.63 1111.74 1218.05 1110.32 1210C1107.13 1199.2 1093.89 1150.61 1108.16 1131.31C1112.24 1125.82 1118.1 1122.88 1125.14 1122.83C1264.8 1121.92 1673.38 1043.39 1677.49 1042.6L1684.46 1041.25L1732.3 1184.53L1723.72 1186.62C1713.05 1189.21 1461.07 1250.05 1367.68 1256.48C1342.27 1258.24 1314.2 1260.67 1287.07 1263.04C1196.25 1270.95 1156.07 1273.44 1138.94 1269.23L1138.96 1269.22ZM1141.34 1253.17C1152.71 1258.46 1226.38 1252.03 1285.68 1246.88C1312.88 1244.51 1341.01 1242.07 1366.57 1240.29C1449.07 1234.6 1665.51 1183.82 1711.32 1172.9L1673.56 1059.85C1617.04 1070.64 1257.93 1138.18 1125.22 1139.05C1123.03 1139.06 1122.01 1139.81 1121.18 1140.95C1114.01 1150.61 1119.66 1184.71 1125.96 1205.83L1126.17 1206.77C1128.8 1221.98 1135.19 1246.11 1141.3 1253.17L1141.34 1253.17Z" fill="#121112"/>
<path d="M1855.31 1222.48C1934.08 1206.26 1984 1125.41 1966.79 1041.9C1949.59 958.389 1871.79 903.846 1793.02 920.072C1714.24 936.299 1664.33 1017.15 1681.53 1100.66C1698.74 1184.17 1776.54 1238.71 1855.31 1222.48Z" fill="#7F7F7F"/>
<path d="M1977.08 1039.86C1996.86 1136.23 1927.72 1235.18 1825.92 1233.29C1752.29 1232.1 1690.39 1172.24 1676.07 1101.85C1657.32 1018.67 1704.67 927.64 1790.47 907.846C1878.02 889.763 1961.04 954.287 1977.1 1039.86L1977.08 1039.86ZM1956.43 1044.11C1940.94 970.629 1870.97 916.805 1795.52 932.444C1718.54 945.389 1671.56 1024.75 1686.95 1099.6C1699.42 1165.85 1757.92 1217.99 1826.08 1217.54C1916.16 1217.42 1975.62 1129.05 1956.43 1044.11Z" fill="#121112"/>
<path d="M1898.17 1213.64C1976.94 1197.42 2026.86 1116.57 2009.65 1033.06C1992.45 949.549 1914.65 895.006 1835.88 911.233C1757.1 927.459 1707.19 1008.31 1724.39 1091.82C1741.6 1175.33 1819.4 1229.87 1898.17 1213.64Z" fill="#A4A4A4"/>
<path d="M2017.52 1031.52C1996.04 923.526 1871.39 863.005 1779.2 930.576C1755.67 947.836 1738.2 971.875 1727.77 998.735C1719.39 1023.41 1718.1 1062.72 1721.45 1071.13C1725.32 1080.84 1726.64 1041.09 1726.64 1041.09C1726.92 1038.75 1727.25 1036.4 1727.64 1034.05C1739.72 955.737 1814.25 899.28 1892.87 918.314C1948.44 931.202 1990.8 979.526 2001.73 1034.77C2014.15 1089.67 1993.7 1151.3 1947.94 1185.03C1883.85 1230.48 1811.41 1212.94 1767.1 1165.4L1767.08 1165.39C1761.46 1159.36 1756.29 1152.84 1751.65 1145.91C1743.3 1135.86 1735.07 1126.92 1736.99 1133.4C1740.61 1145.67 1757.9 1169.02 1758.47 1169.81C1806.85 1223.73 1888.47 1242.04 1955.31 1195.15C2006.42 1159.34 2029.99 1092.02 2017.52 1031.52Z" fill="#121112"/>
<path d="M1900.49 1164.89C1955.13 1153.64 1989.75 1097.55 1977.82 1039.61C1965.89 981.672 1911.91 943.83 1857.27 955.086C1802.63 966.342 1768.01 1022.43 1779.94 1080.37C1791.88 1138.31 1845.85 1176.15 1900.49 1164.89Z" fill="#1D1D1D"/>
<path d="M1856.29 1172.04C1815.47 1162.01 1781.39 1127.87 1771.97 1082.09C1759.16 1019.88 1796.68 959.376 1855.61 947.248C1914.54 935.12 1972.91 975.858 1985.74 1038.08C1998.54 1100.29 1961.03 1160.79 1902.1 1172.92C1886.53 1176.13 1870.97 1175.64 1856.31 1172.04L1856.29 1172.04ZM1897.59 963.868C1885.18 960.821 1872.06 960.416 1858.89 963.118C1808.71 973.445 1776.85 1025.36 1787.86 1078.82C1798.86 1132.28 1848.64 1167.36 1898.82 1157.03C1949 1146.71 1980.86 1094.8 1969.85 1041.34C1961.73 1001.89 1932.49 972.442 1897.59 963.868Z" fill="#121112"/>
<path d="M2239.04 1063.45C2285.71 1053.84 2313.87 999.078 2301.93 941.141C2290 883.205 2242.49 844.031 2195.82 853.645C2149.15 863.259 2120.99 918.02 2132.92 975.956C2144.86 1033.89 2192.37 1073.07 2239.04 1063.45Z" fill="#1D1D1D"/>
<path d="M2205.38 1070.75C2192.22 1067.52 2179.45 1060.99 2167.79 1051.37C2146.33 1033.67 2131.11 1007.5 2124.99 977.672C2118.84 947.853 2122.48 917.802 2135.2 893.061C2148.23 867.729 2169.17 850.947 2194.2 845.797C2245.18 835.296 2297.09 877.376 2309.9 939.59C2322.7 1001.8 2291.66 1060.96 2240.68 1071.47C2228.93 1073.89 2217.02 1073.59 2205.4 1070.74L2205.38 1070.75ZM2225.57 862.294C2216.38 860.038 2206.9 859.732 2197.45 861.676C2177.32 865.822 2160.32 879.604 2149.59 900.474C2138.55 921.935 2135.44 948.182 2140.84 974.404C2146.23 1000.63 2159.46 1023.5 2178.08 1038.85C2196.19 1053.79 2217.25 1059.74 2237.38 1055.59C2279.61 1046.89 2304.99 996.323 2293.99 942.863C2285.45 901.361 2257.43 870.12 2225.57 862.294Z" fill="#121112"/>
<path d="M2235.54 875.095L2194.12 1034.82L2223.76 1047.57L2261.23 895.059L2235.54 875.095Z" fill="white"/>
<path d="M1906.38 969.611L1860.44 1156.63L1904.84 1156.07L1941.49 991.332L1906.38 969.611Z" fill="white"/>
<path d="M1960.39 1021.11L1930.91 1141.11C1930.91 1141.11 1962.19 1111.66 1967.29 1086.44C1972.39 1061.22 1960.38 1021.13 1960.38 1021.13L1960.39 1021.11Z" fill="white"/>
<path d="M1686.46 819.644C1686.41 819.277 1680.58 782.784 1659.4 742.575C1639.98 705.71 1603.26 658.028 1538.61 640.274C1458.18 618.219 1303.44 615.086 1230.51 700.729L1225.02 696.058C1267.57 646.087 1333.27 628.609 1380.88 622.737C1433.22 616.299 1492.87 620.266 1540.5 633.318C1607.74 651.782 1645.8 701.203 1665.88 739.416C1687.56 780.658 1693.34 817.011 1693.58 818.535L1686.46 819.644Z" fill="#121112"/>
<path d="M856.09 1566.36C867.154 1569.07 878.326 1562.31 881.044 1551.24C883.761 1540.18 876.995 1529.01 865.931 1526.29C854.868 1523.57 843.695 1530.34 840.978 1541.4C838.26 1552.47 845.026 1563.64 856.09 1566.36Z" fill="#231F20"/>
<path d="M860.999 1554.75C859.879 1554.47 858.902 1553.69 858.408 1552.53L855.49 1545.53C854.683 1543.6 855.596 1541.4 857.519 1540.59C859.443 1539.78 861.649 1540.69 862.457 1542.62L865.374 1549.62C866.181 1551.55 865.269 1553.75 863.345 1554.56C862.577 1554.89 861.751 1554.93 860.999 1554.75Z" fill="#AF6734"/>
<path d="M1497.73 1412.8C1470.8 1508.61 1377.27 1607.74 1257.27 1628.26L1244.27 1570.15L1343.77 1545.43L1435.71 1495.81L1478.68 1446.65L1497.76 1412.82L1497.73 1412.8Z" fill="#121112"/>
<path d="M2178.36 2008.34L1558.84 2362.96L1243.82 2305.93L2178.36 2008.34Z" fill="#121112"/>
<path d="M961.153 1908.77L590.979 2105.26L481.34 2003.9L603.139 1985.07L961.153 1908.77Z" fill="#121112"/>
<path d="M1219.81 1383.19C1202.59 1386.51 1186.24 1389.64 1170.71 1392.6C1194.86 1385.36 1214.76 1383.97 1219.81 1383.19Z" fill="#121112"/>
<path d="M772.722 1248.59L649.813 1273.9C658.501 1293.22 678.279 1302.04 703.038 1296.94C720.252 1293.39 731.582 1285.71 740.569 1272.84L771.225 1294.86C759.669 1315.17 738.895 1328.9 709.604 1334.93C653.446 1346.5 609.631 1318.69 599.679 1270.38C589.656 1221.76 619.6 1179.09 669.118 1168.87C716.833 1159.06 760.258 1183.47 771.021 1235.72C771.762 1239.35 772.216 1244.6 772.722 1248.59ZM643.548 1246.54L723.583 1230.06C716.03 1210.21 697.902 1200.1 676.763 1204.44C655.326 1208.86 642.603 1225.01 643.566 1246.54L643.548 1246.54Z" fill="white"/>
</g>
<defs>
<clipPath id="clip0_91_8205">
<rect width="3635.06" height="2537.3" fill="white" transform="translate(605.246) rotate(13.8003)"/>
</clipPath>
</defs>
</svg>
