<svg width="1311" height="1352" viewBox="0 0 1311 1352" fill="none" xmlns="http://www.w3.org/2000/svg">
<path d="M700.929 0.519728C707.102 0.0822937 712.562 -0.966995 718.177 2.22805C721.342 20.219 700.22 50.6651 702.38 76.125C706.543 125.233 737.236 171.713 747.673 220.762C788.105 207.281 882.715 226.005 922.48 240.278C908.934 254.184 894.272 266.06 879.128 278.125C917.309 292.268 951.417 300.969 991.873 306.266C984.447 319.749 977.063 330.88 966.541 342.138C998.415 359.535 1031.2 375.389 1063.38 392.234C1045.51 401.133 1028.37 408.56 1009.27 414.484C1037.04 437.86 1055.5 466.518 1074.06 497.15C1079.6 499.503 1085.42 501.897 1090.48 505.198C1114.09 520.606 1121.97 564.92 1140.44 587.723C1153.84 604.271 1175.96 612.376 1186.28 631.501C1197.72 652.726 1202.55 678.939 1208.2 702.236C1213.09 706.217 1217.63 710.544 1220.96 715.956C1229.47 729.773 1241.5 845.117 1241.93 865.621C1242.38 886.615 1241.35 912.145 1235.67 932.362C1235.49 932.991 1235.31 933.615 1235.13 934.245C1234.33 937.141 1233.66 940.032 1231.89 942.541C1224.17 953.512 1183.54 988.797 1170.94 990.34C1168.49 990.638 1166.06 991.055 1163.6 991.188C1140.89 992.423 1123.8 1015.37 1102.99 1014.3C1084.46 1013.35 1062.45 989.627 1050.32 977.066L1057.11 1022.27C1074.76 1036.48 1095.74 1041.12 1113.96 1053.77C1150.34 1053.62 1180.01 1038.06 1216.6 1042.1C1218.12 1029.14 1217.18 1016.21 1220.83 1003.51C1236.56 990.662 1248.05 1019.48 1260.75 1017.5C1268.1 1016.36 1291.06 1000.98 1310.29 997.681C1311.4 1027.88 1307.27 1048.8 1293.86 1075.88C1298.13 1081.61 1303.42 1087.78 1306.66 1094.12C1310.69 1101.95 1310 1105.06 1307.83 1112.98C1294.9 1124.01 1277.89 1120.86 1262.16 1119.74C1214.78 1165.42 1161.56 1185.96 1097.54 1196.25C1103.95 1210.75 1107.87 1226.59 1112.4 1241.79C1085.26 1281.59 1048.13 1311.63 1002.13 1326.76C947.502 1344.72 842.88 1348.73 791.329 1319.52C782.603 1314.57 780.277 1310.41 777.964 1301.34C781.675 1281.05 801.003 1265.75 815.137 1251.9C786.967 1229.61 751.239 1218.75 724.051 1194.71C670.275 1234.65 667.119 1248.19 642.197 1307.56C635.117 1324.42 624.491 1342.42 606.445 1349.04C568.164 1363.1 464.931 1317.62 426.84 1300.01L419.813 1296.6C387.746 1280.96 307.526 1243.3 297.151 1207.04C295.068 1199.76 296.386 1192.87 300.606 1186.64C323.22 1153.3 406.217 1151.87 443.124 1145.11C446.741 1133.08 453.744 1120.13 455.201 1107.74C457.733 1086.26 439.153 1079.29 429.165 1063.44C422.466 1052.8 417.966 1040.21 413.256 1028.59C406.058 1031.95 398.833 1035.37 391.469 1038.35C382.578 1041.94 378.149 1041.82 369.437 1037.99C366.991 1032.17 366.255 1027.39 365.711 1021.1L365.528 1018.76C347.769 1013.57 329.221 1029.83 310.25 1024.37C285.846 1017.34 289.436 997.297 274.7 981.479C261.282 967.079 243.558 961.605 228.553 949.833C205.049 931.395 184.861 886.215 169.877 860.72C162.271 847.78 170.923 833.088 164.925 822.613C158.82 811.949 139.964 805.051 131.578 793.456C127.134 787.311 124.667 780.433 126.452 772.893C130.565 755.499 145.561 743.502 159.618 734.139C138.812 701.207 13.6314 490.825 8.34472 470.901C-3.99945 424.385 0.0727133 369.07 3.46673 321.529C105.711 349.126 137.145 361.746 182.693 459.785C200.995 498.911 218.84 538.245 236.227 577.786C246.56 601.401 256.211 632.344 272.557 652.055C278.772 659.547 282.575 661.481 291.98 662.255C321.396 647.453 311.344 622.333 314.774 602.572C315.62 597.689 322.07 588.71 324.573 583.951C292.081 562.718 287.498 534.367 277.241 527.41C269.544 522.19 256.755 526.706 248.194 518.747C249.89 503.732 270.105 485.307 277.823 469.045C258.114 458.487 239.253 447.152 220.433 435.084C236.227 430.66 252.907 427.084 263.979 414.082C268.61 395.665 248.038 361.409 245.183 340.309C237.722 285.174 279.835 250.596 309.556 211.026C340.565 169.736 336.868 125.836 329.948 77.5644C358.608 100.899 382.835 127.541 398.57 161.333C405.783 176.827 400.541 200.832 401.483 218.123C424.647 223.434 444.64 196.325 466.814 190.467C482.608 186.293 496.02 191.377 509.495 199.097L512.503 200.838C513.153 200.628 513.8 200.407 514.453 200.206C515.543 199.869 516.648 199.588 517.73 199.227C534.558 193.588 548.916 194.617 566.315 195.53C592.977 178.047 561.002 109.601 588.515 66.4926C611.85 29.9283 660.065 9.63196 700.929 0.519728Z" fill="#020101"/>
<path d="M432.824 225.07C465.564 193.244 474.06 196.853 515.904 211.232C531.229 201.744 537.065 202.123 554.274 204.576L557.897 209.042C549.921 256.965 546.766 256.705 578.383 300.977L582.564 306.77C609.212 326.78 634.202 339.764 668.464 334.914L686.53 332.951C690.203 330.081 695.702 330.155 701.098 329.265L702.986 322.148C719.203 325.379 731.61 328.249 747.508 332.726C751.397 334.482 759.437 337.855 762.814 339.764L759.759 342.303L757.685 349.523C745.041 368.599 733.18 388.038 708.527 392.629C681.808 397.606 660.338 384.79 636.935 374.404C631.557 372.016 633.631 370.786 630.576 374.434C639.863 394.686 628.094 403.712 618.564 423.53C619.631 435.914 620.201 455.084 630.703 463.188C652.915 458.185 656.801 413.327 674.377 401.72C685.398 409.162 681.002 420.757 679.311 432.852C683.989 478.457 692.942 564.446 691.725 607.702C659.818 633.605 491.101 725.25 453.919 702.048L450.273 708.347C423.947 719.989 391.228 714.518 369.326 696.196C346.889 682.491 333.483 646.763 345.196 623.727L348.287 623.839L352.689 639.374C362.263 604.376 350.077 591.847 324.186 571.604L319.071 566.828C305.765 555.251 292.787 537.348 290.814 518.908C285.034 460.061 268.025 397.529 273.096 338.484C278.362 277.196 341.582 242.574 395.403 232.522C410.624 228.292 417.142 226.997 432.824 225.07Z" fill="#E53037"/>
<path d="M432.824 225.07C465.564 193.244 474.06 196.853 515.904 211.232C531.229 201.744 537.065 202.123 554.274 204.576L557.897 209.042C549.921 256.965 546.766 256.705 578.383 300.977L582.564 306.77L575.759 323.378C572.807 329.115 563.08 336.262 563.097 334.379C562.867 359.239 561.298 377.759 557.533 402.101C555.89 419.871 549.874 427.502 540.002 442.67C551.083 445.263 549.333 443.211 556.653 449.977C552.087 456.012 554.12 454.085 545.578 456.559C514.483 467.864 515.006 474.411 494.31 499.883C480.818 494.938 465.674 489.757 452.66 484.052C437.971 500.415 431.004 513.641 422.532 534.038C398.284 527.32 391.062 524.672 368.232 514.102C354.95 527.905 353.186 531.668 344.203 548.68C332.694 527.131 331.045 521.775 325.33 498.251C313.667 524.834 316.908 542.988 328.134 569.411L324.186 571.604L319.071 566.828C305.765 555.251 292.787 537.348 290.814 518.908C285.034 460.061 268.025 397.529 273.096 338.484C278.362 277.196 341.582 242.574 395.403 232.522C410.624 228.292 417.142 226.997 432.824 225.07Z" fill="#F03A3E"/>
<path d="M495.584 317.553C493.817 322.119 491.282 329.284 489.282 333.475L460.066 364.411C498.247 339.218 529.749 324.448 575.769 323.375C572.817 329.112 563.09 336.259 563.107 334.376C562.877 359.236 561.308 377.756 557.543 402.099C555.9 419.868 549.884 427.5 540.012 442.668C517.099 455.513 487.222 468.802 463.866 450.627C458.704 449.77 453.554 448.851 448.415 447.87C420.707 442.446 432.252 435.202 417.622 421.964C392.165 398.93 378.809 408.48 388.655 365.1C390.685 378.746 395.454 402.743 410.483 406.449C443.223 379 449.851 350.748 495.584 317.553Z" fill="#020101"/>
<path d="M463.863 450.628C511.63 449.168 530.299 441.489 557.54 402.1C555.897 419.869 549.881 427.5 540.009 442.669C517.096 455.514 487.219 468.803 463.863 450.628Z" fill="#E02A31"/>
<path d="M544.018 336.868L550.486 338.683C555.743 349.335 555.572 361.421 553.32 372.933C549.284 393.569 534.961 412.119 517.731 423.669C494.095 439.512 469.282 441.483 442.026 436.187L430.951 428.874C428.838 423.566 427.733 422.357 430.141 416.789C443.4 386.139 514.025 347.993 544.018 336.868Z" fill="#FFFC59"/>
<path d="M319.071 566.83C305.765 555.253 292.787 537.35 290.814 518.91C285.034 460.063 268.025 397.531 273.096 338.486C278.362 277.198 341.582 242.576 395.403 232.523C369.503 251.259 343.243 259.955 318.271 279.565C298.328 295.227 267.443 332.489 291.594 356.557C313.247 371.164 345.68 400.705 372.372 419.411L380.082 420.245C378.838 462.919 359.77 477.422 318.197 476.896C319.63 487.512 319.136 490.102 325.33 498.253C313.667 524.836 316.908 542.99 328.134 569.413L324.186 571.606L319.071 566.83Z" fill="#020101"/>
<path d="M319.071 566.83C305.765 555.253 292.787 537.35 290.814 518.91C285.034 460.063 268.025 397.531 273.096 338.486C278.362 277.198 341.582 242.576 395.403 232.523C369.503 251.259 343.243 259.955 318.271 279.565C298.328 295.227 267.443 332.489 291.594 356.557C301.135 374.11 305.514 379.008 319.488 393.579L281.491 375.31C282.625 394.04 283.308 412.812 284.871 431.536C285.436 438.289 290.45 454.752 290.586 458.198C301.8 469.184 303.895 470.24 318.197 476.896C319.63 487.512 319.136 490.102 325.33 498.253C313.667 524.836 316.908 542.99 328.134 569.413L324.186 571.606L319.071 566.83Z" fill="#FA4C4F"/>
<path d="M290.586 458.197C301.8 469.183 303.895 470.239 318.197 476.895C319.63 487.511 319.136 490.1 325.33 498.252C313.667 524.835 316.908 542.989 328.134 569.412L324.186 571.605L319.071 566.829C318.569 558.337 314.967 550.7 311.953 542.841C301.401 515.312 295.544 487.284 290.586 458.197Z" fill="#EC353A"/>
<path d="M289.702 391.357C313.953 403.993 351.253 415.839 369.393 436.212C370.173 444.86 367.777 446.226 363.031 453.237C353.165 459.671 344.371 464.309 332.318 465.018C323.09 465.559 314.52 462.287 307.934 455.826C290.6 438.825 289.48 413.968 289.702 391.357Z" fill="#FFFC59"/>
<path d="M368.953 361.893L375.161 366.619L375.413 369.054C376.993 383.079 384.54 408.674 383.261 417.911L380.087 420.243L372.378 419.409C376.459 409.833 369.677 378.89 368.953 361.893Z" fill="#0F0707"/>
<path d="M495.576 317.557C500.056 314.388 503.011 311.397 508.33 311.294C500.931 321.452 498.014 324.656 489.273 333.479C491.274 329.288 493.809 322.123 495.576 317.557Z" fill="#600808"/>
<path d="M368.953 361.894L372.963 349.196C376.441 354.983 375.079 358.669 375.161 366.62L368.953 361.894Z" fill="#820709"/>
<path d="M415.434 467.631L423.014 470.303L423.173 474.104L409.19 483.018C405.571 484.159 404.761 483.863 401.18 483.077C403.071 476.832 410.547 471.86 415.434 467.631Z" fill="#820709"/>
<path d="M356.52 475.592C369.418 475.813 377.272 483.07 386.379 491.062C385.274 491.065 384.172 491.103 383.067 491.076C371.194 490.766 364.353 483.377 356.52 475.592Z" fill="#200F11"/>
<path d="M545.588 456.558C575.025 458.763 590.595 464.975 609.988 488.425C630.202 512.866 648.34 555.105 618.324 579.775C604.04 592.884 570.708 568.479 558.357 581.3C535.211 605.327 543.641 625.07 501.492 622.221C476.34 620.522 445.52 598.331 423.468 606.896C414.612 614.084 410.912 627.074 409.045 638.205C406.432 647.146 403.797 654.677 402.89 663.973C380.571 654.157 374.815 663.529 364.715 637.877L358.09 638.031C356.004 639.385 355.534 639.006 352.7 639.373C362.274 604.375 350.088 591.846 324.197 571.603L328.145 569.41C316.919 542.986 313.678 524.833 325.341 498.25C331.056 521.774 332.704 527.129 344.214 548.679C353.197 531.666 354.961 527.904 368.243 514.101C391.073 524.67 398.295 527.319 422.543 534.037C431.014 513.64 437.982 500.413 452.671 484.051C465.684 489.755 480.828 494.937 494.321 499.881C515.017 474.41 514.494 467.863 545.588 456.558Z" fill="#1B0000"/>
<path d="M328.143 569.41C341.555 577.396 356.936 588.385 359.888 604.822C358.951 616.044 357.87 626.738 358.088 638.031C356.002 639.385 355.532 639.007 352.698 639.373C362.272 604.375 350.086 591.846 324.195 571.603L328.143 569.41Z" fill="#820709"/>
<path d="M358.083 638.034C357.865 626.74 358.946 616.047 359.883 604.824C363.467 617.971 365.908 624.266 364.708 637.88L358.083 638.034Z" fill="#CA2127"/>
<path d="M567.347 529.306C574.534 529.268 582.967 528.721 589.964 530.465C600.313 533.039 614.316 544.401 619.543 553.46C619.354 557.172 619.874 559.282 617.723 562.463C602.742 584.606 580.76 565.427 562.026 569.113C544.866 572.488 535.573 591.324 527.379 604.841C525.08 606.203 522.764 607.719 520.104 608.302C511.839 610.114 507.705 609.78 500.708 605.479C499.313 600.978 497.671 596.071 497.118 591.36C495.51 577.658 500.72 563.834 509.508 553.418C520.958 539.846 534.666 534.718 551.917 533.592C550.832 537.887 550.463 539.231 551.376 543.712L567.347 529.306Z" fill="#883288"/>
<path d="M618.575 423.528C619.642 435.913 620.212 455.083 630.714 463.187C652.926 458.183 656.812 413.326 674.388 401.719C685.41 409.161 681.013 420.756 679.323 432.85C650.722 452.033 672.482 477.667 662.958 489.037C649.566 475.793 652.105 478.243 648.352 457.592C641.024 465.123 622.068 471.522 614.87 461.579C613.313 447.218 615.889 437.671 618.575 423.528Z" fill="#CA2127"/>
<path d="M702.983 322.147C719.2 325.378 731.608 328.248 747.505 332.726C751.394 334.481 759.434 337.854 762.812 339.763L759.756 342.302L757.682 349.523L727.923 348.24L725.763 342.476L715.684 340.02L712.723 334.65L686.527 332.95C690.2 330.08 695.699 330.154 701.095 329.265L702.983 322.147Z" fill="#0F0707"/>
<path d="M712.738 334.651C728.042 337.108 744.663 339.422 759.772 342.304L757.697 349.524L727.938 348.241L725.778 342.478L715.699 340.022L712.738 334.651Z" fill="#FA4C4F"/>
<path d="M369.336 696.195C397.384 702.715 416.121 702.408 444.864 698.102L453.929 702.048L450.283 708.346C423.958 719.988 391.238 714.517 369.336 696.195Z" fill="#CA2127"/>
<path d="M686.543 332.952L712.738 334.652L715.699 340.022L725.778 342.478L727.938 348.242C710.168 347.018 686.924 346.622 670.628 340.776L668.477 334.915L686.543 332.952Z" fill="#FA4C4F"/>
<path d="M409.046 638.205L413.992 641.841C413.777 654.31 413.115 655.765 407.305 666.857L403.621 668.486L402.891 663.972C403.798 654.677 406.434 647.146 409.046 638.205Z" fill="#FE7375"/>
<path d="M707.248 525.99C716.571 573.171 749.979 628.814 788.981 657.513C800.263 661.288 810.717 666.735 821.089 663.002C823.923 658.249 823.941 658.302 825.38 652.97C842.988 655.35 850.795 664.016 864.816 662.91L868.256 659.763L867.857 646.255C885.74 651.62 942.117 693.622 948.7 707.478C953.635 717.867 937.516 725.472 957.151 756.811L956.321 764.98L964.29 767.773C966.684 777.022 966.879 777.406 965.431 786.684C944.439 816.677 894.33 826.49 940.019 872.716C960.854 878.592 987.844 863.681 1001.68 864.192C994.974 881.642 899.628 923.361 878.571 929.293C805.594 952.513 694.382 976.705 617.324 972.407C572.389 971.896 527.701 965.701 484.323 953.961C477.896 952.601 476.8 950.615 472.226 945.939C459.608 932.763 456.748 937.862 448.997 919.152L444.281 918.792C444.263 925.141 444.458 924.815 442.112 930.668C420.656 929.997 399.703 897.467 394.387 878.308L385.159 861.981C379.161 884.066 398.642 886.859 375.059 918.609L369.997 907.203C372.878 878.84 365.317 772.355 356.242 747.025L375.092 732.193C373.673 742.414 370.978 751.24 375.541 759.846L381.855 761.909L385.056 764.507C386.069 757.786 387.086 751.78 388.404 745.11C392.517 743.324 393.338 742.958 397.047 740.469C393.114 735.335 393.202 735.731 391.5 729.527C398.335 725.942 448.433 722.002 459.688 721.745C518.571 720.409 676.851 656.748 704.272 609.499C705.901 586.723 703.717 562.797 702.313 539.917L707.248 525.99Z" fill="#362126"/>
<path d="M356.242 747.024L375.092 732.192C373.673 742.413 370.978 751.238 375.541 759.845L381.855 761.908L385.056 764.506C473.632 867.256 744.672 838.864 859.007 800.87C883.169 792.839 938.603 759.171 957.151 756.81L956.321 764.979L964.29 767.772C966.684 777.021 966.879 777.405 965.431 786.683C944.439 816.676 894.33 826.489 940.019 872.715C960.854 878.591 987.844 863.68 1001.68 864.191C994.974 881.641 899.628 923.36 878.571 929.292C805.594 952.512 694.382 976.704 617.324 972.406C572.389 971.895 527.701 965.7 484.323 953.96C477.896 952.6 476.8 950.614 472.226 945.938C459.608 932.762 456.748 937.861 448.997 919.151L444.281 918.791C444.263 925.139 444.458 924.814 442.112 930.667C420.656 929.996 399.703 897.466 394.387 878.307L385.159 861.98C379.161 884.065 398.642 886.858 375.059 918.607L369.997 907.202C372.878 878.839 365.317 772.354 356.242 747.024Z" fill="#0F0707"/>
<path d="M356.242 747.024L375.092 732.192C373.673 742.413 370.978 751.238 375.541 759.845L381.855 761.908L385.056 764.506C473.632 867.256 744.672 838.864 859.007 800.87C883.169 792.839 938.603 759.171 957.151 756.81L956.321 764.979L964.29 767.772C966.684 777.021 966.879 777.405 965.431 786.683C944.439 816.676 894.33 826.489 940.019 872.715C960.854 878.591 987.844 863.68 1001.68 864.191C994.974 881.641 899.628 923.36 878.571 929.292L875.761 926.798C875.805 916.187 877.239 905.674 872.097 896.993L864.293 895.116C857.854 881.384 879.502 859.249 863.081 839.322C849.9 833.057 844.013 838.722 832.067 839.512C767.88 843.753 804.672 895.06 796.992 910.941C788.937 914.139 786.481 912.392 777.575 909.77C767.921 897.986 778.798 872.328 761.952 856.474C751.229 855.425 730.471 861.703 727.073 860.78C692.346 851.393 692.722 852.93 664.969 879.593C629.998 870.847 639.524 833.317 594.246 883.885C577.06 869.819 551.648 843.632 532.293 867.912C528.966 872.086 526.546 875.615 525.624 880.905L519.206 884.437C516.39 871.137 518.056 865.394 509.724 855.939C459.871 832.013 424.968 887.071 444.281 918.791C444.263 925.139 444.458 924.814 442.112 930.667C420.656 929.996 399.703 897.466 394.387 878.307L385.159 861.98C379.161 884.065 398.642 886.858 375.059 918.607L369.997 907.202C372.878 878.839 365.317 772.354 356.242 747.024Z" fill="#4C363A"/>
<path d="M385.052 764.506C473.628 867.256 744.668 838.864 859.003 800.869C883.165 792.839 938.599 759.171 957.147 756.81L956.317 764.979C886.102 808.861 827.787 824.973 745.475 838.394C734.728 840.147 690.886 842.408 685.33 844.831C650.223 845.553 619.427 845.715 584.382 844.427C580.218 842.532 548.166 839.257 540.073 838.025C488.48 830.18 453.854 821.745 407.595 797.21L394.995 788.039C387.014 776.867 385.847 775.247 381.852 761.908L385.052 764.506Z" fill="#BD868D"/>
<path d="M356.242 747.024L375.092 732.192C373.673 742.413 370.978 751.238 375.541 759.845L381.855 761.908C385.85 775.247 387.018 776.867 394.999 788.039L389.269 792.993L387.375 795.032L392.537 807.638C396.58 822.972 400.929 835.98 396.878 851.801L402.971 850.861C403.577 861.126 402.433 865.394 400.687 875.334L394.387 878.307L385.159 861.98C379.161 884.065 398.642 886.858 375.059 918.607L369.997 907.202C372.878 878.839 365.317 772.354 356.242 747.024Z" fill="#171214"/>
<path d="M396.865 851.802C391.724 851.116 394.215 851.719 389.392 847.244C384.31 834.434 382.023 823.581 386.461 810.178L392.525 807.639C396.567 822.973 400.917 835.98 396.865 851.802Z" fill="#D48D6D"/>
<path d="M584.383 844.426C619.428 845.714 650.224 845.552 685.331 844.831L682.533 849.699C667.436 851.762 591.625 853.275 580.074 847.302L584.383 844.426Z" fill="#0F0707"/>
<path d="M392.531 807.639C414.031 823.466 410.867 853.732 400.681 875.335C402.427 865.395 403.571 861.127 402.965 850.862L396.872 851.802C400.923 835.98 396.574 822.973 392.531 807.639Z" fill="#0F0707"/>
<path d="M394.98 788.04L407.579 797.211L399.545 799.446L389.25 792.994L394.98 788.04Z" fill="#0F0707"/>
<path d="M665.858 891.522C688.605 860.305 698.492 857.337 732.739 876.437C734.459 874.267 738.954 870.18 741.143 868.058L742.857 894.224C744.394 907.846 743.433 930.135 748.637 939.067C759.638 945.176 757.841 943.095 772.383 942.002L774.924 941.103C794.547 950.257 848.563 927.566 875.757 926.798L878.567 929.293C805.59 952.512 694.379 976.704 617.32 972.406L618.824 964.994L633.886 958.651C663.095 937.743 663.151 925.799 661.437 892.504L663.027 890.689L665.858 891.522Z" fill="#FC6D36"/>
<path d="M661.437 892.503L663.027 890.688L665.858 891.522C667.521 906.436 668.207 922.654 673.96 936.259C708.249 972.107 760.321 931.346 733.774 899.366C736.031 897.365 740.005 895.669 742.857 894.223C744.394 907.846 743.433 930.134 748.637 939.066C759.638 945.176 757.841 943.095 772.383 942.001L774.924 941.103C794.547 950.256 848.563 927.566 875.757 926.797L878.567 929.292C805.59 952.512 694.379 976.703 617.32 972.406L618.824 964.993L633.886 958.65C663.095 937.742 663.151 925.798 661.437 892.503Z" fill="#302527"/>
<path d="M733.768 899.367C736.026 897.367 740 895.67 742.851 894.225C744.388 907.847 743.428 930.136 748.631 939.068C759.632 945.177 757.836 943.096 772.377 942.003L775.423 945.561C767.88 956.967 747.588 948.874 738.443 942.671C728.686 949.161 723.875 952.596 712.832 957.283C699.033 956.077 668.387 956.08 666.012 939.514L673.955 936.26C708.243 972.109 760.315 931.348 733.768 899.367Z" fill="#0F0707"/>
<path d="M732.739 876.436C734.459 874.266 738.953 870.179 741.143 868.057L742.856 894.223C740.005 895.668 736.031 897.365 733.773 899.366C725.307 900.787 710.063 901.851 704.889 907.438C707.566 916.278 707.575 913.949 716.883 920.806C711.735 928.29 707.33 929.714 699.387 927.885C687.47 913.435 686.613 889.949 705.518 881.67C712.447 884.041 717.273 886.021 723.983 888.962C731.279 884.992 728.933 886.408 732.739 876.436Z" fill="#020101"/>
<path d="M863.068 839.324C879.489 859.251 857.841 881.386 864.28 895.118L872.084 896.995C877.225 905.675 875.792 916.189 875.748 926.799C848.554 927.568 794.538 950.258 774.914 941.105C781.441 938.74 795.891 936.178 803.252 934.649L807.143 934.248C804.49 908.604 799.514 878.696 795.873 852.84C818.186 849.554 837.481 846.598 859.584 841.839L863.068 839.324Z" fill="#FC6D36"/>
<path d="M863.068 839.324C879.489 859.251 857.841 881.386 864.28 895.118L872.084 896.995C877.225 905.675 875.792 916.189 875.748 926.799C848.554 927.568 794.538 950.258 774.914 941.105C781.441 938.74 795.891 936.178 803.252 934.649L807.143 934.248C817.48 934.443 856.393 925.839 866.011 918.766C869.876 909.651 869.433 914.253 867.202 904.461C851.009 898.555 842.96 915.713 827.399 902.729C833.197 890.504 855.004 895.538 856.482 879.672C846.518 868.952 835.33 884.108 822.914 874.195L823.239 867.861C832.81 859.83 839.337 863.534 855.155 858.353C861.543 850.718 859.756 854.102 859.584 841.839L863.068 839.324Z" fill="#020101"/>
<path d="M525.61 880.906C575.979 842.497 602.325 894.378 582.728 939.475C544.778 974.57 516.116 948.268 520.329 906.141C521.133 897.558 522.903 889.093 525.61 880.906Z" fill="#FC6D36"/>
<path d="M552.451 882.336L561.31 887.16C563.848 890.638 566.404 894.286 567.264 898.586C569.95 911.996 562.859 925.175 556.287 936.297L548.054 932.839C545.442 929.339 542.939 925.725 542.029 921.368C539.148 907.571 545.587 893.813 552.451 882.336Z" fill="#020101"/>
<path d="M633.883 958.65L631.327 958.499C582.112 955.127 583.643 893.945 612.365 874.006C618.993 869.316 627.231 867.504 635.212 868.985C649.387 871.683 654.272 881.227 661.434 892.503C663.148 925.798 663.092 937.742 633.883 958.65Z" fill="#FC6D36"/>
<path d="M625.37 884.32L633.593 887.932C636.38 891.166 638.841 893.929 639.985 898.141C643.764 912.074 637.039 925.747 630.943 937.865L623.697 935.338C620.982 932.503 618.284 929.834 616.907 926.063C611.884 912.29 619.386 896.48 625.37 884.32Z" fill="#020101"/>
<path d="M448.984 919.151C438.843 828.377 521.202 849.903 512.636 882.926C495.497 888.084 480.356 864.69 471.506 884.892C464.533 900.808 464.113 910.833 477.747 921.645L484.26 922.127C490.291 909.92 481.485 905.895 488.518 893.974C500.521 890.336 514.885 897.096 519.967 908.711C516.9 930.101 494.493 947.04 472.213 945.938C459.595 932.761 456.735 937.86 448.984 919.151Z" fill="#FC6D36"/>
<path d="M741.133 868.059L745.521 861.293C758.138 859.804 754.879 858.193 762.577 864.06C768.537 877.195 768.705 901.954 769.698 917.229C782.969 915.698 788.766 912.609 798.969 917.785C802.187 925.386 802.199 926.356 803.251 934.649C795.89 936.177 781.441 938.74 774.913 941.105L772.372 942.003C757.831 943.097 759.628 945.177 748.627 939.068C743.423 930.136 744.383 907.848 742.847 894.225L741.133 868.059Z" fill="#FC6D36"/>
<path d="M484.316 953.958C497.723 947.985 500.693 946.495 512.495 937.667C539.177 951.955 556.792 990.469 589.024 939.857C598.087 950.731 605.054 962.113 618.821 964.992L617.317 972.405C572.382 971.893 527.695 965.698 484.316 953.958Z" fill="#4C363A"/>
<path d="M707.234 525.99C716.557 573.171 749.965 628.814 788.967 657.513C827.366 692.207 931.427 664.172 847.188 745.875C747.847 799.085 612.086 803.442 503.776 780.763L501.371 774.421C508.643 765.37 560.972 761.865 577.315 752.765C616.238 731.094 659.102 689.943 696.762 663.342C708.286 655.205 705.845 623 704.259 609.499C705.887 586.723 703.703 562.797 702.3 539.917L707.234 525.99Z" fill="#4C363A"/>
<path d="M847.194 745.875L852.871 752.673C829.03 781.36 718.954 796.765 681.305 801.731C627.292 808.851 456.087 801.887 418.199 761.147L419.044 756.882C417.366 756.87 492.335 778.686 503.782 780.763C612.092 803.442 747.853 799.085 847.194 745.875Z" fill="#020101"/>
<path d="M757.677 978.088C825.463 964.944 880.891 949.894 943.991 919.853C964.17 910.247 993.943 884.226 1014.57 877.103C1026.56 899.536 1039.31 897.561 1050.51 917.822C1053.22 922.729 1056.68 927.28 1059.91 931.906L1059.88 923.899L1064.11 921.207C1067.75 933.345 1070.32 939.422 1069.39 952.318C1060.34 969.106 1047.78 963.339 1030.17 960.115C1031.97 986.098 1039.33 1013.82 1041.42 1048.73C1017.64 1041.2 978.235 1031.09 960.189 1016.68C956.044 1055.95 951.242 1066.4 934.168 1102.09C893.813 1088.69 851.428 1075.57 811.451 1061.59C801.046 1080.78 772.162 1126.68 757.464 1141.27L754.698 1141.5L756.962 1134.33C726.228 1127.06 715.304 1088.56 698.289 1065.19L694.418 1064.09C679.472 1097.14 683.801 1094.02 661.471 1124.27C631.153 1092.97 600.384 1062.11 569.171 1031.7C534.371 1051.82 501.181 1070.73 462.463 1082.67C454.355 1071.49 447.91 1062.04 441.672 1049.66C435.411 1037.24 436.983 1025.83 426.109 1018.39C407.052 1019.03 398.099 1026.13 379.648 1029.71C382.881 1015.53 386.397 1000.76 388.28 986.334C390.466 969.561 385.611 937.575 391.53 922.726C396.438 920.178 398.734 917.979 404.975 921.286C442.375 941.098 447.251 956.668 489.814 968.869C605.088 1002.04 648.762 983.949 757.677 978.088Z" fill="#4C363A"/>
<path d="M489.812 968.866C605.087 1002.03 648.76 983.946 757.676 978.085C701.051 1002.79 539.597 1008.1 489.812 968.866Z" fill="#362126"/>
<path d="M921.809 394.518L946.781 380.538C979.533 404.795 1010.83 428.881 1035.07 462.117C1052.78 486.4 1071.4 505.875 1094.05 525.308C1098.43 529.068 1099.12 540.081 1099.25 545.628L1096.77 549.896C1120.6 580.056 1136.11 598.682 1150.55 635.234C1120.44 671.004 1089.07 688.096 1045.29 702.88C1020.18 708.534 994.612 711.874 968.896 712.858C922.651 641.022 849.798 639.275 824.776 578.152C833.035 576.142 834.787 575.528 842.508 571.993C846.645 556.307 816.652 484.461 809.203 464.57C829.778 463.94 856.08 461.135 877.015 459.403L871.126 419.068C881.126 420.318 891.048 421.285 900.844 423.602L907.726 441.735C915.211 422.434 917.891 414.732 921.809 394.518Z" fill="#F03A3E"/>
<path d="M871.126 419.067C881.126 420.318 891.048 421.284 900.844 423.601L907.726 441.734C902.608 451.831 899.727 457.402 893.158 466.961L846.42 477.134C847.186 489.196 847.7 507.81 850.755 518.879C856.239 584.252 900.77 617.574 965.849 611.072C971.44 610.557 977.01 609.845 982.55 608.935L981.487 612.15L970.471 617.5C961.42 646.717 1021.63 693.957 1045.29 702.88C1020.18 708.534 994.612 711.874 968.896 712.858C922.651 641.021 849.798 639.274 824.776 578.152C833.035 576.142 834.787 575.527 842.508 571.992C846.645 556.307 816.652 484.461 809.203 464.569C829.778 463.94 856.08 461.135 877.015 459.403L871.126 419.067Z" fill="#CA2127"/>
<path d="M850.758 518.88C884.255 595.168 918.408 592.963 995.392 589.153L982.553 608.935C977.013 609.846 971.443 610.558 965.852 611.072C900.773 617.575 856.242 584.253 850.758 518.88Z" fill="#EC353A"/>
<path d="M1004.96 569.318L1009.71 574.677C1002.71 588.521 996.034 606.722 981.496 612.152L982.56 608.936L995.399 589.154L1004.96 569.318Z" fill="#200F11"/>
<path d="M1004.95 569.318C1005.11 562.807 1004.78 546.205 1006.77 541.127L1009.23 542.986C1011.01 556.502 1012.17 561.181 1009.7 574.676L1004.95 569.318Z" fill="#B8181E"/>
<path d="M1096.77 549.898C1086.52 546.103 1083.74 546.957 1077.59 539.228C1087.72 537.54 1088.61 540.304 1099.26 545.63L1096.77 549.898Z" fill="#B8181E"/>
<path d="M911.337 470.209C918.576 469.603 927.084 468.489 934.146 470.481C950.221 475.021 966.467 489.35 973.417 504.214C978.301 514.662 976.717 519.101 972.87 529.183C962.309 530.48 952.579 530.708 942.561 526.605C928.224 520.736 915.14 511.449 909.301 496.529C905.442 486.672 907.342 479.608 911.337 470.209Z" fill="#FA4C4F"/>
<path d="M758.995 243.588C807.003 235.644 848.446 232.112 897.028 244.511C874.704 264.905 873.14 272.755 846.023 272.518C854.016 288.99 928.235 308.713 947.935 311.231C955.151 312.354 959.776 311.743 964.524 315.668C960.003 334.25 936.367 335.237 921.569 335.024C935.542 342.735 948.275 349.935 961.853 358.315C922.736 385.406 882.247 388.311 837.215 373.888C850.683 400.772 854.985 415.391 860.878 444.968L791.068 452.354C796.508 464.54 825.782 551.829 826.985 561.816C815.221 572.9 809.645 568.044 795.343 562.889L796.283 565.469L796.703 563.04L798.845 563.971C799.988 574.159 827.576 605.4 836.529 616.685C846.759 629.554 850.914 640.729 857.609 655.767C840.84 648.981 819.322 643.959 812.343 626.474L810.981 627.461C809.914 634.652 809.163 641.214 808.445 648.449C762.411 646.129 728.196 548.058 714.91 509.995C701.938 467.771 701.711 450.986 699.891 406.905C733.952 401.969 745.996 388.947 763.327 360.969C766.991 354.061 770.194 349.989 769.641 342.295L762.83 339.765C759.453 337.856 751.413 334.483 747.524 332.728C731.626 328.25 719.219 325.38 703.002 322.149C704.598 316.067 743.174 271.918 742.149 254.48C741.635 245.779 751.164 244.927 758.995 243.588Z" fill="#4C363A"/>
<path d="M763.327 360.966C770.835 366.449 777.747 371.6 785.636 376.572C758.531 410.887 752.671 419.431 711.539 435.211L714.91 509.992C701.938 467.768 701.711 450.983 699.891 406.902C733.952 401.966 745.996 388.944 763.327 360.966Z" fill="#362126"/>
<path d="M702.996 322.15C704.592 316.067 743.168 271.919 742.143 254.48C741.629 245.779 751.158 244.928 758.989 243.589C766.205 288.473 767.945 290.013 747.518 332.728C731.62 328.25 719.213 325.38 702.996 322.15Z" fill="#362126"/>
<path d="M812.338 626.474C816.933 613.404 808.949 619.164 812.028 607.028C819.04 615.786 819.017 618.552 828.585 622.339L836.524 616.684C846.754 629.553 850.909 640.729 857.605 655.767C840.836 648.981 819.318 643.959 812.338 626.474Z" fill="#362126"/>
<path d="M947.931 311.229C955.147 312.352 959.771 311.74 964.52 315.665C959.999 334.247 936.362 335.234 921.564 335.021C913.994 333.023 916.68 335.107 912.457 329.84C924.832 326.571 943.507 323.817 947.931 311.229Z" fill="#362126"/>
<path d="M23.3821 474.839C15.1042 464.426 11.1485 352.224 13.6335 335.448L18.6392 335.587C56.5753 348.255 93.5472 363.654 129.26 381.663C167.884 454.138 185.741 497.683 217.441 572.476C222.296 579.291 232.789 601.249 234.834 608.638C242.8 624.929 266.179 667.739 264.398 684.078C252.897 694.254 242.026 704.652 228.711 712.316L215.556 719.179C203.219 725.528 188.397 731.752 175.558 737.498C143.802 671.832 64.0187 534.129 23.3821 474.839Z" fill="#A887A2"/>
<path d="M23.3821 474.839C15.1042 464.426 11.1485 352.224 13.6335 335.448L18.6392 335.587C56.5753 348.255 93.5472 363.654 129.26 381.663C167.884 454.138 185.741 497.683 217.441 572.476L215.065 573.776C209.859 570.69 193.01 539.192 185.537 528.516C152.084 529.917 149.28 527.11 119.22 511.093C101.147 484.776 90.2791 454.767 70.5668 425.651C77.5641 452.793 81.9846 469.95 97.0695 493.457C78.3914 492.038 71.8049 475.98 23.3821 474.839Z" fill="#DEC1C0"/>
<path d="M18.6406 335.587C56.5767 348.255 93.5487 363.654 129.262 381.662C167.886 454.138 185.742 497.683 217.442 572.476L215.067 573.776C209.86 570.69 193.011 539.192 185.538 528.516C183.337 521.296 159.018 477.132 154.175 467.775C140.925 442.182 131.017 419.823 119.375 393.272C103.386 408.819 92.3372 421.499 77.8994 438.298C63.9374 409.073 21.5311 352.428 18.6406 335.587Z" fill="#FFFEFE"/>
<path d="M119.215 511.093C149.275 527.109 152.079 529.917 185.532 528.516C193.005 539.192 209.854 570.69 215.061 573.776L217.436 572.476C222.291 579.291 232.784 601.249 234.829 608.638C242.795 624.929 266.175 667.739 264.393 684.077C252.892 694.254 242.021 704.652 228.706 712.316C219.345 706.664 127.953 534.448 119.215 511.093Z" fill="#A887A2"/>
<path d="M234.834 608.636C242.8 624.927 266.179 667.737 264.398 684.075C253.29 676.137 233.149 623.364 234.834 608.636Z" fill="#CABCCF"/>
<path d="M70.5664 425.65C90.2787 454.766 101.147 484.775 119.219 511.092C127.957 534.448 219.349 706.664 228.711 712.315L215.555 719.178C189.865 683.163 156.129 605.016 132.871 563.998C121.781 544.441 112.281 510.986 97.0691 493.456C81.9842 469.95 77.5637 452.792 70.5664 425.65Z" fill="#846B78"/>
<path d="M470.657 1101.87C480.32 1088.56 545.222 1059.85 566.474 1047.1C590.651 1073.75 623.078 1110.56 651.794 1132.12C658.274 1134.56 665.327 1137.41 671.849 1139.54L697.326 1092.24C716.988 1122.84 718.667 1131.36 749.271 1151.1C723.702 1180.96 689.2 1199.53 661.19 1230.18C635.016 1258.81 632.835 1322.39 600.423 1335.93C586.425 1341.77 529.129 1296.14 516.813 1284.54C513.864 1283.21 508.749 1280.68 509.523 1276.88C513.648 1256.68 519.73 1217.4 509.562 1197.98C497.467 1174.89 480.137 1193.72 458.915 1187.9C450.756 1179.34 452.665 1177.38 450.118 1164.1L448.906 1160.71L453.678 1156.35C462.112 1141.85 466.6 1118.7 470.657 1101.87Z" fill="#EC353A"/>
<path d="M697.322 1092.24C716.984 1122.84 718.662 1131.36 749.266 1151.1C723.697 1180.96 689.196 1199.53 661.186 1230.18C635.011 1258.81 632.83 1322.39 600.418 1335.93C586.42 1341.77 529.125 1296.14 516.809 1284.54C626.401 1308.36 590.159 1221.14 640.035 1161.24C654.13 1149.62 654.599 1148.71 651.789 1132.12C658.269 1134.56 665.323 1137.41 671.844 1139.54L697.322 1092.24Z" fill="#CA2127"/>
<path d="M470.652 1101.87C480.315 1088.56 545.217 1059.85 566.469 1047.1C590.646 1073.75 623.073 1110.56 651.789 1132.12C654.599 1148.71 654.129 1149.62 640.034 1161.24C627.281 1136.44 583.184 1096.63 561.764 1078.3C536.157 1088.91 498.411 1105.14 470.652 1101.87Z" fill="#CA2127"/>
<path d="M453.678 1156.35C498.005 1167.09 558.841 1186.95 581.55 1229.9L580.71 1232.19L578.544 1230.11C547.178 1200.36 494.196 1166.57 450.118 1164.1L448.906 1160.71L453.678 1156.35Z" fill="#200F11"/>
<path d="M1262.57 1036.34C1270.51 1023.31 1274.14 1020.88 1285.65 1011.07L1293.08 1009.35C1309.05 1028.71 1280.45 1075.53 1267.52 1092.32C1170.5 1203.75 1021.49 1200.8 899.157 1139.12C875.429 1127.15 855.595 1107.62 829.84 1096.08L826.735 1094.73C813.727 1112.41 807.262 1121.83 788.862 1133.68L785.75 1132.29C791.039 1112 807.531 1097.05 814.563 1074.74C849.517 1091.31 908.155 1101.55 937.125 1120.31C949.364 1094.02 963.565 1067.1 968.754 1038.83C995.026 1048.53 1026.11 1054.28 1053.79 1060.41L1050.6 1064.01C1051.47 1065.68 1057.17 1076.33 1057.38 1077.38L1067.52 1078.86C1072.8 1068.65 1076.79 1063.56 1083.53 1054.53C1094.17 1055.98 1097.86 1055.41 1105.06 1062.81L1114.9 1071.05C1134.39 1060.15 1143.26 1056.83 1161.39 1073.11L1164.88 1067.04C1165.39 1062.95 1166.02 1062.53 1167.67 1058.61C1183.81 1046.75 1197.73 1052.39 1211.55 1064.07L1215.86 1060.69L1216.54 1053.57C1238.62 1036.68 1223.67 1034.27 1235.15 1014.96C1244.36 1017.01 1254.58 1028.92 1262.57 1036.34Z" fill="#B8181E"/>
<path d="M1262.56 1036.34C1270.51 1023.31 1274.14 1020.88 1285.65 1011.07L1293.08 1009.35C1309.05 1028.71 1280.45 1075.53 1267.52 1092.32C1258.15 1095.82 1250.99 1097.61 1243.48 1104.16L1236.07 1096.1C1234.1 1086.17 1230.22 1079.77 1225.72 1070.74L1215.86 1060.69L1216.54 1053.57C1238.62 1036.68 1223.67 1034.27 1235.15 1014.96C1244.36 1017.01 1254.58 1028.92 1262.56 1036.34Z" fill="#FA4C4F"/>
<path d="M1262.57 1036.34C1270.52 1023.31 1274.15 1020.88 1285.66 1011.07L1293.09 1009.35C1309.05 1028.71 1280.45 1075.53 1267.53 1092.32C1258.16 1095.82 1250.99 1097.61 1243.49 1104.16L1236.08 1096.1C1234.1 1086.17 1230.22 1079.77 1225.73 1070.74C1265.34 1088.4 1291.58 1078.88 1262.57 1036.34Z" fill="#E02A31"/>
<path d="M1083.53 1054.53C1094.17 1055.98 1097.87 1055.41 1105.07 1062.81L1105.65 1072.48C1109.86 1087.32 1118.81 1110.45 1116.28 1124.47C1102.84 1143.88 1061.11 1128.9 1040.44 1123.25C1049.5 1116.85 1055.85 1092.06 1049.79 1082.88L1057.38 1077.38L1067.52 1078.86C1072.8 1068.65 1076.79 1063.56 1083.53 1054.53Z" fill="#E02A31"/>
<path d="M1083.53 1054.53C1094.17 1055.98 1097.86 1055.41 1105.06 1062.81L1105.64 1072.48C1105.81 1083.57 1107.49 1092.13 1101.11 1100.49C1089.75 1107.16 1094.47 1106.28 1082.83 1105.62C1070.51 1097.94 1068.95 1093.09 1067.52 1078.86C1072.8 1068.65 1076.79 1063.56 1083.53 1054.53Z" fill="#FA4C4F"/>
<path d="M1164.88 1067.04C1165.39 1062.95 1166.02 1062.53 1167.67 1058.61C1183.81 1046.75 1197.73 1052.39 1211.55 1064.07L1215.87 1060.69L1225.73 1070.74C1230.22 1079.77 1234.1 1086.17 1236.08 1096.1L1243.49 1104.16C1233.39 1115.2 1207.7 1129.91 1193.05 1122.7L1190.49 1117.24L1185.74 1120.47L1181.4 1104.56C1174.7 1091.12 1170.32 1085.28 1161.39 1073.11L1164.88 1067.04Z" fill="#FA4C4F"/>
<path d="M1164.88 1067.04C1180.09 1084.83 1183.7 1094.75 1190.49 1117.24L1185.74 1120.48L1181.4 1104.56C1174.7 1091.12 1170.32 1085.28 1161.39 1073.12L1164.88 1067.04Z" fill="#600808"/>
<path d="M1215.86 1060.69L1225.73 1070.74C1230.22 1079.77 1234.1 1086.17 1236.08 1096.1L1211.55 1064.07L1215.86 1060.69Z" fill="#600808"/>
<path d="M1114.9 1071.05C1134.38 1060.15 1143.26 1056.83 1161.39 1073.12C1170.31 1085.28 1174.7 1091.12 1181.39 1104.56C1165.59 1127.56 1149.33 1120.22 1123.96 1116.3C1122.32 1103.58 1117.62 1084.12 1114.9 1071.05Z" fill="#FA4C4F"/>
<path d="M1007.16 1094.03C1023.31 1090.91 1034 1087.76 1049.78 1082.88C1055.84 1092.06 1049.49 1116.84 1040.43 1123.25C1024.9 1117.78 1022.39 1115.41 1009.36 1105.23L1007.16 1094.03Z" fill="#EC353A"/>
<path d="M1181.4 1104.56L1185.74 1120.47C1166.54 1143.51 1136.85 1147.84 1123.96 1116.3C1149.34 1120.22 1165.59 1127.55 1181.4 1104.56Z" fill="#E02A31"/>
<path d="M1009.36 1105.24C1000.33 1106.16 996.643 1102.99 991.75 1096.39L995.417 1092.79L1007.16 1094.03L1009.36 1105.24Z" fill="#B8181E"/>
<path d="M688.75 13.4284C697.934 10.4254 697.541 8.68159 703.716 11.7584C698.687 31.0853 691.264 33.9434 687.739 54.5058L687.042 84.4997C701.465 150.567 752.443 213.67 711.222 276.04C684.642 316.251 642.405 333.619 600.791 303.539C596.435 300.347 592.177 297.025 588.02 293.579C583.233 287.753 578.771 281.664 574.655 275.342C543.852 228.51 580.139 217.3 588.144 176.985L588.528 174.96C594.958 142.407 580.393 105.42 593.873 76.6406C608.338 45.7512 658.296 24.5888 688.75 13.4284Z" fill="#FEF7E4"/>
<path d="M654.277 72.376C665.644 75.2991 678.534 77.1848 687.038 84.5C701.461 150.567 752.439 213.67 711.218 276.04C684.638 316.252 642.401 333.619 600.787 303.539C596.431 300.347 592.173 297.025 588.016 293.579C612.825 282.569 636.562 269.585 653.056 247.56C664.728 257.975 688.406 271.873 702.368 280.657C685.51 263.535 675.121 256.468 655.734 243.182C669.409 222.085 674.175 211.607 682.345 187.947C686.465 189.189 690.723 190.096 694.919 191.089C693.081 185.468 688.592 184.912 681.58 181.031C679.68 155.358 674.654 141.328 665.736 117.5L663.174 114.979L654.277 72.376Z" fill="#DEC1C0"/>
<path d="M688.757 13.4284C697.941 10.4254 697.548 8.68159 703.724 11.7584C698.695 31.0853 691.272 33.9434 687.747 54.5058L683.92 69.7687C673.661 74.9736 667.907 70.4072 653.824 66.6831C661.288 46.6734 674.893 29.3859 688.757 13.4284Z" fill="#DEC1C0"/>
<path d="M653.062 247.561C632.046 235.263 614.559 230.277 594.25 213.666C618.935 223.109 632.507 230.504 655.739 243.184C675.126 256.47 685.516 263.537 702.373 280.659C688.411 271.874 664.734 257.977 653.062 247.561Z" fill="#504B47"/>
<path d="M682.351 187.948C664.486 178.8 628.371 179.687 605.996 175.88L606.342 174.207C633.61 169.924 654.921 174.455 681.586 181.031C688.598 184.912 693.086 185.468 694.924 191.09C690.728 190.096 686.47 189.189 682.351 187.948Z" fill="#ADA297"/>
<path d="M653.817 66.6812C667.9 70.4053 673.654 74.9717 683.913 69.7668L687.74 54.5039L687.042 84.4978C678.538 77.1826 665.649 75.2968 654.281 72.3737C641.903 70.2752 634.953 69.3589 623.074 65.1146C632.364 62.9748 644.004 65.4221 653.817 66.6812Z" fill="#C6B8A9"/>
<path d="M663.186 114.979L665.747 117.501C643.213 121.709 627.647 128.064 605.887 132.858L607.553 130.024C629.334 118.393 638.447 116.428 663.186 114.979Z" fill="#C6B8A9"/>
<path d="M830.457 1112.75C841.887 1117.07 853.748 1129.49 864.601 1136.4C890.371 1153.13 917.861 1167.03 946.603 1177.88C948.539 1184.93 946.157 1187.51 943.4 1194.13L944.765 1196.46L959.111 1181.95C1002 1191.07 1042.24 1197.05 1086.15 1197.24C1089.11 1210.79 1090.32 1224.63 1091.83 1238.4C1088.26 1245.67 1083.81 1252.47 1078.59 1258.67C1065.4 1274.4 1037.19 1302.34 1015.34 1302.56C1008.67 1302.63 1003.7 1295.13 999.271 1290.59C989.931 1281.68 976.359 1270.81 963.807 1267.24C938.545 1260.06 936.202 1280.94 918.652 1288.32C912.438 1290.94 895.938 1269.41 888.308 1266.42C873.543 1260.63 864.075 1271.55 851.348 1277.25L838.651 1262.62C832.363 1261.87 826.5 1261.94 821.583 1257.5C821.566 1252.11 821.905 1246.91 822.414 1241.55C809.27 1218.58 762.391 1204.58 740.102 1188.3C744.265 1184.03 748.768 1179.92 752.663 1175.41C768.628 1156.89 792.07 1154.14 808.981 1138.98C816.906 1131.87 823.986 1121.24 830.457 1112.75Z" fill="#B8181E"/>
<path d="M910.868 1193.79L914.967 1195.43C896.46 1213.52 880.087 1228.05 853.762 1229.42C851.333 1228.81 849.932 1227.53 847.926 1226.08C869.219 1215.88 889.809 1204.44 910.868 1193.79Z" fill="#820709"/>
<path d="M960.04 734.712L959.766 727.908C968.48 722.789 992.799 726.091 1005.09 724.696C1049.79 719.621 1090.97 705.262 1128.06 679.397C1148.47 665.169 1152.95 649.711 1162.56 627.573C1170.8 630.96 1170.96 634.383 1176.6 642.877C1182.63 663.029 1188.43 683.243 1194.01 703.515C1151 697.09 1109.38 713.922 1138.89 768.912C1148.3 786.457 1199.2 772.751 1213.04 779.44C1199.2 814.976 1056.16 857.903 1017.9 846.131C998.209 840.069 1006.34 812.194 996.983 797.05L993.404 801.391C987.175 802.58 990.367 802.512 983.777 799.816C981.653 791.032 982.35 793.698 985.707 783.74C980.887 762.265 973.595 751.692 960.04 734.712Z" fill="#362126"/>
<path d="M960.04 734.712L959.766 727.908C968.48 722.789 992.799 726.091 1005.09 724.696C1049.79 719.621 1090.97 705.262 1128.06 679.397C1148.47 665.169 1152.95 649.711 1162.56 627.573C1170.8 630.96 1170.96 634.383 1176.6 642.877C1139.94 713.848 1033.99 738.232 960.04 734.712Z" fill="#654C56"/>
<path d="M985.712 783.742C991.123 791.625 992.059 792.234 993.41 801.393C987.181 802.581 990.372 802.514 983.783 799.818C981.658 791.034 982.356 793.7 985.712 783.742Z" fill="#C6CBD4"/>
<path d="M1047.01 808.997C1036.88 812.659 1027.86 812.869 1020.1 804.085C1012.75 795.673 1009.2 784.592 1010.31 773.473C1012.69 748.711 1030.03 744.082 1050.9 748.805C1071.83 753.327 1080.66 755.701 1090.75 776.169C1080.23 803.6 1076.05 804.427 1047.01 808.997Z" fill="#CABCCF"/>
<path d="M1050.91 748.803C1071.83 753.325 1080.66 755.698 1090.75 776.166C1066.73 776.592 1042.83 774.676 1019.47 769.025C1031.24 756.597 1035.64 754.832 1050.91 748.803Z" fill="#FEF7E4"/>
<path d="M1047.01 808.997C1036.88 812.659 1027.86 812.869 1020.1 804.085C1012.75 795.673 1009.2 784.592 1010.31 773.473C1012.69 748.711 1030.03 744.082 1050.9 748.805C1035.64 754.835 1031.23 756.599 1019.47 769.028C1019.68 793.66 1023.39 798.617 1047.01 808.997Z" fill="#0F0707"/>
<path d="M280.424 773.751C299.604 733.043 346.528 741.011 349.678 787.264C347.604 802.119 347.054 811.016 340.882 824.748L348.818 829.406C356.291 842.499 355.955 878.484 356.424 894.988C348.564 887.511 341.343 878.812 331.355 876.034L330.347 877.733C371.947 931.095 250.417 966.547 224.458 929.578C222.809 918.79 222.044 923.147 227.753 913.245L227.566 911.472C199.308 904.074 195.441 891.043 195.727 864.782L190.707 863.839C186.076 860.44 181.821 857.399 179.401 851.987C162.28 813.664 220.362 797.665 246.566 786.676C261.991 787.202 257.647 784.941 267.08 792.753C271.057 803.142 272.585 811.028 274.951 821.754L279.195 832.418L286.434 831.02L287.265 819.611C282.085 801.295 281.768 792.986 280.424 773.751Z" fill="#EC353A"/>
<path d="M246.566 786.674C261.991 787.2 257.647 784.939 267.079 792.751C271.057 803.14 272.585 811.025 274.951 821.751C269.576 835.229 268.072 837.017 256.853 846.629C243.411 853.096 196.69 864.123 195.727 864.78L190.707 863.837C186.076 860.438 181.821 857.396 179.401 851.985C162.28 813.662 220.362 797.663 246.566 786.674Z" fill="#EC353A"/>
<path d="M246.555 786.674C261.979 787.2 257.636 784.939 267.068 792.751C271.045 803.14 272.573 811.025 274.94 821.751C269.565 835.229 268.061 837.017 256.841 846.629C258.235 819.056 260.998 810.133 246.555 786.674Z" fill="#E02A31"/>
<path d="M280.414 773.751C299.594 733.043 346.519 741.011 349.668 787.264C347.594 802.119 347.044 811.016 340.872 824.748C316.786 841.066 306.258 838.553 287.255 819.611C282.075 801.295 281.759 792.986 280.414 773.751Z" fill="#E02A31"/>
<path d="M280.414 773.751C299.594 733.043 346.519 741.011 349.668 787.264C327.436 784.453 291.962 787.049 280.414 773.751Z" fill="#EC353A"/>
<path d="M258.51 911.959C289.244 905.465 295.351 895.33 319.638 877.969C323.834 877.874 327.401 877.795 330.341 877.729C371.94 931.091 250.41 966.543 224.451 929.574C222.802 918.786 222.037 923.143 227.746 913.241L227.56 911.468C236.433 910.144 245.28 908.654 254.095 907.008L258.51 911.959Z" fill="#EC353A"/>
<path d="M227.562 911.47C236.436 910.146 245.283 908.656 254.098 907.01L258.512 911.96C245.78 913.388 240.821 913.728 227.749 913.243L227.562 911.47Z" fill="#600808"/>
<path d="M348.816 829.405C356.289 842.499 355.952 878.484 356.422 894.988C348.561 887.51 341.34 878.812 331.352 876.033C319.234 872.156 311.445 866.218 314.193 852.572C324.003 840.956 335.755 837.341 348.816 829.405Z" fill="#CA2127"/>
<path d="M287.257 819.609C306.26 838.552 316.788 841.064 340.874 824.746L348.811 829.404C335.75 837.34 323.998 840.955 314.188 852.571C311.44 866.217 319.229 872.155 331.347 876.033L330.34 877.732C327.399 877.797 323.833 877.877 319.637 877.971C295.35 895.333 289.243 905.468 258.508 911.961L254.094 907.011C295.717 896.574 334.346 867.896 286.426 831.018L287.257 819.609Z" fill="#200F11"/>
<path d="M274.947 821.752L279.19 832.416C266.791 864.109 224.973 868.283 195.723 864.78C196.686 864.124 243.406 853.096 256.848 846.63C268.068 837.018 269.572 835.23 274.947 821.752Z" fill="#200F11"/>
<path d="M1028.35 876.151L1029.35 867.793C1037.27 860.605 1103.87 855.317 1122.49 849.397C1158.44 837.961 1182.35 821.697 1213.25 806.543L1217.94 808.698C1229.99 840.35 1241.1 938.255 1199.86 948.822L1191.87 952.575C1182.02 969.174 1174.27 978.786 1153.02 977.592L1145.98 968.012C1143 977.988 1135.8 993.877 1125.32 996.999C1052.07 1018.8 1091.19 949.578 1082.35 925.079C1076.98 918.195 1076.78 917.149 1068.82 914.938L1064.11 921.207L1059.88 923.9C1052.08 907.552 1039.11 891.006 1028.35 876.151Z" fill="#EC353A"/>
<path d="M1028.35 876.151L1029.35 867.793C1037.27 860.605 1103.87 855.317 1122.49 849.397C1158.44 837.961 1182.35 821.697 1213.25 806.543L1217.94 808.698C1211.88 826.514 1207.68 832.496 1189.14 841.068C1154.53 857.064 1110.52 864.329 1072.76 869.395C1062.12 870.822 1036.31 872.737 1028.35 876.151Z" fill="#CA2127"/>
<path d="M1145.98 968.011C1146.14 958.86 1145.15 947.877 1149.39 940.376C1154.07 951.737 1152.97 965.085 1153.02 977.59L1145.98 968.011Z" fill="#B8181E"/>
<path d="M1191.87 952.573C1193.32 942.155 1194.79 936.962 1197.61 926.986L1199.29 927.965L1199.86 948.82L1191.87 952.573Z" fill="#820709"/>
<path d="M311.453 1210.81C322.253 1207.65 319.869 1206.43 327.413 1210.19C370.052 1216.6 429.954 1238.79 467.34 1260.35C470.936 1262.27 474.37 1263.45 476.651 1266.43C483.225 1269.69 487.616 1270.3 490.518 1275.49C505.526 1286.19 521.051 1296.96 535.737 1308.01C543.349 1311.71 550.928 1314.85 557.533 1320.06L557.946 1322.44L591.801 1345.36C494.029 1333.69 399.448 1287.73 322.543 1227.53C317.992 1226.77 317.768 1224.86 313.773 1220.51L311.453 1210.81Z" fill="#820709"/>
<path d="M535.738 1308.01C543.35 1311.71 550.929 1314.85 557.534 1320.06L557.947 1322.44C549.346 1319.27 543.102 1313.62 535.738 1308.01Z" fill="#600808"/>
<path d="M311.453 1210.81C322.253 1207.65 319.869 1206.43 327.413 1210.19C323.193 1210.92 315.992 1210.74 311.453 1210.81Z" fill="#390202"/>
<path d="M313.762 1220.5C318.433 1223.26 319.926 1223.28 322.532 1227.53C317.981 1226.77 317.757 1224.85 313.762 1220.5Z" fill="#390202"/>
<path d="M467.344 1260.35C470.94 1262.27 474.374 1263.45 476.655 1266.43C469.383 1264.31 472.423 1266.2 467.344 1260.35Z" fill="#600808"/>
<path d="M476.656 1266.43C483.231 1269.69 487.622 1270.3 490.524 1275.5C484.185 1273.08 482.12 1270.65 476.656 1266.43Z" fill="#600808"/>
<path d="M294.204 668.954C329.424 677.23 316.118 711.341 305.309 734.705C259.847 751.954 211.236 806.885 157.442 803.51C146.485 802.821 140.153 769.871 145.421 759.527C157.82 747.06 160.175 752.073 173.954 747.521C216.927 733.328 263.444 715.529 284.128 671.667L294.204 668.954Z" fill="#412D33"/>
<path d="M145.426 759.527C157.825 747.06 160.18 752.073 173.958 747.521C216.932 733.328 263.448 715.529 284.133 671.667L294.209 668.954C294.324 714.116 192.527 758.043 152.521 762.134L145.426 759.527Z" fill="#846B78"/>
<path d="M354.475 918.59C365.246 913.397 364.407 915.774 369.989 907.202L375.05 918.608L374.572 921.023C379.199 931.087 378.549 932.875 376.212 943.858L374.397 950.023L376.924 960.209C382.943 986.174 366.963 1005.15 340.732 1009.12C313.089 1013.3 304.171 1005.1 293.196 981.318L288.672 975.841C280.848 970.875 278.203 970.196 274.453 962.236C280.103 952.32 299.913 949.24 312.314 945.755C323.073 940.157 335.924 932.712 342.709 922.681L354.475 918.59Z" fill="#2C3646"/>
<path d="M355.247 963.227C359.809 957.851 363.364 954.05 368.323 949.04L374.401 950.024L376.927 960.209C382.947 986.175 366.966 1005.16 340.736 1009.12C313.092 1013.3 304.174 1005.1 293.2 981.319L288.676 975.842C296.562 974.323 305.43 973.356 313.468 972.28L317.956 977.29C325.355 976.663 328.626 974.113 335.074 970.519L355.247 963.227Z" fill="#2F3B50"/>
<path d="M355.242 963.227C359.805 957.851 363.359 954.05 368.318 949.04L374.396 950.024L376.922 960.209L372.198 968.006C362.446 969.706 365.992 969.57 355.242 963.227Z" fill="#7196B2"/>
<path d="M313.468 972.279L317.956 977.289C311.674 977.987 298.3 978.856 293.2 981.318L288.676 975.841C296.562 974.322 305.43 973.355 313.468 972.279Z" fill="#0F0707"/>
<path d="M354.467 918.59C365.238 913.397 364.399 915.774 369.981 907.202L375.043 918.608L374.564 921.023C379.191 931.087 378.541 932.875 376.204 943.858L374.39 950.023L368.311 949.039C363.353 954.049 359.798 957.85 355.236 963.226L335.062 970.518L335.665 967.015C346.412 955.518 360.939 958.917 361.261 939.226L354.467 918.59Z" fill="#0F0707"/>
<path d="M376.219 943.858C372.088 935.768 367.706 929.824 368.551 921.153L374.579 921.022C379.206 931.086 378.556 932.875 376.219 943.858Z" fill="#D48D6D"/>
<path d="M288.672 975.839C280.848 970.874 278.203 970.194 274.453 962.235C280.103 952.318 299.913 949.239 312.314 945.754C304.448 956.722 305.722 952.049 305.347 963.84C309.865 971.022 306.934 968.663 313.464 972.278C305.427 973.354 296.559 974.32 288.672 975.839Z" fill="#2F3B50"/>
<path d="M342.711 922.682L354.477 918.592L361.271 939.228C347.903 934.806 349.847 934.301 342.711 922.682Z" fill="#3A516B"/>
<path d="M344.145 116.596L343.56 105.983L346.22 105.415L356.045 115.26C378.488 138.137 384.752 150.802 391.811 182.442C389.696 195.163 387.872 209.421 383.762 221.427L342.151 240.996C335.872 243.523 328.919 246.881 322.436 247.939L295.312 247.135C301.769 236.474 317.578 215.832 325.42 204.863C334.838 188.013 337.193 183.163 342.81 164.838L344.145 116.596Z" fill="#E7CFCA"/>
<path d="M327.834 205.36C337.299 204.858 346.128 204.072 355.581 204.846C365.131 210.267 374.537 215.454 383.762 221.427L342.151 240.996C335.872 243.523 328.919 246.881 322.436 247.939L295.312 247.135C301.769 236.474 317.578 215.832 325.42 204.864L327.834 205.36Z" fill="#FFFEFE"/>
<path d="M327.828 205.36C337.293 204.858 346.122 204.072 355.575 204.846C365.125 210.267 374.531 215.454 383.756 221.427L342.145 240.996C347.644 230.043 353.099 223.874 352.449 213.136C346.137 206.939 337.13 206.888 327.828 205.36Z" fill="#C6B8A9"/>
<path d="M344.14 116.596L343.555 105.983L346.215 105.415L356.04 115.26C378.482 138.137 384.747 150.802 391.806 182.442C380.979 178.877 373.71 174.148 363.983 168.477C358.504 166.21 348.98 165.568 342.805 164.838L344.14 116.596Z" fill="#D5BCB5"/>
<path d="M344.144 116.596L343.559 105.983L346.218 105.415L356.043 115.26C360.038 127.479 367.756 148.771 362.065 160.774C352.456 161.992 353.28 163.52 346.54 159.752C346.626 148.239 347.249 127.192 344.144 116.596Z" fill="#FEF7E4"/>
<path d="M342.804 164.84C348.98 165.57 358.503 166.211 363.982 168.478C363.618 179.219 364.36 197.172 355.575 204.847C346.122 204.073 337.293 204.859 327.828 205.362L325.414 204.865C334.831 188.015 337.186 183.165 342.804 164.84Z" fill="#FEF7E4"/>
<path d="M489.481 1195.17C509.309 1210.15 511.93 1238.18 502.858 1259.94C484.535 1274.89 450.246 1244.36 429.801 1234.08L428.637 1229.69L432.28 1226.32C448.612 1205.89 464.548 1199.18 489.481 1195.17Z" fill="#E7CFCA"/>
<path d="M432.285 1226.32C448.617 1205.89 464.553 1199.18 489.486 1195.17C482.847 1211.37 447.154 1235.67 432.285 1226.32Z" fill="#F6E1DB"/>
<path d="M1144.4 719.529C1179.54 695.355 1197.52 714.002 1193.89 753.288C1172.45 787.934 1124.01 770.023 1144.4 719.529Z" fill="#CABCCF"/>
<path d="M1144.4 719.529C1179.54 695.355 1197.52 714.002 1193.89 753.288C1170.46 745.616 1164.81 732.052 1144.4 719.529Z" fill="#F6E1DB"/>
<path d="M425.15 1170.21C434.715 1171.61 438.048 1173.85 444.62 1180.38C446.207 1185.86 447.016 1189.57 445.474 1195.2C442.002 1207.85 431.29 1219.03 419.819 1225.14C412.405 1229.09 408.153 1225.87 400.6 1223.52C389.144 1219.19 377.082 1215.88 365.398 1212.16C384.399 1191.24 399.022 1181.12 425.15 1170.21Z" fill="#E7CFCA"/>
<path d="M942.706 812.291C976.028 798.35 986.959 823.467 988.968 852.568C959.806 886.244 912.128 861.996 942.706 812.291Z" fill="#CABCCF"/>
<path d="M942.715 812.291C976.037 798.35 986.968 823.467 988.977 852.568C960.444 844.984 958.636 837.524 942.715 812.291Z" fill="#F6E1DB"/>
<path d="M943.072 1275.52C943.767 1275.51 944.458 1275.48 945.153 1275.48C970.447 1275.41 987.154 1294.13 1003.93 1310.46L964.23 1317.28C947.738 1320.71 930.662 1321.32 913.887 1322.53C921.123 1304.03 929.489 1290.1 943.072 1275.52Z" fill="#BD868D"/>
<path d="M875.812 1272.52C881.175 1273.85 885.891 1276.05 890.495 1279.15C897.442 1283.82 905.544 1292.91 906.573 1301.61C907.465 1309.16 903.975 1312.97 900.098 1318.86C891.11 1324.63 881.329 1322.32 871.167 1321.37C860.934 1320.69 850.601 1318.79 840.43 1317.4C849.909 1299.2 859.991 1285.72 875.812 1272.52Z" fill="#BD868D"/>
<path d="M373.408 1168.01C380.559 1169.54 382.087 1168.86 386.593 1174.92C385.574 1184.06 379.2 1191.48 372.141 1197.01C357.555 1208.45 351.107 1208.25 333.437 1205.91C327.344 1205.19 321.239 1204.64 315.385 1202.7C310.548 1201.1 311.455 1200.6 309.363 1196.34C310.226 1194.38 310.483 1193.4 311.73 1191.78C322.415 1177.9 356.97 1170.85 373.408 1168.01Z" fill="#FEF7E4"/>
<path d="M332.375 688.219C348.284 700.062 373.3 712.284 375.082 732.193L356.233 747.024C344.708 739.555 334.561 737.696 321.32 734.185L332.375 688.219Z" fill="#CA2127"/>
<path d="M295.301 247.136L322.425 247.94C274.206 288.908 270.436 294.58 258.197 355.028C244.988 310.641 267.605 279.343 295.301 247.136Z" fill="#FEF7E4"/>
<path d="M820.151 1269.58C827.512 1270.79 830.806 1272.25 836.486 1277.06C839.45 1282.79 841.887 1288.15 840.578 1294.76C838.921 1303.15 833.764 1308.99 826.862 1313.25C815.332 1310.23 804.056 1306.33 792.738 1302.61C801.104 1290.28 809.194 1279.7 820.151 1269.58Z" fill="#BD868D"/>
<path d="M969.155 362.736C982.151 367.27 997.945 371.615 1009.7 378.762C1016.27 382.758 1018.35 384.682 1020.36 391.905L1013.05 398.981C1007.73 400.471 1003.22 400.734 997.765 400.77C983.608 393.472 970.384 386.76 963 371.828L969.155 362.736Z" fill="#362126"/>
<path d="M870.177 412.352C866.099 405.687 863.806 403.5 864.391 395.745C875.082 391.358 886.976 394.855 899.871 396.377C901 407.189 901.706 412.488 900.84 423.604C891.045 421.287 881.122 420.321 871.123 419.07L870.177 412.352Z" fill="#CA2127"/>
<path d="M899.874 396.374C901.002 407.186 901.709 412.485 900.843 423.601C891.047 421.284 881.125 420.318 871.125 419.067L870.18 412.349L893.136 415.491C900.234 409.338 898.328 407.762 899.874 396.374Z" fill="#820709"/>
<path d="M1053.79 1060.41C1057.92 1048.48 1052.65 1049.62 1060.6 1039.81C1070.66 1040.91 1074.42 1046.9 1083.53 1054.52C1076.79 1063.56 1072.8 1068.65 1067.52 1078.86L1057.38 1077.38C1057.17 1076.33 1051.47 1065.68 1050.6 1064.01L1053.79 1060.41Z" fill="#E02A31"/>
<path d="M329.456 634.623C332.969 648.588 336.125 674.087 334.399 688.374L328.569 687.774C323.593 681.479 315.367 672.361 314.244 664.274C312.589 652.354 322.382 642.934 329.456 634.623Z" fill="#EC353A"/>
<path d="M1289.26 1083.96C1294.32 1090.11 1298.63 1095.04 1301.03 1102.72C1296.51 1109.77 1291.58 1109.97 1284 1112.54L1275.34 1109.95L1273.19 1105.54C1277.65 1097.51 1283.36 1090.94 1289.26 1083.96Z" fill="#FA4C4F"/>
<path d="M249.273 437.743C247.193 432.535 247.583 435.201 249.063 429.591L258.942 428.994L265.138 430.661C267.892 440.101 268.312 435.644 263.693 444.461C256.362 445.064 253.694 444.591 249.273 437.743Z" fill="#820709"/>
<path d="M249.273 437.743C247.193 432.535 247.583 435.201 249.063 429.591L258.942 428.994L249.273 437.743Z" fill="#0F0707"/>
<path d="M1198.04 713.659C1200.66 715.489 1203.88 717.496 1205.94 719.943C1210.85 725.757 1208.59 731.662 1207.55 738.374L1204.99 738.664C1202.61 730.344 1200.3 722.009 1198.04 713.659Z" fill="#654C56"/>
<path d="M702.302 539.916C701.631 532.748 699.63 523.982 703.185 518.277L707.236 525.989L702.302 539.916Z" fill="#362126"/>
</svg>
