<svg width="1401" height="1400" viewBox="0 0 1401 1400" fill="none" xmlns="http://www.w3.org/2000/svg">
<path d="M764.641 0.614071C772.386 0.235749 778.083 -1.39872 784.794 2.95789C785.905 28.2552 764.124 51.9476 766.606 83.0971C770.864 136.562 804.146 180.352 810.381 234.05C815.218 232.803 820.079 231.751 824.928 230.575C863.477 221.211 958.561 243.157 995.157 256.971L950.526 296.013C987.853 306.39 1024.56 315.109 1062.76 321.821C1055.3 335.529 1046.1 347.458 1036.55 359.757C1051.53 366.753 1078.53 375.371 1088.27 388.137L1086.94 394.314C1076.5 405.105 1059.65 410.207 1045.94 415.932C1087.98 453.663 1114.13 492.007 1142.14 540.565C1149 552.464 1157.77 564.346 1163.49 576.781C1166.32 582.934 1165.05 590.054 1168.32 595.966C1176.47 610.708 1190.68 624.222 1200.61 638.075C1209.24 650.11 1214.55 665.515 1220.16 679.17C1230.04 683.121 1240.37 686.97 1248.76 693.694C1270.11 710.804 1268.14 751.636 1271.69 776.998C1278.32 783.61 1287.01 792.034 1289.37 801.297C1292.64 814.151 1284.58 825.563 1278.72 836.419L1297.35 868.898L1279.86 886.008C1281.63 897.133 1283.23 908.309 1283.48 919.587C1283.99 942.677 1270.09 1025.05 1253.78 1039.82C1243.35 1049.27 1228.11 1048.36 1217.43 1059.58C1216.68 1060.37 1215.97 1061.2 1215.2 1061.97C1198.55 1078.77 1189.95 1072.59 1169.96 1075.1C1161.53 1076.16 1158.64 1079.95 1153.21 1085.7C1155.64 1087.8 1157.75 1089.22 1160.83 1090.22C1174.75 1094.73 1185.99 1098 1197.87 1106.91L1200.65 1109.04C1241.24 1108.81 1264.43 1098.41 1303.66 1114.2C1312.47 1104.12 1308.26 1090.71 1317.54 1080.48C1318.55 1080.49 1319.57 1080.44 1320.58 1080.51C1331.13 1081.24 1345.02 1098.09 1351.72 1105.55C1361.35 1100.42 1376.56 1090.31 1387.82 1091.8C1394.82 1092.73 1395.47 1095.08 1399.37 1100.15C1402.68 1118.87 1393.84 1135.25 1386.49 1151.92C1391.07 1158.43 1399.31 1169.39 1399.69 1177.35C1399.93 1182.04 1398.39 1182.31 1395.56 1185.69C1383.12 1191.15 1365.33 1188.9 1351.8 1188.66C1307.73 1223.65 1263.59 1230.23 1208.74 1228.19C1209.25 1231.68 1209.66 1235.07 1209.95 1238.59C1213.17 1278.15 1197.25 1314 1171.53 1343.6C1141.11 1378.61 1098.72 1396.7 1052.82 1399.34C1024.18 1400.99 968.155 1399.15 946.186 1376.93C936.824 1367.47 944.888 1338.11 945.887 1325.28C946.469 1317.79 947.164 1306.23 942.607 1299.8C931.337 1283.91 887.223 1264.18 869.11 1250.68C854.093 1239.49 841.975 1226.47 829.856 1212.27C808.85 1205.42 792.441 1194.33 772.699 1185.31C766.435 1187.23 761.234 1190 755.534 1193.2C751.081 1191.42 746.669 1189.54 742.299 1187.56C700.57 1203.7 658.734 1246.56 622.288 1273.3C614.381 1299.83 609.295 1329.11 596.935 1353.96C588.623 1370.66 577.498 1383.58 559.136 1389.48C499.535 1408.64 384.855 1358.31 331.651 1330.73C301.836 1314.16 253.166 1288.08 237.59 1256.91C234.047 1249.82 232.995 1241.76 235.714 1234.21C248.24 1199.42 318.877 1188.72 348.819 1177.89C363.813 1172.46 378.123 1164.79 392.274 1157.5C398.725 1129.29 408.816 1106.28 423.198 1081.45L389.195 1090.92L389.322 1054.02C383.288 1056.21 377.204 1058.27 371.076 1060.18C301.458 1081.7 318.889 1041.6 287.135 1025.86C282.824 1023.73 280.008 1021.66 276.273 1018.57C268.862 986.326 251.464 1004.6 233.944 983.615C216.947 963.26 179.748 907.428 174.893 882.929C173.398 875.371 176.746 864.48 177.576 856.629C167.145 850.703 154.61 844.393 146.142 835.81C139.608 829.189 134.475 820.29 135.25 810.687C136.795 791.528 154.327 776.268 168.445 765.522L57.5117 572.711C42.5391 547.056 17.0263 516.391 8.94169 488.058C-3.83537 443.262 -1.09898 378.377 5.86576 332.642C53.5315 349.226 97.0633 368.033 142.049 390.983C160.148 420.803 176.128 452.277 191.331 483.648C206.853 515.679 274.97 681.552 292.759 692.612C314.847 689.772 332.83 668.391 346.104 652.075L326.001 635.01C331.873 626.341 338.273 617.935 344.411 609.446C318.147 589.812 315.231 567.591 297.643 552.293C288.542 544.375 270.656 552.323 260.556 543.663C261.844 529.304 286.94 502.898 296.231 490.228C269.297 482.499 244.002 469.556 223.489 450.386C247.203 442.524 268.023 432.977 288.923 419.177C270.603 398.878 256.605 373.808 253.904 346.226C245.858 264.16 328.723 230.601 355.314 163.807C365.302 138.722 362.796 109.807 362.397 83.3424C390.983 99.9088 423.375 122.315 437.207 153.645C447.747 177.524 444.408 202.357 435.401 225.784L437.44 228.311L467.397 226.667C476.877 218.185 486.312 209.962 497.337 203.513C502.466 200.51 507.948 197.265 514.1 197.607C528.993 198.441 542.963 207.03 558.385 208.005C583.641 209.604 591.891 199.011 621.96 206.995C645.889 194.401 616.91 115.996 643.224 73.2578C668.689 31.8936 719.724 11.6563 764.641 0.614071Z" fill="#020101"/>
<path d="M519.191 207.587C532.19 211.831 547.898 216.507 560.176 221.975C575.559 216.353 595.156 211.098 611.408 215.514L616.414 220.609C609.898 237.61 601.861 240.211 605.055 260.744C612.921 311.3 655.856 345.654 704.878 355.676C727.728 352.342 744.072 350.569 767.043 353.093L785.973 355.268C795.807 357.222 817.986 358.579 820.994 367.975C779.327 422.879 762.289 432.337 697.101 399.42L692.733 408.295C683.31 417.798 673.701 434.589 671.738 436.365C669.717 456.679 668.015 465.354 679.661 483.126L682.299 480.457C681.711 461.671 680.727 439.475 696.746 427.693C715.518 426.05 698.401 431.675 716.591 437.095C720.087 426.34 717.714 428.311 725.264 422.388C739.941 437.075 737.686 446.169 735.606 466.055C737.205 492.055 749.06 629.886 735.198 642.412C697.922 676.091 539.621 756.804 493.255 742.924C465.346 761.518 434.405 755.669 405.92 742.507C356.472 711.565 362.598 687.657 372.946 636.335C375.656 651.122 374.766 669.524 383.439 680.947C388.388 660.033 384.648 644.401 379.503 623.836C369.917 614.109 354.401 601.695 343.654 592.556L328.862 576.196C308.148 552.743 308.027 504.357 305.367 473C299.431 436.838 291.027 387.594 298.757 352.283C308.431 297.79 344.895 270.276 394.869 252.471C416.301 243.22 449.1 237.134 472.426 235.272C489.225 220.355 497.72 214.876 519.191 207.587Z" fill="#EC353A"/>
<path d="M679.664 483.127L682.302 480.458C681.714 461.672 680.73 439.475 696.749 427.694C715.522 426.051 698.404 431.675 716.594 437.096C720.09 426.34 717.717 428.312 725.267 422.389C739.944 437.075 737.689 446.17 735.609 466.055C737.208 492.056 749.063 629.886 735.201 642.412C697.925 676.092 539.624 756.805 493.259 742.925C465.349 761.519 434.409 755.67 405.923 742.508C356.476 711.566 362.601 687.657 372.949 636.336C375.659 651.123 374.769 669.524 383.442 680.948L395.782 680.162C403.518 694.987 416.788 694.538 431.832 701.306L436.421 704.309C456.694 688.293 433.62 662.322 483.643 639.808L516.842 652.515C574.182 661.961 561.503 661.793 589.326 625.03C625.37 577.4 708.152 669.796 671.691 535.046C675.787 531.611 674.416 532.814 677.072 527.775C675.855 517.43 673.577 515.654 666.727 507.555C658.702 488.308 657.924 453.246 671.742 436.366C669.721 456.68 668.018 465.355 679.664 483.127Z" fill="#E73339"/>
<path d="M679.66 483.127L682.299 480.458C681.711 461.672 680.727 439.475 696.745 427.694C715.518 426.051 698.4 431.675 716.591 437.096C720.086 426.34 717.714 428.312 725.263 422.389C739.94 437.075 737.686 446.17 735.606 466.055C731.218 461.356 730.718 460.097 724.782 457.466C717.584 470.391 722.959 507.526 715.982 515.748C695.07 503.477 713.896 494.867 681.897 486.426L679.66 483.127Z" fill="#CA2127"/>
<path d="M679.66 483.125L682.299 480.456C681.711 461.67 680.727 439.473 696.745 427.692C715.518 426.049 698.4 431.673 716.591 437.094C713.668 456.353 704.839 483.973 681.897 486.423L679.66 483.125Z" fill="#310000"/>
<path d="M405.918 742.508C433.437 742.511 450.259 738.699 477.675 733.739C479.581 733.393 490.55 740.948 493.253 742.925C465.344 761.519 434.403 755.67 405.918 742.508Z" fill="#CA2127"/>
<path d="M535.697 527.829C574.702 481.556 600.12 462.217 655.019 506.064L666.721 507.554C673.57 515.652 675.848 517.428 677.066 527.773C674.409 532.813 675.78 531.61 671.685 535.044C708.146 669.795 625.364 577.398 589.32 625.029C561.496 661.791 574.176 661.959 516.835 652.513C529.813 637.528 523.626 612.701 522.021 593.391C500.926 581.838 473.333 572.995 450.332 564.884L453.76 562.399C462.456 557.85 476.309 527.04 491.846 511.263C507.855 515.324 520.644 521.312 535.697 527.829Z" fill="#020101"/>
<path d="M655.023 506.064L666.725 507.554C673.574 515.653 675.853 517.429 677.07 527.774C674.414 532.813 675.785 531.61 671.689 535.044C667.053 524.584 661.084 515.753 655.023 506.064Z" fill="#E02A31"/>
<path d="M608.234 558C620.234 557.66 632.198 557.497 643.622 561.789C650.069 564.21 655.125 568.463 657.897 574.838C661.632 583.427 662.329 590.595 658.63 599.145C643.82 609.658 616.942 598.782 599.922 602.559C585.614 605.733 575.83 625.64 568.951 636.977C566.705 639.008 564.205 641.346 561.469 642.682C553.322 646.66 550.202 645.853 542.41 642.773C537.177 635.245 535.667 628.737 535.897 619.521C536.305 603.487 541.015 585.792 553.509 574.933C564.25 565.593 580.717 561.656 594.753 565.247C595.776 565.51 596.739 565.962 597.732 566.317L608.234 558Z" fill="#883288"/>
<path d="M347.069 588.466C343.55 576.244 338.084 540.623 349.72 532.72C356.02 538.208 367.077 568.459 372.337 579.457C383.066 561.268 387.321 555.788 401.458 540.032C419.917 550.394 434.107 555.183 453.763 562.397L450.335 564.883C473.336 572.993 500.929 581.836 522.024 593.39C523.629 612.699 529.816 637.527 516.838 652.512L483.64 639.805C433.616 662.319 456.691 688.29 436.417 704.306L431.828 701.303C416.785 694.535 403.514 694.984 395.778 680.159L383.439 680.945C388.388 660.031 384.647 644.399 379.503 623.833C369.917 614.106 354.401 601.692 343.654 592.554L347.069 588.466Z" fill="#330000"/>
<path d="M431.836 701.306C440.845 678.996 443.103 652.511 460.812 637.771C472.448 634.827 470.726 636.329 483.647 639.808C433.624 662.321 456.699 688.292 436.425 704.308L431.836 701.306Z" fill="#FA4C4F"/>
<path d="M347.08 588.467C383.319 620.311 397.461 629.447 395.789 680.16L383.449 680.946C388.399 660.032 384.658 644.399 379.513 623.834C369.927 614.107 354.411 601.693 343.664 592.554L347.08 588.467Z" fill="#B8181E"/>
<path d="M312.222 396.256C320.188 400.24 335.418 406.06 344.15 409.737L346.174 409.666C349.773 404.869 348.668 406.376 354.013 402.944C364.069 410.221 398.845 437.803 409.013 436.473L416.637 434.159L415.987 436.704C407.604 470.439 414.613 481.795 375.052 496.73C343.963 501.689 326.648 497.891 311.365 467.886C305.13 437.626 307.724 426.338 312.222 396.256Z" fill="#020101"/>
<path d="M317.855 412.012C346.069 427.414 378.31 438.373 404.904 456.169C404.848 464.885 401.069 468.325 396.347 475.233C384.217 481.942 370.287 487.135 356.216 485.997C344.966 485.131 334.639 479.445 327.893 470.397C315.512 453.801 315.659 431.596 317.855 412.012Z" fill="#FFFC59"/>
<path d="M305.371 473.002L311.367 467.889C326.649 497.894 343.965 501.692 375.054 496.733C368.172 504.376 365.125 508.532 355.126 512.025C337.411 511.475 326.271 495.79 319.15 500.04C315.169 527.392 333.771 560.533 328.866 576.198C308.152 552.745 308.031 504.358 305.371 473.002Z" fill="#FA4C4F"/>
<path d="M298.754 352.285C308.428 297.791 344.892 270.277 394.866 252.473L395.979 259.486C366.684 275.872 322.207 302.73 312.219 336.738C310.526 342.664 308.939 348.623 307.459 354.608L303.718 356.526L298.754 352.285Z" fill="#FA4C4F"/>
<path d="M704.887 355.678C727.737 352.344 744.081 350.571 767.052 353.095L785.982 355.27C795.816 357.224 817.995 358.58 821.003 367.976C794.574 373.098 741.794 360.853 713.019 361.438C713.019 361.438 705.679 356.237 704.887 355.678Z" fill="#FA4C4F"/>
<path d="M344.156 409.74C329.958 391.483 323.345 383.408 312.684 362.382C325.144 377.246 339.703 389.863 354.02 402.948C348.675 406.379 349.78 404.872 346.181 409.669L344.156 409.74Z" fill="#200F11"/>
<path d="M403.395 374.632L410.079 390.48C411.798 404.735 415.356 421.112 416.638 434.158L409.015 436.473C405.791 413.005 404.027 398.46 403.395 374.632Z" fill="#200F11"/>
<path d="M403.395 374.634L405.377 363.97L407.809 362.4C409.783 374.326 410.297 378.024 410.079 390.482L403.395 374.634Z" fill="#820709"/>
<path d="M692.739 408.294C688.891 405.205 686.001 401.212 682.863 397.364L685.1 394.319L697.106 399.418L692.739 408.294Z" fill="#200F11"/>
<path d="M551.132 325.576L552.071 328.198C537.953 343.464 525.128 358.969 512.676 375.615C539.28 361.212 585.932 334.443 616.379 343.455C617.035 343.65 617.677 343.892 618.333 344.087C618.507 344.138 618.687 344.158 618.864 344.194C617.207 348.985 615.138 352.094 612.062 356.013C609.692 359.034 612.39 372.509 612.641 376.898C614.042 401.442 608.309 426.736 591.416 445.315C569.473 469.445 540.863 472.936 510.002 474.035C501.805 473.485 482.146 472.386 475.802 467.417C467.96 461.273 463.093 449.137 456.099 441.68C443.032 427.75 419.673 420.582 416.317 398.604C414.753 388.363 420.554 381.456 426.688 374.037C428.331 391.215 428.509 411.367 440.683 424.841C463.043 430.599 497.16 370.481 512.671 354.459C524.08 342.675 536.998 333.737 551.132 325.576Z" fill="#020101"/>
<path d="M595.06 354.921C599.46 355.876 599.31 356.845 602.111 360.132C605.181 371.611 605.258 381.649 602.876 393.261C598.538 414.439 584.573 433.42 566.539 445.071C540.693 461.767 512.275 462.672 483.016 456.465C476.796 452.962 474.086 450.418 470.312 444.332C470.49 441.512 470.617 439.157 471.855 436.559C487.309 404.147 562.55 367.624 595.06 354.921Z" fill="#FFFC59"/>
<path d="M388.129 495.745C401.594 499.697 412.017 505.144 419.575 517.342C405.312 513.893 397.1 506.781 388.129 495.745Z" fill="#200F11"/>
<path d="M460.309 493.922L460.923 495.763C457.764 503.288 444.553 507.533 437.207 511.384L435.254 507.154C441.105 498.952 451.137 497.034 460.309 493.922Z" fill="#390202"/>
<path d="M879.88 700.919L880.409 689.827C895.429 683.144 910.032 700.869 922.75 697.529C925.037 691.506 924.461 687.447 924.367 681.048L928.61 680.528C957.476 705.134 984.378 727.213 983.988 765.899C983.861 778.428 986.715 787.02 992.135 798.21C992.755 804.881 993.429 804.104 991.473 810.083L998.804 813.399C1000.36 819.216 1002.72 825.074 998 830.666C977.706 854.737 949.04 882.44 983.826 909.658C985.667 911.098 988.131 911.476 990.371 911.928L991.624 908.24L1012.67 908.704L1015.47 911.588L1023.34 911.512C1025.77 934.468 936.727 966.563 917.878 974.183C886.86 981.788 848.165 994.308 818.022 999.261L809.42 999.726C772.608 1006.84 744.891 1009.18 707.745 1013.01C697.692 1015.86 674.487 1016.14 664.591 1014.09C645.083 1014.11 623.464 1012.47 603.826 1011.4C590.05 1012.15 588.245 1012.17 575.066 1007.33C560.702 1008.12 534.578 1000.37 519.782 996.542C515.56 993.341 517.433 995.295 515.548 989.165C499.854 984.38 496.61 982.822 486.058 970.264L480.207 972.067L477.427 974.455C468.122 973.976 448.445 961.556 441.639 955.831C415.598 933.924 440.313 902.118 435.201 869.636C431.758 847.755 420.16 840.065 419.705 831.706C426.711 837.987 429.504 838.371 438.761 839.627C424.451 829.747 419.723 822.573 412.002 807.831L408.719 803.846L409.685 798.577L411.316 799.378C413.449 796.132 415.226 789.154 416.505 785.099C422.749 782.879 469.927 813.302 494.772 820.581C608.882 854.021 792.238 852.863 897.149 793.032L897.642 789.73L884.694 788.433C897.158 776.87 927.422 749.962 924.21 731.844C921.341 715.644 901.395 710.9 888.636 700.89L886.706 699.341L879.88 700.919Z" fill="#4C363A"/>
<path d="M879.88 700.919L880.409 689.827C895.429 683.144 910.032 700.869 922.75 697.529C925.038 691.506 924.461 687.447 924.367 681.048L928.61 680.528C957.477 705.134 984.378 727.213 983.988 765.899C983.861 778.428 986.715 787.02 992.135 798.21C992.755 804.881 993.429 804.104 991.473 810.083C845.352 890.068 671.854 902.453 510.155 866.187C488.906 861.422 455.829 843.103 438.761 839.627C424.451 829.747 419.723 822.573 412.002 807.831L408.719 803.846L409.685 798.577L411.316 799.378C413.449 796.132 415.226 789.154 416.505 785.099C422.749 782.879 469.927 813.302 494.772 820.581C608.882 854.021 792.238 852.863 897.149 793.032L897.642 789.73L884.694 788.433C897.158 776.87 927.422 749.962 924.21 731.844C921.341 715.644 901.395 710.9 888.636 700.89L886.706 699.341L879.88 700.919Z" fill="#362126"/>
<path d="M412.012 807.83L413.607 806.257C522.579 902.457 754.983 883.175 884.713 844.737C916.263 835.388 970.373 801.428 992.145 798.209C992.765 804.88 993.439 804.103 991.483 810.082C845.362 890.067 671.864 902.451 510.165 866.186C488.917 861.421 455.839 843.102 438.772 839.626C424.461 829.746 419.733 822.572 412.012 807.83Z" fill="#BD868D"/>
<path d="M708.417 932.205C724.09 902.784 757.51 890.563 773.739 925.38C774.731 917.332 773.975 920.152 781.362 913.239L782.801 940.2C785.679 957.52 786.152 971.476 788.232 988.176L843.983 977.967L847.948 976.507C855.265 977.113 867.501 973.995 875.148 972.437L872.043 950.562C888.378 948.594 893.268 947.311 909.006 942.298L910.436 936.724C923.627 945.55 919.053 958.921 917.888 974.181C886.871 981.786 848.176 994.306 818.033 999.259L809.431 999.724C772.619 1006.84 744.901 1009.18 707.755 1013C697.703 1015.86 674.498 1016.14 664.602 1014.09C645.093 1014.11 623.475 1012.47 603.837 1011.4C590.061 1012.15 588.255 1012.17 575.076 1007.33C560.713 1008.12 534.588 1000.37 519.793 996.54C515.57 993.339 517.444 995.293 515.559 989.163C544.272 982.746 546.372 969.331 553.302 943.726L556.091 945.263L560.825 925.094C587.348 899.388 612.087 900.535 628.354 936.573L632.293 935.53C655.462 899.787 690.501 897.423 702.469 941.914L708.417 932.205Z" fill="#0F0707"/>
<path d="M708.414 932.205C724.087 902.784 757.507 890.563 773.736 925.38C774.729 917.332 773.972 920.152 781.359 913.239L782.798 940.2L778.307 940.679C779.456 955.312 782.335 969.381 771.534 980.668C746.19 1007.16 716.564 991.439 707.008 960.552L701.535 959.87L702.466 941.914L708.414 932.205Z" fill="#FC6D36"/>
<path d="M781.362 913.239L782.801 940.201L778.309 940.679C767.556 941.356 750.657 940.845 743.734 948.24C745.983 954.243 748.125 955.877 752.442 960.509L754.047 962.211L751.242 968.326C742.011 971.66 746.426 971.767 737.555 968.439C731.205 960.089 727.576 956.498 725.617 945.958C734.591 916.981 757.652 933.973 773.738 925.381C774.731 917.333 773.975 920.152 781.362 913.239Z" fill="#020101"/>
<path d="M702.466 941.916L708.414 932.207C708.131 939.312 707.983 954.158 707.008 960.554L701.535 959.872L702.466 941.916Z" fill="#390202"/>
<path d="M632.288 935.533C655.458 899.79 690.497 897.426 702.464 941.917L701.533 959.872C690.305 1004.55 646.51 1018.58 630.663 966.647L626.003 963.907C625.876 956.592 627.557 944.275 628.349 936.576L632.288 935.533Z" fill="#FC6D36"/>
<path d="M628.349 936.576L632.288 935.532L630.663 966.646L626.003 963.906C625.876 956.591 627.557 944.275 628.349 936.576Z" fill="#600808"/>
<path d="M664.752 923.374C666.362 924.341 667.94 925.348 669.436 926.492C675.387 931.047 678.108 937.209 678.98 944.584C680.703 959.17 674.601 971.731 666.277 983.081C660.207 979.123 656.895 975.245 654.643 968.202C649.833 953.149 658.103 936.524 664.752 923.374Z" fill="#020101"/>
<path d="M560.824 925.094C587.348 899.388 612.086 900.535 628.353 936.573C627.561 944.273 625.88 956.589 626.007 963.904C604.888 1018.62 555.172 1007.95 556.091 945.263L560.824 925.094Z" fill="#FC6D36"/>
<path d="M590.722 923.327C591.215 923.632 591.717 923.924 592.202 924.238C598.992 928.65 601.98 933.435 603.339 941.457C605.877 956.407 600.027 970.476 591.874 982.606C585.524 978.837 582.374 975.61 580.347 968.309C575.909 952.322 582.492 936.716 590.722 923.327Z" fill="#020101"/>
<path d="M706.318 978.147C727.306 1003.08 732.075 1001.96 763.72 997.294C776.582 1003.62 791.599 998.314 809.435 999.724C772.623 1006.84 744.906 1009.18 707.759 1013C703.023 1009.49 700.91 1010.04 695.074 1010.02L680.601 1009.97L679.434 1006.74C689.587 998.234 697.66 988.179 706.318 978.147Z" fill="#4C363A"/>
<path d="M628.211 981.605C644.732 1011.45 659.317 999.7 664.601 1014.09C645.092 1014.11 623.474 1012.47 603.836 1011.4C611.992 1000.99 619.571 991.598 628.211 981.605Z" fill="#412D33"/>
<path d="M909.002 942.299C912.536 952.907 912.832 949.177 910.648 959.161C901.606 967.626 887.8 969.313 875.145 972.438L872.039 950.563C888.374 948.594 893.264 947.312 909.002 942.299Z" fill="#FC6D36"/>
<path d="M519.789 996.541C533.529 994.492 539.95 987.978 548.384 976.912C552.547 982.22 574.745 1005.74 575.073 1007.33C560.709 1008.12 534.584 1000.37 519.789 996.541Z" fill="#4C363A"/>
<path d="M763.707 997.295C775.423 988.49 773.715 986.732 789.985 988.872C800.664 990.276 809.78 992.155 818.024 999.261L809.423 999.725C791.587 998.315 776.57 1003.62 763.707 997.295Z" fill="#413435"/>
<path d="M557.59 920.087C607.643 873.825 605.182 915.937 632.396 921.772C660.477 891.441 675.119 894.766 704.798 920.267L714.437 910.425C738.519 886.212 745.15 898.798 771.641 902.392C776.951 903.113 788.605 894.429 802.142 894.373C818.932 909.985 807.854 926.498 816.68 948.89C825.447 955.626 821.263 954.225 832.433 954.071C850.783 938.622 824.838 910.644 836.392 891.438C854.06 880.671 893.02 867.672 910.298 882.878C912.665 892.073 912.895 892.44 910.747 901.461C906.61 914.82 902.659 923.764 910.437 936.724L909.006 942.299C893.268 947.311 888.378 948.594 872.043 950.563L875.149 972.437C867.502 973.995 855.265 977.113 847.949 976.507L843.983 977.967L788.233 988.176C786.153 971.477 785.68 957.52 782.802 940.2L781.363 913.239C773.976 920.152 774.732 917.332 773.739 925.381C757.511 890.563 724.091 902.785 708.418 932.205L702.469 941.914C690.502 897.423 655.463 899.788 632.293 935.53L628.354 936.574C612.087 900.535 587.349 899.389 560.825 925.094L557.59 920.087Z" fill="#0F0707"/>
<path d="M836.891 893.439C852.233 890.04 884.94 879.864 900.25 884.149C903.87 885.163 905.217 891.586 907.132 896.273L910.746 901.464C906.609 914.823 902.658 923.767 910.436 936.727L909.005 942.302C893.267 947.314 888.377 948.597 872.042 950.566L875.148 972.44C867.501 973.998 855.264 977.116 847.948 976.51C846.819 953.217 840.51 917.516 836.891 893.439Z" fill="#FC6D36"/>
<path d="M907.121 896.271L910.735 901.462C906.598 914.821 902.647 923.765 910.424 936.725L908.994 942.3C893.256 947.312 888.366 948.595 872.031 950.564C870.823 947.357 870.515 943.29 870.013 939.784L873.299 935.904C884.69 934.37 896.371 935.381 898.46 922.535C891.545 915.276 880.29 916.89 867.07 915.105L865.746 911.857C879.832 901.781 890.437 900.853 907.121 896.271Z" fill="#020101"/>
<path d="M781.363 913.237C783.346 903.655 781.289 906.434 788.145 901.746C799.32 901.164 795.337 899.778 803.522 905.925C810.416 920.035 809.098 943.967 809.645 960.572C820.096 958.672 830.164 955.205 838.99 959.65C843.434 966.936 843.044 969.182 843.984 977.966L788.233 988.175C786.153 971.475 785.68 957.519 782.802 940.199L781.363 913.237Z" fill="#FC6D36"/>
<path d="M486.058 970.264C480.045 944.479 480.11 911.139 509.097 898.773C515.643 895.912 523.066 895.82 529.676 898.522C542.175 903.638 547.42 911.872 552.207 923.411L555.771 918.724L557.579 920.089L560.814 925.096L556.081 945.265L553.291 943.728C546.362 969.333 544.261 982.749 515.548 989.165C499.855 984.38 496.61 982.823 486.058 970.264Z" fill="#FC6D36"/>
<path d="M553.292 943.728C546.014 937.066 530.013 937.755 520.947 940.217L519.174 944.458L525.74 960.135L522.907 964.822C511.634 965.801 515.708 967.098 507.547 960.868C501.309 945.986 500.875 929.922 513.468 918.543C534.256 915.602 529.939 932.715 552.208 923.411L555.771 918.723L557.58 920.089L560.815 925.096L556.081 945.265L553.292 943.728Z" fill="#020101"/>
<path d="M480.219 972.064C458.751 892.725 540.919 863.855 555.782 918.72L552.218 923.408C547.431 911.869 542.186 903.635 529.687 898.519C523.077 895.817 515.654 895.909 509.109 898.77C480.121 911.136 480.056 944.476 486.069 970.261L480.219 972.064Z" fill="#0F0707"/>
<path d="M938.784 485.629C937.186 475.083 934.346 461.342 935.336 451.071C962.24 445.264 981.057 451.163 1000.21 426.773C1006.28 419.044 1014.46 416.833 1023.5 413.688C1108.67 487.908 1098.76 501.252 1152.26 585.444C1148 589.809 1150.6 588.216 1143.67 589.256C1157.37 608.693 1172.15 623.563 1185.41 640.537C1192.73 649.909 1208.83 696.788 1213.28 709.657C1170.41 736.805 1148.5 740.183 1099.13 749.473C1070.1 753.203 1033.59 754.84 1003.9 756.936C985.017 709.917 979.686 715.572 954.312 682.016L956.508 678.827C958.801 678.877 965.189 675.892 967.787 674.84L965.65 678.818L968.079 675.399C942.25 656.199 935.951 680.092 901.224 641.001C894.369 632.828 887.185 625.628 883.397 615.828C888.054 608.705 891.364 610.156 901.972 607.844C908.898 589.457 878.584 513.905 870.375 491.363C893.063 491.375 916.188 488.171 938.784 485.629Z" fill="#F03A3E"/>
<path d="M938.784 485.63C934.251 501.153 930.576 500.311 914.926 507.309C894.242 546.037 937.7 607.677 973.46 622.526C1002.3 634.5 1008.8 629.933 1037.49 634.73C1032.39 642.226 1024.23 644.088 1014.97 645.956L1031.5 647.377L1033.56 650.608C1013.97 662.655 1022.57 686.761 1033.48 702.674C1049.87 726.582 1070.62 742.499 1099.13 749.474C1070.1 753.204 1033.59 754.841 1003.9 756.937C985.017 709.919 979.686 715.573 954.312 682.017L956.508 678.828C958.801 678.878 965.189 675.893 967.787 674.841L965.65 678.819L968.079 675.4C942.25 656.2 935.951 680.093 901.224 641.002C894.369 632.83 887.185 625.63 883.397 615.829C888.054 608.706 891.364 610.157 901.972 607.846C908.898 589.459 878.584 513.906 870.375 491.364C893.063 491.376 916.188 488.172 938.784 485.63Z" fill="#CA2127"/>
<path d="M901.973 607.848C900.487 621.961 899.807 626.737 901.226 641.004C894.37 632.832 887.187 625.632 883.398 615.831C888.055 608.708 891.365 610.159 901.973 607.848Z" fill="#CA2127"/>
<path d="M1031.5 647.378C1058.35 621.472 1062.05 614.917 1064.43 578.825C1068.87 604.897 1061.82 641.372 1033.56 650.609L1031.5 647.378Z" fill="#820709"/>
<path d="M975.664 492.813C987.697 494.528 997.463 496.807 1007.66 503.939C1020.47 512.906 1033.11 525.568 1034.91 541.939C1036.06 552.399 1032.35 555.633 1026.45 563.681C1008.03 563.22 996.281 557.533 982.691 545.347C973.327 536.953 965.789 525.796 965.378 512.847C965.098 504.042 970.086 499.017 975.664 492.813Z" fill="#FA4C4F"/>
<path d="M760.076 1025.66C857.781 1009.75 943.11 990.761 1027.69 934.185C1024.91 958.743 1021.98 973.923 1016.68 997.982C1018.66 1003.1 1027.25 1025.29 1029.71 1027.78C1060.16 1058.55 1064.15 1042.26 1069.63 1090.14C1052.95 1085.39 1018.82 1077.32 1003.1 1070.65C1001.06 1069.78 1002.21 1063.56 993.872 1058.86C993.76 1059 968.679 1136.09 968.72 1138.31L964.344 1146.72C930.413 1136.8 863.132 1107.99 830.675 1091.92C811.802 1122.98 784.339 1162.16 750.219 1176.73C720.811 1180.14 703.377 1143.33 699.775 1118.36L651.084 1164.11C635.074 1139.75 603.522 1096.06 584.427 1075.34C547.922 1094.91 526.135 1103.94 487.855 1118.96C476.856 1096.59 467.132 1077.56 458.557 1054.13C440.082 1061.98 421.673 1069.99 403.332 1078.14C405.705 1050.87 412.947 1026.78 411.402 996.747C410.719 983.502 410.737 969.818 420.107 960.904C434.737 960.218 472.264 990.241 491.696 1001.35C523.479 1013.17 542.583 1019.77 576.942 1025.1C647.515 1031.45 688.207 1031.4 760.076 1025.66Z" fill="#4C363A"/>
<path d="M699.777 1118.36L704.999 1106.86L710.255 1105.4C730.059 1120.75 726.534 1155.15 750.221 1176.73C720.813 1180.14 703.379 1143.33 699.777 1118.36Z" fill="#362126"/>
<path d="M576.949 1025.1C647.522 1031.45 688.214 1031.4 760.083 1025.66C707.92 1043.23 645.846 1039.99 591.056 1037.13L576.949 1025.1Z" fill="#362126"/>
<path d="M491.703 1001.35C523.486 1013.16 542.59 1019.77 576.95 1025.1L591.056 1037.13C582.537 1036.36 574.027 1035.48 565.532 1034.48C539.283 1031.34 508.8 1023.12 491.703 1001.35Z" fill="#362126"/>
<path d="M998.208 1081.23C1029.07 1093.03 1047.94 1100.62 1081.57 1103.48C1079.57 1112.68 1081.27 1119.31 1082.58 1128.65C1089.63 1128.71 1100.18 1128.44 1106.89 1128.96C1117.16 1152.56 1137.55 1154.31 1159.14 1166.47C1183.76 1180.32 1208.37 1250.14 1184.72 1269.61C1146.15 1270.67 1151.16 1292.26 1147.38 1325.41L1110.13 1300.36L1091.98 1300.79C1079.13 1312.82 1076.9 1318.45 1073.39 1334.87L1072.62 1338.58L1069.32 1338.75C1062.91 1335.62 1055.31 1320.1 1049.79 1312.12C1028.92 1300.36 1019.96 1317 1008.31 1332.31C998.94 1324.36 1002.87 1312.38 990.096 1304.28C975.783 1302.14 978.312 1304.73 962.4 1311.59C957.551 1305.54 961.49 1311.68 959.129 1305.95C936.627 1251.27 881.394 1264.47 845.057 1201.27C822.077 1195.22 808.381 1188.52 788.039 1176.59C804.669 1159.1 823.835 1128.35 837.179 1107.61C866.114 1123.63 922.547 1149.88 953.29 1160.63C961.534 1157.66 959.123 1157.79 964.335 1146.72L968.712 1138.31C984.89 1116.53 990.073 1107.09 998.208 1081.23Z" fill="#B8181E"/>
<path d="M1082.59 1128.65C1089.64 1128.7 1100.18 1128.44 1106.9 1128.96C1117.16 1152.56 1137.56 1154.31 1159.15 1166.47C1183.77 1180.32 1208.37 1250.14 1184.72 1269.61C1146.15 1270.66 1151.17 1292.26 1147.38 1325.41L1110.13 1300.36L1091.99 1300.79C1082.66 1284.24 1076.04 1278.28 1062.65 1264.48C1059.22 1258.11 1059.09 1258.43 1058.49 1250.78C1078.84 1230.72 1095.32 1237.27 1096.99 1200.39C1083.16 1218.32 1076.16 1226.99 1055.42 1236.08C1054.15 1236 1050.44 1235.97 1049.52 1235.49C1014.19 1235.78 983.691 1206.28 982.24 1171.54C981.799 1161.62 985.351 1151.92 992.1 1144.63C1011.8 1123.33 1051.63 1129.65 1082.59 1128.65Z" fill="#EC353A"/>
<path d="M1062.65 1264.48C1084.47 1274.62 1098.25 1278.53 1110.13 1300.36L1091.99 1300.79C1082.66 1284.24 1076.04 1278.28 1062.65 1264.48Z" fill="#CA2127"/>
<path d="M1049.52 1235.49C1072.43 1218.36 1076 1213.14 1092.64 1190.15L1095.8 1189.66L1096.99 1200.39C1083.16 1218.32 1076.16 1226.99 1055.42 1236.08C1054.15 1236 1050.44 1235.97 1049.52 1235.49Z" fill="#200F11"/>
<path d="M872.079 1169.14C873.559 1169.34 875.14 1169.47 876.544 1170.02C886.889 1174.02 896.324 1212.3 900.437 1224.52C899.288 1223.37 898.112 1222.24 897.048 1221.01C885.852 1208.07 871.042 1187.03 872.079 1169.14Z" fill="#0F0707"/>
<path d="M1025.77 1259.63L1027.68 1260.1C1020.95 1269.57 996.363 1273.58 984.898 1276.73L981.973 1274.9C990.332 1266.25 1013.91 1262.91 1025.77 1259.63Z" fill="#820709"/>
<path d="M823.564 254.303C876.98 249.21 916.756 244.883 969.646 260.028C948.164 275.306 943.371 285.819 918.033 293.699C929.341 304.776 1020.82 326.87 1040.91 330.94C1002.75 364.238 1012.11 342.508 993.912 350.926C1007.73 369.413 1062.76 372.895 1062.05 390.457C1051.91 397.968 1042.23 398.656 1030.71 402.209C981.608 417.36 946.536 416.981 899.822 396.239C914.298 421.146 918.633 444.475 924.909 472.237C901.166 474.191 875.695 475.822 852.156 478.349L887.136 595.422C872.976 598.15 861.623 601.041 848.019 593.947L847.756 597.405C853.846 615.453 858.397 625.785 859.502 645.033C859.676 650.028 859.206 652.259 861.641 656.548L864.51 660.754C865.53 672.6 868.05 675.216 862.17 682.587C853.509 682.652 840.251 673.646 833.227 668.382C807.076 642.6 794.949 606.952 780.55 573.29C773.452 553.411 768.266 539.776 764.167 518.83C757.389 491.056 755.04 461.807 751.996 433.326C787.186 426.744 799.922 418.533 822.246 389.973C826.959 380.961 830.993 375.263 831.64 365.178C825.783 356.438 823.455 357.886 811.892 353.81C803.048 354.337 799.857 353.018 791.107 350.867L785.969 355.268L767.04 353.092C761.668 348.889 760.288 348.343 757.445 341.973C790.383 308.885 796.518 301.877 811.552 257.368C812.725 253.889 819.38 254.613 823.564 254.303Z" fill="#4C363A"/>
<path d="M780.559 573.29C846.19 567.432 822.013 611.773 859.511 645.033C859.685 650.028 859.216 652.259 861.65 656.548L864.519 660.754C865.539 672.6 868.059 675.215 862.179 682.587C853.518 682.652 840.26 673.646 833.236 668.382C807.085 642.6 794.958 606.952 780.559 573.29Z" fill="#412D33"/>
<path d="M861.657 656.55L864.526 660.756C865.545 672.602 868.066 675.218 862.186 682.589C853.525 682.654 840.266 673.648 833.242 668.384C842.852 666.531 850.49 659.053 859.887 663.895L861.657 656.55Z" fill="#302D2D"/>
<path d="M767.056 353.093C761.684 348.89 760.304 348.343 757.461 341.974C790.399 308.885 796.534 301.878 811.568 257.369C812.741 253.89 819.396 254.614 823.58 254.304C826.582 273.456 830.379 291.004 827.371 310.192L827.04 312.373C823.997 331.777 817.91 337.177 811.908 353.811C803.064 354.337 799.873 353.019 791.123 350.867L785.985 355.268L767.056 353.093Z" fill="#362126"/>
<path d="M751.996 433.326C787.186 426.744 799.922 418.533 822.246 389.973C832.13 398.452 833.617 396.865 836.276 407.975C830.097 435.971 791.923 451.237 767.636 461.263C767.527 479.487 768.399 501.453 764.167 518.83C757.389 491.055 755.04 461.807 751.996 433.326Z" fill="#362126"/>
<path d="M753.123 540.254C771.456 588.626 797.657 671.044 846.729 693.968C853.283 697.03 872.727 703.29 879.892 700.919L886.718 699.341L888.648 700.89C901.407 710.901 921.353 715.644 924.222 731.844C927.434 749.962 897.17 776.871 884.706 788.433C777.224 836.066 650.523 841.918 536.336 818.681C510.093 820.915 437.778 789.444 420.367 769.295L421.484 766.227C465.376 766.408 518.476 762.385 560.383 748.425C617.676 729.335 715.921 690.158 755.269 645.717C756.406 629.709 755.928 609.466 755.99 593.11L753.123 540.254Z" fill="#4C363A"/>
<path d="M755.99 593.107C760.345 613.238 765.188 674.089 750.556 686.961C689.711 740.47 626.352 797.546 542.671 808.878C538.502 809.442 537.29 815.295 536.336 818.679C510.093 820.913 437.778 789.442 420.367 769.293L421.484 766.225C465.376 766.405 518.476 762.383 560.383 748.423C617.676 729.333 715.921 690.156 755.269 645.715C756.406 629.707 755.928 609.464 755.99 593.107Z" fill="#362126"/>
<path d="M16.0078 355.167L18.3304 348.215C40.6991 349.604 113.018 386.216 134.763 398.224C167.158 461.2 189.612 507.432 216.28 573.219C220.272 581.861 224.888 591.281 228.295 600.08C234.956 611.527 246.551 637.909 251.015 650.946C259.192 666.215 274.758 693.085 278.139 709.075L278.517 714.25C266.428 727.589 252.026 738.634 236.007 746.845L226.756 752.292C214.638 758.824 198.128 765.652 185.242 771.394C165.45 727.524 53.3698 522.887 22.816 492.409C16.3861 477.305 16.6845 378.516 16.0078 355.167Z" fill="#A887A2"/>
<path d="M16.0078 355.167L18.3304 348.215C40.6991 349.604 113.018 386.216 134.763 398.224C167.158 461.2 189.612 507.432 216.28 573.219L208.837 573.916C204.907 567.707 202.451 565.978 197.103 561.178C168.573 554.554 153.03 547.106 126.986 534.994C113.036 518.404 100.77 480.302 85.2711 457.402L82.3517 458.676C79.5711 473.507 94.9012 501.565 101.768 516.169C71.4126 499.461 57.3206 495.45 22.816 492.409C16.3861 477.305 16.6845 378.516 16.0078 355.167Z" fill="#DEC1C0"/>
<path d="M16.0078 355.167L18.3304 348.215C40.6991 349.604 113.018 386.216 134.763 398.224C167.158 461.2 189.612 507.432 216.28 573.219L208.837 573.916C204.907 567.707 202.451 565.978 197.103 561.178C182.786 539.678 138.262 439.621 124.962 410.62C106.221 426.938 99.186 434.685 83.194 453.379C61.0675 416.691 43.92 387.475 16.0078 355.167Z" fill="#FFFEFE"/>
<path d="M126.988 534.993C153.033 547.105 168.576 554.554 197.106 561.177C202.454 565.977 204.91 567.706 208.84 573.916L216.283 573.218C220.275 581.861 224.891 591.28 228.298 600.079C234.958 611.526 246.553 637.909 251.018 650.946C259.194 666.215 274.761 693.084 278.141 709.074L278.519 714.25C266.431 727.589 252.029 738.634 236.01 746.845C207.637 679.66 153.831 605.071 126.988 534.993Z" fill="#A887A2"/>
<path d="M251.02 650.947C259.197 666.216 274.763 693.086 278.144 709.076L276.388 709.909L272.503 708.298C261.815 688.049 256.008 677.294 248.633 655.171L251.02 650.947Z" fill="#CABCCF"/>
<path d="M208.848 573.917L216.291 573.22C220.283 581.862 224.899 591.282 228.306 600.081L225.688 601.541L219.875 599.841C212.305 591.772 211.661 584.744 208.848 573.917Z" fill="#CABCCF"/>
<path d="M101.766 516.171C94.8985 501.567 79.5684 473.51 82.349 458.678L85.2684 457.404C100.767 480.305 113.033 518.406 126.983 534.996C153.825 605.074 207.632 679.662 236.005 746.847L226.753 752.294C207.478 718.163 185.57 678.584 167.427 644.934C156.234 624.17 111.65 526.362 101.766 516.171Z" fill="#8A6E7A"/>
<path d="M440.413 1080.01L448.024 1072.54C460.314 1076.17 474.799 1119.92 481.764 1133.69L484.79 1135.94L486.707 1135.03C528.1 1115.71 537.497 1117.8 579.708 1088.86C596.444 1112.77 626.502 1156.52 646.746 1177.08C659.904 1166.1 672.882 1155.61 685.056 1143.51C695.975 1157.62 706.293 1172 719.579 1183.9C697.222 1194.2 628.945 1247.06 608.157 1265.51C596.87 1302.28 593.489 1338.92 566.753 1365.63C544.653 1349.39 510.663 1326.07 490.445 1309.23C477.683 1299.52 463.721 1290.41 450.386 1281.41C479.211 1175.48 406.413 1207.23 387.277 1187.89L387.924 1179.83C395.767 1174.77 399.375 1172.64 404.889 1165.15C413.786 1129.14 420.068 1110.76 440.413 1080.01Z" fill="#EC353A"/>
<path d="M579.707 1088.86C596.444 1112.77 626.501 1156.53 646.745 1177.08C659.903 1166.1 672.881 1155.61 685.056 1143.51C695.974 1157.62 706.293 1172 719.578 1183.9C697.221 1194.2 628.945 1247.06 608.157 1265.51C596.869 1302.28 593.489 1338.92 566.753 1365.63C544.653 1349.39 510.662 1326.08 490.445 1309.23C577.869 1314.36 562.633 1241.04 598.955 1177.82C610.482 1157.75 579.4 1136.06 563.313 1127.13C542.939 1129.87 500.14 1143.71 484.789 1135.94L486.707 1135.03C528.099 1115.71 537.496 1117.8 579.707 1088.86Z" fill="#CA2127"/>
<path d="M440.422 1080.01L448.034 1072.54C460.323 1076.17 474.808 1119.92 481.773 1133.69C461.162 1128.83 450.938 1102.71 443.052 1085.19L440.422 1080.01Z" fill="#E02A31"/>
<path d="M440.407 1080.01L443.037 1085.19C434.857 1114.74 421.336 1140.02 412.574 1168.29C406.889 1168.27 409.433 1169.14 404.883 1165.15C413.78 1129.15 420.062 1110.76 440.407 1080.01Z" fill="#FE7375"/>
<path d="M437.266 1182.17C438.063 1182.2 438.867 1182.2 439.662 1182.27C465.06 1184.78 493.161 1199.03 509.951 1218.09C485.611 1209.88 460.4 1193.83 437.266 1182.17Z" fill="#390202"/>
<path d="M764.846 10.681L772.068 9.53418C773.864 26.1419 739.02 42.664 757.497 119.978L758.103 125.079C777.995 173.519 804.864 221.607 782.395 274.365C764.737 315.821 717.839 351.629 672.059 329.778C660.93 324.372 650.739 317.219 641.874 308.589C621.905 286.501 618.719 271.312 611.793 243.47C620.002 229.171 636.86 211.056 642.134 196.192C655.7 157.96 630.344 119.451 650.913 79.837C667.475 47.9338 712.76 26.6473 745.004 16.2494L764.846 10.681Z" fill="#FEF7E4"/>
<path d="M727.06 124.614L737.648 125.111L758.108 125.075C778 173.515 804.869 221.604 782.4 274.362C764.741 315.818 717.844 351.625 672.063 329.774C660.935 324.368 650.744 317.216 641.879 308.585C674.634 295.175 687.237 286.341 711.704 261.339C730.057 275.166 740.18 282.626 760.454 294.085C744.273 278.021 734.663 268.814 715.382 256.853C729.593 234.963 737.506 224.063 742.642 198.721C747.697 201.127 749.503 201.325 754.831 202.741L754.198 200.217L741.731 193.179C741.929 166.927 734.79 149.359 727.06 124.614Z" fill="#DEC1C0"/>
<path d="M764.844 10.681L772.065 9.53418C773.862 26.1419 739.018 42.664 757.495 119.978L758.1 125.079L737.641 125.114L727.053 124.618L720.662 124.476L720.865 120.947C723.472 113.197 717.526 86.5138 715.801 76.704C722.863 79.6272 736.314 84.8498 742.945 80.8685C736.098 73.3553 726.743 72.6134 716.347 70.1366C722.505 53.6057 728.796 43.3733 741.151 31.1694C741.585 27.8621 744.017 19.8701 745.001 16.2494L764.844 10.681Z" fill="#DEC1C0"/>
<path d="M745.011 16.2491L764.853 10.6807C756.996 21.2264 751.81 23.981 741.16 31.1691C741.595 27.8618 744.027 19.8698 745.011 16.2491Z" fill="#FEF7E4"/>
<path d="M757.506 119.975L758.112 125.076L737.652 125.111L739.074 121.455L757.506 119.975Z" fill="#CD9F9E"/>
<path d="M720.868 120.943L739.064 121.455L737.643 125.111L727.055 124.614L720.664 124.472L720.868 120.943Z" fill="#9B7F85"/>
<path d="M711.696 261.34C694.004 249.444 663.817 238.547 648.543 225.347C674.792 232.727 692.152 243.335 715.374 256.854C734.655 268.815 744.265 278.022 760.446 294.086C740.172 282.627 730.048 275.167 711.696 261.34Z" fill="#504B47"/>
<path d="M715.807 76.7034C709.241 74.1586 694.085 72.3941 680.445 67.2986C683.867 65.1528 710.449 69.3409 716.353 70.136C726.749 72.6128 736.104 73.3547 742.951 80.8679C736.32 84.8492 722.869 79.6266 715.807 76.7034Z" fill="#C6B8A9"/>
<path d="M665.703 184.091C700.252 182.738 708.307 182.235 741.721 193.183L754.188 200.22L754.82 202.744C749.493 201.329 747.687 201.131 742.631 198.725C725.774 192.352 704.616 189.887 686.795 188.445C682.005 185.599 671.814 184.963 665.703 184.091Z" fill="#968A83"/>
<path d="M720.673 124.473C710.644 126.421 668.838 139.077 663.688 136.246C684.372 126.595 697.905 120.859 720.877 120.944L720.673 124.473Z" fill="#C6B8A9"/>
<path d="M686.796 188.444C676.09 188.405 672.37 188.866 661.871 185.851L665.704 184.09C671.814 184.962 682.006 185.597 686.796 188.444Z" fill="#DDD4C2"/>
<path d="M994.793 777.305L996.303 772.913C1003.88 767.034 1017.03 768.494 1026.71 768.004C1088.24 764.883 1155.21 759.766 1210.55 730.467C1213.99 728.646 1232.2 706.778 1235.76 702.524L1241.32 702.915C1246.13 712.116 1245.83 713.153 1246.69 723.781C1248.74 736.29 1251.34 749.631 1251.92 762.231C1240.22 777.24 1204.99 765.527 1196.52 782.43C1171.88 831.591 1209.93 872.323 1259.26 838.838L1262.22 829.907C1262.38 847.797 1267.47 846.526 1271.1 861.204C1249.78 900.591 1054.79 919.782 1033.23 897.422C1029.81 885.159 1031.42 873.381 1026.32 866.524L1015.94 842.385C1015.81 841.611 1016.12 834.78 1016.31 833.548C1019.42 813.716 1005.63 793.076 994.793 777.305Z" fill="#412D33"/>
<path d="M994.793 777.305L996.303 772.913C1003.88 767.034 1017.03 768.494 1026.71 768.004C1088.24 764.883 1155.21 759.766 1210.55 730.467C1213.99 728.646 1232.2 706.778 1235.76 702.524L1241.32 702.915C1246.13 712.116 1245.83 713.153 1246.69 723.781C1195.14 770.844 1075.48 784.017 1007.22 779.625C1001.07 779.229 1000.48 779.067 994.793 777.305Z" fill="#654C56"/>
<path d="M1015.94 842.385L1019.04 835.354L1022.65 836.311C1026.65 847.297 1028.48 854.648 1026.32 866.524L1015.94 842.385Z" fill="#846B78"/>
<path d="M1076.88 793.943C1090.76 792.166 1107.21 789.923 1120.4 795.79C1132.41 801.134 1144.36 811.712 1148.15 824.539C1150.43 832.257 1149.59 839.72 1145.73 846.772C1139.61 857.991 1130.48 864.801 1118.52 868.815C1106.61 870.706 1094.59 871.948 1082.73 868.895C1070.3 865.697 1057.71 855.689 1051.39 844.626C1046.9 836.764 1045.94 827.489 1049.09 818.947C1054.16 805.171 1064.2 799.233 1076.88 793.943Z" fill="#0F0707"/>
<path d="M1057.02 824.676C1076.89 789.368 1122.3 790.264 1140.73 826.249C1134.19 875.076 1069.28 880.239 1057.02 824.676Z" fill="#FEF7E4"/>
<path d="M1140.73 826.249C1134.19 875.076 1069.28 880.24 1057.02 824.677C1075.81 830.461 1128.64 845.298 1140.73 826.249Z" fill="#CABCCF"/>
<path d="M1043.31 916.767C1116.61 929.375 1190.54 915.507 1259.63 891.75L1265 896.358C1274.6 922.376 1259.19 1040.56 1224.84 1036.32L1222.85 1029.18L1219.13 1027.27C1209.16 1049.19 1195.59 1067.86 1168.87 1058.57L1161.58 1055.81C1142.13 1083.15 1105.4 1083.93 1087.59 1057.98C1069.61 1031.79 1122.97 1023.32 1090.27 981.569C1082.97 984.285 1090.82 1011.42 1080.84 1029.61C1071.44 1036.78 1056.84 1039.08 1049.29 1028.57C1027.31 997.982 1040.89 952.397 1043.31 916.767Z" fill="#EC353A"/>
<path d="M1161.58 1055.81C1163.65 1046.84 1167.8 1024.58 1172.55 1018.35C1173.66 1032.88 1171.18 1044.24 1168.87 1058.57L1161.58 1055.81Z" fill="#820709"/>
<path d="M1219.14 1027.27C1220.53 1018.91 1220.82 1009.21 1226.5 1003.55C1228.34 1011.44 1225.64 1021.66 1222.86 1029.18L1219.14 1027.27Z" fill="#820709"/>
<path d="M258.841 821.398C288.656 823.92 285.238 839.215 288.99 866.708L296.972 868.355C306.918 873.459 315.227 877.81 324.854 883.585L329.426 880.978L332.029 880.195L330.758 877.683L332.469 874.287C340.722 871.57 348.399 867.196 356.162 863.2C364.503 863.091 362.993 861.758 367.754 865.931C371.164 884.717 377.552 914.253 373.504 932.102L370.564 933.482L363.304 923.406L360.068 931.895C355.411 942.355 352.137 947.433 346.375 956.864C329.1 985.123 220.324 1007.06 236.174 950.291L234.206 947.941C209.29 935.297 204.282 931.073 207.249 902.8L202.754 899.185C145.432 861.539 231.612 832.766 258.841 821.398Z" fill="#EC353A"/>
<path d="M356.166 863.197C364.508 863.088 362.998 861.755 367.758 865.928C371.168 884.714 377.557 914.25 373.509 932.099L370.569 933.479L363.308 923.403L360.073 931.892C355.416 942.352 352.142 947.43 346.379 956.861C329.105 985.12 220.329 1007.06 236.179 950.288L234.211 947.938C237.166 947.885 240.118 947.782 243.067 947.625C280.03 945.683 329.876 928.916 324.859 883.582L329.43 880.975L332.033 880.192L330.763 877.68L332.474 874.284C340.727 871.567 348.404 867.193 356.166 863.197Z" fill="#EC353A"/>
<path d="M356.166 863.197C364.507 863.088 362.998 861.755 367.758 865.928C371.168 884.714 377.556 914.25 373.508 932.099L370.568 933.479L363.308 923.403C356.931 916.712 344.987 912.382 335.239 906.27C329.548 897.568 330.174 891.441 329.43 880.975L332.033 880.192L330.762 877.68L332.473 874.284C340.726 871.567 348.403 867.193 356.166 863.197Z" fill="#CA2127"/>
<path d="M356.173 863.197C364.515 863.088 363.005 861.755 367.765 865.928C355.455 872.416 345.857 878.587 332.04 880.192L330.77 877.68L332.48 874.284C340.733 871.567 348.41 867.193 356.173 863.197Z" fill="#0F0707"/>
<path d="M324.859 883.583L329.43 880.977C330.175 891.442 329.548 897.569 335.24 906.271C344.988 912.383 356.932 916.713 363.308 923.405L360.073 931.893C353.888 922.955 353.678 921.877 344.426 916.888C319.307 914.884 304.248 956.934 236.179 950.289L234.211 947.94C237.166 947.886 240.118 947.783 243.067 947.626C280.03 945.684 329.876 928.917 324.859 883.583Z" fill="#200F11"/>
<path d="M258.841 821.398C288.656 823.92 285.238 839.215 288.99 866.708C280.953 871.65 277.655 875.971 271.317 882.817C237.471 899.191 235.04 893.404 202.754 899.185C145.432 861.539 231.612 832.766 258.841 821.398Z" fill="#EC353A"/>
<path d="M258.848 821.398C288.663 823.92 285.244 839.215 288.997 866.708C280.959 871.65 277.662 875.971 271.323 882.817C272.038 861.947 271.637 838.512 258.848 821.398Z" fill="#CA2127"/>
<path d="M288.99 866.706L296.971 868.352C272.375 896.75 244.894 907.074 207.248 902.797L202.754 899.183C235.039 893.401 237.471 899.189 271.317 882.814C277.655 875.969 280.953 871.648 288.99 866.706Z" fill="#200F11"/>
<path d="M266.696 1236.64C338.492 1230.42 419.811 1273.7 477.382 1313.71C492.357 1324.12 542.676 1355.27 545.788 1372.44L537.526 1375.75C468.109 1374.43 406.227 1352.79 345.563 1319.61C319.536 1305.38 261.809 1274.86 253.34 1245.95C256.7 1238.84 259.533 1239.32 266.696 1236.64Z" fill="#600808"/>
<path d="M1109.87 1088.8C1116.45 1090.27 1131.26 1094.09 1137.27 1093.86L1145.07 1098.06C1163.42 1102.64 1180.17 1102.56 1189.41 1116.97C1197.99 1126.27 1193.76 1123.85 1205.2 1126.99C1229.36 1117.02 1237.21 1114.88 1256.61 1134.92C1260.62 1145.86 1265.59 1158.47 1269.06 1169.41L1271.88 1180.42L1279.18 1180.95L1283.08 1183.01C1287.21 1193.21 1293.54 1195.86 1302.89 1202.1C1269.16 1215.56 1242.6 1216.08 1207.14 1213.67C1179.14 1138.89 1126.44 1149.19 1112.2 1117.5C1109.56 1106.93 1105.71 1098.13 1109.87 1088.8Z" fill="#CA2127"/>
<path d="M1205.2 1126.99C1229.36 1117.02 1237.21 1114.88 1256.61 1134.92C1260.62 1145.86 1265.59 1158.47 1269.06 1169.41C1265.84 1181.32 1268.14 1180.05 1260.44 1186.95C1215.08 1194.99 1221.42 1155.23 1205.2 1126.99Z" fill="#FA4C4F"/>
<path d="M1145.06 1098.06C1163.42 1102.64 1180.16 1102.56 1189.41 1116.97C1183.73 1129.45 1180.84 1135.78 1167.2 1139.55C1144.03 1134.64 1145.1 1117.82 1145.06 1098.06Z" fill="#FA4C4F"/>
<path d="M1109.87 1088.8C1116.45 1090.27 1131.26 1094.09 1137.27 1093.86C1136.51 1105.29 1138.21 1112.16 1132.18 1119.67C1122.92 1120.22 1121.41 1119.59 1112.2 1117.5C1109.56 1106.93 1105.71 1098.13 1109.87 1088.8Z" fill="#E02A31"/>
<path d="M155.554 794.142C158.447 791.024 162.344 787.574 165.503 784.601C216.913 776.325 272.255 746.991 298.584 705.898C301.373 701.548 312.806 703.324 318.506 703.525C335.833 716.781 340.044 751.915 326.304 761.683C297.103 782.443 190.788 856.594 158.692 831.755C152.36 823.716 148.403 801.738 155.554 794.142Z" fill="#412D33"/>
<path d="M155.551 794.142C158.444 791.024 162.341 787.574 165.5 784.601C216.91 776.325 272.252 746.99 298.581 705.898C301.37 701.548 312.803 703.324 318.503 703.525C282.506 746.719 214.605 798.283 155.551 794.142Z" fill="#846B78"/>
<path d="M1321.52 1114.47C1319.87 1103.7 1317.15 1099.91 1321.93 1092.57C1332.39 1095.6 1340.36 1105.97 1346.21 1115.15L1351.66 1120.7C1367.11 1108.64 1372.11 1105.91 1389.9 1097.27C1382.95 1120.49 1377.01 1133.08 1366.95 1154.85L1363.6 1156.95C1344.29 1176.93 1326.97 1188.14 1302.89 1202.1C1293.55 1195.86 1287.21 1193.21 1283.09 1183.01L1279.18 1180.95L1271.88 1180.42L1269.07 1169.42C1265.6 1158.47 1260.62 1145.87 1256.61 1134.92L1260.74 1132.72L1256.72 1124.27C1266.49 1105.53 1298.98 1124 1308.68 1137.48L1311.41 1132.22C1312.84 1122.63 1314.89 1122.7 1321.52 1114.47Z" fill="#EC353A"/>
<path d="M1260.74 1132.71L1256.72 1124.27C1266.49 1105.53 1298.98 1124 1308.68 1137.48C1312.12 1145.59 1316.85 1157.68 1320.59 1165.28C1312.32 1183.61 1303.65 1186.18 1283.09 1183.01L1279.18 1180.95L1271.88 1180.42L1269.07 1169.41C1265.6 1158.47 1260.62 1145.86 1256.61 1134.92L1260.74 1132.71Z" fill="#FA4C4F"/>
<path d="M1260.74 1132.71C1270.29 1144.27 1274.83 1165.87 1279.18 1180.95L1271.88 1180.42L1269.07 1169.41C1265.6 1158.47 1260.62 1145.86 1256.61 1134.92L1260.74 1132.71Z" fill="#600808"/>
<path d="M1323.36 1160.12L1328.24 1171.92C1336.71 1169.75 1346.47 1161.73 1359.98 1157.94L1363.6 1156.95C1344.28 1176.92 1326.96 1188.14 1302.88 1202.09C1293.54 1195.86 1287.2 1193.21 1283.08 1183.01C1303.65 1186.18 1312.31 1183.61 1320.58 1165.28L1323.36 1160.12Z" fill="#E02A31"/>
<path d="M1351.64 1120.69C1367.1 1108.63 1372.1 1105.91 1389.88 1097.27C1382.94 1120.49 1377 1133.08 1366.94 1154.85C1365.49 1135.62 1365.56 1133.57 1351.64 1120.69Z" fill="#E02A31"/>
<path d="M1321.51 1114.47C1319.86 1103.7 1317.14 1099.91 1321.93 1092.57C1332.38 1095.6 1340.35 1105.97 1346.21 1115.15C1336.39 1118.85 1331.94 1116.82 1321.51 1114.47Z" fill="#FA4C4F"/>
<path d="M1311.41 1132.21C1318.4 1142.59 1319.7 1148.45 1323.36 1160.12L1320.58 1165.28C1316.85 1157.68 1312.11 1145.59 1308.68 1137.48L1311.41 1132.21Z" fill="#390202"/>
<path d="M362.583 960.998C372.29 966.569 370.346 966.986 375.984 977.89L378.486 982.814L380.067 969.188L382.86 969.478L389.319 986.736L399.765 1006.08C397.274 1023.3 397.33 1032.3 381.719 1042.38C349.168 1063.42 322.721 1054.01 307.456 1020.15L304.584 1016.68L283.102 996.862C316.303 989.496 338.072 984.575 362.583 960.998Z" fill="#2F3B50"/>
<path d="M362.583 960.998C372.29 966.569 370.346 966.986 375.984 977.89L378.486 982.814C363.254 1003.31 351.514 1010.46 325.927 1014.26C318.838 1015.27 311.72 1016.07 304.584 1016.68L283.102 996.862C316.303 989.496 338.072 984.575 362.583 960.998Z" fill="#2A3344"/>
<path d="M362.589 960.998C372.296 966.569 370.352 966.986 375.99 977.89C365.606 976.825 367.172 978.676 361.41 972.892L362.589 960.998Z" fill="#546C87"/>
<path d="M378.488 982.811L380.069 969.186L382.862 969.475L389.321 986.733C383.213 991.447 377.345 995.76 371.731 1001.09C347.879 1015.63 335.935 1020.69 307.458 1020.15L304.586 1016.67C311.722 1016.07 318.841 1015.26 325.929 1014.26C351.516 1010.46 363.256 1003.31 378.488 982.811Z" fill="#0F0707"/>
<path d="M371.734 1001.09C377.349 995.761 383.217 991.449 389.325 986.734L399.771 1006.08C384.278 1006.97 383.782 1007.92 371.734 1001.09Z" fill="#7196B2"/>
<path d="M345.965 200.635L384.683 204.492L394.745 215.177C397.942 218.466 397.771 219.311 401.482 220.609C406.393 225.104 410.681 229.615 416.514 232.763C398.817 240.081 372.627 251.995 354.626 255.722L351.385 259.006C341.397 267.55 322.01 286.05 313.127 292.842L308.582 298.611C304.493 297.021 282.272 294.352 275.824 293.383L277.455 288.503C285.07 274.405 292.177 264.252 301.319 251.028C313.736 236.138 327.267 221.428 340.233 206.954L345.965 200.635Z" fill="#FEF7E4"/>
<path d="M301.319 251.029L305.681 252.829C318.993 254.147 339.148 255.478 351.385 259.007C341.397 267.551 322.01 286.051 313.127 292.843L308.582 298.612C304.493 297.022 282.272 294.353 275.824 293.384L277.455 288.504C285.07 274.405 292.177 264.253 301.319 251.029Z" fill="#FFFEFE"/>
<path d="M275.824 293.384L277.455 288.504C288.149 289.931 302.661 292.234 313.127 292.843L308.582 298.612C304.493 297.022 282.272 294.353 275.824 293.384Z" fill="#DDD4C2"/>
<path d="M381.684 210.373L394.754 215.179C397.951 218.469 397.779 219.314 401.491 220.611C406.402 225.107 410.689 229.617 416.522 232.765C398.825 240.083 372.636 251.997 354.635 255.724L352.008 251.675C363.068 239.019 372.311 224.374 381.684 210.373Z" fill="#E7CFCA"/>
<path d="M345.963 200.635L384.681 204.492L394.743 215.177L381.673 210.371C367.974 207.371 354.26 207.445 340.23 206.954L345.963 200.635Z" fill="#ADA297"/>
<path d="M305.684 252.83C317.908 246.913 337.505 250.486 352.002 251.674L354.629 255.724L351.387 259.007C339.151 255.478 318.995 254.148 305.684 252.83Z" fill="#DDD4C2"/>
<path d="M345.973 200.636C376.798 164.95 368.046 142.806 371.855 102.852L375.717 101.737L387.551 112.233C430.93 148.501 437.345 175.785 420.153 229.793L416.521 232.764C410.688 229.616 406.401 225.106 401.49 220.61C397.778 219.313 397.95 218.467 394.753 215.178L384.691 204.493L345.973 200.636Z" fill="#DEC1C0"/>
<path d="M345.973 200.636C376.798 164.95 368.046 142.806 371.855 102.852L375.717 101.737L387.551 112.233C392.935 126.189 399.51 145.176 395.583 160.079C388.24 163.017 382.957 162.745 374.946 163.286C381.491 173.03 405.585 156.632 384.691 204.493L345.973 200.636Z" fill="#FEF7E4"/>
<path d="M401.484 220.61L404.782 217.486C413.018 222.162 413.526 222.845 420.148 229.794L416.516 232.764C410.683 229.616 406.395 225.106 401.484 220.61Z" fill="#CD9F9E"/>
<path d="M292.094 809.804C295.563 801.294 298.107 793.704 305.743 788.201C314.108 782.151 324.625 779.884 334.736 781.958C350.069 785.035 357.105 791.736 365.506 803.712C365.745 828.519 367.613 840.557 356.162 863.197C348.4 867.193 340.723 871.568 332.47 874.284C295.613 862.272 297.992 843.687 292.094 809.804Z" fill="#E02A31"/>
<path d="M292.094 809.804C295.563 801.294 298.107 793.704 305.743 788.201C314.108 782.151 324.625 779.884 334.736 781.958C350.069 785.035 357.105 791.736 365.506 803.712C363.352 809.934 363.089 815.449 357.655 817.184C340.206 822.746 308.479 815.245 292.094 809.804Z" fill="#EC353A"/>
<path d="M400.856 757.575L405.3 761.66C402.694 772.741 400.436 779.837 396.811 790.516C408.914 827.124 397.786 887.286 405.788 927.66C408.489 941.289 407.655 955.056 392.739 959.779C375.621 950.404 388.732 940.077 387.476 924.279C383.995 880.506 394.001 809.781 365.441 775.055C384.592 773.007 387.207 770.057 400.856 757.575Z" fill="#312326"/>
<path d="M374.217 1234.1C390.309 1212.19 405.973 1199 434.335 1205.74C441.831 1220.89 449.94 1244.61 447.771 1261.41C435.026 1278.14 386.56 1250.98 371.457 1241.43C372.562 1236.27 371.398 1237.19 374.217 1234.1Z" fill="#DEC1C0"/>
<path d="M374.211 1234.1C390.303 1212.19 405.967 1199 434.329 1205.74C423.688 1220.52 392.939 1235.54 374.211 1234.1Z" fill="#F6E1DB"/>
<path d="M1220.46 773.953C1254.19 776.785 1256.69 788.962 1255.58 820.705C1230.69 875.515 1163.58 818.577 1220.46 773.953Z" fill="#CABCCF"/>
<path d="M1220.46 773.953C1254.19 776.785 1256.69 788.962 1255.58 820.705C1245.6 820.058 1243.69 820.507 1235.06 816.1C1225.95 805.992 1224.15 788.53 1220.46 773.953Z" fill="#FEF7E4"/>
<path d="M1031.45 1319.5C1035.44 1320.1 1039.59 1320.75 1043.36 1322.24C1054.17 1326.54 1066.01 1349.8 1069.19 1360.72C1071.62 1369.08 1072.6 1375.34 1068.65 1383.01L1057.78 1384.41C1047.37 1384.94 1029.53 1387.82 1020.13 1383.07C1012.83 1379.38 1011.7 1375.85 1008.8 1368.75C1009.36 1351.24 1021.7 1333.45 1031.45 1319.5Z" fill="#CD9F9E"/>
<path d="M323.965 694.682C330.566 684.846 336.302 672.01 349.07 674.034C353.629 682.008 355.801 710.341 358.499 723.503C371.938 738.302 382.292 749.867 400.858 757.575C387.209 770.057 384.594 773.007 365.443 775.055C354.977 773.072 347.968 772.685 339.159 766.753C331.857 740.146 367.751 736.809 323.965 694.682Z" fill="#CA2127"/>
<path d="M1094.45 1311.15C1094.98 1311.19 1095.51 1311.22 1096.04 1311.27C1096.93 1311.37 1097.81 1311.5 1098.69 1311.6C1121.96 1314.28 1135.85 1329.66 1152.41 1344.53L1120.09 1366.16C1108.33 1372.41 1095.81 1377.65 1083.71 1383.24C1082.3 1357.92 1081.1 1333.57 1094.45 1311.15Z" fill="#CD9F9E"/>
<path d="M367.702 1184.78C372.161 1186.59 376.268 1189.34 380.42 1191.77C384.53 1198.92 385.706 1201.12 382.944 1209.55C379.838 1219.02 367.389 1229.01 358.631 1233.37C353.572 1235.88 350.903 1233.76 345.741 1232.22C334.616 1228.88 323.083 1226.46 311.789 1223.73C329.259 1206.18 345.121 1195.11 367.702 1184.78Z" fill="#E7CFCA"/>
<path d="M980.946 1313.83C983.697 1314.72 983.948 1314.63 986.687 1316.48C995.448 1322.4 999.225 1337.56 1000.75 1347.44C1002.31 1357.5 1002.36 1369.49 995.966 1377.85L986.903 1376.79L954.242 1365.04C960.072 1342.67 962.681 1328.82 980.946 1313.83Z" fill="#CD9F9E"/>
<path d="M275.823 293.383C282.27 294.352 304.491 297.021 308.581 298.611C283.795 336.494 285.187 355.153 284.729 399.434C268.5 366.015 256.601 328.44 275.823 293.383Z" fill="#FFFEFE"/>
<path d="M847.77 597.405C866.501 605.708 904.808 666.848 913.289 686.072C897.888 680.03 873.723 673.197 864.524 660.754L861.655 656.548C859.22 652.259 859.69 650.028 859.515 645.032C858.41 625.785 853.86 615.452 847.77 597.405Z" fill="#362126"/>
<path d="M991.625 908.239C973.059 892.211 965.223 859.329 993.265 853.879C1007.65 863.219 1013.71 892.645 1012.68 908.703L991.625 908.239Z" fill="#DEC1C0"/>
<path d="M1081.57 1103.48C1082.64 1097.88 1083.36 1089.46 1084.05 1083.6L1087.61 1081.04L1099.4 1088.03C1101.97 1088.12 1107.78 1088.05 1109.86 1088.8C1105.7 1098.13 1109.55 1106.93 1112.19 1117.5L1106.67 1117.76L1106.89 1128.96C1100.18 1128.44 1089.63 1128.71 1082.58 1128.65C1081.27 1119.31 1079.57 1112.68 1081.57 1103.48Z" fill="#E02A31"/>
<path d="M1099.41 1088.03C1101.98 1088.12 1107.79 1088.05 1109.87 1088.8C1105.71 1098.13 1109.56 1106.93 1112.2 1117.5L1106.68 1117.76C1104.4 1107.91 1101.83 1097.88 1099.41 1088.03Z" fill="#390202"/>
<path d="M1168.48 1275.05C1170.81 1275.43 1173.24 1275.74 1175.49 1276.49C1182.99 1279 1184.19 1279.97 1187.73 1287.05C1186.76 1300.22 1174.84 1314.44 1167.6 1325.34L1161.09 1331.16L1157.59 1328C1155.83 1310.31 1161.8 1291.23 1168.48 1275.05Z" fill="#F6E1DB"/>
<path d="M285.195 431.264L287.245 433.161C289.828 441.138 292.96 457.844 289.255 465.466C287.177 469.74 286.128 469.096 281.991 470.642L269.448 463.566L258.512 456.936C260.568 445.69 276.061 437.881 285.195 431.264Z" fill="#600808"/>
<path d="M412.978 844.01C415.632 845.736 418.279 847.362 420.463 849.691C431.573 861.549 429.945 879.98 429.15 894.906L421.831 893.916C410.331 880.97 412.89 860.204 412.978 844.01Z" fill="#D48D6D"/>
<path d="M923.57 415.692C940.96 421.71 959.177 424.092 977.347 426.401L977.598 429.738C965.53 434.003 947.573 440.449 935.174 435.98C927.518 429.743 926.765 424.793 923.57 415.692Z" fill="#820709"/>
<path d="M314.594 1200.19L319.375 1202.31C318.087 1204.33 316.722 1206.39 315.132 1208.19C305.603 1218.96 296.333 1221.42 282.767 1222.14C278.32 1220.17 279.975 1221.77 277.918 1217.2C287.516 1208.67 302.606 1204.69 314.594 1200.19Z" fill="#F6E1DB"/>
<path d="M1376.17 1158.07C1382.26 1164.58 1387.52 1168.36 1389.35 1177.37L1384.15 1182.01C1378.86 1180.93 1373.6 1179.8 1368.37 1178.61L1366.27 1173.78L1376.17 1158.07Z" fill="#FE7375"/>
<path d="M293.235 516.638C295.956 524.284 297.658 526.545 295.64 534.587L285.72 539.553L282.951 536.375C282.818 528.354 288.628 523.04 293.235 516.638Z" fill="#820709"/>
<path d="M1261.48 790.963C1263.28 791.929 1264.14 792.252 1265.72 793.839C1271.87 800.016 1269.91 809.19 1269.71 817.135C1265.03 809.329 1263.59 799.747 1261.48 790.963Z" fill="#846B78"/>
</svg>
