<svg width="1391" height="1400" viewBox="0 0 1391 1400" fill="none" xmlns="http://www.w3.org/2000/svg">
<path d="M345.746 78.5735C378.684 98.332 418.316 133.291 427.496 172.122C432.88 194.896 425.8 213.034 423.395 235.284C430.041 238.583 432.981 239.387 440.347 237.138C464.12 229.879 472.275 204.768 500.052 205.158C519.997 205.438 596.311 223.787 605.229 202.045C610.953 188.083 608.754 171.082 607.752 156.375C602.983 86.2818 620.302 48.3522 687.322 17.8086C711.839 6.63631 737.198 -0.182487 764.162 0.00371849C743.481 38.8556 734.675 72.1244 748.073 115.593C760.903 157.226 783.868 191.532 785.163 236.476C824.877 228.188 928.491 242.171 964.65 262.739C955.056 277.482 938.086 288.217 925.193 300.063C961.814 315.116 994.522 324.456 1033.72 330.09C1025.36 344.002 1016.72 355.544 1005.44 367.218C1038.23 382.771 1072.5 400.28 1101.86 421.632C1083.28 428.979 1065 436.546 1045.46 441.009C1069.76 467.205 1086.6 498.073 1098.16 531.759C1114.69 544.421 1127.66 555.244 1130.4 577.299C1131.5 586.125 1131.98 595.148 1132.22 604.033C1138.54 613.606 1145.59 623.558 1150.25 634.089C1155.29 645.468 1159.18 664.222 1166.29 673.624C1170.69 679.428 1180.17 682.632 1185.36 688.112C1208.27 712.316 1210.02 759.485 1209.79 790.667C1217.09 798.292 1227.1 806.598 1227.31 817.947C1227.5 828.529 1218.6 838.785 1212.51 846.824C1218.35 855.07 1226.94 864.292 1227.91 874.548C1212.48 897.927 1225.53 929.996 1221.38 957.335C1217.47 983.02 1206.64 1005.34 1204.08 1031.67C1180.72 1054.96 1162.3 1048.93 1140.8 1065.22L1141.14 1068.26C1166.88 1076.21 1196.24 1086.53 1223.53 1084.49C1253.3 1082.27 1248.07 1066.4 1287.7 1076.45L1292.78 1073.34C1297.95 1061.05 1296.58 1046.89 1296.59 1033.8L1317.76 1045.83L1335.6 1057.47C1341.77 1048.16 1357.78 1033.44 1368.93 1031.4C1373.58 1030.58 1376.59 1032.32 1380.94 1033.77C1388.83 1042.1 1390.47 1052.12 1390.06 1063.38C1389.38 1082 1382.01 1097.61 1373.47 1113.78C1380.31 1123.47 1387.8 1132.58 1390.2 1144.46C1388.92 1150.57 1389.39 1152.76 1383.62 1156.55C1373.08 1163.4 1353.48 1159.74 1341.58 1158.97C1300.13 1196.62 1256.41 1213.68 1200.35 1216.99C1210.65 1244.39 1213.39 1270.84 1200.73 1298C1183.11 1335.81 1144.61 1362.02 1106.24 1375.35C1059.99 1391.43 982.791 1400.44 937.149 1378.51C929.835 1375 922.395 1369.88 919.505 1361.93C912.901 1343.79 924.546 1318.87 930.45 1301.28C891.817 1290.55 859.198 1273.5 829.625 1246.07C806.335 1242.14 784.111 1237.94 761.612 1230.58C736.749 1250.77 711.245 1271.05 688.829 1294.01C682.077 1320.49 673.032 1381.5 649.009 1395.77C620.837 1412.53 490.244 1374.7 457.767 1364.71C421.149 1353.45 317.337 1317.69 297.634 1284.67C294.939 1280.15 293.234 1274.92 294.865 1269.75C299.912 1253.73 325.856 1238 340.4 1231.8C363.197 1222.1 386.397 1223.34 409.457 1216.96C425.369 1212.58 441.323 1204.93 457.066 1199.49C463.538 1176.56 469.533 1153.32 477.526 1130.83L449.797 1085.29C432.269 1097.4 414.007 1107.9 395.521 1118.48C393.651 1093.38 392.297 1068.26 391.461 1043.11C374.326 1049.2 348.881 1061.7 331.172 1053.81C306.809 1042.96 293.544 1011.1 276.799 991.769C269.852 983.729 255.26 984.025 246.404 978.232C229.925 967.414 191.434 901.237 184.002 881.198C180.185 870.883 185.515 857.464 182.507 848.095C175.749 827.081 121.707 827.435 147.039 782.066C154.122 769.386 164.459 762.086 175.675 753.367C140.701 691.966 106.861 629.939 71.0921 568.982C51.5338 535.651 32.401 500.255 8.05716 470.137C2.40677 416.229 -4.30386 359.407 3.64517 305.372C46.2784 319.881 112.715 337 144.04 371.188C158.927 387.435 168.714 408.32 178.364 427.927C204.182 480.375 227.827 534.082 252.001 587.307C263.206 611.981 272.833 639.049 286.872 662.141C291.644 669.985 296.892 678.226 305.913 681.427C310.269 682.975 314.054 682.47 318.079 680.046C326.87 674.756 337.445 664.032 338.689 653.546C341.402 630.687 326.684 633.486 343.391 607.869C316.85 590.239 307.355 575.056 298.045 544.84L266.421 539.275C274.58 528.315 291.526 510.41 289.709 496.202C288.917 490.016 284.999 485.299 279.934 481.782C263.307 470.222 246.762 463.619 230.702 450.115C250.086 444.157 268.256 437.249 285.253 425.976C264.952 390.597 246.898 355.662 258.044 313.674C263.156 294.418 273.764 278.073 285.465 262.24C342.031 185.712 352.477 176.387 345.746 78.5735Z" fill="#020101"/>
<path d="M409.272 1096.4C407.499 1064.68 402.065 987.779 413.092 960.676C437.683 971.996 460.578 994.902 484.33 1009.44C509.715 1017.54 535.101 1026.62 561.349 1031.46C637.483 1046.86 707.337 1035.07 783.347 1028.95C841.931 1016.69 894.038 1000.87 948.846 976.843C949.174 990.084 948.45 1023.81 958.771 1033C976.415 1048.75 999.289 1049.08 1010.57 1072.46C1019.83 1077.69 1027.88 1076.92 1038.15 1076.74C1043.86 1082.21 1046.36 1088.39 1047.04 1096.37C1047.27 1099.12 1046.63 1101.54 1045.99 1104.17C1039.59 1108.13 1035.72 1108.16 1028.29 1106.21C1010.99 1101.63 991.169 1091.88 975.263 1083.63C973.182 1096.55 969.495 1111.06 970.174 1124.06C962.491 1137.98 952.046 1153.59 947.164 1168.72C915.677 1143.01 862.843 1134.94 825.62 1117.06C809.82 1146.44 791.275 1178.54 768.412 1203.04C767.78 1203.01 767.148 1203.01 766.518 1202.95C757.524 1202.21 753.783 1201.5 747.752 1194.76C748.904 1171.8 715.584 1130.62 703.248 1111.71C704.291 1139.46 701.2 1156.07 687.894 1180.78C652.606 1151.88 620.814 1118.83 588.552 1086.67C560.017 1107.66 528.204 1123.56 496.835 1139.79C483.307 1113.6 466.789 1089.01 450.723 1064.36C437.405 1076.51 425.015 1087.38 409.272 1096.4Z" fill="#4C363A"/>
<path d="M561.344 1031.46C637.477 1046.86 707.331 1035.07 783.341 1028.95C747.099 1055.85 621.716 1051.24 575.3 1044.35C573.069 1044.02 570.844 1043.67 568.619 1043.31L561.344 1031.46Z" fill="#362126"/>
<path d="M484.332 1009.44C509.718 1017.54 535.103 1026.62 561.352 1031.46L568.627 1043.31C537.302 1039.18 505.859 1034.77 484.332 1009.44Z" fill="#412D33"/>
<path d="M1058.93 1124.39C1057.89 1111.8 1054.89 1096.1 1058.46 1083.99C1072.11 1088.48 1084.76 1123.53 1095.65 1135.18C1114.44 1155.31 1142.85 1174.34 1166.73 1188.2C1170.84 1192.52 1176.74 1197.36 1179.96 1202.27C1177.12 1203.04 1175.27 1204.22 1172.76 1205.7C1184.33 1222.1 1195.94 1244.62 1194.3 1265.25C1191.53 1299.81 1163.6 1325.93 1138.59 1346.51C1124.34 1329.16 1104.54 1305.13 1081.65 1299.45C1074.2 1297.59 1066.3 1298.56 1059.77 1302.67C1046.47 1311.07 1043.49 1327.21 1039.9 1341.3C1035.35 1332.26 1030.45 1323.24 1023.47 1315.77C1017.23 1309.12 1010.9 1305.87 1001.88 1305.48C992.212 1308.11 987.153 1313.4 980.201 1320.11C977.479 1322.71 975.393 1324.22 971.758 1325.58C969.643 1320.94 967.568 1316.15 965.101 1311.66C959.776 1301.96 947.773 1307.73 938.569 1304.89C938.099 1300.01 937.904 1295.64 935.499 1291.23C935.182 1290.64 834.928 1236.2 824.346 1231.89C809.728 1225.92 792.575 1222.93 777.375 1218.08C802.622 1193.55 818.702 1165.56 834.55 1134.62C864.365 1147.59 910.399 1174.13 942.097 1174.78L947.159 1168.72C952.04 1153.59 962.486 1137.99 970.169 1124.06C973.162 1118.36 976.025 1109.23 982.535 1107.36C1000.23 1102.28 1040.76 1119.99 1058.93 1124.39Z" fill="#CA2127"/>
<path d="M1072.71 1213.5L1080.29 1201.68L1082.79 1204.9C1078.71 1219.29 1069.39 1234.13 1055.92 1241.46C1052.29 1243.44 1048.46 1245.01 1044.62 1246.52C1033.92 1248.88 1024.1 1252.72 1013.05 1253.14C1021.27 1239.57 1057.7 1219.53 1072.71 1213.5Z" fill="#820709"/>
<path d="M1072.72 1213.5L1080.3 1201.68L1082.8 1204.9C1078.71 1219.29 1069.4 1234.13 1055.93 1241.46C1052.3 1243.44 1048.47 1245.01 1044.63 1246.52C1051.08 1234.63 1065.09 1226.39 1072.72 1213.5Z" fill="#200F11"/>
<path d="M855.476 1183.86C858.461 1184.8 861.33 1186.34 864.155 1187.64C869.819 1204.52 876.066 1221.16 881.769 1238C879.343 1235.46 876.985 1232.86 874.695 1230.23C862.884 1216.49 853.984 1202.71 855.476 1183.86Z" fill="#0F0707"/>
<path d="M1013.46 1263.51L1015 1264.31C1007.8 1275.28 978.867 1279.24 966.793 1281.81L965.059 1280.45C974.364 1271.37 1000.55 1267.27 1013.46 1263.51Z" fill="#820709"/>
<path d="M1205.02 903.397C1208.46 937.446 1205.81 1004.3 1182.23 1030.52C1177 1036.34 1168.14 1039.86 1161.1 1042.93C1157.47 1044.03 1154.84 1042.34 1151.28 1041.28C1145.98 1048.73 1139.41 1055.79 1140.79 1065.22L1141.14 1068.26C1130.36 1065.28 1113.77 1062.32 1105.73 1054.4C1101.79 1050.53 1102.86 1047.81 1102.64 1042.58L1098.62 1039.8C1095.16 1047.1 1090.95 1053.22 1084.78 1058.54C1074.66 1067.2 1053.64 1078.37 1040.14 1075.83C1033.77 1074.62 1028.53 1070.95 1025.63 1065.1C1016.49 1046.6 1030.86 1020.29 1037.8 1002.94L1013.01 970.018C1016.08 980.569 1020.41 992.451 1020.77 1003.45C1021.09 1013.05 1018.86 1025.73 1011.51 1032.59C1007.22 1036.61 1003.01 1038.35 997.01 1037.85C989.377 1037.23 981.957 1030.19 977.546 1024.49C969.281 1013.79 962.378 996.796 963.657 983.229C979.271 966.027 976.157 953.614 975.985 931.801C983.449 933.988 990.934 935.703 998.694 936.442C1057.05 942.116 1158.41 942.175 1205.02 903.397Z" fill="#EC353A"/>
<path d="M1151.28 1041.27L1162.19 1012.52H1163.87C1162.84 1021.32 1161.72 1029.9 1159.66 1038.53L1161.09 1042.93C1157.47 1044.02 1154.84 1042.34 1151.28 1041.27Z" fill="#600808"/>
<path d="M1098.61 1039.8C1100.38 1032.38 1100.71 1026.85 1106.03 1021.09C1107.4 1029.13 1105.13 1034.95 1102.63 1042.58L1098.61 1039.8Z" fill="#820709"/>
<path d="M580.82 1138.01C592.586 1142.83 606.114 1147.5 616.557 1154.8C627.812 1162.66 655.08 1196.18 666.043 1195L671.028 1187.7C666.049 1206.43 652.506 1223.67 645.137 1242.17C634.877 1267.91 630.56 1297.05 618.244 1321.62C587.288 1340.18 561.512 1339.76 526.78 1331.84C527.67 1328.06 528.429 1324.25 529.203 1320.46C529.966 1316.71 530.725 1313.02 531.115 1309.2C532.794 1292.8 532.188 1261.88 520.797 1248.82C511.731 1238.41 480.474 1238.92 467.638 1238.03C463.028 1234.57 460.123 1231.03 456.713 1226.39L455.431 1224.61C453.584 1222.45 452.565 1220.12 451.285 1217.61C461.997 1211.07 467.31 1210.99 471.515 1198.69L475.205 1199.96L479.381 1197.72C486.239 1181.73 489.74 1163.9 494.055 1147.06L496.956 1149.07C517.224 1159.06 545.627 1150.46 565.626 1143.6C570.744 1141.88 575.808 1140.02 580.82 1138.01Z" fill="#EC353A"/>
<path d="M519.461 1216.66C544.066 1224.59 559.869 1233.66 578.264 1251.78C558.708 1241.02 538.242 1228.1 516.512 1222.46L519.461 1216.66Z" fill="#390202"/>
<path d="M516.504 1222.46L508.801 1217.9L509.528 1215.42L519.453 1216.66L516.504 1222.46Z" fill="#820709"/>
<path d="M1166.73 1188.2C1156.74 1161.01 1148.88 1154.86 1125.58 1138.67C1109.98 1127.82 1079.71 1101.96 1077.3 1081.71C1076.55 1075.36 1078.82 1074.32 1082.79 1069.89C1109.47 1059.69 1125.51 1084.13 1151.24 1083.04C1151.8 1083.04 1152.36 1082.98 1152.93 1082.92C1164.42 1086.38 1173.98 1089.57 1184.11 1096.22C1188.77 1096.93 1193.04 1097.76 1197.76 1097.49C1213.09 1093.65 1222.91 1092.79 1237.2 1101.25L1240.44 1093.15C1250.64 1088.12 1261.39 1081.47 1273.04 1085.32C1277.72 1086.85 1282.33 1088.92 1286.1 1092.14L1296.09 1100.07C1301.17 1113.69 1308.52 1126.52 1315.29 1139.35C1310.75 1145.26 1306.38 1149.75 1300.45 1154.27L1321.49 1155.45C1285.62 1187.43 1234.16 1206.44 1185.88 1202.98C1183.9 1202.83 1181.93 1202.54 1179.96 1202.27C1176.74 1197.36 1170.84 1192.52 1166.73 1188.2Z" fill="#CA2127"/>
<path d="M1240.45 1093.15C1250.65 1088.12 1261.39 1081.47 1273.05 1085.32C1277.72 1086.85 1282.34 1088.92 1286.1 1092.14L1296.09 1100.06C1301.17 1113.69 1308.52 1126.52 1315.3 1139.34C1310.75 1145.26 1306.39 1149.75 1300.46 1154.27C1290.56 1158.17 1282.06 1162.78 1271.45 1158.38C1265.46 1154.83 1263.63 1147.53 1261.14 1141.38C1255.02 1126.16 1247.05 1114.31 1237.2 1101.25L1240.45 1093.15Z" fill="#FA4C4F"/>
<path d="M1240.45 1093.15C1256.31 1114.34 1264.66 1132.87 1271.45 1158.38C1265.46 1154.83 1263.63 1147.53 1261.14 1141.38C1255.02 1126.16 1247.05 1114.31 1237.2 1101.24L1240.45 1093.15Z" fill="#600808"/>
<path d="M1197.76 1097.49C1213.08 1093.65 1222.9 1092.79 1237.19 1101.25C1247.04 1114.31 1255 1126.16 1261.13 1141.38C1260.95 1146.05 1261.02 1151.93 1259.63 1156.49C1257.31 1164.08 1253.37 1168.9 1246.74 1172.98C1240.56 1173.45 1236.02 1171.71 1231.03 1168.13C1208.11 1151.73 1202.18 1123.26 1197.76 1097.49Z" fill="#F03A3E"/>
<path d="M1152.94 1082.92C1164.43 1086.38 1173.99 1089.57 1184.12 1096.22C1183.46 1102.93 1183.29 1111.94 1180.81 1118.12C1177.98 1125.16 1172.94 1126.31 1166.59 1128.56C1161.35 1127.96 1157.56 1127.43 1153.22 1124.24C1144.79 1117.97 1141.17 1109.52 1140.08 1099.35C1143.44 1090.63 1145.66 1089.01 1152.94 1082.92Z" fill="#FA4C4F"/>
<path d="M715.724 1151.49C726.226 1166.06 736.902 1180.49 747.75 1194.76C753.781 1201.5 757.522 1202.21 766.517 1202.95C767.146 1203.01 767.778 1203.01 768.411 1203.04C739.535 1228.13 687.617 1262.18 672.544 1297.62C663.328 1319.25 660.757 1390.4 629.181 1389.33C617.807 1388.95 603.872 1380.76 594 1375.5C571.312 1361.31 548.656 1347.24 526.793 1331.84C561.525 1339.77 587.301 1340.18 618.257 1321.62C630.573 1297.06 634.89 1267.91 645.149 1242.17C652.519 1223.67 666.061 1206.44 671.04 1187.7L671.953 1182.08L694.653 1196.27C700.864 1180.84 708.059 1166.24 715.724 1151.49Z" fill="#CA2127"/>
<path d="M399.847 1241.82C407.698 1236.35 417.467 1228.63 426.483 1225.44C435.22 1222.31 439.192 1224.32 447.09 1227.72L449.587 1228.49L455.438 1224.62L456.72 1226.39C460.13 1231.03 463.035 1234.58 467.645 1238.03C480.481 1238.92 511.738 1238.42 520.804 1248.82C532.195 1261.89 532.801 1292.8 531.122 1309.21C530.732 1313.02 529.973 1316.71 529.21 1320.47C528.436 1324.25 527.677 1328.06 526.787 1331.85C548.651 1347.24 571.306 1361.31 593.994 1375.5L590.433 1378.52C567.11 1370.92 543.624 1353.51 522.704 1340.8C452.973 1298.45 391.703 1277.79 310.035 1277.14C317.954 1273.03 326.881 1272.11 335.577 1270.55C345.462 1267.62 356.59 1270.52 366.643 1271.96C375.07 1257.81 386.219 1244.98 396.357 1232L399.847 1241.82Z" fill="#0F0707"/>
<path d="M399.855 1241.82C407.707 1236.35 417.476 1228.63 426.491 1225.44C435.229 1222.31 439.2 1224.32 447.099 1227.72L449.596 1228.49C453.889 1235.85 458.552 1240.84 456.587 1249.83C453.694 1263.01 435.991 1274.8 428.042 1285.71C415.833 1282.13 386.006 1278.29 377.785 1269.54C379.044 1267.44 380.622 1263.87 382.495 1262.3L399.855 1241.82Z" fill="#E7CFCA"/>
<path d="M399.852 1241.82C407.704 1236.35 417.473 1228.63 426.488 1225.44C435.226 1222.31 439.197 1224.32 447.096 1227.72C440.491 1241.67 405.774 1256.89 392.084 1264.04C388.245 1263.87 386.038 1263.93 382.492 1262.3L399.852 1241.82Z" fill="#F6E1DB"/>
<path d="M439.254 1285.71C446.269 1274.54 456.499 1263.45 467.358 1255.92C479.518 1247.46 491.036 1244.68 505.642 1247.11C516.49 1265.79 528.123 1294.25 522.588 1316.18C521.832 1319.2 519.037 1320.76 516.82 1322.8C496.943 1321.15 461.971 1297.5 440.681 1289.31L439.254 1285.71Z" fill="#DEC1C0"/>
<path d="M439.254 1285.71C446.269 1274.54 456.499 1263.45 467.358 1255.92C479.518 1247.46 491.036 1244.68 505.642 1247.11C494.561 1265.26 468.15 1277.32 449.469 1286.15C446.112 1286.06 442.56 1286.27 439.254 1285.71Z" fill="#F6E1DB"/>
<path d="M310.035 1277.14C391.703 1277.79 452.973 1298.45 522.704 1340.8C543.624 1353.51 567.11 1370.92 590.433 1378.52C592.091 1380.85 593.421 1383.42 594.845 1385.93C499.401 1372.1 385.456 1339.5 310.035 1277.14Z" fill="#820709"/>
<path d="M1334.38 1067.58L1340.2 1067.82L1342.84 1065.16C1349.71 1058.27 1363.49 1044.47 1373.95 1044.68C1374.91 1044.68 1375.87 1044.83 1376.83 1044.88C1381.91 1054.43 1377.24 1070.95 1374.1 1081.15C1370.5 1092.88 1364.19 1104.44 1358.69 1115.38C1348.39 1131.16 1336.39 1143.9 1321.49 1155.46L1300.46 1154.27C1306.39 1149.75 1310.75 1145.26 1315.3 1139.35C1308.52 1126.52 1301.17 1113.69 1296.09 1100.07L1286.1 1092.15C1292.72 1089.96 1299.11 1086.85 1305.49 1084.02C1307.66 1072.93 1307.42 1061.05 1307.92 1049.76L1317.76 1045.83L1335.59 1057.48L1334.38 1067.58Z" fill="#EC353A"/>
<path d="M1286.1 1092.14C1292.72 1089.96 1299.11 1086.85 1305.49 1084.02C1306.22 1094.48 1308.95 1111.36 1317.84 1118.33C1323.56 1122.82 1331.37 1124.54 1338.48 1123.24C1345.38 1121.97 1352.36 1118.3 1358.69 1115.37C1348.39 1131.16 1336.39 1143.9 1321.49 1155.45L1300.46 1154.27C1306.39 1149.75 1310.75 1145.26 1315.3 1139.35C1308.52 1126.52 1301.17 1113.69 1296.09 1100.06L1286.1 1092.14Z" fill="#E02A31"/>
<path d="M1296.09 1100.07L1299.19 1097.58C1307.36 1106.69 1311.6 1117.86 1316.48 1128.94L1315.29 1139.35C1308.52 1126.52 1301.17 1113.69 1296.09 1100.07Z" fill="#CA2127"/>
<path d="M1317.76 1045.83L1335.59 1057.48L1334.39 1067.58C1326.04 1061.11 1316.74 1055.58 1307.92 1049.76L1317.76 1045.83Z" fill="#0F0707"/>
<path d="M496.965 1149.07C528.887 1138.75 561.509 1119.31 587.702 1098.38C615.105 1127.17 642.66 1155.19 671.949 1182.08L671.036 1187.7L666.051 1195C655.088 1196.18 627.82 1162.66 616.565 1154.8C606.122 1147.5 592.595 1142.83 580.828 1138.02C575.817 1140.02 570.752 1141.89 565.634 1143.6C545.635 1150.46 517.233 1159.06 496.965 1149.07Z" fill="#CA2127"/>
<path d="M975.984 931.8L979.267 923.554C1002.08 916.076 1064.67 925.18 1093.94 923.495C1127.78 921.544 1167.37 909.633 1199.37 898.727L1205.02 903.396C1158.41 942.174 1057.05 942.115 998.693 936.441C990.933 935.702 983.448 933.987 975.984 931.8Z" fill="#E02A31"/>
<path d="M335.571 1270.55C329.635 1269.9 324.354 1269.48 318.846 1266.94L318.406 1261.92C320.998 1257.72 323.187 1255.09 327.179 1252.07C346.383 1237.65 372.546 1228.52 396.351 1232.01C386.213 1244.98 375.064 1257.81 366.636 1271.97C356.584 1270.52 345.456 1267.62 335.571 1270.55Z" fill="#F6E1DB"/>
<path d="M471.523 1198.69C475.001 1183.09 478.411 1154.54 489.336 1142.63L494.064 1147.06C489.749 1163.91 486.248 1181.73 479.389 1197.72L475.214 1199.97L471.523 1198.69Z" fill="#FE7375"/>
<path d="M456.94 241.389C499.343 204.6 491.022 216.186 539.559 225.899C555.344 229.055 570.122 209.891 592.109 224.184C582.778 250.365 578.712 266.74 592.142 292.105C618.751 342.363 659.818 360.895 713.217 353.955L732.143 353.198C743.428 354.853 775.902 360.324 785.657 360.212L794.453 365.136L795.381 372.398C744.769 433.464 730.997 431.564 660.974 394.006C660.534 399.924 664.789 404.848 668.145 410.248C662.153 420.924 654.863 433.045 650.28 444.155C650.537 454 650.472 467.768 651.746 477.205C655.953 467.859 659.026 457.952 662.315 448.222C667.699 428.162 679.061 424.701 697.733 425.059C710.235 428.292 708.589 425.768 715.064 433.899C716.018 447.382 713.837 451.701 713.955 462.571C717.711 515.244 722.894 587.252 721.372 638.828C689.371 669.88 517.702 760.402 477.624 736.373L473.78 743.792C468.594 746.334 463.432 748.373 457.684 749.141C434.476 752.274 412.084 746.629 393.536 732.649C385.038 727.506 376.477 718.616 371.773 709.831C361.842 691.282 363.452 671.447 369.031 651.957L373.401 650.84C377.875 642.877 375.901 633.948 375.201 625.167L379.521 623.397C375.363 617.406 369.956 612.05 365.089 606.606L357.01 587.391L364.477 578.205C354.437 563.037 348.03 548.093 345.327 530.055L343.025 529.053C335.377 515.359 327.142 514.094 313.023 510.349L309.368 508.733C308.426 513.553 307.43 518.362 306.384 523.162C303.6 440.425 259.229 339.36 342.324 279.47C369.291 260.03 393.102 253.835 424.672 248.11C437.077 244.835 444.124 242.864 456.94 241.389Z" fill="#EC353A"/>
<path d="M662.313 448.222C667.697 428.162 679.058 424.701 697.731 425.059C710.233 428.293 708.587 425.768 715.061 433.899C716.016 447.383 713.835 451.701 713.953 462.572C717.709 515.244 722.892 587.253 721.37 638.829C689.368 669.881 517.699 760.403 477.622 736.374L473.777 743.792C468.591 746.334 463.429 748.373 457.682 749.142C434.474 752.275 412.082 746.63 393.534 732.649C385.035 727.507 376.475 718.616 371.771 709.832C361.839 691.282 363.45 671.447 369.028 651.958L373.399 650.84C377.872 642.878 375.899 633.949 375.198 625.168L379.518 623.397C375.361 617.406 369.953 612.051 365.087 606.606L357.008 587.392L364.475 578.206C372.181 568.422 375.373 552.687 387.931 547.405C401.81 541.57 430.792 559.541 444.574 565.346C473.426 523.724 459.017 503.759 519.248 529.55C559.39 484.228 579.829 459.681 635.521 508.189C640.337 504.377 639.965 503.644 643.067 498.099C640.411 473.363 638.408 465.841 650.277 444.155C650.535 454.001 650.47 467.768 651.743 477.205C655.951 467.86 659.024 457.952 662.313 448.222Z" fill="#E53036"/>
<path d="M519.254 529.548C559.397 484.226 579.836 459.68 635.528 508.188L646.786 523.347C654.288 544.708 666.569 585.664 656.357 607.899C654.575 611.777 651.983 614.07 647.932 615.368C632.061 620.449 611.702 606.817 593.925 611.75C542.92 625.911 581.571 676.455 493.021 647.091L507.456 640.367C515.189 627.356 511.773 610.988 510.957 596.399C489.43 584.494 466.571 576.983 443.062 570.221L441.531 567.702L444.581 565.344C473.433 523.723 459.024 503.757 519.254 529.548Z" fill="#020101"/>
<path d="M590.845 559.839C600.005 559.514 609.509 558.87 618.477 561.128C628.881 563.75 636.123 568.68 641.581 577.875C642.858 585.84 643.357 590.475 640.467 598.088C626.715 608.374 601.335 599.755 584.909 604.023C571.213 607.579 564.334 617.046 557.375 628.446L555.487 631.573C553.002 637.676 549.32 639.754 544.072 643.227C536.365 643.505 535.559 642.961 529.262 639.219C523.216 628.667 520.885 616.395 522.631 604.363C524.522 591.054 531.413 579.338 542.784 571.984C552.343 565.804 569.067 563.673 580.063 566.773C580.603 566.927 581.115 567.163 581.641 567.361L590.845 559.839Z" fill="#8B388D"/>
<path d="M364.475 578.203C372.181 568.42 375.373 552.684 387.931 547.402C401.81 541.568 430.792 559.538 444.574 565.343L441.524 567.701L443.055 570.22C466.564 576.982 489.424 584.492 510.95 596.398C511.766 610.987 515.182 627.355 507.449 640.366L493.014 647.09C482.128 643.183 465.081 634.969 453.577 635.82C448.433 636.201 448.687 637.357 445.375 640.83C435.55 659.285 431.395 679.433 424.46 698.973L391.116 683.944C388.885 668.107 386.158 652.561 382.775 636.928L379.518 623.394C375.361 617.403 369.953 612.048 365.087 606.604L357.008 587.389L364.475 578.203Z" fill="#390202"/>
<path d="M364.475 578.203C372.181 568.42 375.373 552.684 387.931 547.402C401.81 541.568 430.792 559.538 444.574 565.343L441.524 567.701L443.055 570.22C442.494 570.196 441.929 570.184 441.368 570.143C422.379 568.789 406.222 552.979 388.407 563.998C384.314 573.119 381.407 582.021 372.899 587.88C366.659 589.162 363.237 588.775 357.008 587.389L364.475 578.203Z" fill="#200F11"/>
<path d="M662.312 448.222C667.696 428.162 679.058 424.701 697.73 425.059L692.053 457.731C688.123 464.251 681.348 473.526 680.479 480.318C668.473 485.526 670.326 487.036 658.997 484.488L651.742 477.205C655.95 467.86 659.023 457.952 662.312 448.222Z" fill="#230000"/>
<path d="M651.742 477.204C655.95 467.858 659.023 457.951 662.312 448.221C662.108 459.384 662.971 474.659 658.997 484.486L651.742 477.204Z" fill="#200F11"/>
<path d="M393.543 732.647C414.706 736.135 465.711 727.682 477.631 736.371L473.787 743.79C468.601 746.332 463.439 748.371 457.691 749.139C434.483 752.272 412.091 746.627 393.543 732.647Z" fill="#E02A31"/>
<path d="M697.727 425.059C710.229 428.292 708.584 425.768 715.058 433.899C716.012 447.382 713.832 451.701 713.95 462.571L711.16 478.467C708.587 474.418 709.195 472.387 709.429 467.572L709.529 465.808L702.733 467.351L700.726 473.998C698.56 472.331 696.3 467.694 694.743 465.037L695.632 465.495L692.893 460.47L692.051 457.73L697.727 425.059Z" fill="#CA2127"/>
<path d="M680.48 480.319C681.349 473.526 688.125 464.252 692.055 457.731L692.897 460.471C693.269 476.387 696.8 508.498 694.963 520.784C685.111 506.52 687.203 486.422 680.48 480.319Z" fill="#B8181E"/>
<path d="M445.38 640.832C449.499 649.099 440.377 675.714 437.286 685.459C435.014 692.627 434.042 696.38 427.727 700.817L424.465 698.975C431.4 679.436 435.555 659.287 445.38 640.832Z" fill="#FE7375"/>
<path d="M375.197 625.166L379.517 623.396L382.774 636.929L382.097 639.114C379.435 647.933 377.987 656.519 376.689 665.599L373.678 664.571L369.027 651.956L373.398 650.839C377.871 642.876 375.898 633.947 375.197 625.166Z" fill="#B8181E"/>
<path d="M643.07 498.096C647.704 506.561 652.697 514.098 646.782 523.346L635.523 508.186C640.34 504.373 639.968 503.64 643.07 498.096Z" fill="#E02A31"/>
<path d="M302.752 396.721C314.344 403.031 326.619 408.2 338.696 413.559L341.973 417.259L349.251 407.556C363.023 417.865 384.32 436.226 400.046 439.846L403.491 446.26C405.885 477.877 397.318 484.577 371.129 500.78C359.794 510.46 351.032 516.327 345.321 530.056L343.019 529.054C335.371 515.36 327.136 514.095 313.017 510.35C313.605 503.192 312.169 491.381 311.549 483.806C300.453 448.335 301.99 433.365 302.752 396.721Z" fill="#020101"/>
<path d="M311.559 483.803C332.497 502.825 343.971 504.327 371.139 500.777C359.804 510.457 351.042 516.324 345.33 530.053L343.028 529.051C335.381 515.357 327.146 514.092 313.027 510.347C313.615 503.189 312.179 491.378 311.559 483.803Z" fill="#E02A31"/>
<path d="M311.053 410.364C337.236 430.235 366.375 443.964 394.967 459.889C394.707 469.604 390.957 472.06 385.136 479.18C375.562 485.902 363.458 490.861 351.701 491.302C343.365 491.615 335.345 488.946 329.24 483.191C309.703 464.772 310.681 434.825 311.053 410.364Z" fill="#FFFC59"/>
<path d="M306.384 523.161C303.6 440.424 259.229 339.359 342.324 279.469C369.291 260.03 393.102 253.834 424.672 248.109C424.013 248.972 417.311 257.789 417.311 257.789C377.396 269.443 340.897 289.187 315.689 323.177C305.284 337.201 293.222 357.799 308.975 371.974C317.739 392.22 323.921 397.36 338.702 413.557C326.625 408.199 314.35 403.029 302.758 396.719C301.996 433.363 300.459 448.333 311.555 483.804C312.175 491.379 313.611 503.19 313.023 510.349L309.368 508.732C308.426 513.553 307.43 518.361 306.384 523.161Z" fill="#FA4C4F"/>
<path d="M732.147 353.197C743.431 354.852 775.906 360.323 785.66 360.211L794.457 365.135L795.385 372.397C782.026 374.51 721.382 365.788 709.828 360.125L713.22 353.954L732.147 353.197Z" fill="#FA4C4F"/>
<path d="M308.973 371.974C322.326 383.917 335.753 395.778 349.254 407.554L341.976 417.257L338.699 413.557C323.919 397.36 317.737 392.22 308.973 371.974Z" fill="#0F0707"/>
<path d="M393.359 386.966L400.002 384.867C397.555 409.76 412.41 431.067 403.492 446.259L400.046 439.845C395.316 417.826 393.454 409.972 393.359 386.966Z" fill="#0F0707"/>
<path d="M393.359 386.966C393.971 379.332 392.963 374.494 397.112 369.445C399.535 376.997 399.73 377.059 400.002 384.868L393.359 386.966Z" fill="#820709"/>
<path d="M491.731 383.61C514.667 369.198 574.156 338.359 600.632 344.829L602.641 349.011L593.044 355.921C588.995 390.233 595.966 397.897 584.457 434.922C579.176 480.212 504.505 510.569 471.517 476.009C453.418 467.393 451.734 462.667 441.04 445.891L438.945 442.53L428.508 440.881L437.715 434.686C450.942 418.855 467.049 394.817 479.078 377.515L481.655 380.033C485.216 383.577 485.612 384.452 488.097 388.989C489.234 387.443 491.111 385.235 491.731 383.61Z" fill="#020101"/>
<path d="M471.523 476.005C485.004 477.356 498.57 477.604 512.092 476.747C546.741 474.477 563.082 459.516 584.463 434.919C579.183 480.208 504.512 510.566 471.523 476.005Z" fill="#CA2127"/>
<path d="M576.358 358.164L581.526 363.218C584.055 375.789 585.846 387.156 583.054 399.889C578.618 420.102 564.461 438.132 547.083 449.023C522.28 464.573 493.886 465.241 466.065 458.777L457.059 452.458C454.911 447.667 453.803 446.635 456.164 441.495C471.476 408.159 543.907 371.763 576.358 358.164Z" fill="#FFFC59"/>
<path d="M537.477 326.558C520.885 345.766 505.871 362.445 491.735 383.607C491.114 385.233 489.238 387.441 488.1 388.986C485.615 384.45 485.219 383.575 481.659 380.031L479.082 377.513C499.53 355.071 510.593 341.779 537.477 326.558Z" fill="#0F0707"/>
<path d="M411.164 394.886L415.027 394.286C418.301 416.566 420.174 420.529 437.717 434.684L428.51 440.879C413.1 426.169 411.132 414.766 411.164 394.886Z" fill="#200F11"/>
<path d="M378.23 502.489C391.442 504.715 400.295 511.844 408.997 521.518C394.902 519.073 387.781 512.37 378.23 502.489Z" fill="#390202"/>
<path d="M446.572 497.669L448.265 499.602L447.036 503.743L426.372 514.791L424.324 511.824C428.29 504.248 439.06 501.092 446.572 497.669Z" fill="#390202"/>
<path d="M411.164 394.887C411.486 387.867 410.419 381.451 414.193 377.044C414.89 383.614 415.502 387.578 415.026 394.287L411.164 394.887Z" fill="#820709"/>
<path d="M818.017 693.385C828.619 697.363 840.161 703.558 851.584 701.321C854.028 697.526 855.488 693.997 856.989 689.746C867.621 686.318 894.097 699.379 906.602 702.03C918.448 728.066 933.77 791.524 925.422 818.006L924.618 820.637C923.974 822.706 923.244 824.745 922.508 826.784C924.113 835.356 923.64 836.715 920.334 844.843C931.163 856.282 939.57 863.819 939.071 880.666C938.837 888.587 937.454 898.755 943.03 905.316C946.34 909.217 950.864 912.321 954.829 915.483C957.456 917.552 960.021 919.739 962.645 921.838C962.973 933.749 961.761 945.01 960.272 956.803C939.546 966.084 919.199 975.128 897.483 981.867L889.629 983.936C784.656 1011.36 668.973 1040.12 560.691 1014.65C542.417 1013.37 525.025 1007.64 507.765 1001.91L502.544 997.621C486.333 989.522 475.01 984.645 467.037 967.296L461.101 967.946C461.086 972.468 461.243 973.591 458.979 977.434C456.657 977.109 455.587 977.079 453.495 976.311C433.425 968.951 417.067 941.286 408.559 923.227C411.627 922.813 413.314 921.927 415.92 920.094C424.011 914.36 426.549 901.592 427.391 892.282C429.019 874.282 425.819 856.4 413.964 842.45C411.709 838.578 411.769 837.395 411.621 833.08L419.791 837.573L423.603 836.42C415.181 827.583 409.833 819.898 404.724 808.814C403.335 806.657 402.573 805.829 401.955 803.051C400.472 796.46 402.78 791.642 406.47 786.617C418.181 786.706 439.054 806.331 450.96 812.331C465.572 819.691 481.224 824.952 496.891 829.563C618.131 865.238 775.2 856.577 887.014 795.484L885.253 792.322C877.945 794.657 871.013 797.021 863.336 797.76C877.963 783.632 896.854 768.322 903.077 748.165C905.456 740.45 905.045 732.677 900.698 725.761C892.67 712.936 875.109 706.939 861.288 703.02C855.287 705.884 849.847 708.778 843.057 708.849C833.873 708.943 825.823 701.448 819.778 695.238C819.184 694.626 818.605 694.002 818.017 693.385Z" fill="#0F0707"/>
<path d="M818.017 693.385C828.619 697.363 840.161 703.558 851.584 701.321C854.028 697.526 855.488 693.997 856.989 689.746C867.621 686.318 894.097 699.379 906.602 702.03C918.448 728.066 933.769 791.524 925.422 818.006L924.618 820.637C923.974 822.706 923.244 824.745 922.508 826.784C924.113 835.356 923.64 836.715 920.334 844.843C891.033 850.873 863.383 866.006 834.532 874.134C806.947 881.907 776.97 883.947 748.762 889.237C749.061 892.4 750.05 894.439 748.28 897.158L745.37 897.809C749.69 899.109 753.215 899.848 756.844 902.626L754.616 910.34L751.702 912.823L729.975 902.863C710.008 886.459 643.951 907.828 620.279 894.498L625.95 892.222C611.24 889.06 594.116 889.385 578.996 887.405C522.472 879.986 472.581 866.774 423.603 836.42C415.181 827.583 409.833 819.898 404.724 808.814C403.335 806.657 402.573 805.829 401.955 803.051C400.472 796.46 402.78 791.642 406.47 786.617C418.181 786.706 439.054 806.331 450.96 812.331C465.572 819.691 481.224 824.952 496.891 829.563C618.131 865.238 775.2 856.577 887.014 795.484L885.253 792.322C877.945 794.657 871.013 797.021 863.336 797.76C877.963 783.632 896.854 768.322 903.077 748.165C905.456 740.45 905.045 732.677 900.698 725.761C892.67 712.936 875.109 706.939 861.288 703.02C855.287 705.884 849.847 708.778 843.056 708.849C833.873 708.943 825.823 701.448 819.778 695.238C819.184 694.626 818.605 694.002 818.017 693.385Z" fill="#362126"/>
<path d="M404.719 808.816C405.72 809.378 406.734 809.939 407.727 810.531C432.912 825.191 452.58 843.959 480.344 856.047C574.878 897.279 722.925 888.5 820.913 864.589C852.344 856.934 897.017 847.092 922.503 826.787C924.108 835.358 923.635 836.717 920.328 844.845C891.027 850.875 863.378 866.008 834.526 874.136C806.942 881.909 776.964 883.949 748.757 889.239C749.055 892.402 750.045 894.441 748.275 897.161L745.365 897.811C749.685 899.111 753.21 899.85 756.839 902.628L754.611 910.343L751.697 912.825L729.97 902.865C710.003 886.461 643.946 907.83 620.274 894.5L625.945 892.224C611.235 889.062 594.111 889.387 578.991 887.407C522.466 879.988 472.576 866.776 423.598 836.422C415.176 827.585 409.828 819.9 404.719 808.816Z" fill="#BD868D"/>
<path d="M625.94 892.224C666.948 893.701 707.824 891.455 748.752 889.238C749.051 892.401 750.041 894.44 748.271 897.16L745.36 897.81C749.68 899.11 753.205 899.849 756.834 902.627L754.606 910.342L751.692 912.824L729.965 902.864C709.999 886.46 643.941 907.829 620.27 894.499L625.94 892.224Z" fill="#412D33"/>
<path d="M885.242 792.322C892.095 788.657 896.234 785.199 904.242 785.76C899.774 791.672 893.773 793.061 887.003 795.484L885.242 792.322Z" fill="#200F11"/>
<path d="M748.755 889.238C776.963 883.948 806.941 881.909 834.525 874.135C863.377 866.007 891.026 850.874 920.327 844.845C931.157 856.283 939.563 863.82 939.064 880.667C938.831 888.588 937.448 898.756 943.024 905.317C946.333 909.219 950.857 912.322 954.823 915.485C957.45 917.554 960.014 919.741 962.638 921.839C962.966 933.751 961.755 945.011 960.266 956.804C939.54 966.085 919.192 975.13 897.477 981.868C898.67 973.681 898.933 966.381 898.292 958.105C882.028 934.726 890.949 919.77 886.874 894.5C885.81 887.909 884.637 887.731 879.437 884.125C863.501 883.268 843.895 888.529 828.701 893.524C796.69 904.076 828.331 939.839 817.254 961.356C813.412 962.006 808.938 963.07 805.044 962.775C786.262 961.445 798.274 925.534 786.475 908.48C775.837 902.066 769.121 903.071 756.837 902.628C753.209 899.849 749.683 899.11 745.363 897.81L748.274 897.16C750.044 894.441 749.054 892.401 748.755 889.238Z" fill="#4C363A"/>
<path d="M413.951 842.453C411.697 838.581 411.756 837.398 411.608 833.083L419.779 837.576L423.59 836.423C472.568 866.777 522.459 879.989 578.984 887.408C594.104 889.388 611.228 889.063 625.937 892.225L620.267 894.501C643.939 907.831 709.996 886.462 729.962 902.866C709.727 908.215 698.247 910.048 686.608 928.757C668.905 925.21 658.196 893.585 632.491 910.787C626.067 915.102 618.913 929.467 612.649 930.531C601.769 919.24 593.138 906.294 576.23 906.324C562.841 906.353 543.888 928.816 538.274 926.038C538.028 925.122 537.795 924.176 537.535 923.26C534.731 913.151 531.38 904.757 521.389 899.644C511.783 894.767 499.647 895.447 489.778 899.141C477.456 903.752 466.679 913.654 461.602 925.861C456.697 937.624 456.1 955.979 461.088 967.949C461.073 972.471 461.23 973.594 458.967 977.437C456.644 977.112 455.574 977.082 453.482 976.314C433.413 968.954 417.054 941.289 408.547 923.23C411.614 922.816 413.301 921.93 415.908 920.097C423.998 914.363 426.536 901.595 427.379 892.285C429.007 874.285 425.807 856.403 413.951 842.453Z" fill="#4C363A"/>
<path d="M754.617 910.342L758.967 911.997C760.731 926.864 763.456 942.292 762.593 957.248L760.557 957.514C760.471 971.169 760.17 980.331 750.064 990.824C743.064 998.065 733.652 1002.56 723.47 1002.32C713.349 1002.06 704.029 997.208 697.333 989.701C692.28 984.055 689.494 977.582 687.272 970.459L685.263 966.972L681.743 968.982C679.796 961.297 681.016 954.529 682.045 946.785L685.106 949.327L686.77 946.992C691.175 935.494 694.789 925.593 705.876 918.884C714.008 913.948 723.283 911.524 732.597 914.391C744.074 917.908 750.028 925.711 755.17 935.997C756.089 925.563 757.711 921.839 751.704 912.824L754.617 910.342Z" fill="#FC6D36"/>
<path d="M754.61 910.342L758.959 911.997C760.723 926.864 763.448 942.292 762.585 957.248L760.549 957.514C758.679 955.031 756.19 952.844 753.995 950.627C747.639 950.893 737.081 950.154 731.821 954.026C722.886 960.588 733.547 971.464 731.656 980.42L723.828 980.479C717.706 976.785 711.101 969.071 707.81 962.598C704.21 955.504 704.979 952.785 707.706 945.603C724.771 931.327 736.546 940.874 755.162 935.997C756.081 925.563 757.703 921.839 751.696 912.824L754.61 910.342Z" fill="#020101"/>
<path d="M682.045 946.786L685.106 949.328L686.77 946.993C687.015 954.707 687.768 962.746 687.272 970.46L685.263 966.973L681.743 968.983C679.796 961.298 681.016 954.53 682.045 946.786Z" fill="#820709"/>
<path d="M681.742 968.98C677.384 982.605 668.424 999.837 655.958 1007.64C651.017 1010.74 645.06 1011.63 639.581 1009.89C629.715 1006.75 622.886 998.271 618.599 989.138C611.096 973.177 610.889 952.37 617.183 935.995C620.289 927.897 625.424 921.187 633.497 917.67C642.052 913.916 655.334 915.542 663.729 919.118C674.712 923.818 678.406 936.468 682.044 946.783C681.015 954.527 679.795 961.295 681.742 968.98Z" fill="#FC6D36"/>
<path d="M644.527 933.246C651.784 936.438 655.044 937.709 658.04 945.748C663.338 959.965 655.723 976.901 648.918 989.197C641.537 985.768 638.236 984.645 635.311 976.398C630.379 962.477 637.914 945.305 644.527 933.246Z" fill="#020101"/>
<path d="M467.03 967.296C464.459 953.612 463.354 936.765 468.971 923.73C472.331 915.927 477.883 909.898 485.879 906.854C496.275 902.864 508.594 904.489 518.546 909.07C526.811 912.854 528.965 917.523 531.556 925.504C528.389 934.134 527.561 933.809 519.276 938.065L514.964 941.346C522.219 943.385 527.319 943.09 531.426 950.006C534.053 954.41 534.257 959.168 532.99 964.104C529.506 977.582 520.242 986.981 508.694 993.956C506.638 995.198 504.631 996.439 502.536 997.621C486.325 989.523 475.002 984.646 467.03 967.296Z" fill="#FC6D36"/>
<path d="M514.969 941.345C510.912 942.321 507.123 943.74 503.208 945.158C499.523 954.291 505.061 960.261 505.513 969.838L498.799 970.577C493.318 968.183 491.453 967.887 488.77 962.183C485.094 954.321 485.609 941.079 488.954 933.158C492.157 925.562 494.727 924.114 502.209 921.572C512.04 925.562 513.559 929.493 519.28 938.065L514.969 941.345Z" fill="#020101"/>
<path d="M562.456 1011.31C564.636 1011.48 566.82 1011.63 569.007 1011.75C583.947 1012.49 586.34 1010.01 597.424 1000.78C603.446 995.76 605.55 993.278 613.295 994.283C614.601 996.026 615.928 997.77 617.278 999.514C624.5 1008.79 630.785 1015.03 643.066 1016.04C662.76 1017.66 672.541 999.159 685.986 988.431C692.416 994.224 698.925 999.928 705.515 1005.54C729.547 1012.1 738.315 1001.76 759.755 994.933C763.975 997.918 769.498 1002.56 774.731 1003.3C800.421 1006.87 856.816 981.78 887.124 980.125L889.618 983.938C784.645 1011.37 668.963 1040.12 560.68 1014.65L562.456 1011.31Z" fill="#4C363A"/>
<path d="M758.969 911.996C766.903 909.277 771.796 907.208 780.037 909.602C793.467 925.504 783.625 966.557 796.564 967.946C805.243 968.892 813.966 965.582 821.817 969.602C822.875 977.848 822.263 978.616 818.694 985.68C802.385 991.473 784.771 993.306 768.123 998.271L762.594 957.247C763.457 942.292 760.733 926.863 758.969 911.996Z" fill="#FC6D36"/>
<path d="M507.754 1001.91C515.836 995.905 523.114 987.482 533.287 987.925L543.709 999.009C549.265 1005.01 555.095 1007.91 562.455 1011.3L560.679 1014.64C542.406 1013.37 525.014 1007.64 507.754 1001.91Z" fill="#412D33"/>
<path d="M564.081 914.182C568.794 914.182 573.626 914.152 578.3 914.802C587.697 916.073 595.888 921.748 601.095 929.581C608.266 940.339 609.868 952.842 607.581 965.433C604.147 984.319 595.572 995.344 580.147 1006.19C575.546 1006.16 570.842 1006.16 566.28 1005.51C557.25 1004.24 549.15 997.827 544.239 990.349C536.476 978.556 535.034 964.516 537.847 950.92C541.423 933.6 549.336 923.463 564.081 914.182Z" fill="#FC6D36"/>
<path d="M571.378 929.791C578.13 933.545 581.132 935.436 584.046 943.15C589.344 957.189 582.27 974.51 576.366 987.219C575.961 987.13 575.545 987.042 575.152 986.923C567.794 984.352 564.422 982.697 561.653 974.982C556.512 960.618 564.818 942.352 571.378 929.791Z" fill="#020101"/>
<path d="M869.433 891.485C873.281 890.953 877.474 891.603 881.354 891.84L883.942 895.416C879.17 906.766 856.854 915.722 845.815 922.401L845.312 925.239C854.092 930.145 866.012 923.85 876.212 926.421L877.746 932.746C872.867 941.731 859.659 945.041 850.764 951.071L852.073 954.618C865.911 958.549 878.617 954.559 892.24 951.455C891.835 956.628 891.82 961.741 889.311 966.411C882.994 978.144 842.482 983.553 828.963 986.509C826.85 958.135 821.159 929.406 816.957 901.239C834.474 898.106 851.967 894.855 869.433 891.485Z" fill="#FC6D36"/>
<path d="M952.706 447.843C960.688 436.364 969.345 393.602 997.154 410.987L1002.63 417.533C1033.91 444.409 1060.55 475.993 1075.43 514.933L1076.96 518.394C1086.11 538.75 1105 545.773 1114.24 563.373C1120.63 575.533 1113.27 586.652 1114.59 598.321C1115.9 609.99 1140.64 647.724 1146.05 661.808C1151.71 676.545 1153.97 692.765 1155.5 708.41C1117.04 741.25 1068.31 748.314 1019.14 749.407C990.902 751.092 970.711 750.856 942.352 749.88C919.883 671.541 875.491 652.179 859.635 609.094C867.853 604.401 868.908 604.25 874.295 596.799C876.192 577.566 850.422 511.582 842.535 489.308L902.242 486.166L908.773 484.585C914.874 474.125 909.958 458.058 907.638 445.254C921.635 446.643 938.449 447.093 952.706 447.843Z" fill="#F03A3E"/>
<path d="M842.535 489.307L902.242 486.165L898.082 490.82L905.685 492.393C900.647 497.828 895.192 498.446 887.926 500.541C861.411 523.258 882.217 659.569 996.099 636.838L997.568 639.767L995.174 640.727C986.466 644.138 978.94 645.755 969.712 646.99C966.577 670.225 970.214 696.893 984.782 715.818C994.412 728.332 1007.37 738.943 1019.14 749.406C990.902 751.091 970.711 750.854 942.352 749.879C919.883 671.54 875.491 652.177 859.635 609.093C867.853 604.399 868.908 604.249 874.295 596.797C876.192 577.565 850.422 511.581 842.535 489.307Z" fill="#CA2127"/>
<path d="M1028.77 461.592C1017.41 449.285 997.118 434.093 1002.63 417.532C1033.91 444.408 1060.55 475.992 1075.43 514.932C1065.96 528.25 1065.49 540.055 1051.19 546.064C1024.14 542.039 983.106 501.047 999.99 471.748C1008.62 464.004 1017.1 463.77 1028.77 461.592Z" fill="#FA4C4F"/>
<path d="M952.699 447.843C960.68 436.364 969.338 393.602 997.147 410.987C989.869 440.898 986.149 444.441 952.699 447.843Z" fill="#CA2127"/>
<path d="M1023.12 594.27L1027.98 602.282C1019.39 617.746 1012.03 629.016 997.566 639.769L996.098 636.839C1009.13 623.773 1017.1 611.723 1023.12 594.27Z" fill="#600808"/>
<path d="M1023.12 594.269C1023.42 588.503 1022.47 581.105 1026.31 576.828C1029.77 585.991 1029.16 592.806 1027.98 602.282L1023.12 594.269Z" fill="#820709"/>
<path d="M939.686 485.438C949.918 484.761 957.462 485.294 966.416 490.832C981.486 500.154 992.874 514.894 996.388 532.407C998.506 542.964 996.133 549.242 990.519 558.124C976.666 557.06 966.856 553.938 955.488 546C943.279 537.467 933.179 526.206 931.031 510.898C929.544 500.299 933.601 493.688 939.686 485.438Z" fill="#FA4C4F"/>
<path d="M734.899 583.401C733.59 574.461 733.681 566.794 734.686 557.82L737.461 556.274L740.428 565.874C758.943 612.875 776.345 661.773 818.012 693.387C818.6 694.004 819.179 694.628 819.773 695.24C825.819 701.45 833.868 708.945 843.052 708.85C849.842 708.78 855.282 705.886 861.284 703.022C875.104 706.941 892.665 712.938 900.693 725.763C905.04 732.679 905.451 740.452 903.072 748.166C896.849 768.324 877.958 783.634 863.331 797.762C758.606 840.708 623.812 853.092 514.237 821.466C510.866 821.141 507.515 820.639 504.197 819.959C475.466 813.929 429.26 794.925 412.656 769.802C413.469 768.147 413.599 765.93 415.097 764.866C419.216 761.94 450.866 761.733 458.286 760.935C541.656 752.038 605.033 728.039 678.732 689.051C703.092 676.17 727.204 663.594 735.815 635.766C736.477 618.189 735.812 600.946 734.899 583.401Z" fill="#4C363A"/>
<path d="M735.815 635.766C738.415 656.919 741.385 680.13 727 698.192C723.525 702.554 719.303 706.012 714.829 709.281C701.626 718.931 686.855 726.442 673.998 736.55C658.245 748.934 644.381 763.801 628.223 775.653C619.601 781.978 609.743 788.037 599.933 792.352C577.99 801.988 528.489 804.116 514.237 821.466C510.866 821.14 507.515 820.638 504.197 819.958C475.466 813.929 429.26 794.924 412.656 769.801C413.469 768.146 413.599 765.929 415.097 764.865C419.216 761.939 450.866 761.732 458.286 760.934C541.656 752.038 605.033 728.038 678.732 689.05C703.092 676.169 727.204 663.593 735.815 635.766Z" fill="#362126"/>
<path d="M734.904 583.401C733.595 574.461 733.687 566.794 734.692 557.82L737.466 556.274L740.433 565.874C738.379 571.617 735.956 577.375 734.904 583.401Z" fill="#412D33"/>
<path d="M23.8572 467.817C19.788 448.114 11.7772 335.321 16.9265 320.425L21.5157 321.882C60.6811 335.85 98.8439 352.488 135.736 371.676C169.295 433.629 204.905 507.109 229.067 573.516C244.235 595.988 253.812 625.275 264.875 650.156C272.401 666.022 284.525 685.287 287.241 702.521C274.118 713.829 261.462 724.576 246.279 733.124L232.867 739.981C220.844 747.843 205.153 753.045 191.537 758.217C161.896 697.133 62.6653 515.695 23.8572 467.817Z" fill="#A887A2"/>
<path d="M23.8572 467.817C19.788 448.114 11.7772 335.321 16.9265 320.425L21.5157 321.882C60.6811 335.85 98.8439 352.488 135.736 371.676C169.295 433.629 204.905 507.109 229.067 573.516C217.312 569.133 206.341 547.38 199.279 536.822C163.864 533.725 159.204 529.971 128.304 512.249C114.325 493.705 103.699 462.76 86.8735 438.577L84.1934 438.544C88.481 460.23 92.804 472.265 104.804 490.856L100.327 492.289C70.5092 475.513 56.9027 470.435 23.8572 467.817Z" fill="#DEC1C0"/>
<path d="M21.5151 321.879C60.6805 335.847 98.8433 352.485 135.735 371.673C169.294 433.626 204.904 507.106 229.067 573.513C217.312 569.13 206.34 547.376 199.278 536.819C181.767 493.918 147.121 435.872 125.16 387.269C107.102 400.073 97.5667 410.403 84.4055 427.927C72.9434 407.321 19.1813 335.02 21.5151 321.879Z" fill="#FFFEFE"/>
<path d="M128.309 512.247C159.208 529.969 163.868 533.723 199.283 536.82C206.345 547.378 217.317 569.131 229.071 573.515C244.239 595.986 253.816 625.274 264.879 650.154C272.405 666.02 284.529 685.285 287.245 702.519C274.122 713.828 261.466 724.574 246.284 733.122C242.823 729.309 226.37 697.988 222.497 691.025C189.862 632.382 155.94 573.461 128.309 512.247Z" fill="#A887A2"/>
<path d="M287.235 702.52C282.992 700.549 278.87 698.244 276.092 694.351C267.082 681.719 262.455 665.463 264.869 650.155C272.395 666.021 284.519 685.286 287.235 702.52Z" fill="#CABCCF"/>
<path d="M104.814 490.852C92.8138 472.261 88.4907 460.226 84.2031 438.54L86.8832 438.573C103.709 462.756 114.334 493.701 128.314 512.245C155.946 573.459 189.868 632.38 222.502 691.022C226.376 697.986 242.829 729.307 246.289 733.12L232.877 739.977C220.079 706.906 184.762 652.454 168.383 617.856C161.105 602.486 109.949 495.687 104.814 490.852Z" fill="#846B78"/>
<path d="M801.428 259.204C858.05 251.135 886.276 250.644 943.645 263.898C918.883 280.378 916.83 290.061 887.588 294.021C898.151 311.776 988.764 335.536 1011.56 339.615C989.21 358.703 984.01 357.497 954.747 353.161L985.8 374.63C994.774 378.077 998.583 377.56 1002.19 384.446C996.893 390.751 994.086 391.002 986.057 394.052C936.725 409.608 921.33 413.84 871.359 392.497C889.937 416.683 891.349 441.727 897.345 472.184L825.363 476.615C833.607 504.153 852.714 562.461 856.712 588.453C847.752 599.108 845.764 591.326 831.79 600.341C831.799 616.366 832.735 629.891 837.259 645.308L841.559 648.024L836.364 654.048L838.58 658.336C840.454 666.828 843.22 673.18 840.271 681.597C835.38 682.599 832.345 682.324 827.691 680.3C787.957 663.006 772.556 606.471 757.896 569.443C751.732 553.674 746.44 538.462 742.687 521.94C734.7 497.907 732.454 457.391 730.359 431.485C734.647 430.903 738.926 430.253 743.196 429.537C774.934 424.489 785.253 408.035 803.039 383.223C805.725 375.077 806.41 374.093 806.082 365.716C799.49 358.386 796.674 359.601 785.862 356.802L785.661 360.21C775.907 360.322 743.432 354.851 732.147 353.196C735.761 336.258 759.232 321.506 768.655 306.122C783.054 282.604 771.217 262.742 801.428 259.204Z" fill="#4C363A"/>
<path d="M757.891 569.445C770.886 573.181 783.971 576.74 796.845 580.872C806.207 601.567 816.295 634.469 837.254 645.311L841.553 648.027L836.359 654.05L838.575 658.339C840.448 666.831 843.214 673.182 840.265 681.6C835.375 682.602 832.34 682.327 827.686 680.302C787.951 663.009 772.55 606.474 757.891 569.445Z" fill="#412D33"/>
<path d="M732.145 353.197C735.758 336.259 759.229 321.507 768.653 306.123C783.052 282.605 771.214 262.743 801.426 259.205C796.987 270.274 801.972 290 800.752 304.746C798.766 328.698 795.557 335.348 785.859 356.803L785.658 360.211C775.904 360.323 743.429 354.853 732.145 353.197Z" fill="#362126"/>
<path d="M803.039 383.224L804.043 384.633C814.557 399.178 815.319 392.055 817.131 406.52C808.396 433.96 771.841 452.465 745.766 460.091C745.622 477.538 746.416 505.812 742.687 521.941C734.7 497.908 732.454 457.392 730.359 431.486C734.647 430.904 738.926 430.254 743.196 429.538C774.934 424.49 785.253 408.036 803.039 383.224Z" fill="#362126"/>
<path d="M985.793 374.632C994.767 378.078 998.576 377.561 1002.18 384.448C996.886 390.752 994.079 391.003 986.05 394.053L985.793 374.632Z" fill="#412D33"/>
<path d="M727.816 13.8443C737.37 10.8739 737.42 8.93495 744.311 11.9142C733.466 39.0322 724.823 51.839 725.172 81.951L725.314 89.2396L732.438 119.458L733.954 127.06C754.231 175.379 780.021 223.763 758.914 276.063C749.048 300.509 730.594 322.052 706.024 332.335C687.78 340.064 667.14 339.842 649.065 331.72C640.983 328.132 629.031 320.294 622.143 314.572C572.196 258.122 601.91 245.401 620.343 189.528C629.093 163.001 610.477 114.085 622.923 85.4978C637.059 53.0301 682.066 31.1287 712.483 18.384L727.816 13.8443Z" fill="#FEF7E4"/>
<path d="M701.784 127.32L733.964 127.062C754.24 175.381 780.031 223.765 758.924 276.065C749.057 300.511 730.604 322.055 706.034 332.337C687.79 340.066 667.15 339.845 649.075 331.723C640.993 328.135 629.04 320.296 622.152 314.574C654.636 296.864 663.518 292.191 689.87 264.919L686.023 261.157L688.254 257.066L692.385 258.76C707.804 237.633 712.458 226.526 721.027 201.899C729.729 205.623 732.318 207.465 741.519 207.607C736.691 201.196 726.851 198.302 719.065 195.066C719.62 168.332 711.246 151.987 701.784 127.32Z" fill="#DEC1C0"/>
<path d="M688.25 257.065L692.381 258.759C711.343 272.219 720.775 278.987 737.796 295.314C717.188 284.585 708.249 278.299 689.867 264.919L686.02 261.156L688.25 257.065Z" fill="#200F11"/>
<path d="M727.822 13.8443C737.375 10.8739 737.426 8.93495 744.316 11.9142C733.472 39.0322 724.829 51.839 725.177 81.951C713.901 76.9796 702.962 75.3127 690.895 72.7798C699.576 50.7869 702.968 43.6903 720.532 28.049L712.489 18.384L727.822 13.8443Z" fill="#D5BCB5"/>
<path d="M712.488 18.3874L727.821 13.8477L728.525 20.8141L720.532 28.0524L712.488 18.3874Z" fill="#FFFEFE"/>
<path d="M691.145 77.7627C701.386 82.6395 714.282 85.9439 725.315 89.2394L732.44 119.458C721.32 123.223 709.5 121.678 697.716 121.039C695.134 108.561 693.056 90.7646 691.145 77.7627Z" fill="#D5BCB5"/>
<path d="M721.015 201.898C687.926 191.562 673.772 191.308 639.648 187.702C662.995 178.267 696.306 187.844 719.053 195.064C726.839 198.301 736.679 201.194 741.507 207.605C732.306 207.463 729.717 205.622 721.015 201.898Z" fill="#968A83"/>
<path d="M732.435 119.459L733.951 127.061L701.772 127.318C667.327 128.19 651.805 142.525 636.031 142.362L639.716 137.317C660.956 126.889 674.436 123.972 697.712 121.04C709.496 121.679 721.316 123.224 732.435 119.459Z" fill="#ADA297"/>
<path d="M686.009 261.158C670.773 254.765 640.775 237.847 627.117 229.143L628.385 227.694C647.654 233.718 672.389 244.391 688.24 257.067L686.009 261.158Z" fill="#756E68"/>
<path d="M691.145 77.7641C679.317 75.8311 670.387 75.1601 659.625 69.8311C670.854 68.2085 679.851 70.6381 690.891 72.781C702.959 75.314 713.898 76.9808 725.174 81.9522L725.316 89.2408C714.282 85.9453 701.387 82.6409 691.145 77.7641Z" fill="#C6B8A9"/>
<path d="M1143.67 738.146C1150.62 733.092 1156.61 728.688 1161.63 721.551C1165.35 716.287 1169.26 711.17 1173.1 705.998L1177.46 706.137L1186.44 717.918C1189.39 742.196 1195.61 768.678 1193.73 793.062L1191.46 794.422C1179.06 786.649 1165.14 775.328 1149.73 778.432C1138.65 780.649 1130 787.151 1124.44 796.934C1118.17 807.929 1117.07 822.471 1121.29 834.412C1125.06 845.052 1133.26 854.096 1143.72 858.471C1155.67 863.466 1170.22 860.569 1182.15 856.786L1183.91 855.278C1188.98 850.904 1192.28 847.387 1195.64 841.623L1199.96 840.855C1201.99 850.549 1207.23 865.387 1203.94 874.786L1200.18 876.943C1199.38 877.535 1198.59 878.155 1197.78 878.746C1146.27 915.81 1022.67 913.327 961.244 903.042C961.129 894.914 961.221 886.549 960.311 878.51C959.259 869.17 958.115 864.086 950.612 858.175C943.033 845.761 941.981 838.904 943.796 824.333C944.088 824.008 944.496 823.772 944.679 823.387C950.855 810.235 938.069 783.516 933.199 769.979L933.619 765.929C936.269 764.333 1033.48 764.54 1048.07 763.003C1081.9 759.457 1112.33 750.974 1143.67 738.146Z" fill="#412D33"/>
<path d="M1143.67 738.146C1150.62 733.092 1156.61 728.688 1161.63 721.551C1165.35 716.287 1169.26 711.17 1173.1 705.998L1177.46 706.137L1186.44 717.918L1178.92 729.22C1120.06 779.585 1028.37 781.24 954.407 775.328C946.479 774.678 940.326 773.821 933.199 769.979L933.619 765.929C936.269 764.333 1033.48 764.54 1048.07 763.003C1081.9 759.457 1112.33 750.974 1143.67 738.146Z" fill="#654C56"/>
<path d="M1143.68 738.146C1150.62 733.092 1156.61 728.688 1161.64 721.551C1165.35 716.287 1169.27 711.17 1173.1 705.998L1177.46 706.137L1186.45 717.918L1178.93 729.22L1172.82 724.704C1163.59 730.61 1154.91 737.171 1143.68 738.146Z" fill="#4C363A"/>
<path d="M1182.15 856.785L1183.91 855.278C1188.99 850.904 1192.29 847.386 1195.65 841.623L1199.96 840.854C1202 850.549 1207.24 865.386 1203.94 874.785L1200.18 876.943C1192.98 873.899 1184.76 873.367 1177.01 872.894C1179.33 867.485 1180.86 862.49 1182.15 856.785Z" fill="#362126"/>
<path d="M943.79 824.333C951.195 836.303 952.841 844.372 950.607 858.175C943.028 845.761 941.976 838.904 943.79 824.333Z" fill="#D5BCB5"/>
<path d="M1018.31 799.062C1027.38 795.515 1039.18 797.791 1047.96 801.397C1059.06 805.919 1067.49 815.171 1071.72 826.343C1075.29 835.742 1075.42 846.057 1071.05 855.219C1065.21 867.485 1057 871.535 1044.81 875.407C1030.98 876.027 1016.76 877.298 1004.24 870.175C992.841 863.673 982.857 850.904 980.091 838.106C978.182 829.239 979.988 820.077 985.525 812.865C994.369 801.338 1004.96 800.244 1018.31 799.062Z" fill="#0F0707"/>
<path d="M986.945 827.908C995.423 815.287 1002.13 807.159 1017.99 803.937C1029.97 801.484 1041.98 803.376 1052.13 810.322C1063.41 818.066 1068.15 827.228 1070.66 840.351C1070.43 840.883 1070.21 841.415 1069.98 841.947C1069.58 842.804 1069.15 843.661 1068.74 844.518C1067.88 846.351 1067.04 848.213 1066.09 849.987C1061.07 859.385 1052.94 864.735 1042.72 867.425C1031.03 870.498 1019.59 868.252 1009.26 862.223C994.652 853.71 990.937 843.277 986.945 827.908Z" fill="#FEF7E4"/>
<path d="M986.945 827.907C1013.33 835.119 1043.29 839.641 1070.66 840.351C1070.43 840.883 1070.21 841.414 1069.98 841.947C1069.58 842.804 1069.15 843.661 1068.74 844.518C1067.88 846.35 1067.04 848.213 1066.09 849.986C1061.07 859.385 1052.94 864.734 1042.72 867.424C1031.03 870.498 1019.59 868.252 1009.26 862.222C994.652 853.71 990.937 843.277 986.945 827.907Z" fill="#CABCCF"/>
<path d="M244.49 820.164C254.504 815.79 265.674 809.524 276.655 813.839C282.08 815.967 285.968 820.755 287.99 826.223C291.704 836.213 292.759 847.888 294.266 858.41C300.013 856.991 304.827 854.656 310.092 852.085C316.649 856.637 325.068 861.1 333.108 861.957C345.628 863.257 353.412 857.05 362.48 849.691C364.227 852.853 365.834 856.341 367.953 859.267C375.884 868.341 378.951 899.168 378.271 911.73C378.067 915.483 377.388 917.759 375.467 920.951C372.367 919.089 371.174 918.557 369.214 915.424L362.926 917.257C356.171 939.217 349.343 950.744 328.637 961.562C309.017 971.818 280.862 978.586 259.17 971.375C251.615 968.862 243.923 964.163 240.321 956.803C237.484 950.98 237.36 945.395 239.703 939.365L237.635 935.463C230.298 931.532 223.366 927.602 217.881 921.188C210.606 912.676 211.079 904.548 211.918 893.907L210.68 889.651C210.13 889.562 209.56 889.533 209.031 889.356C204.339 887.819 195.613 879.011 193.199 874.459C190.489 869.346 191.689 860.42 193.943 855.395C203.166 834.854 224.926 827.021 244.49 820.164Z" fill="#EC353A"/>
<path d="M244.49 820.164C254.504 815.79 265.674 809.524 276.655 813.839C282.08 815.967 285.968 820.755 287.99 826.223C291.704 836.213 292.759 847.888 294.266 858.41C286.323 862.991 279.875 868.962 273.041 875.021C261.224 879.395 249.366 884.568 236.843 886.459C227.05 885.927 219.982 886.459 210.68 889.651C210.13 889.562 209.56 889.533 209.031 889.356C204.339 887.819 195.613 879.011 193.199 874.459C190.489 869.346 191.689 860.42 193.943 855.395C203.166 834.854 224.926 827.021 244.49 820.164Z" fill="#EC353A"/>
<path d="M244.492 820.164C254.506 815.79 265.676 809.524 276.656 813.839C282.082 815.967 285.97 820.755 287.992 826.223C291.706 836.213 292.761 847.888 294.268 858.41C286.325 862.991 279.877 868.962 273.043 875.021C274.901 861.75 278.208 837.927 268.906 827.169C262.257 819.455 253.806 820.814 244.492 820.164Z" fill="#CA2127"/>
<path d="M268.185 939.454C298.381 934.074 315.531 918.528 342.031 905.671C352.367 906.558 355.37 910.873 362.916 917.257C356.162 939.217 349.333 950.745 328.628 961.562C309.007 971.818 280.852 978.586 259.16 971.375C251.605 968.862 243.913 964.163 240.311 956.803C237.474 950.981 237.35 945.395 239.693 939.365L237.625 935.464L262.949 934.163L268.185 939.454Z" fill="#EC353A"/>
<path d="M237.625 935.466L262.949 934.166L268.185 939.456C258.212 940.491 249.719 940.668 239.693 939.368L237.625 935.466Z" fill="#600808"/>
<path d="M362.473 849.693C364.219 852.856 365.827 856.344 367.945 859.27C375.876 868.343 378.944 899.171 378.264 911.732C378.06 915.486 377.38 917.762 375.46 920.954C372.36 919.092 371.166 918.56 369.207 915.427L362.919 917.259C355.372 910.875 352.37 906.56 342.034 905.673C315.534 918.53 298.384 934.077 268.187 939.456L262.951 934.166C284.368 929.614 307.786 923.673 322.348 905.821C327.395 899.614 329.709 893.141 328.246 885.161C325.699 871.299 314.39 865.743 303.519 858.649C285.627 877.122 270.9 884.245 246.575 892.462L235.148 889.033L236.836 886.462C249.359 884.57 261.217 879.398 273.033 875.023C279.868 868.964 286.316 862.994 294.259 858.413C300.006 856.994 304.819 854.659 310.085 852.088C316.642 856.639 325.061 861.102 333.101 861.959C345.621 863.26 353.404 857.053 362.473 849.693Z" fill="#0F0707"/>
<path d="M367.937 859.27C375.868 868.343 378.935 899.171 378.255 911.732C378.051 915.486 377.372 917.762 375.451 920.954C372.351 919.092 371.158 918.56 369.198 915.427C361.105 905.555 344.351 896.008 334.1 887.437L337.865 878.245L333.949 881.053C338.518 876.442 342.569 871.979 348.792 869.733C355.801 867.22 361.675 863.23 367.937 859.27Z" fill="#CA2127"/>
<path d="M210.68 889.651C219.982 886.459 227.05 885.927 236.843 886.459L235.155 889.03L246.582 892.459C235.179 892.843 223.212 892.548 211.918 893.907L210.68 889.651Z" fill="#820709"/>
<path d="M315.867 689.308C325.843 696.321 334.97 701.798 336.924 714.9C338.77 727.27 332.482 743.91 329.034 755.851C327.938 756.176 326.839 756.472 325.748 756.797C286.194 768.915 211.514 843.279 168.801 825.308C161.248 818.717 158.299 808.018 157.477 798.176C156.975 792.176 156.777 788.245 159.782 783.102C163.946 778.462 168.792 775.092 173.789 771.457C177.29 771.132 180.623 770.6 184.054 769.802C230.709 758.866 277.273 736.344 303.506 694.909C306.201 690.652 311.112 690.635 315.867 689.308Z" fill="#412D33"/>
<path d="M159.781 783.102C163.945 778.462 168.791 775.092 173.788 771.457C177.289 771.132 180.622 770.6 184.053 769.802C230.708 758.866 277.272 736.344 303.505 694.909C306.2 690.652 311.111 690.635 315.866 689.308C304.723 724.302 269.143 745.24 238.025 761.142C217.547 771.634 183.279 787.683 159.781 783.102Z" fill="#846B78"/>
<path d="M358.309 955.387L367.895 948.736C374.531 951.071 375.433 954.618 379.206 960.411C387.267 960.766 388.112 959.938 394.131 965.82C394.377 970.46 394.805 974.864 393.735 979.445L393.824 990.765C394.122 1006.02 395.109 1016.57 384.212 1028.6C376.293 1037.35 365.738 1043.41 353.705 1043.46C343.641 1043.52 333.727 1039.98 326.798 1032.56C320.465 1025.79 316.81 1017.66 313.175 1009.27C304.373 1002.56 298.011 994.401 291.141 985.859C315.04 980.657 342.015 975.337 358.309 955.387Z" fill="#212C3B"/>
<path d="M374.153 995.256C380.465 995.641 387.746 992.596 393.824 990.764C394.123 1006.01 395.11 1016.57 384.212 1028.6C376.293 1037.34 365.738 1043.4 353.705 1043.46C343.641 1043.52 333.727 1039.98 326.798 1032.56C320.466 1025.79 316.81 1017.66 313.176 1009.27C329.336 1007.82 349.108 1007.02 362.978 998.005L374.153 995.256Z" fill="#2F3B50"/>
<path d="M379.201 960.41C387.262 960.765 388.107 959.937 394.126 965.819C394.371 970.459 394.8 974.863 393.73 979.444L393.819 990.764C387.74 992.597 380.459 995.641 374.148 995.257L362.972 998.006C360.514 994.311 361.196 996.41 361.341 991.503C367.183 988.016 373.057 984.557 378.958 981.188C381.946 973.858 381.012 972.883 379.044 965.523L379.201 960.41Z" fill="#0F0707"/>
<path d="M374.152 995.256C379.985 988.547 384.622 981.305 393.735 979.443L393.823 990.763C387.745 992.596 380.464 995.64 374.152 995.256Z" fill="#7196B2"/>
<path d="M358.301 955.387L367.887 948.736C374.523 951.071 375.425 954.618 379.198 960.411L379.041 965.525C377.203 967.948 375.117 969.337 372.715 971.17C365.085 968.273 362.689 962.037 358.301 955.387Z" fill="#3A516B"/>
<path d="M359.384 128.628C357.832 118.59 356.585 113.979 357.868 103.753C365.66 104.696 367.483 108.881 374.191 115.395C402.239 141.387 408.353 152.775 413.73 191.411C413.559 209.979 411.733 216.753 407.431 235.066L405.321 239.281C394.952 226.238 388.637 223.699 374.078 215.979L372.137 214.362L370.468 214.501C357.244 214.214 349.963 212.996 336.988 210.924L340.963 205.04C346.734 194.246 352.664 178.815 357.492 167.208C358.645 154.561 358.914 141.369 359.384 128.628Z" fill="#DEC1C0"/>
<path d="M359.376 128.628C357.824 118.59 356.578 113.979 357.86 103.753C365.652 104.696 367.475 108.881 374.183 115.395C402.231 141.387 408.345 152.775 413.723 191.411C403.005 188.482 393.851 180.014 384.735 173.033L382.152 172.903C375.737 170.367 364.639 168.635 357.485 167.208C358.637 154.561 358.906 141.369 359.376 128.628Z" fill="#D5BCB5"/>
<path d="M359.376 128.628C357.824 118.59 356.578 113.979 357.86 103.753C365.652 104.696 367.475 108.881 374.183 115.395C380.069 135.464 380.462 145.886 382.099 166.492L384.735 173.033L382.152 172.903C375.737 170.367 364.639 168.635 357.485 167.208C358.637 154.561 358.906 141.369 359.376 128.628Z" fill="#FFFEFE"/>
<path d="M359.376 128.628C363.196 137.252 362.327 139.927 361.849 149.247L361.456 158.56C368.627 165.665 370.965 164.211 382.099 166.493L384.735 173.033L382.152 172.904C375.737 170.368 364.638 168.636 357.484 167.208C358.637 154.561 358.906 141.37 359.376 128.628Z" fill="#C6B8A9"/>
<path d="M357.492 167.207C364.646 168.635 375.745 170.367 382.16 172.903C380.263 189.93 379.518 194.508 374.232 210.726L372.137 214.361L370.468 214.5C357.244 214.213 349.963 212.996 336.988 210.924L340.963 205.039C346.734 194.245 352.664 178.814 357.492 167.207Z" fill="#FEF7E4"/>
<path d="M340.963 205.04C352.247 208.448 362.569 209.314 374.232 210.727L372.137 214.362L370.468 214.501C357.244 214.214 349.963 212.997 336.988 210.925L340.963 205.04Z" fill="#C6B8A9"/>
<path d="M374.078 215.98C389.993 213.719 397.85 223.715 407.43 235.068L405.32 239.282C394.952 226.239 388.637 223.7 374.078 215.98Z" fill="#CD9F9E"/>
<path d="M298.938 798.676C302.933 787.918 305.979 779.642 316.998 774.263C325.96 769.859 335.821 768.47 345.35 771.869C353.116 774.617 363.006 781.681 366.064 789.662C368.343 795.603 368.047 803.523 368.21 809.819C367.362 822.972 367.684 837.425 362.465 849.691C353.397 857.05 345.613 863.257 333.093 861.957C325.053 861.099 316.635 856.636 310.078 852.085C301.963 834.735 299.41 817.651 298.938 798.676Z" fill="#E02A31"/>
<path d="M298.938 798.676C302.933 787.918 305.979 779.642 316.998 774.263C325.96 769.859 335.821 768.47 345.35 771.869C353.116 774.617 363.006 781.681 366.064 789.662C368.343 795.603 368.047 803.523 368.21 809.819C350.055 809.908 312.078 811.208 298.938 798.676Z" fill="#EC353A"/>
<path d="M336.986 210.927C349.961 212.999 357.242 214.216 370.465 214.503L372.135 214.364L374.076 215.981C388.635 223.701 394.95 226.24 405.318 239.283C394.657 243.483 363.385 256.547 353.873 258.501L343.179 265.781C327.533 277.851 318.648 286.136 304.423 300.007L300.72 305.741L272.406 304.564L275.76 298.677C281.986 286.975 290.08 273.974 296.917 262.417L301.551 256.724C311.784 242.254 325.89 225.167 336.986 210.927Z" fill="#FEF7E4"/>
<path d="M296.917 262.414C312.445 262.298 328.39 261.273 343.179 265.777C327.533 277.848 318.648 286.133 304.423 300.003L300.72 305.737L272.406 304.561L275.76 298.673C281.986 286.972 290.08 273.97 296.917 262.414Z" fill="#FEF7E4"/>
<path d="M272.406 304.561L275.76 298.674L304.423 300.004L300.72 305.738L272.406 304.561Z" fill="#C6B8A9"/>
<path d="M372.129 214.362L374.07 215.979C388.629 223.699 394.943 226.238 405.312 239.281C394.651 243.481 363.379 256.545 353.867 258.499C359.47 245.923 368.769 227.456 370.459 214.501L372.129 214.362Z" fill="#E7CFCA"/>
<path d="M296.926 262.416L301.559 256.724C314.283 256.975 341.923 256.898 353.882 258.5L343.188 265.78C328.399 261.275 312.454 262.301 296.926 262.416Z" fill="#C6B8A9"/>
<path d="M392.254 750.296C397.742 768.178 399.89 828.384 397.245 847.595L400.898 851.97L410.85 847.743L413.961 842.453C425.816 856.403 429.017 874.285 427.388 892.285C426.546 901.595 424.008 914.363 415.917 920.097C413.311 921.93 411.624 922.816 408.557 923.23L400.788 922.225C400.703 926.304 400.206 925.89 402.7 929.614C401.985 939.22 400.49 945.191 395.49 953.466L390.322 954.737C385.612 950.127 384.914 949.565 383.526 943.181L386.56 945.93C387.021 945.279 387.544 944.659 387.943 943.949C399.689 923.437 385.952 796.404 378.461 768.621C382.11 761.143 386.342 756.148 392.254 750.296Z" fill="#0F0707"/>
<path d="M400.898 851.969L410.851 847.742C416.601 861.693 420.436 874.254 415.626 889.298L411.043 891.012C401.215 880.963 401.693 865.21 400.898 851.969Z" fill="#D48D6D"/>
<path d="M402.698 929.615C401.983 939.221 400.488 945.191 395.488 953.467L390.32 954.738C385.61 950.127 384.912 949.566 383.523 943.182L386.558 945.93C393.224 943.566 398.36 935.024 402.698 929.615Z" fill="#820709"/>
<path d="M1146.82 789.752C1159.96 784.343 1175.1 787.89 1184.44 798.619C1193.78 809.348 1195.24 824.835 1188.07 837.101C1180.78 849.574 1166.26 855.87 1152.18 852.707C1138.09 849.515 1127.69 837.574 1126.47 823.18C1125.24 808.816 1133.48 795.279 1146.82 789.752Z" fill="#CABCCF"/>
<path d="M1146.82 789.752C1159.96 784.343 1175.1 787.89 1184.44 798.619C1193.78 809.348 1195.24 824.835 1188.06 837.101C1185.45 837.16 1183.12 836.865 1180.62 836.067C1163.8 830.629 1154.38 804.56 1146.82 789.752Z" fill="#FEF7E4"/>
<path d="M1067.35 1308.56C1094.39 1309.59 1111.69 1331.49 1129.04 1349.52L1099.99 1360.9C1089.67 1363.94 1069.84 1371.95 1059.71 1368.76C1052.17 1366.37 1051 1363.47 1047.69 1356.91C1047.8 1339.77 1057.62 1322.27 1067.35 1308.56Z" fill="#CD9F9E"/>
<path d="M306.387 523.16C307.433 518.36 308.429 513.551 309.371 508.73L313.026 510.347C327.145 514.092 335.38 515.357 343.028 529.05L345.33 530.052C348.033 548.091 354.44 563.034 364.48 578.203L357.013 587.389L365.092 606.604C357.974 601.239 351.251 595.112 344.414 589.378L339.015 592.742C322.775 575.111 315.29 558.693 309.418 535.579L306.387 523.16Z" fill="#FA4C4F"/>
<path d="M343.017 529.054L345.319 530.056C348.023 548.094 354.429 563.038 364.47 578.206L357.003 587.392L365.081 606.607C357.963 601.242 351.241 595.115 344.403 589.381C342.574 584.889 340.925 580.328 339.453 575.708C333.848 557.682 334.374 545.901 343.017 529.054Z" fill="#020101"/>
<path d="M306.387 523.16C307.433 518.36 308.429 513.551 309.371 508.73L313.026 510.347C319.634 521.186 319.772 527.188 321.578 539.478L319.622 544.946C312.554 541.94 314.637 542.676 309.418 535.579L306.387 523.16Z" fill="#FE7375"/>
<path d="M1002.41 1314.67C1015.48 1321.97 1026.27 1333.68 1033.39 1346.86C1038.33 1356.02 1037.28 1361.34 1034.29 1370.48C1025.93 1375.44 1019.17 1374.41 1009.72 1374.64C1000.08 1374.02 990.991 1373.52 981.588 1371.07C975.46 1365.27 974.978 1363.91 972.859 1355.73C975.675 1339.59 990.48 1325.02 1002.41 1314.67Z" fill="#BD868D"/>
<path d="M831.777 600.341C851.23 630.757 874.901 658.023 894.274 688.345C874.839 680.843 852.273 674.829 838.568 658.336L836.352 654.048L841.546 648.024L837.247 645.308C832.723 629.891 831.786 616.366 831.777 600.341Z" fill="#36282D"/>
<path d="M352.2 713.882L357.459 714.896C367.979 726.384 378.702 742.788 392.26 750.295C386.347 756.148 382.115 761.143 378.466 768.62C365.349 763.212 351.358 760.965 337.508 758.216C344.044 743.527 348.63 729.547 352.2 713.882Z" fill="#E02A31"/>
<path d="M946.434 1314.35C954.123 1316.39 958.219 1316.83 962.302 1324.43C969.208 1337.31 966.628 1353.1 962.947 1366.46L959.017 1368.17C957.09 1367.73 955.169 1367.31 953.252 1366.84C941.899 1364.12 938.161 1362.73 932.168 1353.1C929.748 1338.47 938.379 1325.82 946.434 1314.35Z" fill="#BD868D"/>
<path d="M1008.59 386.701C1025.55 387.348 1057.03 406.403 1069.37 417.954L1066.27 421.149C1053.69 423.487 1041.07 425.588 1028.4 427.447C1021.71 420.446 1011.72 411.283 1007.79 402.39C1004.79 395.589 1006.36 393.369 1008.59 386.701Z" fill="#362126"/>
<path d="M272.405 304.564L300.719 305.741C290.708 324.955 281.689 343.869 281.554 366.195L274.169 383.684C266.507 351.784 264.932 336.151 272.405 304.564Z" fill="#FFFEFE"/>
<path d="M898.637 413.77C913.027 418.363 929.223 417.245 942.759 423.698L945.508 432.91C936.347 434.533 920.219 437.456 911.771 433.256C902.253 428.524 901.816 422.994 898.637 413.77Z" fill="#B8181E"/>
<path d="M348.276 703.317C344.952 697.465 341.294 691.784 337.739 686.068C337.039 678.017 337.671 673.861 341.704 666.821L347.605 666.28C354.363 674.831 353.06 682.285 353.814 692.905L357.457 714.895L352.197 713.881L348.276 703.317Z" fill="#E02A31"/>
<path d="M353.803 692.905L357.447 714.895L352.187 713.881L348.266 703.318L353.803 692.905Z" fill="#CA2127"/>
<path d="M1368.41 1123.09C1370.34 1124.42 1372.3 1125.66 1373.79 1127.52C1379.58 1134.7 1380.24 1137.6 1379.6 1146.26L1370.64 1152.05C1365.99 1150.87 1361.57 1149.1 1357.09 1147.41C1355.34 1138.4 1363.45 1130.65 1368.41 1123.09Z" fill="#FE7375"/>
<path d="M278.382 443.814C278.967 444.441 279.667 444.973 280.134 445.691C284.126 451.815 284.676 458.95 282.832 465.728L276.496 467.285C271.698 464.114 267.573 460.481 263.297 456.671L264.213 452.433L278.382 443.814Z" fill="#820709"/>
<path d="M344.418 589.38C351.256 595.114 357.978 601.241 365.097 606.605C369.963 612.05 375.371 617.405 379.528 623.396L375.208 625.167C364.122 613.412 351.315 603.209 339.02 592.743L344.418 589.38Z" fill="#820709"/>
<path d="M281.564 366.194C281.407 373.306 282.548 386.896 279.076 391.258L274.18 383.683L281.564 366.194Z" fill="#D5BCB5"/>
</svg>
