<svg width="2196" height="2282" viewBox="0 0 2196 2282" fill="none" xmlns="http://www.w3.org/2000/svg">
<path d="M1705.23 1289.77C1708.78 1285.21 1715.25 1284.15 1720.07 1287.34C1799.3 1339.8 1917.43 1430.53 2014.63 1532.51C2063.23 1583.5 2106.88 1637.6 2137.79 1691.39C2168.63 1745.05 2187.35 1799.36 2184.66 1850.48C2184.57 1852.08 2184.14 1853.65 2183.39 1855.07C2182.31 1857.11 2180.53 1858.93 2178.13 1860.03C2175.9 1861.04 2173.85 1861.1 2172.54 1860.99C2170.2 1860.79 2168.51 1859.9 2168.04 1859.66C2166.8 1859 2165.78 1858.19 2165.35 1857.85C2164.28 1856.99 2162.89 1855.74 2161.57 1854.56C2158.73 1852.02 2154.8 1848.53 2149.75 1844.6C2139.64 1836.73 2125.21 1827.29 2107.12 1821.2C2071.85 1809.31 2020.17 1809.24 1956.2 1865.59C1890.38 1923.58 1839.34 1975.21 1770.73 2003.45C1701.35 2032.02 1615.17 2036.48 1478.62 2005.12C1477.07 2004.77 1475.61 2004.08 1474.35 2003.11C1431.5 1970.16 1417.36 1918.7 1420.91 1859.98C1424.46 1801.36 1445.66 1733.63 1475.79 1664.8C1536.13 1527 1633.75 1381.6 1705.23 1289.77Z" fill="#E82117" stroke="#232323" stroke-width="22.1312" stroke-linejoin="round"/>
<path d="M761.86 1100.09C763.376 1099.7 764.952 1099.6 766.504 1099.8C862.18 1112.11 1000.15 1130.92 1103.03 1147.32C1154.34 1155.5 1197.37 1163.15 1222.03 1169.16C1228.21 1170.66 1233.52 1172.13 1237.63 1173.55C1239.67 1174.25 1241.67 1175.04 1243.44 1175.92C1244.84 1176.61 1247.58 1178.06 1249.72 1180.61C1250.89 1182.02 1252.6 1184.6 1252.9 1188.24C1253.23 1192.24 1251.72 1195.57 1249.86 1197.8C1246.97 1201.3 1242.99 1202.5 1241.67 1202.89C1237.93 1204 1232.82 1204.55 1227.15 1204.89C1227.07 1204.89 1226.98 1204.9 1226.9 1204.9C1209.71 1205.56 1187.66 1216.86 1161.32 1239.82C1135.39 1262.42 1107.09 1294.73 1077.51 1333.9C1018.4 1412.2 955.404 1516.32 897.534 1620.69C839.712 1724.98 787.211 1829.15 749.07 1907.36C730.004 1946.46 714.534 1979.06 703.79 2001.92C698.418 2013.34 694.228 2022.34 691.356 2028.51C689.924 2031.59 688.809 2033.98 688.043 2035.61C687.663 2036.42 687.351 2037.09 687.123 2037.56C687.013 2037.79 686.895 2038.03 686.785 2038.25C686.737 2038.35 686.643 2038.53 686.53 2038.74C686.467 2038.85 686.308 2039.13 686.204 2039.3C685.997 2039.63 685.12 2040.81 684.383 2041.62C682.047 2043.96 678.874 2045.26 675.57 2045.24C586.279 2044.81 536.859 2069.5 510.066 2092.72C496.571 2104.42 488.504 2116.01 483.91 2124.45C481.607 2128.68 480.19 2132.09 479.405 2134.29C479.118 2135.09 478.931 2135.7 478.82 2136.08C478.683 2137.17 478.4 2138.26 477.962 2139.31C476.038 2143.92 471.534 2146.92 466.541 2146.92C462.694 2146.92 459.685 2145.2 457.737 2143.24V2143.24C430.016 2115.19 395.298 2100.57 362.659 2093.81C330.178 2087.09 300.52 2088.33 283.5 2091.39L227.388 2105.86C223.838 2106.77 220.064 2106.07 217.085 2103.93C214.106 2101.79 212.226 2098.44 211.954 2094.79L173.938 1583.78C173.767 1581.49 174.236 1579.21 175.29 1577.17L368.023 1204.96L368.18 1204.67C369.828 1201.69 372.638 1199.51 375.951 1198.66L761.86 1100.09Z" fill="#A7120B" stroke="#232323" stroke-width="24.7548" stroke-linejoin="round"/>
<path d="M1199.06 199.652C1165.82 227.446 1119.44 250.98 1060.06 263.02L910.035 293.271C884.636 104.239 990.102 31.997 1046.59 137.017C1046.59 137.017 1061.08 46.7676 1174.4 31.0194C1180.18 30.396 1185.44 29.7474 1191.74 29.1492C1284.94 22.829 1286.95 126.101 1199.06 199.652Z" fill="#F4D93B"/>
<path d="M1198.97 199.647C1188.22 197.766 1183.57 191.657 1191.06 177.994C1219.52 122.816 1257.9 38.7077 1153.06 47.1757L1174.31 31.0153C1180.09 30.3919 1185.35 29.7433 1191.65 29.1451C1284.85 22.8249 1286.86 126.096 1198.97 199.647Z" fill="white"/>
<path d="M908.649 308.179C900.878 307.801 894.078 302.492 893.141 295.658C875.59 163.121 919.804 89.2524 968.345 76.2315C994.47 69.3589 1020.67 78.7804 1041.96 101.991C1059.6 68.4589 1099.87 20.644 1190.44 14.6481C1239.15 11.1384 1273.48 34.079 1279.18 74.1782C1288.84 139.358 1219.22 246.381 1063.42 277.255C1054.4 279.078 1044.97 274.094 1043.08 266.309C1041.19 258.524 1047.15 250.217 1056.17 248.393C1190.24 221.891 1253.19 130.834 1244.97 78.3944C1242.39 61.0731 1231.21 41.0703 1191.95 43.6827C1079.37 51.3217 1063.39 135.163 1063.06 138.768C1061.96 145.049 1056.25 150.654 1048.36 151.627C1040.98 152.625 1033.46 149.543 1030.36 143.51C1014.83 114.245 994.821 99.6946 976.713 104.243C946.321 112.265 910.865 175.7 926.354 290.941C927.686 299.151 920.769 306.507 911.28 307.855C911.239 308.305 909.685 308.23 908.649 308.179Z" fill="#232323"/>
<path d="M1485.35 1801.82C1648.96 1949.66 1639.95 2063.24 1435.32 2081.27C1230.69 2099.3 1083.76 2057.38 1131.08 1929.38C1178.41 1801.37 1485.35 1801.82 1485.35 1801.82Z" fill="#FF814A"/>
<path d="M1350.11 2100.23C1238.33 2100.23 1160.8 2077.25 1127 2033.08C1104.91 2003.78 1101.31 1967.27 1117.53 1924.45C1167.56 1788.79 1470.9 1786.98 1485.77 1786.98C1489.38 1786.98 1492.98 1788.34 1495.69 1790.59C1589.44 1875.32 1629.1 1950.14 1610.17 2006.94C1593.49 2056.97 1535.35 2087.16 1437.09 2095.73C1405.99 2098.88 1377.15 2100.23 1350.11 2100.23ZM1479.91 1816.73C1438.9 1817.63 1184.69 1827.1 1145.03 1934.82C1132.86 1968.17 1134.66 1994.31 1150.44 2015.05C1185.59 2060.57 1288.81 2079.5 1434.39 2066.43C1518.22 2058.77 1569.61 2035.33 1581.78 1997.92C1596.2 1954.2 1560.14 1890.2 1479.91 1816.73Z" fill="#232323"/>
<path d="M461.781 1411.92C203.067 1412.37 9.70746 1553.44 519.473 1837.85C961.181 2084.39 461.781 1411.92 461.781 1411.92Z" fill="#EFA33F"/>
<path d="M662.79 1907.26C628.986 1907.26 579.406 1888.78 512.249 1850.92C390.103 1782.86 300.86 1718.86 247.225 1660.26C197.195 1605.72 177.363 1556.14 188.631 1512.88C210.716 1427.24 344.581 1396.59 462.219 1396.59C467.177 1396.59 471.684 1398.84 474.388 1402.9C475.29 1403.8 549.208 1503.86 614.563 1611.58C737.61 1813.96 724.989 1868.04 704.707 1891.03C694.791 1901.85 680.819 1907.26 662.79 1907.26ZM454.106 1427.24C324.298 1429.04 231.9 1465.1 217.477 1520.99C206.209 1563.81 231.9 1660.26 526.672 1824.77C648.367 1892.38 675.861 1877.51 681.269 1871.2C688.932 1862.64 704.707 1819.37 587.97 1627.81C532.982 1536.31 471.233 1450.68 454.106 1427.24Z" fill="#232323"/>
<path d="M1686.34 1035.54C1865.56 1280.42 2103.11 1350.4 2080.17 1479.82C2057.24 1609.23 1581.85 1621.39 1443.79 1414.67C1306.17 1207.82 1686.34 1035.54 1686.34 1035.54Z" fill="#EFA33F"/>
<path d="M1406.62 1371.01C1396.83 1339.59 1396.75 1307.52 1405.95 1274.91C1447.61 1128.33 1671.03 1025.67 1680.52 1021.29C1686.71 1018.42 1694.37 1020.28 1698.53 1026.07C1778.35 1135.27 1870.97 1209.8 1944.92 1269.85C2040.19 1346.86 2108.95 1402.38 2094.99 1481.8C2087.13 1526.26 2037.7 1560.07 1956.11 1577C1871.94 1594.73 1765.65 1591.49 1672.16 1568.69C1594.55 1549.91 1489.72 1508.93 1432.12 1422.55C1420.33 1405.92 1412.11 1388.65 1406.62 1371.01ZM1681.73 1053.96C1637.24 1076.32 1467.37 1167.49 1434.14 1283.59C1421.9 1326.12 1429.23 1366.32 1456.38 1406.49C1550.13 1546.76 1802.96 1579.4 1949.68 1548.79C2016.67 1535 2060.25 1508.2 2065.71 1477.23C2076.92 1414.72 2013.91 1364.01 1926.21 1293.15C1852.53 1233.96 1761.74 1160.75 1681.73 1053.96Z" fill="#232323"/>
<path d="M716.018 1801.82C552.407 1949.66 561.421 2063.24 766.049 2081.27C970.676 2099.3 1117.61 2057.38 1070.29 1929.37C1022.96 1801.37 716.018 1801.82 716.018 1801.82Z" fill="#FF814A"/>
<path d="M851.715 2100.2C824.672 2100.2 795.826 2098.85 764.726 2096.14C666.919 2087.58 608.326 2057.38 591.649 2007.35C572.719 1950.11 611.931 1875.29 706.132 1791C708.836 1788.75 712.442 1787.4 716.048 1787.4C730.922 1787.4 1034.26 1789.2 1084.29 1924.87C1100.06 1967.69 1096.91 2004.2 1074.82 2033.49C1041.02 2077.21 963.043 2100.2 851.715 2100.2ZM721.457 1816.7C641.228 1890.16 605.171 1954.62 619.594 1997.89C632.214 2035.3 683.145 2059.18 766.98 2066.4C912.563 2079.47 1015.78 2060.54 1050.93 2015.01C1066.71 1994.28 1068.51 1967.69 1056.34 1934.78C1016.68 1826.61 762.923 1817.15 721.457 1816.7Z" fill="#232323"/>
<path d="M1794.03 1623.32C1793.13 1626.48 1792.68 1629.63 1791.78 1632.79C1697.13 1970.38 1285.62 1975.79 993.1 1971.73H992.198C931.351 1970.83 871.405 1966.32 814.163 1957.31H813.713C563.111 1918.54 364.343 1796.4 382.823 1506.58C386.879 1407.88 403.105 1309.17 424.74 1215.42C440.064 1149.61 466.206 1094.17 480.179 1030.62C488.292 994.565 490.095 954 490.545 914.787C485.587 761.091 520.293 624.072 584.295 512.744C720.413 275.213 988.592 153.068 1292.38 235.099C1601.12 321.187 1702.54 594.324 1689.01 892.702V893.603C1685.41 1011.69 1716.96 1080.65 1759.33 1187.92C1812.51 1325.39 1829.19 1479.99 1794.03 1623.32Z" fill="#F4D93B"/>
<path d="M1529.5 449.621C1646.69 616.388 1666.07 725.462 1681.39 855.721C1696.27 985.979 1688.6 784.507 1688.6 784.507L1675.08 668.671L1633.62 517.229L1597.56 459.537L1529.5 449.621Z" fill="white"/>
<path d="M813.713 1957.72C563.111 1918.96 364.343 1796.82 382.823 1507C386.879 1408.29 403.105 1309.59 424.74 1215.84C440.064 1150.03 466.206 1094.59 480.179 1031.04C488.292 994.983 490.095 954.418 490.545 915.205C485.587 761.509 500.563 583.5 586.063 505.5C611.881 481.947 721.563 457 721.563 457C649.448 637.289 624.86 1011.66 624.86 1011.66C624.86 1011.66 303.496 1539.45 558.153 1551.17C558.153 1551.17 553.196 1901.38 813.713 1957.72Z" fill="#EC2F2F" fill-opacity="0.14"/>
<path opacity="0.32" d="M1776.39 1668.08C1775.32 1671.23 1774.78 1674.39 1773.71 1677.54C1661.05 2015.02 1204.71 1968.56 856.563 1964.5H823.141L723.564 1943C602.866 1796.57 665.965 1331.06 1085.99 1228.78C1456.14 1138.66 1697.06 1241 1772.63 1381.97C1805.06 1480 1782.83 1552.73 1776.39 1668.08Z" fill="#FFF4C5"/>
<path d="M1067.99 1987.48C1042.75 1987.48 1017.51 1987.03 992.717 1987.03C743.468 1982.98 565.884 1924.83 464.021 1814.41C392.356 1736.43 359.904 1632.77 368.017 1506.11C371.623 1415.97 386.046 1317.26 410.385 1212.69C418.047 1179.34 428.414 1148.69 438.78 1118.94C449.147 1088.29 459.063 1059.45 465.824 1028.35C474.387 990.938 475.74 948.57 475.74 916.119C468.077 672.278 559.123 457.284 725.89 325.223C882.291 201.274 1084.66 164.315 1296.05 221.557C1574.6 299.532 1719.28 537.963 1703.51 893.582V894.033V894.484C1700.35 1000.4 1726.49 1066.66 1763 1158.16C1766.16 1166.27 1769.31 1174.38 1772.92 1182.95C1831.51 1333.04 1843.23 1494.39 1806.27 1636.82C1762.55 1792.32 1653.02 1892.83 1470.93 1944.67C1344.28 1980.72 1204.56 1987.48 1067.99 1987.48ZM1105.4 224.712C971.533 224.712 847.134 266.629 744.37 348.209C585.265 473.961 498.276 680.842 505.487 915.217V915.668C505.487 949.923 504.135 994.093 494.67 1034.66C487.458 1067.56 476.641 1098.21 466.725 1128.41C456.809 1157.71 446.443 1187.45 439.231 1219.45C415.343 1322.22 401.371 1419.12 397.314 1507.92C389.652 1626.46 419.399 1722.91 485.655 1794.57C581.659 1898.69 752.032 1953.23 993.168 1957.74C1326.7 1961.79 1690.43 1940.61 1777.42 1629.16C1813.03 1493.04 1801.76 1338.44 1745.42 1194.21C1742.27 1185.65 1738.66 1177.54 1735.51 1169.42C1697.65 1074.32 1670.6 1005.81 1674.21 894.033V893.582V893.132C1682.77 695.716 1644.46 350.012 1288.39 250.403C1226.19 232.825 1164.89 224.712 1105.4 224.712Z" fill="#232323"/>
<path d="M105.703 493.723C219.581 416.461 322.974 402.381 406.318 417.249C481.877 430.728 540.179 467.86 574.32 501.684C576.715 500.112 579.115 498.816 581.516 497.867C587.829 495.371 597.056 494.42 604.344 501.368C610.236 506.986 611.365 514.832 611.54 519.966C611.738 525.776 610.83 532.268 609.296 538.82C603.426 563.894 586.023 599.497 560.853 624.911C507.932 771.587 395.152 831.948 296.542 854.986C247.014 866.557 200.837 868.809 167.049 867.994C150.138 867.586 136.229 866.408 126.433 865.212C121.554 864.616 117.585 864.003 114.715 863.454C113.326 863.189 111.951 862.893 110.776 862.566C110.266 862.425 109.318 862.148 108.294 861.71C107.863 861.525 106.72 861.024 105.459 860.118C104.834 859.669 103.65 858.749 102.508 857.273C101.387 855.825 99.5635 852.86 99.5635 848.667C99.5635 846.764 99.9516 844.88 100.704 843.132C144.006 742.536 204.656 686.546 269.556 652.562C301.54 635.813 334.532 624.467 366.495 615.678C273.632 614.554 211.95 596.354 171.409 575.089C144.995 561.233 127.784 546.191 116.93 534.064C111.513 528.013 107.714 522.728 105.16 518.738C102.787 515.031 101.003 511.545 101.408 512.254C97.7794 505.903 99.6504 497.829 105.703 493.723Z" fill="#E82117" stroke="#232323" stroke-width="28" stroke-linejoin="round"/>
<path d="M598.516 492.543C748.503 420.687 1104.85 306.049 1578.76 436.231C1580.59 436.567 1582.01 437.185 1582.81 437.593C1584.79 438.606 1586.14 439.864 1586.74 440.457C1588.05 441.756 1589.08 443.187 1589.73 444.136C1591.16 446.227 1592.75 448.987 1594.38 452.03C1597.72 458.249 1602.05 467.124 1606.96 477.837C1616.8 499.327 1629.32 528.909 1641.56 560.956C1653.79 592.983 1665.82 627.691 1674.63 659.385C1683.32 690.646 1689.31 720.451 1688.49 742.024C1688.02 754.265 1684.29 764.937 1677.46 773.638C1670.71 782.221 1661.62 788.046 1651.68 791.871C1632.2 799.373 1607.48 799.965 1583.17 797.225C1558.52 794.445 1532.65 788.045 1509.91 780.13C1487.36 772.283 1466.87 762.601 1453.46 752.784C1429.99 735.601 1400.68 710.764 1338.11 707.121C1274.47 703.416 1175.19 721.697 1013.33 796.917C1013.32 796.923 1013.31 796.929 1013.3 796.935C880.258 858.283 766.755 876.014 679.202 870.91C592.267 865.843 529.483 838.096 499.863 806.589C497.519 804.095 496.169 800.83 496.069 797.409C495.227 768.562 505.317 714.581 522.17 658.348C539.111 601.821 563.616 540.553 592.981 497.305C594.372 495.256 596.282 493.613 598.516 492.543Z" fill="#E82117" stroke="#232323" stroke-width="28" stroke-linejoin="round"/>
<path d="M961.076 637.917C967.676 626.954 976.149 617.749 986.136 610.319C988.539 608.35 991.32 606.826 993.745 605.319C995.124 604.326 996.526 603.794 997.928 603.262C999.307 602.269 1000.71 601.738 1002.11 601.206C1007.7 598.618 1013.35 597.415 1019.4 597.116C1031.13 596.076 1043.4 598.709 1054.41 604.642C1059.91 607.608 1065.1 611.515 1069.58 615.457C1072.19 617.641 1074.44 619.843 1076.35 622.523C1077.49 623.855 1078.63 625.186 1079.76 626.518C1080.52 627.406 1080.9 627.849 1081.3 628.755C1082.06 629.642 1082.44 630.086 1083.22 631.435C1086.3 635.909 1085.92 642.865 1082.54 646.731C1080.52 649.144 1077.69 649.745 1075.16 648.946L1071.17 647.754C1070.81 647.772 1070.44 647.328 1069.7 646.902L1068.21 645.588C1067.09 644.718 1066 644.309 1065.24 643.421C1063.04 642.143 1061.19 640.846 1058.98 639.567C1054.93 636.992 1050.54 634.895 1046.53 633.243C1038.16 629.956 1029.85 628.052 1021.31 628.474C1017.03 628.684 1012.78 629.356 1008.55 630.49C1007.51 631.004 1006.44 631.056 1005.39 631.57C1004.35 632.085 1003.28 632.137 1002.23 632.651C1000.14 633.679 998.027 634.246 995.935 635.274C987.569 639.387 979.271 644.883 971.019 651.302L970.662 651.32C967.237 654.264 962.516 652.647 960.485 647.659C958.924 644.961 959.076 640.791 961.076 637.917Z" fill="#232323"/>
<path d="M1397.53 617.365C1404.55 606.671 1413.38 597.806 1423.65 590.775C1426.13 588.903 1428.97 587.489 1431.45 586.079C1432.87 585.141 1434.29 584.665 1435.71 584.189C1437.13 583.251 1438.55 582.775 1439.98 582.299C1445.66 579.933 1451.35 578.953 1457.42 578.894C1469.18 578.316 1481.33 581.43 1492.1 587.792C1497.48 590.972 1502.51 595.081 1506.83 599.196C1509.35 601.481 1511.51 603.769 1513.32 606.523C1514.4 607.899 1515.49 609.274 1516.57 610.649C1517.29 611.566 1517.65 612.025 1518.02 612.945C1518.74 613.862 1519.1 614.32 1519.83 615.699C1522.73 620.29 1522.08 627.226 1518.55 630.957C1516.44 633.287 1513.59 633.777 1511.08 632.878L1507.15 631.531C1506.79 631.534 1506.43 631.076 1505.71 630.621L1504.27 629.249C1503.19 628.336 1502.12 627.885 1501.4 626.968C1499.24 625.603 1497.45 624.235 1495.29 622.87C1491.34 620.137 1487.04 617.87 1483.1 616.061C1474.86 612.446 1466.64 610.217 1458.08 610.301C1453.8 610.343 1449.53 610.847 1445.26 611.813C1444.19 612.286 1443.12 612.297 1442.06 612.769C1440.99 613.241 1439.92 613.252 1438.86 613.725C1436.73 614.669 1434.59 615.152 1432.46 616.097C1423.94 619.877 1415.43 625.043 1406.93 631.132L1406.58 631.135C1403.04 633.942 1398.39 632.14 1396.55 627.076C1395.1 624.319 1395.41 620.158 1397.53 617.365Z" fill="#232323"/>
<path d="M774.048 1396.64C689.764 1474.61 618.099 1527.35 558.153 1559.8C189.463 1758.12 257.972 1184.8 539.673 968.904L593.309 1066.71L774.048 1396.64Z" fill="#F4D93B"/>
<path d="M558.23 1559.8C189.54 1758.11 258.05 1184.8 539.75 968.901L593.386 1066.71C519.468 1201.92 354.504 1542.22 558.23 1551.68C558.23 1551.23 558.23 1554.39 558.23 1559.8Z" fill="#EC2F2F" fill-opacity="0.14"/>
<path d="M548.408 993.98C512.224 1023.1 480.011 1057.52 451.77 1095.47C438.091 1114.45 424.853 1133.86 413.38 1154.6C401.466 1174.9 390.875 1195.64 381.167 1217.26C361.752 1260.06 346.748 1304.63 337.041 1350.52C332.187 1373.47 328.656 1396.42 327.333 1419.36C326.009 1442.31 326.45 1465.7 330.421 1487.32C334.393 1509.38 341.012 1530.56 352.926 1547.77C364.84 1564.54 381.609 1576.89 401.466 1582.19C411.615 1584.84 421.764 1585.72 432.796 1585.72C443.827 1585.28 454.418 1583.96 465.891 1581.31C487.954 1576.45 509.576 1568.51 530.757 1558.8C573.119 1539.39 613.274 1513.35 652.106 1485.55C690.938 1457.75 728.004 1427.31 764.629 1396.42C767.718 1393.77 771.69 1394.21 773.896 1397.3C776.102 1399.95 776.102 1403.92 773.455 1406.12C739.477 1440.54 703.293 1473.2 665.785 1503.64C646.811 1518.65 627.395 1533.65 606.655 1546.89C585.916 1560.13 565.176 1573.36 543.113 1584.4C521.049 1595.43 497.662 1604.69 472.51 1611.31C460.154 1614.4 446.916 1616.17 434.12 1617.05C420.881 1617.49 407.202 1616.61 393.964 1613.52C387.345 1611.76 380.726 1609.55 374.107 1606.9C367.488 1604.25 361.31 1600.72 355.574 1596.75C343.66 1588.81 333.952 1578.66 326.009 1567.19C322.037 1561.45 318.507 1555.71 315.418 1549.98C312.33 1543.8 309.682 1537.62 307.475 1531.89C305.269 1525.71 303.063 1519.53 301.298 1513.35C299.533 1507.17 298.209 1500.56 296.885 1494.38C292.472 1468.78 291.59 1443.63 292.914 1418.48C294.237 1393.33 297.768 1368.62 303.063 1344.35C313.212 1295.81 329.539 1248.59 350.279 1203.58C360.428 1181.08 371.901 1159.46 384.697 1138.27C397.494 1117.09 411.174 1096.8 426.177 1076.94C456.183 1037.67 491.043 1001.48 531.199 971.916C537.818 967.062 546.643 968.386 551.497 975.005C555.91 980.3 554.586 989.126 548.408 993.98Z" fill="#232323"/>
<path d="M879.578 1972.63C982.793 1995.62 1052.66 2022.66 1052.66 2022.66L1079.25 1989.76L1066.63 1972.63H879.578Z" fill="#232323"/>
<path d="M1143.22 2029.86C1301.88 1954.59 1599.35 1932.51 1599.35 1932.51L1561.49 1891.94L1463.23 1928.45L1291.06 1964.06L1122.04 1972.62L1143.22 2029.86Z" fill="#232323"/>
<path d="M392.846 1646.75C583.051 1662.07 702.041 1466.91 702.041 1466.91L593.868 1555.25L496.512 1587.71L410.425 1601.23L390.593 1613.4L392.846 1646.75Z" fill="#232323"/>
<path d="M1127.78 738.896C1242.67 663.52 1301 656.984 1423.11 730.919C1451.59 748.013 1443.65 776.165 1419.79 786.779C1362.74 812.201 1198.86 819.661 1133.25 799.688C1102.83 790.169 1096.45 759.488 1127.73 738.843L1127.78 738.896Z" fill="#FF814A"/>
<path d="M1119.97 726.979C1160.9 701.356 1206.48 676.12 1255.63 668.97C1305.86 661.396 1356.8 680.013 1400.03 702.434C1409.19 706.856 1417.92 712.01 1426.82 716.883C1433.01 720.251 1439.73 724.539 1444.62 730.161C1465.17 750.957 1456.11 784.945 1431.63 798.285C1422.38 803.579 1410.32 807.428 1400.11 810.605C1330.73 830.558 1182.55 840.387 1116.79 809.933C1080.51 789.307 1087.05 746.248 1119.98 727.034L1119.97 726.979ZM1135.61 750.819C1117.66 762.99 1117.26 779.727 1140.07 784.714L1150.53 787.048C1210.24 796.137 1274.57 793.913 1335.13 788.291C1357.73 785.78 1380.46 782.546 1402.32 776.308C1402.97 775.899 1413.72 772.538 1414.31 771.965C1419.69 769.677 1424.94 765.076 1426.23 759.401C1427.88 751.671 1419.19 744.583 1412.43 740.849C1404.14 735.844 1395.84 730.399 1387.34 725.843C1285.89 666.519 1226.86 687.374 1135.55 750.766L1135.61 750.819Z" fill="#232323"/>
<path d="M486.674 983.465C488.917 978.979 493.644 976.29 498.646 976.655C758.175 995.602 983.988 1121.13 1113.14 1179.21C1118.46 1181.61 1121.39 1187.39 1120.17 1193.1C1118.94 1198.8 1113.9 1202.88 1108.06 1202.88C1079.26 1202.88 1031.4 1195.62 986.491 1190.39C963.643 1187.72 941.241 1185.53 921.479 1184.83C901.46 1184.13 885.242 1185.01 874.268 1187.96C873.77 1188.09 873.264 1188.19 872.754 1188.26C616.601 1223.59 456.648 1307.93 359.898 1413.06C263.196 1518.15 228.29 1645.47 225.11 1769.49C221.927 1893.65 250.59 2013.87 280.379 2103.48C295.253 2148.22 310.358 2185.17 321.794 2210.97C327.511 2223.87 332.304 2233.96 335.685 2240.83C337.376 2244.27 338.706 2246.89 339.614 2248.63C340.071 2249.51 340.406 2250.14 340.617 2250.52C340.655 2250.59 340.686 2250.65 340.71 2250.69C342.921 2254.24 343.227 2258.73 341.359 2262.61C339.077 2267.35 334.048 2270.13 328.821 2269.54C164.528 2251.01 82.0417 2179.97 41.8281 2125.41C13.0311 2086.34 8.36991 2032.62 15.0723 1987.48C53.5388 1728.39 145.756 1518.03 228.807 1371.75C270.34 1298.61 309.607 1241.44 338.77 1202.17C353.352 1182.53 365.409 1167.37 373.957 1156.92C378.232 1151.7 381.623 1147.66 384.003 1144.85C384.365 1144.42 384.692 1144.03 384.993 1143.68C385.4 1107.79 401.063 1086.33 417.052 1073.63C425.131 1067.21 433.04 1063.22 438.195 1060.72C438.509 1060.57 438.802 1060.43 439.075 1060.3C443.339 1038.91 454.698 1021.11 465.046 1008.02C470.686 1000.88 476.236 994.882 480.41 990.383C482.558 988.067 484.202 986.299 485.448 984.859C486.913 983.167 486.955 982.902 486.674 983.465Z" fill="#E82117" stroke="#232323" stroke-width="24.7548" stroke-linejoin="round"/>
<path d="M1622.49 990.144C1654.09 979.398 1684.08 974.274 1706.33 982.06C1706.66 982.175 1706.98 982.304 1707.3 982.449C1713.09 985.111 1716.86 990.774 1719.11 995.267C1721.64 1000.31 1723.54 1006.44 1724.42 1012.89C1725.35 1019.66 1725.24 1027.53 1723.06 1035.18C1728.62 1035.28 1735.05 1035.74 1741.43 1037.14C1751.08 1039.25 1761.98 1043.8 1769.35 1053.89C1775.88 1062.84 1778.46 1074.52 1776.9 1088.9C1778.1 1089.76 1779.48 1090.75 1781.52 1092.25C1787.56 1096.7 1795.77 1103.08 1803.67 1111.17C1819.21 1127.08 1835.49 1151.71 1828.35 1182.69C1827.55 1186.14 1825.15 1189.01 1821.89 1190.39C1818.63 1191.78 1814.9 1191.52 1811.86 1189.69C1780.74 1170.99 1762.47 1161.26 1746.99 1156.49C1732.12 1151.91 1719.3 1151.75 1698.51 1153.96C1676.96 1156.25 1590.58 1160.58 1507.49 1166.75C1465.66 1169.86 1424.43 1173.44 1391.93 1177.49C1375.66 1179.52 1361.77 1181.64 1351.16 1183.83C1345.85 1184.93 1341.54 1186.02 1338.25 1187.06C1334.74 1188.17 1333.19 1189 1332.8 1189.27C1327.87 1192.72 1321.11 1191.6 1317.54 1186.77C1313.98 1181.93 1314.93 1175.14 1319.68 1171.46C1367.29 1134.57 1443.34 1080.85 1516.95 1039.52C1553.72 1018.87 1590.24 1001.11 1622.49 990.144Z" fill="#E82117" stroke="#232323" stroke-width="22.1312" stroke-linejoin="round"/>
<path d="M1335.1 1079.01L1118.82 1091.22C1113.59 1091.52 1108.84 1094.36 1106.09 1098.82L1069.68 1158C1065.5 1164.8 1066.96 1173.64 1073.12 1178.72L1212.35 1293.74C1233.85 1311.49 1265.71 1308.24 1283.17 1286.5L1388.51 1155.4C1393.2 1149.57 1393.22 1141.28 1388.57 1135.42L1348.52 1085.03C1345.29 1080.97 1340.28 1078.72 1335.1 1079.01Z" fill="#58BF43" stroke="#E82117" stroke-width="29" stroke-linejoin="round"/>
<path d="M1222.89 1196.15C1223.47 1195.96 1224.04 1195.96 1224.62 1195.96C1230.01 1195.57 1235.79 1195.38 1241.19 1195C1247.35 1194.61 1252.74 1194.42 1258.71 1194.04C1260.45 1193.85 1262.37 1193.46 1263.91 1192.89C1272.39 1190.01 1275.08 1181.75 1272.77 1172.91C1269.31 1159.85 1258.71 1148.91 1245.42 1146.03C1227.7 1141.99 1208.25 1150.06 1200.35 1166.58C1197.47 1172.53 1196.12 1180.21 1196.69 1187.32C1198.04 1208.63 1215.38 1224.19 1236.76 1224C1245.23 1224 1253.71 1222.27 1260.64 1217.66C1265.65 1214.4 1271.23 1210.17 1269.69 1203.45C1268.34 1198.07 1263.53 1194.61 1258.13 1196.54C1256.4 1197.11 1254.86 1198.07 1253.32 1199.03C1251.2 1200.18 1249.08 1201.53 1246.77 1202.3C1240.8 1204.6 1231.17 1204.99 1225.39 1201.72C1224.24 1200.95 1222.12 1199.61 1221.73 1198.26C1221.35 1197.5 1221.93 1196.54 1222.89 1196.15ZM1221.54 1177.14C1220.77 1176.95 1220.19 1176.37 1220.19 1175.6C1220.19 1175.03 1220.38 1174.26 1220.58 1173.68C1223.08 1167.92 1229.05 1164.85 1235.6 1164.85C1241.38 1164.65 1247.35 1166.96 1250.43 1172.53C1250.62 1172.91 1250.82 1173.3 1250.82 1173.68C1250.82 1174.07 1250.82 1174.45 1250.62 1174.83C1250.24 1175.6 1249.47 1175.99 1248.5 1175.99C1241.76 1176.37 1229.82 1176.95 1222.7 1177.33C1222.31 1177.33 1221.93 1177.33 1221.54 1177.14Z" fill="white"/>
<path d="M1334.13 1055.2C1346.81 1054.48 1359.05 1059.97 1366.94 1069.91L1407.59 1121.06C1418.96 1135.36 1418.9 1155.63 1407.46 1169.87L1300.28 1303.25C1275.31 1334.34 1229.73 1339 1198.98 1313.6L1057.44 1196.69C1042.41 1184.27 1038.83 1162.67 1049.05 1146.06L1086 1086L1086.32 1085.49C1093.07 1074.89 1104.52 1068.16 1117.09 1067.45L1334.13 1055.2ZM1124.25 1114.79L1093.55 1164.69L1229.33 1276.85C1239.59 1285.33 1254.8 1283.77 1263.13 1273.4L1366.02 1145.35L1332.39 1103.03L1124.25 1114.79Z" fill="#E82117" stroke="#232323" stroke-width="20" stroke-linejoin="round"/>
</svg>
