<svg width="488" height="443" viewBox="0 0 488 443" fill="none" xmlns="http://www.w3.org/2000/svg">
<path d="M295.77 25.0654C322.501 16.7202 351.183 16.993 377.751 25.8438C404.32 34.6946 427.431 51.6756 443.809 74.3848C460.186 97.094 469 124.379 469 152.375C469 236.592 426.549 301.44 378.895 345.944C331.677 390.041 277.199 416.221 248.039 422.565L244 423.444L239.961 422.565C210.801 416.221 156.323 390.041 109.105 345.944C61.4514 301.44 19 236.592 19 152.375C19 124.379 27.8136 97.094 44.1914 74.3848C60.5691 51.6757 83.6804 34.6946 110.249 25.8438C136.817 16.993 165.499 16.7202 192.23 25.0654C211.656 31.1299 229.337 41.5234 244 55.3447C258.663 41.5234 276.344 31.1299 295.77 25.0654Z" fill="#08C335" stroke="#232323" stroke-width="38"/>
</svg>
